<?xml version="1.0" encoding="utf-8"?>
<!-- Generator: Adobe Illustrator 25.2.1, SVG Export Plug-In . SVG Version: 6.00 Build 0)  -->
<svg version="1.1" xmlns="http://www.w3.org/2000/svg" xmlns:xlink="http://www.w3.org/1999/xlink" x="0px" y="0px"
	 viewBox="0 0 2363.36 1203.12" style="enable-background:new 0 0 2363.36 1203.12;" xml:space="preserve">
<style type="text/css">
	.st0{fill:#E7F0F8;}
	.st1{fill:#254975;}
	.st2{fill:#162745;}
	.st3{fill:#223053;}
	.st4{fill:#6D89D0;}
	.st5{fill:#7FA8E2;}
	.st6{fill:#030631;}
	.st7{fill:#A0795F;}
	.st8{fill:#F5AB75;}
	.st9{fill:#FC9490;}
	.st10{fill:#FB7369;}
	.st11{fill:#824343;}
	.st12{fill:#E29C6D;}
	.st13{fill:#743B3A;}
	.st14{fill:#3566C9;}
	.st15{fill:#6B819E;}
	.st16{fill:#FFFFFF;}
	.st17{fill:#4080C6;}
	.st18{fill:#AFCCEB;}
	.st19{fill:#F9C29D;}
	.st20{fill:#2D3D66;}
	.st21{fill:#232C43;}
	.st22{fill:#2E4475;}
	.st23{fill:#E29866;}
	.st24{fill:#2C3A64;}
	.st25{fill:#E29969;}
	.st26{fill:#4A75CB;}
	.st27{fill:#94A5CA;}
	.st28{fill:#F2CD19;}
	.st29{fill:#D3B020;}
	.st30{fill:#163560;}
	.st31{fill:#1C468A;}
	.st32{fill:#3D9849;}
	.st33{fill:#F8FBFF;}
	.st34{fill:#BDD3F9;}
	.st35{fill:#DEEDFF;}
	.st36{fill:#D0D6F2;}
	.st37{fill:#31589F;}
	.st38{fill:#2B3B64;}
	.st39{fill:#2E3552;}
	.st40{fill:#7DA3E7;}
	.st41{fill:#A2C0F6;}
	.st42{fill:#B1CCFD;}
	.st43{fill:#E0E0E0;}
</style>
<g id="Layer_1">
</g>
<g id="_x2014_лой_x5F_2">
	<g>
		<path class="st0" d="M2225.55,1132.91c-14,22.42-28.69,41.66-43.94,57.37c-0.34,0.23-0.57,0.57-0.91,0.8l-0.23,0.23H71.27
			c0,0-0.34-0.91-0.91-2.73c0-0.23-0.11-0.45-0.23-0.68c-0.23-1.14-0.68-2.5-1.14-4.21c-0.34-0.8-0.57-1.71-0.91-2.62v-0.11
			c-0.23-1.02-0.57-2.16-0.91-3.41v-0.11c-9.79-33.58-34.15-124.19-48.27-236.09c-0.34-2.39-0.68-4.78-0.91-7.17
			c0-0.34-0.11-0.57-0.11-0.91v-0.11c-0.46-3.41-0.8-6.71-1.14-10.24C-3.98,742.69,4.11,514.12,138.43,379
			C261.48,255.38,435.87,179.91,618.8,151.22c184.07-28.8,377.01-10.13,535.13,54.53c357.09,146.27,374.17-276.39,857.05-187.94
			c17.53,3.19,34.26,7.4,50.2,12.64c25.61,8.42,49.29,19.24,71.26,32.33C2444.22,248.78,2381.96,882.71,2225.55,1132.91z"/>
		<path class="st0" d="M618.8,151.22v1040.09H71.27c0,0-0.8-2.39-2.16-6.83c-0.68-2.28-1.48-5.12-2.5-8.54
			c-0.23-0.8-0.46-1.71-0.68-2.5c-1.03-3.64-2.16-7.63-3.41-12.18c-0.11-0.57-0.34-1.14-0.46-1.82c-1.71-6.15-3.53-13.2-5.58-20.95
			c-6.83-26.75-15.25-62.61-22.99-104.38c-1.59-8.2-3.07-16.73-4.55-25.38c-0.91-5.12-1.82-10.36-2.62-15.6
			c-1.94-11.95-3.76-24.36-5.46-37c-1.14-7.51-2.05-15.14-2.96-22.88c-0.68-5.24-1.25-10.59-1.82-15.94
			c-1.25-11.27-2.39-22.65-3.41-34.26c-1.25-14.68-2.28-29.6-3.07-44.74c-1.93-37.91-2.16-77.06,0.11-116
			c0.91-15.48,2.16-30.96,3.87-46.33c2.96-26.18,7.06-52.02,12.86-77.41c0.11-0.91,0.34-1.82,0.57-2.73
			C45.65,513.78,80.26,437.62,138.43,379C261.48,255.38,435.87,179.91,618.8,151.22z"/>
		<path class="st1" d="M340.25,917.31v273.99H71.27c0,0-0.8-2.39-2.16-6.83c-0.68-2.28-1.48-5.12-2.5-8.54
			c-0.23-0.8-0.46-1.71-0.68-2.5c-1.03-3.64-2.16-7.63-3.41-12.18c-0.11-0.57-0.34-1.14-0.46-1.82c-1.71-6.15-3.53-13.2-5.58-20.95
			c-6.83-26.75-15.25-62.61-22.99-104.38c-1.59-8.2-3.07-16.73-4.55-25.38c-0.91-5.12-1.82-10.36-2.62-15.6
			c-1.94-11.95-3.76-24.36-5.46-37c-1.14-7.51-2.05-15.14-2.96-22.88c-0.68-5.24-1.25-10.59-1.82-15.94H340.25z"/>
		<g>
			<g>
				<path class="st2" d="M518.99,917.72c-1.61-39.17-5.1-73.24-9.26-97c-6.64-37.88-12.62-59.67-12.69-59.9
					c-0.87-3.33-13.51-16.81-41.61-16.39c-28.1,0.42-25.43,18.09-25.43,18.09l0,0c0,0.6,0.08,1.15,0.2,1.57
					c0.27,0.91,26.06,93.15,24.95,212.25c-0.02,1.67-0.21,4.56-0.09,6.49c0,0.01,65.11,1.66,65.13,0
					C522.46,972.41,521.35,943.57,518.99,917.72z"/>
				<path class="st3" d="M527.18,975.75c-0.02,1.66-0.91,2.99-1.99,2.99h-0.03c-1.08-0.02-1.95-1.35-1.96-2.99h-55.8
					c-0.02,1.66-0.91,2.99-1.99,2.99h-0.03c-1.1-0.02-1.98-1.4-1.96-3.08c0.32-34.09-1.65-65.93-4.63-94.02
					c-7.42-70.07-21.13-116.9-21.32-117.55c-0.12-0.42-0.2-0.97-0.2-1.57c0,0-2.67-17.67,25.43-18.09
					c28.1-0.42,40.74,13.06,41.61,16.39c0.05,0.17,3.44,12.51,7.94,34.7c1.49,7.35,3.1,15.78,4.75,25.2
					c4.16,23.76,7.64,57.84,9.26,97C528.62,943.57,529.45,965.34,527.18,975.75z"/>
				<path class="st3" d="M527.18,975.75c-0.02,1.66-0.91,2.99-1.99,2.99h-0.03c-1.08-0.02-1.95-1.35-1.96-2.99h-55.8
					c-0.02,1.66-0.91,2.99-1.99,2.99h-0.03c-1.1-0.02-1.98-1.4-1.96-3.08c0.32-34.09-1.65-65.93-4.63-94.02
					c9.23-44.47,44.88-78.48,53.45-86.12c1.49,7.35,3.1,15.78,4.75,25.2c4.16,23.76,7.64,57.84,9.26,97
					C528.62,943.57,529.45,965.34,527.18,975.75z"/>
				<g>
					<path class="st4" d="M470.61,975.14l-0.01-0.35c0-0.05,0-0.1,0-0.15c-0.02-1.04-1.56-71.33-5.51-104.75
						c-2.36-19.92-16.8-103.08-16.89-103.44c-0.11-0.35-0.16-0.8-0.16-1.25c-0.02-0.13-0.6-4.26,2.57-8
						c3.14-3.71,8.74-5.65,16.65-5.76c20.91-0.34,30.54,9.75,31.24,12.42c0.15,0.5,16.19,64.99,18.94,100.98
						c0.26,3.36,0.83,9.08,1.55,16.31c4.26,42.56,8.3,88.05,2.31,89.09c-9.32,1.61-18.66,1.82-25.76,1.82c0,0,0,0,0,0
						c-2.38,0-4.65-0.03-6.79-0.05c-1.9-0.02-3.69-0.04-5.35-0.04c-7.45,0-12.09,0.45-12.17,2.67c0,0.03,0,0.06,0,0.1l0,0.02
						c-0.01,0.17-0.06,0.36-0.31,0.37L470.61,975.14z M468.2,752.07c-0.31,0-0.62,0-0.94,0.01c-7.7,0.11-13.14,1.97-16.16,5.53
						c-2.99,3.52-2.44,7.52-2.44,7.56c0,0.43,0.05,0.83,0.14,1.12c0.08,0.26,14.49,83.13,16.91,103.54
						c3.71,31.39,5.25,93.15,5.48,103.37c1.48-1.52,5.66-1.85,12.2-1.85c1.67,0,3.46,0.02,5.36,0.04c2.14,0.02,4.41,0.05,6.78,0.05
						c0,0,0,0,0,0c7.07,0,16.37-0.21,25.65-1.81c5.91-1.02,0-60.04-2.83-88.4c-0.72-7.24-1.3-12.96-1.55-16.33
						c-2.77-36.19-18.76-100.27-18.92-100.86C497.22,761.49,488.11,752.07,468.2,752.07z"/>
				</g>
				<path class="st5" d="M459.3,978.74h218.76c0,0-5.09-20.34-131.79-17.31C456.62,963.57,459.3,978.74,459.3,978.74z"/>
				<g>
					<path class="st6" d="M441.49,1191.14c25.37-126.66,18.84-204.38,18.81-205.36c-0.06-1.95,3.58-3.72,5.54-3.78
						c1.98-0.03,10.74-0.58,11.75,1.09c1.33,2.19,6.44,97.94-31.37,208.05H441.49z"/>
				</g>
				<g>
					<path class="st6" d="M645.75,1191.14c-25.36-126.66-18.84-204.38-18.81-205.36c0.06-1.95-3.58-3.72-5.54-3.78
						c-1.98-0.03-10.74-0.58-11.75,1.09c-1.33,2.19-6.44,97.94,31.37,208.05H645.75z"/>
				</g>
				<g>
					<path class="st6" d="M686.23,1191.14c-25.36-126.66-18.84-204.38-18.81-205.36c0.06-1.95-3.58-3.72-5.54-3.78
						c-1.98-0.03-10.74-0.58-11.75,1.09c-1.33,2.19-6.44,97.94,31.37,208.05H686.23z"/>
				</g>
				<g>
					<path class="st7" d="M482.25,1191.14c25.36-126.66,18.84-204.38,18.81-205.36c-0.06-1.95,3.58-3.72,5.54-3.78
						c1.98-0.03,10.74-0.58,11.75,1.09c1.33,2.19,6.44,97.94-31.37,208.05H482.25z"/>
				</g>
				<path class="st6" d="M682.29,985.23H455.33c-0.21,0-0.38-0.17-0.38-0.38v-10.98c0-0.21,0.17-0.38,0.38-0.38h226.96
					c0.21,0,0.38,0.17,0.38,0.38v10.98C682.68,985.06,682.5,985.23,682.29,985.23z"/>
			</g>
			<g>
				<path class="st8" d="M633.09,840.43c0,0,39.99,45.68,48.18,44.93c8.36-0.76,13.47-3.4,20.74,0
					c5.23,2.44,21.76,15.74,17.32,14.86c-4.44-0.88-12.47-1.91-14.59-2.11c-2.92-0.28-7.61-0.34-10.79-0.89
					c-2.01-0.35-9.28-0.55-11.7-0.63c-10.53-0.35-60.31-29.43-60.31-29.43L633.09,840.43z"/>
				<path class="st6" d="M605.34,608.48c0,0-1.81-22.94-34.81-16.98c-8.72,1.57-14.72-13.98-29-8.44
					c-30.75,11.94-32.56-3.82-41.45,18.29c-3.72,9.26-27.38,20.04-20.15,36.04c7.23,16-4.86,26.76,3.63,39.3
					c4.4,6.49,2.61,18.09,23.34,18.5c10.33,0.21,26.41,19.34,38,22.82c11.59,3.48,46.39-1.54,45.08-17.44
					c-1.02-12.4,13.44-11.37,22.33-25.63c7.77-12.46-6.09-15.6,1.32-35.76C619.07,624.4,604.92,620.8,605.34,608.48z"/>
				<g>
					<path class="st9" d="M786.74,1172.86c-0.71,7.67,9.98,9.54,22.35,10.16c12.37,0.62,8.63,3.15,25.59,6.22
						c16.96,3.07,23.75-1.57,24.98-3.86c1.09-2.03-6.79-5.21-15.19-8.8c-1.06-0.45-2.12-0.91-3.17-1.37
						c-9.46-4.16-14.76-12.64-22.13-20.5c-6.98-7.45-13.61-31.29-13.61-31.29l-23.04-4.92c0,0,6.47,21.46,8.72,30.62
						c1.32,5.39-0.63,11.41-2.36,16C787.93,1167.6,786.99,1170.15,786.74,1172.86z"/>
					<path class="st10" d="M809.09,1183.01c12.37,0.62,8.63,3.15,25.59,6.22c16.96,3.07,23.75-1.57,24.98-3.86
						c1.09-2.03-6.79-5.21-15.19-8.8l-0.13,0.14c0,0-11.92,4.05-25.69,0.31c-11.22-3.05-22.06-9.75-29.79-11.92
						c-0.93,2.49-1.87,5.05-2.12,7.75C786.04,1180.53,796.72,1182.4,809.09,1183.01z"/>
				</g>
				<path class="st2" d="M563.44,875.6c0,0,146.96,12.47,175.79,30.67c28.83,18.19,75.06,230.11,75.06,230.11s-2.85,2.29-9.23,2.98
					c-5.93,0.64-18.98-2.84-18.98-2.84s-66.44-94.82-71.12-118.71c-4.68-23.89-3.54-45.2-14.2-45.77
					c-10.66-0.57-143.51,16.15-163.6-19.25c-20.09-35.4-3.48-70.45-3.48-70.45L563.44,875.6z"/>
				<g>
					<path class="st9" d="M734.06,1173.72c-0.71,7.68,9.98,9.54,22.35,10.16c12.37,0.62,8.63,3.15,25.59,6.22
						c16.96,3.07,23.75-1.57,24.98-3.86c1.09-2.03-6.79-5.21-15.19-8.8c-1.06-0.45-2.12-0.91-3.17-1.37
						c-9.46-4.16-14.76-12.64-22.13-20.5c-6.98-7.45-13.61-31.29-13.61-31.29l-23.04-4.92c0,0,6.47,21.46,8.72,30.62
						c1.32,5.39-0.63,11.41-2.36,16C735.24,1168.46,734.3,1171.02,734.06,1173.72z"/>
					<path class="st10" d="M756.41,1183.88c12.37,0.62,8.63,3.15,25.59,6.22c16.96,3.07,23.75-1.57,24.98-3.86
						c1.09-2.03-6.79-5.21-15.19-8.8l-0.13,0.14c0,0-11.92,4.05-25.69,0.31c-11.22-3.05-22.06-9.75-29.79-11.91
						c-0.93,2.49-1.87,5.05-2.12,7.75C733.35,1181.4,744.03,1183.26,756.41,1183.88z"/>
				</g>
				<path class="st3" d="M533.19,885.36c0,0,136.03,6.44,164.12,25.74c28.1,19.3,66.05,232.86,66.05,232.86s-2.94,2.17-9.34,2.62
					c-5.95,0.41-18.86-3.58-18.86-3.58s-62.7-97.33-66.45-121.39c-3.75-24.05-1.78-45.31-12.4-46.29
					c-10.63-0.99-144.03,10.55-162.73-25.6C474.89,913.56,533.19,885.36,533.19,885.36z"/>
				<path class="st8" d="M492.47,711.56c0.05-0.07,0.11-0.14,0.17-0.21c1.08-1.21,2.37-2.33,3.8-3.32l0.05-0.04c0,0,0,0,0.01,0
					c11.11-7.76,30.97-9.42,30.97-9.42v0.01l0,0c0,0,0-0.01,0-0.01c0,0,2.17-0.21,5.61-0.36c2.6-6.75,5.57-16.74,6.49-31.33
					l1.97,0.53l33.1,8.88c0,0-1.47,10.5-2.15,20.45c-0.15,2.18-0.26,4.33-0.31,6.33c0.96,0.35,1.85,0.7,2.63,1.02c0,0,0,0,0,0l0,0
					c0,0,18.92,2.23,23.4,7.04c4.48,4.82,13.43,36.87,15.69,42.55l-127.42,2.08C486.46,755.76,483.26,722.46,492.47,711.56z"/>
				<path class="st11" d="M487.77,939.47c15.08,1.44,65.93-29.27,82.87-39.25c0.3-0.17,0.58-0.34,0.85-0.5
					c7.06-4.15,16.98-6.1,26.42-7.67c12.02-1.97,23.25-3.29,26.84-7.59c4.28-5.12-8.3-10.79-18.41-16.67
					c-5.09-2.97-9.56-6-10.96-9.02c-1.07-2.38-0.99-7.59-0.27-14.25v-0.01c0.12-1.24,0.28-2.54,0.46-3.88
					c0.82,1.71,1.85,3.47,3.03,5.24c2.97,4.45,6.89,8.93,10.8,12.64c4.8,4.55,9.57,7.93,12.55,8.65c2,0.48,4,0.23,5.99-0.54
					c5.29-2.07,10.4-7.89,14.45-13.5c0.95-1.32,1.86-2.65,2.68-3.9c2.77-4.19,4.74-7.68,5.48-8.5c2.26-2.5-9.08-7.45-13.74-11.16
					c-4.64-3.72-22.92-75.86-22.92-75.86c-2.26-5.68-11.21-37.73-15.69-42.56c0,0-17.46,21.33-40.11,20.1
					c-22.48-1.2-60.99-22.89-61.59-23.23c-0.01,0-0.01,0-0.01,0l-0.05,0.03l-3.97,3.54c-9.21,10.9-6.01,44.19-6.01,44.19
					s17.62,77.67,17.62,85.51c0,14.37-11.88,47.41-17.55,71.21C482.93,927.55,481.82,938.91,487.77,939.47z"/>
				<path class="st12" d="M574.63,676.28c0,0-1.47,10.5-2.15,20.45c-18.73-1.78-27.51-19.56-30.94-29.32L574.63,676.28z"/>
				<path class="st8" d="M580.27,686.11c0,0-44.45-2.23-42.64-29.89c1.81-27.66-2.7-46.58,25.76-46.33
					c28.46,0.25,33.28,11.17,34.92,20.55C599.94,639.83,591.88,685.98,580.27,686.11z"/>
				<path class="st6" d="M582.14,619.74c0,0-10.62-2.48-14.1,2.69c-3.47,5.17-0.99,8.06-8.74,10.23c-7.75,2.17-10.39,2.02-9.61,7.44
					c0.78,5.43-7.79,9.46-8.16,13.8c-0.37,4.34-3.93,6.51-7.34,6.82c-3.41,0.31-1.86-55.96,11.32-58.44
					c13.18-2.48,25.89,0.46,29.76,3.57C579.15,608.95,582.14,619.74,582.14,619.74z"/>
				<path class="st6" d="M582.14,619.74c0,0,10.33-0.72,12.19,5.17c1.86,5.89-0.62,7.29,2.02,10.85c2.64,3.57,1.11,9.89,1.11,9.89
					s20.44-37.64-1.11-40.12C574.81,603.05,575.37,607.45,582.14,619.74z"/>
				<path class="st13" d="M595.11,838.23v-0.02c0.14-2.06,0.33-4.23,0.53-6.45c2.95,8.87,8.23,18.63,13.76,26.74
					c4.8,4.55,9.57,7.93,12.55,8.65c2,0.48,4,0.23,5.99-0.54c5.29-2.07,10.4-7.89,14.45-13.5c0.95-1.32,1.86-2.65,2.68-3.9
					c-14.12-11.33-40.89-37.26-43.67-72.74c-3.8-48.46-6.3,61.75-6.3,61.75L595.11,838.23z"/>
				<path class="st13" d="M627.94,866.6c-4.93-7.52-14.95-14.93-29.34-20.75c6.62,9.92,17.96,19.98,23.35,21.29
					C623.95,867.62,625.96,867.37,627.94,866.6z"/>
				<path class="st14" d="M510.42,773.35c0,0-23.89,139.13,60.22,126.86c0.3-0.17,0.58-0.34,0.85-0.5
					c7.06-4.15,16.98-6.1,26.42-7.67c12.02-1.97,23.25-3.29,26.84-7.59c4.28-5.12-8.3-10.79-18.41-16.67
					c-5.09-2.97-17.38-4.22-18.78-7.24c-1.07-2.38-10.28-13.45-9.55-20.12l-3.89-5.96C532.65,802.01,510.42,773.35,510.42,773.35z"
					/>
				<g>
					<path class="st8" d="M534.15,744.08c0,0-20.31-17.59-29.87,4.16c-9.55,21.75,24.97,119.99,46.2,130.28
						c11.62,5.63,107.85,17.51,107.85,17.51l0.65-12.32c0,0-66.36-24.01-70.6-27.08C584.13,853.56,542.45,743.84,534.15,744.08z"/>
				</g>
				<path class="st8" d="M658.98,883.7c0,0,19.86-4.86,27.25,0c7.4,4.86,16.14,16.84,12.26,16.52c-3.89-0.32-38.45-0.13-40.16-4.19
					C656.63,891.96,658.98,883.7,658.98,883.7z"/>
				<path class="st11" d="M496.5,707.99c0,0,8.36,126.14,27.52,156.02c19.17,29.89,55.27,16.67,55.27,16.67s14.42-15.11,11.93-22.62
					C591.23,858.06,560.08,737.29,496.5,707.99z"/>
			</g>
		</g>
		<path class="st15" d="M466.53,1176.57c-1.06-0.45-2.12-0.91-3.18-1.37c-9.46-4.16-14.76-12.64-22.13-20.5
			c-3.16-3.38-6.25-10.12-8.69-16.48c2.6-0.87,3.82-1.83,3.82-1.83s-46.23-211.92-75.06-230.11c-4.33-2.74-11.34-5.34-20.11-7.79
			c-3.16-3.55-13.23-11.31-17.1-13.12c-5.33-2.49-9.5-1.74-14.64-0.86c-0.38-0.28-0.76-0.55-1.14-0.8c-2.86-1.88-7.6-2.3-12.32-2.12
			c-8.56-6.5-21.56-20.03-30.58-29.81c0.61-0.87,1.2-1.74,1.75-2.57c2.77-4.19,4.74-7.68,5.48-8.5c2.26-2.5-9.08-7.45-13.74-11.16
			c-4.64-3.72-22.92-75.86-22.92-75.86c-2.26-5.68-11.21-37.73-15.69-42.56c0,0-0.01,0.01-0.01,0.01c0,0,0,0,0,0
			c-1.72-1.85-5.58-3.32-9.68-4.42c1.11-1.83,1.65-3.87,1.47-6.14c-1.02-12.4,13.44-11.37,22.33-25.63
			c7.77-12.46-6.09-15.6,1.32-35.76c5.43-14.77-8.72-18.37-8.29-30.69c0,0-1.81-22.94-34.81-16.98c-8.72,1.57-14.72-13.98-29-8.44
			c-30.75,11.94-32.56-3.82-41.45,18.29c-3.72,9.26-27.38,20.04-20.15,36.04c7.22,16-4.86,26.76,3.63,39.3
			c4.39,6.49,2.61,18.09,23.34,18.5c3.26,0.07,7.1,2.02,11.19,4.78c-6.65,1.31-15.46,3.74-21.6,8.03c-0.01,0-0.01,0-0.01,0
			l-0.05,0.04c-1.43,0.99-2.72,2.11-3.79,3.32c-0.06,0.07-0.12,0.14-0.17,0.21c-6.36,7.52-6.81,25.72-6.47,36.27
			c-6.1-2.1-13.82-3.55-23.3-3.41c-0.77,0.01-1.5,0.04-2.22,0.08c-1.62-0.08-3.3-0.1-5.04-0.08c-28.1,0.42-25.43,18.09-25.43,18.09
			c0,0.6,0.08,1.15,0.2,1.57c0.27,0.91,26.06,93.15,24.95,212.25c0,0.12,0,0.25-0.01,0.38c-0.11,0.39-0.19,0.8-0.19,1.22v2.84
			c0,0.26,0.03,0.52,0.08,0.77c0,0.45,0.01,0.88,0.04,1.27c0,0,0.14,0,0.41,0.01c0.75,1.41,2.22,2.39,3.92,2.39h0.99v0
			c-0.06,0.18-0.09,0.37-0.08,0.55c0.03,0.94,6.02,72.39-15.83,189.88c0.03,0.11,0.07,0.22,0.1,0.33c1.3,4.55,2.38,8.15,3.15,10.72
			c33.35-99.77,31.71-186.8,30.23-201.48v0h23.19c-0.06,0.18-0.09,0.37-0.09,0.55c0.03,0.98,6.55,78.7-18.81,205.36h4.73
			c34.89-101.63,33.23-191.03,31.72-205.91h90.6c-1.51,14.88-3.17,104.28,31.72,205.91h4.73
			c-25.36-126.66-18.84-204.38-18.81-205.36c0.01-0.19-0.03-0.37-0.09-0.55h22.92c-1.51,14.88-3.17,104.28,31.72,205.91h4.73
			c-18.18-90.8-19.98-156.44-19.53-186.7c0.51,5.37,1.08,11.18,2.02,17.17c3.75,24.05,66.45,121.39,66.45,121.39
			s0.62,0.19,1.65,0.49c0.68,2.46,1.27,4.71,1.71,6.49c1.32,5.39-0.63,11.41-2.36,16c-0.93,2.49-1.87,5.05-2.12,7.75
			c-0.71,7.68,9.98,9.54,22.35,10.16c12.37,0.62,8.63,3.15,25.59,6.22c16.96,3.07,23.75-1.57,24.98-3.86
			c0.52-0.98-1.02-2.22-3.7-3.64c1.87,0.18,3.82,0.32,5.81,0.42c12.37,0.62,8.63,3.15,25.59,6.22c16.96,3.07,23.75-1.57,24.98-3.86
			C482.82,1183.34,474.93,1180.16,466.53,1176.57z M408.8,1172.86c-0.08,0.87-0.01,1.67,0.19,2.4c-8.43-4.38-13.53-12.31-20.46-19.7
			c-2.12-2.26-4.21-6.04-6.09-10.2c2.01-0.69,2.98-1.4,2.98-1.4s-4.4-24.77-11.32-58.19c17.28,26.83,34.03,50.75,34.03,50.75
			s0.7,0.19,1.85,0.47c1.3,4.58,2.54,9.05,3.29,12.13c1.32,5.39-0.63,11.41-2.36,16C409.99,1167.6,409.05,1170.15,408.8,1172.86z
			 M218.32,860.17c-0.36-0.47-0.66-0.94-0.87-1.41c-1.07-2.38-0.99-7.59-0.27-14.25v-0.01c0.12-1.24,0.28-2.54,0.46-3.88
			c0.82,1.71,1.85,3.47,3.03,5.24c0.34,0.51,0.7,1.02,1.06,1.53c0.05,0.07,0.1,0.14,0.15,0.21c0.34,0.47,0.69,0.94,1.05,1.41
			c0.09,0.11,0.17,0.22,0.26,0.33c0.34,0.44,0.68,0.87,1.03,1.31c0.12,0.15,0.24,0.29,0.36,0.44c0.33,0.4,0.67,0.81,1.01,1.2
			c0.15,0.17,0.3,0.35,0.45,0.52c0.24,0.28,0.49,0.56,0.73,0.83c0.24,0.27,0.49,0.54,0.74,0.81c0.23,0.25,0.46,0.5,0.69,0.74
			c0.2,0.21,0.39,0.42,0.59,0.62c0.32,0.33,0.63,0.65,0.95,0.97c0.16,0.17,0.33,0.33,0.49,0.49c0.37,0.37,0.75,0.73,1.12,1.09
			c0.04,0.04,0.08,0.08,0.12,0.12c0.09,0.09,0.18,0.17,0.27,0.25c0.15,0.14,0.3,0.28,0.44,0.41c0.12,0.11,0.25,0.23,0.37,0.34
			c0.18,0.16,0.36,0.33,0.54,0.49c0.1,0.09,0.19,0.17,0.29,0.26c0.21,0.19,0.43,0.37,0.64,0.56c0.07,0.06,0.13,0.11,0.2,0.17
			c0.26,0.22,0.52,0.44,0.77,0.65c0.02,0.02,0.04,0.03,0.06,0.05c1.46,1.21,2.87,2.26,4.18,3.12c0,0,0.01,0,0.01,0.01
			c0.25,0.16,0.5,0.32,0.74,0.47c0.03,0.02,0.05,0.03,0.08,0.05c0.22,0.13,0.44,0.26,0.65,0.38c0.04,0.02,0.07,0.04,0.11,0.06
			c0.2,0.11,0.39,0.22,0.59,0.32c0.04,0.02,0.09,0.05,0.13,0.07c0.18,0.09,0.36,0.18,0.54,0.27c0.05,0.02,0.09,0.04,0.14,0.07
			c0.17,0.08,0.34,0.15,0.5,0.22c0.05,0.02,0.09,0.04,0.14,0.06c0.17,0.07,0.33,0.13,0.49,0.18c0.04,0.01,0.08,0.03,0.11,0.04
			c0.19,0.06,0.38,0.12,0.56,0.16c0,0,6.35,3.71,15,8.5C245.18,870.54,228.16,864.18,218.32,860.17z"/>
		<g>
			<rect x="852.95" y="276.62" class="st16" width="852.89" height="586.25"/>
			<g>
				<path class="st17" d="M1109.46,442.89l-0.8-0.8l7.98-7.98l0.8,0.8L1109.46,442.89z M1125.42,426.93l-0.8-0.8l7.98-7.98l0.8,0.8
					L1125.42,426.93z M1141.38,410.98l-0.8-0.8l7.98-7.98l0.8,0.8L1141.38,410.98z M1157.34,395.02l-0.8-0.8l7.98-7.98l0.8,0.8
					L1157.34,395.02z M1410.1,379.82h-11.28v-1.13h11.28V379.82z M1387.54,379.82h-11.28v-1.13h11.28V379.82z M1364.97,379.82
					h-11.28v-1.13h11.28V379.82z M1342.4,379.82h-11.28v-1.13h11.28V379.82z M1319.83,379.82h-11.28v-1.13h11.28V379.82z
					 M1297.27,379.82h-11.28v-1.13h11.28V379.82z M1274.7,379.82h-11.28v-1.13h11.28V379.82z M1252.13,379.82h-11.28v-1.13h11.28
					V379.82z M1229.56,379.82h-11.28v-1.13h11.28V379.82z M1206.99,379.82h-11.28v-1.13h11.28V379.82z M1184.43,379.82h-11.28v-1.13
					h11.28V379.82z"/>
			</g>
			<g>
				<path class="st17" d="M1133.86,521.52l-0.8-0.8l7.98-7.98l0.8,0.8L1133.86,521.52z M1149.81,505.56l-0.8-0.8l7.98-7.98l0.8,0.8
					L1149.81,505.56z M1165.77,489.61l-0.8-0.8l7.98-7.98l0.8,0.8L1165.77,489.61z M1181.73,473.65l-0.8-0.8l7.98-7.98l0.8,0.8
					L1181.73,473.65z M1434.5,458.45h-11.28v-1.13h11.28V458.45z M1411.93,458.45h-11.28v-1.13h11.28V458.45z M1389.36,458.45
					h-11.28v-1.13h11.28V458.45z M1366.79,458.45h-11.28v-1.13h11.28V458.45z M1344.23,458.45h-11.28v-1.13h11.28V458.45z
					 M1321.66,458.45h-11.28v-1.13h11.28V458.45z M1299.09,458.45h-11.28v-1.13h11.28V458.45z M1276.52,458.45h-11.28v-1.13h11.28
					V458.45z M1253.95,458.45h-11.28v-1.13h11.28V458.45z M1231.39,458.45h-11.28v-1.13h11.28V458.45z M1208.82,458.45h-11.28v-1.13
					h11.28V458.45z"/>
			</g>
			<g>
				<path class="st17" d="M1259.46,678.72h-11.28v-1.13h11.28V678.72z M1236.9,678.72h-11.28v-1.13h11.28V678.72z M1214.33,678.72
					h-11.28v-1.13h11.28V678.72z M1191.76,678.72h-11.28v-1.13h11.28V678.72z M1169.19,678.72h-11.28v-1.13h11.28V678.72z
					 M1146.62,678.72h-11.28v-1.13h11.28V678.72z M1124.06,678.72h-11.28v-1.13h11.28V678.72z M1101.49,678.72h-11.28v-1.13h11.28
					V678.72z M1078.92,678.72h-11.28v-1.13h11.28V678.72z M1056.35,678.72h-11.28v-1.13h11.28V678.72z M1033.79,678.72h-11.28v-1.13
					h11.28V678.72z M1013.88,671.17l-7.98-7.98l0.8-0.8l7.98,7.98L1013.88,671.17z M997.92,655.21l-7.98-7.98l0.8-0.8l7.98,7.98
					L997.92,655.21z M981.96,639.25l-7.98-7.98l0.8-0.8l7.98,7.98L981.96,639.25z M966,623.29l-7.98-7.98l0.8-0.8l7.98,7.98
					L966,623.29z"/>
			</g>
			<g>
				<path class="st17" d="M1434.74,585.51h-7.9v-1.13h7.9V585.51z M1415.56,585.51h-11.28v-1.13h11.28V585.51z M1392.99,585.51
					h-11.28v-1.13h11.28V585.51z M1370.42,585.51h-11.28v-1.13h11.28V585.51z M1347.85,585.51h-11.28v-1.13h11.28V585.51z
					 M1325.28,585.51H1314v-1.13h11.28V585.51z M1302.72,585.51h-11.28v-1.13h11.28V585.51z M1280.15,585.51h-11.28v-1.13h11.28
					V585.51z M1257.58,585.51h-11.28v-1.13h11.28V585.51z M1235.01,585.51h-11.28v-1.13h11.28V585.51z M1212.44,585.51h-11.28v-1.13
					h11.28V585.51z M1189.88,585.51h-11.28v-1.13h11.28V585.51z M1167.31,585.51h-11.28v-1.13h11.28V585.51z M1144.74,585.51h-11.28
					v-1.13h11.28V585.51z"/>
			</g>
			<g>
				<path class="st18" d="M1458.11,376.17h173.02c2.48,0,4.51-2.03,4.51-4.51c0-2.48-2.03-4.51-4.51-4.51h-173.02
					c-2.48,0-4.51,2.03-4.51,4.51C1453.6,374.14,1455.63,376.17,1458.11,376.17z"/>
				<path class="st18" d="M1631.14,385.95h-173.02c-2.48,0-4.51,2.03-4.51,4.51l0,0c0,2.48,2.03,4.51,4.51,4.51h173.02
					c2.48,0,4.51-2.03,4.51-4.51l0,0C1635.65,387.98,1633.62,385.95,1631.14,385.95z"/>
			</g>
			<g>
				<path class="st18" d="M1458.11,452.99h173.02c2.48,0,4.51-2.03,4.51-4.51s-2.03-4.51-4.51-4.51h-173.02
					c-2.48,0-4.51,2.03-4.51,4.51S1455.63,452.99,1458.11,452.99z"/>
				<path class="st18" d="M1631.14,462.77h-173.02c-2.48,0-4.51,2.03-4.51,4.51c0,2.48,2.03,4.51,4.51,4.51h173.02
					c2.48,0,4.51-2.03,4.51-4.51C1635.65,464.8,1633.62,462.77,1631.14,462.77z"/>
			</g>
			<g>
				<path class="st18" d="M1255.19,693.72h-173.02c-2.48,0-4.51,2.03-4.51,4.51l0,0c0,2.48,2.03,4.51,4.51,4.51h173.02
					c2.48,0,4.51-2.03,4.51-4.51l0,0C1259.71,695.75,1257.67,693.72,1255.19,693.72z"/>
				<path class="st18" d="M1255.19,712.53h-173.02c-2.48,0-4.51,2.03-4.51,4.51c0,2.48,2.03,4.51,4.51,4.51h173.02
					c2.48,0,4.51-2.03,4.51-4.51C1259.71,714.56,1257.67,712.53,1255.19,712.53z"/>
			</g>
			<g>
				<path class="st18" d="M1257.2,614.69h173.02c2.48,0,4.51-2.03,4.51-4.51c0-2.48-2.03-4.51-4.51-4.51H1257.2
					c-2.48,0-4.51,2.03-4.51,4.51C1252.69,612.66,1254.72,614.69,1257.2,614.69z"/>
				<path class="st18" d="M1430.22,624.47H1257.2c-2.48,0-4.51,2.03-4.51,4.51l0,0c0,2.48,2.03,4.51,4.51,4.51h173.02
					c2.48,0,4.51-2.03,4.51-4.51l0,0C1434.74,626.5,1432.71,624.47,1430.22,624.47z"/>
			</g>
			<g>
				<path class="st18" d="M1026.32,302.2H897.81c-4.69,0-8.53,3.84-8.53,8.52c0,4.69,3.84,8.52,8.53,8.52h128.51
					c4.69,0,8.53-3.84,8.53-8.52C1034.85,306.03,1031.01,302.2,1026.32,302.2z"/>
				<path class="st18" d="M1197.71,302.2H1069.2c-4.69,0-8.52,3.84-8.52,8.52c0,4.69,3.84,8.52,8.52,8.52h128.51
					c4.69,0,8.52-3.84,8.52-8.52C1206.24,306.03,1202.4,302.2,1197.71,302.2z"/>
			</g>
			<g>
				<path class="st18" d="M1492.22,776.5H912.23c-3.72,0-6.77,3.05-6.77,6.77c0,3.72,3.05,6.77,6.77,6.77h579.99
					c3.72,0,6.77-3.05,6.77-6.77C1498.99,779.55,1495.95,776.5,1492.22,776.5z"/>
				<path class="st18" d="M1322.15,801.7H911.17c-3.14,0-5.71,2.57-5.71,5.71v2.12c0,3.14,2.57,5.71,5.71,5.71h410.98
					c3.14,0,5.71-2.57,5.71-5.71v-2.12C1327.86,804.27,1325.29,801.7,1322.15,801.7z"/>
			</g>
		</g>
		<g>
			<g>
				<path class="st19" d="M1633.32,791.1c0,0-1.46-0.43-3.99,0.37c-2.41,0.16-5.27,0.2-6.66-0.33c-2.63-1-4.86,1.49-3.19,3.58
					c0.56,0.7,1.29,1.24,2.15,1.63c-4.06,3.77-8.94,10.12-14.28,20.82c0,0-4.47,8.09,5,5.59c6.33-1.67,7.69-4.84,16.58-7.33
					c8.89-2.5,15.89-8.9,16.64-15.67l3.78-6.71l-9.34-9.28L1633.32,791.1z"/>
				<path class="st20" d="M1653.59,532.67c0,0,73.61,38.84,64.66,151.3c-2.42,30.36-70.87,119.16-70.87,119.16
					s-12.93-6.05-12.85-15.55c0,0,33.28-96.05,40.43-102.32c6.34-5.56-30.3-91.02-32.17-114.48
					C1640.93,547.33,1653.59,532.67,1653.59,532.67z"/>
			</g>
			<path class="st21" d="M1777.59,1131.59c0,0,12.84,11.72,10.33,20.04s-14.09,13.87-15.66,24.05
				c-1.57,10.17-7.83,15.72-13.46,15.72c-5.64,0-26.87,0-26.87,0s-4.15-7.16,5.87-9.32c10.02-2.16,13.8-14.11,13.17-25.21
				c-0.63-11.1,0.94-25.9,0.94-25.9l21.29-4.93L1777.59,1131.59z"/>
			<path class="st20" d="M1777.59,1124.24c-2.35,6.94-28.19,17.11-28.19,17.11s-14.08-22.19-59.18-101.74
				c-3.88-6.85-7.94-14.37-12.11-22.38c-44.28-85.06-101.54-226.42-101.54-226.42l109.44-30.52c0,0,5.16,43.93,6.1,66.13
				c0.57,13.56,8.29,42.55,18.09,67.87c6.23,16.11,13.32,30.73,19.95,38.95C1760.34,970.69,1777.59,1124.24,1777.59,1124.24z"/>
			<path class="st21" d="M1710.2,894.29c-6.88,34.89-19.5,93.31-32.08,122.94c-44.28-85.06-101.54-226.42-101.54-226.42
				l109.44-30.52c0,0,5.16,43.93,6.1,66.13C1692.68,839.99,1700.4,868.97,1710.2,894.29z"/>
			<path class="st21" d="M1620.1,1161.89c0,0,2.3,26.66-3.33,29.44l-72.13-0.15c0,0,0-8.32,11.59-10.17
				c11.58-1.85,31.94-8.63,35.38-23.74C1595.05,1142.16,1620.1,1161.89,1620.1,1161.89z"/>
			<path class="st20" d="M1559.2,785.27c0,0,3.8,46.74,8.28,102.91c6.08,76.31,13.39,170.05,14.11,187.81
				c1.25,30.84,6.27,80.16,6.27,80.16s11.89,11.72,35.69,6.78c0,0,21.21-70.41,27.27-144.92c0.09-1.22,0.19-2.45,0.28-3.68
				c5.64-75.84,14.4-235.55,14.4-235.55L1559.2,785.27z"/>
			<path class="st8" d="M1658.93,529.98c0,0-42.81,28.16-69.55,19.85c0,0,7.44-11.26,14.52-20.26c-0.93-5.37-1.65-10.03-2.06-13.98
				c-1.13-9.12-1.13-14.28-1.13-14.28l17.9-14.08l16.97-13.47C1634.24,511.64,1658.93,529.98,1658.93,529.98z"/>
			<path class="st22" d="M1719.34,873.71c-54.4,36.73-164.33,26.23-165.15,25.53c-1.83-23.38-2.87-61.93-3.44-97.61
				c-0.23-14.88-0.4-29.25-0.5-41.81c-0.21-24.88-0.2-42.67-0.17-43.24c0,0,0.03-1.34,0.09-3.61c0.18-7.2,0.62-23.71,1.09-36.01
				c0.09-2.3,0.17-4.45,0.26-6.36c0.01-0.11,0.01-0.2,0.02-0.31c0.34-5.53,3.72-20.3,8.47-37.51c0.03-0.11,0.06-0.2,0.09-0.31
				c6.97-25.16,16.83-55.42,24.4-69.52c3.92-7.26,17.03-28.29,17.03-28.29c9.26,1.83,15.93-0.9,25.71-5.66
				c10.7-5.17,22.22-10.74,24.08-9.32c13.99,10.23,23.45,33.22,28.5,62.6C1682.69,599.2,1722.03,871.88,1719.34,873.71z"/>
			<path class="st23" d="M1635.89,488.24c0,0-11.73,21.37-34.05,27.35c-1.13-9.12-1.13-14.28-1.13-14.28l17.9-14.08L1635.89,488.24z
				"/>
			<path class="st8" d="M1592.55,500.69c0,0,44.26,7.24,48.42-19.97c4.15-27.21,12.67-44.6-15.42-50.37
				c-28.08-5.77-35.17,3.79-38.8,12.54C1583.11,451.64,1581.14,498.11,1592.55,500.69z"/>
			<path class="st24" d="M1657.05,427.09c0.4-0.46,1.33-0.83,3.39-0.94c0,0-1.65-1.03-3.85-1.09c-0.43-2.87-1.96-7.94-6.89-9.18
				c0,0,2.65,1.41,3,4.46c-5.72-5.87-17.97-10.14-51.89-7.47c-44.7,3.53-29.97,32.15-24.18,35.56c5.79,3.41,20.36-5.94,31.14-5.09
				c10.78,0.86,12.83,16.44,16.49,18.58c3.66,2.14,2.22-1.64,7.17-3.88c4.95-2.24,5.42,5.96,3.99,11.3
				c-1.43,5.33,5.37,12.37,5.37,12.37s0,0,6.87-7.4c6.87-7.4,13.35-38.75,10.23-45.43C1657.6,428.29,1657.33,427.69,1657.05,427.09z
				"/>
			<path class="st20" d="M1550.25,759.83c-0.21-24.88-0.2-42.67-0.17-43.24c0,0,0.03-1.34,0.09-3.61c0.18-7.2,0.62-23.71,1.09-36.01
				c0.09-2.3,0.17-4.45,0.26-6.36c0.01-0.11,0.01-0.2,0.02-0.31c0.34-5.53,3.72-20.3,8.47-37.51c0.03-0.11,0.06-0.2,0.09-0.31
				c40.38-44.24,86.09-68.49,86.09-68.49S1658.03,717.79,1550.25,759.83z"/>
			<path class="st20" d="M1651.43,519.68c0,0-4.11-11.95-7.46-13.3c0,0-46.58,10.75-62.12,62.23
				C1581.85,568.6,1599.98,537.01,1651.43,519.68z"/>
			<g>
				<path class="st24" d="M1413.57,679.3l-2.73,0.63c-0.6,0.14-1.19-0.24-1.32-0.84l-40.56-185.12c-0.13-0.59,0.24-1.17,0.83-1.31
					l0.02-0.01c0.59-0.14,1.18,0.23,1.32,0.82l43.27,184.49C1414.53,678.57,1414.16,679.16,1413.57,679.3z"/>
			</g>
			<g>
				<path class="st19" d="M1406.18,625.53c0,0-9.77-16.17-14.21-17.52c-4.44-1.35-5.95,7.65-5.06,13.36
					c1,6.41,3.19,12.75,7.61,14.57c4.42,1.83,8.42,2.43,8.42,2.43L1406.18,625.53z"/>
				<path class="st19" d="M1407.4,625.16c0,0-0.98-5.69-2.43-6.59c-1.46-0.9-7.12-2.49-8.54-2.3c-1.42,0.2,6.02,10.51,8.07,10.7
					C1406.54,627.16,1407.4,625.16,1407.4,625.16z"/>
				<path class="st22" d="M1658.61,567.19c0,0-15.47,81.78-125.59,106.3c-29.73,6.62-134.74-32.68-134.74-32.68
					s1.98-14.14,11.08-16.86c0,0,101.59,3.56,109.69,8.55c7.19,4.43,78.09-55.73,99.96-64.41S1658.61,567.19,1658.61,567.19z"/>
			</g>
		</g>
		<g>
			<g>
				<g>
					<path class="st9" d="M329.28,1113.46c-1.82,2.09-2.05,4.42-1.15,6.91c0,0.01,0.01,0.03,0.02,0.03
						c1.67,4.61,7.17,9.75,13.57,14.89c0.82,0.66,1.54,1.26,2.18,1.82c0.17,0.15,0.33,0.29,0.49,0.44c0.13,0.11,0.25,0.23,0.38,0.34
						c5.97,5.5,3.72,6.76,14.44,17.92c12.22,12.71,20.63,12.94,23.03,11.79c2.03-0.99-2.09-7.73-6.65-15.31
						c-0.22-0.36-0.44-0.74-0.66-1.1c-0.61-1.01-1.21-2.03-1.81-3.04c-5.34-9.12-3.97-13.4-2.7-26.98
						c1.03-11.03,17.16-61.63,17.16-61.63l-23.42-4.03c0,0-7.05,40.29-14.82,46.5c-4.16,3.31-8.81,3.35-12.8,5.8
						c-0.28,0.17-0.56,0.35-0.83,0.52C333.42,1109.82,331.11,1111.37,329.28,1113.46z"/>
					<path class="st10" d="M329.28,1113.46c-1.82,2.09-2.05,4.42-1.15,6.91c0,0.01,0.01,0.03,0.02,0.03
						c2.04,4.6,7.41,9.72,13.59,14.84c0.81,0.67,1.52,1.29,2.16,1.86c0.17,0.15,0.33,0.29,0.49,0.44c0.13,0.11,0.25,0.23,0.38,0.34
						c5.97,5.5,3.72,6.76,14.44,17.92c12.22,12.71,20.63,12.94,23.03,11.79c2.03-0.99-2.09-7.73-6.65-15.31
						c-2.38-0.87-13.43-5.36-21.78-16.05c-7.36-9.39-12.27-21.45-17.28-28.44c-0.28,0.17-0.56,0.35-0.83,0.52
						C333.42,1109.82,331.11,1111.37,329.28,1113.46z"/>
					<path class="st9" d="M518.11,1098.84c1.45,7.23,11.75,6.02,23.26,3.21c11.51-2.81,8.78,0.53,25.16-1.28
						c16.38-1.81,21.35-7.92,21.85-10.36c0.45-2.16-7.65-2.92-16.33-3.92c-1.09-0.12-2.19-0.26-3.29-0.39
						c-9.8-1.23-16.98-7.56-25.89-12.75c-8.43-4.92-21.02-24.97-21.02-24.97l-22.47,1.78c0,0,11.79,17.91,16.35,25.69
						c2.68,4.58,2.54,10.64,2.21,15.31C517.76,1093.69,517.59,1096.29,518.11,1098.84z"/>
					<path class="st10" d="M541.37,1102.05c11.51-2.81,8.78,0.53,25.16-1.28c16.38-1.81,21.35-7.92,21.85-10.36
						c0.45-2.16-7.65-2.92-16.33-3.92l-0.08,0.17c0,0-9.83,6.97-23.46,7.29c-11.12,0.27-22.89-2.91-30.56-2.79
						c-0.17,2.54-0.34,5.14,0.17,7.69C519.55,1106.07,529.86,1104.86,541.37,1102.05z"/>
					<path class="st8" d="M468.11,768.83c0,0,5.35-13.12,11.24-13.65c5.89-0.54,24.62-3.48,25.96-0.8c1.34,2.68,0,12.31-4.01,15.79
						c-4.01,3.48-28.91,9.1-28.91,9.1L468.11,768.83z"/>
					<path class="st2" d="M432,955.17l-48.42,130.32c0,0-7.44,0.72-14.57-1.34c-6.56-1.89-14.08-6.86-14.08-6.86
						s12.01-125.13,34.03-151.15C410.98,900.11,432,955.17,432,955.17z"/>
					<path class="st3" d="M240.47,902.45c0,0,139.14-47.05,170.17-37.04c31.03,10.01,124.2,195.38,124.2,195.38s-2.1,2.8-7.84,4.95
						c-5.34,2-18.26,1.87-18.26,1.87s-84.09-72.07-94.1-93.09c-10.01-21.02-14.01-41.04-24.02-39.04
						c-10.01,2-129.13,49.05-156.16,21.02c-27.03-28.03-19.96-64.44-19.96-64.44L240.47,902.45z"/>
					<path class="st6" d="M319.8,570.69c-6.01-3.42-13.22-3.79-18.26-3.49c1.3-1.34,3.85-1.83,3.85-1.83
						c-3.13-0.46-10.1,2.64-10.1,2.64c-43.49-16.76-50.32,47.27-49.41,62.15c0.91,14.87,1.02,32-20.69,45.34
						c-42.71,26.25-6.67,72.08-6.67,72.08c0.34,0.2,19.87,33.33,19.87,33.33c-1.1-12.02,54.37-75.46,83.3-94.46
						c7.04-10.37,9.55-28.69,9.74-30.13c-1.22,14.53-3.7,22.67-5.92,27.26C350.01,661.03,335.74,579.75,319.8,570.69z"/>
					<path class="st8" d="M319.98,687.39c0.14,0.07-13.97,7.4-24.59,4.49c-9.99-2.72-16.51-15.67-16.38-15.7
						c4.23-0.84,5.45-6.65,5.36-31.63l1.91,0.38l32.15,6.37c0,0-0.73,10.12-0.75,19.65C317.66,678.95,318.14,686.54,319.98,687.39z"
						/>
					<path class="st25" d="M318.43,651.29c0,0-0.73,10.12-0.75,19.65c-17.99-0.51-27.5-16.92-31.4-26.02L318.43,651.29z"/>
					<path class="st8" d="M324.44,660.32c0,0-42.57,0.7-42.6-25.81c-0.03-26.52-5.54-44.28,21.63-45.85
						c27.18-1.57,32.47,8.54,34.63,17.39S335.51,659.45,324.44,660.32z"/>
					<path class="st6" d="M322.87,588c0,0-11.65,31.11-29.54,35.71c-17.89,4.6-25.65-0.19-25.65-0.19s13.72-10.9,16.57-29.93
						C284.25,593.59,314.08,573.2,322.87,588z"/>
					<path class="st6" d="M319.98,590.53c0,0,8.7,6.95,10.83,13.7c2.12,6.75,3.08,20.65,7.13,20.18c0,0,8.78-21.14-1.09-33.11
						C326.38,578.62,319.98,590.53,319.98,590.53z"/>
					<path class="st16" d="M468.56,762.25c0,0-62.73,23.58-68.97,24.03c-13.58,0.97-27.4-64.58-40.1-86.43
						c-9.18-15.8-41.58-20.1-41.58-20.1s-3.22,17.61-38.9-3.57c-1.26-0.75-15.3,20.05-28.83,45.68
						c-14.91,28.28-29.19,62.45-24.99,80.05c8.01,33.56-24.03,82.75-17.35,101.27c2.3,6.37,9.34,8.01,18.77,6.91
						c17.99-2.1,44.72-14.18,63.98-22.54c29.37-12.73,42.71-0.77,52.06-8.87c8.85-7.67-8.63-24.24,4.22-97.01
						c0.02,0.04,0.04,0.07,0.07,0.11c10.07,16.28,28.71,43.95,40.64,46.76c5.89,1.39,18.41-3.51,32.26-10.51
						c26.19-13.23,57.17-33.98,57.17-33.98C479.01,772.04,468.56,762.25,468.56,762.25z"/>
					<path class="st16" d="M314.98,644.25c0,0,0.79,3.37,9.17,2.85c0,0,7.04-0.43,6.82-4.14
						C330.97,642.96,324.15,640.32,314.98,644.25z"/>
					<path class="st26" d="M207.83,903.18c2.3,6.37,9.34,8.01,18.77,6.91c12.45-5.43,66.25-26.27,65.65-40.39
						c-0.89-20.91-10.34-21.58-3.67-47.38c5.36-20.72-44.35-59.25-52.28-67.63c-14.91,28.28-15.32,29.62-11.12,47.23
						C233.19,835.48,201.16,884.66,207.83,903.18z"/>
					<path class="st27" d="M346.94,781.79c10.07,16.28,28.71,43.95,40.64,46.76c5.89,1.39,18.41-3.51,32.26-10.51
						c-10.11,2.61-19.93,2.54-29.48,1.62c-10.34-1-13.35-13.68-29.7-32.7C350.06,774.61,347.46,777.72,346.94,781.79z"/>
					<path class="st8" d="M297.1,821.82c0,0,9.01-7.01,17.52-5.34c8.51,1.67,12.68,7.51,12.35,10.18
						c-0.33,2.67-4.84,10.18-11.35,10.84c-6.51,0.67-25.03-4-25.03-4L297.1,821.82z"/>
					<path class="st16" d="M279.01,676.18c0,0-34.69,2.14-46.71,18.89c-16.91,23.58-46.27,119.85-38.26,141.87l105.56-0.44
						c0,0,2.56-11.96-1-17.74c-3.56-5.78-61.4-15.13-64.07-17.8c-2.67-2.67,33.37-52.06,33.37-60.06
						C267.9,732.89,279.01,676.18,279.01,676.18z"/>
				</g>
				<g>
					<g>
						<polygon class="st28" points="306.15,866.27 433.94,866.27 456.98,785.93 329.39,785.93 						"/>
						
							<rect x="266.44" y="863.14" transform="matrix(-1 -1.224647e-16 1.224647e-16 -1 699.9495 1729.4062)" class="st29" width="167.07" height="3.13"/>
					</g>
					<path class="st29" d="M393.37,824.8c0.81-2.82-0.82-5.11-3.65-5.11c-2.82,0-5.77,2.29-6.58,5.11
						c-0.81,2.82,0.82,5.11,3.65,5.11C389.61,829.91,392.56,827.62,393.37,824.8z"/>
				</g>
			</g>
		</g>
		<path class="st15" d="M424.26,1170.36c-6.26-6.03-31.3-30.39-31.3-30.39c-15.71-39.61-34.6-81.85-52.7-118.04
			c-22.88-45.65-44.51-81.62-56.8-90.27c-6.72-4.67-30.85-8.31-61.36-10.93c-0.23-0.34-0.34-0.57-0.57-0.8
			c1.48-0.34,2.5-1.25,3.07-2.62c0.68-1.14,0.91-2.73,0.91-4.44c0-4.9-2.28-11.04-5.69-13.2c-4.44-2.85-16.28-1.25-22.88,0
			c-6.72,1.37-19.92,1.25-19.92,1.25c-0.91-0.23-2.73-0.8-5.35-1.59c-2.5-0.8-5.81-1.71-9.68-2.96
			c-12.18-7.51-29.03-18.21-35.29-23.68c2.39-6.83,3.19-13.43-0.11-14.46c-5.12-1.71-18.33-27.21-24.02-38.7
			c0.11-8.2,0.57-16.05,0.57-16.73c-0.46-26.3-34.15-63.75-47.92-77.63h1.71c-2.5-1.71-4.89-3.53-7.28-5.47
			c-2.5-1.93,1.48-5.92,0-8.88c-0.57-1.14-2.39-1.14-5.12-0.68c-0.11-0.8-0.11-1.48-0.11-2.05c-0.11-3.76,0.11-9.11,0.34-13.89
			c1.48,0.11,2.39,0.11,2.39,0.11c7.74-0.34,12.98-19.46,15.14-34.95c0,0,4.33-8.99,4.33-18.67c0-4.89-1.14-9.9-4.55-14
			c-2.05-2.5-3.98-3.98-5.69-4.89c-3.07-3.42-15.71-17.08-29.94-23.22c-5.81,25.38-9.9,51.22-12.86,77.41
			c-1.71,15.37-2.96,30.85-3.87,46.33c-2.28,38.93-2.05,78.09-0.11,116c0.8,15.14,1.82,30.05,3.07,44.74
			c1.02,11.61,2.16,22.99,3.41,34.26c0.23,1.82,0.46,3.76,0.68,5.58c0.34,3.53,0.68,6.94,1.14,10.36c0.34,2.62,0.57,5.24,0.91,7.86
			c0.68,5.12,1.25,10.13,2.05,15.02c1.71,12.64,3.53,25.04,5.46,37c0.8,5.24,1.71,10.47,2.62,15.6H65.8
			c0.11,0.34,1.59,15.48,0.45,42.8v0.34c-0.57,13.32-1.71,29.6-4.1,48.49c-1.37,11.73-3.3,24.47-5.69,38.13
			c2.05,7.74,3.87,14.8,5.58,20.95c1.48-4.55,2.96-9.11,4.33-13.66c2.85-9.56,5.35-18.9,7.4-27.89
			c12.98-56.01,11.95-98.81,10.81-109.16h51.22c-1.48,12.98-2.62,77.18,23.79,154.24c2.39,6.83,4.89,13.77,7.74,20.72
			c0.57,1.6,1.25,3.3,1.93,4.9c0,0.11,0.11,0.23,0.11,0.34h5.01c0-0.11,0-0.23-0.11-0.34c-0.34-1.59-0.8-3.3-1.14-4.9
			c-1.71-7.17-3.19-14.12-4.67-20.95c-19.81-95.62-14-153.33-13.89-154.01h43.6c-1.48,12.86-2.62,77.06,23.79,154.01c0,0,0,0,0,0.11
			c2.28,6.83,4.89,13.77,7.74,20.83c0.46,1.25,1.02,2.62,1.48,3.87c0.23,0.34,0.34,0.68,0.46,1.02c0.11,0.11,0.11,0.23,0.11,0.34
			h5.01v-0.34c-0.34-1.59-0.8-3.3-1.14-4.9c-1.71-7.06-3.19-13.89-4.55-20.49v-0.11c-20.03-95.85-14.23-153.67-14.12-154.36h12.52
			c1.94,0,3.53-1.48,3.53-3.3c0-0.91-0.34-1.82-1.02-2.39c-0.57-0.57-1.48-1.03-2.5-1.03h-1.25c0,0-1.02-3.98-13.43-8.2
			c5.35-0.23,9.11-0.46,10.7-0.68c3.19-0.34,6.37-0.57,9.33-0.68c10.47-0.46,19.12,0.34,19.12,0.34c2.16,8.31,6.03,17.3,11.04,26.75
			c0.68,37.11,2.73,86.17,8.08,120.43c0,0-1.71,10.81-6.38,17.3c-1.48,2.05-1.93,5.01-2.05,8.31c-0.11,7.06,2.05,15.14,2.05,15.14
			l0.91,2.96l2.28,7.63h22.54v-6.83c2.96,1.02,5.46,2.05,7.63,3.07c4.44,2.05,6.94,3.76,6.94,3.76h75.02v-6.83
			c9.22,3.07,14.57,6.83,14.57,6.83h63.75C453.86,1173.67,430.52,1176.28,424.26,1170.36z M135.13,912.87
			c9.9,0.57,19.12,0.8,26.3,1.02c6.15,1.71,10.7,2.96,12.29,3.42c-13.43-0.68-26.98-1.37-39.96-1.94
			C134.44,914.7,134.9,913.78,135.13,912.87z M362.68,1139.97c0,0-1.71,10.81-6.38,17.3c-3.42,4.78-1.94,14.91-0.8,20.15
			c-5.35-1.94-10.93-2.96-15.25-4.33c-2.39-0.68-4.33-1.59-5.58-2.73c-6.15-6.03-31.3-30.39-31.3-30.39l9.68-53.27
			c9.68,11.38,19.12,21.74,27.21,30.28c12.75,13.66,21.97,22.42,22.43,22.88C362.68,1139.97,362.68,1139.97,362.68,1139.97z"/>
		<g>
			<path class="st30" d="M354.76,1190.82l-22.96,0.11c0.82-3.44,1.54-6.87,2.13-9.84c0.55-2.74,0.98-5.11,1.27-6.76
				c0.28-1.58,0.43-2.5,0.43-2.5l13.21,13.11L354.76,1190.82z"/>
			<path class="st30" d="M281.55,1191.18l-22.96,0.11c0.42-1.75,0.81-3.5,1.17-5.19c1.62-7.58,2.66-13.91,2.66-13.91l16.34,16.22
				L281.55,1191.18z"/>
			<path class="st30" d="M173.88,1030.84c2.41,0.58,6.22,1.11,11.15,1.62v0.01c19.04,1.96,54.62,3.36,88.85,3.56
				c12.17,0.07,24.16,0,35.18-0.26c0.05,0,0.09,0.01,0.14,0c9.58-0.23,18.41-0.59,25.98-1.1c8.38-0.56,15.22-1.32,19.77-2.29
				c3.31-0.7,5.42-1.51,6.05-2.45c5.41-7.89,18.88-23.71,17.1-35.67c-0.36-2.44-1.35-4.72-3.17-6.72c0,0-9.32-3.47-23.97-8.35h-0.01
				c-29.03-9.67-79.02-24.89-119.01-29.71h-0.01c-23.61-2.85-43.73-2.07-54,5.63C141.47,982.42,150.52,1025.27,173.88,1030.84z"/>
			<path class="st30" d="M335.4,1033.41c0,0.01,0,0.01,0,0.02c-0.07,0.41-0.14,0.83-0.21,1.24c-0.06,0.38-0.12,0.75-0.19,1.14
				c-0.35,2.03-0.74,4.14-1.17,6.34c-0.21,1.11-0.44,2.24-0.68,3.38c-0.23,1.11-0.47,2.23-0.72,3.37c-2.49,11.4-6.06,24.81-11,40.55
				v0.01c-6.64,21.08-15.78,46.35-28.2,76.65c-1.77,4.31-3.6,8.72-5.51,13.24c-1.62,3.86-3.3,7.8-5.04,11.81l-15.12,0.07
				c-2.79-1.19-5.55-2.85-7.79-5.15c-1.31-1.33-2.44-2.9-3.29-4.72c-1.92-4.12-2.53-28.65,0.24-59.09c1-11.02,2.43-22.82,4.42-34.7
				c2.15-12.98,4.94-26.07,8.52-38.37c0.33-1.16,0.67-2.31,1.02-3.44c0.33-1.11,0.69-2.22,1.04-3.32c0.7-2.17,1.43-4.32,2.17-6.42
				c0.12-0.34,0.24-0.67,0.35-0.99v-0.01c1.26-3.45,2.58-6.79,3.98-10.01v-0.01c6.83-15.68,15.47-28.33,26.29-35.2
				c7.6-4.81,16.29-6.78,26.19-4.94c0.22,0.04,0.45,0.09,0.66,0.12C331.37,984.99,342.16,991.37,335.4,1033.41z"/>
			<path class="st6" d="M196.8,742.05c0,0-1.76,0.29-4.4,0.92c-6.38,1.52-17.89,5.02-22.05,11.18
				c-5.88,8.71-36.4,125.75-34.69,142.69c1.71,16.94,36.64,42.82,48.48,44.77L196.8,742.05L196.8,742.05z"/>
			<path class="st8" d="M231.83,760.46c0.12,0.1-0.01,17.83-15.36,14.09c-10.08-2.45-29.57-19.08-25.92-27.4
				c1.74-3.96,11.53-13.17,17.91-37.37l1.75,0.86l29.47,14.48c0,0-3.33,9.6-5.81,18.82C231.77,751.69,230.28,759.16,231.83,760.46z"
				/>
			<path class="st8" d="M252.32,731.3c0,0-44.2,10.22-50.14-17.41c-5.94-27.62-15.64-44.91,12.33-52.6
				c27.97-7.69,35.74,1.67,39.96,10.41C258.7,680.44,263.67,727.93,252.32,731.3z"/>
			<path class="st31" d="M164.51,990.44c0,0,27.13,21.91,25.62,37.17c-1.5,15.26,21.35-3.15,21.35-3.15l-10.62-34.19L164.51,990.44z
				"/>
			<path class="st32" d="M397.02,1093.51c-8.19,25.98-20.06,57.97-36.98,97.28l-14.94,0.07c-2.27-0.96-4.53-2.22-6.51-3.89
				c-1.88-1.56-3.51-3.5-4.65-5.88c-0.03-0.05-0.05-0.11-0.08-0.16c-0.95-2.02-1.57-8.94-1.64-19.07
				c-0.11-17.71,1.49-45.21,6.08-73.35c1.91-11.74,4.34-23.59,7.38-34.89c0.43-1.61,0.88-3.2,1.34-4.79
				c0.66-2.29,1.35-4.54,2.07-6.76c0.02-0.07,0.04-0.14,0.07-0.2c0.69-2.14,1.41-4.25,2.15-6.33c-3.27,0.08-6.64,0.15-10.06,0.19
				h-0.03c-2.04,0.03-4.1,0.05-6.19,0.07c-8.37,0.07-17.08,0.05-25.8-0.04c-0.05,0.01-0.1,0-0.15,0
				c-11.82-0.11-23.67-0.37-34.83-0.74c-10.58-0.35-20.54-0.79-29.23-1.33c-2.49-0.14-4.87-0.31-7.13-0.47
				c-10.5-0.76-18.48-1.63-22.51-2.59c-2.75-0.66-5.3-1.83-7.6-3.43c-0.87-0.6-1.71-1.26-2.5-1.99c-0.01-0.01-0.02-0.02-0.02-0.02
				c-7.34-6.69-11.42-18.21-10.07-30.92c0-0.01,0-0.01,0.01-0.02c0.13-1.31,0.33-2.64,0.59-3.98c0.14-0.76,0.31-1.53,0.5-2.3
				c0.63-2.57,1.48-5.17,2.58-7.76c3.77-8.89,10.39-17.7,20.57-25.32c2.85-2.13,6.38-3.75,10.52-4.91c0.65-0.19,1.31-0.36,1.99-0.51
				c0.01,0,0.01-0.01,0.01-0.01s0,0,0.01,0h0.01c0.3-0.07,0.6-0.14,0.9-0.2c2.08-0.47,4.28-0.83,6.59-1.1
				c12.37-1.49,27.79-0.4,44.28,2.07h0.01c1.71,0.25,3.44,0.52,5.17,0.81c15.94,2.6,32.66,6.34,48.45,10.17
				c0.03,0.01,0.05,0.01,0.07,0.02c4.86,1.16,9.62,2.35,14.26,3.51c1.05,0.27,2.09,0.52,3.12,0.79c5.54,1.39,10.87,2.75,15.89,3.99
				c3.43,0.85,6.68,1.79,9.75,2.78l0.11,0.03c17.15,5.49,28.16,12.2,28.19,12.21C408.75,984.56,426.32,1000.66,397.02,1093.51z"/>
			<path class="st30" d="M153.07,982.05c2.33,3.23,6.29,6.03,11.43,8.39h0.01c36.72,16.9,124.22-21.32,119.93-46.6
				c-1.51-8.9-8.45-8.81-13.93-23.33c-4.26-11.28-7.34-21.84-7.24-32.2c0.04-4.39,0.66-8.76,1.99-13.12
				c3.25-10.58,6.2-27.57,8.03-45.67c3.12-30.84-5.46-64.12-12.87-75.04c-1.05-1.55-55.68-16.14-102.59-0.62
				c0,0-3.44,54.59,7.56,111.48c1.48,7.59,0.83,15.43-1.88,22.67C155.06,910.61,138.47,961.84,153.07,982.05z"/>
			<path class="st3" d="M245.22,876.08c-6.42-19.75-8.38-44.25,4.37-69.66c0,0,13.11,7.87,23.7,23.1
				c-1.83,18.1-4.78,35.1-8.03,45.67c-1.37,4.47-1.98,8.95-1.99,13.47c0,0.26,0,0.52,0.01,0.77c0.01,0.59,0.03,1.19,0.05,1.78
				c0.01,0.25,0.02,0.5,0.04,0.76c0.05,0.78,0.11,1.55,0.19,2.33c0.03,0.25,0.06,0.51,0.09,0.76c0.07,0.58,0.14,1.16,0.22,1.74
				c0.04,0.3,0.09,0.6,0.13,0.9c0.11,0.7,0.23,1.41,0.36,2.12c0.05,0.26,0.1,0.53,0.15,0.79c0.13,0.64,0.26,1.28,0.4,1.92
				c0.07,0.32,0.15,0.64,0.22,0.96c0.14,0.58,0.28,1.15,0.42,1.73c0.07,0.27,0.13,0.53,0.2,0.8c0.21,0.78,0.43,1.56,0.65,2.35
				c0.09,0.32,0.19,0.64,0.29,0.97c0.17,0.56,0.34,1.11,0.51,1.67c0.1,0.31,0.19,0.62,0.29,0.94c0.26,0.8,0.52,1.6,0.8,2.41
				c0.09,0.27,0.19,0.54,0.28,0.81c0.22,0.63,0.44,1.25,0.66,1.88c0.11,0.29,0.21,0.59,0.32,0.88c0.31,0.86,0.63,1.72,0.96,2.59
				c5.48,14.52,18.53,21.88,18.55,29.21c0.04,18.97-87.83,57.62-124.55,40.72C249.96,1003.16,245.24,876.61,245.22,876.08z"/>
			<path class="st9" d="M234.15,697.9c0,0-4.46-8.97-8.55-7.21c-4.09,1.75,1.66,16.24,4.34,16.07
				C232.61,706.58,234.15,697.9,234.15,697.9z"/>
			<path class="st6" d="M246.75,652.34c-9.4-6.06-19.27-6.81-19.27-6.81c-7.25-0.88-13.53-0.23-18.89,1.47c0,0-0.01-0.01-0.01-0.01
				c-0.88-0.87-1.77-1.51-2.66-1.87c-28.55-11.76-55.81,28.74-46.27,61.98c4.1,14.34-15.71,31.15-34.44,44.96
				c-15.8,11.66-18.87,26.61-17.22,39.88c2.19,17.74,12.33,33.2,27.79,38.55c-7.98-11.77-7.63-23.48-7.63-23.48
				c0.52,5.77,4.41,11.69,8.66,16.55c3.12,3.58,6.78,6.61,10.81,9.05c3.79,2.28,7.93,4.04,12.24,5.21c0.42,0.12,0.85,0.23,1.25,0.33
				c12.57,3.33,22.06,5.01,29.22,5.66c3.65,0.33,6.69,0.39,9.23,0.28c7.52-0.35,10.67-2.31,11.97-3.75c0.81-0.9,0.92-1.61,0.92-1.61
				c20.73-34.47-26.24-36.9-7.58-70.22c1.31-2.34,2.94-4.83,4.95-7.5c2.26-4,3.93-9.13,5.13-14.04c1.91-7.69,2.66-14.86,2.79-16.21
				c-0.36,6.67-0.97,11.99-1.73,16.25v0.01c-0.87,5-1.91,8.52-2.91,11.02c2.55-2.8,4.6-6.5,6.2-10.84
				c1.65-4.46,2.84-9.59,3.61-15.15c0.66-4.63,1.02-9.56,1.13-14.61c0.07-2.82,0.06-5.68-0.02-8.55v-0.01c0,0,0,0,0,0
				c4.53-7.11,8.15-18.41,14.86-23.73c-2.53,13.44-9.64,29.92-9.64,29.92c25.68-12.19,30.13-45.4,30.13-45.4s0,0,0,0
				C261.74,661.86,251.62,655.48,246.75,652.34z"/>
			<path class="st6" d="M350.49,1042.07l-1.27,0.01c0,0,0-0.01,0-0.02c-0.17-0.59-6.1-17.95-104.29-17.77
				c-0.92-57.78-8.89-109.31-18.91-142c-12.05-39.29-22.83-61.88-22.95-62.12c-0.82-1.58-3.62-2.55-8.12-2.13
				c-5.15,0.47-5.29,4.01-4.47,5.59c0.16,0.3,5.25,10.31,12.04,27.84c-27.88-4.67-73.73,0.6-92.54,3.14
				c-7.77-21.7-13.51-33.74-13.61-33.92c-0.82-1.58-3.62-2.55-8.12-2.13c-5.15,0.47-5.29,4.01-4.47,5.59
				c0.49,0.94,48.64,95.55,47.41,219c-0.87,0.04-1.66,0.4-2.24,0.99c-0.61,0.62-0.98,1.45-0.97,2.38c0.01,1.85,1.53,3.37,3.37,3.36
				l0.26,0v0c0.03,0.76,5.25,53.56-9.9,142.07l10.19-0.05c20.06-71.69,18.71-129.76,17.4-142.1l0,0l81.28-0.4v0
				c0.78,11.02,3.4,62.26-10.14,142.07l10.13-0.05c19.18-69.14,18.93-125.85,17.71-142.11v0l12.51-0.06v0
				c-0.51,5.27-0.95,18.89,0.34,38.33c1.69,25.49,6.33,60.99,17.64,100.83c0.26,0.92,0.52,1.84,0.8,2.77l10.19-0.05
				c-0.73-4-1.41-7.92-2.05-11.78c-13.55-81.26-9.25-129.47-9.23-130.19l0,0l42.46-0.21c0,0,0,0,0,0
				c-0.54,5.47-0.98,19.9,0.49,40.49v0.01c1.38,19.43,4.46,44.35,10.8,72.39c0.92,4.1,1.92,8.25,2.99,12.47
				c1.05,4.15,2.18,8.37,3.38,12.64c0.36,1.3,0.73,2.6,1.12,3.92l10.19-0.05c-0.36-1.99-0.71-3.96-1.05-5.9
				c-7.06-40.55-9.71-73.25-10.55-96.43c-0.92-25.31,0.31-39.24,0.32-39.63v0l11.91-0.06c0.92-0.01,1.75-0.39,2.35-1.01
				c0.61-0.62,0.98-1.46,0.97-2.39C353.84,1043.58,352.33,1042.06,350.49,1042.07z M138.28,1043.11L138.28,1043.11l22.38-0.11
				l-9.6,0.05L138.28,1043.11z M205.14,858.42c1.56,4.22,3.19,8.8,4.84,13.69c-28.64-4.51-75.21,1.03-92.92,3.47
				c-1.7-5.32-3.35-10.28-4.94-14.88C132.22,858.06,180.04,852.77,205.14,858.42z M119.32,882.81c-0.11-0.37-0.23-0.74-0.34-1.11
				c18.78-2.52,67.14-8.1,93.26-2.76c11.58,35.92,23.79,86.86,25.47,145.4c-6.4,0.06-13.14,0.19-20.29,0.4
				c-10.06,0.3-18.95,0.76-26.82,1.36c0,0.01,0,0.03,0,0.04c-30.11,2.29-44.96,6.41-52.28,10.02
				C138.33,973.81,129.99,917.62,119.32,882.81z"/>
			<path class="st8" d="M354.92,951.59c0,0,14.89,4.1,19.16,8.02c4.28,3.92,6.48,12.73,6.48,12.73l-28.89-7.46L354.92,951.59z"/>
			<path class="st30" d="M354.73,965.68c-14.28-1.65-45.74-14.07-57.45-28.38c-13.42-16.42-67-107.27-57.23-134.74
				c3.48-9.78,9.84-49.28,18.02-48.66c7.45,0.56,18.22,15.66,20.68,25.21c10.01,38.81,23.76,113.99,34.1,122.56
				c9.38,7.78,31.37,33.15,42.06,49.93c0,0.01,0.01,0.01,0.01,0.02C358.25,958.95,356.73,962.69,354.73,965.68z"/>
		</g>
		<path class="st30" d="M1089.51,1193.06c-1.16,0.21-2.26,0.45-3.31,0.68c-0.1-0.27-0.18-0.5-0.25-0.68H1089.51z"/>
		<path class="st30" d="M1293.62,1193.06c-0.53,0.1-1.07,0.21-1.58,0.33c-0.23-0.11-0.46-0.22-0.69-0.33H1293.62z"/>
		<path class="st33" d="M2350.06,702.55c-14.62,169.36-62.06,330.48-124.54,430.41c-13.97,22.36-28.69,41.64-43.96,57.29h-120.4
			V30.46c129.89,42.34,210.11,148.54,253.19,281.31C2352.64,429.75,2361.6,568.73,2350.06,702.55z"/>
		<path class="st34" d="M2132.39,62.72v1128.42h-71.23V30.46C2086.81,38.81,2110.51,49.66,2132.39,62.72z"/>
		<path class="st35" d="M2225.52,1132.97c-13.96,22.36-28.69,41.64-43.96,57.29c-0.28,0.29-0.57,0.59-0.85,0.88h-119.54v-58.17
			H2225.52z"/>
		<path class="st34" d="M2350.06,702.55c-14.62,169.36-62.06,330.48-124.54,430.41h-96.39V628.2h28.59V490.44h28.6v186.12h23.14
			v-41.58h40.33v70.3h17.56V547.38h46.99V311.77C2352.64,429.75,2361.6,568.73,2350.06,702.55z"/>
		<g>
			<path class="st30" d="M697.8,1191.31h-61.24c6.49-11.16,14.12-20.03,22.99-25.61c8.88-5.58,18.9-7.85,30.39-5.69
				c0.34,0.11,0.57,0.11,0.8,0.23C690.74,1160.23,698.6,1164.9,697.8,1191.31z"/>
			<path class="st36" d="M535.81,877.22c0,0-2.05,0.33-5.12,1.04c-7.42,1.73-20.81,5.73-25.68,12.86
				c-6.88,10.08-43,145.88-41.11,165.57c1.89,19.69,42.33,49.95,56.07,52.28L535.81,877.22L535.81,877.22z"/>
			<path class="st13" d="M576.4,898.81c0.14,0.12-0.12,20.71-17.93,16.29c-11.69-2.91-34.25-22.33-29.96-31.98
				c2.04-4.59,13.47-15.24,21.02-43.31l2.03,1.01l34.15,16.99c0,0-3.92,11.14-6.86,21.83C576.38,888.62,574.6,897.29,576.4,898.81z"
				/>
			<path class="st8" d="M600.37,865.05c0,0-51.41,11.62-58.15-20.51c-6.74-32.12-17.92-52.26,14.62-61.03
				c32.54-8.77,41.51,2.14,46.36,12.32C608.07,806,613.57,861.2,600.37,865.05z"/>
			<path class="st6" d="M560.39,845.67c-12.29,4.19-31.08-19.95-36.46-34.01c-6.6-17.22,8.56-51.4,48.07-46.41
				c0,0,11.47,0.94,22.35,8.02c8.66,5.64,31.67,20.24-5.53,35.82C574.83,814.95,571.08,842.03,560.39,845.67z"/>
			<path class="st30" d="M780.67,1160.12c0,0-12.75-7.86-32.67-14.34l-0.8-0.23c-3.3-1.03-6.94-2.16-10.7-3.07
				c-5.81-1.48-11.95-3.07-18.33-4.78c-1.25-0.23-2.5-0.57-3.64-0.91c-5.12-1.25-10.25-2.62-15.59-3.87c0,0,0,0-0.11,0
				c-0.34-0.11-0.57-0.11-0.91-0.23c-18.33-4.55-37.79-8.99-56.23-12.18h-0.11c-2.05-0.34-3.98-0.68-5.92-0.91
				c-0.11,0-0.11,0-0.23,0c-19.01-2.96-37-4.33-51.22-2.62c-2.73,0.23-5.24,0.68-7.63,1.14c-0.34,0.11-0.68,0.23-1.14,0.23
				c-0.8-0.11-1.59-0.23-2.39-0.23h-0.11c-8.65-1.02-16.85-1.59-24.47-1.59c-15.37,0-28,2.28-35.74,8.08
				c-13.89,10.25-22.08,22.43-25.95,34.49c-3.76,11.5-3.53,22.88-0.34,32.21h48.26h204.78h47.01
				C787.27,1166.15,780.67,1160.12,780.67,1160.12z"/>
			<path class="st16" d="M483.65,1155.78c2.69,3.76,7.28,7.04,13.23,9.81h0.01c42.56,19.84,144.43-24.07,139.59-53.45
				c-1.7-10.35-9.77-10.29-16.05-27.19c-4.88-13.13-8.4-25.42-8.23-37.45c0.07-5.1,0.81-10.17,2.39-15.23
				c3.84-12.27,7.36-31.99,9.59-53.01c3.8-35.81-5.98-74.51-14.53-87.25c-1.21-1.8-64.59-19.07-119.18-1.3
				c0,0-4.31,63.4,8.16,129.55c1.67,8.83,0.88,17.93-2.31,26.33C486.37,1072.8,466.8,1132.22,483.65,1155.78z"/>
			<path class="st36" d="M591.29,1033.19c-7.35-22.98-9.48-51.45,5.47-80.9c0,0,15.18,9.21,27.4,26.97
				c-2.23,21.02-5.75,40.74-9.59,53.01c-1.62,5.19-2.35,10.38-2.38,15.63c0,0.3,0,0.6,0,0.9c0.01,0.69,0.02,1.38,0.05,2.07
				c0.01,0.29,0.02,0.59,0.04,0.88c0.05,0.9,0.12,1.81,0.2,2.71c0.03,0.29,0.07,0.59,0.1,0.88c0.07,0.67,0.15,1.35,0.25,2.02
				c0.05,0.35,0.1,0.7,0.15,1.05c0.12,0.82,0.26,1.64,0.41,2.46c0.06,0.3,0.12,0.61,0.17,0.92c0.14,0.74,0.29,1.48,0.46,2.23
				c0.08,0.37,0.17,0.75,0.25,1.12c0.15,0.67,0.32,1.34,0.48,2.02c0.08,0.31,0.15,0.61,0.23,0.92c0.24,0.91,0.49,1.82,0.74,2.74
				c0.11,0.37,0.22,0.75,0.33,1.12c0.19,0.65,0.38,1.29,0.58,1.95c0.11,0.36,0.22,0.72,0.34,1.09c0.29,0.93,0.6,1.86,0.91,2.8
				c0.1,0.31,0.21,0.63,0.32,0.94c0.25,0.73,0.5,1.46,0.76,2.19c0.12,0.34,0.24,0.68,0.37,1.03c0.36,1,0.72,2,1.1,3.01
				c6.29,16.9,21.4,25.52,21.38,34.04c-0.06,22.04-102.36,66.44-144.92,46.6C596.09,1180.85,591.31,1033.81,591.29,1033.19z"/>
			<path class="st8" d="M579.44,826.14c0,0-5.13-10.44-9.89-8.43c-4.76,2.02,1.83,18.87,4.95,18.69
				C577.61,836.22,579.44,826.14,579.44,826.14z"/>
			<path class="st6" d="M558.58,783.11v-0.11c-2.5-7.17-5.35-12.86-8.42-16.05h-0.11v-0.11c-1.02-1.03-2.05-1.71-3.07-2.16
				c-33.13-13.89-65,33.01-54.07,71.71c4.67,16.73-18.44,36.09-40.3,52.02c-18.44,13.43-22.08,30.85-20.26,46.22
				c2.5,20.72,14.12,38.7,32.1,44.96c-8.42-12.41-8.77-24.82-8.77-26.98c0.68,6.6,5.24,13.43,10.02,19.01
				c3.53,4.1,7.63,7.63,12.41,10.47c0,0.11,0.11,0.11,0.11,0.11c4.33,2.62,9.11,4.67,14.12,6.03c0.46,0.23,1.02,0.34,1.48,0.46
				c14.57,3.87,25.61,5.92,33.92,6.72c4.21,0.45,7.74,0.45,10.7,0.34c8.76-0.34,12.41-2.62,14-4.21c0.91-1.14,1.02-1.94,1.02-1.94
				c24.25-39.84-30.28-43.03-8.42-81.62c1.59-2.73,3.41-5.58,5.81-8.65c2.62-4.67,4.55-10.59,6.03-16.28
				c1.48-6.03,2.5-11.72,2.96-15.25c-0.46,6.15-0.91,11.16-1.71,15.25c-1.02,5.81-2.28,9.9-3.41,12.86
				c2.96-3.3,5.35-7.51,7.17-12.64c1.94-5.12,3.41-11.04,4.33-17.53c0.8-5.35,1.25-11.04,1.37-16.96c0.11-3.19,0.11-6.49,0-9.68
				c0-0.11,0-0.11,0-0.23C567.12,818.51,563.59,797.68,558.58,783.11z"/>
			<path class="st6" d="M588.18,1156.93c0-0.46-0.11-0.8-0.11-1.14c-0.91-12.64-2.05-24.7-3.53-36.2c-0.11-0.91-0.23-1.82-0.34-2.62
				c-0.57-5.01-1.25-9.9-1.94-14.57v-0.11c-3.64-24.13-8.2-45.19-13.32-62.04c-6.15-20.15-11.95-36.65-16.51-48.72
				c-5.81-15.14-9.68-23.34-9.79-23.56c-0.91-1.82-4.21-2.96-9.45-2.5c-1.48,0.11-2.62,0.57-3.53,1.02
				c-2.39,1.48-2.39,4.1-1.71,5.46c0,0.11,0.46,0.91,1.25,2.5c1.71,3.53,5.01,10.81,9.22,21.29c1.02,2.73,2.16,5.56,3.41,8.63
				c-32.37-5.59-85.69,0.27-107.56,3.12c0-0.01-0.01-0.02-0.01-0.02c-8.88-25.27-15.48-39.27-15.59-39.5
				c-0.91-1.82-4.21-2.96-9.45-2.5c-5.92,0.57-6.15,4.67-5.24,6.49c0.57,1.02,47.13,93.68,53.27,219.35h8.65
				c-1.82-61.36-10.24-115.65-20.94-151.05c-0.11-0.45-0.23-0.9-0.34-1.24c21.87-2.83,78.11-9.03,108.39-2.67
				c7.05,22.64,14.44,50.27,19.9,81.77h0.11c0,0.23,0.11,0.57,0.11,0.91c0.23,1.59,0.57,3.19,0.8,4.78
				c1.94,11.5,3.53,23.34,4.78,35.74c0.11,0.23,0.11,0.45,0.11,0.68c1.02,10.13,1.82,20.49,2.39,31.08h8.65
				C589.55,1179.59,588.98,1168.09,588.18,1156.93z M442.46,1031.89c-2.03-6.22-3.85-11.98-5.77-17.3
				c23.32-2.96,78.94-8.84,108.11-2.14c0,0.01,0.01,0.02,0.01,0.03c1.82,4.89,3.64,10.23,5.57,15.92
				C517.15,1023,463.08,1029.16,442.46,1031.89z"/>
			<path class="st9" d="M718.31,1121.54c0,0,17.27,4.84,22.22,9.42c4.95,4.58,7.46,14.83,7.46,14.83l-33.52-8.83L718.31,1121.54z"/>
			<path class="st16" d="M718.02,1137.9c-16.58-2-53.06-16.6-66.58-33.29c-15.5-19.15-77.23-124.99-65.72-156.86
				c4.1-11.34,11.71-57.2,21.21-56.43c8.66,0.69,21.08,18.29,23.88,29.4c11.4,45.15,26.96,132.55,38.92,142.58
				c10.86,9.09,36.25,38.69,48.58,58.24c0,0.01,0.01,0.02,0.01,0.03C722.14,1130.11,720.35,1134.44,718.02,1137.9z"/>
		</g>
		<path class="st30" d="M160.85,1191.99c7.29,0.57,14.57,0.91,21.74,1.14c7.06,0.23,14,0.34,20.6,0.34c5.01,0,9.79,0,14.34-0.11
			c7.51-0.11,14.46-0.34,20.49-0.57c0-0.11,0-0.34,0.11-0.46c5.01,0,10.02-0.23,14.8-0.34H160.85z"/>
		<g>
			<path class="st27" d="M802.07,935.19l-0.11,1.14h-0.11l-1.59,10.47v0.11l-1.25,8.54l-5.35,34.72l-1.37,8.88l-3.07,19.92
				l-1.25,8.76l-25.04,163.46l-1.02,6.6h-42.8c-0.8-2.16-1.48-4.32-2.16-6.6c-6.15-20.26-10.25-41.21-8.88-58.97
				c0.57-6.94,2.5-15.25,5.46-24.59c7.29-22.77,20.6-51.23,34.72-78.43c1.71-3.07,3.3-6.15,4.89-9.11
				c3.98-7.4,7.85-14.57,11.61-21.4c0.91-1.59,1.82-3.19,2.73-4.67c0-0.11,0-0.23,0.11-0.34c0.8-1.37,1.48-2.62,2.28-3.87
				c14.68-26.07,27.21-46.56,30.96-52.7l0.11-0.11c0.11-0.11,0.11-0.11,0.11-0.23C801.73,935.75,802.07,935.19,802.07,935.19z"/>
			<path class="st8" d="M816.07,943.91l29.58,21.91l42.75-9c-0.59-3.9-3.41-20.06-5.98-34.69c-0.16-0.86-0.31-1.73-0.46-2.57
				c-2.2-12.45-4.1-23.15-4.1-23.15l-39.93-19.9l-14.89-7.42c0.04,0.26,1.15,13.82,1.31,15.8
				C827.14,920.03,816.07,943.91,816.07,943.91z"/>
			<path class="st4" d="M885.41,932.85c-0.94-0.39-58.16-17.28-64.38-15.23c-6.22,2.05-9.9,14.08-9.9,14.08l93.6,21.16
				C904.74,952.86,897.37,937.89,885.41,932.85z"/>
			<path class="st16" d="M940.83,1197.8H732.18c0.11-2.16,0.34-4.32,0.46-6.6c4.33-53.05,12.18-113.38,24.59-162.55
				c0.8-3.07,1.59-6.03,2.39-8.99c1.93-7.29,4.1-14.34,6.26-20.95c0.46-1.59,1.02-3.07,1.59-4.67c0-0.11,0-0.23,0.11-0.34
				c0.46-1.25,0.91-2.62,1.37-3.87c8.88-24.59,19.46-43.48,31.87-52.7l0.11-0.11c0.11-0.11,0.11-0.11,0.11-0.23
				c0.34-0.23,0.57-0.34,0.8-0.46h0.11c2.96-2.16,6.03-3.76,9.22-4.67c1.93-0.57,5.12-0.57,9.11-0.23
				c16.39,1.48,47.01,10.02,66.48,15.82c8.65,2.62,15.14,4.67,17.19,5.35c0.34,0.11,0.46,0.11,0.57,0.11s0.11,0,0.11,0
				c0.11,0.11,0.11,0.11,0.11,0.11s5.92,15.25,12.18,38.25c2.85,10.47,5.81,22.54,8.31,35.4c3.76,19.24,6.6,40.64,6.83,61.47
				c0.11,8.08,0.57,17.64,1.25,28.12c0.23,3.53,0.57,7.17,0.8,10.81c0.23,2.39,0.46,4.9,0.57,7.4c0.34,3.19,0.68,6.49,0.91,9.9
				c0.57,5.92,1.14,12.07,1.71,18.21c0.46,4.1,0.8,8.19,1.25,12.41c0.46,5.46,1.02,10.93,1.59,16.39
				C940.38,1193.36,940.61,1195.63,940.83,1197.8z"/>
			<path class="st27" d="M940.83,1197.8H884.6c-0.91-2.16-1.71-4.32-2.5-6.6c-15.48-43.94-14.91-93.12-11.38-127.83
				c2.62-27.09,7.06-45.31,7.06-45.31l47.47,8.42c3.76,19.24,6.6,40.64,6.83,61.47c0.11,8.08,0.57,17.64,1.25,28.12
				c0.23,3.53,0.57,7.17,0.8,10.81c0.23,2.39,0.46,4.9,0.57,7.4c0.34,3.19,0.68,6.49,0.91,9.9c0.57,5.92,1.14,12.07,1.71,18.21
				c0.46,4.1,0.8,8.19,1.25,12.41c0.46,5.46,1.02,10.93,1.59,16.39C940.38,1193.36,940.61,1195.63,940.83,1197.8z"/>
			<path class="st23" d="M827.35,885.5c8.77,16.78,41.45,31.29,55.07,36.62c-0.16-0.86-0.31-1.73-0.46-2.57
				c-2.2-12.45-4.1-23.15-4.1-23.15l-39.93-19.9C829.1,876.36,823.73,878.59,827.35,885.5z"/>
			<path class="st8" d="M890.73,897.31c0,0-59.11,18.44-70.03-18.55c-10.92-36.99-25.9-59.52,11.38-72.86
				c37.28-13.34,48.81-1.4,55.46,10.06C894.19,827.43,905.82,891.56,890.73,897.31z"/>
			<path class="st6" d="M885.22,812.4c0,0-3.77,43.04-12.67,41.17c-8.9-1.87-16.97-3.25-15.67,9.72s13.65,27.96-13.79,30.25
				c-27.43,2.29-66.87-68.45-59.33-81.85C805.5,773.05,916.65,765.25,885.22,812.4z"/>
			<path class="st16" d="M1009.93,1197.8h-96.42c-0.91-2.05-1.82-4.32-2.85-6.6c-13.43-33.01-28.69-86.28-39.95-127.83
				c-9.22-33.92-15.71-60.1-16.39-60.79c0,0,5.35-37.22,34.04-45.76c8.42-2.5,18.55,12.07,28.57,34.26
				c24.25,53.27,48.26,150.49,48.72,158.91c0.46,5.46,17.87,23.22,37.11,41.21C1005.15,1193.47,1007.54,1195.63,1009.93,1197.8z"/>
		</g>
		<path class="st6" d="M871.51,1191.19c-3.41-62.95-12.75-117.93-24.02-155.27c-16.62-55.21-31.53-86.85-31.76-87.2
			c-1.14-2.28-5.01-3.64-11.27-3.07c-1.82,0.11-3.19,0.57-4.21,1.14v0.11c-3.07,1.71-3.07,4.9-2.16,6.6c0,0.11,0.34,0.68,0.91,1.94
			c2.28,4.55,8.31,17.42,15.82,37.11l0,0c-39.06-6.74-103.43,0.34-129.77,3.76c0,0,0-0.01,0-0.01
			c-10.7-30.51-18.67-47.35-18.78-47.58c-1.14-2.28-5.01-3.64-11.38-3.07c-7.17,0.68-7.4,5.58-6.26,7.85
			c0.57,1.14,50.31,99.83,62.38,237.68c0.23,2.16,0.34,4.33,0.46,6.6h10.93c0-2.28-0.11-4.44-0.34-6.6
			c-1.59-30.05-4.67-58.28-8.54-83.55c-4.32-27.77-9.68-52.14-15.48-71.72c-0.11-0.57-0.34-1.14-0.45-1.59
			c26.35-3.41,94.13-10.89,130.67-3.23c0,0.01,0.01,0.03,0.01,0.04c13.09,41.21,26.64,96.42,32.21,160.05
			c0.23,2.16,0.34,4.33,0.46,6.6h11.04C871.85,1195.52,871.74,1193.36,871.51,1191.19z M694.94,1025.75
			c-2.38-7.48-4.65-14.4-6.92-20.87c28.13-3.56,95.13-10.65,130.31-2.59c0.01,0.02,0.01,0.04,0.02,0.06
			c2.27,5.91,4.54,12.38,6.81,19.19C785.09,1015.01,719.81,1022.46,694.94,1025.75z"/>
		<g>
			<g>
				<path class="st8" d="M227.24,1019.1c0,0,40.55,61.61,50.52,62.07c10.19,0.47,16.77-1.85,24.96,3.44
					c5.89,3.81,23.58,22.55,18.38,20.75c-5.2-1.8-14.69-4.37-17.21-4.96c-3.47-0.82-9.1-1.67-12.83-2.87
					c-2.36-0.75-11.07-2.21-13.97-2.7c-12.61-2.16-67.7-45.43-67.7-45.43L227.24,1019.1z"/>
				<path class="st30" d="M355.73,1114.13c-6.83-4.33-19.69-8.42-35.52-12.07c-14.12-3.3-30.62-6.26-47.7-8.88h-0.11
					c-15.14-2.39-30.73-4.55-45.31-6.38c-11.72-1.48-22.77-2.73-32.56-3.76c-3.98-0.45-7.74-0.8-11.16-1.25
					c-16.28-1.59-26.75-2.5-26.75-2.5l-33.69,7.63c0,0-0.68,1.37-1.59,3.87c-6.26,3.3-39.5,21.51-46.56,46.56v0.91
					c-1.37,4.44-1.82,8.42-1.14,13.32c0.34,2.16,0.91,4.44,1.71,6.83c0.57,1.59,1.25,3.19,2.16,4.89c1.71,3.3,4.21,6.15,7.4,8.65
					c0.11,0,0.11,0,0.11,0c5.92,5.01,14.23,8.76,24.02,11.72c13.2,3.99,29.14,6.38,45.65,7.86c2.05,0.23,4.1,0.34,6.15,0.45
					c7.29,0.57,14.57,0.91,21.74,1.14c7.06,0.23,14,0.34,20.6,0.34c5.01,0,9.79,0,14.34-0.11c7.51-0.11,14.46-0.34,20.49-0.57
					c0-0.11,0-0.34,0.11-0.46c5.01,0,10.02-0.23,14.8-0.34h65.34h21.97h52.48C379.98,1152.83,366.78,1121.07,355.73,1114.13z"/>
				<path class="st8" d="M76.23,893.5c0.06-0.08,0.13-0.15,0.2-0.24c1.22-1.38,2.68-2.64,4.3-3.76l0.06-0.04c0,0,0,0,0.01,0
					c12.59-8.79,35.08-10.68,35.08-10.68v0.01l0,0c0,0,0-0.01,0-0.01c0,0,2.46-0.23,6.35-0.41c2.95-7.65,6.31-18.97,7.35-35.49
					l2.23,0.6l37.49,10.06c0,0-1.66,11.9-2.44,23.16c-0.17,2.47-0.3,4.9-0.36,7.18c1.09,0.4,2.09,0.79,2.98,1.16c0,0,0,0,0,0l0,0
					c0,0,21.44,2.53,26.51,7.98c5.07,5.46,15.22,41.77,17.77,48.2l-144.36,2.36C69.42,943.57,65.79,905.85,76.23,893.5z"/>
				<path class="st37" d="M239.73,1027.15c-5.24-4.21-25.95-85.94-25.95-85.94c-2.5-6.38-5.24-41.66-17.76-48.15
					c0,0-9.68,3.53-22.54,7.06c-14.34,4.1-32.9,8.2-46.44,7.51c-25.5-1.37-45.53-17.76-46.22-18.21l-0.11,0.11l-4.44,3.99
					c-2.87,3.37-4.68,8.67-5.8,14.57c-14.24,27.24-37.57,77.87-30.97,106.21c6.49,27.89,31.42,38.13,45.99,41.66h0.11
					c0.52,0.13,1.03,0.25,1.52,0.36c-4.09,18.65-12.8,44.66-17.57,64.75c-4.1,17.19-5.35,29.94,1.37,30.62
					c17.07,1.59,74.67-33.12,93.91-44.51c0.34-0.11,0.57-0.34,0.91-0.57c7.97-4.67,19.24-6.83,29.94-8.65
					c13.66-2.16,26.3-3.76,30.39-8.54c4.89-5.81-9.33-12.29-20.83-18.9c-5.81-3.41-10.81-6.83-12.41-10.25
					c-1.25-2.73-1.14-8.65-0.34-16.16c0.11-1.37,0.34-2.85,0.57-4.44c0.91,1.94,2.05,3.98,3.41,5.92
					c3.41,5.12,7.85,10.13,12.18,14.34c5.46,5.12,10.93,8.99,14.23,9.79c2.28,0.57,4.55,0.34,6.83-0.57
					c6.03-2.39,11.72-8.99,16.39-15.25c1.02-1.59,2.05-3.07,2.96-4.44c3.19-4.78,5.46-8.77,6.26-9.68
					C257.82,1036.94,245.08,1031.37,239.73,1027.15z"/>
				<path class="st9" d="M169.31,853.53c0,0-1.66,11.9-2.44,23.16c-21.22-2.02-31.17-22.16-35.06-33.22L169.31,853.53z"/>
				<path class="st8" d="M185.3,860.33c0,0-49.57,9.24-54.85-21.72c-5.28-30.96-15.23-50.62,16.19-57.83
					c31.43-7.21,39.61,3.55,43.88,13.46C194.8,804.15,198.06,857.13,185.3,860.33z"/>
				<path class="st24" d="M184.74,769.25c0,0-2.05-25.99-39.43-19.24c-9.88,1.78-16.68-15.84-32.86-9.56
					c-34.84,13.52-36.89-4.33-46.95,20.73c-4.21,10.49-31.02,22.7-22.83,40.83c8.18,18.13-5.51,30.32,4.11,44.52
					c4.98,7.35,2.96,20.49,26.45,20.96c11.7,0.23,29.92,21.91,43.05,25.85c13.13,3.94,52.55-1.74,51.07-19.76
					c-1.16-14.05-12.99-26.27-2.92-42.43c8.8-14.12,27.76-14.99,36.15-37.82C206.73,776.59,184.26,783.22,184.74,769.25z"/>
				<path class="st38" d="M255.32,1039.79c-38.7-6.37-37.34-25.61-50.2-80.14c-7.4-31.3-21.29-49.63-31.65-59.53
					c12.86-3.53,22.54-7.06,22.54-7.06c12.52,6.49,15.25,41.78,17.76,48.15c0,0,20.72,81.73,25.95,85.94
					C245.08,1031.37,257.82,1036.94,255.32,1039.79z"/>
			</g>
		</g>
		<g>
			<path class="st6" d="M320.45,1183.68H68.99c-0.34-0.8-0.57-1.71-0.91-2.62v-0.11c1.14-1.48,3.3-3.3,7.4-5.35
				c8.54-4.21,25.84-8.88,60.79-11.38c9.11-0.68,19.46-1.14,31.08-1.48c8.31-0.23,16.28-0.34,23.68-0.34h8.31
				c17.19,0,31.87,0.57,44.51,1.36c2.73,0.23,5.35,0.34,7.85,0.57c22.65,1.82,37.79,4.67,48.04,7.74c0.8,0.23,1.71,0.46,2.39,0.68
				c2.39,0.8,4.44,1.48,6.26,2.28c0.91,0.34,1.71,0.8,2.5,1.14c2.62,1.14,4.55,2.39,5.92,3.42c0.46,0.34,0.8,0.57,1.02,0.91
				c0.23,0.11,0.46,0.34,0.68,0.57c0.23,0.23,0.46,0.34,0.57,0.57C320.22,1182.89,320.45,1183.68,320.45,1183.68z"/>
			<g>
				<path class="st30" d="M238.15,1191.54c0,0,0,0.23,0,0.45v0.34c-0.11,0.11-0.11,0.34-0.11,0.46c-6.03,0.23-12.98,0.46-20.49,0.57
					v-1.03c0-0.11,0.11-0.23,0.11-0.34v-0.45c0.11-1.71,0.34-2.62,0.46-2.85c0.91-1.25,7.17-1.25,11.04-1.14h2.62
					C234.05,1187.67,238.26,1189.49,238.15,1191.54z"/>
			</g>
			<g>
				<path class="st30" d="M308.04,1191.99h-20.49v-0.45c0-0.57,0.11-1.14,0.11-1.48c0.11-0.8,0.23-1.25,0.34-1.37
					c1.14-1.71,11.27-1.14,13.66-1.14h0.11c1.14,0,2.73,0.57,3.98,1.25c1.37,0.68,2.39,1.71,2.28,2.73
					C308.04,1191.54,308.04,1191.76,308.04,1191.99z"/>
			</g>
			<path class="st30" d="M325.8,1187.55c0,1.14-0.45,2.05-1.14,2.85c-0.46,0.46-1.03,0.8-1.71,0.91c-0.34,0.23-0.68,0.23-1.02,0.23
				H88.11c0-0.11,0-0.11,0-0.23H71.27c0,0-0.34-0.91-0.91-2.73c0-0.23-0.11-0.45-0.23-0.68c-0.23-1.14-0.68-2.5-1.14-4.21h252.94
				C323.98,1183.68,325.8,1185.39,325.8,1187.55z"/>
			<path class="st6" d="M128.94,1183.67h191.48c0,0-5.91-24.54-153.04-20.89c-11.69,0.3-22.02,0.78-31.17,1.43
				C136.68,1167.26,137.44,1177.24,128.94,1183.67z"/>
			<g>
				<path class="st30" d="M207.18,1187.55c0,1.14-0.45,2.05-1.25,2.85c-0.46,0.46-1.03,0.8-1.71,0.91
					c-0.34,0.23-0.68,0.23-1.02,0.23H88.11c0-0.11,0-0.11,0-0.23H71.27c0,0-0.34-0.91-0.91-2.73c0-0.23-0.11-0.45-0.23-0.68
					c-0.23-1.14-0.68-2.5-1.14-4.21H203.2C205.36,1183.68,207.18,1185.39,207.18,1187.55z"/>
				<g>
					<g>
						<path class="st6" d="M75.48,1175.6c0,2.62,0,5.35-0.11,8.08v0.8c0,1.37-0.91,2.62-2.28,3.19h-0.11
							c-0.34,0.11-0.8,0.23-1.25,0.34h-0.11c-0.11,0-0.23,0.11-0.34,0.11h-0.11c-0.34,0-0.68-0.11-1.02-0.23
							c-0.23-1.14-0.68-2.5-1.14-4.21c-0.34-0.8-0.57-1.71-0.91-2.62v-0.11c-0.23-1.02-0.57-2.16-0.91-3.41v-0.11
							c0-10.82-0.34-21.29-0.8-31.65c-0.8-15.71-2.28-30.96-4.21-45.42c-4.55-34.83-11.84-65.91-19.24-91.63
							c-4.33-14.57-8.65-27.55-12.52-38.59c-4.44-12.18-8.54-21.86-11.5-28.8c0-0.11-0.11-0.11-0.11-0.23
							c-0.34-2.28-0.57-4.67-0.8-6.94c0-0.34-0.11-0.57-0.11-0.91v-0.11c-0.46-3.41-0.8-6.71-1.14-10.24
							c0.46-0.23,1.02-0.34,1.71-0.34c5.24-0.46,8.54,0.68,9.45,2.5c0.11,0.11,6.72,14.23,15.6,39.5c0.8,2.28,1.59,4.56,2.5,7.06
							c1.71,5.35,3.64,11.16,5.58,17.42c0.8,2.28,1.48,4.67,2.16,7.06c0.23,0.34,0.34,0.8,0.46,1.25c1.14,3.64,2.16,7.4,3.07,11.38
							c3.41,12.52,6.37,26.98,8.99,42.8v0.34c3.3,19.92,5.81,42.23,7.51,66.02C74.91,1136.33,75.59,1155.68,75.48,1175.6z"/>
					</g>
					<g>
						<path class="st6" d="M195.18,1188.07c-0.02,0-0.04,0-0.06,0c-2.28-0.03-4.1-1.69-4.06-3.71
							c2.32-143.74-53.27-254.26-53.83-255.36c-0.94-1.84-0.76-5.95,5.23-6.47c5.24-0.46,8.49,0.68,9.43,2.52
							c0.14,0.28,12.54,26.58,26.31,72.29c12.7,42.15,22.33,111.16,21.11,187.12C199.27,1186.47,197.43,1188.07,195.18,1188.07z"/>
					</g>
					<g>
						<path class="st6" d="M34.52,973.14c-1.97,0-3.72-1.26-4.06-3.04c-0.38-1.99,1.12-3.88,3.37-4.22
							c3.57-0.54,87.87-13.13,125.61-2.63c2.17,0.6,3.38,2.66,2.7,4.58c-0.68,1.93-3,3-5.17,2.39
							c-35.84-9.97-120.9,2.73-121.75,2.86C34.98,973.12,34.75,973.14,34.52,973.14z"/>
					</g>
					<g>
						<path class="st6" d="M44.15,997.35c-1.97,0-3.72-1.26-4.06-3.04c-0.38-1.99,1.13-3.88,3.37-4.22
							c3.57-0.54,87.87-13.13,125.61-2.63c2.17,0.6,3.38,2.66,2.7,4.58c-0.68,1.92-3,3-5.17,2.39
							c-35.86-9.98-120.9,2.73-121.75,2.86C44.62,997.33,44.38,997.35,44.15,997.35z"/>
					</g>
				</g>
				<g>
					<path class="st30" d="M71.27,1191.31c0,0-0.34-0.91-0.91-2.73c0.23-0.23,0.46-0.34,0.8-0.45h0.11c0.11,0,0.23-0.11,0.34-0.11
						h0.11c0.46-0.11,0.91-0.23,1.25-0.34h0.11c0.34,0,0.57-0.11,0.91-0.11c2.28,0,12.41-0.57,13.66,1.14
						c0.11,0.23,0.23,1.02,0.46,2.62H71.27z"/>
				</g>
				<g>
					<path class="st30" d="M203.2,1193.47c-6.6,0-13.55-0.11-20.6-0.34c0-0.46,0-0.8-0.11-1.14v-0.45c0-0.57-0.11-1.02-0.11-1.48
						v-1.14c-0.11-2.05,4.1-3.87,6.37-3.98h2.39c2.28-0.11,5.58-0.11,8.08,0.11c1.59,0.23,2.85,0.45,3.19,1.02
						c0.23,0.34,0.45,2.16,0.68,5.46v0.34c0,0,0,0,0,0.11C203.08,1192.45,203.2,1192.9,203.2,1193.47z"/>
				</g>
			</g>
		</g>
		<path class="st39" d="M2354.75,1194.17v0.96c0,1.5-1.18,2.67-2.67,2.67H10.8c-1.5,0-2.67-1.17-2.67-2.67v-0.96
			c0-1.39,1.18-2.57,2.67-2.57h2341.28C2353.57,1191.6,2354.75,1192.78,2354.75,1194.17z"/>
		<g>
			<g>
				<path class="st40" d="M2048.31,1015.91c0,0-29.19-34.05-1.8-55.68c0,0,20.01-12.11,36.32-11.13c0,0-23.12,38.76-15.64,42.62
					c7.48,3.86,22.64-45.05,22.64-45.05s45.53-4.42,60.17,2.63c0,0-38.92,31.85-30.72,33.75c8.2,1.9,50.24-29.37,50.24-29.37
					s42.37,7.21,40.11,33.06c-2.26,25.85-16.86,33.83-23.28,33.14c-6.42-0.69-43.96-15.02-44.77-9.76
					c-0.82,5.26,21.78,22.44,37.6,23.25c0,0-29.87,32.95-49.73,23.44c-19.85-9.51-21.55-24.58-33.92-30.23
					c-12.38-5.65-22.94-5.64-17.83,0.13c5.11,5.77,27.51,11.37,34.59,23.89c7.08,12.52,13.43,20.96-7.11,17.87
					s-53.93-18.12-55.4-35.33C2048.31,1015.91,2048.31,1015.91,2048.31,1015.91z"/>
				<g>
					<path class="st40" d="M2188.81,987.43c0,0-115.09-4.44-140.5,28.48c0,0-5.62,16.83-22.92,32.16l-2.7,7.35
						c0,0,19.94-21.03,27.08-22.3C2049.77,1033.12,2038.61,992.35,2188.81,987.43z"/>
					<path class="st40" d="M2025.39,1048.07c0,0-24.7,18.27-26.42,50.91l4.48,0.4c0,0,7.89-33.75,22.15-46.95
						C2039.87,1039.24,2025.39,1048.07,2025.39,1048.07z"/>
				</g>
			</g>
			<g>
				<path class="st40" d="M1946.25,973.09c0,0,46.43-26,24.76-61.29c0,0-17.33-21.67-35.91-27.24c0,0,9.91,52.62,0,53.86
					c-9.91,1.24-6.81-59.43-6.81-59.43s-48.91-23.53-68.1-21.67c0,0,30.34,51.38,20.43,50.15c-9.91-1.24-43.96-53.24-43.96-53.24
					s-50.15-9.29-58.19,20.43c-8.05,29.72,4.95,44.57,12.38,46.43c7.43,1.86,55.1,1.24,53.86,7.43
					c-1.24,6.19-33.43,16.1-51.38,10.53c0,0,19.81,48.91,45.81,46.43c26-2.48,34.05-18.57,50.15-19.81
					c16.1-1.24,27.86,3.1,19.81,7.43c-8.05,4.33-35.29,1.42-48.29,12.47c-13,11.05-23.53,17.86,0.62,22.82
					c24.15,4.95,67.48,1.86,76.15-16.72C1946.25,973.09,1946.25,973.09,1946.25,973.09z"/>
				<g>
					<path class="st40" d="M1801.39,883.94c0,0,130.01,42.1,144.87,89.15c0,0-0.62,21.05,12.38,45.19v9.29
						c0,0-13.62-31.57-21.05-35.91C1937.59,991.66,1966.68,950.8,1801.39,883.94z"/>
					<path class="st40" d="M1958.63,1018.28c0,0,20.05,30.45,8.62,67.51l-5.16-1.39c0,0,5.01-40.82-5.48-61.35
						C1946.12,1002.52,1958.63,1018.28,1958.63,1018.28z"/>
				</g>
			</g>
			<g>
				<path class="st41" d="M2020.12,937.22c0,0-61.21-34.28-32.64-80.79c0,0,22.85-28.56,47.33-35.91c0,0-13.06,69.37,0,71
					c13.06,1.63,8.98-78.34,8.98-78.34s64.47-31.01,89.77-28.56c0,0-39.99,67.73-26.93,66.1c13.06-1.63,57.94-70.18,57.94-70.18
					s66.1-12.24,76.71,26.93c10.61,39.17-6.53,58.76-16.32,61.21c-9.79,2.45-72.63,1.63-71,9.79c1.63,8.16,44.07,21.22,67.73,13.87
					c0,0-26.11,64.47-60.39,61.21c-34.28-3.26-44.88-24.48-66.1-26.11c-21.22-1.63-36.72,4.08-26.11,9.79
					c10.61,5.71,46.52,1.87,63.65,16.44c17.14,14.57,31.01,23.55-0.82,30.08c-31.83,6.53-88.95,2.45-100.38-22.03
					C2020.12,937.22,2020.12,937.22,2020.12,937.22z"/>
				<g>
					<path class="st41" d="M2211.09,819.71c0,0-171.38,55.49-190.96,117.52c0,0,0.82,27.75-16.32,59.57v12.24
						c0,0,17.95-41.62,27.75-47.33C2031.55,961.71,1993.19,907.85,2211.09,819.71z"/>
					<path class="st41" d="M2003.8,996.8c0,0-26.43,40.13-11.36,88.99l6.8-1.83c0,0-6.6-53.81,7.23-80.87
						C2020.29,976.02,2003.8,996.8,2003.8,996.8z"/>
				</g>
			</g>
			<path class="st41" d="M2018.06,1191.73c66.21,0,119.89-53.68,119.89-119.89h-239.79
				C1898.17,1138.05,1951.85,1191.73,2018.06,1191.73z"/>
			<path class="st42" d="M2047.56,1190.81c-4.88,0.61-9.85,0.92-14.9,0.92c-66.21,0-119.89-53.68-119.89-119.89h29.79
				C1942.57,1133.01,1988.38,1183.48,2047.56,1190.81z"/>
			<rect x="1894.23" y="1071.84" class="st41" width="246.45" height="3.68"/>
		</g>
	</g>
	<g>
		<rect x="948.41" y="406.59" class="st43" width="176.87" height="226.91"/>
		<rect x="963.69" y="426.93" class="st20" width="118.51" height="5.4"/>
		<rect x="963.69" y="438.5" class="st20" width="148.2" height="3.59"/>
		<rect x="963.69" y="448.26" class="st20" width="148.2" height="3.59"/>
		<rect x="963.69" y="458.02" class="st20" width="148.2" height="3.59"/>
		<rect x="963.69" y="467.77" class="st20" width="148.2" height="3.59"/>
		<rect x="963.69" y="477.53" class="st20" width="148.2" height="3.59"/>
		<rect x="963.69" y="487.28" class="st20" width="148.2" height="3.59"/>
		<rect x="963.69" y="497.04" class="st20" width="148.2" height="3.59"/>
		<rect x="963.69" y="506.8" class="st20" width="148.2" height="3.59"/>
		<rect x="963.69" y="516.55" class="st20" width="148.2" height="3.59"/>
		<rect x="963.69" y="526.31" class="st20" width="148.2" height="3.59"/>
		<rect x="963.69" y="536.07" class="st20" width="148.2" height="3.59"/>
		<rect x="963.69" y="545.82" class="st20" width="148.2" height="3.59"/>
		<rect x="963.69" y="555.58" class="st20" width="148.2" height="3.59"/>
		<rect x="963.69" y="565.34" class="st20" width="148.2" height="3.59"/>
		<rect x="963.69" y="575.09" class="st20" width="148.2" height="3.59"/>
		<rect x="963.69" y="584.85" class="st20" width="148.2" height="3.59"/>
		<rect x="963.69" y="594.61" class="st20" width="148.2" height="3.59"/>
		<rect x="963.69" y="604.36" class="st20" width="148.2" height="3.59"/>
		<rect x="963.69" y="614.12" class="st20" width="148.2" height="3.59"/>
	</g>
</g>
</svg>
