<?xml version="1.0" encoding="utf-8"?>
<!-- Generator: Adobe Illustrator 25.2.1, SVG Export Plug-In . SVG Version: 6.00 Build 0)  -->
<svg version="1.1" id="_x2014_лой_x5F_1" xmlns="http://www.w3.org/2000/svg" xmlns:xlink="http://www.w3.org/1999/xlink"
	 x="0px" y="0px" viewBox="0 0 2618.6 1298.16" style="enable-background:new 0 0 2618.6 1298.16;" xml:space="preserve">
<style type="text/css">
	.st0{fill:#E5F1FA;}
	.st1{fill:#95C38B;}
	.st2{fill:#182842;}
	.st3{fill:#344670;}
	.st4{fill:#2A3967;}
	.st5{fill:#E4EDF9;}
	.st6{fill:#AFCDFB;}
	.st7{fill:#E9F3FE;}
	.st8{fill:#CAE0FF;}
	.st9{fill:#D2E3FC;}
	.st10{fill:#1C468A;}
	.st11{fill:#78ACEA;}
	.st12{fill:#06944B;}
	.st13{fill:#699DEE;}
	.st14{fill:#FFFFFF;}
	.st15{fill:#A8D29F;}
	.st16{fill:#F1A34F;}
	.st17{fill:#E49963;}
	.st18{fill:#4A75CB;}
	.st19{fill:#2B478B;}
	.st20{fill:#163560;}
	.st21{fill:#D68D5D;}
	.st22{fill:#233862;}
	.st23{fill:#1F3B68;}
	.st24{fill:#FFB27D;}
	.st25{fill:#E2915A;}
	.st26{fill:#8EA8CE;}
	.st27{fill:#E8F2F9;}
	.st28{fill:#2E3552;}
	.st29{fill:#007451;}
	.st30{fill:#F4A269;}
	.st31{fill:#C65447;}
	.st32{fill:#B5453C;}
	.st33{fill:#FAFDFF;}
	.st34{fill:#B7D5F9;}
	.st35{fill:#F99746;}
	.st36{fill:#ED7D2B;}
	.st37{fill:#FCA56B;}
	.st38{opacity:0.5;}
</style>
<g>
	<path class="st0" d="M133.3,1288.34l833.34-3.41l222.13-0.05l73.59-0.02l222.55-0.05l1016.76-0.22c0,0,232.56-235.12-15.85-458.43
		c-257.56-231.53-382.8-42.97-461.97-368.88c-199.29-820.35-2169.6-342.89-1652.8,355.2C557.12,1063.84,4.76,930.24,133.3,1288.34z"
		/>
	<path class="st1" d="M62.52,1236.29c-0.78,0.22-1.79,0.44-3.04,0.66C60.49,1236.71,61.49,1236.48,62.52,1236.29z"/>
	<g>
		<g>
			<path class="st2" d="M1061.74,670.34l-48.1,571.89c0,0-5.04,34.67,20.75,34.73c42.4,0.1,211.03,0,211.03,0
				s-31.91-7.22-31.52-23.45c0.46-19.14,56.22-588.58,56.22-588.58L1061.74,670.34z"/>
			<path class="st3" d="M1259.1,1266.59c-8.34,0.02-169.4,0.53-210.69,0c-17.99-0.22-21.15-16-21.3-26.21
				c-0.07-4.89,0.55-8.51,0.55-8.51l1.25-14.86l3.19-37.89l2.82-33.47l3.62-43.01l3.05-36.3l34.18-406.37l208.37-5.41
				c0,0-23.48,238.31-40.1,411.78c-1.85,19.33-3.62,37.86-5.25,55.16c-0.53,5.52-1.04,10.92-1.53,16.18
				c-1.54,16.41-2.95,31.48-4.17,44.79c-0.65,7.01-1.24,13.53-1.78,19.5c-2.12,23.39-3.36,38.33-3.38,41.17
				c-0.01,1.66,0.13,3.2,0.41,4.63C1231.74,1265.99,1255.97,1266.59,1259.1,1266.59z"/>
			<polygon class="st3" points="555.7,359.14 672.86,829.74 688.9,894.19 743.46,1113.38 1757.22,1113.38 1556.1,359.14 			"/>
			<polygon class="st2" points="555.7,359.14 539.46,364.55 721.88,1129.75 743.47,1113.38 			"/>
			<polygon class="st2" points="721.88,1129.75 1729.39,1129.75 1757.21,1113.38 743.47,1113.38 			"/>
			
				<rect x="1075.69" y="1266.82" transform="matrix(-1 -1.224647e-16 1.224647e-16 -1 2369.5156 2543.9973)" class="st2" width="218.14" height="10.37"/>
			<polygon class="st3" points="1708.1,974.4 1543.61,369.11 558.18,369.11 555.7,359.14 1556.09,359.14 1720.04,973.05 			"/>
			<polygon class="st2" points="1238.38,1129.75 1237.25,1137.67 1032.1,1179.12 1034.91,1145.64 1036.25,1129.75 			"/>
			<path class="st2" d="M1259.1,1266.59c-8.34,0.02-169.4,0.53-210.69,0c-17.99-0.22-21.15-16-21.3-26.21l204.18-38.42
				c-2.12,23.39-3.36,38.33-3.38,41.17c-0.01,1.66,0.13,3.2,0.41,4.63C1231.74,1265.99,1255.97,1266.59,1259.1,1266.59z"/>
			<polygon class="st4" points="1188.79,960.69 743.47,1113.38 688.9,894.19 			"/>
			<polygon class="st3" points="555.7,359.14 1556.09,359.14 1718.41,965.31 706.6,965.31 			"/>
		</g>
		<polygon class="st5" points="1671.23,939.04 734.55,939.04 628.48,516.47 620.35,484.06 613.41,456.42 597.14,391.61 
			1520.31,391.61 1538.18,456.42 1545.8,484.06 1554.73,516.47 		"/>
		<polygon class="st6" points="1538.18,456.42 613.41,456.42 597.14,391.61 1520.31,391.61 		"/>
		<g>
			<path class="st7" d="M635.33,420.9c-1.12-4.47,1.61-8.1,6.08-8.1c4.47,0,9.01,3.63,10.12,8.1c1.12,4.47-1.61,8.1-6.08,8.1
				C640.98,429,636.44,425.37,635.33,420.9z"/>
			<path class="st7" d="M662.25,420.9c-1.12-4.47,1.61-8.1,6.08-8.1c4.47,0,9.01,3.63,10.12,8.1c1.12,4.47-1.61,8.1-6.08,8.1
				C667.9,429,663.36,425.37,662.25,420.9z"/>
			<path class="st7" d="M691.24,420.9c-1.12-4.47,1.61-8.1,6.08-8.1c4.47,0,9.01,3.63,10.12,8.1c1.12,4.47-1.61,8.1-6.08,8.1
				C696.88,429,692.35,425.37,691.24,420.9z"/>
		</g>
		<polygon class="st8" points="1464.89,901.55 771.07,901.55 665.48,487.2 1349.51,487.2 		"/>
		<polygon class="st9" points="1554.62,583.61 1397.36,583.61 1368.61,487.2 1527.77,487.2 		"/>
		<polygon class="st10" points="1130.37,527.55 1040.4,527.55 1036.7,513.68 1126.67,513.68 		"/>
		<polygon class="st11" points="1289.9,527.55 1142.7,527.55 1139,513.68 1286.19,513.68 		"/>
		<polygon class="st11" points="1145.49,564.93 985.93,564.93 982.23,551.06 1141.79,551.06 		"/>
		<polygon class="st12" points="1242.56,564.93 1159.85,564.93 1156.15,551.06 1238.85,551.06 		"/>
		<polygon class="st13" points="1157.52,629.28 1067.55,629.28 1063.85,615.4 1153.82,615.4 		"/>
		<polygon class="st11" points="1317.05,629.28 1169.85,629.28 1166.15,615.4 1313.35,615.4 		"/>
		<polygon class="st14" points="1172.64,666.65 1013.08,666.65 1009.38,652.78 1168.94,652.78 		"/>
		<polygon class="st14" points="1269.71,666.65 1187,666.65 1183.3,652.78 1266,652.78 		"/>
		<polygon class="st10" points="1076.03,724.51 771.62,724.51 767.92,710.63 1072.33,710.63 		"/>
		<polygon class="st13" points="1185.46,724.51 1095.49,724.51 1091.79,710.63 1181.76,710.63 		"/>
		<polygon class="st11" points="1344.99,724.51 1197.79,724.51 1194.09,710.63 1341.28,710.63 		"/>
		<polygon class="st14" points="871.57,761.88 781.6,761.88 777.9,748.01 867.87,748.01 		"/>
		<polygon class="st12" points="1200.58,761.88 1041.02,761.88 1037.32,748.01 1196.88,748.01 		"/>
		<polygon class="st11" points="1031.1,761.88 883.9,761.88 880.2,748.01 1027.39,748.01 		"/>
		<polygon class="st11" points="1297.65,761.88 1214.94,761.88 1211.24,748.01 1293.94,748.01 		"/>
		<polygon class="st10" points="1110.59,827.69 806.18,827.69 802.48,813.82 1106.89,813.82 		"/>
		<polygon class="st13" points="1220.02,827.69 1130.05,827.69 1126.34,813.82 1216.32,813.82 		"/>
		<polygon class="st14" points="906.13,865.07 816.16,865.07 812.45,851.2 902.43,851.2 		"/>
		<polygon class="st12" points="1235.14,865.07 1075.58,865.07 1071.87,851.2 1231.44,851.2 		"/>
		<polygon class="st11" points="1065.65,865.07 918.46,865.07 914.76,851.2 1061.95,851.2 		"/>
		<polygon class="st11" points="1332.2,865.07 1249.5,865.07 1245.79,851.2 1328.5,851.2 		"/>
		<g>
			<polygon class="st11" points="1476.33,613.44 1407.13,613.65 1405.59,607.37 1474.8,607.15 			"/>
			<polygon class="st11" points="1512.83,613.32 1486.8,613.4 1485.27,607.12 1511.29,607.04 			"/>
			<polygon class="st11" points="1565.57,613.16 1519.58,613.3 1518.05,607.02 1564.04,606.88 			"/>
			<polygon class="st11" points="1448.94,629.42 1411,629.54 1409.47,623.26 1447.41,623.14 			"/>
			<polygon class="st11" points="1504.26,629.25 1455.26,629.41 1453.73,623.12 1502.73,622.97 			"/>
			<polygon class="st11" points="1569.44,629.05 1513.29,629.23 1511.76,622.94 1567.91,622.77 			"/>
		</g>
		<g>
			<polygon class="st11" points="1484.6,647.39 1415.4,647.6 1413.87,641.32 1483.07,641.11 			"/>
			<polygon class="st11" points="1521.1,647.28 1495.08,647.36 1493.55,641.07 1519.57,640.99 			"/>
			<polygon class="st11" points="1573.85,647.12 1527.86,647.26 1526.32,640.97 1572.31,640.83 			"/>
			<polygon class="st11" points="1457.22,663.38 1419.27,663.5 1417.74,657.21 1455.68,657.09 			"/>
			<polygon class="st11" points="1512.53,663.21 1463.54,663.36 1462.01,657.07 1511,656.92 			"/>
			<polygon class="st11" points="1577.72,663.01 1521.57,663.18 1520.04,656.9 1576.19,656.72 			"/>
		</g>
		<g>
			<polygon class="st14" points="1430.33,500.58 1388.66,500.71 1387.74,496.92 1429.41,496.8 			"/>
			<polygon class="st14" points="1452.31,500.51 1436.64,500.56 1435.72,496.78 1451.39,496.73 			"/>
			<polygon class="st14" points="1484.08,500.42 1456.38,500.5 1455.46,496.72 1483.15,496.63 			"/>
			<polygon class="st14" points="1413.84,510.21 1390.99,510.28 1390.07,506.49 1412.92,506.42 			"/>
			<polygon class="st14" points="1447.15,510.11 1417.65,510.2 1416.73,506.41 1446.23,506.32 			"/>
			<polygon class="st14" points="1486.41,509.99 1452.59,510.09 1451.67,506.3 1485.49,506.2 			"/>
		</g>
		<g>
			<polygon class="st14" points="1435.32,521.03 1393.65,521.16 1392.72,517.37 1434.4,517.24 			"/>
			<polygon class="st14" points="1457.3,520.96 1441.63,521.01 1440.7,517.22 1456.37,517.18 			"/>
			<polygon class="st14" points="1489.06,520.86 1461.36,520.95 1460.44,517.16 1488.14,517.08 			"/>
			<polygon class="st14" points="1418.82,530.66 1395.98,530.73 1395.06,526.94 1417.9,526.87 			"/>
			<polygon class="st14" points="1452.14,530.55 1422.63,530.64 1421.71,526.86 1451.22,526.77 			"/>
			<polygon class="st14" points="1491.39,530.43 1457.58,530.54 1456.66,526.75 1490.47,526.65 			"/>
		</g>
		<g>
			<polygon class="st11" points="1498.75,705.41 1429.54,705.62 1428.01,699.34 1497.21,699.12 			"/>
			<polygon class="st11" points="1535.24,705.29 1509.22,705.37 1507.69,699.09 1533.71,699.01 			"/>
			<polygon class="st11" points="1587.99,705.13 1542,705.27 1540.47,698.99 1586.46,698.85 			"/>
			<polygon class="st11" points="1471.36,721.39 1433.42,721.51 1431.88,715.23 1469.82,715.11 			"/>
			<polygon class="st11" points="1526.68,721.22 1477.68,721.38 1476.15,715.09 1525.14,714.94 			"/>
			<polygon class="st11" points="1591.86,721.02 1535.71,721.2 1534.18,714.91 1590.33,714.74 			"/>
		</g>
		<g>
			<polygon class="st11" points="1512.61,762.27 1443.4,762.48 1441.87,756.2 1511.07,755.98 			"/>
			<polygon class="st11" points="1549.1,762.15 1523.08,762.23 1521.55,755.95 1547.57,755.87 			"/>
			<polygon class="st11" points="1601.85,761.99 1555.86,762.13 1554.32,755.85 1600.32,755.71 			"/>
			<polygon class="st11" points="1485.22,778.26 1447.28,778.37 1445.74,772.09 1483.68,771.97 			"/>
			<polygon class="st11" points="1540.54,778.09 1491.54,778.24 1490.01,771.95 1539,771.8 			"/>
			<polygon class="st11" points="1605.72,777.88 1549.57,778.06 1548.04,771.77 1604.19,771.6 			"/>
		</g>
		<g>
			<polygon class="st11" points="1525.09,813.5 1455.89,813.71 1454.36,807.42 1523.56,807.21 			"/>
			<polygon class="st11" points="1561.59,813.38 1535.57,813.46 1534.04,807.18 1560.06,807.1 			"/>
			<polygon class="st11" points="1614.33,813.22 1568.34,813.36 1566.81,807.08 1612.8,806.94 			"/>
			<polygon class="st11" points="1497.7,829.48 1459.76,829.6 1458.23,823.32 1496.17,823.2 			"/>
			<polygon class="st11" points="1553.02,829.31 1504.03,829.46 1502.49,823.18 1551.49,823.03 			"/>
			<polygon class="st11" points="1618.21,829.11 1562.06,829.29 1560.52,823 1616.68,822.83 			"/>
		</g>
		<g>
			<g>
				<g>
					<path class="st15" d="M1557.7,889.69c-11.12,0-22.81-9.05-26.06-20.17c-3.25-11.12,3.16-20.17,14.28-20.17
						c11.12,0,22.81,9.05,26.06,20.17C1575.23,880.64,1568.82,889.69,1557.7,889.69z M1547,853.04c-9.09,0-14.33,7.4-11.67,16.49
						c2.65,9.09,12.21,16.49,21.3,16.49c9.09,0,14.33-7.39,11.67-16.49C1565.64,860.43,1556.09,853.04,1547,853.04z"/>
				</g>
				<g>
					<path class="st15" d="M1554.4,879.78c-0.77-0.06-1.57-0.39-2.26-0.94l-11.32-9.06c-1.53-1.22-2.05-3.17-1.17-4.34
						c0.88-1.17,2.84-1.13,4.37,0.1l8,6.4l4.1-9.48c0.59-1.37,2.42-1.68,4.09-0.69c1.66,1,2.53,2.91,1.94,4.29l-5.39,12.46
						c-0.32,0.74-1.02,1.2-1.91,1.26C1554.69,879.79,1554.54,879.79,1554.4,879.78z"/>
				</g>
			</g>
			<g>
				<g>
					<path class="st16" d="M1613.37,889.69c-11.12,0-22.81-9.05-26.06-20.17c-3.25-11.12,3.16-20.17,14.28-20.17
						c11.12,0,22.81,9.05,26.06,20.17C1630.9,880.64,1624.49,889.69,1613.37,889.69z M1602.67,853.04c-9.09,0-14.33,7.4-11.67,16.49
						c2.65,9.09,12.21,16.49,21.3,16.49c9.09,0,14.33-7.39,11.67-16.49C1621.32,860.43,1611.76,853.04,1602.67,853.04z"/>
				</g>
				<g>
					<path class="st16" d="M1608.45,872.82L1608.45,872.82c-1.57,0-3.23-1.28-3.69-2.85l-2.5-8.57c-0.46-1.57,0.45-2.85,2.02-2.85
						l0,0c1.57,0,3.23,1.28,3.69,2.85l2.5,8.57C1610.93,871.54,1610.02,872.82,1608.45,872.82z"/>
					<path class="st16" d="M1610.72,879.55h-0.62c-1.4,0-2.88-1.14-3.29-2.54l0,0c-0.41-1.4,0.4-2.54,1.8-2.54h0.62
						c1.4,0,2.88,1.14,3.29,2.54l0,0C1612.93,878.4,1612.12,879.55,1610.72,879.55z"/>
				</g>
			</g>
		</g>
		<g>
			<g>
				<g>
					<path class="st15" d="M1495.65,574.32c-6.1,0-12.51-4.96-14.29-11.06c-1.78-6.1,1.73-11.06,7.83-11.06
						c6.1,0,12.51,4.96,14.29,11.06C1505.26,569.36,1501.75,574.32,1495.65,574.32z M1489.79,554.23c-4.98,0-7.86,4.05-6.4,9.04
						c1.46,4.98,6.69,9.04,11.68,9.04c4.98,0,7.85-4.05,6.4-9.04C1500.01,558.28,1494.77,554.23,1489.79,554.23z"/>
				</g>
				<g>
					<path class="st15" d="M1493.84,568.89c-0.42-0.03-0.86-0.21-1.24-0.51l-6.2-4.97c-0.84-0.67-1.13-1.74-0.64-2.38
						c0.48-0.64,1.56-0.62,2.39,0.05l4.38,3.51l2.25-5.2c0.33-0.75,1.33-0.92,2.24-0.38c0.91,0.55,1.39,1.6,1.06,2.35l-2.95,6.83
						c-0.17,0.4-0.56,0.66-1.05,0.69C1494.01,568.9,1493.93,568.9,1493.84,568.89z"/>
				</g>
			</g>
			<g>
				<g>
					<path class="st15" d="M1464.01,574.32c-6.1,0-12.51-4.96-14.29-11.06c-1.78-6.1,1.73-11.06,7.83-11.06s12.51,4.96,14.29,11.06
						C1473.62,569.36,1470.11,574.32,1464.01,574.32z M1458.15,554.23c-4.98,0-7.86,4.05-6.4,9.04c1.46,4.98,6.69,9.04,11.68,9.04
						c4.98,0,7.86-4.05,6.4-9.04C1468.37,558.28,1463.13,554.23,1458.15,554.23z"/>
				</g>
				<g>
					<path class="st15" d="M1462.2,568.89c-0.42-0.03-0.86-0.21-1.24-0.51l-6.2-4.97c-0.84-0.67-1.13-1.74-0.64-2.38
						c0.48-0.64,1.55-0.62,2.39,0.05l4.38,3.51l2.25-5.2c0.33-0.75,1.33-0.92,2.24-0.38c0.91,0.55,1.39,1.6,1.06,2.35l-2.96,6.83
						c-0.17,0.4-0.56,0.66-1.05,0.69C1462.37,568.9,1462.28,568.9,1462.2,568.89z"/>
				</g>
			</g>
			<g>
				<g>
					<path class="st15" d="M1431.24,574.32c-6.1,0-12.51-4.96-14.29-11.06c-1.78-6.1,1.73-11.06,7.83-11.06s12.51,4.96,14.29,11.06
						C1440.85,569.36,1437.34,574.32,1431.24,574.32z M1425.37,554.23c-4.98,0-7.86,4.05-6.4,9.04c1.46,4.98,6.69,9.04,11.68,9.04
						c4.98,0,7.86-4.05,6.4-9.04C1435.59,558.28,1430.36,554.23,1425.37,554.23z"/>
				</g>
				<g>
					<path class="st15" d="M1429.43,568.89c-0.42-0.03-0.86-0.21-1.24-0.51l-6.2-4.97c-0.84-0.67-1.13-1.74-0.64-2.38
						c0.48-0.64,1.56-0.62,2.39,0.05l4.38,3.51l2.25-5.2c0.33-0.75,1.33-0.92,2.24-0.38c0.91,0.55,1.39,1.6,1.06,2.35l-2.96,6.83
						c-0.17,0.4-0.56,0.66-1.05,0.69C1429.59,568.9,1429.51,568.9,1429.43,568.89z"/>
				</g>
			</g>
			<g>
				<g>
					<path class="st16" d="M1526.18,574.32c-6.1,0-12.51-4.96-14.29-11.06c-1.78-6.1,1.73-11.06,7.83-11.06
						c6.1,0,12.51,4.96,14.29,11.06C1535.79,569.36,1532.28,574.32,1526.18,574.32z M1520.31,554.23c-4.98,0-7.86,4.05-6.4,9.04
						c1.46,4.98,6.69,9.04,11.68,9.04c4.98,0,7.85-4.05,6.4-9.04C1530.54,558.28,1525.3,554.23,1520.31,554.23z"/>
				</g>
				<g>
					<path class="st16" d="M1523.48,565.07L1523.48,565.07c-0.86,0-1.77-0.7-2.02-1.56l-1.37-4.7c-0.25-0.86,0.25-1.56,1.11-1.56
						l0,0c0.86,0,1.77,0.7,2.02,1.56l1.37,4.7C1524.84,564.37,1524.34,565.07,1523.48,565.07z"/>
					<path class="st16" d="M1524.73,568.76h-0.34c-0.77,0-1.58-0.63-1.8-1.4l0,0c-0.22-0.77,0.22-1.4,0.99-1.4h0.34
						c0.77,0,1.58,0.63,1.8,1.4l0,0C1525.94,568.13,1525.49,568.76,1524.73,568.76z"/>
				</g>
			</g>
		</g>
	</g>
	<g>
		<g>
			<path class="st17" d="M461.15,880.65c0,0,16.67,4.28,27.27,1.09c10.6-3.19,28.83,2.05,31.77,5.91c2.94,3.86,1.86,5.4-3.38,6.73
				c-5.24,1.33-23.81,9.25-36.01,4.67c-12.2-4.58-28.12-4.75-28.12-4.75L461.15,880.65z"/>
			<path class="st18" d="M317.09,735.84c0,0,18.73,133.09,49.73,145.01c15.3,5.88,82.92,19.22,102.92,20.56c0,0,4.9-3.98,3.71-20.16
				c0,0-70.84-26.01-80.91-40.15c-14.98-21.05,9.3-86-9.5-105.77C364.25,715.56,332.59,707.07,317.09,735.84z"/>
		</g>
		<path class="st19" d="M327.9,1263.54h9.04c4.64,0,8.43-3.79,8.43-8.43v-209.79c0-4.64-3.79-8.43-8.43-8.43h-9.04
			c-4.64,0-8.43,3.79-8.43,8.43v209.79C319.48,1259.75,323.27,1263.54,327.9,1263.54z"/>
		<path class="st19" d="M252.51,1278.44c8.38-17.34,40.98-30.27,79.92-30.27s71.54,12.93,79.92,30.27H252.51z"/>
		<path class="st19" d="M273.79,1219.64h117.27c1.23,0,2.24-1.01,2.24-2.24v-4.65c0-1.23-1.01-2.24-2.24-2.24H273.79
			c-1.23,0-2.24,1.01-2.24,2.24v4.65C271.55,1218.63,272.56,1219.64,273.79,1219.64z"/>
		<path class="st20" d="M323.4,1016.24c5.46,9.27,11.78,17.95,18.29,26.17c20.13,25.41,42.04,46.36,45.85,66.16
			c0.76,3.95,1.96,8.2,3.54,12.67c1.59,4.54,3.56,9.31,5.84,14.24c8.54,18.55,21.31,39.34,34.06,58.24
			c22.05,32.67,42.77,59.92,42.77,59.92l38.02-1.62c-1.52-3.81-18.1-48.91-40.28-104.03c-9.01-22.38-18.58-46.18-27.82-69.13
			c-1.23-3.07-2.46-6.12-3.68-9.14c-2.83-7.02-5.6-13.94-8.32-20.67c-20.83-51.75-37.42-92.97-37.42-92.97s-83.24-31.53-91.89-11.1
			C295.23,961.83,301.04,978.34,323.4,1016.24z"/>
		<path class="st20" d="M474.94,1246.73c0,0,1.94,31.37,8.01,31.82c0.81,0.06,30.78,0.06,30.78,0.06l38.26-0.22
			c0,0-0.25-9.22-11.43-11.17c-11.19-1.95-29.91-9.81-36.68-24.59C496.76,1227.08,474.94,1246.73,474.94,1246.73z"/>
		<path class="st20" d="M386.92,1157.12c0,0-26.44,16.99-23.88,22.51c0.34,0.73,14.95,26.91,14.95,26.91l18.85,33.3
			c0,0,7.93-4.71,4.18-15.43c-3.75-10.72-6.01-30.89,3.59-44.02C414.71,1166.58,386.92,1157.12,386.92,1157.12z"/>
		<path class="st10" d="M424.15,942.05c0,0,103.03,64.15,114.69,107.88c11.66,43.74-138.99,137.04-138.99,137.04
			s-16.52-14.58-19.44-25.27c0,0,68.1-81.58,82.87-99.87c9.07-11.23-134.13-38.88-151.63-66.09c-17.5-27.21-11.23-50.11-11.23-50.11
			L424.15,942.05z"/>
		<path class="st12" d="M225.51,1083.01h213.84c4.28,0,7.78-3.5,7.78-7.78v-42.77c0-4.28-3.5-7.78-7.78-7.78H225.51
			c-4.28,0-7.78,3.5-7.78,7.78v42.77C217.73,1079.51,221.23,1083.01,225.51,1083.01z"/>
		<path class="st17" d="M374.38,713.03c10.26,6.36,15.92,14.42,15.92,14.42c-25.03,6.47-66.53-16.72-66.53-16.72
			s16.11-10.83,22.08-34.61c0.3-1.2,0.58-2.43,0.82-3.69c0.78-4.01,1.27-8.34,1.36-13.02l11.5,10.3l19.12,17.13
			c0,0-0.43,7.11-2.83,19.33C375.4,708.3,374.92,710.59,374.38,713.03z"/>
		<path class="st10" d="M297.26,831.21c3.58,48.22-1.13,121.56,2.94,134.26c3.51,10.96,43.51,4.44,59.47,0.79
			c5.91-1.35,13.07-3.29,20.46-5.58c20.62-6.38,43.09-15.5,45.5-22.27c0.09-0.27,0.17-0.52,0.22-0.78c0.22-0.98,0.17-1.9-0.04-2.84
			c-0.8-3.45-3.9-7.18-4.26-15.72c-0.41-9.54-0.35-20.77-0.7-32.84c-0.02-1.36-0.04-2.84-0.19-4.2l-0.01-0.5
			c-0.01-0.26-0.01-0.51-0.02-0.77c-0.35-13.47-1.05-27.63-1.87-41.67c-0.52-8.82-1.12-17.55-1.81-25.92
			c-1.8-21.6-4.22-40.81-7.43-52.96c-5.24-19.8-16.8-32.71-27.32-42.17l-7.61-6.53c-8.49,1.85-18.53,0.62-27.61-3.68
			c-9.83-4.67-13.22-8.01-14.93-6.75C309.35,718.6,293.03,772.26,297.26,831.21z"/>
		<path class="st20" d="M380.13,960.68c20.62-6.38,43.09-15.5,45.5-22.27c0.09-0.27,0.17-0.52,0.22-0.78
			c-0.01-0.95-0.02-1.89-0.04-2.84c-0.8-3.45-3.9-7.18-4.26-15.72c-0.41-9.54-0.35-20.77-0.7-32.84c-0.02-1.36-0.04-2.84-0.19-4.2
			l-0.01-0.5c-0.01-0.26-0.01-0.51-0.02-0.77l-77.88-35.32C342.74,845.44,338.25,908.22,380.13,960.68z"/>
		<path class="st21" d="M378.64,686.83c0,0-0.43,7.11-2.83,19.33c-18.67-6.03-27.14-22.9-29.97-30.05c-0.8-2.02-1.15-3.27-1.15-3.27
			s0.72-0.16,1.97-0.42c2.62-0.56,7.57-1.61,12.85-2.72L378.64,686.83z"/>
		<path class="st17" d="M386.2,686.65c0,0-41.02,4.63-43.51-20.96c-2.49-25.59-9.46-42.23,16.63-46.26
			c26.08-4.04,32.13,5.23,35.04,13.57C397.27,641.33,396.81,684.78,386.2,686.65z"/>
		<path class="st2" d="M342.87,667.45c0,0,2.6-33.97,39.94-37.48c25.58-2.41,11.32-24.42,8.59-27.93c0,0-19.59,2.69-39.68,6
			C309.57,615,338.73,662.16,342.87,667.45z"/>
		<g>
			
				<rect x="556.6" y="818.15" transform="matrix(-0.9511 -0.3089 0.3089 -0.9511 821.6938 1865.2351)" class="st18" width="3.78" height="98.86"/>
			
				<rect x="441.35" y="907.85" transform="matrix(-0.9998 -0.0214 0.0214 -0.9998 966.883 1832.2379)" class="st18" width="103.74" height="6.21"/>
		</g>
		<g>
			<path class="st17" d="M452.57,901.11c0,0,16.1,6.09,26.98,4.09c10.88-2,28.43,5.22,30.93,9.38c2.49,4.16,1.25,5.57-4.1,6.32
				c-5.36,0.75-24.68,6.57-36.31,0.67c-11.62-5.9-27.42-7.82-27.42-7.82L452.57,901.11z"/>
			<path class="st10" d="M325.35,741.3c0,0,3.94,134.35,33.44,149.61c14.56,7.53,80.29,28.24,100.03,31.78c0,0,5.31-3.41,5.91-19.62
				c0,0-67.54-33.66-75.99-48.83c-12.57-22.57,18.72-84.45,2.22-106.17C374.46,726.35,343.93,714.41,325.35,741.3z"/>
		</g>
	</g>
	<g>
		<path class="st22" d="M1446.27,1274.29c0,0,1.51-11.73,4.99-18.71c3.49-6.98,25.69-2.54,25.69-2.54s4.44,3.81,5.39,21.57
			L1446.27,1274.29z"/>
		<path class="st22" d="M1370.64,1274.13c5.22-3.18,2.25-26.94,2.25-26.94s-24.31-19.44-27.65-4.56
			c-3.34,14.89-23.09,21.57-34.33,23.39c-7.76,1.26-10.16,5.56-10.91,8.1H1370.64z"/>
		<path class="st23" d="M1420.98,1101.38c-0.99,5.45-1.62,9.92-1.78,13.13c-2.26,44.07-37.1,144.84-43.33,147.19
			c-9.64,3.64-24.83-4.09-32.77-6.63c-3.29-1.05-5.51-4.37-4.78-7.74c17.25-79.32,23.59-193.53,25.9-261.15
			c1.17-34.06,7.01-57.59,7.01-57.59s84.97-22.67,85.48,6.01C1457.15,959.98,1428.56,1059.51,1420.98,1101.38z"/>
		<path class="st2" d="M1420.98,1101.38l-56.76-115.19c1.17-34.06,7.01-57.59,7.01-57.59s84.97-22.67,85.48,6.01
			C1457.15,959.98,1428.56,1059.51,1420.98,1101.38z"/>
		<path class="st23" d="M1402.08,934.71l44.92,325.57c0,0,19.73,4.76,35.07,0.95c0,0,13.15-173.15,12.06-215.01
			c-1.1-41.86,9.44-112.01-2.4-119.75C1479.87,918.73,1402.08,934.71,1402.08,934.71z"/>
		<path class="st14" d="M1494.87,851.12l5.6,78.16c0.22,2.94-1.67,5.62-4.5,6.44c-6.27,1.82-13.49,3.08-27.42,5.97
			c-13.09,2.72-30.69,5.12-52.33,5.26c-34.41,0.22-47.44-11.64-47.44-11.64c-1.48,0.03,0.78-7.17,2.82-41.41
			c0.69-11.6,1.36-26.3,1.84-44.88c0.43-16.72,0.73-36.58,0.75-60.15c0.04-28.35,43.91-58.84,44.72-58.84l0.01,0.01
			c0,4.08,6.43,11.61,16.34,12.26c11.76,0.77,26.19-5.08,26.19-11.86c0-0.07,21.26,34.01,28.81,70.31c0.96,4.6,1.7,9.46,2.29,14.57
			c0.01,0.08,0.02,0.16,0.03,0.23c0.11,0.93,0.21,1.87,0.31,2.82c0.02,0.17,0.03,0.33,0.05,0.5c0.09,0.86,0.17,1.73,0.25,2.6
			c0.02,0.25,0.04,0.5,0.06,0.75c0.07,0.8,0.14,1.6,0.21,2.41c0,0.07,0.01,0.15,0.02,0.22c0.05,0.6,0.09,1.2,0.14,1.81
			c0.03,0.43,0.06,0.86,0.1,1.29c0.05,0.71,0.1,1.41,0.15,2.13c0.02,0.36,0.05,0.71,0.07,1.08c0.04,0.68,0.08,1.36,0.12,2.05
			c0.02,0.3,0.04,0.61,0.05,0.91c0.05,0.99,0.11,1.99,0.16,2.99c0,0.08,0.01,0.16,0.01,0.24c0.05,0.96,0.1,1.94,0.14,2.92
			c0.01,0.24,0.02,0.48,0.03,0.72c0.05,0.92,0.09,1.84,0.12,2.78c0,0.14,0.01,0.28,0.02,0.41
			C1494.7,846.46,1494.79,848.78,1494.87,851.12c0,0.06,0,0.12,0.01,0.18L1494.87,851.12z"/>
		<path class="st14" d="M1418.93,730.03c0,0-40.8-0.35-50.62,13.42c-9.82,13.77-31.35,87.85-20.11,112.5
			c11.23,24.65,32.26-10.2,43.92-25.3C1403.79,815.56,1418.93,730.03,1418.93,730.03z"/>
		<path class="st24" d="M1418.51,723.8l0.02,4.22c0,0-1.15,13.19,15.09,15.12c16.24,1.93,28.55-5.14,28.11-15.32
			c-1.46-7.88-3.07-13.29-3.18-19.81c-0.04-2.42,0.13-4.99,0.58-7.9l-31.47-0.63l-9.27,1.51L1418.51,723.8z"/>
		<path class="st25" d="M1418.39,700.99l0.12,22.81c3.34,1.55,7.12,2.5,11.34,2.5c14.46,0,23.81-10.61,28.7-18.31
			c-0.04-2.42,0.13-4.99,0.58-7.9l-31.47-0.63L1418.39,700.99z"/>
		<path class="st24" d="M1461.54,695.04c-3.65,19.65-29.01,19.01-39.97,17.77c-3.08-0.34-5.02-0.74-5.02-0.74
			c-3.48-0.93-5.42-6.41-6.32-13.58c-1.79-14.2,0.47-35.04,2.87-40.37c3.61-8.02,10.41-16.7,35.95-10.44
			C1474.59,653.95,1466.23,669.86,1461.54,695.04z"/>
		<path class="st26" d="M1377.21,785.24c0,0-15.78,34.85-15.32,45.29c0,0,7.81-0.27,15.32,1.97
			C1389.54,836.18,1377.21,785.24,1377.21,785.24z"/>
		<path class="st22" d="M1405.27,639.41c0,0,11.24-0.86,24.5-6.63c10.76-4.68,24.34,0.47,28.74,2.8c-0.12-0.71-0.4-1.68-1.08-2.65
			c0,0,1.98,1.4,2.27,3.36c0.2,0.15,0.29,0.25,0.24,0.29c0,0,2.24-0.41,3.68,0.24c0,0-1.01-0.14-1.37,0.5
			c-0.04,0.07-0.09,0.13-0.16,0.18c16.79,8.11,18.33,34.64,12.93,40.78c-6.5,7.39-14.29,24.02-14.29,24.02s-2.84-3.93-1.66-10.43
			c1.18-6.5-4.43-6.5-11.52-9.45c-7.09-2.95-1.18-11.23-7.39-16.25c-6.2-5.02-28.95-2.07-28.65-5.91
			C1403.08,657.18,1405.27,640.28,1405.27,639.41z"/>
		<path class="st26" d="M1466.69,850.51c-6.66,26.75-78.7,40.57-95.08,43.38c0.69-11.6,1.36-26.3,1.84-44.88L1466.69,850.51z"/>
		<path class="st24" d="M1450.87,859.21c0.69,0,16.01-2.29,18.76-3.66c2.75-1.37,15.3-19.22,7.08-23.79
			c-8.22-4.58-30.3,13.73-30.3,13.73L1450.87,859.21z"/>
		<path class="st27" d="M1352.94,864.46c0,0,62.1,3.5,103.77-5.77c0,0,1.05-12.51-12.05-18.06c0,0-64.95-14.3-80.55-10.32
			C1348.51,834.29,1352.94,864.46,1352.94,864.46z"/>
		<path class="st14" d="M1493.79,817.99c-12.3,14.83-28.39,26.95-46.12,29.78l0,0c-0.15-0.22-5.37-8.15-4.39-19.8
			c0.45-5.39,2.23-11.58,6.46-18.17c1.3-2.03,2.46-4.4,3.49-7.03c9.68-24.7,8.24-72.32,8.24-72.32s41.12,4.31,53.93,22.61
			C1523.24,764.26,1513.23,794.53,1493.79,817.99z"/>
		<path class="st25" d="M1421.58,712.81c-3.08-0.34-5.02-0.74-5.02-0.74c-3.48-0.93-5.42-6.41-6.32-13.58
			c6.52,1.61,9.51,6.64,10.75,8.79C1421.55,708.24,1421.66,710.41,1421.58,712.81z"/>
		<path class="st24" d="M1405.01,723.92c0,0-14.2-23.43-3.16-24.45c11.04-1.02,15.48,6.45,17.07,9.2
			c1.59,2.75-0.42,15.13-0.42,15.13L1405.01,723.92z"/>
		<path class="st14" d="M1459.13,827.18c-0.43,2.97-1.32,5.7-2.42,8.14c-3.47,7.7-9.04,12.45-9.04,12.45l0,0
			c-36.88-16.65-44.34-73.81-45.59-105.22c-0.5-12.62,0-21.09,0-21.09c16.64-5.51,21.31,4.06,21.31,4.06s19.64,46.71,29.83,77.24
			C1457.12,814.44,1459.63,823.76,1459.13,827.18z"/>
		<path class="st26" d="M1493.79,817.99c-12.3,14.83-28.39,26.95-46.12,29.78l0,0c-36.88-16.65-44.34-73.81-45.59-105.22
			c0,0,17.45,63.29,41.2,85.42c4.29,4,8.79,6.66,13.43,7.35c0,0,29.95-8.46,36.23-16.44
			C1493.39,818.31,1493.67,818.02,1493.79,817.99z"/>
	</g>
	<path class="st28" d="M2575.56,1280.28H34.48c-1.59,0-2.89-1.3-2.89-2.89v-0.98c0-1.59,1.3-2.89,2.89-2.89h2541.08
		c1.59,0,2.89,1.3,2.89,2.89v0.98C2578.44,1278.98,2577.15,1280.28,2575.56,1280.28z"/>
	<g>
		<path class="st12" d="M2101.93,1220.7c7.19,26.88,60.33,42.7,118.46,51.98h216.91c52.28-25.6,52.21-56.13,56.41-140.43
			c8.66-174.12-82.93-258.18-123.78-244.31c-1.7,0.58-3.43,1.2-5.19,1.92c-11.87,4.77-25.16,13.21-38.1,33.28
			c0,0-40.6,67.66-74.01,108.02c-10.76,12.99-20.77,23.17-28.43,27.33c-0.09,0.05-0.17,0.1-0.27,0.14c-0.41,0.22-0.8,0.41-1.2,0.59
			c-17.7,8.1-42.65,25.09-65.44,46.52c0,0,0,0-0.01,0C2121.94,1138.96,2091.8,1182.81,2101.93,1220.7z"/>
		<path class="st29" d="M2157.29,1105.74c30.41,9.34,186.94,54.53,223.78,6.62c26.67-34.7,10.07-123.59-4.67-181.1
			c-6.04-23.57-36.18-28.93-49.37-8.71c-0.13,0.2-0.26,0.4-0.39,0.6c0,0-40.6,67.66-74.01,108.02
			c-9.67,12.75-19.2,22.58-28.43,27.33c-0.09,0.05-0.17,0.1-0.27,0.14c-0.4,0.22-0.8,0.41-1.2,0.59
			C2205.03,1067.33,2180.07,1084.31,2157.29,1105.74z"/>
		<g>
			<path class="st30" d="M2273.72,886.08c0,0-10.85,16.05-17.03,49.79c-5.42,29.55-10.17,40.46-17.99,46.52
				c-7.82,6.06-51.42,23.95-51.42,23.95l3.26,7.64c0,0,63.9-8.7,71.08-19.38c7.18-10.68,34.54-73.78,32.42-88.31
				C2291.9,891.77,2273.72,886.08,2273.72,886.08z"/>
			<g>
				<path class="st24" d="M2117.25,1238.58c0.58,6.23-8.1,7.75-18.15,8.25c-10.05,0.5-7.01,2.56-20.78,5.05
					c-13.77,2.49-19.29-1.27-20.29-3.13c-0.89-1.65,5.51-4.23,12.34-7.15c0.86-0.36,1.72-0.74,2.58-1.12
					c7.68-3.38,11.99-10.26,17.97-16.65c5.67-6.05,11.05-25.41,11.05-25.41l18.71-4c0,0-5.25,17.43-7.08,24.87
					c-1.07,4.38,0.51,9.27,1.92,12.99C2116.28,1234.31,2117.05,1236.38,2117.25,1238.58z"/>
				<path class="st31" d="M2099.1,1246.82c-10.05,0.5-7.01,2.56-20.78,5.05c-13.77,2.49-19.29-1.27-20.29-3.13
					c-0.89-1.65,5.51-4.23,12.34-7.15l0.11,0.12c0,0,9.68,3.29,20.86,0.25c9.11-2.47,17.92-7.92,24.19-9.68
					c0.76,2.03,1.52,4.1,1.72,6.3C2117.82,1244.81,2109.15,1246.32,2099.1,1246.82z"/>
			</g>
			<path class="st20" d="M2303.59,1016.67c0,0-124.35-9.36-147.76,5.42c-23.41,14.77-60.95,186.87-60.95,186.87s2.32,1.86,7.49,2.42
				c4.81,0.52,15.41-2.31,15.41-2.31s53.96-77,57.76-96.4c3.8-19.4,2.87-36.71,11.53-37.17c8.65-0.46,116.54,13.12,132.86-15.63
				c16.32-28.75,2.83-57.21,2.83-57.21L2303.59,1016.67z"/>
			<g>
				<path class="st24" d="M2164.83,1258.55c0.58,6.23-8.1,7.75-18.15,8.25c-10.05,0.5-7.01,2.56-20.78,5.05
					c-13.77,2.49-19.29-1.27-20.29-3.13c-0.89-1.65,5.51-4.23,12.34-7.15c0.86-0.36,1.72-0.74,2.58-1.12
					c7.68-3.38,11.99-10.26,17.97-16.65c5.67-6.05,11.06-25.41,11.06-25.41l18.71-4c0,0-5.25,17.43-7.08,24.87
					c-1.07,4.38,0.51,9.27,1.92,12.99C2163.87,1254.28,2164.63,1256.35,2164.83,1258.55z"/>
				<path class="st31" d="M2146.68,1266.8c-10.05,0.5-7.01,2.56-20.78,5.05c-13.77,2.49-19.29-1.27-20.29-3.13
					c-0.89-1.65,5.51-4.23,12.34-7.15l0.11,0.12c0,0,9.68,3.29,20.86,0.25c9.11-2.47,17.92-7.92,24.19-9.68
					c0.76,2.03,1.52,4.1,1.72,6.3C2165.4,1264.78,2156.73,1266.3,2146.68,1266.8z"/>
			</g>
			<path class="st10" d="M2327.95,1024.38c0,0-110.46,5.23-133.28,20.9c-22.82,15.67-53.64,189.1-53.64,189.1s2.39,1.77,7.58,2.12
				c4.83,0.33,15.31-2.91,15.31-2.91s50.92-79.04,53.96-98.57c3.04-19.53,1.44-36.79,10.07-37.59s116.96,8.57,132.15-20.79
				C2375.29,1047.28,2327.95,1024.38,2327.95,1024.38z"/>
			<path class="st32" d="M2290.13,877.25c-2.14-3.76-4.71-10.52-6.56-22.76c0.24,1.21,3.4,16.59,9.95,24.98
				c25.59,14.46,76.15,65.07,75.9,75.31c0,0,14.68-29.17,14.95-29.36c0,0,27.94-40.86-9.72-60.68
				c-19.14-10.08-20.02-24.59-20.09-37.24c-0.07-12.65-9.47-66.51-45.36-49.86c0,0-6.09-2.23-8.71-1.66c0,0,2.19,0.27,3.37,1.33
				c-4.29,0.03-10.37,0.76-15.27,3.99C2275.59,789.87,2268.1,859.52,2290.13,877.25z"/>
			<path class="st24" d="M2332.59,867.6c0,0-10.29-0.98-20.57,0c-6.99,0.66-13.91,2.83-17.85,4.48
				c-9.74,4.07-8.71,21.31,11.71,18.11C2326.31,887,2334.02,872.71,2332.59,867.6z"/>
			<path class="st24" d="M2295.03,880.17c-0.12,0.06-2.91,14.83,10.46,14.24c8.78-0.39,27.72-11.01,26.05-18.53
				c-0.79-3.57-7.43-12.85-8.77-34.01l-1.6,0.43l-26.88,7.21c0,0,1.19,8.53,1.75,16.6C2296.51,872.88,2296.53,879.34,2295.03,880.17
				z"/>
			<path class="st30" d="M2294.3,849.5c0,0,1.19,8.53,1.75,16.6c15.21-1.45,22.34-15.89,25.13-23.81L2294.3,849.5z"/>
			<path class="st32" d="M2323.79,839.14c0,0,7.15-13.15,8.34-24.07c0.86-7.8-4.97-36.09-33.4-30.07c0,0-8.28,1.38-15.76,7.19
				c-5.95,4.62-14.34,14.31-2.62,38.56l3.17,8.24L2323.79,839.14z"/>
			<path class="st24" d="M2289.72,857.48c0,0,36.1-1.81,34.63-24.27c-1.47-22.46,2.19-37.83-20.92-37.62s-27.02,9.07-28.35,16.69
				C2273.74,819.9,2280.29,857.38,2289.72,857.48z"/>
			<path class="st32" d="M2286.97,796.13c0,0,11.63,25.69,27.04,28.58c15.41,2.89,21.71-1.61,21.71-1.61s-12.24-8.46-15.72-24.41
				C2320,798.69,2293.58,783.1,2286.97,796.13z"/>
			<path class="st32" d="M2289.56,798.11c0,0-6.98,6.38-8.4,12.21c-1.42,5.84-1.44,17.67-4.9,17.5c0,0-8.63-17.42-0.95-28.11
				C2283.46,788.38,2289.56,798.11,2289.56,798.11z"/>
			<path class="st10" d="M2253.59,1018.55c2.92,3.49,12.04,4.57,21.79,6.17c7.67,1.27,15.73,2.85,21.46,6.22
				c13.01,7.64,55.53,33.46,67.99,32.29c4.83-0.46,3.93-9.68,1-21.92c-4.61-19.33-14.25-46.16-14.25-57.83
				c0-6.37-2.12-21.44-4.95-38.67c-0.23-1.39-0.46-2.79-0.7-4.2c-5.6-33.5-13.35-73.01-13.35-73.01s-8.65,18.87-25.5,18.87
				c-16.84,0-12.93-14.39-12.93-14.39s-15.37,1.81-19,5.72c-3.64,3.91-12.84,20.82-14.67,25.43c0,0-0.37,5.87,14.16,8.66
				c0,0-3.54,15.93-3.96,26.55c-0.31,7.84,5.35,32.39,6.98,47.67c0.58,5.41,0.65,9.65-0.22,11.58c-1.12,2.47-4.76,4.92-8.9,7.33
				C2260.34,1009.79,2250.13,1014.4,2253.59,1018.55z"/>
			<path class="st20" d="M2268.55,1005.01c-9.33,15.9,25.29,20.68,31.02,24.04c13.01,7.64,52.81,35.34,65.27,34.17
				c4.83-0.46,3.93-9.68,1-21.92c-4.61-19.33-14.25-46.16-14.25-57.83c0-6.37-2.12-21.44-4.95-38.67l-15-14.4
				c0,0-16.07,41.54-31.39,48.35c-8.03,3.56-16.42,5.92-22.58,7.35c0.58,5.41,0.65,9.65-0.22,11.58
				C2276.32,1000.15,2272.69,1002.6,2268.55,1005.01z"/>
			<path class="st24" d="M2337.2,880.03c0,0,12.83-7.79,25.22,6.99c12.4,14.77-8.81,120.39-27.19,125.81
				c-20.41,6.03-79.36-0.96-79.36-0.96l1.14-9.21c0,0,62.76-12.03,65.37-15.39C2324.99,983.91,2330.68,881.74,2337.2,880.03z"/>
			<path class="st10" d="M2332.59,867.6c0,0,26.34,2.38,33.99,11.04c7.65,8.66,9.88,32.14,9.88,32.14s-23.19,18.72-51.14,11.46
				L2332.59,867.6z"/>
			<g>
				
					<rect x="2214.93" y="1016.8" transform="matrix(-1 -1.224647e-16 1.224647e-16 -1 4464.6455 2037.7159)" class="st29" width="34.79" height="4.11"/>
				<path class="st29" d="M2222.32,1020.35c-0.34-1.36-31.98-51.04-31.98-51.04h-70.4l35.31,49.71L2222.32,1020.35z"/>
				<path class="st12" d="M2219.36,1020.91c-0.34-1.36-32.08-51.61-32.08-51.61h-67.33l33.59,51.61H2219.36z"/>
				<path class="st29" d="M2160,995.28c0.69,2.01,2.89,3.64,4.9,3.64c2.01,0,3.08-1.63,2.39-3.64c-0.69-2.01-2.89-3.65-4.9-3.65
					C2160.37,991.63,2159.3,993.26,2160,995.28z"/>
			</g>
			<path class="st24" d="M2262.13,1002.11c0,0-20.44-3.96-22.74-2.97c-2.31,0.99-15.16,12.53-13.84,14.83
				c1.32,2.31,6.59,3.96,12.52,1.98c5.93-1.98,18.79-2.97,21.09-5.93C2261.47,1007.05,2262.13,1002.11,2262.13,1002.11z"/>
		</g>
	</g>
	<g>
		<polygon class="st33" points="1826.42,429.35 1183.39,429.35 1134.11,267.97 1777.14,267.97 		"/>
		<g>
			<path class="st34" d="M1752.67,322.54l5.89,19.3c2.59,8.49-2.23,15.44-10.73,15.44h-532.74c-8.49,0-17.56-6.95-20.16-15.44
				l-5.89-19.3c-2.59-8.49,2.23-15.44,10.73-15.44h532.74C1741.01,307.1,1750.08,314.05,1752.67,322.54z"/>
			<g>
				<path class="st13" d="M1645.99,326.57h-8.17l-0.77-2.51h11.43l0.66,2.16l-3.03,14.1h-3.21L1645.99,326.57z"/>
				<path class="st13" d="M1652.96,332.19c-1.42-4.64,0.27-8.41,4.54-8.41c4.25,0,8.19,3.72,9.63,8.41
					c1.42,4.65-0.27,8.41-4.54,8.41C1658.31,340.6,1654.39,336.88,1652.96,332.19z M1664.17,332.19c-0.98-3.2-3.43-5.83-5.94-5.83
					c-2.51,0-3.33,2.55-2.33,5.83c0.98,3.21,3.4,5.83,5.94,5.83C1664.38,338.02,1665.17,335.44,1664.17,332.19z"/>
				<path class="st13" d="M1668.3,328.03c-0.69-2.25,0.29-4.16,2.58-4.16c2.28,0,4.38,1.88,5.08,4.16c0.69,2.25-0.29,4.16-2.58,4.16
					C1671.1,332.19,1669,330.31,1668.3,328.03z M1680.63,324.06h2.3l-6.93,16.26h-2.3L1680.63,324.06z M1673.9,328.03
					c-0.4-1.3-1.47-2.37-2.51-2.37c-1.09,0-1.42,1.07-1.02,2.37c0.4,1.32,1.47,2.37,2.51,2.37
					C1673.97,330.4,1674.29,329.33,1673.9,328.03z M1680.66,336.35c-0.69-2.25,0.29-4.16,2.59-4.16c2.28,0,4.38,1.88,5.08,4.16
					c0.69,2.25-0.29,4.16-2.58,4.16C1683.46,340.5,1681.36,338.62,1680.66,336.35z M1686.26,336.35c-0.4-1.3-1.47-2.37-2.51-2.37
					c-1.09,0-1.42,1.07-1.02,2.37c0.4,1.32,1.46,2.37,2.51,2.37C1686.33,338.72,1686.66,337.65,1686.26,336.35z"/>
			</g>
			<g>
				<path class="st35" d="M1560,307.1l15.33,50.19h-360.23c-7.08,0-14.55-4.83-18.34-11.34c-0.77-1.31-1.39-2.69-1.82-4.11
					l-5.89-19.3c-2.59-8.49,2.23-15.44,10.73-15.44H1560z"/>
				<path class="st36" d="M1263.53,307.1l-15.19,50.19h-33.25c-7.08,0-14.55-4.83-18.34-11.34l11.75-38.85H1263.53z"/>
				<polygon class="st36" points="1357.8,307.1 1342.62,357.28 1287.61,357.28 1302.79,307.1 				"/>
				<polygon class="st36" points="1452.09,307.1 1436.9,357.28 1381.88,357.28 1397.06,307.1 				"/>
				<polygon class="st36" points="1546.37,307.1 1531.19,357.28 1476.16,357.28 1491.35,307.1 				"/>
			</g>
		</g>
		<g>
			<polygon class="st6" points="1312.8,387.01 1216.59,387.01 1214.56,380.38 1310.77,380.38 			"/>
			<polygon class="st6" points="1292.16,405.57 1222.25,405.57 1220.23,398.94 1290.14,398.94 			"/>
			<polygon class="st6" points="1338.26,405.57 1296.47,405.57 1294.45,398.94 1336.23,398.94 			"/>
			<polygon class="st6" points="1409.32,405.57 1345.49,405.57 1343.46,398.94 1407.3,398.94 			"/>
			<polygon class="st6" points="1349.17,387.01 1320.03,387.01 1318.01,380.38 1347.14,380.38 			"/>
			<polygon class="st6" points="1465.07,387.01 1359.14,387.01 1357.11,380.38 1463.04,380.38 			"/>
		</g>
	</g>
	<g>
		<polygon class="st33" points="958.47,672.92 506.1,672.92 435.79,442.67 888.16,442.67 		"/>
		<polygon class="st18" points="894.62,557.79 499.64,557.79 469.75,459.94 864.74,459.94 		"/>
		<g>
			<polygon class="st8" points="564.58,479.82 497.68,479.82 496.08,474.6 562.99,474.6 			"/>
			<polygon class="st8" points="636.15,479.82 580.5,479.82 578.91,474.6 634.55,474.6 			"/>
			<polygon class="st8" points="765.66,479.82 650.65,479.82 649.05,474.6 764.07,474.6 			"/>
			<polygon class="st8" points="570.29,498.53 503.39,498.53 501.79,493.31 568.7,493.31 			"/>
			<polygon class="st8" points="641.86,498.53 586.21,498.53 584.62,493.31 640.27,493.31 			"/>
			<polygon class="st8" points="707.58,498.53 651.93,498.53 650.34,493.31 705.99,493.31 			"/>
			<polygon class="st8" points="839.45,500.71 724.44,500.71 722.84,495.48 837.86,495.48 			"/>
		</g>
		<g>
			<polygon class="st8" points="577.54,522.24 510.63,522.24 509.04,517.02 575.94,517.02 			"/>
			<polygon class="st8" points="649.1,522.24 593.46,522.24 591.86,517.02 647.51,517.02 			"/>
			<polygon class="st8" points="778.61,522.24 663.6,522.24 662.01,517.02 777.02,517.02 			"/>
			<polygon class="st8" points="583.25,540.95 516.34,540.95 514.75,535.73 581.65,535.73 			"/>
			<polygon class="st8" points="654.81,540.95 599.17,540.95 597.57,535.73 653.22,535.73 			"/>
			<polygon class="st8" points="720.53,540.95 664.89,540.95 663.29,535.73 718.94,535.73 			"/>
			<polygon class="st8" points="852.4,543.12 737.39,543.12 735.8,537.9 850.81,537.9 			"/>
		</g>
		<g>
			<g>
				<g>
					<path class="st15" d="M764.49,638.86c-15.33,0-31.61-12.47-36.3-27.8c-4.68-15.33,3.98-27.8,19.31-27.8
						c15.33,0,31.61,12.47,36.3,27.8C788.49,626.39,779.82,638.86,764.49,638.86z M749.06,588.33c-12.53,0-19.61,10.19-15.79,22.73
						c3.83,12.53,17.14,22.73,29.67,22.73c12.53,0,19.61-10.19,15.79-22.73C774.9,598.53,761.59,588.33,749.06,588.33z"/>
				</g>
				<g>
					<path class="st15" d="M759.76,625.2c-1.06-0.08-2.18-0.53-3.14-1.29l-15.77-12.49c-2.13-1.69-2.89-4.37-1.69-5.98
						c1.19-1.62,3.89-1.56,6.02,0.13l11.14,8.83l5.48-13.06c0.79-1.89,3.31-2.31,5.62-0.94c2.31,1.37,3.54,4.02,2.75,5.91
						l-7.2,17.17c-0.43,1.02-1.38,1.65-2.61,1.74C760.16,625.22,759.96,625.22,759.76,625.2z"/>
				</g>
			</g>
			<g>
				<g>
					<path class="st15" d="M684.93,638.86c-15.33,0-31.61-12.47-36.3-27.8c-4.68-15.33,3.98-27.8,19.31-27.8
						c15.33,0,31.61,12.47,36.3,27.8C708.93,626.39,700.26,638.86,684.93,638.86z M669.5,588.33c-12.53,0-19.61,10.19-15.79,22.73
						c3.83,12.53,17.14,22.73,29.67,22.73c12.53,0,19.61-10.19,15.79-22.73C695.34,598.53,682.03,588.33,669.5,588.33z"/>
				</g>
				<g>
					<path class="st15" d="M680.2,625.2c-1.06-0.08-2.18-0.53-3.14-1.29l-15.77-12.49c-2.13-1.69-2.89-4.37-1.69-5.98
						c1.19-1.62,3.89-1.56,6.02,0.13l11.14,8.83l5.48-13.06c0.79-1.89,3.31-2.31,5.62-0.94c2.31,1.37,3.54,4.02,2.75,5.91
						l-7.2,17.17c-0.43,1.02-1.38,1.65-2.61,1.74C680.61,625.22,680.4,625.22,680.2,625.2z"/>
				</g>
			</g>
			<g>
				<g>
					<path class="st15" d="M602.53,638.86c-15.33,0-31.61-12.47-36.29-27.8c-4.68-15.33,3.98-27.8,19.31-27.8
						c15.33,0,31.61,12.47,36.3,27.8C626.52,626.39,617.86,638.86,602.53,638.86z M587.09,588.33c-12.53,0-19.61,10.19-15.79,22.73
						c3.83,12.53,17.13,22.73,29.67,22.73s19.61-10.19,15.79-22.73C612.94,598.53,599.63,588.33,587.09,588.33z"/>
				</g>
				<g>
					<path class="st15" d="M597.79,625.2c-1.06-0.08-2.18-0.53-3.14-1.29l-15.77-12.49c-2.13-1.69-2.89-4.37-1.69-5.98
						c1.19-1.62,3.89-1.56,6.02,0.13l11.14,8.83l5.48-13.06c0.79-1.89,3.31-2.31,5.62-0.94c2.31,1.37,3.54,4.02,2.75,5.91
						l-7.2,17.17c-0.43,1.02-1.38,1.65-2.61,1.74C598.2,625.22,598,625.22,597.79,625.2z"/>
				</g>
			</g>
			<g>
				<g>
					<path class="st12" d="M841.25,638.86c-15.33,0-31.61-12.47-36.29-27.8c-4.68-15.33,3.98-27.8,19.31-27.8
						c15.33,0,31.61,12.47,36.29,27.8C865.24,626.39,856.58,638.86,841.25,638.86z M825.82,588.33c-12.53,0-19.61,10.19-15.79,22.73
						c3.83,12.53,17.13,22.73,29.67,22.73c12.53,0,19.61-10.19,15.79-22.73C851.66,598.53,838.35,588.33,825.82,588.33z"/>
				</g>
				<g>
					<path class="st12" d="M834.14,615.61L834.14,615.61c-2.16,0-4.47-1.77-5.13-3.93l-3.61-11.81c-0.66-2.16,0.57-3.93,2.73-3.93
						l0,0c2.16,0,4.47,1.77,5.13,3.93l3.61,11.81C837.54,613.84,836.31,615.61,834.14,615.61z"/>
					<path class="st12" d="M837.4,624.88h-0.85c-1.93,0-3.99-1.58-4.58-3.51l0,0c-0.59-1.93,0.51-3.51,2.44-3.51h0.85
						c1.93,0,3.99,1.58,4.58,3.51l0,0C840.43,623.3,839.33,624.88,837.4,624.88z"/>
				</g>
			</g>
		</g>
	</g>
	<g>
		<path class="st29" d="M1922.26,627.07c0,0,57.22,59.32,59.92,81.65c2.7,22.33-27.41,57.18-27.41,57.18L1922.26,627.07z"/>
		<path class="st20" d="M1896.4,1241.87c0,0-2.02,31.47-8.11,31.9c-0.81,0.06-30.88-0.01-30.88-0.01l-38.39-0.31
			c0,0,0.27-9.25,11.5-11.18c11.23-1.93,30.02-9.78,36.85-24.59C1874.56,1222.1,1896.4,1241.87,1896.4,1241.87z"/>
		<path class="st20" d="M1981.9,1242.05c0,0-2.02,31.47-8.11,31.9c-0.81,0.06-30.88-0.01-30.88-0.01l-38.39-0.31
			c0,0,0.27-9.25,11.5-11.18c11.23-1.93,30.02-9.78,36.85-24.59C1960.06,1222.29,1981.9,1242.05,1981.9,1242.05z"/>
		<path class="st20" d="M1854.63,903.55c0,0,9.9,64.23,47.11,178.3c37.2,114.07,42.2,163.44,42.2,163.44l40.18-1.04
			c0,0,0.61-124.57-16.52-181.93c-17.14-57.36-3.28-206.65-3.28-206.65L1854.63,903.55z"/>
		<path class="st10" d="M1835.17,858.91c0,0-1.63,96.76,14.85,215.6c16.48,118.84,10.7,169.26,10.7,169.26l40.09,1.42
			c0,0,24.22-118.8,17.48-178.28c-6.74-59.48,33.26-203.98,33.26-203.98L1835.17,858.91z"/>
		<path class="st24" d="M1913.28,632.65l-21.39,13.96l-30.86-5.82c0.43-2.49,2.49-12.82,4.37-22.17c0.11-0.55,0.23-1.1,0.33-1.64
			c1.61-7.96,2.99-14.79,2.99-14.79l28.86-12.66l10.76-4.72c-0.03,0.17-0.85,8.83-0.97,10.1
			C1905.32,617.36,1913.28,632.65,1913.28,632.65z"/>
		<path class="st29" d="M1868.97,625.48c0.6-0.25,37.2-10.97,41.18-9.65c3.97,1.32,6.31,9.01,6.31,9.01l-59.86,13.4
			C1856.59,638.25,1861.32,628.68,1868.97,625.48z"/>
		<path class="st12" d="M1966.94,871.14c-6.26,28.27-109.46,31.4-136.01,5.67c-3.02-2.93-3.14-16.55-1.96-34.91
			c2.31-35.87,9.6-89.81,9.93-117.37c0.17-13.31,2.02-26.92,4.49-39.28c5.24-26.34,13.19-47,13.19-47s50.44-16.19,59.86-13.39
			C1961.86,638.3,1973.2,842.87,1966.94,871.14z"/>
		<path class="st29" d="M1828.97,841.91c2.31-35.87,9.6-89.81,9.93-117.37c0.17-13.31,2.02-26.92,4.49-39.28l30.33-5.29
			C1873.73,679.96,1903.11,801.11,1828.97,841.91z"/>
		<path class="st24" d="M1845.5,791.94c0,0,2.06,4.94-2.29,8.25s-7.17,8.68-6.19,12.6c0.98,3.93,10.49,10.36,13.79,9.33
			c3.3-1.03,10.03-6.18,9.31-8.26c-0.72-2.07,4.56-18.17-3.47-24.39C1848.62,783.27,1845.5,791.94,1845.5,791.94z"/>
		<path class="st12" d="M1879.76,631.04c0,0-29.58,5.47-53.22,40.14c-23.64,34.67-39.2,60.45-34.88,72.98
			c4.31,12.52,43.78,56.01,50.6,56.03c6.82,0.01,17.84-4.92,18.48-16.08c0,0-27.76-41.81-22.26-48.05
			c2.35-2.67,36.23-30.05,41.03-17.64C1887.45,738.96,1879.76,631.04,1879.76,631.04z"/>
		<path class="st37" d="M1905.22,595.29c-6.35,10.71-29.97,19.94-39.82,23.33c0.11-0.55,0.23-1.1,0.33-1.64
			c1.61-7.96,2.99-14.79,2.99-14.79l28.86-12.66C1903.96,589.45,1907.84,590.88,1905.22,595.29z"/>
		<path class="st24" d="M1857.86,600.4c0,0,46.42,14.59,55.06-14.46c8.64-29.05,20.45-46.73-8.82-57.27
			c-29.27-10.54-38.35-1.18-43.6,7.81C1855.26,545.48,1846.01,595.86,1857.86,600.4z"/>
		<path class="st20" d="M1862.33,533.69c0,0,2.89,33.83,9.89,32.38c7-1.45,13.34-2.53,12.3,7.67c-1.05,10.19-10.77,21.95,10.78,23.8
			c21.55,1.85,52.66-53.68,46.77-64.22C1925.05,502.9,1837.72,496.59,1862.33,533.69z"/>
	</g>
	<g>
		<g class="st38">
			<path class="st6" d="M897.49,283.36v-8.24h8.49v8.24H897.49z"/>
			<path class="st6" d="M897.49,266.69v-8.24h8.49v8.24H897.49z"/>
			<path class="st6" d="M897.49,250.02v-8.24h8.49v8.24H897.49z"/>
			<path class="st6" d="M897.49,233.35v-8.24h8.49v8.24H897.49z"/>
			<path class="st6" d="M897.49,216.69v-8.24h8.49v8.24H897.49z"/>
			<path class="st6" d="M897.49,200.02v-8.24h8.49v8.24H897.49z"/>
			<path class="st6" d="M897.49,183.35v-8.24h8.49v8.24H897.49z"/>
			<path class="st6" d="M897.49,166.68v-8.24h8.49v8.24H897.49z"/>
			<path class="st6" d="M897.49,150.01v-8.24h8.49v8.24H897.49z"/>
			<path class="st6" d="M897.49,133.34v-8.24h8.49v8.24H897.49z"/>
			<path class="st6" d="M897.49,116.68v-8.24h8.49v8.24H897.49z"/>
			<path class="st6" d="M897.49,100.01v-8.24h8.49v8.24H897.49z"/>
			<path class="st6" d="M897.49,83.34V75.1h8.49v8.24H897.49z"/>
			<path class="st6" d="M897.49,66.67v-8.24h8.49v8.24H897.49z"/>
			<path class="st6" d="M897.49,50v-8.24h8.49V50H897.49z"/>
			<path class="st6" d="M897.49,33.34v-8.24h8.49v8.24H897.49z"/>
			<path class="st6" d="M897.49,16.67V8.43h8.49v8.24H897.49z"/>
			<path class="st6" d="M897.49,0v-8.24h8.49V0H897.49z"/>
		</g>
		<g class="st38">
			<path class="st6" d="M871.53,183.35v-8.24h8.49v8.24H871.53z"/>
			<path class="st6" d="M871.53,166.68v-8.24h8.49v8.24H871.53z"/>
			<path class="st6" d="M871.53,150.01v-8.24h8.49v8.24H871.53z"/>
			<path class="st6" d="M871.53,133.34v-8.24h8.49v8.24H871.53z"/>
			<path class="st6" d="M871.53,116.68v-8.24h8.49v8.24H871.53z"/>
			<path class="st6" d="M871.53,100.01v-8.24h8.49v8.24H871.53z"/>
			<path class="st6" d="M871.53,83.34V75.1h8.49v8.24H871.53z"/>
			<path class="st6" d="M871.53,66.67v-8.24h8.49v8.24H871.53z"/>
			<path class="st6" d="M871.53,50v-8.24h8.49V50H871.53z"/>
			<path class="st6" d="M871.53,33.34v-8.24h8.49v8.24H871.53z"/>
			<path class="st6" d="M871.53,16.67V8.43h8.49v8.24H871.53z"/>
			<path class="st6" d="M871.53,0v-8.24h8.49V0H871.53z"/>
		</g>
		<g class="st38">
			<path class="st6" d="M845.09,283.36v-8.24h8.49v8.24H845.09z"/>
			<path class="st6" d="M845.09,266.69v-8.24h8.49v8.24H845.09z"/>
			<path class="st6" d="M845.09,250.02v-8.24h8.49v8.24H845.09z"/>
			<path class="st6" d="M845.09,233.35v-8.24h8.49v8.24H845.09z"/>
			<path class="st6" d="M845.09,216.69v-8.24h8.49v8.24H845.09z"/>
			<path class="st6" d="M845.09,200.02v-8.24h8.49v8.24H845.09z"/>
			<path class="st6" d="M845.09,183.35v-8.24h8.49v8.24H845.09z"/>
			<path class="st6" d="M845.09,166.68v-8.24h8.49v8.24H845.09z"/>
			<path class="st6" d="M845.09,150.01v-8.24h8.49v8.24H845.09z"/>
			<path class="st6" d="M845.09,133.34v-8.24h8.49v8.24H845.09z"/>
			<path class="st6" d="M845.09,116.68v-8.24h8.49v8.24H845.09z"/>
			<path class="st6" d="M845.09,100.01v-8.24h8.49v8.24H845.09z"/>
			<path class="st6" d="M845.09,83.34V75.1h8.49v8.24H845.09z"/>
			<path class="st6" d="M845.09,66.67v-8.24h8.49v8.24H845.09z"/>
			<path class="st6" d="M845.09,50v-8.24h8.49V50H845.09z"/>
			<path class="st6" d="M845.09,33.34v-8.24h8.49v8.24H845.09z"/>
			<path class="st6" d="M845.09,16.67V8.43h8.49v8.24H845.09z"/>
			<path class="st6" d="M845.09,0v-8.24h8.49V0H845.09z"/>
		</g>
		<g class="st38">
			<path class="st6" d="M822.83,316.69v-8.24h8.49v8.24H822.83z"/>
			<path class="st6" d="M822.83,300.03v-8.24h8.49v8.24H822.83z"/>
			<path class="st6" d="M822.83,283.36v-8.24h8.49v8.24H822.83z"/>
			<path class="st6" d="M822.83,266.69v-8.24h8.49v8.24H822.83z"/>
			<path class="st6" d="M822.83,250.02v-8.24h8.49v8.24H822.83z"/>
			<path class="st6" d="M822.83,233.35v-8.24h8.49v8.24H822.83z"/>
			<path class="st6" d="M822.83,216.69v-8.24h8.49v8.24H822.83z"/>
			<path class="st6" d="M822.83,200.02v-8.24h8.49v8.24H822.83z"/>
			<path class="st6" d="M822.83,183.35v-8.24h8.49v8.24H822.83z"/>
			<path class="st6" d="M822.83,166.68v-8.24h8.49v8.24H822.83z"/>
			<path class="st6" d="M822.83,150.01v-8.24h8.49v8.24H822.83z"/>
			<path class="st6" d="M822.83,133.34v-8.24h8.49v8.24H822.83z"/>
			<path class="st6" d="M822.83,116.68v-8.24h8.49v8.24H822.83z"/>
			<path class="st6" d="M822.83,100.01v-8.24h8.49v8.24H822.83z"/>
			<path class="st6" d="M822.83,83.34V75.1h8.49v8.24H822.83z"/>
			<path class="st6" d="M822.83,66.67v-8.24h8.49v8.24H822.83z"/>
			<path class="st6" d="M822.83,50v-8.24h8.49V50H822.83z"/>
			<path class="st6" d="M822.83,33.34v-8.24h8.49v8.24H822.83z"/>
			<path class="st6" d="M822.83,16.67V8.43h8.49v8.24H822.83z"/>
			<path class="st6" d="M822.83,0v-8.24h8.49V0H822.83z"/>
		</g>
		<g class="st38">
			<path class="st6" d="M793.45,166.68v-8.24h8.49v8.24H793.45z"/>
			<path class="st6" d="M793.45,150.01v-8.24h8.49v8.24H793.45z"/>
			<path class="st6" d="M793.45,133.34v-8.24h8.49v8.24H793.45z"/>
			<path class="st6" d="M793.45,116.68v-8.24h8.49v8.24H793.45z"/>
			<path class="st6" d="M793.45,100.01v-8.24h8.49v8.24H793.45z"/>
			<path class="st6" d="M793.45,83.34V75.1h8.49v8.24H793.45z"/>
			<path class="st6" d="M793.45,66.67v-8.24h8.49v8.24H793.45z"/>
			<path class="st6" d="M793.45,50v-8.24h8.49V50H793.45z"/>
			<path class="st6" d="M793.45,33.34v-8.24h8.49v8.24H793.45z"/>
			<path class="st6" d="M793.45,16.67V8.43h8.49v8.24H793.45z"/>
			<path class="st6" d="M793.45,0v-8.24h8.49V0H793.45z"/>
		</g>
	</g>
	<g>
		<g class="st38">
			<path class="st6" d="M2074.69,592.06v8.24h-8.49v-8.24H2074.69z"/>
			<path class="st6" d="M2074.69,608.73v8.24h-8.49v-8.24H2074.69z"/>
			<path class="st6" d="M2074.69,625.4v8.24h-8.49v-8.24H2074.69z"/>
			<path class="st6" d="M2074.69,642.07v8.24h-8.49v-8.24H2074.69z"/>
			<path class="st6" d="M2074.69,658.74v8.24h-8.49v-8.24H2074.69z"/>
			<path class="st6" d="M2074.69,675.4v8.24h-8.49v-8.24H2074.69z"/>
			<path class="st6" d="M2074.69,692.07v8.24h-8.49v-8.24H2074.69z"/>
			<path class="st6" d="M2074.69,708.74v8.24h-8.49v-8.24H2074.69z"/>
			<path class="st6" d="M2074.69,725.41v8.24h-8.49v-8.24H2074.69z"/>
			<path class="st6" d="M2074.69,742.08v8.24h-8.49v-8.24H2074.69z"/>
			<path class="st6" d="M2074.69,758.75v8.24h-8.49v-8.24H2074.69z"/>
			<path class="st6" d="M2074.69,775.41v8.24h-8.49v-8.24H2074.69z"/>
			<path class="st6" d="M2074.69,792.08v8.24h-8.49v-8.24H2074.69z"/>
			<path class="st6" d="M2074.69,808.75v8.24h-8.49v-8.24H2074.69z"/>
			<path class="st6" d="M2074.69,825.42v8.24h-8.49v-8.24H2074.69z"/>
			<path class="st6" d="M2074.69,842.09v8.24h-8.49v-8.24H2074.69z"/>
			<path class="st6" d="M2074.69,858.75V867h-8.49v-8.24H2074.69z"/>
			<path class="st6" d="M2074.69,875.42v8.24h-8.49v-8.24H2074.69z"/>
		</g>
		<g class="st38">
			<path class="st6" d="M2100.64,692.07v8.24h-8.49v-8.24H2100.64z"/>
			<path class="st6" d="M2100.64,708.74v8.24h-8.49v-8.24H2100.64z"/>
			<path class="st6" d="M2100.64,725.41v8.24h-8.49v-8.24H2100.64z"/>
			<path class="st6" d="M2100.64,742.08v8.24h-8.49v-8.24H2100.64z"/>
			<path class="st6" d="M2100.64,758.75v8.24h-8.49v-8.24H2100.64z"/>
			<path class="st6" d="M2100.64,775.41v8.24h-8.49v-8.24H2100.64z"/>
			<path class="st6" d="M2100.64,792.08v8.24h-8.49v-8.24H2100.64z"/>
			<path class="st6" d="M2100.64,808.75v8.24h-8.49v-8.24H2100.64z"/>
			<path class="st6" d="M2100.64,825.42v8.24h-8.49v-8.24H2100.64z"/>
			<path class="st6" d="M2100.64,842.09v8.24h-8.49v-8.24H2100.64z"/>
			<path class="st6" d="M2100.64,858.75V867h-8.49v-8.24H2100.64z"/>
			<path class="st6" d="M2100.64,875.42v8.24h-8.49v-8.24H2100.64z"/>
		</g>
		<g class="st38">
			<path class="st6" d="M2127.08,592.06v8.24h-8.49v-8.24H2127.08z"/>
			<path class="st6" d="M2127.08,608.73v8.24h-8.49v-8.24H2127.08z"/>
			<path class="st6" d="M2127.08,625.4v8.24h-8.49v-8.24H2127.08z"/>
			<path class="st6" d="M2127.08,642.07v8.24h-8.49v-8.24H2127.08z"/>
			<path class="st6" d="M2127.08,658.74v8.24h-8.49v-8.24H2127.08z"/>
			<path class="st6" d="M2127.08,675.4v8.24h-8.49v-8.24H2127.08z"/>
			<path class="st6" d="M2127.08,692.07v8.24h-8.49v-8.24H2127.08z"/>
			<path class="st6" d="M2127.08,708.74v8.24h-8.49v-8.24H2127.08z"/>
			<path class="st6" d="M2127.08,725.41v8.24h-8.49v-8.24H2127.08z"/>
			<path class="st6" d="M2127.08,742.08v8.24h-8.49v-8.24H2127.08z"/>
			<path class="st6" d="M2127.08,758.75v8.24h-8.49v-8.24H2127.08z"/>
			<path class="st6" d="M2127.08,775.41v8.24h-8.49v-8.24H2127.08z"/>
			<path class="st6" d="M2127.08,792.08v8.24h-8.49v-8.24H2127.08z"/>
			<path class="st6" d="M2127.08,808.75v8.24h-8.49v-8.24H2127.08z"/>
			<path class="st6" d="M2127.08,825.42v8.24h-8.49v-8.24H2127.08z"/>
			<path class="st6" d="M2127.08,842.09v8.24h-8.49v-8.24H2127.08z"/>
			<path class="st6" d="M2127.08,858.75V867h-8.49v-8.24H2127.08z"/>
			<path class="st6" d="M2127.08,875.42v8.24h-8.49v-8.24H2127.08z"/>
		</g>
		<g class="st38">
			<path class="st6" d="M2149.35,558.73v8.24h-8.49v-8.24H2149.35z"/>
			<path class="st6" d="M2149.35,575.4v8.24h-8.49v-8.24H2149.35z"/>
			<path class="st6" d="M2149.35,592.06v8.24h-8.49v-8.24H2149.35z"/>
			<path class="st6" d="M2149.35,608.73v8.24h-8.49v-8.24H2149.35z"/>
			<path class="st6" d="M2149.35,625.4v8.24h-8.49v-8.24H2149.35z"/>
			<path class="st6" d="M2149.35,642.07v8.24h-8.49v-8.24H2149.35z"/>
			<path class="st6" d="M2149.35,658.74v8.24h-8.49v-8.24H2149.35z"/>
			<path class="st6" d="M2149.35,675.4v8.24h-8.49v-8.24H2149.35z"/>
			<path class="st6" d="M2149.35,692.07v8.24h-8.49v-8.24H2149.35z"/>
			<path class="st6" d="M2149.35,708.74v8.24h-8.49v-8.24H2149.35z"/>
			<path class="st6" d="M2149.35,725.41v8.24h-8.49v-8.24H2149.35z"/>
			<path class="st6" d="M2149.35,742.08v8.24h-8.49v-8.24H2149.35z"/>
			<path class="st6" d="M2149.35,758.75v8.24h-8.49v-8.24H2149.35z"/>
			<path class="st6" d="M2149.35,775.41v8.24h-8.49v-8.24H2149.35z"/>
			<path class="st6" d="M2149.35,792.08v8.24h-8.49v-8.24H2149.35z"/>
			<path class="st6" d="M2149.35,808.75v8.24h-8.49v-8.24H2149.35z"/>
			<path class="st6" d="M2149.35,825.42v8.24h-8.49v-8.24H2149.35z"/>
			<path class="st6" d="M2149.35,842.09v8.24h-8.49v-8.24H2149.35z"/>
			<path class="st6" d="M2149.35,858.75V867h-8.49v-8.24H2149.35z"/>
			<path class="st6" d="M2149.35,875.42v8.24h-8.49v-8.24H2149.35z"/>
		</g>
		<g class="st38">
			<path class="st6" d="M2178.73,708.74v8.24h-8.49v-8.24H2178.73z"/>
			<path class="st6" d="M2178.73,725.41v8.24h-8.49v-8.24H2178.73z"/>
			<path class="st6" d="M2178.73,742.08v8.24h-8.49v-8.24H2178.73z"/>
			<path class="st6" d="M2178.73,758.75v8.24h-8.49v-8.24H2178.73z"/>
			<path class="st6" d="M2178.73,775.41v8.24h-8.49v-8.24H2178.73z"/>
			<path class="st6" d="M2178.73,792.08v8.24h-8.49v-8.24H2178.73z"/>
			<path class="st6" d="M2178.73,808.75v8.24h-8.49v-8.24H2178.73z"/>
			<path class="st6" d="M2178.73,825.42v8.24h-8.49v-8.24H2178.73z"/>
			<path class="st6" d="M2178.73,842.09v8.24h-8.49v-8.24H2178.73z"/>
			<path class="st6" d="M2178.73,858.75V867h-8.49v-8.24H2178.73z"/>
			<path class="st6" d="M2178.73,875.42v8.24h-8.49v-8.24H2178.73z"/>
		</g>
	</g>
</g>
</svg>
