<?xml version="1.0" encoding="utf-8"?>
<!-- Generator: Adobe Illustrator 25.2.1, SVG Export Plug-In . SVG Version: 6.00 Build 0)  -->
<svg version="1.1" id="_x2014_лой_x5F_1" xmlns="http://www.w3.org/2000/svg" xmlns:xlink="http://www.w3.org/1999/xlink"
	 x="0px" y="0px" viewBox="0 0 2600.24 1288.34" style="enable-background:new 0 0 2600.24 1288.34;" xml:space="preserve">
<style type="text/css">
	.st0{fill:#E5F1FA;}
	.st1{fill:#95C38B;}
	.st2{fill:#182842;}
	.st3{fill:#344670;}
	.st4{fill:#2A3967;}
	.st5{fill:#E4EDF9;}
	.st6{fill:#AFCDFB;}
	.st7{fill:#E9F3FE;}
	.st8{fill:#CAE0FF;}
	.st9{fill:#D2E3FC;}
	.st10{fill:#1C468A;}
	.st11{fill:#78ACEA;}
	.st12{fill:#06944B;}
	.st13{fill:#699DEE;}
	.st14{fill:#FFFFFF;}
	.st15{fill:#A8D29F;}
	.st16{fill:#F1A34F;}
	.st17{fill:#E49963;}
	.st18{fill:#4A75CB;}
	.st19{fill:#2B478B;}
	.st20{fill:#163560;}
	.st21{fill:#D68D5D;}
	.st22{fill:#233862;}
	.st23{fill:#1F3B68;}
	.st24{fill:#FFB27D;}
	.st25{fill:#E2915A;}
	.st26{fill:#8EA8CE;}
	.st27{fill:#E8F2F9;}
	.st28{fill:#2E3552;}
	.st29{fill:#007451;}
	.st30{fill:#F4A269;}
	.st31{fill:#C65447;}
	.st32{fill:#B5453C;}
	.st33{fill:#FAFDFF;}
	.st34{fill:#B7D5F9;}
	.st35{fill:#F99746;}
	.st36{fill:#ED7D2B;}
	.st37{fill:#FCA56B;}
	.st38{opacity:0.5;}
</style>
<g>
	<path class="st0" d="M117.05,1276.9l833.34-3.41l222.13-0.05l73.59-0.02l222.55-0.05l1016.76-0.22c0,0,232.56-235.12-15.85-458.43
		c-257.56-231.53-382.8-42.97-461.97-368.88C1808.3-374.5-162.01,102.96,354.79,801.04C540.87,1052.4-11.5,918.8,117.05,1276.9z"/>
	<path class="st1" d="M46.26,1236.29c-0.78,0.22-1.79,0.44-3.04,0.66C44.24,1236.71,45.24,1236.48,46.26,1236.29z"/>
	<g>
		<g>
			<path class="st2" d="M1045.49,670.34l-48.1,571.89c0,0-5.04,34.67,20.75,34.73c42.4,0.1,211.03,0,211.03,0
				s-31.91-7.22-31.52-23.45c0.46-19.14,56.22-588.58,56.22-588.58L1045.49,670.34z"/>
			<path class="st3" d="M1242.85,1266.59c-8.34,0.02-169.4,0.53-210.69,0c-17.99-0.22-21.15-16-21.3-26.21
				c-0.07-4.89,0.55-8.51,0.55-8.51l1.25-14.86l3.19-37.89l2.82-33.47l3.62-43.01l3.05-36.3l34.18-406.37l208.37-5.41
				c0,0-23.48,238.31-40.1,411.78c-1.85,19.33-3.62,37.86-5.25,55.16c-0.53,5.52-1.04,10.92-1.53,16.18
				c-1.54,16.41-2.95,31.48-4.17,44.79c-0.65,7.01-1.24,13.53-1.78,19.5c-2.12,23.39-3.36,38.33-3.38,41.17
				c-0.01,1.66,0.13,3.2,0.41,4.63C1215.49,1265.99,1239.72,1266.59,1242.85,1266.59z"/>
			<polygon class="st3" points="539.45,359.14 656.6,829.74 672.64,894.19 727.21,1113.38 1740.96,1113.38 1539.84,359.14 			"/>
			<polygon class="st2" points="539.44,359.14 523.21,364.55 705.62,1129.75 727.21,1113.38 			"/>
			<polygon class="st2" points="705.62,1129.75 1713.14,1129.75 1740.96,1113.38 727.21,1113.38 			"/>
			
				<rect x="1059.43" y="1266.82" transform="matrix(-1 -1.224647e-16 1.224647e-16 -1 2337.0085 2543.9973)" class="st2" width="218.14" height="10.37"/>
			<polygon class="st3" points="1691.85,974.4 1527.36,369.11 541.93,369.11 539.45,359.14 1539.84,359.14 1703.79,973.05 			"/>
			<polygon class="st2" points="1222.12,1129.75 1221,1137.67 1015.84,1179.12 1018.66,1145.64 1020,1129.75 			"/>
			<path class="st2" d="M1242.85,1266.59c-8.34,0.02-169.4,0.53-210.69,0c-17.99-0.22-21.15-16-21.3-26.21l204.18-38.42
				c-2.12,23.39-3.36,38.33-3.38,41.17c-0.01,1.66,0.13,3.2,0.41,4.63C1215.49,1265.99,1239.72,1266.59,1242.85,1266.59z"/>
			<polygon class="st4" points="1172.54,960.69 727.21,1113.38 672.64,894.19 			"/>
			<polygon class="st3" points="539.44,359.14 1539.84,359.14 1702.16,965.31 690.35,965.31 			"/>
		</g>
		<polygon class="st5" points="1654.97,939.04 718.3,939.04 612.22,516.47 604.09,484.06 597.15,456.42 580.88,391.61 
			1504.06,391.61 1521.92,456.42 1529.54,484.06 1538.48,516.47 		"/>
		<polygon class="st6" points="1521.92,456.42 597.15,456.42 580.88,391.61 1504.06,391.61 		"/>
		<g>
			<path class="st7" d="M619.08,420.9c-1.12-4.47,1.61-8.1,6.08-8.1c4.47,0,9.01,3.63,10.12,8.1c1.12,4.47-1.61,8.1-6.08,8.1
				C624.72,429,620.19,425.37,619.08,420.9z"/>
			<path class="st7" d="M646,420.9c-1.12-4.47,1.61-8.1,6.08-8.1c4.47,0,9.01,3.63,10.12,8.1c1.12,4.47-1.61,8.1-6.08,8.1
				C651.64,429,647.11,425.37,646,420.9z"/>
			<path class="st7" d="M674.98,420.9c-1.12-4.47,1.61-8.1,6.08-8.1c4.47,0,9.01,3.63,10.12,8.1c1.12,4.47-1.61,8.1-6.08,8.1
				C680.63,429,676.1,425.37,674.98,420.9z"/>
		</g>
		<polygon class="st8" points="1448.64,901.55 754.81,901.55 649.23,487.2 1333.26,487.2 		"/>
		<polygon class="st9" points="1538.37,583.61 1381.11,583.61 1352.36,487.2 1511.52,487.2 		"/>
		<polygon class="st10" points="1114.12,527.55 1024.15,527.55 1020.44,513.68 1110.42,513.68 		"/>
		<polygon class="st11" points="1273.64,527.55 1126.45,527.55 1122.75,513.68 1269.94,513.68 		"/>
		<polygon class="st11" points="1129.24,564.93 969.68,564.93 965.97,551.06 1125.54,551.06 		"/>
		<polygon class="st12" points="1226.3,564.93 1143.6,564.93 1139.89,551.06 1222.6,551.06 		"/>
		<polygon class="st13" points="1141.27,629.28 1051.3,629.28 1047.59,615.4 1137.57,615.4 		"/>
		<polygon class="st11" points="1300.79,629.28 1153.6,629.28 1149.9,615.4 1297.09,615.4 		"/>
		<polygon class="st14" points="1156.39,666.65 996.83,666.65 993.12,652.78 1152.69,652.78 		"/>
		<polygon class="st14" points="1253.45,666.65 1170.75,666.65 1167.04,652.78 1249.75,652.78 		"/>
		<polygon class="st10" points="1059.78,724.51 755.37,724.51 751.67,710.63 1056.07,710.63 		"/>
		<polygon class="st13" points="1169.21,724.51 1079.23,724.51 1075.53,710.63 1165.51,710.63 		"/>
		<polygon class="st11" points="1328.73,724.51 1181.54,724.51 1177.84,710.63 1325.03,710.63 		"/>
		<polygon class="st14" points="855.32,761.88 765.35,761.88 761.64,748.01 851.62,748.01 		"/>
		<polygon class="st12" points="1184.33,761.88 1024.77,761.88 1021.06,748.01 1180.63,748.01 		"/>
		<polygon class="st11" points="1014.84,761.88 867.65,761.88 863.95,748.01 1011.14,748.01 		"/>
		<polygon class="st11" points="1281.39,761.88 1198.69,761.88 1194.98,748.01 1277.69,748.01 		"/>
		<polygon class="st10" points="1094.33,827.69 789.93,827.69 786.22,813.82 1090.63,813.82 		"/>
		<polygon class="st13" points="1203.77,827.69 1113.79,827.69 1110.09,813.82 1200.06,813.82 		"/>
		<polygon class="st14" points="889.88,865.07 799.9,865.07 796.2,851.2 886.17,851.2 		"/>
		<polygon class="st12" points="1218.89,865.07 1059.32,865.07 1055.62,851.2 1215.18,851.2 		"/>
		<polygon class="st11" points="1049.4,865.07 902.21,865.07 898.5,851.2 1045.7,851.2 		"/>
		<polygon class="st11" points="1315.95,865.07 1233.24,865.07 1229.54,851.2 1312.25,851.2 		"/>
		<g>
			<polygon class="st11" points="1460.08,613.44 1390.87,613.65 1389.34,607.37 1458.54,607.15 			"/>
			<polygon class="st11" points="1496.57,613.32 1470.55,613.4 1469.02,607.12 1495.04,607.04 			"/>
			<polygon class="st11" points="1549.32,613.16 1503.33,613.3 1501.79,607.02 1547.79,606.88 			"/>
			<polygon class="st11" points="1432.69,629.42 1394.74,629.54 1393.21,623.26 1431.15,623.14 			"/>
			<polygon class="st11" points="1488,629.25 1439.01,629.41 1437.48,623.12 1486.47,622.97 			"/>
			<polygon class="st11" points="1553.19,629.05 1497.04,629.23 1495.51,622.94 1551.66,622.77 			"/>
		</g>
		<g>
			<polygon class="st11" points="1468.35,647.39 1399.15,647.6 1397.62,641.32 1466.82,641.11 			"/>
			<polygon class="st11" points="1504.85,647.28 1478.83,647.36 1477.29,641.07 1503.32,640.99 			"/>
			<polygon class="st11" points="1557.59,647.12 1511.6,647.26 1510.07,640.97 1556.06,640.83 			"/>
			<polygon class="st11" points="1440.96,663.38 1403.02,663.5 1401.49,657.21 1439.43,657.09 			"/>
			<polygon class="st11" points="1496.28,663.21 1447.29,663.36 1445.75,657.07 1494.75,656.92 			"/>
			<polygon class="st11" points="1561.47,663.01 1505.32,663.18 1503.78,656.9 1559.93,656.72 			"/>
		</g>
		<g>
			<polygon class="st14" points="1414.08,500.58 1372.41,500.71 1371.49,496.92 1413.16,496.8 			"/>
			<polygon class="st14" points="1436.06,500.51 1420.39,500.56 1419.47,496.78 1435.14,496.73 			"/>
			<polygon class="st14" points="1467.82,500.42 1440.13,500.5 1439.2,496.72 1466.9,496.63 			"/>
			<polygon class="st14" points="1397.59,510.21 1374.74,510.28 1373.82,506.49 1396.66,506.42 			"/>
			<polygon class="st14" points="1430.9,510.11 1401.4,510.2 1400.47,506.41 1429.98,506.32 			"/>
			<polygon class="st14" points="1470.16,509.99 1436.34,510.09 1435.42,506.3 1469.23,506.2 			"/>
		</g>
		<g>
			<polygon class="st14" points="1419.07,521.03 1377.39,521.16 1376.47,517.37 1418.14,517.24 			"/>
			<polygon class="st14" points="1441.04,520.96 1425.37,521.01 1424.45,517.22 1440.12,517.18 			"/>
			<polygon class="st14" points="1472.81,520.86 1445.11,520.95 1444.19,517.16 1471.88,517.08 			"/>
			<polygon class="st14" points="1402.57,530.66 1379.72,530.73 1378.8,526.94 1401.65,526.87 			"/>
			<polygon class="st14" points="1435.88,530.55 1406.38,530.64 1405.46,526.86 1434.96,526.77 			"/>
			<polygon class="st14" points="1475.14,530.43 1441.33,530.54 1440.4,526.75 1474.22,526.65 			"/>
		</g>
		<g>
			<polygon class="st11" points="1482.49,705.41 1413.29,705.62 1411.76,699.34 1480.96,699.12 			"/>
			<polygon class="st11" points="1518.99,705.29 1492.97,705.37 1491.44,699.09 1517.46,699.01 			"/>
			<polygon class="st11" points="1571.73,705.13 1525.74,705.27 1524.21,698.99 1570.2,698.85 			"/>
			<polygon class="st11" points="1455.1,721.39 1417.16,721.51 1415.63,715.23 1453.57,715.11 			"/>
			<polygon class="st11" points="1510.42,721.22 1461.43,721.38 1459.89,715.09 1508.89,714.94 			"/>
			<polygon class="st11" points="1575.61,721.02 1519.46,721.2 1517.92,714.91 1574.08,714.74 			"/>
		</g>
		<g>
			<polygon class="st11" points="1496.35,762.27 1427.15,762.48 1425.62,756.2 1494.82,755.98 			"/>
			<polygon class="st11" points="1532.85,762.15 1506.83,762.23 1505.3,755.95 1531.32,755.87 			"/>
			<polygon class="st11" points="1585.59,761.99 1539.6,762.13 1538.07,755.85 1584.06,755.71 			"/>
			<polygon class="st11" points="1468.96,778.26 1431.02,778.37 1429.49,772.09 1467.43,771.97 			"/>
			<polygon class="st11" points="1524.28,778.09 1475.29,778.24 1473.75,771.95 1522.75,771.8 			"/>
			<polygon class="st11" points="1589.47,777.88 1533.32,778.06 1531.78,771.77 1587.94,771.6 			"/>
		</g>
		<g>
			<polygon class="st11" points="1508.84,813.5 1439.64,813.71 1438.1,807.42 1507.31,807.21 			"/>
			<polygon class="st11" points="1545.34,813.38 1519.31,813.46 1517.78,807.18 1543.8,807.1 			"/>
			<polygon class="st11" points="1598.08,813.22 1552.09,813.36 1550.56,807.08 1596.55,806.94 			"/>
			<polygon class="st11" points="1481.45,829.48 1443.51,829.6 1441.98,823.32 1479.92,823.2 			"/>
			<polygon class="st11" points="1536.77,829.31 1487.77,829.46 1486.24,823.18 1535.24,823.03 			"/>
			<polygon class="st11" points="1601.95,829.11 1545.8,829.29 1544.27,823 1600.42,822.83 			"/>
		</g>
		<g>
			<g>
				<g>
					<path class="st15" d="M1541.44,889.69c-11.12,0-22.81-9.05-26.06-20.17c-3.25-11.12,3.16-20.17,14.28-20.17
						c11.12,0,22.81,9.05,26.06,20.17C1558.97,880.64,1552.56,889.69,1541.44,889.69z M1530.74,853.04
						c-9.09,0-14.33,7.4-11.67,16.49c2.65,9.09,12.21,16.49,21.3,16.49c9.09,0,14.33-7.39,11.67-16.49
						C1549.39,860.43,1539.83,853.04,1530.74,853.04z"/>
				</g>
				<g>
					<path class="st15" d="M1538.14,879.78c-0.77-0.06-1.57-0.39-2.26-0.94l-11.32-9.06c-1.53-1.22-2.05-3.17-1.17-4.34
						c0.88-1.17,2.84-1.13,4.37,0.1l8,6.4l4.1-9.48c0.59-1.37,2.42-1.68,4.09-0.69c1.66,1,2.53,2.91,1.94,4.29l-5.39,12.46
						c-0.32,0.74-1.02,1.2-1.91,1.26C1538.44,879.79,1538.29,879.79,1538.14,879.78z"/>
				</g>
			</g>
			<g>
				<g>
					<path class="st16" d="M1597.12,889.69c-11.12,0-22.81-9.05-26.06-20.17c-3.25-11.12,3.16-20.17,14.28-20.17
						c11.12,0,22.81,9.05,26.06,20.17C1614.65,880.64,1608.24,889.69,1597.12,889.69z M1586.42,853.04
						c-9.09,0-14.33,7.4-11.67,16.49c2.65,9.09,12.21,16.49,21.3,16.49c9.09,0,14.33-7.39,11.67-16.49
						C1605.07,860.43,1595.51,853.04,1586.42,853.04z"/>
				</g>
				<g>
					<path class="st16" d="M1592.2,872.82L1592.2,872.82c-1.57,0-3.23-1.28-3.69-2.85l-2.5-8.57c-0.46-1.57,0.45-2.85,2.02-2.85l0,0
						c1.57,0,3.23,1.28,3.69,2.85l2.5,8.57C1594.67,871.54,1593.76,872.82,1592.2,872.82z"/>
					<path class="st16" d="M1594.47,879.55h-0.62c-1.4,0-2.88-1.14-3.29-2.54l0,0c-0.41-1.4,0.4-2.54,1.8-2.54h0.62
						c1.4,0,2.88,1.14,3.29,2.54l0,0C1596.68,878.4,1595.87,879.55,1594.47,879.55z"/>
				</g>
			</g>
		</g>
		<g>
			<g>
				<g>
					<path class="st15" d="M1479.4,574.32c-6.1,0-12.51-4.96-14.29-11.06c-1.78-6.1,1.73-11.06,7.83-11.06
						c6.1,0,12.51,4.96,14.29,11.06C1489.01,569.36,1485.5,574.32,1479.4,574.32z M1473.53,554.23c-4.98,0-7.86,4.05-6.4,9.04
						c1.46,4.98,6.69,9.04,11.68,9.04c4.98,0,7.85-4.05,6.4-9.04C1483.76,558.28,1478.52,554.23,1473.53,554.23z"/>
				</g>
				<g>
					<path class="st15" d="M1477.59,568.89c-0.42-0.03-0.86-0.21-1.24-0.51l-6.2-4.97c-0.84-0.67-1.13-1.74-0.64-2.38
						c0.48-0.64,1.56-0.62,2.39,0.05l4.38,3.51l2.25-5.2c0.33-0.75,1.33-0.92,2.24-0.38c0.91,0.55,1.39,1.6,1.06,2.35l-2.95,6.83
						c-0.17,0.4-0.56,0.66-1.05,0.69C1477.75,568.9,1477.67,568.9,1477.59,568.89z"/>
				</g>
			</g>
			<g>
				<g>
					<path class="st15" d="M1447.76,574.32c-6.1,0-12.51-4.96-14.29-11.06c-1.78-6.1,1.73-11.06,7.83-11.06s12.51,4.96,14.29,11.06
						C1457.37,569.36,1453.86,574.32,1447.76,574.32z M1441.89,554.23c-4.98,0-7.86,4.05-6.4,9.04c1.46,4.98,6.69,9.04,11.68,9.04
						c4.98,0,7.86-4.05,6.4-9.04C1452.12,558.28,1446.88,554.23,1441.89,554.23z"/>
				</g>
				<g>
					<path class="st15" d="M1445.95,568.89c-0.42-0.03-0.86-0.21-1.24-0.51l-6.2-4.97c-0.84-0.67-1.13-1.74-0.64-2.38
						c0.48-0.64,1.55-0.62,2.39,0.05l4.38,3.51l2.25-5.2c0.33-0.75,1.33-0.92,2.24-0.38c0.91,0.55,1.39,1.6,1.06,2.35l-2.96,6.83
						c-0.17,0.4-0.56,0.66-1.05,0.69C1446.11,568.9,1446.03,568.9,1445.95,568.89z"/>
				</g>
			</g>
			<g>
				<g>
					<path class="st15" d="M1414.99,574.32c-6.1,0-12.51-4.96-14.29-11.06c-1.78-6.1,1.73-11.06,7.83-11.06s12.51,4.96,14.29,11.06
						C1424.6,569.36,1421.08,574.32,1414.99,574.32z M1409.12,554.23c-4.98,0-7.86,4.05-6.4,9.04c1.46,4.98,6.69,9.04,11.68,9.04
						c4.98,0,7.86-4.05,6.4-9.04C1419.34,558.28,1414.1,554.23,1409.12,554.23z"/>
				</g>
				<g>
					<path class="st15" d="M1413.18,568.89c-0.42-0.03-0.86-0.21-1.24-0.51l-6.2-4.97c-0.84-0.67-1.13-1.74-0.64-2.38
						c0.48-0.64,1.56-0.62,2.39,0.05l4.38,3.51l2.25-5.2c0.33-0.75,1.33-0.92,2.24-0.38c0.91,0.55,1.39,1.6,1.06,2.35l-2.96,6.83
						c-0.17,0.4-0.56,0.66-1.05,0.69C1413.34,568.9,1413.26,568.9,1413.18,568.89z"/>
				</g>
			</g>
			<g>
				<g>
					<path class="st16" d="M1509.93,574.32c-6.1,0-12.51-4.96-14.29-11.06c-1.78-6.1,1.73-11.06,7.83-11.06
						c6.1,0,12.51,4.96,14.29,11.06C1519.54,569.36,1516.02,574.32,1509.93,574.32z M1504.06,554.23c-4.98,0-7.86,4.05-6.4,9.04
						c1.46,4.98,6.69,9.04,11.68,9.04c4.98,0,7.85-4.05,6.4-9.04C1514.28,558.28,1509.04,554.23,1504.06,554.23z"/>
				</g>
				<g>
					<path class="st16" d="M1507.23,565.07L1507.23,565.07c-0.86,0-1.77-0.7-2.02-1.56l-1.37-4.7c-0.25-0.86,0.25-1.56,1.11-1.56
						l0,0c0.86,0,1.77,0.7,2.02,1.56l1.37,4.7C1508.58,564.37,1508.09,565.07,1507.23,565.07z"/>
					<path class="st16" d="M1508.47,568.76h-0.34c-0.77,0-1.58-0.63-1.8-1.4l0,0c-0.22-0.77,0.22-1.4,0.99-1.4h0.34
						c0.77,0,1.58,0.63,1.8,1.4l0,0C1509.68,568.13,1509.24,568.76,1508.47,568.76z"/>
				</g>
			</g>
		</g>
	</g>
	<g>
		<g>
			<path class="st17" d="M444.9,880.65c0,0,16.67,4.28,27.27,1.09c10.6-3.19,28.83,2.05,31.77,5.91c2.94,3.86,1.86,5.4-3.38,6.73
				c-5.24,1.33-23.81,9.25-36.01,4.67c-12.2-4.58-28.12-4.75-28.12-4.75L444.9,880.65z"/>
			<path class="st18" d="M300.83,735.84c0,0,18.73,133.09,49.73,145.01c15.3,5.88,82.92,19.22,102.92,20.56c0,0,4.9-3.98,3.71-20.16
				c0,0-70.84-26.01-80.91-40.15c-14.98-21.05,9.3-86-9.5-105.77C347.99,715.56,316.34,707.07,300.83,735.84z"/>
		</g>
		<path class="st19" d="M311.65,1263.54h9.04c4.64,0,8.43-3.79,8.43-8.43v-209.79c0-4.64-3.79-8.43-8.43-8.43h-9.04
			c-4.64,0-8.43,3.79-8.43,8.43v209.79C303.22,1259.75,307.02,1263.54,311.65,1263.54z"/>
		<path class="st19" d="M236.26,1278.44c8.38-17.34,40.98-30.27,79.92-30.27s71.54,12.93,79.92,30.27H236.26z"/>
		<path class="st19" d="M257.54,1219.64h117.27c1.23,0,2.24-1.01,2.24-2.24v-4.65c0-1.23-1.01-2.24-2.24-2.24H257.54
			c-1.23,0-2.24,1.01-2.24,2.24v4.65C255.3,1218.63,256.31,1219.64,257.54,1219.64z"/>
		<path class="st20" d="M307.14,1016.24c5.46,9.27,11.78,17.95,18.29,26.17c20.13,25.41,42.04,46.36,45.85,66.16
			c0.76,3.95,1.96,8.2,3.54,12.67c1.59,4.54,3.56,9.31,5.84,14.24c8.54,18.55,21.31,39.34,34.06,58.24
			c22.04,32.67,42.77,59.92,42.77,59.92l38.02-1.62c-1.52-3.81-18.1-48.91-40.28-104.03c-9.01-22.38-18.58-46.18-27.82-69.13
			c-1.23-3.07-2.46-6.12-3.68-9.14c-2.83-7.02-5.61-13.94-8.32-20.67c-20.83-51.75-37.42-92.97-37.42-92.97s-83.24-31.53-91.89-11.1
			C278.98,961.83,284.79,978.34,307.14,1016.24z"/>
		<path class="st20" d="M458.69,1246.73c0,0,1.94,31.37,8.01,31.82c0.81,0.06,30.78,0.06,30.78,0.06l38.26-0.22
			c0,0-0.25-9.22-11.43-11.17c-11.19-1.95-29.91-9.81-36.68-24.59C480.51,1227.08,458.69,1246.73,458.69,1246.73z"/>
		<path class="st20" d="M370.66,1157.12c0,0-26.44,16.99-23.88,22.51c0.34,0.73,14.95,26.91,14.95,26.91l18.85,33.3
			c0,0,7.93-4.71,4.18-15.43c-3.75-10.72-6.01-30.89,3.59-44.02C398.46,1166.58,370.66,1157.12,370.66,1157.12z"/>
		<path class="st10" d="M407.9,942.05c0,0,103.03,64.15,114.69,107.88c11.66,43.74-138.99,137.04-138.99,137.04
			s-16.52-14.58-19.44-25.27c0,0,68.1-81.58,82.87-99.87c9.07-11.23-134.13-38.88-151.63-66.09c-17.5-27.21-11.23-50.11-11.23-50.11
			L407.9,942.05z"/>
		<path class="st12" d="M209.25,1083.01h213.84c4.28,0,7.78-3.5,7.78-7.78v-42.77c0-4.28-3.5-7.78-7.78-7.78H209.25
			c-4.28,0-7.78,3.5-7.78,7.78v42.77C201.48,1079.51,204.98,1083.01,209.25,1083.01z"/>
		<path class="st17" d="M358.12,713.03c10.26,6.36,15.92,14.42,15.92,14.42c-25.03,6.47-66.53-16.72-66.53-16.72
			s16.11-10.83,22.08-34.61c0.3-1.2,0.58-2.43,0.82-3.69c0.78-4.01,1.27-8.34,1.36-13.02l11.5,10.3l19.12,17.13
			c0,0-0.43,7.11-2.83,19.33C359.15,708.3,358.67,710.59,358.12,713.03z"/>
		<path class="st10" d="M281.01,831.21c3.58,48.22-1.13,121.56,2.94,134.26c3.51,10.96,43.51,4.44,59.47,0.79
			c5.91-1.35,13.07-3.29,20.46-5.58c20.62-6.38,43.09-15.5,45.5-22.27c0.09-0.27,0.17-0.52,0.22-0.78c0.22-0.98,0.17-1.9-0.04-2.84
			c-0.8-3.45-3.9-7.18-4.26-15.72c-0.41-9.54-0.35-20.77-0.7-32.84c-0.02-1.36-0.04-2.84-0.19-4.2l-0.01-0.5
			c-0.01-0.26-0.01-0.51-0.02-0.77c-0.35-13.47-1.05-27.63-1.87-41.67c-0.52-8.82-1.12-17.55-1.81-25.92
			c-1.8-21.6-4.22-40.81-7.43-52.96c-5.24-19.8-16.8-32.71-27.32-42.17l-7.61-6.53c-8.49,1.85-18.53,0.62-27.61-3.68
			c-9.83-4.67-13.22-8.01-14.93-6.75C293.1,718.6,276.78,772.26,281.01,831.21z"/>
		<path class="st20" d="M363.88,960.68c20.62-6.38,43.09-15.5,45.5-22.27c0.09-0.27,0.17-0.52,0.22-0.78
			c-0.01-0.95-0.02-1.89-0.04-2.84c-0.8-3.45-3.9-7.18-4.26-15.72c-0.41-9.54-0.35-20.77-0.7-32.84c-0.02-1.36-0.04-2.84-0.19-4.2
			l-0.01-0.5c-0.01-0.26-0.01-0.51-0.02-0.77l-77.88-35.32C326.49,845.44,322,908.22,363.88,960.68z"/>
		<path class="st21" d="M362.39,686.83c0,0-0.43,7.11-2.83,19.33c-18.67-6.03-27.14-22.9-29.97-30.05c-0.8-2.02-1.15-3.27-1.15-3.27
			s0.72-0.16,1.97-0.42c2.62-0.56,7.57-1.61,12.85-2.72L362.39,686.83z"/>
		<path class="st17" d="M369.95,686.65c0,0-41.02,4.63-43.51-20.96c-2.49-25.59-9.46-42.23,16.63-46.26
			c26.08-4.04,32.13,5.23,35.04,13.57C381.01,641.33,380.55,684.78,369.95,686.65z"/>
		<path class="st2" d="M326.62,667.45c0,0,2.6-33.97,39.94-37.48c25.58-2.41,11.32-24.42,8.59-27.93c0,0-19.59,2.69-39.68,6
			C293.31,615,322.48,662.16,326.62,667.45z"/>
		<g>
			
				<rect x="540.35" y="818.15" transform="matrix(-0.9511 -0.3089 0.3089 -0.9511 789.9816 1860.2146)" class="st18" width="3.78" height="98.86"/>
			
				<rect x="425.1" y="907.85" transform="matrix(-0.9998 -0.0214 0.0214 -0.9998 934.3796 1831.8909)" class="st18" width="103.74" height="6.21"/>
		</g>
		<g>
			<path class="st17" d="M436.32,901.11c0,0,16.1,6.09,26.98,4.09c10.88-2,28.43,5.22,30.93,9.38c2.49,4.16,1.25,5.57-4.1,6.32
				c-5.36,0.75-24.68,6.57-36.31,0.67c-11.62-5.9-27.42-7.82-27.42-7.82L436.32,901.11z"/>
			<path class="st10" d="M309.1,741.3c0,0,3.94,134.35,33.44,149.61c14.56,7.53,80.29,28.24,100.03,31.78c0,0,5.31-3.41,5.91-19.62
				c0,0-67.54-33.66-75.99-48.83c-12.57-22.57,18.72-84.45,2.22-106.17C358.2,726.35,327.68,714.41,309.1,741.3z"/>
		</g>
	</g>
	<g>
		<path class="st22" d="M1430.02,1274.29c0,0,1.51-11.73,4.99-18.71c3.49-6.98,25.69-2.54,25.69-2.54s4.44,3.81,5.39,21.57
			L1430.02,1274.29z"/>
		<path class="st22" d="M1354.38,1274.13c5.22-3.18,2.25-26.94,2.25-26.94s-24.31-19.44-27.65-4.56
			c-3.34,14.89-23.09,21.57-34.33,23.39c-7.76,1.26-10.16,5.56-10.91,8.1H1354.38z"/>
		<path class="st23" d="M1404.73,1101.38c-0.99,5.45-1.62,9.92-1.78,13.13c-2.26,44.07-37.1,144.84-43.33,147.19
			c-9.64,3.64-24.83-4.09-32.77-6.63c-3.29-1.05-5.51-4.37-4.78-7.74c17.25-79.32,23.59-193.53,25.9-261.15
			c1.17-34.06,7.01-57.59,7.01-57.59s84.97-22.67,85.48,6.01C1440.9,959.98,1412.31,1059.51,1404.73,1101.38z"/>
		<path class="st2" d="M1404.73,1101.38l-56.76-115.19c1.17-34.06,7.01-57.59,7.01-57.59s84.97-22.67,85.48,6.01
			C1440.9,959.98,1412.31,1059.51,1404.73,1101.38z"/>
		<path class="st23" d="M1385.82,934.71l44.92,325.57c0,0,19.73,4.76,35.07,0.95c0,0,13.15-173.15,12.06-215.01
			c-1.1-41.86,9.44-112.01-2.4-119.75C1463.62,918.73,1385.82,934.71,1385.82,934.71z"/>
		<path class="st14" d="M1478.62,851.12l5.6,78.16c0.22,2.94-1.67,5.62-4.5,6.44c-6.27,1.82-13.49,3.08-27.42,5.97
			c-13.09,2.72-30.69,5.12-52.33,5.26c-34.41,0.22-47.44-11.64-47.44-11.64c-1.48,0.03,0.78-7.17,2.82-41.41
			c0.69-11.6,1.36-26.3,1.84-44.88c0.43-16.72,0.73-36.58,0.75-60.15c0.04-28.35,43.91-58.84,44.72-58.84l0.01,0.01
			c0,4.08,6.43,11.61,16.34,12.26c11.76,0.77,26.19-5.08,26.19-11.86c0-0.07,21.26,34.01,28.81,70.31c0.96,4.6,1.7,9.46,2.29,14.57
			c0.01,0.08,0.02,0.16,0.03,0.23c0.11,0.93,0.21,1.87,0.31,2.82c0.02,0.17,0.03,0.33,0.05,0.5c0.09,0.86,0.17,1.73,0.25,2.6
			c0.02,0.25,0.04,0.5,0.06,0.75c0.07,0.8,0.14,1.6,0.21,2.41c0,0.07,0.01,0.15,0.02,0.22c0.05,0.6,0.09,1.2,0.14,1.81
			c0.03,0.43,0.06,0.86,0.1,1.29c0.05,0.71,0.1,1.41,0.15,2.13c0.02,0.36,0.05,0.71,0.07,1.08c0.04,0.68,0.08,1.36,0.12,2.05
			c0.02,0.3,0.04,0.61,0.05,0.91c0.05,0.99,0.11,1.99,0.16,2.99c0,0.08,0.01,0.16,0.01,0.24c0.05,0.96,0.1,1.94,0.14,2.92
			c0.01,0.24,0.02,0.48,0.03,0.72c0.05,0.92,0.09,1.84,0.12,2.78c0,0.14,0.01,0.28,0.02,0.41
			C1478.45,846.46,1478.53,848.78,1478.62,851.12c0,0.06,0,0.12,0.01,0.18L1478.62,851.12z"/>
		<path class="st14" d="M1402.67,730.03c0,0-40.8-0.35-50.62,13.42c-9.82,13.77-31.35,87.85-20.11,112.5
			c11.23,24.65,32.26-10.2,43.92-25.3C1387.53,815.56,1402.67,730.03,1402.67,730.03z"/>
		<path class="st24" d="M1402.26,723.8l0.02,4.22c0,0-1.15,13.19,15.09,15.12c16.24,1.93,28.55-5.14,28.11-15.32
			c-1.46-7.88-3.07-13.29-3.18-19.81c-0.04-2.42,0.13-4.99,0.58-7.9l-31.47-0.63l-9.27,1.51L1402.26,723.8z"/>
		<path class="st25" d="M1402.14,700.99l0.12,22.81c3.34,1.55,7.12,2.5,11.34,2.5c14.46,0,23.81-10.61,28.7-18.31
			c-0.04-2.42,0.13-4.99,0.58-7.9l-31.47-0.63L1402.14,700.99z"/>
		<path class="st24" d="M1445.29,695.04c-3.65,19.65-29.01,19.01-39.97,17.77c-3.08-0.34-5.02-0.74-5.02-0.74
			c-3.48-0.93-5.42-6.41-6.32-13.58c-1.79-14.2,0.47-35.04,2.87-40.37c3.61-8.02,10.41-16.7,35.95-10.44
			C1458.33,653.95,1449.98,669.86,1445.29,695.04z"/>
		<path class="st26" d="M1360.95,785.24c0,0-15.78,34.85-15.32,45.29c0,0,7.81-0.27,15.32,1.97
			C1373.29,836.18,1360.95,785.24,1360.95,785.24z"/>
		<path class="st22" d="M1389.01,639.41c0,0,11.24-0.86,24.5-6.63c10.76-4.68,24.34,0.47,28.74,2.8c-0.12-0.71-0.4-1.68-1.08-2.65
			c0,0,1.98,1.4,2.27,3.36c0.2,0.15,0.29,0.25,0.24,0.29c0,0,2.24-0.41,3.68,0.24c0,0-1.01-0.14-1.37,0.5
			c-0.04,0.07-0.09,0.13-0.16,0.18c16.79,8.11,18.33,34.64,12.93,40.78c-6.5,7.39-14.29,24.02-14.29,24.02s-2.84-3.93-1.66-10.43
			c1.18-6.5-4.43-6.5-11.52-9.45c-7.09-2.95-1.18-11.23-7.39-16.25c-6.2-5.02-28.95-2.07-28.65-5.91
			C1386.83,657.18,1389.01,640.28,1389.01,639.41z"/>
		<path class="st26" d="M1450.43,850.51c-6.66,26.75-78.7,40.57-95.08,43.38c0.69-11.6,1.36-26.3,1.84-44.88L1450.43,850.51z"/>
		<path class="st24" d="M1434.62,859.21c0.69,0,16.01-2.29,18.76-3.66c2.75-1.37,15.3-19.22,7.08-23.79
			c-8.22-4.58-30.3,13.73-30.3,13.73L1434.62,859.21z"/>
		<path class="st27" d="M1336.68,864.46c0,0,62.1,3.5,103.77-5.77c0,0,1.05-12.51-12.05-18.06c0,0-64.95-14.3-80.55-10.32
			C1332.25,834.29,1336.68,864.46,1336.68,864.46z"/>
		<path class="st14" d="M1477.54,817.99c-12.3,14.83-28.39,26.95-46.12,29.78l0,0c-0.15-0.22-5.37-8.15-4.39-19.8
			c0.45-5.39,2.23-11.58,6.46-18.17c1.3-2.03,2.46-4.4,3.49-7.03c9.68-24.7,8.24-72.32,8.24-72.32s41.12,4.31,53.93,22.61
			C1506.98,764.26,1496.98,794.53,1477.54,817.99z"/>
		<path class="st25" d="M1405.32,712.81c-3.08-0.34-5.02-0.74-5.02-0.74c-3.48-0.93-5.42-6.41-6.32-13.58
			c6.52,1.61,9.51,6.64,10.75,8.79C1405.29,708.24,1405.41,710.41,1405.32,712.81z"/>
		<path class="st24" d="M1388.76,723.92c0,0-14.2-23.43-3.16-24.45c11.04-1.02,15.48,6.45,17.07,9.2
			c1.59,2.75-0.42,15.13-0.42,15.13L1388.76,723.92z"/>
		<path class="st14" d="M1442.88,827.18c-0.43,2.97-1.32,5.7-2.42,8.14c-3.47,7.7-9.04,12.45-9.04,12.45l0,0
			c-36.88-16.65-44.34-73.81-45.59-105.22c-0.5-12.62,0-21.09,0-21.09c16.64-5.51,21.31,4.06,21.31,4.06s19.64,46.71,29.83,77.24
			C1440.87,814.44,1443.38,823.76,1442.88,827.18z"/>
		<path class="st26" d="M1477.54,817.99c-12.3,14.83-28.39,26.95-46.12,29.78l0,0c-36.88-16.65-44.34-73.81-45.59-105.22
			c0,0,17.45,63.29,41.2,85.42c4.29,4,8.79,6.66,13.43,7.35c0,0,29.95-8.46,36.23-16.44
			C1477.14,818.31,1477.42,818.02,1477.54,817.99z"/>
	</g>
	<path class="st28" d="M2559.31,1280.28H18.23c-1.59,0-2.89-1.3-2.89-2.89v-0.98c0-1.59,1.3-2.89,2.89-2.89h2541.08
		c1.59,0,2.89,1.3,2.89,2.89v0.98C2562.19,1278.98,2560.89,1280.28,2559.31,1280.28z"/>
	<g>
		<path class="st12" d="M2085.68,1220.7c7.19,26.88,60.33,42.7,118.46,51.98h216.91c52.28-25.6,52.21-56.13,56.41-140.43
			c8.66-174.12-82.93-258.18-123.78-244.31c-1.7,0.58-3.43,1.2-5.19,1.92c-11.87,4.77-25.16,13.21-38.1,33.28
			c0,0-40.6,67.66-74.01,108.02c-10.76,12.99-20.77,23.17-28.43,27.33c-0.09,0.05-0.17,0.1-0.27,0.14c-0.41,0.22-0.8,0.41-1.2,0.59
			c-17.7,8.1-42.65,25.09-65.44,46.52c0,0,0,0-0.01,0C2105.68,1138.96,2075.54,1182.81,2085.68,1220.7z"/>
		<path class="st29" d="M2141.03,1105.74c30.41,9.34,186.94,54.53,223.78,6.62c26.67-34.7,10.07-123.59-4.67-181.1
			c-6.04-23.57-36.18-28.93-49.37-8.71c-0.13,0.2-0.26,0.4-0.39,0.6c0,0-40.6,67.66-74.01,108.02
			c-9.67,12.75-19.2,22.58-28.43,27.33c-0.09,0.05-0.17,0.1-0.27,0.14c-0.4,0.22-0.8,0.41-1.2,0.59
			C2188.77,1067.33,2163.82,1084.31,2141.03,1105.74z"/>
		<g>
			<path class="st30" d="M2257.47,886.08c0,0-10.85,16.05-17.03,49.79c-5.42,29.55-10.17,40.46-17.99,46.52
				c-7.82,6.06-51.42,23.95-51.42,23.95l3.26,7.64c0,0,63.9-8.7,71.08-19.38c7.18-10.68,34.54-73.78,32.42-88.31
				C2275.65,891.77,2257.47,886.08,2257.47,886.08z"/>
			<g>
				<path class="st24" d="M2100.99,1238.58c0.58,6.23-8.1,7.75-18.15,8.25c-10.05,0.5-7.01,2.56-20.78,5.05
					c-13.77,2.49-19.29-1.27-20.29-3.13c-0.89-1.65,5.51-4.23,12.34-7.15c0.86-0.36,1.72-0.74,2.58-1.12
					c7.68-3.38,11.99-10.26,17.97-16.65c5.67-6.05,11.05-25.41,11.05-25.41l18.71-4c0,0-5.25,17.43-7.08,24.87
					c-1.07,4.38,0.51,9.27,1.92,12.99C2100.03,1234.31,2100.79,1236.38,2100.99,1238.58z"/>
				<path class="st31" d="M2082.85,1246.82c-10.05,0.5-7.01,2.56-20.78,5.05c-13.77,2.49-19.29-1.27-20.29-3.13
					c-0.89-1.65,5.51-4.23,12.34-7.15l0.11,0.12c0,0,9.68,3.29,20.86,0.25c9.11-2.47,17.92-7.92,24.19-9.68
					c0.76,2.03,1.52,4.1,1.72,6.3C2101.57,1244.81,2092.89,1246.32,2082.85,1246.82z"/>
			</g>
			<path class="st20" d="M2287.34,1016.67c0,0-124.35-9.36-147.76,5.42c-23.41,14.77-60.95,186.87-60.95,186.87s2.32,1.86,7.49,2.42
				c4.81,0.52,15.41-2.31,15.41-2.31s53.96-77,57.76-96.4c3.8-19.4,2.87-36.71,11.53-37.17c8.65-0.46,116.54,13.12,132.86-15.63
				c16.32-28.75,2.83-57.21,2.83-57.21L2287.34,1016.67z"/>
			<g>
				<path class="st24" d="M2148.58,1258.55c0.58,6.23-8.1,7.75-18.15,8.25c-10.05,0.5-7.01,2.56-20.78,5.05
					c-13.77,2.49-19.29-1.27-20.29-3.13c-0.89-1.65,5.51-4.23,12.34-7.15c0.86-0.36,1.72-0.74,2.58-1.12
					c7.68-3.38,11.99-10.26,17.97-16.65c5.67-6.05,11.06-25.41,11.06-25.41l18.71-4c0,0-5.25,17.43-7.08,24.87
					c-1.07,4.38,0.51,9.27,1.91,12.99C2147.61,1254.28,2148.38,1256.35,2148.58,1258.55z"/>
				<path class="st31" d="M2130.43,1266.8c-10.05,0.5-7.01,2.56-20.78,5.05c-13.77,2.49-19.29-1.27-20.29-3.13
					c-0.89-1.65,5.51-4.23,12.34-7.15l0.11,0.12c0,0,9.68,3.29,20.86,0.25c9.11-2.47,17.92-7.92,24.19-9.68
					c0.76,2.03,1.52,4.1,1.72,6.3C2149.15,1264.78,2140.48,1266.3,2130.43,1266.8z"/>
			</g>
			<path class="st10" d="M2311.69,1024.38c0,0-110.46,5.23-133.28,20.9c-22.82,15.67-53.64,189.1-53.64,189.1s2.39,1.77,7.58,2.12
				c4.83,0.33,15.31-2.91,15.31-2.91s50.92-79.04,53.96-98.57c3.04-19.53,1.44-36.79,10.07-37.59s116.96,8.57,132.15-20.79
				C2359.04,1047.28,2311.69,1024.38,2311.69,1024.38z"/>
			<path class="st32" d="M2273.88,877.25c-2.14-3.76-4.71-10.52-6.56-22.76c0.24,1.21,3.4,16.59,9.95,24.98
				c25.59,14.46,76.15,65.07,75.9,75.31c0,0,14.68-29.17,14.95-29.36c0,0,27.94-40.86-9.72-60.68
				c-19.14-10.08-20.02-24.59-20.09-37.24c-0.07-12.65-9.47-66.51-45.36-49.86c0,0-6.09-2.23-8.71-1.66c0,0,2.19,0.27,3.37,1.33
				c-4.29,0.03-10.37,0.76-15.27,3.99C2259.34,789.87,2251.85,859.52,2273.88,877.25z"/>
			<path class="st24" d="M2316.34,867.6c0,0-10.29-0.98-20.57,0c-6.99,0.66-13.91,2.83-17.85,4.48
				c-9.74,4.07-8.71,21.31,11.71,18.11C2310.05,887,2317.77,872.71,2316.34,867.6z"/>
			<path class="st24" d="M2278.77,880.17c-0.12,0.06-2.91,14.83,10.46,14.24c8.78-0.39,27.72-11.01,26.05-18.53
				c-0.79-3.57-7.43-12.85-8.77-34.01l-1.6,0.43l-26.88,7.21c0,0,1.19,8.53,1.75,16.6C2280.26,872.88,2280.28,879.34,2278.77,880.17
				z"/>
			<path class="st30" d="M2278.04,849.5c0,0,1.19,8.53,1.75,16.6c15.21-1.45,22.34-15.89,25.13-23.81L2278.04,849.5z"/>
			<path class="st32" d="M2307.53,839.14c0,0,7.15-13.15,8.34-24.07c0.86-7.8-4.97-36.09-33.4-30.07c0,0-8.28,1.38-15.76,7.19
				c-5.95,4.62-14.34,14.31-2.62,38.56l3.17,8.24L2307.53,839.14z"/>
			<path class="st24" d="M2273.46,857.48c0,0,36.1-1.81,34.63-24.27c-1.47-22.46,2.19-37.83-20.92-37.62
				c-23.11,0.21-27.02,9.07-28.35,16.69C2257.49,819.9,2264.03,857.38,2273.46,857.48z"/>
			<path class="st32" d="M2270.71,796.13c0,0,11.63,25.69,27.04,28.58c15.41,2.89,21.71-1.61,21.71-1.61s-12.24-8.46-15.72-24.41
				C2303.74,798.69,2277.32,783.1,2270.71,796.13z"/>
			<path class="st32" d="M2273.3,798.11c0,0-6.98,6.38-8.4,12.21c-1.42,5.84-1.44,17.67-4.9,17.5c0,0-8.63-17.42-0.95-28.11
				C2267.21,788.38,2273.3,798.11,2273.3,798.11z"/>
			<path class="st10" d="M2237.34,1018.55c2.92,3.49,12.04,4.57,21.79,6.17c7.67,1.27,15.73,2.85,21.46,6.22
				c13.01,7.64,55.53,33.46,67.99,32.29c4.83-0.46,3.93-9.68,1-21.92c-4.61-19.33-14.25-46.16-14.25-57.83
				c0-6.37-2.12-21.44-4.95-38.67c-0.23-1.39-0.46-2.79-0.7-4.2c-5.6-33.5-13.35-73.01-13.35-73.01s-8.65,18.87-25.5,18.87
				c-16.84,0-12.93-14.39-12.93-14.39s-15.37,1.81-19,5.72c-3.64,3.91-12.84,20.82-14.67,25.43c0,0-0.37,5.87,14.16,8.66
				c0,0-3.54,15.93-3.96,26.55c-0.31,7.84,5.35,32.39,6.98,47.67c0.58,5.41,0.65,9.65-0.22,11.58c-1.12,2.47-4.76,4.92-8.9,7.33
				C2244.08,1009.79,2233.87,1014.4,2237.34,1018.55z"/>
			<path class="st20" d="M2252.29,1005.01c-9.33,15.9,25.29,20.68,31.02,24.04c13.01,7.64,52.81,35.34,65.27,34.17
				c4.83-0.46,3.93-9.68,1-21.92c-4.61-19.33-14.25-46.16-14.25-57.83c0-6.37-2.12-21.44-4.95-38.67l-15-14.4
				c0,0-16.07,41.54-31.39,48.35c-8.03,3.56-16.41,5.92-22.58,7.35c0.58,5.41,0.65,9.65-0.22,11.58
				C2260.07,1000.15,2256.43,1002.6,2252.29,1005.01z"/>
			<path class="st24" d="M2320.95,880.03c0,0,12.83-7.79,25.22,6.99c12.4,14.77-8.81,120.39-27.19,125.81
				c-20.41,6.03-79.36-0.96-79.36-0.96l1.14-9.21c0,0,62.76-12.03,65.37-15.39C2308.74,983.91,2314.43,881.74,2320.95,880.03z"/>
			<path class="st10" d="M2316.34,867.6c0,0,26.34,2.38,33.99,11.04c7.65,8.66,9.89,32.14,9.89,32.14s-23.19,18.72-51.14,11.46
				L2316.34,867.6z"/>
			<g>
				
					<rect x="2198.67" y="1016.8" transform="matrix(-1 -1.224647e-16 1.224647e-16 -1 4432.1387 2037.7159)" class="st29" width="34.79" height="4.11"/>
				<path class="st29" d="M2206.06,1020.35c-0.34-1.36-31.98-51.04-31.98-51.04h-70.4l35.31,49.71L2206.06,1020.35z"/>
				<path class="st12" d="M2203.1,1020.91c-0.34-1.36-32.08-51.61-32.08-51.61h-67.33l33.59,51.61H2203.1z"/>
				<path class="st29" d="M2143.74,995.28c0.69,2.01,2.89,3.64,4.9,3.64c2.01,0,3.08-1.63,2.39-3.64c-0.69-2.01-2.89-3.65-4.9-3.65
					C2144.12,991.63,2143.05,993.26,2143.74,995.28z"/>
			</g>
			<path class="st24" d="M2245.88,1002.11c0,0-20.44-3.96-22.74-2.97c-2.31,0.99-15.16,12.53-13.84,14.83
				c1.32,2.31,6.59,3.96,12.52,1.98c5.93-1.98,18.79-2.97,21.09-5.93C2245.22,1007.05,2245.88,1002.11,2245.88,1002.11z"/>
		</g>
	</g>
	<g>
		<polygon class="st33" points="1810.17,429.35 1167.13,429.35 1117.85,267.97 1760.89,267.97 		"/>
		<g>
			<path class="st34" d="M1736.42,322.54l5.89,19.3c2.59,8.49-2.23,15.44-10.73,15.44h-532.74c-8.49,0-17.56-6.95-20.16-15.44
				l-5.89-19.3c-2.59-8.49,2.23-15.44,10.73-15.44h532.74C1724.75,307.1,1733.82,314.05,1736.42,322.54z"/>
			<g>
				<path class="st13" d="M1629.73,326.57h-8.17l-0.77-2.51h11.43l0.66,2.16l-3.03,14.1h-3.21L1629.73,326.57z"/>
				<path class="st13" d="M1636.7,332.19c-1.42-4.64,0.27-8.41,4.54-8.41c4.25,0,8.19,3.72,9.63,8.41c1.42,4.65-0.27,8.41-4.54,8.41
					S1638.14,336.88,1636.7,332.19z M1647.92,332.19c-0.98-3.2-3.43-5.83-5.94-5.83c-2.51,0-3.33,2.55-2.33,5.83
					c0.98,3.21,3.4,5.83,5.94,5.83C1648.12,338.02,1648.91,335.44,1647.92,332.19z"/>
				<path class="st13" d="M1652.05,328.03c-0.69-2.25,0.29-4.16,2.58-4.16c2.28,0,4.38,1.88,5.08,4.16
					c0.69,2.25-0.29,4.16-2.58,4.16C1654.85,332.19,1652.74,330.31,1652.05,328.03z M1664.37,324.06h2.3l-6.93,16.26h-2.3
					L1664.37,324.06z M1657.64,328.03c-0.4-1.3-1.47-2.37-2.51-2.37c-1.09,0-1.42,1.07-1.02,2.37c0.4,1.32,1.47,2.37,2.51,2.37
					C1657.72,330.4,1658.04,329.33,1657.64,328.03z M1664.41,336.35c-0.69-2.25,0.29-4.16,2.59-4.16c2.28,0,4.38,1.88,5.08,4.16
					c0.69,2.25-0.29,4.16-2.58,4.16C1667.21,340.5,1665.1,338.62,1664.41,336.35z M1670,336.35c-0.4-1.3-1.47-2.37-2.51-2.37
					c-1.09,0-1.42,1.07-1.02,2.37c0.4,1.32,1.46,2.37,2.51,2.37C1670.08,338.72,1670.4,337.65,1670,336.35z"/>
			</g>
			<g>
				<path class="st35" d="M1543.75,307.1l15.33,50.19h-360.23c-7.08,0-14.55-4.83-18.34-11.34c-0.77-1.31-1.39-2.69-1.82-4.11
					l-5.89-19.3c-2.59-8.49,2.23-15.44,10.73-15.44H1543.75z"/>
				<path class="st36" d="M1247.28,307.1l-15.19,50.19h-33.25c-7.08,0-14.55-4.83-18.34-11.34l11.75-38.85H1247.28z"/>
				<polygon class="st36" points="1341.55,307.1 1326.36,357.28 1271.35,357.28 1286.54,307.1 				"/>
				<polygon class="st36" points="1435.83,307.1 1420.65,357.28 1365.62,357.28 1380.81,307.1 				"/>
				<polygon class="st36" points="1530.12,307.1 1514.93,357.28 1459.91,357.28 1475.1,307.1 				"/>
			</g>
		</g>
		<g>
			<polygon class="st6" points="1296.55,387.01 1200.33,387.01 1198.31,380.38 1294.52,380.38 			"/>
			<polygon class="st6" points="1275.91,405.57 1206,405.57 1203.97,398.94 1273.88,398.94 			"/>
			<polygon class="st6" points="1322.01,405.57 1280.22,405.57 1278.19,398.94 1319.98,398.94 			"/>
			<polygon class="st6" points="1393.07,405.57 1329.24,405.57 1327.21,398.94 1391.04,398.94 			"/>
			<polygon class="st6" points="1332.91,387.01 1303.78,387.01 1301.75,380.38 1330.89,380.38 			"/>
			<polygon class="st6" points="1448.82,387.01 1342.88,387.01 1340.86,380.38 1446.79,380.38 			"/>
		</g>
	</g>
	<g>
		<polygon class="st33" points="942.22,672.92 489.85,672.92 419.54,442.67 871.9,442.67 		"/>
		<polygon class="st18" points="878.37,557.79 483.38,557.79 453.5,459.94 848.49,459.94 		"/>
		<g>
			<polygon class="st8" points="548.33,479.82 481.42,479.82 479.83,474.6 546.74,474.6 			"/>
			<polygon class="st8" points="619.9,479.82 564.25,479.82 562.66,474.6 618.3,474.6 			"/>
			<polygon class="st8" points="749.41,479.82 634.39,479.82 632.8,474.6 747.81,474.6 			"/>
			<polygon class="st8" points="554.04,498.53 487.13,498.53 485.54,493.31 552.45,493.31 			"/>
			<polygon class="st8" points="625.61,498.53 569.96,498.53 568.37,493.31 624.01,493.31 			"/>
			<polygon class="st8" points="691.33,498.53 635.68,498.53 634.09,493.31 689.73,493.31 			"/>
			<polygon class="st8" points="823.2,500.71 708.18,500.71 706.59,495.48 821.6,495.48 			"/>
		</g>
		<g>
			<polygon class="st8" points="561.28,522.24 494.38,522.24 492.78,517.02 559.69,517.02 			"/>
			<polygon class="st8" points="632.85,522.24 577.2,522.24 575.61,517.02 631.26,517.02 			"/>
			<polygon class="st8" points="762.36,522.24 647.35,522.24 645.75,517.02 760.77,517.02 			"/>
			<polygon class="st8" points="567,540.95 500.09,540.95 498.49,535.73 565.4,535.73 			"/>
			<polygon class="st8" points="638.56,540.95 582.91,540.95 581.32,535.73 636.97,535.73 			"/>
			<polygon class="st8" points="704.28,540.95 648.63,540.95 647.04,535.73 702.69,535.73 			"/>
			<polygon class="st8" points="836.15,543.12 721.14,543.12 719.54,537.9 834.56,537.9 			"/>
		</g>
		<g>
			<g>
				<g>
					<path class="st15" d="M748.24,638.86c-15.33,0-31.61-12.47-36.3-27.8c-4.68-15.33,3.98-27.8,19.31-27.8
						c15.33,0,31.61,12.47,36.3,27.8C772.23,626.39,763.57,638.86,748.24,638.86z M732.81,588.33c-12.53,0-19.61,10.19-15.79,22.73
						c3.83,12.53,17.14,22.73,29.67,22.73c12.53,0,19.61-10.19,15.79-22.73C758.65,598.53,745.34,588.33,732.81,588.33z"/>
				</g>
				<g>
					<path class="st15" d="M743.5,625.2c-1.06-0.08-2.18-0.53-3.14-1.29l-15.77-12.49c-2.13-1.69-2.89-4.37-1.69-5.98
						c1.19-1.62,3.89-1.56,6.02,0.13l11.14,8.83l5.48-13.06c0.79-1.89,3.31-2.31,5.62-0.94c2.31,1.37,3.54,4.02,2.75,5.91
						l-7.2,17.17c-0.43,1.02-1.38,1.65-2.61,1.74C743.91,625.22,743.71,625.22,743.5,625.2z"/>
				</g>
			</g>
			<g>
				<g>
					<path class="st15" d="M668.68,638.86c-15.33,0-31.61-12.47-36.3-27.8c-4.68-15.33,3.98-27.8,19.31-27.8
						c15.33,0,31.61,12.47,36.3,27.8C692.68,626.39,684.01,638.86,668.68,638.86z M653.25,588.33c-12.53,0-19.61,10.19-15.79,22.73
						c3.83,12.53,17.14,22.73,29.67,22.73c12.53,0,19.61-10.19,15.79-22.73C679.09,598.53,665.78,588.33,653.25,588.33z"/>
				</g>
				<g>
					<path class="st15" d="M663.95,625.2c-1.06-0.08-2.18-0.53-3.14-1.29l-15.77-12.49c-2.13-1.69-2.89-4.37-1.69-5.98
						c1.19-1.62,3.89-1.56,6.02,0.13l11.14,8.83l5.48-13.06c0.79-1.89,3.31-2.31,5.62-0.94c2.31,1.37,3.54,4.02,2.75,5.91
						l-7.2,17.17c-0.43,1.02-1.38,1.65-2.61,1.74C664.35,625.22,664.15,625.22,663.95,625.2z"/>
				</g>
			</g>
			<g>
				<g>
					<path class="st15" d="M586.27,638.86c-15.33,0-31.61-12.47-36.29-27.8c-4.68-15.33,3.98-27.8,19.31-27.8
						c15.33,0,31.61,12.47,36.3,27.8C610.27,626.39,601.6,638.86,586.27,638.86z M570.84,588.33c-12.53,0-19.61,10.19-15.79,22.73
						c3.83,12.53,17.13,22.73,29.67,22.73c12.53,0,19.61-10.19,15.79-22.73C596.68,598.53,583.37,588.33,570.84,588.33z"/>
				</g>
				<g>
					<path class="st15" d="M581.54,625.2c-1.06-0.08-2.18-0.53-3.14-1.29l-15.77-12.49c-2.13-1.69-2.89-4.37-1.69-5.98
						c1.19-1.62,3.89-1.56,6.02,0.13l11.14,8.83l5.48-13.06c0.79-1.89,3.31-2.31,5.62-0.94c2.31,1.37,3.54,4.02,2.75,5.91
						l-7.2,17.17c-0.43,1.02-1.38,1.65-2.61,1.74C581.95,625.22,581.74,625.22,581.54,625.2z"/>
				</g>
			</g>
			<g>
				<g>
					<path class="st12" d="M824.99,638.86c-15.33,0-31.61-12.47-36.29-27.8c-4.68-15.33,3.98-27.8,19.31-27.8
						c15.33,0,31.61,12.47,36.29,27.8C848.99,626.39,840.32,638.86,824.99,638.86z M809.56,588.33c-12.53,0-19.61,10.19-15.79,22.73
						c3.83,12.53,17.13,22.73,29.67,22.73c12.53,0,19.61-10.19,15.79-22.73C835.4,598.53,822.09,588.33,809.56,588.33z"/>
				</g>
				<g>
					<path class="st12" d="M817.89,615.61L817.89,615.61c-2.16,0-4.47-1.77-5.13-3.93l-3.61-11.81c-0.66-2.16,0.57-3.93,2.73-3.93
						l0,0c2.16,0,4.47,1.77,5.13,3.93l3.61,11.81C821.28,613.84,820.05,615.61,817.89,615.61z"/>
					<path class="st12" d="M821.15,624.88h-0.85c-1.93,0-3.99-1.58-4.58-3.51l0,0c-0.59-1.93,0.51-3.51,2.44-3.51H819
						c1.93,0,3.99,1.58,4.58,3.51l0,0C824.17,623.3,823.08,624.88,821.15,624.88z"/>
				</g>
			</g>
		</g>
	</g>
	<g>
		<path class="st29" d="M1906,627.07c0,0,57.22,59.32,59.92,81.65c2.7,22.33-27.41,57.18-27.41,57.18L1906,627.07z"/>
		<path class="st20" d="M1880.15,1241.87c0,0-2.02,31.47-8.11,31.9c-0.81,0.06-30.88-0.01-30.88-0.01l-38.39-0.31
			c0,0,0.27-9.25,11.5-11.18c11.23-1.93,30.02-9.78,36.85-24.59C1858.31,1222.1,1880.15,1241.87,1880.15,1241.87z"/>
		<path class="st20" d="M1965.65,1242.05c0,0-2.02,31.47-8.11,31.9c-0.81,0.06-30.88-0.01-30.88-0.01l-38.39-0.31
			c0,0,0.27-9.25,11.5-11.18c11.23-1.93,30.02-9.78,36.85-24.59C1943.81,1222.29,1965.65,1242.05,1965.65,1242.05z"/>
		<path class="st20" d="M1838.37,903.55c0,0,9.9,64.23,47.11,178.3c37.21,114.07,42.2,163.44,42.2,163.44l40.18-1.04
			c0,0,0.61-124.57-16.52-181.93c-17.14-57.36-3.28-206.65-3.28-206.65L1838.37,903.55z"/>
		<path class="st10" d="M1818.92,858.91c0,0-1.63,96.76,14.85,215.6c16.48,118.84,10.7,169.26,10.7,169.26l40.09,1.42
			c0,0,24.22-118.8,17.48-178.28c-6.74-59.48,33.26-203.98,33.26-203.98L1818.92,858.91z"/>
		<path class="st24" d="M1897.03,632.65l-21.39,13.96l-30.86-5.82c0.43-2.49,2.49-12.82,4.37-22.17c0.11-0.55,0.23-1.1,0.33-1.64
			c1.61-7.96,3-14.79,3-14.79l28.86-12.66l10.76-4.72c-0.03,0.17-0.85,8.83-0.97,10.1C1889.07,617.36,1897.03,632.65,1897.03,632.65
			z"/>
		<path class="st29" d="M1852.72,625.48c0.6-0.25,37.2-10.97,41.18-9.65c3.97,1.32,6.31,9.01,6.31,9.01l-59.86,13.4
			C1840.33,638.25,1845.07,628.68,1852.72,625.48z"/>
		<path class="st12" d="M1950.69,871.14c-6.26,28.27-109.46,31.4-136.01,5.67c-3.02-2.93-3.14-16.55-1.96-34.91
			c2.31-35.87,9.6-89.81,9.93-117.37c0.17-13.31,2.02-26.92,4.49-39.28c5.24-26.34,13.19-47,13.19-47s50.44-16.19,59.86-13.39
			C1945.61,638.3,1956.95,842.87,1950.69,871.14z"/>
		<path class="st29" d="M1812.72,841.91c2.31-35.87,9.6-89.81,9.93-117.37c0.17-13.31,2.02-26.92,4.49-39.28l30.33-5.29
			C1857.47,679.96,1886.86,801.11,1812.72,841.91z"/>
		<path class="st24" d="M1829.25,791.94c0,0,2.06,4.94-2.29,8.25s-7.17,8.68-6.19,12.6c0.98,3.93,10.49,10.36,13.79,9.33
			c3.3-1.03,10.03-6.18,9.31-8.26c-0.72-2.07,4.56-18.17-3.47-24.39C1832.37,783.27,1829.25,791.94,1829.25,791.94z"/>
		<path class="st12" d="M1863.5,631.04c0,0-29.58,5.47-53.22,40.14c-23.64,34.67-39.2,60.45-34.88,72.98
			c4.31,12.52,43.78,56.01,50.6,56.03c6.82,0.01,17.84-4.92,18.48-16.08c0,0-27.76-41.81-22.26-48.05
			c2.35-2.67,36.23-30.05,41.03-17.64C1871.2,738.96,1863.5,631.04,1863.5,631.04z"/>
		<path class="st37" d="M1888.97,595.29c-6.35,10.71-29.97,19.94-39.82,23.33c0.11-0.55,0.23-1.1,0.33-1.64
			c1.61-7.96,3-14.79,3-14.79l28.86-12.66C1887.71,589.45,1891.59,590.88,1888.97,595.29z"/>
		<path class="st24" d="M1841.61,600.4c0,0,46.42,14.59,55.06-14.46c8.64-29.05,20.45-46.73-8.82-57.27
			c-29.27-10.54-38.35-1.18-43.6,7.81C1839.01,545.48,1829.75,595.86,1841.61,600.4z"/>
		<path class="st20" d="M1846.08,533.69c0,0,2.89,33.83,9.89,32.38c7-1.45,13.34-2.53,12.3,7.67c-1.05,10.19-10.77,21.95,10.78,23.8
			c21.55,1.85,52.66-53.68,46.77-64.22C1908.79,502.9,1821.46,496.59,1846.08,533.69z"/>
	</g>
	<g>
		<g class="st38">
			<path class="st6" d="M474.17,337.58v-8.24h8.49v8.24H474.17z"/>
			<path class="st6" d="M474.17,320.91v-8.24h8.49v8.24H474.17z"/>
			<path class="st6" d="M474.17,304.24V296h8.49v8.24H474.17z"/>
			<path class="st6" d="M474.17,287.57v-8.24h8.49v8.24H474.17z"/>
			<path class="st6" d="M474.17,270.9v-8.24h8.49v8.24H474.17z"/>
			<path class="st6" d="M474.17,254.23v-8.24h8.49v8.24H474.17z"/>
			<path class="st6" d="M474.17,237.57v-8.24h8.49v8.24H474.17z"/>
			<path class="st6" d="M474.17,220.9v-8.24h8.49v8.24H474.17z"/>
			<path class="st6" d="M474.17,204.23v-8.24h8.49v8.24H474.17z"/>
			<path class="st6" d="M474.17,187.56v-8.24h8.49v8.24H474.17z"/>
			<path class="st6" d="M474.17,170.89v-8.24h8.49v8.24H474.17z"/>
			<path class="st6" d="M474.17,154.23v-8.24h8.49v8.24H474.17z"/>
			<path class="st6" d="M474.17,137.56v-8.24h8.49v8.24H474.17z"/>
			<path class="st6" d="M474.17,120.89v-8.24h8.49v8.24H474.17z"/>
			<path class="st6" d="M474.17,104.22v-8.24h8.49v8.24H474.17z"/>
			<path class="st6" d="M474.17,87.55v-8.24h8.49v8.24H474.17z"/>
			<path class="st6" d="M474.17,70.89v-8.24h8.49v8.24H474.17z"/>
			<path class="st6" d="M474.17,54.22v-8.24h8.49v8.24H474.17z"/>
		</g>
		<g class="st38">
			<path class="st6" d="M448.21,237.57v-8.24h8.49v8.24H448.21z"/>
			<path class="st6" d="M448.21,220.9v-8.24h8.49v8.24H448.21z"/>
			<path class="st6" d="M448.21,204.23v-8.24h8.49v8.24H448.21z"/>
			<path class="st6" d="M448.21,187.56v-8.24h8.49v8.24H448.21z"/>
			<path class="st6" d="M448.21,170.89v-8.24h8.49v8.24H448.21z"/>
			<path class="st6" d="M448.21,154.23v-8.24h8.49v8.24H448.21z"/>
			<path class="st6" d="M448.21,137.56v-8.24h8.49v8.24H448.21z"/>
			<path class="st6" d="M448.21,120.89v-8.24h8.49v8.24H448.21z"/>
			<path class="st6" d="M448.21,104.22v-8.24h8.49v8.24H448.21z"/>
			<path class="st6" d="M448.21,87.55v-8.24h8.49v8.24H448.21z"/>
			<path class="st6" d="M448.21,70.89v-8.24h8.49v8.24H448.21z"/>
			<path class="st6" d="M448.21,54.22v-8.24h8.49v8.24H448.21z"/>
		</g>
		<g class="st38">
			<path class="st6" d="M421.77,337.58v-8.24h8.49v8.24H421.77z"/>
			<path class="st6" d="M421.77,320.91v-8.24h8.49v8.24H421.77z"/>
			<path class="st6" d="M421.77,304.24V296h8.49v8.24H421.77z"/>
			<path class="st6" d="M421.77,287.57v-8.24h8.49v8.24H421.77z"/>
			<path class="st6" d="M421.77,270.9v-8.24h8.49v8.24H421.77z"/>
			<path class="st6" d="M421.77,254.23v-8.24h8.49v8.24H421.77z"/>
			<path class="st6" d="M421.77,237.57v-8.24h8.49v8.24H421.77z"/>
			<path class="st6" d="M421.77,220.9v-8.24h8.49v8.24H421.77z"/>
			<path class="st6" d="M421.77,204.23v-8.24h8.49v8.24H421.77z"/>
			<path class="st6" d="M421.77,187.56v-8.24h8.49v8.24H421.77z"/>
			<path class="st6" d="M421.77,170.89v-8.24h8.49v8.24H421.77z"/>
			<path class="st6" d="M421.77,154.23v-8.24h8.49v8.24H421.77z"/>
			<path class="st6" d="M421.77,137.56v-8.24h8.49v8.24H421.77z"/>
			<path class="st6" d="M421.77,120.89v-8.24h8.49v8.24H421.77z"/>
			<path class="st6" d="M421.77,104.22v-8.24h8.49v8.24H421.77z"/>
			<path class="st6" d="M421.77,87.55v-8.24h8.49v8.24H421.77z"/>
			<path class="st6" d="M421.77,70.89v-8.24h8.49v8.24H421.77z"/>
			<path class="st6" d="M421.77,54.22v-8.24h8.49v8.24H421.77z"/>
		</g>
		<g class="st38">
			<path class="st6" d="M399.51,370.91v-8.24H408v8.24H399.51z"/>
			<path class="st6" d="M399.51,354.24V346H408v8.24H399.51z"/>
			<path class="st6" d="M399.51,337.58v-8.24H408v8.24H399.51z"/>
			<path class="st6" d="M399.51,320.91v-8.24H408v8.24H399.51z"/>
			<path class="st6" d="M399.51,304.24V296H408v8.24H399.51z"/>
			<path class="st6" d="M399.51,287.57v-8.24H408v8.24H399.51z"/>
			<path class="st6" d="M399.51,270.9v-8.24H408v8.24H399.51z"/>
			<path class="st6" d="M399.51,254.23v-8.24H408v8.24H399.51z"/>
			<path class="st6" d="M399.51,237.57v-8.24H408v8.24H399.51z"/>
			<path class="st6" d="M399.51,220.9v-8.24H408v8.24H399.51z"/>
			<path class="st6" d="M399.51,204.23v-8.24H408v8.24H399.51z"/>
			<path class="st6" d="M399.51,187.56v-8.24H408v8.24H399.51z"/>
			<path class="st6" d="M399.51,170.89v-8.24H408v8.24H399.51z"/>
			<path class="st6" d="M399.51,154.23v-8.24H408v8.24H399.51z"/>
			<path class="st6" d="M399.51,137.56v-8.24H408v8.24H399.51z"/>
			<path class="st6" d="M399.51,120.89v-8.24H408v8.24H399.51z"/>
			<path class="st6" d="M399.51,104.22v-8.24H408v8.24H399.51z"/>
			<path class="st6" d="M399.51,87.55v-8.24H408v8.24H399.51z"/>
			<path class="st6" d="M399.51,70.89v-8.24H408v8.24H399.51z"/>
			<path class="st6" d="M399.51,54.22v-8.24H408v8.24H399.51z"/>
		</g>
		<g class="st38">
			<path class="st6" d="M370.13,220.9v-8.24h8.49v8.24H370.13z"/>
			<path class="st6" d="M370.13,204.23v-8.24h8.49v8.24H370.13z"/>
			<path class="st6" d="M370.13,187.56v-8.24h8.49v8.24H370.13z"/>
			<path class="st6" d="M370.13,170.89v-8.24h8.49v8.24H370.13z"/>
			<path class="st6" d="M370.13,154.23v-8.24h8.49v8.24H370.13z"/>
			<path class="st6" d="M370.13,137.56v-8.24h8.49v8.24H370.13z"/>
			<path class="st6" d="M370.13,120.89v-8.24h8.49v8.24H370.13z"/>
			<path class="st6" d="M370.13,104.22v-8.24h8.49v8.24H370.13z"/>
			<path class="st6" d="M370.13,87.55v-8.24h8.49v8.24H370.13z"/>
			<path class="st6" d="M370.13,70.89v-8.24h8.49v8.24H370.13z"/>
			<path class="st6" d="M370.13,54.22v-8.24h8.49v8.24H370.13z"/>
		</g>
	</g>
	<g>
		<g class="st38">
			<path class="st6" d="M2058.43,592.06v8.24h-8.49v-8.24H2058.43z"/>
			<path class="st6" d="M2058.43,608.73v8.24h-8.49v-8.24H2058.43z"/>
			<path class="st6" d="M2058.43,625.4v8.24h-8.49v-8.24H2058.43z"/>
			<path class="st6" d="M2058.43,642.07v8.24h-8.49v-8.24H2058.43z"/>
			<path class="st6" d="M2058.43,658.74v8.24h-8.49v-8.24H2058.43z"/>
			<path class="st6" d="M2058.43,675.4v8.24h-8.49v-8.24H2058.43z"/>
			<path class="st6" d="M2058.43,692.07v8.24h-8.49v-8.24H2058.43z"/>
			<path class="st6" d="M2058.43,708.74v8.24h-8.49v-8.24H2058.43z"/>
			<path class="st6" d="M2058.43,725.41v8.24h-8.49v-8.24H2058.43z"/>
			<path class="st6" d="M2058.43,742.08v8.24h-8.49v-8.24H2058.43z"/>
			<path class="st6" d="M2058.43,758.75v8.24h-8.49v-8.24H2058.43z"/>
			<path class="st6" d="M2058.43,775.41v8.24h-8.49v-8.24H2058.43z"/>
			<path class="st6" d="M2058.43,792.08v8.24h-8.49v-8.24H2058.43z"/>
			<path class="st6" d="M2058.43,808.75v8.24h-8.49v-8.24H2058.43z"/>
			<path class="st6" d="M2058.43,825.42v8.24h-8.49v-8.24H2058.43z"/>
			<path class="st6" d="M2058.43,842.09v8.24h-8.49v-8.24H2058.43z"/>
			<path class="st6" d="M2058.43,858.75V867h-8.49v-8.24H2058.43z"/>
			<path class="st6" d="M2058.43,875.42v8.24h-8.49v-8.24H2058.43z"/>
		</g>
		<g class="st38">
			<path class="st6" d="M2084.39,692.07v8.24h-8.49v-8.24H2084.39z"/>
			<path class="st6" d="M2084.39,708.74v8.24h-8.49v-8.24H2084.39z"/>
			<path class="st6" d="M2084.39,725.41v8.24h-8.49v-8.24H2084.39z"/>
			<path class="st6" d="M2084.39,742.08v8.24h-8.49v-8.24H2084.39z"/>
			<path class="st6" d="M2084.39,758.75v8.24h-8.49v-8.24H2084.39z"/>
			<path class="st6" d="M2084.39,775.41v8.24h-8.49v-8.24H2084.39z"/>
			<path class="st6" d="M2084.39,792.08v8.24h-8.49v-8.24H2084.39z"/>
			<path class="st6" d="M2084.39,808.75v8.24h-8.49v-8.24H2084.39z"/>
			<path class="st6" d="M2084.39,825.42v8.24h-8.49v-8.24H2084.39z"/>
			<path class="st6" d="M2084.39,842.09v8.24h-8.49v-8.24H2084.39z"/>
			<path class="st6" d="M2084.39,858.75V867h-8.49v-8.24H2084.39z"/>
			<path class="st6" d="M2084.39,875.42v8.24h-8.49v-8.24H2084.39z"/>
		</g>
		<g class="st38">
			<path class="st6" d="M2110.83,592.06v8.24h-8.49v-8.24H2110.83z"/>
			<path class="st6" d="M2110.83,608.73v8.24h-8.49v-8.24H2110.83z"/>
			<path class="st6" d="M2110.83,625.4v8.24h-8.49v-8.24H2110.83z"/>
			<path class="st6" d="M2110.83,642.07v8.24h-8.49v-8.24H2110.83z"/>
			<path class="st6" d="M2110.83,658.74v8.24h-8.49v-8.24H2110.83z"/>
			<path class="st6" d="M2110.83,675.4v8.24h-8.49v-8.24H2110.83z"/>
			<path class="st6" d="M2110.83,692.07v8.24h-8.49v-8.24H2110.83z"/>
			<path class="st6" d="M2110.83,708.74v8.24h-8.49v-8.24H2110.83z"/>
			<path class="st6" d="M2110.83,725.41v8.24h-8.49v-8.24H2110.83z"/>
			<path class="st6" d="M2110.83,742.08v8.24h-8.49v-8.24H2110.83z"/>
			<path class="st6" d="M2110.83,758.75v8.24h-8.49v-8.24H2110.83z"/>
			<path class="st6" d="M2110.83,775.41v8.24h-8.49v-8.24H2110.83z"/>
			<path class="st6" d="M2110.83,792.08v8.24h-8.49v-8.24H2110.83z"/>
			<path class="st6" d="M2110.83,808.75v8.24h-8.49v-8.24H2110.83z"/>
			<path class="st6" d="M2110.83,825.42v8.24h-8.49v-8.24H2110.83z"/>
			<path class="st6" d="M2110.83,842.09v8.24h-8.49v-8.24H2110.83z"/>
			<path class="st6" d="M2110.83,858.75V867h-8.49v-8.24H2110.83z"/>
			<path class="st6" d="M2110.83,875.42v8.24h-8.49v-8.24H2110.83z"/>
		</g>
		<g class="st38">
			<path class="st6" d="M2133.09,558.73v8.24h-8.49v-8.24H2133.09z"/>
			<path class="st6" d="M2133.09,575.4v8.24h-8.49v-8.24H2133.09z"/>
			<path class="st6" d="M2133.09,592.06v8.24h-8.49v-8.24H2133.09z"/>
			<path class="st6" d="M2133.09,608.73v8.24h-8.49v-8.24H2133.09z"/>
			<path class="st6" d="M2133.09,625.4v8.24h-8.49v-8.24H2133.09z"/>
			<path class="st6" d="M2133.09,642.07v8.24h-8.49v-8.24H2133.09z"/>
			<path class="st6" d="M2133.09,658.74v8.24h-8.49v-8.24H2133.09z"/>
			<path class="st6" d="M2133.09,675.4v8.24h-8.49v-8.24H2133.09z"/>
			<path class="st6" d="M2133.09,692.07v8.24h-8.49v-8.24H2133.09z"/>
			<path class="st6" d="M2133.09,708.74v8.24h-8.49v-8.24H2133.09z"/>
			<path class="st6" d="M2133.09,725.41v8.24h-8.49v-8.24H2133.09z"/>
			<path class="st6" d="M2133.09,742.08v8.24h-8.49v-8.24H2133.09z"/>
			<path class="st6" d="M2133.09,758.75v8.24h-8.49v-8.24H2133.09z"/>
			<path class="st6" d="M2133.09,775.41v8.24h-8.49v-8.24H2133.09z"/>
			<path class="st6" d="M2133.09,792.08v8.24h-8.49v-8.24H2133.09z"/>
			<path class="st6" d="M2133.09,808.75v8.24h-8.49v-8.24H2133.09z"/>
			<path class="st6" d="M2133.09,825.42v8.24h-8.49v-8.24H2133.09z"/>
			<path class="st6" d="M2133.09,842.09v8.24h-8.49v-8.24H2133.09z"/>
			<path class="st6" d="M2133.09,858.75V867h-8.49v-8.24H2133.09z"/>
			<path class="st6" d="M2133.09,875.42v8.24h-8.49v-8.24H2133.09z"/>
		</g>
		<g class="st38">
			<path class="st6" d="M2162.47,708.74v8.24h-8.49v-8.24H2162.47z"/>
			<path class="st6" d="M2162.47,725.41v8.24h-8.49v-8.24H2162.47z"/>
			<path class="st6" d="M2162.47,742.08v8.24h-8.49v-8.24H2162.47z"/>
			<path class="st6" d="M2162.47,758.75v8.24h-8.49v-8.24H2162.47z"/>
			<path class="st6" d="M2162.47,775.41v8.24h-8.49v-8.24H2162.47z"/>
			<path class="st6" d="M2162.47,792.08v8.24h-8.49v-8.24H2162.47z"/>
			<path class="st6" d="M2162.47,808.75v8.24h-8.49v-8.24H2162.47z"/>
			<path class="st6" d="M2162.47,825.42v8.24h-8.49v-8.24H2162.47z"/>
			<path class="st6" d="M2162.47,842.09v8.24h-8.49v-8.24H2162.47z"/>
			<path class="st6" d="M2162.47,858.75V867h-8.49v-8.24H2162.47z"/>
			<path class="st6" d="M2162.47,875.42v8.24h-8.49v-8.24H2162.47z"/>
		</g>
	</g>
</g>
</svg>
