<?xml version="1.0" encoding="utf-8"?>
<!-- Generator: Adobe Illustrator 25.2.1, SVG Export Plug-In . SVG Version: 6.00 Build 0)  -->
<svg version="1.1" id="Layer_1" xmlns="http://www.w3.org/2000/svg" xmlns:xlink="http://www.w3.org/1999/xlink" x="0px" y="0px"
	 viewBox="0 0 2709.74 1449.23" style="enable-background:new 0 0 2709.74 1449.23;" xml:space="preserve">
<style type="text/css">
	.st0{fill:#E5F1FA;}
	.st1{fill:#82B479;}
	.st2{fill:#A8D29F;}
	.st3{fill:#699DEE;}
	.st4{fill:#AFCDFB;}
	.st5{fill:#FFFFFF;}
	.st6{fill:#2A3967;}
	.st7{fill:#455B87;}
	.st8{fill:#344670;}
	.st9{fill:#1E3459;}
	.st10{fill:#E9F3FE;}
	.st11{fill:#00964B;}
	.st12{fill:#C0D8F9;}
	.st13{fill:#D4E3F4;}
	.st14{fill:#E49963;}
	.st15{fill:#163560;}
	.st16{fill:#F6B07E;}
	.st17{fill:#ED965D;}
	.st18{fill:#044D89;}
	.st19{fill:#105099;}
	.st20{fill:#233862;}
	.st21{fill:#144071;}
	.st22{fill:#2B478B;}
	.st23{opacity:0.4;fill:#FFFFFF;}
	.st24{fill:#283250;}
	.st25{fill:#213961;}
	.st26{fill:#1A4F98;}
	.st27{fill:#284989;}
	.st28{fill:#1C3C67;}
	.st29{fill:#F6AE7D;}
	.st30{fill:#E18D5A;}
	.st31{fill:#233861;}
	.st32{fill:#143A62;}
	.st33{fill:#04529E;}
	.st34{fill:#5F99A6;}
	.st35{fill:#1D3D6F;}
</style>
<g>
	<path class="st0" d="M434.08,1421.88c0,0-290.98,53.44-383.6-148.73C-69.69,1010.87,177.2,812,366.55,849.05
		c412.6,80.74,313.25-809.95,975.42-628.17c186.19,51.11,689.27-252.53,829.57,234.34c33.36,115.77,151.57,128.52,323.17,201.98
		c335.83,143.77,182.28,767.1-57.69,769.55C2197.06,1429.2,434.08,1421.88,434.08,1421.88z"/>
	<g>
		<g>
			<g>
				
					<rect x="1877.07" y="786.77" transform="matrix(-1 -1.224647e-16 1.224647e-16 -1 3925.5076 2212.1248)" class="st1" width="171.37" height="638.59"/>
				
					<rect x="1797.05" y="786.77" transform="matrix(-1 -1.224647e-16 1.224647e-16 -1 3720.0305 2212.1248)" class="st2" width="125.92" height="638.59"/>
			</g>
		</g>
		<circle class="st1" cx="1862.13" cy="1357.71" r="28.11"/>
		<g>
			<g>
				
					<rect x="2128.45" y="786.77" transform="matrix(-1 -1.224647e-16 1.224647e-16 -1 4428.2817 2212.1248)" class="st3" width="171.37" height="638.59"/>
				
					<rect x="2048.44" y="786.77" transform="matrix(-1 -1.224647e-16 1.224647e-16 -1 4222.8047 2212.1248)" class="st4" width="125.92" height="638.59"/>
			</g>
		</g>
		<circle class="st3" cx="2113.52" cy="1357.71" r="28.11"/>
		<rect x="2085.41" y="851.76" class="st5" width="56.22" height="335.18"/>
		<g>
			<g>
				
					<rect x="2376.9" y="786.77" transform="matrix(-1 -1.224647e-16 1.224647e-16 -1 4925.1626 2212.1248)" class="st6" width="171.37" height="638.59"/>
				
					<rect x="2296.88" y="786.77" transform="matrix(-1 -1.224647e-16 1.224647e-16 -1 4719.6855 2212.1248)" class="st7" width="125.92" height="638.59"/>
			</g>
		</g>
		<circle class="st6" cx="2361.96" cy="1357.71" r="28.11"/>
		<rect x="2333.85" y="851.76" class="st5" width="56.22" height="335.18"/>
		<rect x="1831.91" y="856.04" class="st5" width="56.22" height="335.18"/>
	</g>
	<g>
		<path class="st6" d="M1465.68,663.02l60.42,718.43c0,0,6.33,43.55-26.06,43.63c-53.26,0.13-265.1,0-265.1,0s40.09-9.07,39.6-29.46
			c-0.57-24.04-70.62-739.39-70.62-739.39L1465.68,663.02z"/>
		<path class="st8" d="M1217.74,1412.05c10.48,0.03,212.81,0.67,264.68,0c22.6-0.28,26.57-20.1,26.76-32.92
			c0.09-6.15-0.69-10.69-0.69-10.69l-1.57-18.67l-4.01-47.59l-3.54-42.05l-4.55-54.03l-3.83-45.61l-42.93-510.5l-261.76-6.79
			c0,0,29.5,299.37,50.37,517.29c2.33,24.28,4.55,47.56,6.6,69.29c0.67,6.94,1.3,13.72,1.92,20.33c1.93,20.62,3.7,39.55,5.24,56.27
			c0.81,8.81,1.56,17,2.24,24.5c2.66,29.39,4.22,48.16,4.24,51.72c0.01,2.08-0.17,4.02-0.51,5.82
			C1252.12,1411.3,1221.68,1412.05,1217.74,1412.05z"/>
		<polygon class="st8" points="844.65,272.08 2101.38,272.08 1954.21,863.26 1934.05,944.23 1865.51,1219.58 592,1219.58 		"/>
		<polygon class="st6" points="2101.39,272.08 2121.78,278.88 1892.62,1240.15 1865.5,1219.58 		"/>
		<polygon class="st6" points="1892.62,1240.15 626.95,1240.15 592,1219.58 1865.5,1219.58 		"/>
		<rect x="1174.12" y="1412.33" class="st9" width="274.04" height="13.02"/>
		<polygon class="st6" points="1243.78,1240.14 1245.2,1250.1 1502.92,1302.16 1499.38,1260.12 1497.69,1240.14 		"/>
		<path class="st6" d="M1217.74,1412.05c10.48,0.03,212.81,0.67,264.68,0c22.6-0.28,26.57-20.1,26.76-32.92l-256.5-48.26
			c2.66,29.39,4.22,48.16,4.24,51.72c0.01,2.08-0.17,4.02-0.51,5.82C1252.12,1411.3,1221.68,1412.05,1217.74,1412.05z"/>
		<polygon class="st6" points="1322.62,1033.44 1865.51,1219.58 1911.87,1033.33 		"/>
		<polygon class="st8" points="844.65,272.08 2101.39,272.08 1911.98,1033.33 640.75,1033.57 		"/>
	</g>
	<polygon class="st10" points="700.02,1000.57 1876.7,1000.57 2009.96,469.72 2020.17,429.01 2028.89,394.29 2049.33,312.87 
		889.6,312.87 867.16,394.29 857.59,429.01 846.37,469.72 	"/>
	<polygon class="st11" points="889.6,312.87 2049.33,312.87 2028.89,394.29 867.16,394.29 	"/>
	<g>
		<path class="st10" d="M1993.71,339.49c5.62,0,9.04,4.56,7.64,10.18c-1.4,5.62-7.09,10.18-12.72,10.18
			c-5.62,0-9.04-4.56-7.64-10.18C1982.4,344.04,1988.09,339.49,1993.71,339.49z"/>
		<path class="st10" d="M1959.89,339.49c5.62,0,9.04,4.56,7.64,10.18c-1.4,5.62-7.09,10.18-12.72,10.18
			c-5.62,0-9.04-4.56-7.64-10.18C1948.58,344.04,1954.27,339.49,1959.89,339.49z"/>
		<path class="st10" d="M1910.76,349.67c1.4-5.62,7.09-10.18,12.72-10.18c5.62,0,9.04,4.56,7.64,10.18
			c-1.4,5.62-7.09,10.18-12.72,10.18S1909.36,355.29,1910.76,349.67z"/>
	</g>
	<g>
		<polygon class="st4" points="1345.03,880.61 795.7,880.61 983.49,120.86 1532.83,120.86 		"/>
		<polygon class="st12" points="1262.98,833.2 713.65,833.2 901.44,73.46 1450.77,73.46 		"/>
		<polygon class="st13" points="1174.07,779.03 624.74,779.03 812.53,19.28 1361.86,19.28 		"/>
		<polygon class="st3" points="1439.58,120.86 1265.78,828.66 809.09,833.2 1279.57,843.55 		"/>
		<polygon class="st3" points="1348.34,73.46 1183.22,774.49 726.53,779.03 1190.97,790.51 		"/>
		<polygon class="st10" points="945.21,282.58 791.58,282.58 839.67,89.59 993.3,89.59 		"/>
		<polygon class="st4" points="1295.93,116.25 1020.68,116.25 1027.45,89.59 1302.71,89.59 		"/>
		<polygon class="st4" points="1283.52,170.99 1008.26,170.99 1015.04,144.33 1290.29,144.33 		"/>
		<polygon class="st4" points="1270.54,225.73 995.29,225.73 1002.06,199.07 1277.31,199.07 		"/>
		<polygon class="st4" points="1255.3,280.47 980.05,280.47 986.82,253.8 1262.07,253.8 		"/>
		<polygon class="st4" points="1255.3,337.46 751.43,337.46 758.2,310.8 1262.07,310.8 		"/>
		<polygon class="st4" points="1241.85,394.46 737.97,394.46 744.75,367.8 1248.62,367.8 		"/>
		<polygon class="st4" points="1223.23,458.65 719.35,458.65 726.12,431.98 1230,431.98 		"/>
		<polygon class="st4" points="1206.3,514.07 702.42,514.07 709.19,487.4 1213.07,487.4 		"/>
		<g>
			<defs>
				<polygon id="SVGID_1_" points="945.21,282.58 791.58,282.58 839.67,89.59 993.3,89.59 				"/>
			</defs>
			<clipPath id="SVGID_2_">
				<use xlink:href="#SVGID_1_"  style="overflow:visible;"/>
			</clipPath>
		</g>
	</g>
	<g>
		<polygon class="st14" points="2017.8,1332.98 2005.56,1384.56 1987.21,1384.46 1986.54,1332.98 		"/>
		<polygon class="st14" points="1863.48,1335.18 1828.63,1384.56 1815.05,1367.12 1836.02,1328.39 		"/>
		<path class="st15" d="M1954.09,655.09c6.33-3.6,13.92-3.99,19.23-3.68c-1.37-1.41-4.06-1.93-4.06-1.93
			c3.29-0.49,10.64,2.78,10.64,2.78c45.79-17.65,52.99,49.78,52.03,65.45c-0.96,15.66,15.39,20.78,39.21,33.12
			c45.46,23.55,49.45,55.08,49.45,55.08c-0.35,0.21-0.72,0.45-1.12,0.72c-2.26-3.82-6.9-11-10.81-12.08
			c0.15,0.35,4.63,9.88,6.3,15.34c-13.41,10.2-38.5,32.81-55.98,48.83c0.08-3.13-0.05-7.58-1.19-9.93l-2.16,13.01
			c-9.36,8.6-15.81,14.65-15.81,14.65c1.16-12.66-57.25-79.46-87.72-99.47c-7.42-10.92-10.05-30.21-10.25-31.73
			c1.28,15.3,3.9,23.88,6.24,28.71C1922.28,750.21,1937.3,664.63,1954.09,655.09z"/>
		<path class="st16" d="M1953.9,777.98c-0.15,0.07,14.71,7.79,25.89,4.73c10.52-2.87,17.39-16.51,17.25-16.54
			c-4.45-0.88-5.74-7-5.64-33.31l-2.01,0.4l-33.86,6.7c0,0,0.77,10.66,0.79,20.69C1956.34,769.08,1955.83,777.08,1953.9,777.98z"/>
		<path class="st17" d="M1955.52,739.96c0,0,0.77,10.66,0.79,20.69c18.95-0.53,28.96-17.82,33.06-27.4L1955.52,739.96z"/>
		<path class="st15" d="M1992.88,729.57c0,0,9.93-15.69,12.31-29.1c1.7-9.58-3.18-45.08-38.85-39.96c0,0-10.36,1.02-20.1,7.6
			c-7.75,5.23-18.92,16.52-6.43,47.5l3.25,10.46L1992.88,729.57z"/>
		<path class="st18" d="M1820.58,1353.59l17.95,0.55l19.43,0.6c0,0,44.87-49.96,70.04-130.05c0.59-1.86,1.21-3.74,1.86-5.65
			c13.77-40.17,42.33-90.58,57.38-136.22c2.4-7.27,4.55-14.11,6.48-20.59c0.62-2.07,1.22-4.11,1.79-6.12
			c11.09-38.53,14.3-63.83,17.26-90.86l-108.67,0.87C1904.1,966.12,1886.55,1150.7,1820.58,1353.59z"/>
		<path class="st5" d="M1919.31,903.68c0.27,51.71-7.59,73.9-7.59,73.9s46.53,23.64,101.82,6.24c0.65-0.21,41.59-8.42,41.59-8.42
			c-0.93-2.09-12.22-37.87-13.12-39.78c-11.68-25.07-13.28-37.23-14.66-44.94c-2.57-14.39-2.62-29.28-1.34-43.32
			c3.37-37.17,13.41-68.03,13.41-68.03c-15.07-3.43-29.18-9.45-44.86-15.33c-3.61,4.49-14.63,9.19-24.2,8.98
			c-11.01-0.24-14.59-4.96-14.02-10.11c-11.74,6.53-21.1,12.7-21.1,12.7c-9.98,17.33-30.21,34.16-31.67,60.74
			C1903.2,842.83,1919.3,902.23,1919.31,903.68z"/>
		<path class="st19" d="M1856.22,826.86c15.95-18.63,57.28-59.05,99.93-64.01l-36.8,71.7c0,0-2.07,12.29-12.97,19.45
			c-26.7,17.54-60.64,25.3-60.64,25.3s-22.99-10.03-54.41-33.05c-9.86-7.23-27.19-34.79-27.19-34.79l4.67-15.64
			c0,0,29.42,16.45,39.93,21.2c5.99,2.7,19.78,9.16,29.5,13.72C1844.43,833.63,1851.78,832.05,1856.22,826.86z"/>
		<path class="st16" d="M1949.2,749.47c0,0,44.83,0.74,44.86-27.18c0.03-27.92,5.84-46.63-22.78-48.29
			c-28.62-1.65-34.19,9-36.47,18.31C1932.53,701.63,1937.54,748.56,1949.2,749.47z"/>
		<path class="st15" d="M1950.86,673.32c0,0,12.27,32.76,31.11,37.6c18.84,4.84,27.01-0.2,27.01-0.2s-14.45-11.48-17.45-31.51
			C1991.53,679.2,1960.12,657.72,1950.86,673.32z"/>
		<path class="st15" d="M1953.9,675.98c0,0-9.17,7.31-11.4,14.42c-2.23,7.11-3.24,21.75-7.51,21.25c0,0-9.25-22.27,1.14-34.86
			C1947.16,663.43,1953.9,675.98,1953.9,675.98z"/>
		<path class="st14" d="M1768.82,795.81c0,0-6.32-22.78-31.36-19.56c-2.87,0.9-11.27,4.25-5.9,13.24
			c3.96,6.63,5.67,3.21,11.89,12.11c6.22,8.9,12.98,10.91,20.69,9.85L1768.82,795.81z"/>
		<path class="st14" d="M2006.17,1381.68c0,0-1.48,10.22,2.34,21.15c0,0,3,13.68-10.47,13.94c-13.47,0.25-16.78-1.02-15.25-9.41
			c1.53-8.39,4.43-22.9,4.43-22.9L2006.17,1381.68z"/>
		<path class="st20" d="M1981.51,1422.61c0,0,0.29,0.18,0.85,0.45h26.38c0.51-0.27,0.75-0.45,0.75-0.45
			c1.52-6.87-0.97-19.78-0.97-19.78c-15.26,13.98-24.81-0.35-24.81-0.35C1981.22,1408.46,1981.51,1422.61,1981.51,1422.61z"/>
		<path class="st14" d="M1782.58,1408.73c0,0,24.84-27.57,32.47-41.61l18.47,9.46l-41.29,38.78l-9.66-1.27L1782.58,1408.73z"/>
		<path class="st20" d="M1767.16,1423.06h33.99c3.28-2.45,6.33-8.11,10.13-15.71c2.02-4.05,6.58-6.29,11.25-7.52v22.96h7.05
			l6.68-24.41c4.39-8.08,0.35-15.41-2.75-21.8c-3.6-0.01-13.28,2.46-31.63,23.13c-6.04,6.79-12.7,9.22-19.31,9.01
			c-0.09,0.06-0.19,0.11-0.27,0.14C1771.24,1413.85,1768.07,1420.04,1767.16,1423.06z"/>
		<path class="st19" d="M1956.34,762.85c0,0-25.94,64.07-26.7,77.04c-0.76,12.97-3.05,212.04-3.05,212.04s1.53,9.15-16.02,5.34
			c-17.54-3.81-22.12-7.63-22.12-7.63s16.78-122.8,12.2-165.51c-4.58-42.71,35.09-112.38,35.09-112.38L1956.34,762.85z"/>
		<path class="st20" d="M1838.53,1354.13l19.43,0.6c0,0,44.87-49.96,70.04-130.05c0.59-1.86,1.21-3.74,1.86-5.65
			c13.77-40.17,42.33-90.58,57.38-136.22c2.4-7.27,4.55-14.11,6.48-20.59c0.62-2.07,1.22-4.11,1.79-6.12l-16-12.14
			c0,0-48.04,77.8-62.92,151.01C1903.66,1258.58,1851.92,1335.1,1838.53,1354.13z"/>
		<path class="st18" d="M1977.83,1201.8c-0.27,35.6,1.53,117.46,6.16,151.35h17.21c9.51,0,14.26-0.14,14.26-0.14
			c11.63-58.92,19.91-107.67,25.93-149.69c4.94-34.48,9.34-64.03,12.72-89.48c3.4-25.61,5.77-47.05,6.61-65.16
			c0.13-2.85,0.23-5.63,0.28-8.32c0.05-2.71,0.07-5.34,0.05-7.89l-93.89-9.15C1968.33,1085.71,1977.98,1181.11,1977.83,1201.8z"/>
		<path class="st20" d="M2001.2,1353.15c9.51,0,14.26-0.14,14.26-0.14c11.63-58.92,19.91-107.67,25.93-149.69
			c4.94-34.48,9.34-64.03,12.72-89.48c3.4-25.61,5.77-47.05,6.61-65.16l-34.45,20.27c0,0,21.99,7.76,13.6,66.49
			C2031.47,1194.17,2012.88,1344.84,2001.2,1353.15z"/>
		<path class="st19" d="M1996.77,1048.11c0,0,6.61,23.9,29.49,20.85c22.88-3.05,55.42-16.78,55.42-16.78s-9.78-30.9-21.94-71.49
			c-14.72-49.14-32.94-112.49-41.53-152.45c-2.41-11.2-4.06-20.55-4.67-27.24l-18.98-36.83c0,0-28.3,63.53-29.83,79.54
			C1963.21,859.72,1996.77,1048.11,1996.77,1048.11z"/>
		<path class="st21" d="M1997.78,877.26c1.02,25.93,7.12,76.27,61.53,103.22c0.14,0.07,0.29,0.15,0.43,0.21
			c-14.72-49.14-32.94-112.49-41.53-152.45C2008.22,843.17,1997.22,862.98,1997.78,877.26z"/>
		<g>
			
				<rect x="1705.23" y="660.31" transform="matrix(0.7071 -0.7071 0.7071 0.7071 1.9763 1421.8875)" class="st22" width="24.27" height="96.5"/>
			<path class="st15" d="M2118.86,1104.07l-5.99,5.99c-11.78,11.78-30.87,11.78-42.65,0l-333.91-333.91
				c-11.78-11.78-11.78-30.87,0-42.65l5.99-5.99c11.78-11.78,30.87-11.78,42.65,0l333.91,333.91
				C2130.63,1073.2,2130.63,1092.29,2118.86,1104.07z"/>
			<path class="st15" d="M1279.15,270.35c-111.45,111.45-111.45,292.14,0,403.59c111.45,111.45,292.14,111.45,403.59,0
				c111.45-111.45,111.45-292.14,0-403.59C1571.29,158.9,1390.6,158.9,1279.15,270.35z M1660.51,651.71
				c-99.17,99.17-259.96,99.17-359.13,0c-99.17-99.17-99.17-259.96,0-359.13c99.17-99.17,259.96-99.17,359.13,0
				C1759.68,391.75,1759.68,552.54,1660.51,651.71z"/>
		</g>
		<path class="st14" d="M2019.61,841.32l-25.06-77.16c0.07,0.03,31.64,9.4,47.53,17.42c0,0,9.93,12.8,16.07,42.33
			c0,0,6.49,70.9-8,96.83c0,0-45.76,9.15-118.99-16.02v-16.78c0,0,80.09,4.2,96.48,6.1L2019.61,841.32z"/>
		<path class="st19" d="M1994.56,764.16c0,0,46.45,3.27,57.63,28.19c11.19,24.92,14.75,107.8,0.51,132.21c0,0-19.6,5.58-54.27-0.9
			c-0.42-0.08-0.85-0.16-1.28-0.24c0,0-11.06-27.08-1.14-32.42c0,0,29.24,1.53,26.19-8.14
			C2019.14,873.2,1994.56,764.16,1994.56,764.16z"/>
		<path class="st14" d="M1939.38,892.4c0,0-6.38-7.73-7.74-15.63c-1.36-7.89-5.58-13.75-16.6-15.2c-11.01-1.45-15.75-1.6-15.72,1.5
			c0.03,3.1,9,24.78,24.8,37.72C1939.93,913.74,1939.38,892.4,1939.38,892.4z"/>
	</g>
	<g>
		<path class="st23" d="M1593.4,242.64l-340.1,340.1c5.55,11.23,11.9,22,18.99,32.22l353.33-353.33
			C1615.39,254.54,1604.63,248.18,1593.4,242.64z"/>
		<path class="st23" d="M1570.07,232.54c-27.69-10.36-57.66-16.03-88.96-16.03c-140.25,0-253.94,113.69-253.94,253.94
			c0,31.3,5.68,61.27,16.03,88.96L1570.07,232.54z"/>
		<path class="st23" d="M1368.63,698.17c33.91,16.78,72.09,26.23,112.49,26.23c140.25,0,253.94-113.69,253.94-253.94
			c0-40.4-9.45-78.58-26.23-112.49L1368.63,698.17z"/>
	</g>
	<path class="st24" d="M65.08,1427.66h2577.4c1.27,0,2.3-1.03,2.3-2.3l0,0c0-1.26-1.04-2.3-2.3-2.3H65.08c-1.26,0-2.3,1.03-2.3,2.3
		l0,0C62.78,1426.62,63.82,1427.66,65.08,1427.66z"/>
</g>
<g>
	<g>
		<path class="st25" d="M281.48,1422.29h44.8c-0.34-2.35-1.48-9.5-3.57-16.08c-0.73-2.29-1.57-4.52-2.54-6.45
			c-4.36-8.7-32.03-3.17-32.03-3.17s-2.57,2.2-4.58,10.61C282.67,1410.91,281.88,1415.83,281.48,1422.29z"/>
		<path class="st26" d="M363.72,737.94c0,0,35.7,6.27,43.77,27.34c8.07,21.07,53.67,361.46,53.67,361.46s-22.58,17.89-71.05,11.47
			C341.65,1131.78,363.72,737.94,363.72,737.94z"/>
		<path class="st25" d="M416.87,1408.15c0.12,6.1,0.89,11.86,3.1,14.14h88.62c-1.13-3.21-4.31-8.03-13.41-9.5
			c-10.34-1.67-26.45-6.65-35.86-16.6c-3.35-3.53-5.85-7.7-6.94-12.57c-4.17-18.56-34.47,5.69-34.47,5.69
			S416.67,1399.08,416.87,1408.15z"/>
		<path class="st25" d="M455.03,1399.13c-9.9,3.16-28.83,12.8-40.85,8.27c-7.77-2.93-51.21-128.57-54.02-183.53
			c-0.21-4-0.99-9.57-2.22-16.37c-2.57-14.18-7.07-33.67-12.25-55.18c-13.9-57.63-32.7-129.71-32.29-152.76
			c0.63-35.76,106.58-7.49,106.58-7.49s7.29,29.33,8.74,71.81c2.88,84.31,10.79,226.71,32.3,325.61
			C461.91,1393.68,459.13,1397.82,455.03,1399.13z"/>
		<path class="st27" d="M381.49,999.68l-56.01,405.93c0,0-24.6,5.93-43.73,1.19c0,0-16.4-215.89-15.03-268.09
			c1.37-52.19-11.77-139.66,3-149.31C284.49,979.76,381.49,999.68,381.49,999.68z"/>
		<path class="st5" d="M262.65,756.54c0,0,58.86-38.06,101.08-18.6c6.73,3.1,14.4,11.76,19.9,17.81
			c15.26,16.82,45.08,283.93,45.08,283.93s-84.64,28.67-166.05-9.73V756.54z"/>
		<path class="st26" d="M367.07,736.97c0,0,59.59,24.42,67.66,43.18c8.07,18.76,34.3,133.99,34.3,147.5s-45.67,3.02-53.02-18.77
			c-6.11-18.1-26.7-73.69-37.56-108.85L367.07,736.97z"/>
		<path class="st28" d="M362.53,730.15c3.39,1.28,9.88,7.93,11.35,11.61l4.57,58.27c0,0-9.76-42.77-14.73-62.1
			C362.46,733.03,362.69,731.53,362.53,730.15z"/>
		<g>
			<path class="st29" d="M354.7,755.58c-13.01,2.55-32.12-0.17-46.11-9.39c6.32-15.09,8.91-27,9.83-34.71
				c0.06-0.41,0.09-0.81,0.13-1.19c0.42-4,0.36-6.71,0.16-7.95h33.63c0,0,9.19,4.2,9.19,7.11c0,1.55,0.01,3.04,0.04,4.46
				c0.07,3.87,0.22,7.24,0.42,10.14c0.64,9.44,1.72,13.88,1.72,13.88S367.83,753.01,354.7,755.58z"/>
			<path class="st30" d="M362,724.06c-25.48,4.92-40.27-9-43.58-12.57c-0.47-0.51-0.71-0.81-0.71-0.81
				c0.27-0.13,0.55-0.26,0.85-0.38c9.48-3.84,31.01-0.79,43.03,3.62C361.65,717.78,361.8,721.16,362,724.06z"/>
			<path class="st29" d="M310.1,696.82c4.55,24.5,36.17,23.7,49.83,22.16c3.85-0.43,6.27-0.92,6.27-0.92
				c4.34-1.16,6.75-7.99,7.88-16.93c2.23-17.7-0.59-43.69-3.58-50.34c-4.5-10-12.98-20.82-44.82-13.01
				C293.83,645.59,304.25,665.42,310.1,696.82z"/>
			<path class="st25" d="M371.68,637.12c-4.35-6.02-13.58-13.39-21.96-17.92c-18-9.74-41.05,0.31-41.14,0.35
				c-26.01,11.43-32.8,31.33-19.01,62.33c14.58,32.78,28.46,29.09,28.46,29.09s-2.95-1.83-2.68-12.05c0.01-0.58,0.04-1.07,0.06-1.48
				c0.14-2.09-0.6-4.19-2.17-5.59c-3.23-2.88-4.8-11.6-2.1-14.03c3.26-2.93,7.85,0.63,9.31,3.36c1.28,1.93,3.57,2.61,5.71,1.26
				c8.1-5.12,2.84-15.35,10.57-21.61c7.73-6.26,23.43-1.01,35.03-6C386.96,649.17,374.96,641.66,371.68,637.12z"/>
		</g>
		<path class="st26" d="M375.3,1151.75c-5.13,1.32-10.2,2.4-15.24,3.23c-4.46,0.76-8.9,1.32-13.34,1.7
			c-25.19,2.19-50.49-1.35-80.06-9.83c-6.66-1.91-13.54-4.07-20.68-6.48c-0.76-0.25,1.94-78.46,5.06-159.12
			c0.32-8.33,0.65-16.69,0.97-24.99c0.14-3.52,0.27-7.01,0.42-10.51c2.83-71.34,5.64-135.77,6.23-139.24
			c1.35-7.85,2.62-14.54,4-20.34c4.03-16.9,9.03-26.17,19.94-34.14c1.06-0.81,9.78-5.21,17.48-9.03c6.38-3.17,12.04-5.93,12.04-5.93
			c0.01,0,0.01,0,0.01,0c2.53,1.25,5.58,7.06,8.77,15.22c5.86,15.04,12.18,38.07,16.58,55.27c0.01,0.05,0.02,0.07,0.02,0.09v0.01
			c2.83,11.1,4.86,19.75,5.44,22.24c0.98,4.19,2.28,12.3,3.81,23.3c2.07,14.96,4.55,35.28,7.16,58.33c0.27,2.37,0.54,4.77,0.81,7.19
			c0.31,2.77,0.63,5.56,0.93,8.39c0.1,0.91,0.2,1.81,0.3,2.72c1.01,9.13,2.02,18.55,3.03,28.13c0.84,7.92,12.85,13.64,13.67,21.69
			c0.48,4.73,1.48,48.35,2.76,62.27C376.32,1051.85,375.67,1147.07,375.3,1151.75z"/>
		<path class="st28" d="M314.65,729.21c0,0-11.6,2.01-16.76,9.41c0,0,39.76,69.64,39.59,69.02
			C337.31,807.01,324.49,737.76,314.65,729.21z"/>
		<path class="st28" d="M288.44,835.28c-0.04,0.16-2.04,72.14,52.1,80.88c54.15,8.75,18.17,11.06,18.17,11.06
			s-101.87-4.33-103.55-7.02C253.47,917.51,288.44,835.28,288.44,835.28z"/>
		<path class="st28" d="M334.18,947.06c0,0-1.02,0.72-2.97,1.98c-0.03,0.01-0.07,0.04-0.1,0.06c-8.26,5.27-32.77,19.65-68.47,29.28
			c-3.75,1.02-7.62,1.98-11.61,2.86c0.32-8.33,0.65-16.69,0.97-24.99c-4.72-0.37-9.23-0.97-13.42-1.86c0.14-1.1,0.29-2.19,0.43-3.29
			c4.54-1.86,9.05-3.66,13.41-5.36c3.54-1.39,6.97-2.7,10.22-3.93c14.66-5.57,25.53-9.34,25.53-9.34l43.4,13.75L334.18,947.06z"/>
		<polygon class="st25" points="451,1008.73 327.9,1005.64 353.33,852.66 475.21,856.27 		"/>
		<path class="st29" d="M345.54,912.99c0,0,24.45-1.7,25.67,3.99c2.86,13.28-21.02,24.2-28.75,23.45
			C319.97,938.23,325.53,920.31,345.54,912.99z"/>
	</g>
	<path class="st26" d="M248.99,760.35c12.28-13.44,34.48-19.31,48.9-21.72c5.27,6.64,9.72,18.83,4.66,29.73
		c-9.01,29.86-22.03,74.14-28.28,100.8c-2.68,11.41-4.11,19.59-3.46,22.03c2.85,10.65,32.09,19.99,50.8,22.41
		c7.81,1.01,13.73,1.49,15.06,1.59c0.09,0,5.12,13.06,1,35.18c0,0-50.45,6.6-75.03,6.35c-3.63-0.04-7.19-0.18-10.64-0.45
		c-4.72-0.37-9.23-0.97-13.42-1.86c-8.99-1.9-16.51-5.11-21.44-10.12C180.58,907.04,237.11,773.35,248.99,760.35z"/>
	<path class="st29" d="M470.75,879.02c0,0-18.16-6.07-20.41-0.75c-5.24,12.41,10.35,27.33,16.4,28
		C472.79,906.94,475.23,879.17,470.75,879.02z"/>
</g>
<g>
	<g>
		<path class="st16" d="M3066.95,1464.02c-0.51,6.94-10.3,7.01-21.41,5.72c-11.11-1.29-8.16,1.52-23.71,1.74
			c-15.55,0.22-20.91-4.92-21.67-7.15c-0.67-1.97,6.82-3.63,14.83-5.58c1.01-0.24,2.02-0.5,3.03-0.75
			c9.04-2.3,15.02-9.06,22.75-14.97c7.32-5.59,16.77-25.84,16.77-25.84l21.25-0.96c0,0-8.95,18.15-12.31,25.97
			c-1.98,4.6-1.14,10.26-0.28,14.6C3066.67,1459.16,3067.13,1461.57,3066.95,1464.02z"/>
		<path class="st31" d="M3045.54,1469.74c-11.11-1.29-8.16,1.52-23.71,1.74c-15.55,0.22-20.91-4.92-21.67-7.15
			c-0.67-1.97,6.82-3.63,14.83-5.58l0.1,0.15c0,0,10.01,5.38,22.82,4.09c10.44-1.05,21.09-5.4,28.29-6.18
			c0.46,2.36,0.92,4.77,0.74,7.22C3066.44,1470.96,3056.65,1471.03,3045.54,1469.74z"/>
	</g>
	<g>
		<path class="st16" d="M3213.69,1465.46c-0.5,6.94-10.29,7.02-21.4,5.75c-11.11-1.28-8.15,1.53-23.71,1.76
			c-15.55,0.23-20.92-4.9-21.67-7.12c-0.67-1.97,6.82-3.64,14.83-5.6c1.01-0.24,2.02-0.5,3.03-0.75
			c9.03-2.31,15.01-9.08,22.74-14.99c7.32-5.6,0.01-38.76,0.01-38.76l23.37-2.27c0,0-1.12,27.92-1.11,40.62
			c0.01,5.01,2.31,9.83,3.17,14.16C3213.41,1460.6,3213.87,1463.01,3213.69,1465.46z"/>
		<path class="st31" d="M3192.29,1471.2c-11.11-1.28-8.15,1.53-23.71,1.76c-15.55,0.23-20.92-4.9-21.67-7.12
			c-0.67-1.97,6.82-3.64,14.83-5.6l0.1,0.15c0,0,10.02,5.37,22.83,4.06c10.44-1.06,21.09-5.43,28.29-6.21
			c0.46,2.36,0.92,4.77,0.74,7.22C3213.19,1472.39,3203.4,1472.48,3192.29,1471.2z"/>
	</g>
	<path class="st32" d="M3145.49,892.32c-4.02-16.55,1.81-24.25,7.07-28.36c2.5-6.09,5.34-10.48,8.26-12.13
		c5.31-3.02,11.68-3.35,16.13-3.09c-1.15-1.18-3.4-1.61-3.4-1.61c2.76-0.41,8.92,2.33,8.92,2.33c38.4-14.8,44.44,41.75,43.63,54.88
		c-0.8,13.13-0.69,28.61,19.29,38.96c38.12,19.75-12.67,94.17-12.67,94.17c0.97-10.62-48.01-66.63-73.56-83.41
		c-6.22-9.16-8.43-25.34-8.6-26.61c1.07,12.83,3.27,20.02,5.23,24.07C3144.13,940.79,3142.41,915.05,3145.49,892.32z"/>
	<path class="st16" d="M3160.66,954.88c-0.13,0.06,12.34,6.53,21.71,3.97c8.82-2.4,14.58-13.84,14.46-13.87
		c-3.74-0.74-4.81-5.87-4.73-27.93l-1.69,0.33l-28.39,5.62c0,0,0.65,8.94,0.66,17.35C3162.71,947.42,3162.28,954.13,3160.66,954.88z
		"/>
	<path class="st17" d="M3162.02,923c0,0,0.65,8.94,0.66,17.35c15.89-0.45,24.29-14.94,27.73-22.97L3162.02,923z"/>
	<path class="st33" d="M3046.5,1428.44c-1.39,4.36,1.74,8.86,6.31,9.07l11.09,0.52l11.74,0.36c2.94,0.09,5.74-1.19,7.6-3.47
		c9.37-11.49,38.2-49.8,55.69-105.45c0.49-1.56,1.01-3.14,1.56-4.74c11.55-33.68,35.5-75.96,48.12-114.23
		c2.01-6.1,3.81-11.83,5.43-17.26c0.52-1.74,1.02-3.45,1.5-5.13c9.3-32.31,11.99-53.53,14.47-76.2l-91.13,0.73
		C3118.89,1112.65,3099.71,1261.76,3046.5,1428.44z"/>
	<path class="st5" d="M3131.65,1060.29c0.23,43.36-6.36,61.97-6.36,61.97s39.02,19.82,85.39,5.23c0.55-0.17,33.18-9.41,33.18-9.41
		c-0.78-1.76-7.22-30.77-7.98-32.38c-9.79-21.02-12.46-29.85-13.62-36.32c-2.15-12.07-2.2-24.55-1.13-36.33
		c2.83-31.17,11.24-57.05,11.24-57.05c-12.63-2.87-24.47-7.93-37.62-12.86c-3.02,3.77-12.27,7.71-20.29,7.53
		c-9.24-0.2-12.23-4.16-11.75-8.47c-9.84,5.48-17.7,10.65-17.7,10.65c-8.37,14.53-25.33,28.64-26.56,50.94
		C3118.14,1009.27,3131.64,1059.08,3131.65,1060.29z"/>
	<path class="st34" d="M3210.02,1065.13c3.98,5.64,11.62,39.9,30.62,44.21c-9.79-24.42-17.22-35.13-18.39-42.64
		c-2.15-14.02-2.2-28.52-1.13-42.2c-6.36-11.15-11.11-18.79-11.11-18.79c-0.5-1.8-10.11-31.51-13.19-4.96
		C3193.76,1027.31,3205.57,1058.82,3210.02,1065.13z"/>
	<path class="st16" d="M3156.71,930.98c0,0,37.59,0.62,37.62-22.8c0.03-23.42,4.9-39.11-19.1-40.49c-24-1.39-28.67,7.54-30.58,15.36
		C3142.73,890.86,3146.94,930.21,3156.71,930.98z"/>
	<path class="st32" d="M3158.11,867.11c0,0,10.29,27.47,26.09,31.53c15.8,4.06,22.65-0.17,22.65-0.17s-12.12-9.62-14.63-26.43
		C3192.21,872.05,3165.87,854.04,3158.11,867.11z"/>
	<path class="st32" d="M3160.66,869.35c0,0-7.69,6.13-9.56,12.1c-1.87,5.96-2.72,18.24-6.29,17.82c0,0-7.75-18.67,0.96-29.23
		C3155,858.83,3160.66,869.35,3160.66,869.35z"/>
	<polygon class="st16" points="3097.57,1090.39 3079.81,1144.52 3089.94,1148.58 3119.3,1100.76 	"/>
	<path class="st19" d="M3145.44,949.66c0,0-20.93,8.31-26.99,21.26c-6.06,12.95-15.23,99.83-18.89,108.75
		c-3.65,8.92-6.4,15.99-6.4,15.99s10.55,8.89,21.17,9.55C3124.94,1105.86,3145.44,949.66,3145.44,949.66z"/>
	<path class="st19" d="M3162.71,942.2c0,0-21.75,53.73-22.39,64.6c-0.64,10.87-2.56,177.81-2.56,177.81s1.28,7.68-13.43,4.48
		c-14.71-3.2-18.55-6.4-18.55-6.4s14.07-102.98,10.23-138.8c-3.84-35.82,29.42-94.24,29.42-94.24L3162.71,942.2z"/>
	<path class="st35" d="M3063.91,1438.04l12.74,0.39c2.28,0.07,4.46-0.91,5.91-2.67c8.57-10.37,38.44-49.2,56.37-106.28
		c0.49-1.56,1.01-3.14,1.56-4.74c11.55-33.68,35.5-75.96,48.12-114.23c2.01-6.1,3.81-11.83,5.43-17.26c0.52-1.74,1.02-3.45,1.5-5.13
		l-13.42-10.18c0,0-40.29,65.24-52.76,126.64C3118.53,1357.91,3075.14,1422.08,3063.91,1438.04z"/>
	<path class="st33" d="M3180.72,1310.29c-0.22,28.24,1.12,91.2,4.56,121.98c0.31,2.82,2.7,4.94,5.53,4.94h9.51
		c4.01,0,7.01-0.03,9-0.06c1.72-0.03,3.19-1.26,3.53-2.95c9.45-48.11,16.22-88.09,21.18-122.63c4.14-28.91,7.83-53.7,10.66-75.03
		c2.85-21.47,4.84-39.45,5.55-54.64c0.11-2.39,0.19-4.72,0.24-6.98c0.04-2.27,0.06-4.48,0.04-6.62l-78.74-7.68
		C3172.76,1212.94,3180.85,1292.94,3180.72,1310.29z"/>
	<path class="st33" d="M3200.32,1437.21c3.6,0,6.39-0.02,8.36-0.05c2.09-0.03,3.88-1.53,4.29-3.58
		c9.39-47.84,16.12-87.62,21.05-122.01c4.14-28.91,7.83-53.7,10.66-75.03c2.85-21.47,4.84-39.45,5.55-54.64l-28.89,16.99
		c0,0,18.44,6.51,11.4,55.75C3225.71,1303.9,3210.12,1430.24,3200.32,1437.21z"/>
	<path class="st19" d="M3196.6,1181.41c0,0,5.54,20.04,24.73,17.48c19.19-2.56,46.47-14.07,46.47-14.07s-8.2-25.91-18.4-59.95
		c-12.34-41.21-27.62-94.34-34.83-127.84c-2.02-9.39-3.4-17.23-3.91-22.85l-15.92-30.89c0,0-23.74,53.27-25.01,66.7
		C3168.46,1023.43,3196.6,1181.41,3196.6,1181.41z"/>
	
		<rect x="3119.01" y="1012.06" transform="matrix(0.9936 0.1134 -0.1134 0.9936 141.4115 -350.974)" class="st32" width="73.95" height="111.1"/>
	<path class="st16" d="M3215.76,1008l-21.01-64.7c0.06,0.03,26.54,7.88,39.86,14.61c0,0,8.33,10.73,13.48,35.5
		c0,0,5.44,59.45-6.71,81.2c0,0-38.38,7.68-99.78-13.43v-14.07c0,0,67.16,3.52,80.91,5.12L3215.76,1008z"/>
	<path class="st21" d="M3197.46,1038.14c0.86,21.75,5.97,63.96,51.6,86.56c0.12,0.06,0.24,0.12,0.36,0.17
		c-12.34-41.21-27.62-94.34-34.83-127.84C3206.21,1009.55,3196.99,1026.17,3197.46,1038.14z"/>
	<path class="st19" d="M3194.75,943.29c0,0,38.95,2.74,48.33,23.64c9.38,20.89,12.37,90.4,0.43,110.87c0,0-16.44,4.68-45.51-0.76
		c-0.36-0.07-0.71-0.14-1.07-0.2c0,0-9.27-22.71-0.96-27.18c0,0,24.52,1.28,21.96-6.82
		C3215.37,1034.73,3194.75,943.29,3194.75,943.29z"/>
	<path class="st16" d="M3082.34,1143.04c0,0-16.21,8.96-18.35,15.79c-2.13,6.83-0.67,21.12,1.91,20.91
		c2.57-0.21,6.41-15.36,8.55-16.43c2.13-1.07,5.12-4.26,5.12-1.92c0,2.35-2.13,6.61-1.07,7.25c1.07,0.64,4.48-5.97,6.83-7.25
		c2.35-1.28,3.33-11.83,5.61-14.66C3093.21,1143.89,3082.34,1143.04,3082.34,1143.04z"/>
	<path class="st16" d="M3141.6,1047.1c0,0-14.53-9.07-20.58-7.56c-3.3,0.83-5.79,16.49-5.12,17.91c3.33,7.1,4.49-2.99,7.36-1.23
		c2.87,1.77,4.98,4.99,18.35,4.95C3154.96,1061.12,3141.6,1047.1,3141.6,1047.1z"/>
</g>
</svg>
