<svg version="1.1" id="Layer_1" xmlns="http://www.w3.org/2000/svg" xmlns:xlink="http://www.w3.org/1999/xlink" x="0" y="0" viewBox="0 0 2719.5 1457.4" style="enable-background:new 0 0 2719.5 1457.4" xml:space="preserve"><style>.st1{fill:#82b479}.st3{fill:#699dee}.st4{fill:#afcdfb}.st5{fill:#fff}.st6{fill:#2a3967}.st8{fill:#344670}.st9{fill:#1e3459}.st10{fill:#e9f3fe}.st12{fill:#233862}.st13{fill:#1f3b68}.st15{fill:#ffb27d}.st16{fill:#163560}.st17{fill:#007451}.st18{fill:#06944b}.st22{fill:#e49963}.st23{fill:#a8d2a0}.st24{fill:#d68d5d}.st25{fill:#2b478b}.st28{opacity:.4;fill:#fff}</style><path d="M436.1 1434.7s-291 53.4-383.6-148.7c-120.2-262.3 126.7-461.1 316.1-424.1 412.6 80.7 313.2-810 975.4-628.2 186.2 51.1 689.3-252.5 829.6 234.3 33.4 115.8 151.6 128.5 323.2 202 335.8 143.8 182.3 767.1-57.7 769.5-240 2.5-2003-4.8-2003-4.8z" style="fill:#e5f1fa"/><path transform="rotate(-180 1964.8 1118.8)" class="st1" d="M1879.1 799.5h171.4v638.6h-171.4z"/><path transform="rotate(-180 1862 1118.8)" style="fill:#a8d29f" d="M1799.1 799.5H1925v638.6h-125.9z"/><circle class="st1" cx="1864.1" cy="1370.5" r="28.1"/><path transform="rotate(-180 2216.2 1118.8)" class="st3" d="M2130.5 799.5h171.4v638.6h-171.4z"/><path transform="rotate(-180 2113.4 1118.8)" class="st4" d="M2050.5 799.5h125.9v638.6h-125.9z"/><circle class="st3" cx="2115.5" cy="1370.5" r="28.1"/><path class="st5" d="M2087.4 864.5h56.2v335.2h-56.2z"/><path transform="rotate(-180 2464.6 1118.8)" class="st6" d="M2378.9 799.5h171.4v638.6h-171.4z"/><path transform="rotate(-180 2361.9 1118.8)" style="fill:#455b87" d="M2298.9 799.5h125.9v638.6h-125.9z"/><circle class="st6" cx="2364" cy="1370.5" r="28.1"/><path class="st5" d="M2335.9 864.5h56.2v335.2h-56.2zM1833.9 868.8h56.2V1204h-56.2z"/><g><path class="st6" d="m1467.7 675.8 60.4 718.4s6.3 43.5-26.1 43.6c-53.3.1-265.1 0-265.1 0s40.1-9.1 39.6-29.5c-.6-24-70.6-739.4-70.6-739.4l261.8 6.9z"/><path class="st8" d="M1219.8 1424.8c10.5 0 212.8.7 264.7 0 22.6-.3 26.6-20.1 26.8-32.9.1-6.1-.7-10.7-.7-10.7l-1.6-18.7-4-47.6-3.5-42-4.5-54-3.8-45.6-42.9-510.5-261.8-6.8s29.5 299.4 50.4 517.3l6.6 69.3 1.9 20.3 5.2 56.3 2.2 24.5a1296 1296 0 0 1 4.2 51.7c0 2.1-.2 4-.5 5.8-4.4 22.9-34.8 23.6-38.7 23.6z"/><path class="st8" d="M846.7 284.9h1256.7L1956.2 876l-20.1 81-68.6 275.4H594z"/><path class="st6" d="m2103.4 284.9 20.4 6.8-229.2 961.2-27.1-20.5zM1894.6 1252.9H629l-35-20.5h1273.5z"/><path class="st9" d="M1176.1 1425.1h274v13h-274z"/><path class="st6" d="m1245.8 1252.9 1.4 10 257.7 52-3.5-42-1.7-20zM1219.8 1424.8c10.5 0 212.8.7 264.7 0 22.6-.3 26.6-20.1 26.8-32.9l-256.5-48.3a1296 1296 0 0 1 4.2 51.7c0 2.1-.2 4-.5 5.8-4.4 23-34.8 23.7-38.7 23.7zM1324.6 1046.2l542.9 186.2 46.4-186.3z"/><path class="st8" d="M846.7 284.9h1256.7L1914 1046.1l-1271.2.3z"/></g><path class="st10" d="M702 1013.4h1176.7L2012 482.5l10.2-40.7 8.7-34.7 20.4-81.4H891.6l-22.4 81.4-9.6 34.7-11.2 40.7z"/><path style="fill:#00964b" d="M891.6 325.7h1159.7l-20.4 81.4H869.2z"/><g><path class="st10" d="M1995.7 352.3c5.6 0 9 4.6 7.6 10.2a14 14 0 0 1-12.7 10.2c-5.6 0-9-4.6-7.6-10.2a13.8 13.8 0 0 1 12.7-10.2zM1961.9 352.3c5.6 0 9 4.6 7.6 10.2a14 14 0 0 1-12.7 10.2c-5.6 0-9-4.6-7.6-10.2a13.8 13.8 0 0 1 12.7-10.2zM1912.8 362.4a14 14 0 0 1 12.7-10.2c5.6 0 9 4.6 7.6 10.2-1.4 5.6-7.1 10.2-12.7 10.2s-9-4.5-7.6-10.2z"/></g><g id="man_1_"><path class="st12" d="M277.3 1364.9s-15 13.9-12.1 23.7c2.9 9.9 16.4 16.4 18.3 28.5 1.8 12.1 9.1 18.6 15.7 18.6h31.4s4.8-8.5-6.9-11c-11.7-2.6-16.1-16.7-15.4-29.9.7-13.2-1.1-30.7-1.1-30.7l-24.8-5.8-5.1 6.6zM548.8 1435.8h-83.3c-.7-.2-1.3-.3-1.6-.5-5.5-2.8-3.8-24-3.1-30.6l.2-1.9s29.2-23.4 33.2-5.5l.4 1.6c5.1 16.7 27.7 24.4 40.8 26.5 10.1 1.7 12.7 7.5 13.4 10.4z"/><path class="st13" d="m532.1 956.5-9.7 122c-7.1 90.4-15.6 201.5-16.5 222.6-1.5 36.5-7.3 95-7.3 95s-13.9 13.9-41.6 8c0 0-24.7-83.4-31.8-171.7l-.3-4.4c-6.6-89.9-16.8-279.1-16.8-279.1l124 7.6z"/><path d="m532.1 956.5-9.7 122-97.2 153.9-.3-4.4c-6.6-89.9-16.8-279.1-16.8-279.1l124 7.6z" style="fill:#182842"/><path class="st13" d="M511.8 963.1s-80 200.6-132.6 294.8c-52.6 94.3-69 120.6-69 120.6s-30.1-12.1-32.9-20.3c0 0 20.1-182 55.3-226.3 19.9-25.1 43.3-100.3 44.4-126.6a1517 1517 0 0 1 7.1-78.4l127.7 36.2z"/><path class="st15" d="m592.7 907.7 4.6 9.1s23.3 3.2 16.9 27.5c0 0-3.4 10-9.9 6.8-6.4-3.2-3.3-2.9-12.4-7.1-9.2-4.2-14.5-12.4-12.5-19.9l-1.5-7.9 14.8-8.5zM470.8 653.5c3.6-21 3.7-33.5 3.7-33.5l-40.6-32.7c1.5 45-27.3 66.6-27.3 66.6s54.1 26.6 85.4 16.8c-.1 0-7.8-9.8-21.2-17.2z"/><path class="st15" d="M484 619.3s-51.6 8.6-56.5-23.7c-4.8-32.2-14.8-52.8 18-59.7 32.8-6.8 41 4.5 45.3 14.9 4.2 10.4 6.5 65.4-6.8 68.5z"/><path class="st16" d="M427.8 597.9s1-43.2 48.1-50.1c32.2-4.7 12.7-31.7 9-35.9 0 0-24.6 4.7-49.9 10.2-52.8 11.5-12.8 69.3-7.2 75.8z"/><path class="st17" d="M587.3 920.4c6.9-7.1 12-16.3 12-16.3s-58.7-72.9-63.4-80.5c-4.8-7.6-40.4-128.8-40.4-128.8l-90.1-18.3s75.2 155.2 87.7 174.1c20.6 31.3 82.2 77.8 82.2 77.8s6.6-2.5 12-8z"/><path class="st18" d="M535.5 961.1c-.9.8-2 1.3-3.3 1.3-11.7-.2-46 6.4-74.9 3.4-24.4-2.3-46-9.6-69.2-20-3.1-1.4-10.2-5.2-10-8.6.1-3.8.5-9.2.9-16.1 1.6-24 4.5-65.2 1.7-112.7-.5-8.9-.8-17.6-.8-26.3-.2-64.4 12.3-121.4 38-140.6 2.2-1.6 15.9 5.3 28.2 11.4a41.4 41.4 0 0 0 30.2 3.3l14.2 10.3a107.1 107.1 0 0 1 33.8 54c5.3 21.4 8.5 60.1 10.2 100.2.8 18.2 1.4 36.5 1.6 53.9v.6c.2 1.7.2 3.6.2 5.3.6 44.6 0 80-.8 80.6z"/><path class="st17" d="M379 921c1.6-24 4.5-65.2 1.7-112.7-.5-8.9-.8-17.6-.8-26.3 10.7-25.9 19.4-44.8 19.4-44.8h27c0 .1 19.7 135.1-47.3 183.8z"/><g><path class="st15" d="m326.5 929.4-5.1 8.8s10 21.2-13.8 29.2c0 0-10.2 2.6-11.1-4.5-.9-7.1.6-4.3-.9-14.3s2.4-18.9 9.8-21.3l5.8-5.6 15.3 7.7z"/><path class="st18" d="M312.9 931.8c9.7 1.9 20.2 1.1 20.2 1.1s28.8-89 32.5-97.2c3.7-8.1 85.6-104.4 85.6-104.4l-34-85.3s-88.6 148-97.6 168.8c-14.9 34.4-20 111.4-20 111.4s5.7 4.1 13.3 5.6z"/></g></g><g><path class="st4" d="M1347.1 893.4H797.7l187.8-759.8h549.3z"/><path style="fill:#c0d8f9" d="M1265 846H715.7L903.5 86.2h549.3z"/><path style="fill:#d4e3f4" d="M1176.1 791.8H626.8L814.5 32.1h549.4z"/><path class="st3" d="m1441.6 133.6-173.8 707.8-456.7 4.6 470.5 10.3z"/><path class="st3" d="m1350.4 86.2-165.2 701.1-456.6 4.5 464.4 11.5z"/><path class="st10" d="M947.2 295.4H793.6l48.1-193h153.6z"/><path class="st4" d="M1298 129h-275.3l6.8-26.6h275.2zM1285.5 183.8h-275.2l6.8-26.7h275.2zM1272.6 238.5H997.3l6.8-26.7h275.2zM1257.3 293.2H982.1l6.7-26.6h275.3zM1257.3 350.2H753.4l6.8-26.6h503.9zM1243.9 407.2H740l6.8-26.6h503.8zM1225.2 471.4H721.4l6.7-26.6H1232zM1208.3 526.8H704.4l6.8-26.6h503.9z"/><defs><path id="SVGID_1_" d="M947.2 295.4H793.6l48.1-193h153.6z"/></defs><clipPath id="SVGID_2_"><use xlink:href="#SVGID_1_" style="overflow:visible"/></clipPath><g style="clip-path:url(#SVGID_2_)"><path class="st22" d="M960.6 314.6s9-4.1 12.5-2.9c3.5 1.3 13.1 5.4 12.8 9.5-.2 4.1-15.5 8.7-25.8 3.7-10.1-5 .5-10.3.5-10.3z"/><path class="st23" d="m963.3 325.9-.6 1.4c-3 4.9-53 5.1-58.7 1-2.6-1.8-3.3-27.1-3.4-54.5-.1-33.8.9-70.9.9-70.9S921 212 922 223.1c1 11.2-7.3 78.2-1.6 82.3 5.7 4.1 32 4.6 40.8 7.2 0 .1 3.7 8.1 2.1 13.3z"/><path class="st16" d="M912.8 126c-3.4-3.6-9-3.9-12.6-4.1 1-.8 2.9-.9 2.9-.9-2.2-.6-7.4.9-7.4.9s-17.4-12-29.3 11.4c0 0 1.7-1.7 4-3.5-6.8 13.5-4.5 35.5 10.7 41.3 10 3.8 66.7-8.6 31.7-45.1z"/><path class="st22" d="M902.2 208.5c.1.1-10.6 3.9-17.8.9-6.8-2.8-10.2-12.6-10.1-12.6 3.1-.2 4.5-4.2 6.7-21.9l1.3.4 22.2 7.4s-1.4 7.1-2.3 13.8c-.8 5.8-1.2 11.3 0 12z"/><path class="st24" d="M904.4 182.9s-1.4 7.1-2.3 13.8c-12.7-2-17.9-14.5-19.8-21.3l22.1 7.5z"/><path class="st16" d="M880.3 172.6s-5.3-11.4-5.7-20.6c-.3-6.6 6.1-30 29.6-23.5 0 0 6.9 1.6 12.8 6.9 4.7 4.2 11.3 12.7.2 32.5l-3.1 6.7-33.8-2z"/><path class="st22" d="M907.9 189.8s-30.2-3.4-27.8-22.2c2.4-18.8.1-31.8 19.5-30.4 19.4 1.4 22.2 9 22.9 15.5.7 6.4-6.7 37.5-14.6 37.1z"/><path class="st1" d="M909.8 232.3c-.2-2.2 4.5-3.2 5.3-1.2 1.6 3.8 1.4 8.4 1.8 12.1 1 10.5-3.1 24.2-3.1 24.2l-4-35.1z"/><path class="st16" d="M923 142.1c-3.9-6.2-7.6-5.5-9.8-4-5.2-10.6-27.6.8-27.6.8-3.8 13.2-14.5 19.6-14.5 19.6s5 4.1 18.1 2.5c10.3-1.3 19.3-14.5 22.7-20.1 1.6 1.8 4.9 6 5.5 9.7.9 5 .3 14.9 3.2 14.9.1.1 8.2-14 2.4-23.4z"/><path class="st5" d="M902.6 177.6s.3 2.5 6.2 2.9c0 0 5 .3 5.2-2.3.1-.1-4.5-2.6-11.4-.6z"/><path class="st1" d="m963.3 325.9-.6 1.4c-3 4.9-53 5.1-58.7 1-2.6-1.8-3.4-33.2 3.7-60.3 1.7 16.2-1.4 48.7 7.1 51.3 9.6 3 35.9 3.1 48.5 6.6z"/><path class="st23" d="M915.5 268.9c-19.8 57.2-10.8 67.6-17.9 72.5l-6 1.7c-7.3 4.9-6.6-2.1-28.5 4.2-10.4 3-23.9 7-35.4 9-4.3.7-8.4 1.1-11.9 1.1-6.8-.1-11.6-1.9-12.6-6.6-3-13.7 24.1-45.6 21.6-70l-.1-.6c-.1-2.1.1-4.5.6-7.1 2.8-13.1 13.6-31.3 24.4-46.6 11.9-16.9 23.8-30.3 24.6-29.7 23.3 18.2 27.2 6.1 27.2 6.1s20.8 46.5 14 66z"/><path class="st1" d="M893.7 342.6s.1 0 0 0c-7.3 4.9-8.7-1.5-30.7 4.8-10.4 3-23.9 7-35.4 9-5.8.3-10.1.6-11.9 1.1-6.8-.1-11.6-1.9-12.6-6.6-3-13.7 24.1-45.6 21.6-70l-.1-.6c-.2-2.4.1-4.8.6-7.1 2.5-9.9 11.3-19.9 21.8-34.7 4.8 6.6 47.8 5.2 30.3 62.5-5.4 17.4 15.6 27.3 16.4 41.6z"/><path class="st22" d="M891.3 345.3s9.6-1 13.6 1.3 11.9 7.8 10.9 10c-1.1 2.3-11.3 2.2-15.3-.7-3.9-2.9-7.5-.3-12.4-2.7-5-2.4 3.2-7.9 3.2-7.9z"/><path class="st23" d="M874.3 196.8s-34.3-4-42.6 11.7c-8.3 15.7-13.9 74-7.2 92.6 6.7 18.6 54.6 48.8 60.2 50.5 5.5 1.7 10.2-6.6 10.1-7.6-.1-1-47.8-51.1-47-55.5.7-4.3 26.5-91.7 26.5-91.7z"/></g></g><g><path class="st22" d="m2019.8 1345.8-12.2 51.5-18.4-.1-.6-51.4zM1865.5 1348l-34.9 49.3-13.5-17.4 20.9-38.7z"/><path class="st16" d="M1956.1 667.9c6.3-3.6 13.9-4 19.2-3.7-1.4-1.4-4.1-1.9-4.1-1.9 3.3-.5 10.6 2.8 10.6 2.8 45.8-17.6 53 49.8 52 65.4-1 15.7 15.4 20.8 39.2 33.1 45.5 23.5 49.4 55.1 49.4 55.1l-1.1.7c-2.3-3.8-6.9-11-10.8-12.1.1.3 4.6 9.9 6.3 15.3a1090.3 1090.3 0 0 0-56 48.8c.1-3.1 0-7.6-1.2-9.9l-2.2 13c-9.4 8.6-15.8 14.7-15.8 14.7 1.2-12.7-57.3-79.5-87.7-99.5a88.8 88.8 0 0 1-10.3-31.7 84.7 84.7 0 0 0 6.2 28.7c-25.5-23.7-10.5-109.3 6.3-118.8z"/><path class="st22" d="M1955.9 790.8c-.2.1 14.7 7.8 25.9 4.7 10.5-2.9 17.4-16.5 17.2-16.5-4.5-.9-5.7-7-5.6-33.3l-2 .4-33.9 6.7s.8 10.7.8 20.7c.1 8.4-.5 16.4-2.4 17.3z"/><path class="st24" d="M1957.5 752.7s.8 10.7.8 20.7c18.9-.5 29-17.8 33.1-27.4l-33.9 6.7z"/><path class="st16" d="M1994.9 742.4s9.9-15.7 12.3-29.1c1.7-9.6-3.2-45.1-38.8-40 0 0-10.4 1-20.1 7.6-7.7 5.2-18.9 16.5-6.4 47.5l3.2 10.5 49.8 3.5z"/><path class="st25" d="m1822.6 1366.4 17.9.5 19.4.6s44.9-50 70-130l1.9-5.7c13.8-40.2 42.3-90.6 57.4-136.2a1104.2 1104.2 0 0 0 8.3-26.7 485.8 485.8 0 0 0 17.3-90.9l-108.7.9s-17.5 184.6-83.5 387.5z"/><path d="M1921.3 916.5c.3 51.7-7.6 73.9-7.6 73.9s46.5 23.6 101.8 6.2l41.6-8.4c-.9-2.1-12.2-37.9-13.1-39.8-11.7-25.1-13.3-37.2-14.7-44.9a161.7 161.7 0 0 1-1.3-43.3c3.4-37.2 13.4-68 13.4-68-15.1-3.4-29.2-9.5-44.9-15.3-3.6 4.5-14.6 9.2-24.2 9-11-.2-14.6-5-14-10.1-11.7 6.5-21.1 12.7-21.1 12.7-10 17.3-30.2 34.2-31.7 60.7-.3 6.4 15.8 65.8 15.8 67.3z" style="fill:#e7f1fd"/><path class="st3" d="M1858.2 839.6c16-18.6 57.3-59 99.9-64l-36.8 71.7s-2.1 12.3-13 19.4c-26.7 17.5-60.6 25.3-60.6 25.3s-23-10-54.4-33.1c-9.9-7.2-27.2-34.8-27.2-34.8l4.7-15.6s29.4 16.5 39.9 21.2l29.5 13.7a15 15 0 0 0 18-3.8z"/><path class="st22" d="M1951.2 762.2s44.8.7 44.9-27.2c0-27.9 5.8-46.6-22.8-48.3-28.6-1.7-34.2 9-36.5 18.3-2.3 9.4 2.8 56.3 14.4 57.2z"/><path class="st16" d="M1952.9 686.1s12.3 32.8 31.1 37.6c18.8 4.8 27-.2 27-.2s-14.4-11.5-17.4-31.5c-.1 0-31.5-21.5-40.7-5.9z"/><path class="st16" d="M1955.9 688.8s-9.2 7.3-11.4 14.4c-2.2 7.1-3.2 21.7-7.5 21.3 0 0-9.2-22.3 1.1-34.9 11.1-13.4 17.8-.8 17.8-.8z"/><path class="st22" d="M1770.8 808.6s-6.3-22.8-31.4-19.6c-2.9.9-11.3 4.2-5.9 13.2 4 6.6 5.7 3.2 11.9 12.1 6.2 8.9 13 10.9 20.7 9.9l4.7-15.6zM2008.2 1394.5s-1.5 10.2 2.3 21.2c0 0 3 13.7-10.5 13.9-13.5.3-16.8-1-15.3-9.4s4.4-22.9 4.4-22.9l19.1-2.8z"/><path class="st9" d="m1983.5 1435.4.8.4h26.4l.7-.4c1.5-6.9-1-19.8-1-19.8-15.3 14-24.8-.3-24.8-.3-2.4 5.9-2.1 20.1-2.1 20.1z"/><path class="st22" d="M1784.6 1421.5s24.8-27.6 32.5-41.6l18.5 9.5-41.3 38.8-9.7-1.3v-5.4z"/><path class="st9" d="M1769.2 1435.8h34c3.3-2.4 6.3-8.1 10.1-15.7 2-4.1 6.6-6.3 11.2-7.5v23h7.1l6.7-24.4c4.4-8.1.3-15.4-2.8-21.8-3.6 0-13.3 2.5-31.6 23.1a24 24 0 0 1-19.3 9l-.3.1c-11 5-14.2 11.2-15.1 14.2z"/><path class="st3" d="M1958.4 775.6s-25.9 64.1-26.7 77c-.8 13-3.1 212-3.1 212s1.5 9.2-16 5.3c-17.5-3.8-22.1-7.6-22.1-7.6s16.8-122.8 12.2-165.5c-4.6-42.7 35.1-112.4 35.1-112.4l20.6-8.8z"/><path class="st12" d="m1840.5 1366.9 19.4.6s44.9-50 70-130l1.9-5.7c13.8-40.2 42.3-90.6 57.4-136.2a1104.2 1104.2 0 0 0 8.3-26.7l-16-12.1s-48 77.8-62.9 151c-12.9 63.6-64.7 140.1-78.1 159.1z"/><path class="st25" d="M1979.8 1214.6c-.3 35.6 1.5 117.5 6.2 151.3h17.2l14.3-.1a2896.1 2896.1 0 0 0 25.9-149.7c4.9-34.5 9.3-64 12.7-89.5 3.4-25.6 5.8-47 6.6-65.2l.3-8.3v-7.9l-93.9-9.2c1.3 62.5 10.9 157.9 10.7 178.6z"/><path class="st12" d="m2003.2 1365.9 14.3-.1a2896.1 2896.1 0 0 0 25.9-149.7c4.9-34.5 9.3-64 12.7-89.5 3.4-25.6 5.8-47 6.6-65.2l-34.5 20.3s22 7.8 13.6 66.5c-8.3 58.8-26.9 209.4-38.6 217.7z"/><path class="st3" d="M1998.8 1060.9s6.6 23.9 29.5 20.8a278 278 0 0 0 55.4-16.8s-9.8-30.9-21.9-71.5a2376.2 2376.2 0 0 1-41.5-152.5 248.1 248.1 0 0 1-4.7-27.2l-19-36.8s-28.3 63.5-29.8 79.5c-1.6 16.1 32 204.5 32 204.5z"/><path d="M1999.8 890c1 25.9 7.1 76.3 61.5 103.2l.4.2a2376.2 2376.2 0 0 1-41.5-152.5c-10 15-21 34.9-20.4 49.1z" style="fill:#4a75cb"/><path transform="rotate(-45 1719.4 721.4)" class="st25" d="M1707.2 673.1h24.3v96.5h-24.3z"/><path class="st8" d="m2120.9 1116.9-6 6a30 30 0 0 1-42.6 0L1738.4 789a30 30 0 0 1 0-42.6l6-6a30 30 0 0 1 42.6 0l333.9 333.9a30 30 0 0 1 0 42.6zM1281.2 283.1a285.5 285.5 0 0 0 403.6 403.6 285.5 285.5 0 0 0-403.6-403.6zm381.3 381.4a253.9 253.9 0 1 1-359.1-359.1 253.9 253.9 0 1 1 359.1 359.1z"/><path class="st22" d="m2021.6 854.1-25.1-77.2c.1 0 31.6 9.4 47.5 17.4 0 0 9.9 12.8 16.1 42.3 0 0 6.5 70.9-8 96.8 0 0-45.8 9.2-119-16v-16.8s80.1 4.2 96.5 6.1l-8-52.6z"/><path class="st3" d="M1996.6 776.9s46.4 3.3 57.6 28.2c11.2 24.9 14.7 107.8.5 132.2 0 0-19.6 5.6-54.3-.9l-1.3-.2s-11.1-27.1-1.1-32.4c0 0 29.2 1.5 26.2-8.1-3-9.7-27.6-118.8-27.6-118.8z"/><path class="st22" d="M1941.4 905.2s-6.4-7.7-7.7-15.6c-1.4-7.9-5.6-13.7-16.6-15.2-11-1.4-15.7-1.6-15.7 1.5s9 24.8 24.8 37.7c15.7 12.9 15.2-8.4 15.2-8.4z"/></g><g><path class="st28" d="m1595.4 255.4-340.1 340.1c5.5 11.2 11.9 22 19 32.2l353.3-353.3a252 252 0 0 0-32.2-19zM1572.1 245.3a254 254 0 0 0-326.9 326.9l326.9-326.9zM1370.6 710.9a254 254 0 0 0 340.2-340.2l-340.2 340.2z"/></g><path d="M67.1 1440.4h2577.4c1.3 0 2.3-1 2.3-2.3 0-1.3-1-2.3-2.3-2.3H67.1c-1.3 0-2.3 1-2.3 2.3 0 1.3 1 2.3 2.3 2.3z" style="fill:#283250"/></svg>
