<?xml version="1.0" encoding="utf-8"?>
<!-- Generator: Adobe Illustrator 25.2.1, SVG Export Plug-In . SVG Version: 6.00 Build 0)  -->
<svg version="1.1" id="_x3C_Layer_x3E_" xmlns="http://www.w3.org/2000/svg" xmlns:xlink="http://www.w3.org/1999/xlink" x="0px"
	 y="0px" viewBox="0 0 2508.1 1407.8" style="enable-background:new 0 0 2508.1 1407.8;" xml:space="preserve">
<style type="text/css">
	.st0{fill:#E6F2FB;}
	.st1{opacity:0.4;}
	.st2{fill:#8C9DF4;}
	.st3{fill:#505ABA;}
	.st4{fill:#FFFFFF;}
	.st5{fill:#AEC3FF;}
	.st6{fill:#F99746;}
	.st7{fill:#BDD1F9;}
	.st8{fill:#35488B;}
	.st9{fill:#2C3A64;}
	.st10{fill:#DDE7FE;}
	.st11{fill:#6C7AFF;}
	.st12{fill:#8FADEF;}
	.st13{fill:#F77D48;}
	.st14{fill:#FF8C64;}
	.st15{fill:#2A3967;}
	.st16{fill:#344670;}
	.st17{fill:#1E3459;}
	.st18{fill:#C5D8F4;}
	.st19{fill:#FF912B;}
	.st20{fill:#233862;}
	.st21{fill:#FFB27D;}
	.st22{fill:#0B3563;}
	.st23{fill:#0D458E;}
	.st24{fill:#ED975D;}
	.st25{fill:#D1D3D7;}
	.st26{fill:#00964B;}
	.st27{opacity:0.5;}
	.st28{fill:#E2E7F4;}
	.st29{fill:#113C68;}
	.st30{fill:#2A4E96;}
	.st31{fill:#15447C;}
	.st32{fill:#FCA56B;}
	.st33{fill:#163560;}
	.st34{fill:#1F4D84;}
	.st35{fill:#739AF0;}
	.st36{fill:#B3CFF9;}
	.st37{fill:#063663;}
	.st38{fill:#FFAB73;}
	.st39{fill:#007451;}
	.st40{fill:#004D91;}
	.st41{fill:#F8C8A3;}
	.st42{fill:#002244;}
	.st43{fill:#002252;}
	.st44{fill:#1C3965;}
	.st45{fill:#21488E;}
	.st46{fill:#F48D4E;}
</style>
<g>
	<g>
		<path class="st0" d="M2376.5,1393.4c-133.6,0-2139.9,0.5-2141-3l-0.2-0.4c0,0-0.2-0.4-0.2-0.6c-0.7-1.7-386.3-157.1-132.2-504.5
			C236.1,702.8-1.7,424,281.4,178c443.7-385.4,867.1,89.3,1046.5,0c150.9-75.1,393.3-182.6,639.3-86.2c67.6,26.5,214,159.5,92.4,383
			c-60.8,111.7,208.8,124.7,307.4,243.4C2582,976.8,2456.4,1393.4,2376.5,1393.4z"/>
	</g>
	<g class="st1">
		<g>
			<g>
				<path class="st2" d="M325.7,722.3H412c7.6,0,13.8-6.2,13.8-13.8V345.2c0-7.6-6.2-13.8-13.8-13.8h-86.3
					c-7.6,0-13.8,6.2-13.8,13.8v363.4C311.9,716.2,318.1,722.3,325.7,722.3z"/>
			</g>
			<g>
				<path class="st3" d="M395.5,638c0-14.7-11.9-26.7-26.7-26.7s-26.7,11.9-26.7,26.7c0,14.7,11.9,26.7,26.7,26.7
					S395.5,652.8,395.5,638z"/>
			</g>
			<g>
				<path class="st4" d="M368.8,667.7c-16.3,0-29.5-13.2-29.5-29.5c0-16.3,13.2-29.5,29.5-29.5c16.3,0,29.5,13.2,29.5,29.5
					C398.3,654.4,385.1,667.7,368.8,667.7z M368.8,614.3c-13.2,0-23.9,10.7-23.9,23.9c0,13.2,10.7,23.9,23.9,23.9
					c13.2,0,23.9-10.7,23.9-23.9C392.7,625,382,614.3,368.8,614.3z"/>
			</g>
			<g>
				<path class="st5" d="M340.6,569h56.5c2.8,0,5.1-2.3,5.1-5.1V354.4c0-2.8-2.3-5.1-5.1-5.1h-56.5c-2.8,0-5.1,2.3-5.1,5.1V564
					C335.5,566.8,337.7,569,340.6,569z"/>
			</g>
			<g>
				<path class="st6" d="M347.3,366.1h41.6c2.2,0,4-1.8,4-4v-0.7c0-2.2-1.8-4-4-4h-41.6c-2.2,0-4,1.8-4,4v0.7
					C343.3,364.3,345.1,366.1,347.3,366.1z"/>
			</g>
			<g>
				<g>
					<path class="st3" d="M377.3,497.7V543c0,1.2,1,2.2,2.2,2.2l0,0c1.2,0,2.2-1,2.2-2.2v-45.3c0-1.2-1-2.2-2.2-2.2l0,0
						C378.3,495.5,377.3,496.5,377.3,497.7z"/>
				</g>
				<g>
					<path class="st3" d="M377.3,435.4v45.3c0,1.2,1,2.2,2.2,2.2l0,0c1.2,0,2.2-1,2.2-2.2v-45.3c0-1.2-1-2.2-2.2-2.2l0,0
						C378.3,433.2,377.3,434.2,377.3,435.4z"/>
				</g>
				<g>
					<path class="st3" d="M352.1,497.7V543c0,1.2,1,2.2,2.2,2.2l0,0c1.2,0,2.2-1,2.2-2.2v-45.3c0-1.2-1-2.2-2.2-2.2l0,0
						C353,495.5,352.1,496.5,352.1,497.7z"/>
				</g>
				<g>
					<path class="st3" d="M352.1,435.4v45.3c0,1.2,1,2.2,2.2,2.2l0,0c1.2,0,2.2-1,2.2-2.2v-45.3c0-1.2-1-2.2-2.2-2.2l0,0
						C353,433.2,352.1,434.2,352.1,435.4z"/>
				</g>
				<g>
					<path class="st3" d="M365.2,484.9V543c0,1.2,1,2.2,2.2,2.2l0,0c1.2,0,2.2-1,2.2-2.2v-58.1c0-1.2-1-2.2-2.2-2.2l0,0
						C366.2,482.7,365.2,483.7,365.2,484.9z"/>
				</g>
				<g>
					<path class="st3" d="M365.2,406.6v58.1c0,1.2,1,2.2,2.2,2.2l0,0c1.2,0,2.2-1,2.2-2.2v-58.1c0-1.2-1-2.2-2.2-2.2l0,0
						C366.2,404.4,365.2,405.4,365.2,406.6z"/>
				</g>
			</g>
		</g>
		<g>
			<g>
				<path class="st2" d="M467.6,722.3H554c7.6,0,13.8-6.2,13.8-13.8V345.2c0-7.6-6.2-13.8-13.8-13.8h-86.3
					c-7.6,0-13.8,6.2-13.8,13.8v363.4C453.9,716.2,460,722.3,467.6,722.3z"/>
			</g>
			<g>
				<path class="st3" d="M537.5,638c0-14.7-11.9-26.7-26.7-26.7c-14.7,0-26.7,11.9-26.7,26.7c0,14.7,11.9,26.7,26.7,26.7
					C525.5,664.7,537.5,652.8,537.5,638z"/>
			</g>
			<g>
				<path class="st4" d="M510.8,667.7c-16.3,0-29.5-13.2-29.5-29.5c0-16.3,13.2-29.5,29.5-29.5c16.3,0,29.5,13.2,29.5,29.5
					C540.3,654.4,527.1,667.7,510.8,667.7z M510.8,614.3c-13.2,0-23.9,10.7-23.9,23.9c0,13.2,10.7,23.9,23.9,23.9
					c13.2,0,23.9-10.7,23.9-23.9C534.7,625,524,614.3,510.8,614.3z"/>
			</g>
			<g>
				<path class="st5" d="M482.5,569H539c2.8,0,5.1-2.3,5.1-5.1V354.4c0-2.8-2.3-5.1-5.1-5.1h-56.5c-2.8,0-5.1,2.3-5.1,5.1V564
					C477.5,566.8,479.7,569,482.5,569z"/>
			</g>
			<g>
				<path class="st6" d="M489.3,366.1h41.6c2.2,0,4-1.8,4-4v-0.7c0-2.2-1.8-4-4-4h-41.6c-2.2,0-4,1.8-4,4v0.7
					C485.3,364.3,487.1,366.1,489.3,366.1z"/>
			</g>
			<g>
				<g>
					<path class="st3" d="M519.3,497.7V543c0,1.2,1,2.2,2.2,2.2l0,0c1.2,0,2.2-1,2.2-2.2v-45.3c0-1.2-1-2.2-2.2-2.2l0,0
						C520.3,495.5,519.3,496.5,519.3,497.7z"/>
				</g>
				<g>
					<path class="st3" d="M519.3,435.4v45.3c0,1.2,1,2.2,2.2,2.2l0,0c1.2,0,2.2-1,2.2-2.2v-45.3c0-1.2-1-2.2-2.2-2.2l0,0
						C520.3,433.2,519.3,434.2,519.3,435.4z"/>
				</g>
				<g>
					<path class="st3" d="M494,497.7V543c0,1.2,1,2.2,2.2,2.2l0,0c1.2,0,2.2-1,2.2-2.2v-45.3c0-1.2-1-2.2-2.2-2.2l0,0
						C495,495.5,494,496.5,494,497.7z"/>
				</g>
				<g>
					<path class="st3" d="M494,435.4v45.3c0,1.2,1,2.2,2.2,2.2l0,0c1.2,0,2.2-1,2.2-2.2v-45.3c0-1.2-1-2.2-2.2-2.2l0,0
						C495,433.2,494,434.2,494,435.4z"/>
				</g>
				<g>
					<path class="st3" d="M507.2,484.9V543c0,1.2,1,2.2,2.2,2.2l0,0c1.2,0,2.2-1,2.2-2.2v-58.1c0-1.2-1-2.2-2.2-2.2l0,0
						C508.2,482.7,507.2,483.7,507.2,484.9z"/>
				</g>
				<g>
					<path class="st3" d="M507.2,406.6v58.1c0,1.2,1,2.2,2.2,2.2l0,0c1.2,0,2.2-1,2.2-2.2v-58.1c0-1.2-1-2.2-2.2-2.2l0,0
						C508.2,404.4,507.2,405.4,507.2,406.6z"/>
				</g>
			</g>
		</g>
		<g>
			<g>
				<path class="st2" d="M612.3,722.3h86.3c7.6,0,13.8-6.2,13.8-13.8V345.2c0-7.6-6.2-13.8-13.8-13.8h-86.3
					c-7.6,0-13.8,6.2-13.8,13.8v363.4C598.6,716.2,604.7,722.3,612.3,722.3z"/>
			</g>
			<g>
				<path class="st3" d="M682.2,638c0-14.7-11.9-26.7-26.7-26.7c-14.7,0-26.7,11.9-26.7,26.7c0,14.7,11.9,26.7,26.7,26.7
					C670.2,664.7,682.2,652.8,682.2,638z"/>
			</g>
			<g>
				<path class="st4" d="M655.5,667.7c-16.3,0-29.5-13.2-29.5-29.5c0-16.3,13.2-29.5,29.5-29.5c16.3,0,29.5,13.2,29.5,29.5
					C685,654.4,671.8,667.7,655.5,667.7z M655.5,614.3c-13.2,0-23.9,10.7-23.9,23.9c0,13.2,10.7,23.9,23.9,23.9
					c13.2,0,23.9-10.7,23.9-23.9C679.4,625,668.7,614.3,655.5,614.3z"/>
			</g>
			<g>
				<path class="st5" d="M627.2,569h56.5c2.8,0,5.1-2.3,5.1-5.1V354.4c0-2.8-2.3-5.1-5.1-5.1h-56.5c-2.8,0-5.1,2.3-5.1,5.1V564
					C622.1,566.8,624.4,569,627.2,569z"/>
			</g>
			<g>
				<path class="st6" d="M634,366.1h41.6c2.2,0,4-1.8,4-4v-0.7c0-2.2-1.8-4-4-4H634c-2.2,0-4,1.8-4,4v0.7
					C630,364.3,631.8,366.1,634,366.1z"/>
			</g>
			<g>
				<g>
					<path class="st3" d="M664,497.7V543c0,1.2,1,2.2,2.2,2.2l0,0c1.2,0,2.2-1,2.2-2.2v-45.3c0-1.2-1-2.2-2.2-2.2l0,0
						C665,495.5,664,496.5,664,497.7z"/>
				</g>
				<g>
					<path class="st3" d="M664,435.4v45.3c0,1.2,1,2.2,2.2,2.2l0,0c1.2,0,2.2-1,2.2-2.2v-45.3c0-1.2-1-2.2-2.2-2.2l0,0
						C665,433.2,664,434.2,664,435.4z"/>
				</g>
				<g>
					<path class="st3" d="M638.7,497.7V543c0,1.2,1,2.2,2.2,2.2l0,0c1.2,0,2.2-1,2.2-2.2v-45.3c0-1.2-1-2.2-2.2-2.2l0,0
						C639.7,495.5,638.7,496.5,638.7,497.7z"/>
				</g>
				<g>
					<path class="st3" d="M638.7,435.4v45.3c0,1.2,1,2.2,2.2,2.2l0,0c1.2,0,2.2-1,2.2-2.2v-45.3c0-1.2-1-2.2-2.2-2.2l0,0
						C639.7,433.2,638.7,434.2,638.7,435.4z"/>
				</g>
				<g>
					<path class="st3" d="M651.9,484.9V543c0,1.2,1,2.2,2.2,2.2l0,0c1.2,0,2.2-1,2.2-2.2v-58.1c0-1.2-1-2.2-2.2-2.2l0,0
						C652.9,482.7,651.9,483.7,651.9,484.9z"/>
				</g>
				<g>
					<path class="st3" d="M651.9,406.6v58.1c0,1.2,1,2.2,2.2,2.2l0,0c1.2,0,2.2-1,2.2-2.2v-58.1c0-1.2-1-2.2-2.2-2.2l0,0
						C652.9,404.4,651.9,405.4,651.9,406.6z"/>
				</g>
			</g>
		</g>
		<g>
			<g>
				<path class="st2" d="M761.3,722.3h86.3c7.6,0,13.8-6.2,13.8-13.8V345.2c0-7.6-6.2-13.8-13.8-13.8h-86.3
					c-7.6,0-13.8,6.2-13.8,13.8v363.4C747.6,716.2,753.7,722.3,761.3,722.3z"/>
			</g>
			<g>
				<path class="st5" d="M776.2,569h56.5c2.8,0,5.1-2.3,5.1-5.1V354.4c0-2.8-2.3-5.1-5.1-5.1h-56.5c-2.8,0-5.1,2.3-5.1,5.1V564
					C771.2,566.8,773.4,569,776.2,569z"/>
			</g>
			<g>
				<path class="st6" d="M783,366.1h41.6c2.2,0,4-1.8,4-4v-0.7c0-2.2-1.8-4-4-4H783c-2.2,0-4,1.8-4,4v0.7
					C779,364.3,780.8,366.1,783,366.1z"/>
			</g>
		</g>
		<g>
			<g>
				<path class="st2" d="M905.1,722.3h86.3c7.6,0,13.8-6.2,13.8-13.8V345.2c0-7.6-6.2-13.8-13.8-13.8h-86.3
					c-7.6,0-13.8,6.2-13.8,13.8v363.4C891.4,716.2,897.5,722.3,905.1,722.3z"/>
			</g>
			<g>
				<path class="st5" d="M920,569h56.5c2.8,0,5.1-2.3,5.1-5.1V354.4c0-2.8-2.3-5.1-5.1-5.1H920c-2.8,0-5.1,2.3-5.1,5.1V564
					C915,566.8,917.2,569,920,569z"/>
			</g>
			<g>
				<path class="st6" d="M926.8,366.1h41.6c2.2,0,4-1.8,4-4v-0.7c0-2.2-1.8-4-4-4h-41.6c-2.2,0-4,1.8-4,4v0.7
					C922.8,364.3,924.6,366.1,926.8,366.1z"/>
			</g>
		</g>
		<g>
			<g>
				<path class="st2" d="M325.7,1164.4H412c7.6,0,13.8-6.2,13.8-13.8V787.3c0-7.6-6.2-13.8-13.8-13.8h-86.3
					c-7.6,0-13.8,6.2-13.8,13.8v363.4C311.9,1158.3,318.1,1164.4,325.7,1164.4z"/>
			</g>
			<g>
				<circle class="st3" cx="368.8" cy="1080.1" r="26.7"/>
			</g>
			<g>
				<path class="st4" d="M368.8,1109.8c-16.3,0-29.5-13.2-29.5-29.5c0-16.3,13.2-29.5,29.5-29.5c16.3,0,29.5,13.2,29.5,29.5
					C398.3,1096.6,385.1,1109.8,368.8,1109.8z M368.8,1056.4c-13.2,0-23.9,10.7-23.9,23.9c0,13.2,10.7,23.9,23.9,23.9
					c13.2,0,23.9-10.7,23.9-23.9C392.7,1067.1,382,1056.4,368.8,1056.4z"/>
			</g>
			<g>
				<path class="st5" d="M340.6,1011.2h56.5c2.8,0,5.1-2.3,5.1-5.1V796.5c0-2.8-2.3-5.1-5.1-5.1h-56.5c-2.8,0-5.1,2.3-5.1,5.1v209.5
					C335.5,1008.9,337.7,1011.2,340.6,1011.2z"/>
			</g>
			<g>
				<path class="st6" d="M347.3,808.2h41.6c2.2,0,4-1.8,4-4v-0.7c0-2.2-1.8-4-4-4h-41.6c-2.2,0-4,1.8-4,4v0.7
					C343.3,806.4,345.1,808.2,347.3,808.2z"/>
			</g>
			<g>
				<g>
					<path class="st3" d="M377.3,939.8v45.3c0,1.2,1,2.2,2.2,2.2l0,0c1.2,0,2.2-1,2.2-2.2v-45.3c0-1.2-1-2.2-2.2-2.2l0,0
						C378.3,937.6,377.3,938.6,377.3,939.8z"/>
				</g>
				<g>
					<path class="st3" d="M377.3,877.5v45.3c0,1.2,1,2.2,2.2,2.2l0,0c1.2,0,2.2-1,2.2-2.2v-45.3c0-1.2-1-2.2-2.2-2.2l0,0
						C378.3,875.3,377.3,876.3,377.3,877.5z"/>
				</g>
				<g>
					<path class="st3" d="M352.1,939.8v45.3c0,1.2,1,2.2,2.2,2.2l0,0c1.2,0,2.2-1,2.2-2.2v-45.3c0-1.2-1-2.2-2.2-2.2l0,0
						C353,937.6,352.1,938.6,352.1,939.8z"/>
				</g>
				<g>
					<path class="st3" d="M352.1,877.5v45.3c0,1.2,1,2.2,2.2,2.2l0,0c1.2,0,2.2-1,2.2-2.2v-45.3c0-1.2-1-2.2-2.2-2.2l0,0
						C353,875.3,352.1,876.3,352.1,877.5z"/>
				</g>
				<g>
					<path class="st3" d="M365.2,927v58.1c0,1.2,1,2.2,2.2,2.2l0,0c1.2,0,2.2-1,2.2-2.2V927c0-1.2-1-2.2-2.2-2.2l0,0
						C366.2,924.8,365.2,925.8,365.2,927z"/>
				</g>
				<g>
					<path class="st3" d="M365.2,848.7v58.1c0,1.2,1,2.2,2.2,2.2l0,0c1.2,0,2.2-1,2.2-2.2v-58.1c0-1.2-1-2.2-2.2-2.2l0,0
						C366.2,846.5,365.2,847.5,365.2,848.7z"/>
				</g>
			</g>
		</g>
		<g>
			<g>
				<path class="st2" d="M467.6,1164.4H554c7.6,0,13.8-6.2,13.8-13.8V787.3c0-7.6-6.2-13.8-13.8-13.8h-86.3
					c-7.6,0-13.8,6.2-13.8,13.8v363.4C453.9,1158.3,460,1164.4,467.6,1164.4z"/>
			</g>
			<g>
				<path class="st3" d="M537.5,1080.1c0-14.7-11.9-26.7-26.7-26.7c-14.7,0-26.7,11.9-26.7,26.7c0,14.7,11.9,26.7,26.7,26.7
					C525.5,1106.8,537.5,1094.9,537.5,1080.1z"/>
			</g>
			<g>
				<path class="st4" d="M510.8,1109.8c-16.3,0-29.5-13.2-29.5-29.5c0-16.3,13.2-29.5,29.5-29.5c16.3,0,29.5,13.2,29.5,29.5
					C540.3,1096.6,527.1,1109.8,510.8,1109.8z M510.8,1056.4c-13.2,0-23.9,10.7-23.9,23.9c0,13.2,10.7,23.9,23.9,23.9
					c13.2,0,23.9-10.7,23.9-23.9C534.7,1067.1,524,1056.4,510.8,1056.4z"/>
			</g>
			<g>
				<path class="st5" d="M482.5,1011.2H539c2.8,0,5.1-2.3,5.1-5.1V796.5c0-2.8-2.3-5.1-5.1-5.1h-56.5c-2.8,0-5.1,2.3-5.1,5.1v209.5
					C477.5,1008.9,479.7,1011.2,482.5,1011.2z"/>
			</g>
			<g>
				<path class="st6" d="M489.3,808.2h41.6c2.2,0,4-1.8,4-4v-0.7c0-2.2-1.8-4-4-4h-41.6c-2.2,0-4,1.8-4,4v0.7
					C485.3,806.4,487.1,808.2,489.3,808.2z"/>
			</g>
			<g>
				<g>
					<path class="st3" d="M519.3,939.8v45.3c0,1.2,1,2.2,2.2,2.2l0,0c1.2,0,2.2-1,2.2-2.2v-45.3c0-1.2-1-2.2-2.2-2.2l0,0
						C520.3,937.6,519.3,938.6,519.3,939.8z"/>
				</g>
				<g>
					<path class="st3" d="M519.3,877.5v45.3c0,1.2,1,2.2,2.2,2.2l0,0c1.2,0,2.2-1,2.2-2.2v-45.3c0-1.2-1-2.2-2.2-2.2l0,0
						C520.3,875.3,519.3,876.3,519.3,877.5z"/>
				</g>
				<g>
					<path class="st3" d="M494,939.8v45.3c0,1.2,1,2.2,2.2,2.2l0,0c1.2,0,2.2-1,2.2-2.2v-45.3c0-1.2-1-2.2-2.2-2.2l0,0
						C495,937.6,494,938.6,494,939.8z"/>
				</g>
				<g>
					<path class="st3" d="M494,877.5v45.3c0,1.2,1,2.2,2.2,2.2l0,0c1.2,0,2.2-1,2.2-2.2v-45.3c0-1.2-1-2.2-2.2-2.2l0,0
						C495,875.3,494,876.3,494,877.5z"/>
				</g>
				<g>
					<path class="st3" d="M507.2,927v58.1c0,1.2,1,2.2,2.2,2.2l0,0c1.2,0,2.2-1,2.2-2.2V927c0-1.2-1-2.2-2.2-2.2l0,0
						C508.2,924.8,507.2,925.8,507.2,927z"/>
				</g>
				<g>
					<path class="st3" d="M507.2,848.7v58.1c0,1.2,1,2.2,2.2,2.2l0,0c1.2,0,2.2-1,2.2-2.2v-58.1c0-1.2-1-2.2-2.2-2.2l0,0
						C508.2,846.5,507.2,847.5,507.2,848.7z"/>
				</g>
			</g>
		</g>
		<g>
			<g>
				<path class="st2" d="M612.3,1164.4h86.3c7.6,0,13.8-6.2,13.8-13.8V787.3c0-7.6-6.2-13.8-13.8-13.8h-86.3
					c-7.6,0-13.8,6.2-13.8,13.8v363.4C598.6,1158.3,604.7,1164.4,612.3,1164.4z"/>
			</g>
		</g>
		<g>
			<g>
				<path class="st2" d="M761.3,1164.4h86.3c7.6,0,13.8-6.2,13.8-13.8V787.3c0-7.6-6.2-13.8-13.8-13.8h-86.3
					c-7.6,0-13.8,6.2-13.8,13.8v363.4C747.6,1158.3,753.7,1164.4,761.3,1164.4z"/>
			</g>
		</g>
		<g>
			<g>
				<path class="st2" d="M905.1,1164.4h86.3c7.6,0,13.8-6.2,13.8-13.8V787.3c0-7.6-6.2-13.8-13.8-13.8h-86.3
					c-7.6,0-13.8,6.2-13.8,13.8v363.4C891.4,1158.3,897.5,1164.4,905.1,1164.4z"/>
			</g>
		</g>
		<g>
			<path class="st7" d="M281.4,1393.4L281.4,1393.4c-7.6,0-13.7-6.1-13.7-13.7V291c0-7.6,6.1-13.7,13.7-13.7l0,0
				c7.6,0,13.7,6.1,13.7,13.7v1088.7C295.1,1387.3,289,1393.4,281.4,1393.4z"/>
		</g>
		<g>
			
				<rect x="267.8" y="722.4" transform="matrix(-1 -1.224647e-16 1.224647e-16 -1 1326.3503 1455.741)" class="st7" width="790.8" height="11"/>
		</g>
		<g>
			
				<rect x="267.8" y="1164.3" transform="matrix(-1 -1.224647e-16 1.224647e-16 -1 1375.4559 2339.5066)" class="st7" width="839.9" height="11"/>
		</g>
	</g>
	<g>
		<g>
			
				<rect x="2220.8" y="983.7" transform="matrix(-1 -1.224647e-16 1.224647e-16 -1 4506.2764 2176.1189)" class="st8" width="64.7" height="208.6"/>
		</g>
		<g>
			
				<rect x="2064.9" y="983.7" transform="matrix(-1 -1.224647e-16 1.224647e-16 -1 4285.6592 2176.1189)" class="st9" width="156" height="208.6"/>
		</g>
		<g>
			<path class="st10" d="M2263.9,1009.8c0-6-4.8-10.8-10.8-10.8c-6,0-10.8,4.8-10.8,10.8c0,6,4.8,10.8,10.8,10.8
				C2259.1,1020.6,2263.9,1015.8,2263.9,1009.8z"/>
		</g>
		<g>
			<path class="st11" d="M2260.8,1009.8c0-4.2-3.4-7.6-7.6-7.6c-4.2,0-7.6,3.4-7.6,7.6c0,4.2,3.4,7.6,7.6,7.6
				C2257.4,1017.4,2260.8,1014,2260.8,1009.8z"/>
		</g>
		<g>
			
				<rect x="2237.7" y="1035.8" transform="matrix(-1 -1.224647e-16 1.224647e-16 -1 4505.8018 2126.5642)" class="st12" width="30.4" height="54.9"/>
		</g>
	</g>
	<g>
		<g>
			
				<rect x="2100.2" y="983.7" transform="matrix(-1 -1.224647e-16 1.224647e-16 -1 4264.999 2176.1189)" class="st8" width="64.7" height="208.6"/>
		</g>
		<g>
			
				<rect x="1944.2" y="983.7" transform="matrix(-1 -1.224647e-16 1.224647e-16 -1 4044.3816 2176.1189)" class="st9" width="156" height="208.6"/>
		</g>
		<g>
			<path class="st10" d="M2143.3,1009.8c0-6-4.8-10.8-10.8-10.8c-6,0-10.8,4.8-10.8,10.8c0,6,4.8,10.8,10.8,10.8
				C2138.5,1020.6,2143.3,1015.8,2143.3,1009.8z"/>
		</g>
		<g>
			<path class="st11" d="M2140.1,1009.8c0-4.2-3.4-7.6-7.6-7.6c-4.2,0-7.6,3.4-7.6,7.6c0,4.2,3.4,7.6,7.6,7.6
				C2136.7,1017.4,2140.1,1014,2140.1,1009.8z"/>
		</g>
		<g>
			
				<rect x="2117.1" y="1035.8" transform="matrix(-1 -1.224647e-16 1.224647e-16 -1 4264.5244 2126.5642)" class="st12" width="30.4" height="54.9"/>
		</g>
	</g>
	<g>
		<g>
			
				<rect x="1989.9" y="983.7" transform="matrix(-1 -1.224647e-16 1.224647e-16 -1 4044.3828 2176.1189)" class="st8" width="64.7" height="208.6"/>
		</g>
		<g>
			
				<rect x="1833.9" y="983.7" transform="matrix(-1 -1.224647e-16 1.224647e-16 -1 3823.7666 2176.1189)" class="st9" width="156" height="208.6"/>
		</g>
		<g>
			<path class="st10" d="M2033,1009.8c0-6-4.8-10.8-10.8-10.8c-6,0-10.8,4.8-10.8,10.8c0,6,4.8,10.8,10.8,10.8
				C2028.2,1020.6,2033,1015.8,2033,1009.8z"/>
		</g>
		<g>
			<path class="st11" d="M2029.8,1009.8c0-4.2-3.4-7.6-7.6-7.6c-4.2,0-7.6,3.4-7.6,7.6c0,4.2,3.4,7.6,7.6,7.6
				C2026.4,1017.4,2029.8,1014,2029.8,1009.8z"/>
		</g>
		<g>
			
				<rect x="2006.7" y="1035.8" transform="matrix(-1 -1.224647e-16 1.224647e-16 -1 4043.907 2126.5642)" class="st12" width="30.4" height="54.9"/>
		</g>
	</g>
	<g>
		<g>
			
				<rect x="1824.2" y="1119.6" transform="matrix(-1 -1.224647e-16 1.224647e-16 -1 4013.7537 2509.1599)" class="st13" width="365.4" height="269.9"/>
		</g>
		<g>
			
				<rect x="2020" y="1119.6" transform="matrix(-1 -1.224647e-16 1.224647e-16 -1 4329.666 2509.1599)" class="st14" width="289.7" height="269.9"/>
		</g>
		<g>
			<path class="st9" d="M2143.8,1163.7h75c4.6,0,8.4-3.8,8.4-8.4v-1.1c0-4.6-3.8-8.4-8.4-8.4h-75c-4.6,0-8.4,3.8-8.4,8.4v1.1
				C2135.4,1159.9,2139.2,1163.7,2143.8,1163.7z"/>
		</g>
	</g>
	<g>
		<g>
			<path class="st15" d="M1273.8,766.8l-49.4,587.5c0,0-5.2,35.6,21.3,35.7c43.6,0.1,216.8,0,216.8,0s-32.8-7.4-32.4-24.1
				c0.5-19.7,57.7-604.6,57.7-604.6L1273.8,766.8z"/>
		</g>
		<g>
			<path class="st16" d="M1478.8,1379.3c-8.6,0-176.3,0.3-218.7-0.2c-18.5-0.2-21.7-16.4-21.9-26.9c-0.1-5,0.6-8.7,0.6-8.7l1.3-15.3
				l3.3-38.9l2.9-34.4l3.7-44.2l3.1-37.3l35.1-417.5l214.1-5.6c0,0-24.1,244.8-41.2,423c-1.9,19.9-3.7,38.9-5.4,56.7
				c-0.5,5.7-1.1,11.2-1.6,16.6c-1.6,16.9-3,32.3-4.3,46c-0.7,7.2-1.3,13.9-1.8,20c-2.2,24-3.5,39.4-3.5,42.3c0,1.7,0.1,3.3,0.4,4.8
				C1448.5,1378.4,1475.6,1379.3,1478.8,1379.3z"/>
		</g>
		<g>
			<polygon class="st16" points="754,446.8 874.3,930.3 890.8,996.5 946.9,1221.7 1988.3,1221.7 1781.7,446.8 			"/>
		</g>
		<g>
			<polygon class="st15" points="754,446.8 737.3,452.4 924.7,1238.5 946.9,1221.7 			"/>
		</g>
		<g>
			<polygon class="st15" points="924.7,1238.5 1959.7,1238.5 1988.3,1221.7 946.9,1221.7 			"/>
		</g>
		<g>
			
				<rect x="1288.2" y="1379.3" transform="matrix(-1 -1.224647e-16 1.224647e-16 -1 2800.4138 2769.229)" class="st17" width="224.1" height="10.6"/>
		</g>
		<g>
			<polygon class="st15" points="1455.3,1238.5 1454.1,1246.6 1243.4,1289.2 1246.3,1254.8 1247.7,1238.5 			"/>
		</g>
		<g>
			<path class="st15" d="M1478.8,1379.3c-8.6,0-176.3,0.3-218.7-0.2c-18.5-0.2-21.7-16.4-21.9-26.9l209.8-39.5
				c-2.2,24-3.5,39.4-3.5,42.3c0,1.7,0.1,3.3,0.4,4.8C1448.5,1378.4,1475.6,1379.3,1478.8,1379.3z"/>
		</g>
		<g>
			<polygon class="st16" points="754,446.8 1781.7,446.8 1948.4,1069.6 909,1069.6 			"/>
		</g>
		<g>
			<polygon class="st18" points="1899.9,1042.6 937.7,1042.6 903.3,905.6 890,852.6 884.6,831 849.3,690.2 847.4,682.9 828.8,608.5 
				820.4,575.2 813.3,546.8 807.4,523.6 796.5,480.2 1744.9,480.2 1756.9,523.6 1763.3,546.8 1771.1,575.2 1780.3,608.5 
				1840.7,827.8 1840.7,827.8 1845.9,846.4 1848.2,855 1890,1006.5 			"/>
		</g>
	</g>
	<path class="st19" d="M762,1082.2l-2.2-5.7c-5.4-14.3-21.4-12.5-35.9-12.5h-93.4v63v269H1017v-300.8H798.3
		C782.4,1095.3,768,1098,762,1082.2z"/>
	<g>
		<path class="st20" d="M2458.6,1396.7H127.4c-1.5,0-2.8-1.2-2.8-2.8v-1.2c0-1.5,1.2-2.8,2.8-2.8h2331.1c1.5,0,2.8,1.2,2.8,2.8v1.2
			C2461.3,1395.5,2460.1,1396.7,2458.6,1396.7z"/>
	</g>
	<g>
		<path class="st6" d="M1011.1,645.8l-8.9-13.1c-9.5-14.1-25.7-23.2-40.8-23.2h-97.6l16.9,61.9l67.2,245.8c3,11,13,18.7,24.4,18.7
			h351.3c16.7,0,28.9-15.9,24.4-32l-63.6-232.4H1056C1039.3,671.3,1021.6,661.2,1011.1,645.8z"/>
	</g>
	<g>
		<g>
			<g>
				<path class="st21" d="M1021.2,572c-1.5,1.8-1.7,3.7-1,5.8c0,0,0,0,0,0c1.4,3.9,6,8.2,11.4,12.5c0.7,0.6,1.3,1.1,1.8,1.5
					c0.1,0.1,0.3,0.2,0.4,0.4c0.1,0.1,0.2,0.2,0.3,0.3c5,4.6,3.1,5.7,12.1,15.1c10.3,10.7,17.3,10.9,19.3,9.9
					c1.7-0.8-1.8-6.5-5.6-12.9c-0.2-0.3-0.4-0.6-0.6-0.9c-0.5-0.8-1-1.7-1.5-2.6c-4.5-7.7-3.3-11.3-2.3-22.7
					c0.9-9.3,14.4-51.8,14.4-51.8l-19.7-3.4c0,0-5.9,33.9-12.5,39.1c-3.5,2.8-7.4,2.8-10.8,4.9c-0.2,0.1-0.5,0.3-0.7,0.4
					C1024.7,569,1022.8,570.3,1021.2,572z"/>
			</g>
			<g>
				<path class="st20" d="M1021.2,572c-1.5,1.8-1.7,3.7-1,5.8c0,0,0,0,0,0c1.7,3.9,6.2,8.2,11.4,12.5c0.7,0.6,1.3,1.1,1.8,1.6
					c0.1,0.1,0.3,0.2,0.4,0.4c0.1,0.1,0.2,0.2,0.3,0.3c5,4.6,3.1,5.7,12.1,15.1c10.3,10.7,17.3,10.9,19.3,9.9
					c1.7-0.8-1.8-6.5-5.6-12.9c-2-0.7-11.3-4.5-18.3-13.5c-6-7.6-10-17.3-14.1-23.2c-0.4-0.1-0.7-0.1-1.2-0.2
					C1024.7,569,1022.8,570.3,1021.2,572z"/>
			</g>
			<g>
				<path class="st21" d="M1179.9,559.8c1.2,6.1,9.9,5.1,19.5,2.7c9.7-2.4,7.4,0.4,21.1-1.1c13.8-1.5,17.9-6.7,18.4-8.7
					c0.4-1.8-6.4-2.5-13.7-3.3c-0.9-0.1-1.8-0.2-2.8-0.3c-8.2-1-14.3-6.4-21.8-10.7c-7.1-4.1-17.7-21-17.7-21l-18.9,1.5
					c0,0,9.9,15.1,13.7,21.6c2.3,3.8,2.1,8.9,1.9,12.9C1179.6,555.5,1179.5,557.7,1179.9,559.8z"/>
			</g>
			<g>
				<path class="st20" d="M1199.5,562.5c9.7-2.4,7.4,0.4,21.1-1.1c13.8-1.5,17.9-6.7,18.4-8.7c0.4-1.8-6.4-2.5-13.7-3.3l-0.1,0.1
					c0,0-8.3,5.9-19.7,6.1c-9.3,0.2-19.2-2.5-25.7-2.4c-0.1,2.1-0.3,4.3,0.1,6.5C1181.1,565.9,1189.8,564.9,1199.5,562.5z"/>
			</g>
			<g>
				<path class="st22" d="M1107.6,439l-17.7,47.5l-23.1,62c0,0-6.3,0.6-12.2-1.1c-5.5-1.6-11.8-5.8-11.8-5.8s6.4-66.6,18.4-104.8
					c3.1-9.8,6.5-17.7,10.3-22.2C1089.9,392.8,1107.6,439,1107.6,439z"/>
			</g>
			<g>
				<path class="st23" d="M1089.7,363.6c-10-3.2-36.3-0.1-64.7,5.1c-7.9,1.4-15.8-2.2-19.9-9l0,0l-71.6-5.6c0,0-23.6,52.4-10.7,85.7
					c1.9,4.9,6.1,8,12.5,8.1c0,0,0,0,0,0c0,0,43.2,0.1,57.1,0.1c35.6,0,75.3-24.4,80.5-25.5c8.4-1.7,11.8,15.1,20.2,32.8
					c8.4,17.7,79.1,78.3,79.1,78.3s10.9,0.1,15.3-1.6c4.8-1.8,6.6-4.2,6.6-4.2S1115.7,372,1089.7,363.6z"/>
			</g>
			<g>
				<path class="st20" d="M997.5,149.5c-5.3-3.2-10.5-3.7-13.7-3.6c-2.2,0.1-4.4-0.1-6.6-0.4c-27.3-4-43.8,35.7-44.7,47.6
					c-1.8,22-13.4,25.4-29.8,39.1c-32.9,27.6-23.2,59.7-5.3,71.7c10.8,7.2,29.8,0,29.8,0c0.3,0.2,52-28.9,77.5-42.9
					C1042.9,255.7,1012.9,158.7,997.5,149.5z"/>
			</g>
			<g>
				<path class="st21" d="M983.3,249.2c0.1,0.1-12.5,4.4-21,0.6c-8-3.5-14-16.6-13.9-16.6c3.6-0.2,7.6-3.3,10.7-24.1l1.5,0.6
					l25.9,9.3c0,0-1.9,8.3-3.1,16.2C982.4,241.9,981.9,248.2,983.3,249.2z"/>
			</g>
			<g>
				<path class="st24" d="M986.6,219c0,0-1,4.5-2.5,12.9c-14.9-2.7-21.3-14.2-23.4-22.2L986.6,219z"/>
			</g>
			<g>
				<path class="st21" d="M990.4,227.2c0,0-35.5-4.8-32.1-26.8c3.3-22,1-37.5,23.7-35.4c22.8,2.1,25.9,11.2,26.6,18.8
					C1009.3,191.5,999.7,227.9,990.4,227.2z"/>
			</g>
			<g>
				<path class="st20" d="M1007.3,171.8c0,0-22.7,19.6-38.1,21.1c-15.4,1.6-21.3-3.4-21.3-3.4s9.1-7.6,14.6-19.7
					c1.6-3.6,5-6.1,9-6.4C982.5,162.4,1003.4,162,1007.3,171.8z"/>
			</g>
			<g>
				<path class="st20" d="M993.1,170c0,0,7.6,7.3,10,12.8c2.3,5.3,3,17.8,1.2,22.8c0,0,11.8-23,5.1-34.2
					C1002.3,159.6,993.1,170,993.1,170z"/>
			</g>
			<g>
				<path class="st23" d="M1089.9,486.5l-23.1,62c0,0-6.3,0.6-12.2-1.1c-5.5-1.6-11.8-5.8-11.8-5.8s6.4-66.6,18.4-104.8
					L1089.9,486.5z"/>
			</g>
			<g>
				<path class="st25" d="M983.5,235.2c0,0,30.8,5.2,34.5,18.5c3.6,13.3,15.5,93.9,15.5,93.9s-8.7,8.5-15.9,1.2
					c-7.2-7.2-22.8-75.4-22.8-75.4L983.5,235.2z"/>
			</g>
			<g>
				<path class="st4" d="M1013.2,301.4c-1.1,71.8-0.3,56.8-8.2,63.6c-1.9,1.6-7.2,2.6-14.2,3.1c-22,1.5-60.7-2.2-62.2-6.3
					c-5.1-14.1-1.5-18.4-5.7-40c-0.4-2.3-1-4.8-1.6-7.5c-3.5-14.8-7-19.8,5.6-43.6c11.4-21.5,23.2-39,24.2-38.4
					c30,17.8,32.4,2.8,32.4,2.8S1013.7,266.4,1013.2,301.4z"/>
			</g>
			<g>
				<path class="st25" d="M990.8,368.1c-22,1.5-60.7-2.2-62.2-6.3c-5.1-14.1-1.5-18.4-5.7-40l10.6-29.9c0,0-1.8,33.3,8,42
					c9.8,8.8,40.2,16.9,45,24.2C988.8,361.7,990.3,365.2,990.8,368.1z"/>
			</g>
			<g>
				<path class="st21" d="M965.6,354.1c0,0,21.7-4.8,25.2-2.9c3.5,1.9,12.1,8.9,13.1,11.4c1.1,2.4-7.8-1.9-10.7-2.6
					c-1.9-0.5-6.8,1.2-9.2,2c-10.2,3.4-16.5,1.7-16.5,1.7L965.6,354.1z"/>
			</g>
			<g>
				<path class="st4" d="M951.1,232.3c0,0-29.2,1.8-39.3,15.9c-14.2,19.8-42.4,104.3-26.3,115.5c18.2,12.7,82.8,3.3,82.8,3.3
					s2.2-10-0.8-14.9c-3-4.9-51.6-12.7-53.8-15c-2.2-2.2,28.1-43.7,28.1-50.5C941.7,280,951.1,232.3,951.1,232.3z"/>
			</g>
			<g>
				<path class="st21" d="M991.8,357.2c0,0,4.5,5.9,6,6.6c1.5,0.7,2.5,0.5,2.5,0.5l-3.1-5.5L991.8,357.2z"/>
			</g>
			<g>
				<path class="st21" d="M990.8,351.2l13.2,6.4c0,0-0.6,0.9-2.2,0.8c-1.6-0.1-5.7-1.6-5.7-1.6L990.8,351.2z"/>
			</g>
		</g>
		<g>
			<polygon class="st26" points="1103.7,366.3 965.6,366.3 965.6,369.3 1102.5,369.4 			"/>
		</g>
		<g>
			<polygon class="st26" points="997.9,369.3 1102.5,369.4 1134,291.1 1029.5,291.1 			"/>
		</g>
		<g>
			<path class="st4" d="M1076.1,330.2c0.8-2.8-0.8-5-3.6-5c-2.8,0-5.6,2.2-6.4,5c-0.8,2.8,0.8,5,3.6,5
				C1072.4,335.2,1075.3,333,1076.1,330.2z"/>
		</g>
	</g>
	<g class="st27">
		<polygon class="st2" points="1592.3,628.1 1563.3,591.1 1561.9,589.4 1560.3,589.1 1426.7,564.5 1381.8,808.8 1555,840.7 
			1593.4,631.7 1593.7,630 		"/>
	</g>
	<g>
		<g>
			<polygon class="st2" points="1505.4,552.3 1505.4,554 1513.7,766.4 1337.7,773.2 1328.1,525 1463.8,519.7 1465.5,519.6 
				1467.2,521 1503.5,550.8 			"/>
		</g>
	</g>
	<g>
		<g>
			<path class="st20" d="M1389.6,613.1L1096,629.5c-0.6,0-1,0.5-1,1.1l21.4,384.5c0,0.6,0.5,1,1.1,1l293.2-16.3c0.6,0,1-0.5,1-1.1
				l-21.5-384.9C1390.3,613.4,1390,613.1,1389.6,613.1z"/>
		</g>
		<g>
			<path class="st4" d="M1389.1,987.6l-248.7,15.6c-7.5,0.5-13.9-5.2-14.4-12.7l-21.2-338c-0.5-7.5,5.2-13.9,12.7-14.4l248.7-15.6
				c7.5-0.5,13.9,5.2,14.4,12.7l21.2,338C1402.2,980.7,1396.5,987.2,1389.1,987.6z"/>
		</g>
		<g>
			<g>
				<path class="st7" d="M1290.9,678.4l-156.5,9.8c-0.1,0-0.1-0.1-0.2-0.1l-0.2-3.9c0-0.1,0.1-0.1,0.1-0.2l156.5-9.8
					c0.1,0,0.1,0.1,0.2,0.1l0.2,3.9C1291.1,678.3,1291,678.4,1290.9,678.4z"/>
			</g>
			<g>
				<path class="st7" d="M1293,712l-156.5,9.8c-0.1,0-0.1-0.1-0.2-0.1l-0.2-3.9c0-0.1,0.1-0.1,0.1-0.2l156.5-9.8
					c0.1,0,0.1,0.1,0.2,0.1l0.2,3.9C1293.2,711.9,1293.1,712,1293,712z"/>
			</g>
			<g>
				<path class="st7" d="M1351.8,691.5L1135.5,705c-0.1,0-0.1-0.1-0.2-0.1l-0.2-3.9c0-0.1,0.1-0.1,0.1-0.2l216.2-13.6
					c0.1,0,0.1,0.1,0.2,0.1l0.2,3.9C1351.9,691.4,1351.8,691.5,1351.8,691.5z"/>
			</g>
			<g>
				<path class="st7" d="M1255.2,818.8l-106.5,6.7c-0.1,0-0.1,0-0.1-0.1l-0.2-4c0-0.1,0-0.1,0.1-0.1l106.4-6.7c0.1,0,0.1,0,0.1,0.1
					l0.2,4C1255.3,818.7,1255.3,818.8,1255.2,818.8z"/>
			</g>
			<g>
				<path class="st7" d="M1294.9,799.4l-147.1,9.2c-0.1,0-0.1,0-0.1-0.1l-0.2-4c0-0.1,0-0.1,0.1-0.1l147.1-9.2c0.1,0,0.1,0,0.1,0.1
					l0.2,4C1295,799.4,1294.9,799.4,1294.9,799.4z"/>
			</g>
			<g>
				<path class="st7" d="M1305.7,834.4l-156.5,9.8c-0.1,0-0.1-0.1-0.2-0.1l-0.2-3.9c0-0.1,0.1-0.1,0.1-0.2l156.5-9.8
					c0.1,0,0.1,0.1,0.2,0.1l0.2,3.9C1305.8,834.3,1305.8,834.4,1305.7,834.4z"/>
			</g>
			<g>
				<path class="st7" d="M1324.3,850.1l-174,10.9c-0.1,0-0.1,0-0.1-0.1l-0.2-3.9c0-0.1,0.1-0.1,0.1-0.1l174-10.9
					c0.1,0,0.1,0.1,0.1,0.1l0.2,3.9C1324.4,850,1324.3,850.1,1324.3,850.1z"/>
			</g>
			<g>
				<path class="st7" d="M1265.1,883.4l-112,7c-0.1,0-0.1,0-0.1-0.1l-0.2-4c0-0.1,0-0.1,0.1-0.1l112-7c0.1,0,0.1,0,0.1,0.1l0.2,4
					C1265.2,883.4,1265.1,883.4,1265.1,883.4z"/>
			</g>
			<g>
				<path class="st7" d="M1267.2,917l-112,7c-0.1,0-0.1,0-0.1-0.1l-0.2-4c0-0.1,0-0.1,0.1-0.1l112-7c0.1,0,0.1,0,0.1,0.1l0.2,4
					C1267.3,916.9,1267.2,917,1267.2,917z"/>
			</g>
			<g>
				<path class="st7" d="M1308.9,897.5l-154.8,9.7c-0.1,0-0.1,0-0.1-0.1l-0.2-4c0-0.1,0-0.1,0.1-0.1l154.8-9.7c0.1,0,0.1,0,0.1,0.1
					l0.2,4C1309,897.5,1309,897.5,1308.9,897.5z"/>
			</g>
		</g>
		<g>
			<path class="st14" d="M1309.6,596.4l-136.9,7.6c-9,0.5-16,7.7-15.5,16.1l1.2,20.7c0.1,1.9,1.9,3.4,4,3.3l162.1-9
				c2.1-0.1,3.7-1.8,3.6-3.7l-1.2-20.7C1326.4,602.2,1318.7,595.9,1309.6,596.4z"/>
		</g>
	</g>
	<g>
		<g>
			<path class="st21" d="M1557,762.5c0,0-2.8-6.4-4.7-9.4c-1.8-3-9.7-11.9-11.1-9.9c-1.3,2-6.7,15.5-3.9,19.3
				c2.8,3.8-0.2,10.4,14,14.4L1557,762.5z"/>
		</g>
		<g>
			<path class="st28" d="M1714.4,722.1c0,0-72.5,60.5-100.8,54.9c-22.1-4.4-57.1-15.5-57.1-15.5s-9.2,8.8-6.6,19.3
				c0,0,44.5,41.9,76.3,42.2c49.6,0.4,73-24.6,73-24.6L1714.4,722.1z"/>
		</g>
		<g>
			<path class="st29" d="M1841.6,1360.6c0,0-2.1,34-8.7,34.4c-0.9,0.1-33.3,0.1-33.3,0.1l-41.4-0.2c0,0,0.3-10,12.4-12.1
				c12.1-2.1,32.4-10.6,39.7-26.6C1818,1339.3,1841.6,1360.6,1841.6,1360.6z"/>
		</g>
		<g>
			<path class="st30" d="M1844,1363c0,0-12.6,4.2-22.4,4.2c-11,0-20.9-3-20.9-3s-2.4-22.9-15.4-73.4c-6.8-26.5-16.6-60.5-30.5-102.8
				c-38.4-116.9-50.1-185.3-51.2-191.8c-0.1-0.3-0.1-0.5-0.1-0.5l0.1-0.1l118.1-51.9c0,0-14.6,161.1,4,223
				c2.6,8.6,4.8,18.7,6.8,29.6C1844.3,1263.5,1844,1363,1844,1363z"/>
		</g>
		<g>
			<path class="st20" d="M1785.2,1290.7c-6.8-26.5-16.6-60.5-30.5-102.8c-38.4-116.9-50.1-185.3-51.2-191.8c0-0.2,0-0.4,0-0.6
				l118.1-51.9c0,0-14.6,161.1,4,223C1828.4,1175.3,1785.2,1290.7,1785.2,1290.7z"/>
		</g>
		<g>
			<path class="st31" d="M1749.4,1360.6c0,0-2.1,34-8.7,34.4c-0.9,0.1-33.3,0.1-33.3,0.1l-41.4-0.2c0,0,0.3-10,12.4-12.1
				c12.1-2.1,32.4-10.6,39.7-26.6C1725.7,1339.3,1749.4,1360.6,1749.4,1360.6z"/>
		</g>
		<g>
			<path class="st30" d="M1682.4,947.5c0,0-1.5,104.4,16.5,232.6c18.1,128.2,11.9,182.6,11.9,182.6s12.4,4,17.4,4.4
				c12.8,1,25.8-3,25.8-3s25.9-128.2,18.4-192.4c-7.4-64.2,35.4-220.2,35.4-220.2L1682.4,947.5z"/>
		</g>
		<g>
			<path class="st21" d="M1766.2,703.2l-23.1,15.1l-21-5.9c-3.8-5.5-4.9-16-4.9-25.2c-0.1-9.1,0.8-16.8,0.8-16.8l31.1-13.7l11.6-5.1
				c0,0.2-0.9,9.5-1,10.9C1757.5,686.7,1766.2,703.2,1766.2,703.2z"/>
		</g>
		<g>
			<path class="st4" d="M1681.9,976.5c28.7,27.7,137.3,23,144-7.5c6.7-30.5-7.3-259.9-56.3-274.3c-10.2-3-64.6,14.6-64.6,14.6
				s-8.5,22.3-14.1,50.7c-1.1,5.5-4.3,64.1-6.6,119c-1.1,25.6-2,50.5-2.5,68.6C1681.3,964.8,1681.2,975.9,1681.9,976.5z"/>
		</g>
		<g>
			<path class="st32" d="M1757.4,662.9c-6.3,10.7-28.5,20-40.2,24.3c-0.1-9.1,0.8-16.8,0.8-16.8l31.1-13.7
				C1756,656.6,1760.2,658.1,1757.4,662.9z"/>
		</g>
		<g>
			<path class="st21" d="M1706.3,668.5c0,0,50.1,15.6,59.4-15.7c9.3-31.4,22-50.5-9.7-61.8c-31.6-11.3-41.4-1.2-47,8.5
				C1703.3,609.3,1693.5,663.7,1706.3,668.5z"/>
		</g>
		<g>
			<path class="st33" d="M1710.9,596.5c0,0,3.2,36.5,10.7,34.9c7.5-1.6,15.9-5,14.8,6c-1.1,11,7.3,29.9,18.2,29.8
				c23.3-0.1,48.7-60,42.3-71.4C1778.5,563.2,1684.3,556.6,1710.9,596.5z"/>
		</g>
		<g>
			<path class="st28" d="M1718.3,695.6c0.6-0.3,37.3-16.7,41.6-15.3c4.3,1.4,9.6,14.5,9.6,14.5l-64.6,14.6
				C1705,709.4,1710.1,699,1718.3,695.6z"/>
		</g>
		<g>
			<g>
				<path class="st34" d="M1490,873.2l205.5,193.5c4,3.8,9.1,5,11.3,2.7l6.9-7.4c2.2-2.3,0.7-7.3-3.4-11.1l-205.5-193.5
					c-4-3.8-9.1-5-11.3-2.7l-6.9,7.4C1484.5,864.4,1486,869.4,1490,873.2z"/>
			</g>
			<g>
				<path class="st35" d="M1605.4,981.8l90.2,84.9c4,3.8,9.1,5,11.3,2.7l6.9-7.4c2.2-2.3,0.7-7.3-3.4-11.1l-90.2-84.9L1605.4,981.8z
					"/>
			</g>
			<g>
				<path class="st34" d="M1500.5,642.7c-61-64.8-162.9-67.9-227.7-6.9c-0.9,0.8-1.7,1.6-2.5,2.4c-62.4,61.2-64.6,161.3-4.4,225.3
					c61,64.8,162.9,67.9,227.7,6.9c21.2-20,35.8-44.3,43.7-70.3C1553.5,746.7,1541.5,686.3,1500.5,642.7z M1484.8,861.2
					c-37.7,35.5-89.1,47.4-136,36.3c-27.3-6.5-53.1-20.7-73.8-42.7c-56.2-59.7-53.3-153.6,6.4-209.7c22-20.7,48.6-33.3,76.2-38.1
					c47.5-8.2,98,6.8,133.5,44.5C1547.4,711.1,1544.5,805,1484.8,861.2z"/>
			</g>
			<g class="st27">
				<g>
					<path class="st36" d="M1275.1,854.8c20.7,22,46.5,36.2,73.8,42.7c46.9,11.1,98.3-0.8,136-36.3c59.7-56.2,62.5-150.1,6.4-209.7
						c-35.5-37.7-86-52.7-133.5-44.5c-27.7,4.8-54.3,17.5-76.2,38.1C1221.8,701.2,1219,795.1,1275.1,854.8z"/>
				</g>
			</g>
		</g>
		<g>
			<path class="st28" d="M1681.7,947.7c113.3-80.7,103.8-188.4,103.8-188.4c-41.4,23.3-82.5,75-101.3,119.7
				C1683.1,904.7,1682.2,929.6,1681.7,947.7z"/>
		</g>
		<g>
			<g>
				<path class="st21" d="M1569.9,911c-8-1.8-13.3-7.9-14.5-8.9c0,0-3.4,0.2,0.6,7.5c0.3,0.6,1.1,2.2,1.6,3.3c0.2,0.5-0.1,1-0.6,1
					c-4.6,0.4-9.2-1.5-18.1,0.4c-1.2,0.3-1.6,3.2-1.5,4.4c0.1,2.1-0.1,4.5,2.4,7.7c1.4,1.9,5.4,3.9,14.3,7.5
					c3.4,1.4,13.1,0.3,22.1-2.8l7.3-3.4l-2.2-13.5l-1.8,0.4C1576.5,915.3,1572.9,911.7,1569.9,911z"/>
			</g>
			<g>
				<path class="st4" d="M1750.4,709.4c0,0,101.8,19.4-29.9,166.7c-21.1,23.6-134.9,54.3-134.9,54.3s-11.5-9.8-5.7-17.8
					c0,0,78.4-56.9,95.6-65.9c7.8-4.1,30.1-90.8,42.7-111.7C1730.8,714,1750.4,709.4,1750.4,709.4z"/>
			</g>
		</g>
		<g>
			<path class="st21" d="M1554.3,764.3c0,0-3.3-6.4-4-9.7c-0.7-3.4-4.8-13.1-6.6-14.9c-0.7-0.7-3,0.2-3.2,3.2
				c-0.1,1.3,0.5,3.6,1.6,6.4c1.8,4.6,1.5,10.7,2.2,12.8C1545.8,767.3,1554.3,764.3,1554.3,764.3z"/>
		</g>
	</g>
</g>
<g>
	<path class="st37" d="M567,775.6c-2.9-5.7,64.2-26.1,65.3,29.9c0,0,125.9-3.1,65.8-73.3c-20.8-24.3-18.7-44.4-18-63.1
		c0.6-18.7-13-73-59.5-67.6c0,0-12.2-5-27.4,2.9C558.5,622.6,480.9,796.3,567,775.6z"/>
	<path class="st38" d="M772.8,827.1c0,0,8.2-12.5,14.8-12.7c6.6-0.2,18.8-3.7,17.9-1.2c-1,2.4-8.6,2.7-9.3,4.2
		c-0.7,1.5,11.2,3.7,14.7,3.9c3.4,0.2,11.5,0,11.2,1.7c-0.2,1.7-14.5,8.8-24.6,7.8c-10.1-1-22.6,2.9-22.6,2.9L772.8,827.1z"/>
	<path class="st26" d="M654.3,831.1c0,0,4.5,8.8,12.5,19c9.7,12.2,24.7,26.3,43.6,29.1c9,1.3,17.8-0.6,25.9-4.2c0,0,0,0,0,0
		c22.9-10.2,40.1-33.5,40.1-33.5c4-11-2.6-18.5-2.6-18.5s-46.2,10.4-50.6,8.2c-4.4-2.2-31.5-62.2-36.3-72.2
		c-10.4-21.3-26.8-27.4-26.8-27.4L654.3,831.1z"/>
	<path class="st39" d="M666.9,850.1c9.7,12.2,24.7,26.3,43.6,29.1c9,1.3,17.8-0.6,25.9-4.2c-0.9,0.1-23.8,2.9-32.9-13.4
		c-9.3-16.6-19.3-43-33.2-34.2C664.4,831.1,664.6,840.5,666.9,850.1z"/>
	<path class="st40" d="M481.9,1330.1c0,0-14.1,12.9-11.4,22c2.8,9.1,15.5,15.2,17.2,26.4c1.7,11.2,8.6,17.3,14.8,17.3
		c6.2,0,29.5,0,29.5,0s4.6-7.9-6.4-10.2c-11-2.4-15.2-15.5-14.5-27.7c0.7-12.2-1-28.5-1-28.5l-23.4-5.4L481.9,1330.1z"/>
	<path class="st40" d="M601.3,1335.5c0,0-5.1,54.5,1.1,57.6l79.2-0.2c0,0,0-9.1-12.7-11.2c-12.7-2-35.1-9.5-38.9-26.1
		C626.2,1339.1,601.3,1335.5,601.3,1335.5z"/>
	<path class="st26" d="M540.3,794.3c0,0-1.2,16.6,0,36.6c0.8,13.2,14.2,31,16.1,35.4c4.8,11,10.1,12.8,10.1,12.8l41.6,10.2l14.6,3.6
		l46.1-13.8c0,0,21-58.7,12.6-91.7c-8.4-33-21.3-55.9-21.3-55.9s-31.3-12.3-86.7-3.1L540.3,794.3z"/>
	<path class="st41" d="M552.5,836.4c0.8,13.2,2,25.6,3.9,30c4.8,11,10.1,12.8,10.1,12.8l41.6,10.2l18.1-5.3c0,0-60.3-9.1-53.6-61
		L552.5,836.4z"/>
	<path class="st42" d="M666,888c0,0,22.8,71.1,24.3,95.3c1.5,24.2-43.7,344-45.5,355.1c-1.7,10.5-14.8,17.2-14.8,17.2
		s-6,3.5-14.6,1.1c-11.9-3.4-15.7-7.4-15.7-7.4s-17.8-228-6.8-309.5c11-81.5,11.1-151.9,11.1-151.9H666z"/>
	<path class="st43" d="M569.2,885.9c0,0-34.9,46.8-38.1,78.4c-3.2,31.6-5.1,142.6-12,173.5c-6.9,30.8-32.4,90.1-32.4,186.2
		c0,0,2.6,5.5,10.8,8.4c2.6,0.9,6.1,1.8,9.5,2.6c6.7,1.5,13.6-1.7,16.7-7.9c17.2-34.6,72-146.3,74.8-169.4c2-16.4,19.3-125,57-188.6
		c9.1-15.3-5.6-76.1-5.6-76.1L569.2,885.9z"/>
	<path class="st44" d="M669.6,877c0,0-9.2,7.3-27.4,7.6c-21.8,0.4-75.7-5.5-75.7-5.5s-2.4,6.7-2.3,13.8c0,0,65.9,16.6,104,2.4
		C668.3,895.3,673.2,886,669.6,877z"/>
	<g>
		<path class="st4" d="M637.5,892.2c0-6.2,4.5-11.2,9.9-11.2c5.5,0,9.9,5,9.9,11.2c0,6.2-4.5,11.2-9.9,11.2
			C642,903.4,637.5,898.4,637.5,892.2z M640.8,892.2c0,4.4,3,7.9,6.6,7.9c3.7,0,6.6-3.6,6.6-7.9c0-4.4-3-7.9-6.6-7.9
			C643.8,884.2,640.8,887.8,640.8,892.2z"/>
	</g>
	<path class="st45" d="M502.6,896l53.5,46.6c3.9,3.4,9.7,3,13.1-0.9l68.2-78.4c3.4-3.9,3-9.7-0.9-13.1l-53.5-46.6
		c-3.9-3.4-9.7-3-13.1,0.9l-68.2,78.4C498.4,886.8,498.8,892.6,502.6,896z"/>
	<path class="st38" d="M581.8,890.1c0.8,0.2,28.4,3.5,28.4,9.2c0,6.6-8.1,15.5-15.7,15c-3.1-0.2-17.4-13.3-17.4-13.3L581.8,890.1z"
		/>
	<path class="st38" d="M596,725.3c3.1-7.6,5-19.3,4.9-33.6l2.1,0.4l35.1,7c0,0-0.8,11.1-0.8,21.5c0,0.1,0,0.2,0,0.3
		c0,9,6.1,18.1-8.4,21.7C624.4,743.6,589.4,741.4,596,725.3z"/>
	<path class="st46" d="M638.1,699.1c0,0-0.8,11.1-0.8,21.5c-19.7-0.6-30-18.5-34.3-28.4L638.1,699.1z"/>
	<path class="st38" d="M644.7,708.9c0,0-46.5,0.8-46.5-28.2c0-29-6.1-48.4,23.6-50.1c29.7-1.7,35.5,9.3,37.8,19
		C662,659.3,656.8,708,644.7,708.9z"/>
	<path class="st37" d="M642.9,629.9c0,0-12.7,34-32.3,39c-19.5,5-28-0.2-28-0.2s15-11.9,18.1-32.7
		C600.8,636,633.3,613.8,642.9,629.9z"/>
	<path class="st37" d="M639.8,632.7c0,0,9.4,3.5,13.3,10.4c3.8,6.7,7,15.7,6.3,26.6c0,0,9.6-23.1-1.2-36.2
		C646.8,619.7,639.8,632.7,639.8,632.7z"/>
	<path class="st38" d="M581.8,890.1c0,0,6.6-2.1,11.1-1.5c4.4,0.6,7.7-0.1,7.7,1.2s-5.7,1.8-6.9,2.4
		C592.4,892.8,581.8,890.1,581.8,890.1z"/>
	<path class="st26" d="M573.5,728.4c0,0-33,2.3-45.7,33.1c-12.7,30.8-36.7,82.4-36.7,91.1c0,8.7,13.4,35.5,85.4,50.9
		c0,0,7.4-7.8,7-14c0,0-45-38.6-44.8-43.1c0.2-8.5,7.4-19.8,46.8-59.3C596.3,776.2,573.5,728.4,573.5,728.4z"/>
</g>
</svg>
