<?xml version="1.0" encoding="utf-8"?>
<!-- Generator: Adobe Illustrator 25.2.1, SVG Export Plug-In . SVG Version: 6.00 Build 0)  -->
<svg version="1.1" id="_x2014_лой_x5F_2" xmlns="http://www.w3.org/2000/svg" xmlns:xlink="http://www.w3.org/1999/xlink"
	 x="0px" y="0px" viewBox="0 0 3293.17 1453.76" style="enable-background:new 0 0 3293.17 1453.76;" xml:space="preserve">
<style type="text/css">
	.st0{fill:#EBF2F9;}
	.st1{fill:#A6C7F9;}
	.st2{fill:#699DEE;}
	.st3{fill:#D2E4FF;}
	.st4{fill:#FFAE73;}
	.st5{fill:#365DA4;}
	.st6{fill:#285493;}
	.st7{fill:#AA443E;}
	.st8{fill:#80BDCC;}
	.st9{fill:#5F9AA8;}
	.st10{fill:#F59D64;}
	.st11{fill:#0B3563;}
	.st12{fill:#4A75CB;}
	.st13{fill:#D86713;}
	.st14{fill:#F1A34F;}
	.st15{fill:#C95C12;}
	.st16{fill:#F4BE61;}
	.st17{fill:#F2A83D;}
	.st18{fill:#163560;}
	.st19{fill:#C65447;}
	.st20{fill:#E49963;}
	.st21{fill:#D68D5D;}
	.st22{fill:#A86337;}
	.st23{fill:#B77446;}
	.st24{fill:#FFD5AB;}
	.st25{fill:#00519F;}
	.st26{fill:#8CB3ED;}
	.st27{fill:#82B378;}
	.st28{fill:#A8D29F;}
	.st29{fill:#FFB973;}
	.st30{fill:#91B6ED;}
	.st31{fill:#FFFFFF;}
	.st32{fill:#283250;}
	.st33{fill:#00622E;}
	.st34{fill:#00964B;}
	.st35{fill:#007451;}
	.st36{fill:#FC9F38;}
	.st37{opacity:0.4;fill:#E65F00;}
	.st38{fill:#A9C2FF;}
	.st39{fill:#83A7F2;}
	.st40{fill:#FDDBBA;}
	.st41{fill:#032C52;}
	.st42{fill:#25468F;}
	.st43{fill:#214D9A;}
	.st44{fill:#6CA3EA;}
</style>
<g>
	<path class="st0" d="M2711.74,1418.73c0,0,381.58,70.47,503.05-196.14c157.59-345.9-161.99-547.81-414.49-559.3
		c-490.12-22.31-577-462.04-985.66-578.18c-526.01-149.49-622.67,281.18-933.38,336.38c-154.45,27.44-376.31-108.11-601.34-11.22
		c-440.4,189.6-239.03,1011.66,75.65,1014.89C670.27,1428.38,2711.74,1418.73,2711.74,1418.73z"/>
	<g>
		<rect x="1260.32" y="197.46" class="st1" width="508.3" height="1226.91"/>
		<rect x="1259.86" y="197.46" class="st2" width="90.62" height="1226.91"/>
		<rect x="1372.65" y="197.46" class="st3" width="508.3" height="1226.91"/>
		<rect x="1769.83" y="197.46" class="st1" width="94.31" height="1226.91"/>
	</g>
	<g>
		<path class="st4" d="M1060.86,1411.59c-0.84,10.4-15.53,10.41-32.19,8.35c-16.65-2.06-66.92-5.27-68.03-8.62
			c-0.99-2.97,10.27-5.37,22.32-8.21c1.51-0.35,3.04-0.72,4.56-1.09c13.59-3.35,25.32-10.7,34.31-22.21
			c10.12-12.97,19.38-72.04,19.38-72.04l36.47,6.8c0,0-21.23,50.63-23.41,67.23c-0.98,7.45,4.32,12.42,5.56,18.94
			C1060.5,1404.29,1061.16,1407.92,1060.86,1411.59z"/>
		<path class="st5" d="M1060.85,1411.59c-0.84,10.4-15.53,10.41-32.18,8.35c-11.41-1.41-12.94,0.14-20.28,1.31h-29.28
			c-12.74-2.2-17.63-7.36-18.47-9.93c-0.99-2.96,10.27-5.37,22.32-8.21l0.14,0.22c0,0,14.97,8.18,34.2,6.39
			c15.68-1.46,31.71-7.88,42.53-8.97C1060.49,1404.3,1061.15,1407.92,1060.85,1411.59z"/>
		<g>
			<path class="st5" d="M1028.24,1350.3c0,0,9.55,6.32,18.54,7.95c13.47,2.45,19.73-0.27,19.73-0.27s64.8-162.71,61.11-217.69
				c-0.09-1.32-0.14-2.73-0.16-4.21c-0.11-9.54,1.27-22.25,3.63-36.89c0.87-5.36,1.88-10.98,3-16.8c2.6-13.56,5.81-28.18,9.35-43.09
				c1.55-6.57,3.18-13.19,4.83-19.8c16.29-65.06,36.2-129.17,36.2-129.17s-116.94-38.2-123.56-2.5
				c-2.54,13.7-10.99,68.53-7.19,152.36c3.07,67.48,1.09,120.12-4.74,181.21C1043.85,1275.05,1035.08,1321.2,1028.24,1350.3z"/>
		</g>
		<path class="st6" d="M1127.46,1136.08c-0.11-9.54,1.27-22.25,3.63-36.89c0.87-5.36,1.88-10.98,3-16.8
			c2.6-13.56,5.81-28.18,9.35-43.09c1.55-6.57,3.18-13.19,4.83-19.8c-2.31-19.85-4.17-33.47-4.17-33.47
			S1095.54,1051.98,1127.46,1136.08z"/>
		<path class="st4" d="M1208.39,1411.59c-0.84,10.4-15.53,10.41-32.19,8.35c-16.65-2.06-66.92-5.27-68.03-8.62
			c-0.99-2.97,10.27-5.37,22.32-8.21c1.52-0.35,3.04-0.72,4.56-1.09c13.58-3.35,22.64-13.43,34.31-22.21
			c11.05-8.31,3.32-48.63,3.32-48.63l34.3-12.25c0,0-5.17,40.56-5.17,62.88c0,7.51,4.32,12.42,5.56,18.94
			C1208.03,1404.29,1208.69,1407.92,1208.39,1411.59z"/>
		<path class="st5" d="M1208.38,1411.59c-0.84,10.4-15.53,10.41-32.18,8.35c-11.41-1.41-12.94,0.14-20.28,1.31h-29.28
			c-12.74-2.2-17.63-7.36-18.47-9.93c-0.99-2.96,10.27-5.37,22.32-8.21l0.14,0.22c0,0,14.97,8.18,34.2,6.39
			c15.68-1.46,31.71-7.88,42.53-8.97C1208.02,1404.3,1208.68,1407.92,1208.38,1411.59z"/>
		<path class="st5" d="M1114.02,877.6c0,0,38.05,189.62,44.47,292.83s14.45,188.65,14.45,188.65s8.3,2.99,17.83,2.45
			c10.06-0.57,18.03-3.67,18.03-3.67s37.71-155.28,25.22-217.43c-12.49-62.15-2.08-119.48,3.91-171.04
			c8.6-73.92-24.48-108.28-47.57-131.7C1166.99,813.97,1114.02,877.6,1114.02,877.6z"/>
		<path class="st7" d="M1087.06,530.29c-3.78-30.87,5.86-80.27,67.48-72.38c61.62,7.89,81.04,68.45,68.61,95.38
			c-12.43,26.93,17.89,33.42,27.41,62.37c8.18,24.87,11.03,55.76,24.26,69.62c42.66,44.69-40.95,113.41-91.36,98.92
			c-91.81-26.39-103.63-30.33-100.37-102.47c1.67-36.96,30.42-51.28,12.17-61.97C1051.14,593.92,1095.61,600.15,1087.06,530.29z"/>
		<path class="st4" d="M1105.71,629.43l18.23,27.34l36.72-1.81l16.96-43.85c0,0-5.23-0.99-7.67-55.67l-45.83,13.98
			c0,0,2.44,14.26-0.81,29.77C1121.05,610.03,1116.09,621.58,1105.71,629.43z"/>
		<path class="st4" d="M1100.6,610.14c2.36,0,45.54-14.44,107.19,10.67c0,0-29.27,167.45-16.7,199.41
			c12.57,31.96,17.35,60.32,17.35,60.32l-136.39,1.69c0,0,1.91-109.69-4.38-148.52C1061.39,694.89,1100.6,610.14,1100.6,610.14z"/>
		<path class="st8" d="M1207.7,807.15c-0.81-3.23-1.36-6.09-1.57-8.47c-1.8-20.21,1.26-36.69,6.33-52.86
			c0.01-0.02,0.02-0.03,0.02-0.05c0.08-0.25,0.16-0.51,0.25-0.77c0.14-0.42,0.31-1.08,0.51-1.92c0.01-0.02,0.01-0.04,0.02-0.07
			c0.2-0.77,0.41-1.69,0.65-2.74c0.07-0.34,0.16-0.71,0.24-1.11c3.51-15.72,11.21-55.21,13.25-60.59c0.67-1.78,1.44-4.85,2.09-8.62
			c2.06-11.89,2.96-30.8-3.97-38.71c-9.65-11-42.79-18.9-42.79-18.9c-6.74,10.56-29.55,36.38-58.18,31.66
			c-16.55-2.74-19.11-34.94-19.11-34.94c-17.79,2.45-22.33,5.15-22.33,5.15s-22.58,6.97-84.83,111.54c-1.69,2.84-24.5,2.16-35.62,0
			c-14.16-2.76-41.38,13.76-84.99,7.35c0,0-3.37,3.06-3.77,7.83c-0.9,10.53,1.95-10.14,1.95-10.14s32.16,11.14,62.7,20.81
			c10.8,3.43,21.77,6.02,31.48,8.99c9.83,3.02,26.3,6.42,34.46,8.09c0,0,22.54-9.17,56.26-46.33c1.97,31.19,6.32,71.47,3.65,100.89
			c-1.53,16.75-12.98,73.1-10.11,82.48c5.99,19.53,52,20.54,93.09,18.5c0.9-0.04,1.79-0.09,2.69-0.15
			c6.37-0.37,12.62-0.92,18.46-1.58c11.01-1.23,20.55-2.83,26.76-4.26c8.02-1.84,18.09-4.47,26.28-8.43
			c6.28-3.03,11.44-6.83,13.72-11.63C1231.31,876.94,1212.28,830.64,1207.7,807.15z"/>
		<path class="st9" d="M1118.19,861.27c7.78,26.4,12.31,48.13,31.86,62.82c6.37-0.37,12.62-0.92,18.46-1.58
			c11.01-1.23,20.55-2.83,26.76-4.26c8.02-1.84,18.09-4.48,26.28-8.43c6.28-3.03,11.44-6.83,13.72-11.63
			c-3.95-21.26-22.99-67.56-27.57-91.04c-0.45-2.29-0.76-4.35-0.91-6.16c-1.7-21.04,1.03-38.31,5.67-55.17
			c0.01-0.02,0.02-0.03,0.02-0.05c0.25-0.9,0.51-1.79,0.76-2.69c0.01-0.02,0.01-0.04,0.02-0.07c0.16-0.58,0.38-1.52,0.65-2.74
			c0.07-0.34,0.16-0.71,0.24-1.11c3.14-14.89,11.34-61.64,13.43-67.74c0.66-1.93,1.4-5.23,2.05-9.31l-16.42-15.8
			c0,0-94.22,40.23-114.98,95.73C1077.47,797.55,1107.01,823.4,1118.19,861.27z"/>
		<path class="st9" d="M938.53,748.31c20.86,6.61,49.17,16.16,65.94,20.4c0,0,23-9.34,56.93-47.07c1.43-6.41,2.81-17.17-4.96-14.06
			c-10.89,4.35-51.18,56.08-66.42,57.16C979.12,765.51,955.26,750.47,938.53,748.31z"/>
		<path class="st8" d="M1069.93,823.32c0,0,51.97,0.91,92.44-7.83c11.65-2.52,22.56-5.58,31.34-9.3c0,0,34.36-30.58,43-86.8
			c15.97-103.96-29.79-95.59-29.79-95.59s-26.91,42.45-44.52,144.88c-0.61,3.58-5.67,5.27-19.22,8.71
			c-14.47,3.67-40.57,16.61-79.37,28.7c0,0,0.04,1.64,1.73,6.12C1069.28,822.09,1069.93,823.32,1069.93,823.32z"/>
		<path class="st4" d="M993.3,727.35c-14.28-0.02-42.14,4.94-85.44,6.99c-3.48-0.4-7.46-1.06-11.25-2.12
			c-9.9-2.76-34.54-1.11-38.73,4.69c-4.18,5.8,10.13,23.32,32.21,19.67c7.74-1.28,13.62-1.82,18-1.97
			c2.53,0.63,31.96,7.94,62.39,11.47c11.26,1.31,22.95,2.31,33.99,2.63C1005.06,748.98,997.84,735.32,993.3,727.35z"/>
		<path class="st10" d="M1123.3,599.21c18.95-1.53,46.65-43.76,46.65-43.76l-45.83,13.98
			C1124.12,569.43,1126.55,583.69,1123.3,599.21z"/>
		<path class="st4" d="M1112.11,572.53c0,0,54.88,11.02,61.22-23.26c6.34-34.28,17.69-55.95-17.08-64.44
			c-34.77-8.49-44.02,3.33-48.92,14.26C1102.43,510.02,1098,568.78,1112.11,572.53z"/>
		<path class="st7" d="M1138.93,476.27c0,0-0.96,11.63,17.09,31.36c18.05,19.73,13.75,54.91,13.75,54.91s30.42-57.18,14.19-75.44
			C1167.73,468.84,1138.93,476.27,1138.93,476.27z"/>
		<path class="st7" d="M1161,461.14c0,0-27.29-9.13-54.36,17.55c-11.66,11.49-9.9,34.09-3.65,47.2c0,0,9.6-28.1,27.06-34.22
			C1147.51,485.54,1161,461.14,1161,461.14z"/>
		<polygon class="st11" points="972.01,662.79 855.56,672.96 892.81,833.26 1011.11,829.45 		"/>
		
			<rect x="1019.49" y="787.2" transform="matrix(0.9001 0.4356 -0.4356 0.9001 459.7342 -362.7715)" class="st11" width="3.28" height="68.32"/>
		<path class="st4" d="M1162.37,815.49c-15.54-11.93-19.04-27.2-19.19-38.09c-14.47,3.67-41.46,15.22-80.26,27.32
			c0,0,0.01,0.03,0.02,0.07c-4.4,0.84-11.03,1.84-17.44,1.74c-10.97-0.17-35.97,8.21-38.72,15.34
			c-2.75,7.12,16.78,21.33,38.59,11.58c12.08-5.4,19.88-7.64,24.44-8.56C1074.18,824.81,1123.71,823.84,1162.37,815.49z"/>
		<polygon class="st8" points="1004.11,856.46 1004.11,856.46 1004.78,851.31 1007.73,852.74 		"/>
	</g>
	<g>
		<rect x="479.44" y="843.82" class="st12" width="280.14" height="280.14"/>
		<rect x="565.82" y="843.82" class="st2" width="280.14" height="280.14"/>
	</g>
	<g>
		<rect x="519.65" y="1123.96" class="st13" width="300.67" height="300.67"/>
		<rect x="612.36" y="1123.96" class="st14" width="300.67" height="300.67"/>
		<polygon class="st15" points="612.36,1123.96 519.65,1180.16 519.65,1123.96 		"/>
	</g>
	<g>
		<path class="st16" d="M2260.32,745.1c0,0-28.97,13.47-60,23.29c-11.04,3.42-22.3,6.62-33.34,9.13
			c-10.12,2.29-19.77,3.89-28.28,4.11c0,0-0.69-0.22-2.07-0.91c-7.82-3.42-38.39-17.8-68.05-50.46c-2.3-2.74-4.83-5.48-7.13-8.45
			c-1.84-2.06-3.68-22.38-5.06-43.61c-0.23-0.23-0.23-0.23-0.23-0.23c-1.61-24.88-2.76-51.37-2.76-51.37s40,10.74,97.48,107.55
			c1.61,2.74,6.44,2.28,17.7,0.23c14.48-2.74,43.68-2.51,87.82-8.91c0,0,1.61,1.14,2.07,5.94
			C2259.17,741.9,2260.32,745.1,2260.32,745.1z"/>
		<path class="st17" d="M2136.63,780.71c-7.82-3.42-38.39-17.8-68.05-50.46c-2.3-2.74-4.83-5.48-7.13-8.45
			c-1.84-2.06-3.68-22.38-5.06-43.61C2061.91,683.67,2126.28,745.78,2136.63,780.71z"/>
		<path class="st18" d="M1992.06,457.81c0,0-3.66-7.45-21.96-5.41c-18.3,2.04-49.95,5.4-50.22,105.06
			c-0.03,10.92-65.85,110.44,8.38,204.15l52.99-134.04L1992.06,457.81z"/>
		<path class="st19" d="M1997.35,459.11c0,0-19.52-6.54-29.8,3.15c-10.27,9.69-4.45,22.52-4.45,22.52L1997.35,459.11z"/>
		<path class="st18" d="M2059,497.3c0,0-0.36-42.75-69.64-37.82c-11.77,0.84-22.45,7.53-27.83,17.97
			c-7.79,15.12-11.19,41.75,13.99,84.44L2059,497.3z"/>
		<path class="st20" d="M1971.3,622.82l15.61,60.6l45.1,2.19l22.45-33.41c-20.99-15.8-23.95-43.49-23.65-59.92
			c0-0.16,0.01-0.32,0.01-0.48c0.18-7.74,1.07-12.86,1.07-12.86l-32-9.68l-24.37-7.37c2.24,18.47,2.09,31.79,1.08,41.18
			C1975,617.75,1971.3,622.82,1971.3,622.82z"/>
		<path class="st20" d="M1925.77,936.2l163.65-0.21c0,0-20.36-108.97-9.06-144.68c11.3-35.72-0.55-87.9-0.55-87.9
			c-16.44-38.78-20.63-75.08-27.94-76.98c-4.02-1.05-7.26-3.2-11.19-3.98c-64.29-12.76-116.55,10.47-116.55,10.47
			c-14.43,35.99,16.47,63.02,17.97,144.29C1943.57,857.08,1925.77,936.2,1925.77,936.2z"/>
		<path class="st16" d="M2099.15,943.74c0,0-124.61,25.58-195.88-0.91c-3.91-1.59,11.04-55.03,21.38-91.56
			c5.06-18.04,8.97-31.96,8.74-33.79c-2.53-49.77-12.41-92.25-17.01-125.12c-1.38-8.68-2.3-16.44-2.53-23.75v-3.65
			c-0.23-11.87,1.38-21.46,5.52-29.46c7.82-14.38,49.89-14.62,49.89-14.62c4.14,4.8,26.9,20.55,54.03,20.32
			c27.36-0.23,13.83-19.43,13.83-19.43c1.15,0.23,2.95,0.48,3.87,0.71c13.56,2.97,22.76,9.36,22.76,9.36
			c21.84,23.75,28.97,142.03,28.51,145.9C2091.34,792.13,2099.15,943.74,2099.15,943.74z"/>
		<path class="st21" d="M1976.59,603.06c19.38-10.29,49.37-10.79,54.22-10.8c0.44,0,0.67,0,0.67,0s-0.23-0.17-0.66-0.48
			c-3.2-2.35-17.59-12.87-30.93-22.54l-24.37-7.37C1977.75,580.34,1977.6,593.67,1976.59,603.06z"/>
		<path class="st20" d="M2042.85,593.16c0,0-68.75,3.12-70.05-39.43c-1.3-42.55-11.04-70.81,32.8-74.6
			c43.84-3.79,52.87,12.19,56.78,26.29C2066.29,519.51,2060.7,591.25,2042.85,593.16z"/>
		<path class="st18" d="M2035.89,495.92c0,0,29.44,20.12,24.73,43.44c0,0,14.59-7.62,13.21-29.85
			c-1.38-22.24-22.74-37.53-41.54-38.69c-18.8-1.16-32.96,0.35-32.96,0.35L2035.89,495.92z"/>
		<path class="st18" d="M2041.06,488.54c12.2,6.42-38.23,11.82-41.31,32.23c-3.08,20.41-27.13,28.22-27.13,28.22
			S1942.12,436.5,2041.06,488.54z"/>
		<path class="st17" d="M2080.99,767.7c0,0-54.95,73.29-156.33,83.57c5.06-18.04,8.97-31.96,8.74-33.79
			c-2.53-49.77-12.41-92.25-17.01-125.12c-1.38-8.68-2.3-16.44-2.53-23.75v-3.65c11.72,2.29,29.89,14.38,37.7,16.21
			C2012.02,695.32,2080.99,767.7,2080.99,767.7z"/>
		<path class="st16" d="M2142.32,750.5c0,0-47.04,23.47-87.83,33.18c-11.74,2.79-23.04,4.77-32.69,5.22c0,0-43.86-13.4-77.34-59.97
			c-64.66-89.95-14.74-99.65-14.74-99.65s43.19,26.76,104.2,111.97c2.13,2.98,7.49,2.31,21.37-0.48
			c14.82-2.97,44.32-2.62,85.05-8.56c0,0,0.69,1.5,1.1,6.3C2142.38,749.12,2142.32,750.5,2142.32,750.5z"/>
		<path class="st22" d="M2260.34,745.06c0,0-29.08,13.62-60.02,23.34c-10.94,3.45-22.38,6.67-33.3,9.09
			c-4.38-19.36-1.36-34.45,1.62-43.19c14.34-2.78,44.99-2.96,89.16-9.4L2260.34,745.06z"/>
		<path class="st22" d="M2246.78,727.63c0,0,11.17-2.16,20.48-6.78c9.31-4.62,34.14-7.71,39.41-2.77
			c5.28,4.93-5.59,24.96-28.24,25.58c-22.65,0.62-29.17,4.32-29.17,4.32L2246.78,727.63z"/>
		<path class="st23" d="M2143.41,751.74c0,0-48.13,22.24-88.91,31.95c8.95-17.59,5.45-32.96,0.81-42.9
			c14.82-2.97,44.53-4.26,85.26-10.2c0,0,0.48,3.15,0.89,7.94C2142.38,749.12,2143.41,751.74,2143.41,751.74z"/>
		<path class="st18" d="M1641.73,937.8v-1.59h-170.82c-21.15,0-38.16,16.67-38.16,36.99c0,18.51,13.8,33.67,32,36.5v414.47h642.32
			V937.8H1641.73z"/>
		<g>
			<g>
				<rect x="2158.69" y="682.3" class="st13" width="102.61" height="101.91"/>
				<rect x="2190.33" y="682.3" class="st14" width="102.61" height="101.91"/>
				<polygon class="st15" points="2190.33,682.3 2158.69,701.35 2158.69,682.3 				"/>
			</g>
			<g>
				<polygon class="st24" points="2207.6,704.35 2173.09,704.35 2174.54,700.34 2173.09,696.02 2207.27,696.02 2205.18,700.5 				
					"/>
				<polygon class="st15" points="2190.34,696.02 2190.34,704.35 2173.09,704.35 2174.54,700.34 2173.09,696.02 				"/>
			</g>
			<g>
				<polygon class="st24" points="2207.6,765.88 2173.09,765.88 2174.54,761.88 2173.09,757.56 2207.27,757.56 2205.18,762.04 				
					"/>
				<polygon class="st15" points="2190.34,757.56 2190.34,765.88 2173.09,765.88 2174.54,761.88 2173.09,757.56 				"/>
			</g>
		</g>
		<path class="st23" d="M2135.4,731.87c0,0,11.67-2.3,21.4-7.24c9.73-4.94,35.66-8.23,41.17-2.96c5.51,5.27-5.84,26.65-29.5,27.31
			s-30.47,4.61-30.47,4.61L2135.4,731.87z"/>
		<rect x="1617.3" y="937.8" class="st25" width="564.01" height="486.38"/>
		<path class="st2" d="M2264.47,936.2h-798.2c-18.57,0-33.51,16.67-33.51,36.99c0,20.55,14.94,36.99,33.51,36.99h798.2
			c20.59,0,37.35-16.67,37.35-36.99C2301.82,952.87,2285.06,936.2,2264.47,936.2z"/>
	</g>
	<g>
		<rect x="1389.47" y="719.69" class="st26" width="115.29" height="102.45"/>
		<rect x="1410.53" y="719.69" class="st1" width="115.29" height="102.45"/>
	</g>
	<g>
		<rect x="1537.47" y="704.3" class="st26" width="145.26" height="117.85"/>
		<rect x="1564.01" y="704.3" class="st1" width="145.26" height="117.85"/>
	</g>
	<g>
		<path class="st27" d="M1656.12,1143.49c0,0-47.83,35.56-57.15,33.41c-9.33-2.16,34.95-38.39,34.95-38.39
			c-16.66-8.01-68.46-2.99-68.46-2.99s-17.25,55.63-25.76,51.25c-8.51-4.39,17.79-48.48,17.79-48.48
			c-18.56-1.12-41.32,12.66-41.32,12.66c-31.16,24.61,2.05,63.35,2.05,63.35s-6.39,19.15-26.07,36.59c0,0-28.1,20.78-30.05,57.92
			l5.1,0.46c0,0,8.17-34.93,23.01-51.19c0.56-0.57,1.3-1.33,2.19-2.24c2.38-2.21,4.04-3.86,5.17-5.09
			c7.32-7.03,17.44-16,22.32-16.87c0,0-0.24-0.89-0.21-2.45c0.07,0.78,0.14,1.59,0.21,2.45c1.67,19.58,39.65,36.68,63.02,40.2
			c23.37,3.52,16.14-6.09,8.09-20.33c-8.05-14.24-33.53-20.62-39.35-27.18c-5.81-6.56,6.21-6.58,20.29-0.14
			c14.08,6.43,16.01,23.58,38.6,34.39c22.59,10.82,56.57-26.66,56.57-26.66c-18-0.91-43.71-20.46-42.78-26.44
			c0.93-5.98,43.63,10.32,50.93,11.1c7.3,0.78,23.91-8.3,26.48-37.7C1704.32,1151.69,1656.12,1143.49,1656.12,1143.49z"/>
		<g>
			<path class="st28" d="M1402.12,1165.57c0,0,52.82-29.58,28.17-69.73c0,0-19.72-24.65-40.85-30.99c0,0,11.27,59.87,0,61.27
				c-11.27,1.41-7.75-67.61-7.75-67.61s-55.64-26.76-77.47-24.65c0,0,34.51,58.46,23.24,57.05c-11.27-1.41-50.01-60.57-50.01-60.57
				s-57.05-10.56-66.2,23.24c-9.16,33.81,5.63,50.71,14.09,52.82c8.45,2.11,62.68,1.41,61.27,8.45
				c-1.41,7.04-38.03,18.31-58.46,11.97c0,0,22.54,55.64,52.12,52.82s38.74-21.13,57.05-22.54c18.31-1.41,31.69,3.52,22.54,8.45
				c-9.16,4.93-40.15,1.62-54.94,14.19c-14.79,12.57-26.76,20.32,0.7,25.96c27.47,5.63,76.77,2.11,86.63-19.02
				C1402.12,1165.57,1402.12,1165.57,1402.12,1165.57z"/>
			<path class="st27" d="M1416.21,1216.98c-14.79-27.47-14.09-51.41-14.09-51.41c-16.9-53.53-164.81-101.42-164.81-101.42
				c188.05,76.07,154.95,122.55,154.95,122.55c5.07,2.96,12.67,17.06,17.94,27.87c0.75,1.84,1.94,4.38,3.7,7.83
				c0.72,1.57,1.3,2.86,1.69,3.75c9.68,24.23,4.55,66.06,4.55,66.06l5.87,1.58C1439.02,1251.62,1416.21,1216.98,1416.21,1216.98z"/>
		</g>
		<g>
			<path class="st28" d="M1486.16,1124.77c0,0-69.63-38.99-37.14-91.91c0,0,25.99-32.49,53.85-40.85c0,0-14.85,78.91,0,80.77
				c14.85,1.86,10.21-89.13,10.21-89.13s73.34-35.28,102.12-32.49c0,0-45.49,77.06-30.64,75.2c14.85-1.86,65.92-79.84,65.92-79.84
				s75.2-13.93,87.27,30.64c12.07,44.56-7.43,66.84-18.57,69.63c-11.14,2.79-82.63,1.86-80.77,11.14
				c1.86,9.28,50.13,24.14,77.06,15.78c0,0-29.71,73.34-68.7,69.63c-38.99-3.71-51.06-27.85-75.2-29.71
				c-24.14-1.86-41.78,4.64-29.71,11.14c12.07,6.5,52.92,2.13,72.42,18.7c19.5,16.58,35.28,26.79-0.93,34.21
				c-36.21,7.43-101.2,2.79-114.19-25.07C1486.16,1124.77,1486.16,1124.77,1486.16,1124.77z"/>
			<path class="st27" d="M1703.41,991.08c0,0-194.96,63.13-217.25,133.69c0,0,0.93,31.57-18.57,67.77c0,0-30.07,45.66-12.93,101.24
				l7.74-2.08c0,0-6.76-55.15,6-87.08c0.52-1.18,1.28-2.86,2.22-4.92l0,0c2.33-4.56,3.9-7.92,4.89-10.34
				c6.95-14.26,16.97-32.84,23.65-36.73C1499.16,1152.63,1455.52,1091.35,1703.41,991.08z"/>
		</g>
		<path class="st14" d="M1347.42,1277.91c0,75.33,61.07,136.39,136.39,136.39s136.39-61.07,136.39-136.39H1347.42z"/>
		<path class="st29" d="M1517.38,1413.26c-5.55,0.69-11.2,1.04-16.95,1.04c-75.33,0-136.39-61.07-136.39-136.4h33.88
			C1397.93,1347.51,1450.04,1404.92,1517.38,1413.26z"/>
		<path class="st14" d="M1605.26,1404.42h-242.9c-9.29,0-16.83,7.53-16.83,16.83h276.56
			C1622.09,1411.96,1614.56,1404.42,1605.26,1404.42z"/>
		<rect x="1342.93" y="1277.91" class="st13" width="280.38" height="4.18"/>
	</g>
	<g>
		<path class="st14" d="M807.3,1018.44l-27.11-101.38c-1.03-3.84-4.99-6.13-8.83-5.1l-168.64,45.11c-3.84,1.03-6.13,4.99-5.1,8.83
			l27.12,101.38c1.02,3.8,4.99,6.13,8.83,5.1l168.64-45.11C806.04,1026.25,808.31,1022.24,807.3,1018.44z"/>
		<path class="st13" d="M780.18,917.07c-1.03-3.84-4.99-6.13-8.83-5.1l-168.64,45.11c-3.84,1.03-6.13,4.99-5.1,8.83l104.84,26.27
			L780.97,920L780.18,917.07z"/>
		<path class="st13" d="M794.89,1013.76c-0.41-1.54-2.01-2.46-3.55-2.05l-31.63,8.46c-1.54,0.41-2.47,2.01-2.05,3.55
			c0.41,1.54,2.01,2.47,3.55,2.05l31.63-8.46C794.38,1016.91,795.3,1015.31,794.89,1013.76z"/>
	</g>
	<g>
		<g>
			<rect x="170.56" y="1123.96" class="st13" width="300.67" height="300.67"/>
			<rect x="263.26" y="1123.96" class="st14" width="300.67" height="300.67"/>
			<polygon class="st15" points="263.26,1123.96 170.56,1180.16 170.56,1123.96 			"/>
		</g>
		<g>
			<polygon class="st24" points="321.15,1299.56 204.59,1299.56 209.49,1285.94 204.59,1271.23 320.06,1271.23 312.98,1286.48 			
				"/>
			<polygon class="st15" points="262.87,1271.23 262.87,1299.56 204.59,1299.56 209.49,1285.94 204.59,1271.23 			"/>
		</g>
	</g>
	<g>
		<g>
			<rect x="817.52" y="1248.34" class="st13" width="172.9" height="172.9"/>
			<rect x="870.83" y="1248.34" class="st14" width="172.9" height="172.9"/>
			<polygon class="st15" points="870.83,1248.34 817.52,1280.66 817.52,1248.34 			"/>
		</g>
		<rect x="939.31" y="1285.07" class="st12" width="136.17" height="136.16"/>
		<rect x="981.29" y="1285.07" class="st2" width="136.17" height="136.16"/>
		
			<rect x="994.3" y="1383.26" transform="matrix(0.9806 -0.1958 0.1958 0.9806 -253.7084 226.8075)" class="st0" width="51.53" height="26.19"/>
		<g>
			<polygon class="st0" points="1005.8,1319.78 956.6,1319.78 958.67,1314.03 956.6,1307.83 1005.34,1307.83 1002.35,1314.26 			"/>
			<polygon class="st1" points="981.2,1307.83 981.2,1319.78 956.6,1319.78 958.67,1314.03 956.6,1307.83 			"/>
		</g>
		<g>
			<polygon class="st24" points="899.93,1285.75 841.78,1285.75 844.23,1278.96 841.78,1271.62 899.38,1271.62 895.85,1279.23 			
				"/>
			<polygon class="st15" points="870.85,1271.62 870.85,1285.75 841.78,1285.75 844.23,1278.96 841.78,1271.62 			"/>
		</g>
		<g>
			<polygon class="st24" points="899.93,1390.16 841.78,1390.16 844.23,1383.37 841.78,1376.04 899.38,1376.04 895.85,1383.64 			
				"/>
			<polygon class="st15" points="870.85,1376.04 870.85,1390.16 841.78,1390.16 844.23,1383.37 841.78,1376.04 			"/>
		</g>
	</g>
	<g>
		<rect x="426.86" y="1186.42" class="st12" width="239.2" height="239.2"/>
		<rect x="500.61" y="1186.42" class="st2" width="239.2" height="239.2"/>
		
			<rect x="665.04" y="1206.25" transform="matrix(0.9806 -0.1958 0.1958 0.9806 -225.6903 159.6051)" class="st0" width="58.43" height="29.7"/>
		<g>
			<polygon class="st0" points="532.37,1224.3 467.54,1224.3 470.26,1216.73 467.54,1208.55 531.77,1208.55 527.83,1217.03 			"/>
			<polygon class="st1" points="499.96,1208.55 499.96,1224.3 467.54,1224.3 470.26,1216.73 467.54,1208.55 			"/>
		</g>
		<g>
			<polygon class="st0" points="532.37,1402.47 467.54,1402.47 470.26,1394.9 467.54,1386.72 531.77,1386.72 527.83,1395.2 			"/>
			<polygon class="st1" points="499.96,1386.72 499.96,1402.47 467.54,1402.47 470.26,1394.9 467.54,1386.72 			"/>
		</g>
	</g>
	<g>
		<polygon class="st0" points="611.59,922.79 519.46,922.79 523.33,912.02 519.46,900.4 610.73,900.4 605.13,912.46 		"/>
		<polygon class="st1" points="565.52,900.4 565.52,922.79 519.46,922.79 523.33,912.02 519.46,900.4 		"/>
	</g>
	<rect x="1372.43" y="322.98" class="st30" width="478.33" height="16.82"/>
	<rect x="1259.6" y="181.63" class="st2" width="621.44" height="16.82"/>
	<rect x="1372.43" y="489.38" class="st30" width="478.33" height="16.82"/>
	<rect x="1372.43" y="655.78" class="st30" width="478.33" height="16.82"/>
	<rect x="1372.43" y="822.17" class="st30" width="478.33" height="16.82"/>
	<g>
		<g>
			<rect x="1388.94" y="353.6" class="st13" width="135.78" height="135.78"/>
			<rect x="1430.81" y="353.6" class="st14" width="135.78" height="135.78"/>
			<polygon class="st15" points="1430.81,353.6 1388.94,378.98 1388.94,353.6 			"/>
		</g>
		<g>
			<rect x="1484.59" y="382.45" class="st12" width="106.93" height="106.93"/>
			<rect x="1517.56" y="382.45" class="st2" width="106.93" height="106.93"/>
		</g>
		
			<rect x="1527.78" y="460.08" transform="matrix(0.9806 -0.1958 0.1958 0.9806 -62.1417 312.2814)" class="st0" width="40.46" height="20.56"/>
		<g>
			<polygon class="st0" points="1536.8,410.23 1498.17,410.23 1499.79,405.72 1498.17,400.84 1536.44,400.84 1534.09,405.9 			"/>
			<polygon class="st1" points="1517.48,400.84 1517.48,410.23 1498.17,410.23 1499.79,405.72 1498.17,400.84 			"/>
		</g>
		<g>
			<polygon class="st24" points="1453.66,382.72 1408,382.72 1409.92,377.39 1408,371.62 1453.23,371.62 1450.46,377.6 			"/>
			<polygon class="st15" points="1430.83,371.62 1430.83,382.72 1408,382.72 1409.92,377.39 1408,371.62 			"/>
		</g>
		<g>
			<polygon class="st24" points="1453.66,464.72 1408,464.72 1409.92,459.38 1408,453.62 1453.23,453.62 1450.46,459.6 			"/>
			<polygon class="st15" points="1430.83,453.62 1430.83,464.72 1408,464.72 1409.92,459.38 1408,453.62 			"/>
		</g>
	</g>
	<g>
		<rect x="1454.89" y="216.29" class="st12" width="106.93" height="106.93"/>
		<rect x="1487.86" y="216.29" class="st2" width="106.93" height="106.93"/>
		
			<rect x="1498.08" y="293.41" transform="matrix(0.9806 -0.1958 0.1958 0.9806 -30.0734 303.2386)" class="st0" width="40.46" height="20.56"/>
		<g>
			<polygon class="st0" points="1507.11,243.55 1468.47,243.55 1470.1,239.04 1468.47,234.16 1506.75,234.16 1504.4,239.22 			"/>
			<polygon class="st1" points="1487.79,234.16 1487.79,243.55 1468.47,243.55 1470.1,239.04 1468.47,234.16 			"/>
		</g>
		<g>
			<rect x="1608.99" y="247.4" class="st13" width="75.56" height="75.56"/>
			<rect x="1632.29" y="247.4" class="st14" width="75.56" height="75.56"/>
			<polygon class="st15" points="1632.29,247.4 1608.99,261.53 1608.99,247.4 			"/>
			<g>
				<polygon class="st24" points="1645.01,263.75 1619.6,263.75 1620.67,260.78 1619.6,257.57 1644.77,257.57 1643.23,260.9 				"/>
				<polygon class="st15" points="1632.3,257.57 1632.3,263.75 1619.6,263.75 1620.67,260.78 1619.6,257.57 				"/>
			</g>
			<g>
				<polygon class="st24" points="1645.01,309.38 1619.6,309.38 1620.67,306.41 1619.6,303.2 1644.77,303.2 1643.23,306.53 				"/>
				<polygon class="st15" points="1632.3,303.2 1632.3,309.38 1619.6,309.38 1620.67,306.41 1619.6,303.2 				"/>
			</g>
		</g>
	</g>
	<g>
		<rect x="1390.23" y="567" class="st12" width="88.84" height="88.84"/>
		<rect x="1417.62" y="567" class="st2" width="88.84" height="88.84"/>
		
			<rect x="1426.11" y="631.06" transform="matrix(0.9806 -0.1959 0.1959 0.9806 -97.3238 294.9834)" class="st0" width="33.62" height="17.08"/>
		<g>
			<polygon class="st0" points="1433.6,589.65 1401.51,589.65 1402.85,585.9 1401.51,581.85 1433.3,581.85 1431.35,586.05 			"/>
			<polygon class="st1" points="1417.55,581.85 1417.55,589.65 1401.51,589.65 1402.85,585.9 1401.51,581.85 			"/>
		</g>
	</g>
	<g>
		<rect x="1517.23" y="567" class="st12" width="88.84" height="88.84"/>
		<rect x="1544.62" y="567" class="st2" width="88.84" height="88.84"/>
		
			<rect x="1553.11" y="631.06" transform="matrix(0.9806 -0.1959 0.1959 0.9806 -94.8642 319.8566)" class="st0" width="33.62" height="17.08"/>
		<g>
			<polygon class="st0" points="1560.6,589.65 1528.51,589.65 1529.85,585.9 1528.51,581.85 1560.3,581.85 1558.35,586.05 			"/>
			<polygon class="st1" points="1544.55,581.85 1544.55,589.65 1528.51,589.65 1529.85,585.9 1528.51,581.85 			"/>
		</g>
	</g>
	<g>
		<g>
			<rect x="1637.59" y="424.59" class="st13" width="64.79" height="64.79"/>
			<rect x="1657.56" y="424.59" class="st14" width="64.79" height="64.79"/>
			<polygon class="st15" points="1657.56,424.59 1637.59,436.7 1637.59,424.59 			"/>
		</g>
		<g>
			<g>
				<rect x="1683.22" y="438.36" class="st12" width="51.02" height="51.02"/>
				<rect x="1698.96" y="438.36" class="st2" width="51.02" height="51.02"/>
			</g>
		</g>
		
			<rect x="1703.83" y="475.68" transform="matrix(0.9806 -0.1958 0.1958 0.9806 -60.9363 344.8683)" class="st0" width="19.31" height="9.81"/>
		<g>
			<polygon class="st0" points="1708.14,451.89 1689.7,451.89 1690.48,449.73 1689.7,447.41 1707.97,447.41 1706.85,449.82 			"/>
			<polygon class="st1" points="1698.92,447.41 1698.92,451.89 1689.7,451.89 1690.48,449.73 1689.7,447.41 			"/>
		</g>
		<g>
			<polygon class="st24" points="1668.47,438.76 1646.68,438.76 1647.6,436.22 1646.68,433.47 1668.26,433.47 1666.94,436.32 			"/>
			<polygon class="st15" points="1657.57,433.47 1657.57,438.76 1646.68,438.76 1647.6,436.22 1646.68,433.47 			"/>
		</g>
		<g>
			<polygon class="st24" points="1668.47,477.89 1646.68,477.89 1647.6,475.34 1646.68,472.59 1668.26,472.59 1666.94,475.44 			"/>
			<polygon class="st15" points="1657.57,472.59 1657.57,477.89 1646.68,477.89 1647.6,475.34 1646.68,472.59 			"/>
		</g>
	</g>
	<polygon class="st2" points="1782.55,537.62 1755.25,656.16 1830.69,656.16 1857.99,537.62 	"/>
	<polygon class="st31" points="1733.69,537.62 1706.39,656.16 1781.83,656.16 1809.13,537.62 	"/>
	<g>
		<path class="st14" d="M1754.52,601.06l0.04,51.5c0,1.93-1.58,3.54-3.54,3.54l-85.67,0.06c-1.95,0-3.54-1.61-3.54-3.54l-0.04-51.5
			c0-1.95,1.58-3.54,3.54-3.54l85.67-0.06C1752.93,597.52,1754.52,599.1,1754.52,601.06z"/>
		<path class="st13" d="M1754.52,601.06l0,1.49l-46.36,24.29l-46.39-25.72c0-1.95,1.58-3.54,3.54-3.54l85.67-0.06
			C1752.93,597.52,1754.52,599.1,1754.52,601.06z"/>
		<path class="st13" d="M1747.84,647.35l-16.07,0.01c-0.78,0-1.42,0.64-1.42,1.42c0,0.78,0.64,1.42,1.42,1.42l16.07-0.01
			c0.78,0,1.42-0.64,1.42-1.43C1749.26,647.99,1748.62,647.35,1747.84,647.35z"/>
	</g>
	<g>
		<path class="st14" d="M1738.71,600.67c0-1.95-1.59-3.54-3.54-3.54l-85.67,0.06c-1.95,0-3.54,1.59-3.54,3.54l0.04,51.5
			c0,1.93,1.59,3.54,3.54,3.54l85.67-0.06c1.95,0,3.54-1.61,3.54-3.54L1738.71,600.67z"/>
		<path class="st13" d="M1738.71,600.67l0,1.49l-46.36,24.29l-46.39-25.72c0-1.95,1.58-3.54,3.54-3.54l85.67-0.06
			C1737.12,597.14,1738.71,598.72,1738.71,600.67z"/>
		<path class="st13" d="M1732.03,646.97l-16.07,0.01c-0.78,0-1.42,0.64-1.42,1.43c0,0.78,0.64,1.42,1.42,1.42l16.07-0.01
			c0.78,0,1.42-0.64,1.42-1.42C1733.45,647.61,1732.81,646.97,1732.03,646.97z"/>
	</g>
	<path class="st32" d="M3252.37,1426.53H63.53c-1.4,0-2.54-1.14-2.54-2.54v-1.78c0-1.4,1.14-2.54,2.54-2.54h3188.84
		c1.4,0,2.54,1.14,2.54,2.54v1.78C3254.91,1425.39,3253.77,1426.53,3252.37,1426.53z"/>
</g>
<rect x="2514.59" y="927.15" transform="matrix(-1 -4.488466e-11 4.488466e-11 -1 5706.4561 2346.9077)" class="st30" width="677.27" height="492.62"/>
<rect x="2364.57" y="927.15" transform="matrix(-1 -4.489932e-11 4.489932e-11 -1 5574.3486 1884.3741)" class="st2" width="845.22" height="30.08"/>
<g>
	<g>
		<g>
			<path class="st33" d="M2955.94,721.49l16.23,192.94c0,0,1.7,11.7-7,11.72c-14.3,0.03-71.2,0-71.2,0s10.77-2.43,10.64-7.91
				c-0.15-6.46-18.97-198.57-18.97-198.57L2955.94,721.49z"/>
			<path class="st34" d="M2889.36,922.65c2.81,0.01,57.15,0.18,71.08,0c6.07-0.08,7.14-5.4,7.19-8.84c0.02-1.65-0.18-2.87-0.18-2.87
				l-0.42-5.02l-1.08-12.78l-0.95-11.29l-1.22-14.51l-1.03-12.25l-11.53-137.1l-70.3-1.82c0,0,7.92,80.4,13.53,138.92
				c0.63,6.52,1.22,12.77,1.77,18.61c0.18,1.86,0.35,3.69,0.52,5.46c0.52,5.54,0.99,10.62,1.41,15.11c0.22,2.37,0.42,4.56,0.6,6.58
				c0.72,7.89,1.13,12.93,1.14,13.89c0,0.56-0.04,1.08-0.14,1.56C2898.59,922.45,2890.41,922.65,2889.36,922.65z"/>
			<polygon class="st34" points="3126.67,616.5 3087.14,775.27 3081.73,797.01 3063.32,870.96 2721.31,870.96 2789.16,616.5 			"/>
			<polygon class="st33" points="3126.67,616.5 3132.15,618.33 3070.6,876.49 3063.32,870.96 			"/>
			<polygon class="st35" points="3070.6,876.49 2730.69,876.49 2721.31,870.96 3063.32,870.96 			"/>
			<rect x="2877.64" y="922.73" class="st36" width="73.6" height="3.5"/>
			<polygon class="st36" points="2737.87,824.07 2793.37,619.87 3127.22,619.87 3127.22,616.5 2789.16,616.5 2733.85,823.62 			"/>
			<polygon class="st35" points="2896.35,876.49 2896.73,879.16 2965.94,893.14 2964.99,881.85 2964.54,876.49 			"/>
			<path class="st37" d="M2889.36,922.65c2.81,0.01,57.15,0.18,71.08,0c6.07-0.08,7.14-5.4,7.19-8.84l-68.89-12.96
				c0.72,7.89,1.13,12.93,1.14,13.89c0,0.56-0.04,1.08-0.14,1.56C2898.59,922.45,2890.41,922.65,2889.36,922.65z"/>
			<polygon class="st35" points="2913.08,819.45 3063.32,870.96 3081.73,797.01 			"/>
			<polygon class="st38" points="3126.67,616.5 2789.16,616.5 2734.4,821.01 3077.5,821.01 			"/>
		</g>
		<polygon class="st39" points="2750.32,812.15 3066.33,812.15 3102.11,669.58 3104.86,658.65 3107.2,649.32 3112.69,627.46 
			2801.23,627.46 2795.2,649.32 2792.63,658.65 2789.62,669.58 		"/>
		<g>
			<polygon class="st40" points="2831.63,637.43 2845.84,637.63 2846.16,636.39 2831.95,636.19 			"/>
			<polygon class="st40" points="2834.77,640.83 2844.98,640.97 2845.3,639.74 2835.08,639.59 			"/>
			<polygon class="st40" points="2823.03,640.66 2833.25,640.81 2833.56,639.57 2823.35,639.43 			"/>
			<polygon class="st40" points="2814.54,640.54 2820.87,640.63 2821.19,639.4 2814.85,639.31 			"/>
			<polygon class="st40" points="2820.23,637.27 2829,637.39 2829.31,636.15 2820.55,636.03 			"/>
			<polygon class="st40" points="2808.25,637.1 2817.02,637.22 2817.34,635.98 2808.57,635.86 			"/>
		</g>
		<g>
			<polygon class="st40" points="2793.73,799.46 2807.94,799.66 2808.25,798.43 2794.05,798.23 			"/>
			<polygon class="st40" points="2796.87,802.87 2807.08,803.01 2807.4,801.78 2797.18,801.63 			"/>
			<polygon class="st40" points="2785.13,802.7 2795.34,802.85 2795.66,801.61 2785.44,801.47 			"/>
			<polygon class="st40" points="2776.64,802.58 2782.97,802.67 2783.28,801.44 2776.95,801.35 			"/>
			<polygon class="st40" points="2782.33,799.3 2791.09,799.43 2791.41,798.19 2782.64,798.07 			"/>
			<polygon class="st40" points="2770.35,799.14 2779.12,799.26 2779.44,798.02 2770.67,797.9 			"/>
		</g>
		<g>
			<g>
				<polygon class="st40" points="3053.64,646.84 3086.95,646.76 3087.61,643.96 3054.3,644.05 				"/>
				<polygon class="st40" points="3061.21,654.4 3085.16,654.34 3085.82,651.55 3061.87,651.6 				"/>
				<polygon class="st40" points="3033.7,654.47 3057.65,654.41 3058.31,651.61 3034.36,651.67 				"/>
				<polygon class="st40" points="3013.79,654.52 3028.64,654.48 3029.3,651.68 3014.45,651.72 				"/>
				<polygon class="st40" points="3026.91,646.91 3047.46,646.86 3048.12,644.06 3027.57,644.11 				"/>
				<polygon class="st40" points="2998.84,646.98 3019.39,646.93 3020.05,644.13 2999.5,644.18 				"/>
			</g>
			<g>
				<g>
					<polygon class="st40" points="3053.01,671.47 3081.15,671.4 3081.81,668.6 3053.67,668.67 					"/>
					<polygon class="st40" points="3032.19,671.52 3047.9,671.48 3048.56,668.69 3032.85,668.72 					"/>
					<polygon class="st40" points="3000.96,671.6 3025.06,671.54 3025.72,668.74 3001.62,668.8 					"/>
				</g>
				<g>
					<polygon class="st40" points="3046.11,678.83 3079.42,678.75 3080.08,675.96 3046.77,676.04 					"/>
					<polygon class="st40" points="3053.68,686.39 3077.63,686.34 3078.29,683.54 3054.34,683.6 					"/>
					<polygon class="st40" points="3026.17,686.46 3050.12,686.4 3050.78,683.61 3026.83,683.66 					"/>
					<polygon class="st40" points="3006.26,686.51 3021.11,686.47 3021.77,683.68 3006.92,683.71 					"/>
					<polygon class="st40" points="3019.38,678.9 3039.93,678.85 3040.59,676.05 3020.04,676.1 					"/>
					<polygon class="st40" points="2991.31,678.97 3011.86,678.92 3012.52,676.12 2991.97,676.17 					"/>
				</g>
			</g>
			<g>
				<g>
					<polygon class="st11" points="3044.77,706.49 3072.9,706.42 3073.56,703.63 3045.43,703.7 					"/>
					<polygon class="st11" points="3023.94,706.54 3039.66,706.5 3040.32,703.71 3024.6,703.75 					"/>
					<polygon class="st11" points="2992.72,706.62 3016.81,706.56 3017.47,703.76 2993.38,703.82 					"/>
				</g>
				<g>
					<polygon class="st11" points="3037.86,713.86 3071.17,713.78 3071.83,710.98 3038.52,711.06 					"/>
					<polygon class="st11" points="3045.44,721.42 3069.39,721.36 3070.05,718.56 3046.1,718.62 					"/>
					<polygon class="st11" points="3017.93,721.49 3041.88,721.43 3042.53,718.63 3018.58,718.69 					"/>
					<polygon class="st11" points="2998.02,721.53 3012.86,721.5 3013.52,718.7 2998.68,718.74 					"/>
					<polygon class="st11" points="3011.14,713.92 3031.69,713.87 3032.34,711.08 3011.79,711.13 					"/>
					<polygon class="st11" points="2983.06,713.99 3003.61,713.94 3004.27,711.15 2983.72,711.2 					"/>
				</g>
			</g>
			<g>
				<g>
					<polygon class="st40" points="3036.88,740 3065.02,739.93 3065.68,737.13 3037.54,737.2 					"/>
					<polygon class="st40" points="3016.06,740.05 3031.77,740.01 3032.43,737.21 3016.72,737.25 					"/>
					<polygon class="st40" points="2984.83,740.13 3008.93,740.07 3009.59,737.27 2985.49,737.33 					"/>
				</g>
				<g>
					<polygon class="st40" points="3029.98,747.36 3063.29,747.28 3063.94,744.49 3030.64,744.57 					"/>
					<polygon class="st40" points="3037.55,754.92 3061.5,754.86 3062.16,752.07 3038.21,752.13 					"/>
					<polygon class="st40" points="3010.04,754.99 3033.99,754.93 3034.65,752.13 3010.7,752.19 					"/>
					<polygon class="st40" points="2990.13,755.04 3004.98,755 3005.63,752.21 2990.79,752.24 					"/>
					<polygon class="st40" points="3003.25,747.43 3023.8,747.38 3024.46,744.58 3003.91,744.63 					"/>
					<polygon class="st40" points="2975.18,747.5 2995.73,747.45 2996.39,744.65 2975.84,744.7 					"/>
				</g>
			</g>
			<g>
				<g>
					<polygon class="st11" points="3028.78,774.41 3056.92,774.34 3057.58,771.54 3029.44,771.61 					"/>
					<polygon class="st11" points="3007.96,774.46 3023.67,774.42 3024.33,771.62 3008.62,771.66 					"/>
					<polygon class="st11" points="2976.73,774.54 3000.83,774.48 3001.49,771.68 2977.39,771.74 					"/>
				</g>
				<g>
					<polygon class="st11" points="3021.88,781.77 3055.19,781.69 3055.85,778.89 3022.54,778.98 					"/>
					<polygon class="st11" points="3029.45,789.33 3053.4,789.27 3054.06,786.48 3030.11,786.54 					"/>
					<polygon class="st11" points="3001.94,789.4 3025.89,789.34 3026.55,786.54 3002.6,786.6 					"/>
					<polygon class="st11" points="2982.03,789.45 2996.88,789.41 2997.54,786.62 2982.69,786.65 					"/>
					<polygon class="st11" points="2995.15,781.84 3015.7,781.79 3016.36,778.99 2995.81,779.04 					"/>
					<polygon class="st11" points="2967.08,781.91 2987.63,781.86 2988.29,779.06 2967.74,779.11 					"/>
				</g>
			</g>
			<g>
				<polygon class="st34" points="2907.52,649.18 2940.83,649.1 2941.49,646.3 2908.18,646.38 				"/>
				<polygon class="st34" points="2915.09,656.74 2939.04,656.68 2939.7,653.88 2915.75,653.94 				"/>
				<polygon class="st34" points="2887.58,656.81 2911.53,656.75 2912.19,653.95 2888.24,654.01 				"/>
				<polygon class="st34" points="2867.67,656.85 2882.52,656.82 2883.18,654.02 2868.33,654.06 				"/>
				<polygon class="st34" points="2880.79,649.24 2901.34,649.19 2902,646.4 2881.45,646.45 				"/>
				<polygon class="st34" points="2852.72,649.31 2873.27,649.26 2873.93,646.47 2853.38,646.52 				"/>
			</g>
			<g>
				<g>
					<polygon class="st34" points="2906.89,673.81 2935.03,673.74 2935.69,670.94 2907.55,671.01 					"/>
					<polygon class="st34" points="2886.07,673.86 2901.78,673.82 2902.44,671.02 2886.73,671.06 					"/>
					<polygon class="st34" points="2854.84,673.93 2878.94,673.87 2879.6,671.08 2855.5,671.14 					"/>
				</g>
				<g>
					<polygon class="st34" points="2899.99,681.17 2933.3,681.09 2933.96,678.29 2900.65,678.38 					"/>
					<polygon class="st34" points="2907.56,688.73 2931.51,688.67 2932.17,685.88 2908.22,685.93 					"/>
					<polygon class="st34" points="2880.05,688.8 2904,688.74 2904.66,685.94 2880.71,686 					"/>
					<polygon class="st34" points="2860.14,688.85 2874.99,688.81 2875.65,686.01 2860.8,686.05 					"/>
					<polygon class="st34" points="2873.26,681.24 2893.81,681.19 2894.47,678.39 2873.92,678.44 					"/>
					<polygon class="st34" points="2845.18,681.28 2865.73,681.28 2866.4,678.49 2845.85,678.49 					"/>
				</g>
			</g>
			<g>
				<g>
					<polygon class="st40" points="2898.65,708.83 2926.78,708.76 2927.44,705.96 2899.31,706.03 					"/>
					<polygon class="st40" points="2877.82,708.88 2893.54,708.84 2894.2,706.05 2878.48,706.08 					"/>
					<polygon class="st40" points="2846.6,708.96 2870.69,708.9 2871.35,706.1 2847.26,706.16 					"/>
				</g>
				<g>
					<polygon class="st40" points="2891.74,716.2 2925.05,716.11 2925.71,713.32 2892.4,713.4 					"/>
					<polygon class="st40" points="2899.32,723.75 2923.27,723.7 2923.93,720.9 2899.98,720.96 					"/>
					<polygon class="st40" points="2871.81,723.82 2895.76,723.76 2896.41,720.97 2872.47,721.03 					"/>
					<polygon class="st40" points="2851.9,723.87 2866.74,723.83 2867.4,721.04 2852.56,721.07 					"/>
					<polygon class="st40" points="2865.02,716.26 2885.57,716.21 2886.22,713.41 2865.67,713.46 					"/>
					<polygon class="st40" points="2836.94,716.33 2857.49,716.28 2858.15,713.48 2837.6,713.53 					"/>
				</g>
			</g>
			<g>
				<g>
					<polygon class="st40" points="2890.76,742.33 2918.9,742.27 2919.56,739.47 2891.42,739.54 					"/>
					<polygon class="st40" points="2869.94,742.39 2885.65,742.35 2886.31,739.55 2870.6,739.59 					"/>
					<polygon class="st40" points="2838.71,742.46 2862.81,742.4 2863.47,739.61 2839.37,739.67 					"/>
				</g>
				<g>
					<polygon class="st40" points="2883.86,749.7 2917.17,749.62 2917.83,746.82 2884.52,746.9 					"/>
					<polygon class="st40" points="2891.43,757.26 2915.38,757.2 2916.04,754.4 2892.09,754.46 					"/>
					<polygon class="st40" points="2863.92,757.33 2887.87,757.27 2888.53,754.47 2864.58,754.53 					"/>
					<polygon class="st40" points="2844.01,757.38 2858.86,757.34 2859.52,754.54 2844.67,754.58 					"/>
					<polygon class="st40" points="2857.13,749.77 2877.68,749.72 2878.34,746.92 2857.79,746.97 					"/>
					<polygon class="st40" points="2829.06,749.84 2849.61,749.79 2850.27,746.99 2829.72,747.04 					"/>
				</g>
			</g>
			<g>
				<g>
					<polygon class="st40" points="2882.66,776.74 2910.8,776.68 2911.46,773.88 2883.32,773.95 					"/>
					<polygon class="st40" points="2861.84,776.8 2877.55,776.76 2878.21,773.96 2862.5,774 					"/>
					<polygon class="st40" points="2830.61,776.87 2854.71,776.81 2855.37,774.02 2831.27,774.08 					"/>
				</g>
				<g>
					<polygon class="st40" points="2875.76,784.11 2909.07,784.03 2909.73,781.23 2876.42,781.31 					"/>
					<polygon class="st40" points="2883.33,791.67 2907.28,791.61 2907.94,788.81 2883.99,788.87 					"/>
					<polygon class="st40" points="2855.82,791.74 2879.77,791.68 2880.43,788.88 2856.48,788.94 					"/>
					<polygon class="st40" points="2835.91,791.78 2850.76,791.75 2851.42,788.95 2836.57,788.99 					"/>
					<polygon class="st40" points="2849.03,784.18 2869.58,784.13 2870.24,781.33 2849.69,781.38 					"/>
					<polygon class="st40" points="2820.96,784.24 2841.51,784.19 2842.17,781.4 2821.62,781.45 					"/>
				</g>
			</g>
		</g>
	</g>
	<g>
		<path class="st41" d="M2728.83,1372.51c0,0,3.05,47.46,12.23,48.12c1.22,0.09,46.57-0.01,46.57-0.01l57.89-0.46
			c0,0-0.41-13.95-17.34-16.86c-16.93-2.91-45.28-14.74-55.58-37.09C2761.77,1342.7,2728.83,1372.51,2728.83,1372.51z"/>
		<path class="st11" d="M2563.11,982.16c-2.21,1.86-61.18,65.75-56.36,114.82c1.41,14.41,13.83,25.25,28.31,25.25h71.82
			c0,0,73.29,13.1,75.03,28.93c1.75,15.84,16.74,101.21,46.46,222.53c0,0,21.9,7.54,35.18,2.16c17.57-7.12,20.12-14.68,20.12-14.68
			s-17.71-271.66-31.7-290.78c-13.99-19.12-158.06-75.95-204.71-81.61S2563.11,982.16,2563.11,982.16z"/>
		<path class="st4" d="M2979.65,904.16c0,0,41.67-9.69,52.33,0c10.66,9.69,14.05,23.74,14.05,23.74h-66.39V904.16z"/>
		<path class="st11" d="M2830.29,1372.51c0,0,3.05,47.46,12.23,48.12c1.22,0.09,46.57-0.01,46.57-0.01l57.89-0.46
			c0,0-0.41-13.95-17.34-16.86c-16.93-2.91-45.28-14.74-55.58-37.09C2863.24,1342.7,2830.29,1372.51,2830.29,1372.51z"/>
		<path class="st42" d="M2508.64,982.16c-1.68,1.41-14.44,35.75-22.96,74.75c-7.34,33.56,18.19,65.32,52.55,65.32h167.08
			c0,0,73.29,13.1,75.04,28.93c1.75,15.84,16.74,101.21,46.46,222.53c0,0,21.98,5.77,39.14-1.57c9.13-3.9,16.32-13.25,16.32-13.25
			s-17.87-269.36-31.86-288.48c-13.99-19.12-158.06-75.95-204.71-81.61C2599.05,983.12,2508.64,982.16,2508.64,982.16z"/>
		<path class="st4" d="M2601.25,739.3l25.84,24.8l44.03,0.01c0.05-3.54-0.1-18.3-0.25-31.68c-0.01-0.79-0.03-1.57-0.03-2.35
			c-0.03-2.97-0.07-5.84-0.11-8.45c-0.09-7.37-0.16-12.71-0.16-12.71l-11.32-7.74l-25.15-17.22l-13.6-9.3
			c-0.01,0.23-1.13,12.39-1.3,14.16C2616.2,720.32,2601.25,739.3,2601.25,739.3z"/>
		<path class="st11" d="M2665.26,734.82c-0.84-0.35-48.48-21.72-54.05-19.88s-12.51,18.85-12.51,18.85l83.88,18.96
			C2682.58,752.76,2675.98,739.33,2665.26,734.82z"/>
		<path class="st43" d="M2459.22,877.57c9.08-55.97,47.4-97.85,63.79-113.55c11.01-16.56,75.68-30.23,75.68-30.23
			s53.58,12.11,83.88,18.96c0,0,47.28,5.13,73.94,49.23c16.49,27.27,63.71,89.64,94.72,91.58c31.01,1.94,128.41,10.55,128.41,10.55
			v23.96l-148.49,14.36c-1.82,0.05-3.62-0.09-5.4-0.43c-12.78-2.41-67.55-13.3-94.79-27.47c-4.35,70.14-9.49,177.25-33.99,194.26
			c-25.91,17.99-208.13,20.4-227.42-7.02c-9.87-14.03,2.23-97.12,17.36-177.24C2468.12,915.58,2455.42,901.04,2459.22,877.57z"/>
		<path class="st10" d="M2627.54,698.63l2.24,1.39c0,0,20.72,14.92,40.94,21.61c-0.09-7.37-0.16-12.71-0.16-12.71l-11.32-7.74
			L2627.54,698.63z"/>
		<path class="st4" d="M2685.99,709.31c0,0-67.74,8.02-72.08-34.25c-4.34-42.26-16.01-69.69,27.06-76.59
			c43.07-6.9,53.14,8.36,58.02,22.11S2703.5,706.14,2685.99,709.31z"/>
		<path class="st11" d="M2697.19,616.25c0,0-12.79,45.85-22.05,42.02c-9.26-3.82-17.72-6.96-18.94,7.36
			c-1.21,14.31,9.12,33.03-21.05,29.97c-30.17-3.06-58.57-87.65-47.7-100.63C2618.83,557.52,2740.76,571.55,2697.19,616.25z"/>
	</g>
	<g>
		<path class="st44" d="M2745.17,1132.32h-342.94c-8.39,0-15.18-6.8-15.18-15.18v-22.84h358.12V1132.32z"/>
		<path class="st34" d="M2791.14,1132.32h-265.12c-6.2,0-11.23-5.03-11.23-11.23v-15.57c0-6.2,5.03-11.23,11.23-11.23h265.12
			c6.2,0,11.23,5.03,11.23,11.23v15.57C2802.36,1127.29,2797.34,1132.32,2791.14,1132.32z"/>
		<g>
			<polygon class="st42" points="2574.28,1407.35 2552.67,1407.35 2546.6,1132.32 2579.62,1132.32 			"/>
			<polygon class="st42" points="2668.21,1407.35 2458.01,1407.35 2458.01,1388.37 2565.14,1378.71 2668.21,1388.37 			"/>
			
				<ellipse transform="matrix(0.6518 -0.7584 0.7584 0.6518 -210.2421 2350.853)" class="st42" cx="2454.88" cy="1404.37" rx="17.29" ry="17.29"/>
			<path class="st42" d="M2647.79,1404.37c0-9.55,7.74-17.29,17.29-17.29c9.55,0,17.29,7.74,17.29,17.29
				c0,9.55-7.74,17.29-17.29,17.29C2655.53,1421.66,2647.79,1413.92,2647.79,1404.37z"/>
			<path class="st42" d="M2660.68,1150.36h-195.14c-9.97,0-18.04-8.08-18.04-18.04l0,0h231.22l0,0
				C2678.72,1142.28,2670.64,1150.36,2660.68,1150.36z"/>
		</g>
		<path class="st34" d="M2420.15,1132.32c-9.09,0-16.45-7.37-16.45-16.45V862.6c0-47.46,31.03-85.93,69.3-85.93h156.72
			c38.27,0,69.3,38.47,69.3,85.93v269.71H2420.15z"/>
		<path class="st35" d="M2417.05,1132.32c-31.92,0-30.01,0-30.01-30.01V862.6c0-47.46,31.03-85.93,69.3-85.93h156.72
			c38.28,0,69.3,38.47,69.3,85.93v269.71H2417.05z"/>
	</g>
</g>
</svg>
