<?xml version="1.0" encoding="utf-8"?>
<!-- Generator: Adobe Illustrator 25.2.1, SVG Export Plug-In . SVG Version: 6.00 Build 0)  -->
<svg version="1.1" id="_x2018_лой_x5F_1" xmlns="http://www.w3.org/2000/svg" xmlns:xlink="http://www.w3.org/1999/xlink"
	 x="0px" y="0px" viewBox="0 0 2700.79 1460.33" style="enable-background:new 0 0 2700.79 1460.33;" xml:space="preserve">
<style type="text/css">
	.st0{fill:#E8F2FA;}
	.st1{fill:#294172;}
	.st2{fill:#FFFFFF;}
	.st3{fill:#429253;}
	.st4{fill:#AEC3FF;}
	.st5{fill:#9CB8F7;}
	.st6{fill:#C5D7FF;}
	.st7{fill:#233862;}
	.st8{fill:#FFB27D;}
	.st9{fill:#ED985F;}
	.st10{fill:#2C3A64;}
	.st11{fill:#2B478B;}
	.st12{fill:#CADAFF;}
	.st13{fill:#6F89DD;}
	.st14{fill:#32892B;}
	.st15{fill:#F78248;}
	.st16{fill:#2E3552;}
	.st17{fill:#F4F4F4;}
	.st18{fill:#082242;}
	.st19{fill:#F2F9FF;}
	.st20{fill:#29498A;}
	.st21{fill:#05234F;}
	.st22{fill:#209453;}
	.st23{fill:#FFB07D;}
	.st24{fill:#184D8D;}
	.st25{fill:#207253;}
	.st26{fill:#163051;}
	.st27{fill:#FCA36B;}
	.st28{fill:#143660;}
	.st29{fill:#1C4E83;}
	.st30{fill:#719BEF;}
	.st31{opacity:0.5;}
	.st32{fill:#B1CFF8;}
	.st33{fill:#223962;}
	.st34{fill:#C3C3C3;}
	.st35{fill:#DFDFDF;}
	.st36{fill:#E9E9E9;}
	.st37{fill:#172E4C;}
	.st38{fill:#F2CAA9;}
	.st39{fill:#E8925B;}
	.st40{fill:#ED955D;}
	.st41{fill:#97B2FF;}
	.st42{fill:#EAF2F9;}
	.st43{fill:#A7D09E;}
	.st44{fill:#26385E;}
	.st45{fill:#A1AED5;}
	.st46{fill:#304886;}
	.st47{fill:#294E94;}
	.st48{fill:#243B64;}
	.st49{fill:#ECB285;}
	.st50{fill:#D69263;}
	.st51{fill:#F4D1AF;}
	.st52{fill:#316F39;}
	.st53{fill:#358943;}
	.st54{fill:#F3B484;}
	.st55{fill:#FFC5A2;}
	.st56{fill:#1B2840;}
	.st57{fill:#FFAF7D;}
	.st58{fill:#EB9C6D;}
	.st59{fill:#243862;}
	.st60{fill:#B0C2F9;}
	.st61{fill:#ABC2F2;}
	.st62{fill:#1D355D;}
	.st63{fill:#304885;}
	.st64{fill:#27385F;}
	.st65{fill:#EFA775;}
</style>
<g>
	<path class="st0" d="M186.39,1426.27c0,0-250.53-147.85-11.12-514.21c197.26-301.86-95.95-540.7,298.66-676.53
		c325.87-112.17,528.82,53.37,756.67-13.34s370.96-270.47,777.3-190.37s442.41,441.76,389.03,660.34
		c-53.37,218.58,292.51,377.9,150.7,734.12H186.39z"/>
	<g>
		<g>
			
				<rect x="635.69" y="420.45" transform="matrix(0.9763 -0.2162 0.2162 0.9763 -159.8935 225.4949)" class="st1" width="629.69" height="845.98"/>
			
				<rect x="668.02" y="447.99" transform="matrix(0.9763 -0.2162 0.2162 0.9763 -158.8083 225.127)" class="st2" width="562.75" height="780.61"/>
			<path class="st3" d="M756.04,453.27l6.2,27.98c3.42,15.45,18.71,25.21,34.15,21.79l150.15-33.25
				c15.44-3.42,25.18-18.72,21.76-34.17l-6.2-27.98L756.04,453.27z"/>
		</g>
		<g>
			<g>
				<g>
					<path class="st4" d="M836.71,820.71l-99.37,22.01l-22.01-99.37l99.37-22.01L836.71,820.71z M740.99,837L831,817.07
						l-19.93-90.01l-90.01,19.94L740.99,837z"/>
				</g>
				<g>
					<path class="st4" d="M785.07,811.19c-2.08,0.46-4.28-0.03-5.97-1.35l-38.88-30.3c-3.13-2.44-3.69-6.96-1.25-10.09
						c2.44-3.13,6.96-3.69,10.09-1.25l30.84,24.03l27.64-83.58c1.25-3.77,5.31-5.81,9.09-4.57c3.77,1.25,5.82,5.31,4.57,9.08
						l-30.84,93.27c-0.73,2.22-2.5,3.94-4.74,4.62C785.43,811.11,785.25,811.15,785.07,811.19z"/>
				</g>
			</g>
			<g>
				<g>
					<path class="st4" d="M871.13,976.08l-99.37,22.01l-22.01-99.37l99.37-22.01L871.13,976.08z M775.4,992.38l90.01-19.94
						l-19.93-90.01l-90.01,19.93L775.4,992.38z"/>
				</g>
				<g>
					<path class="st4" d="M819.3,965.71c-2.08,0.46-4.28-0.03-5.97-1.35l-38.88-30.3c-3.13-2.44-3.69-6.96-1.25-10.09
						c2.44-3.13,6.96-3.69,10.09-1.25l30.83,24.03l27.64-83.58c1.25-3.77,5.31-5.82,9.09-4.57c3.77,1.25,5.82,5.31,4.57,9.08
						l-30.84,93.27c-0.73,2.22-2.5,3.94-4.74,4.62C819.65,965.63,819.48,965.67,819.3,965.71z"/>
				</g>
			</g>
			<g>
				<g>
					<path class="st4" d="M904.83,1128.24l-99.37,22.01l-22.01-99.37l99.37-22.01L904.83,1128.24z M809.1,1144.53l90.01-19.94
						l-19.94-90.01l-90.01,19.94L809.1,1144.53z"/>
				</g>
				<g>
					<path class="st4" d="M852.67,1116.41c-2.08,0.46-4.28-0.03-5.97-1.35l-38.88-30.3c-3.13-2.44-3.69-6.96-1.25-10.09
						c2.44-3.13,6.96-3.69,10.09-1.25l30.83,24.03l27.64-83.58c1.25-3.77,5.31-5.81,9.08-4.57c3.77,1.25,5.82,5.31,4.57,9.09
						l-30.84,93.27c-0.73,2.22-2.5,3.94-4.74,4.62C853.03,1116.32,852.85,1116.37,852.67,1116.41z"/>
				</g>
			</g>
			<g>
				
					<rect x="885.5" y="707.73" transform="matrix(0.9763 -0.2162 0.2162 0.9763 -130.7706 230.1836)" class="st4" width="202.05" height="9.93"/>
				
					<rect x="895.09" y="751.03" transform="matrix(0.9763 -0.2162 0.2162 0.9763 -139.9072 233.2814)" class="st4" width="202.05" height="9.93"/>
				
					<rect x="1037.76" y="712.86" transform="matrix(0.9763 -0.2162 0.2162 0.9763 -130.0047 247.4734)" class="st4" width="56.28" height="9.93"/>
				
					<rect x="891.2" y="737.71" transform="matrix(0.9763 -0.2162 0.2162 0.9763 -138.03 223.803)" class="st4" width="125.04" height="9.93"/>
			</g>
			<g>
				<g>
					<path class="st4" d="M801.05,659.66l-99.37,22.01l-22.01-99.37l99.37-22.01L801.05,659.66z M705.32,675.95l90.01-19.94
						L775.39,566l-90.01,19.93L705.32,675.95z"/>
				</g>
				<g>
					<path class="st3" d="M749.4,650.14c-2.08,0.46-4.28-0.03-5.97-1.35l-38.88-30.3c-3.13-2.44-3.69-6.96-1.25-10.09
						c2.44-3.13,6.96-3.69,10.09-1.25l30.83,24.03l27.64-83.58c1.25-3.77,5.31-5.81,9.09-4.57c3.77,1.25,5.82,5.31,4.57,9.08
						l-30.84,93.27c-0.73,2.22-2.5,3.94-4.74,4.62C749.76,650.05,749.58,650.1,749.4,650.14z"/>
				</g>
			</g>
			<g>
				
					<rect x="849.83" y="546.68" transform="matrix(0.9763 -0.2162 0.2162 0.9763 -96.7888 218.6596)" class="st4" width="202.05" height="9.93"/>
				
					<rect x="859.42" y="589.98" transform="matrix(0.9763 -0.2162 0.2162 0.9763 -105.9267 221.7606)" class="st4" width="202.05" height="9.93"/>
				
					<rect x="1002.09" y="551.81" transform="matrix(0.9763 -0.2162 0.2162 0.9763 -96.0225 235.9495)" class="st4" width="56.28" height="9.93"/>
				
					<rect x="855.53" y="576.65" transform="matrix(0.9763 -0.2162 0.2162 0.9763 -104.0481 212.2793)" class="st4" width="125.04" height="9.93"/>
			</g>
			<g>
				
					<rect x="817.43" y="1198.22" transform="matrix(0.9763 -0.2162 0.2162 0.9763 -239.9626 210.2561)" class="st4" width="46.9" height="7.05"/>
				
					<rect x="873.82" y="1185.73" transform="matrix(0.9763 -0.2162 0.2162 0.9763 -235.9279 222.1545)" class="st4" width="46.9" height="7.05"/>
				
					<rect x="820.59" y="1211.52" transform="matrix(0.9763 -0.2162 0.2162 0.9763 -242.562 213.2301)" class="st4" width="65.04" height="7.05"/>
			</g>
		</g>
	</g>
	<g>
		<g>
			<polygon class="st5" points="2057.53,552.52 2026.88,595.64 1885.7,794.36 1312.11,794.36 1226.06,643.29 1807.72,643.29 
				1903.74,508.14 1934.38,465.02 			"/>
		</g>
		<g>
			<polygon class="st5" points="2112.69,656.61 2146.64,296.68 1817.95,447.19 			"/>
		</g>
	</g>
	<g>
		<rect x="1401.09" y="421.04" class="st6" width="85.16" height="124.48"/>
		<rect x="1530.83" y="296.56" class="st4" width="85.16" height="248.96"/>
		<rect x="1660.58" y="190.18" class="st3" width="85.16" height="355.34"/>
	</g>
	<g>
		<path class="st7" d="M383.05,1425.8c0,0,0-11.8,1.68-15.73c1.68-3.92,7.85-19.91,7.85-19.91h24.11c0,0,4.49,14.58,4.77,19.34
			c0.28,4.77,0,16.29,0,16.29H383.05z"/>
		<path class="st7" d="M536.14,1425.8c0,0,0-11.8-1.68-15.73c-1.68-3.92-7.85-19.91-7.85-19.91H502.5c0,0-4.49,14.58-4.77,19.34
			c-0.28,4.77,0,16.29,0,16.29H536.14z"/>
		<path class="st8" d="M439.55,763.29c0,0-0.85,26.28-4.21,38.06l-26.63,18.57l100.23,15l-23.9-33.03c0,0-7.22-35.24-3.43-48.28
			C485.38,740.58,439.55,763.29,439.55,763.29z"/>
		<path class="st9" d="M439.4,766.92c0-0.01,7.93,19.08,22.85,18.66c14.93-0.42,18.33-17.3,18.33-17.3L439.4,766.92z"/>
		<path class="st10" d="M430.49,751.48c0,0-4.82-24.07-8.19-31.36c-3.36-7.29-6.17-39.81,31.12-41.49c0,0,14.3,1.68,22.15-3.08
			c0,0,0,4.77-1.96,6.45c0,0,12.9-3.08,22.99,8.13c10.09,11.21-6.73,50.46-5.89,59.72L430.49,751.48z"/>
		<path class="st8" d="M460.54,778.21c-10.82-0.19-30.73-14.59-30.73-32.43v-27.83c0-6.51,4.54-11.84,10.09-11.84h41.27
			c5.55,0,10.09,5.33,10.09,11.84v26.26C491.27,762.91,472.95,778.43,460.54,778.21z"/>
		<path class="st10" d="M429.82,732.8c0,0,0.06-16.72,13.3-19.3c13.25-2.57,42.89,8.15,47.1-4.04c4.21-12.2-57.31-11.99-60.4-4.21
			C426.72,713.04,429.82,732.8,429.82,732.8z"/>
		<path class="st11" d="M386.08,1017.03c0,0,4.22,128.82-2.09,202.31c-6.31,73.5,0.05,175.79,0.05,175.79s20.17,11.12,42.04,0
			c0,0,23.98-141.99,23.83-175.79c-0.16-35.99,26.1-196.7,26.1-196.7L386.08,1017.03z"/>
		<path class="st11" d="M535.27,1395.12c0,0-20.17,11.13-42.04,0c0,0-23.98-141.99-23.83-175.78c0.07-15.2-4.58-52.65-9.97-90.84
			c-7.38-52.24-16.14-105.86-16.14-105.86l93.42-5.84c0,0-7.7,129.04-1.4,202.53C541.63,1292.84,535.27,1395.12,535.27,1395.12z"/>
		<path class="st7" d="M469.4,1219.34c0.07-15.2-4.58-52.65-9.97-90.84c5.59-22.81,19.22-44.76,19.22-44.76
			C495.9,1132.1,469.4,1219.34,469.4,1219.34z"/>
		<path class="st2" d="M618.27,923.76c-32.54-79.49-90.84-120.47-133.24-121.86c-9.3,12.36-15.98,15.22-24.48,18.59
			c-13.68-1.89-25.22-18.75-25.22-19.13c-14.92,1.53-82.17,9.08-127.9,119.82c-3.56,8.63-4.25,29.17,11.98,49.39
			c11.55,14.38,29.64,33.14,57.7,55.18c0,0,2.65-5.66,5.06-14.82c0,0-16.68-32.46-26.72-54.43c-4.88-10.7-10.58-22.94,26.06-47.91
			c0.91,27.88,5.39,60.92,1.82,90.77c-4.77,39.81,3.31,39.1,3.31,39.1s10.87,2.13,26.02,4.14c13.71,1.83,30.93,3.58,46.77,3.58
			c36.33,0,76.16-7.71,76.16-7.71c4.35,0.05,6.07-9.82,6.41-24.45c2.14,7.33,4.21,11.74,4.21,11.74
			c28.06-22.04,46.15-40.8,57.7-55.18C620.14,950.34,621.81,932.4,618.27,923.76z M567.87,956.49
			c-8.17,19.11-22.18,45.55-25.8,52.63c0.09-23.84-2.72-57.5-3.96-82.44c-0.41-8.22-0.84-15.85-1.29-22.96
			C559.06,921.63,579.48,929.34,567.87,956.49z"/>
		<path class="st11" d="M436.73,794.94c0,0-6.83,2.21-8.09,7.26c0,0,20.23,18.01,31.91,18.29L436.73,794.94z"/>
		<path class="st11" d="M460.55,820.49l23.04-26.47c0,0,7.15,3.14,7.08,8.29C490.67,802.31,470.45,821.19,460.55,820.49z"/>
		<path class="st11" d="M456.39,818.54c0,0-17.59,151.81-11.46,170.32c3.15,9.53,7.37,17.77,10.73,23.52
			c2.41,4.14,8.4,4.13,10.79-0.02c4.67-8.11,10.77-19.84,10.77-25.8c0-9.65-13.34-168.15-13.34-168.15L456.39,818.54z"/>
		<path class="st11" d="M451.79,811.1c0,0,10.63-1.07,17.1-0.41c1.28,0.13,2,1.54,1.37,2.66c-1.81,3.26-5.51,8.92-9.38,8.92
			C455.44,822.27,446.97,811.47,451.79,811.1z"/>
		<path class="st2" d="M451.93,760.28c0,0,3.37,4.56,9.25,4.39c5.88-0.16,8.65-4.39,8.65-4.39S459.9,758.65,451.93,760.28z"/>
		<path class="st8" d="M378.85,1012.53c0,0,13.02-11.74,21.31-6.17c8.76,5.89,12.68,14.59,7.75,15.19c-4.8,0.59-19.8-1.17-21.2,1.07
			c-1.4,2.24-7.68,6.53-9.59,3.12C375.2,1022.34,378.85,1012.53,378.85,1012.53z"/>
		<path class="st8" d="M382.18,1010.93c-2.41,9.16-5.06,14.82-5.06,14.82c-28.06-22.04-46.15-40.8-57.7-55.18
			c8.71-0.65,21.41-3.76,36.04-14.07C365.5,978.47,382.18,1010.93,382.18,1010.93z"/>
		<path class="st8" d="M544.47,1012.53c0,0-11.11-10.28-20.84-3.4c-5.43,3.84-9.26,13.99-4.49,13.15
			c4.77-0.84,16.09-1.89,17.49,0.35c1.4,2.24,6.53,5.55,9.59,3.12C549.94,1022.79,544.47,1012.53,544.47,1012.53z"/>
		<path class="st8" d="M541.14,1010.93c2.41,9.16,5.06,14.82,5.06,14.82c28.06-22.04,46.15-40.8,57.7-55.18
			c-8.7-0.65-21.41-3.76-36.04-14.07C557.82,978.47,541.14,1010.93,541.14,1010.93z"/>
	</g>
	<g>
		<g>
			<path class="st11" d="M1598.36,1251.96l-18.98,9.9c-2.3,1.2-3.19,4.04-1.99,6.34l78.95,153.5c2.3,4.92,17.22,7.38,13.45-3.87
				l-65.08-163.87C1603.5,1251.65,1600.66,1250.76,1598.36,1251.96z"/>
		</g>
		<g>
			
				<ellipse transform="matrix(0.7071 -0.7071 0.7071 0.7071 -281.3195 1287.2715)" class="st11" cx="1413.21" cy="983.22" rx="406.37" ry="406.37"/>
			
				<ellipse transform="matrix(0.7071 -0.7071 0.7071 0.7071 -281.3199 1287.2716)" class="st2" cx="1413.21" cy="983.22" rx="321.07" ry="321.07"/>
			
				<ellipse transform="matrix(0.7071 -0.7071 0.7071 0.7071 -281.3195 1287.2715)" class="st11" cx="1413.21" cy="983.22" rx="249.98" ry="249.98"/>
			
				<ellipse transform="matrix(0.7071 -0.7071 0.7071 0.7071 -281.3199 1287.2716)" class="st2" cx="1413.21" cy="983.22" rx="174.16" ry="174.16"/>
			<path class="st11" d="M1517.47,983.82c0.33-57.58-46.07-104.53-103.65-104.86c-57.58-0.33-104.53,46.07-104.86,103.65
				c-0.33,57.58,46.07,104.53,103.65,104.86C1470.19,1087.81,1517.14,1041.4,1517.47,983.82z"/>
		</g>
	</g>
	<g>
		<path class="st12" d="M1060.67,1121.45c-0.49,0.7-2.59,4.04,0.1,7.81c0.17,0.24,0.29,0.43,0.36,0.59
			c32.19,19.34,128.75,97.59,128.75,152.74v114.25H898.46v-114.3c0-55.5,97.87-134.99,129.36-153.29c0.01,0,0.01,0,0.01,0
			c1.01-1.41,1.34-2.77,1.34-3.94c0-2.35-1.34-4-1.34-4c-31.56-18.7-129.36-97.61-129.36-153.11V853.95h291.41v114.3
			C1189.88,1023.66,1092.32,1102.99,1060.67,1121.45z"/>
		<path class="st13" d="M1152.12,929.9c-17.67,0.27-48.04,3.45-97.17,15.85c-33.64,8.49-91.64,2.09-122.32-2.3
			c-10.76-1.54-20.39,6.8-20.39,17.67v13.17c0,36.28,97.63,114.88,123.44,135.03c3.91,3.05,6.2,7.74,6.2,12.7v201.77
			c0,6.89-3.4,13.3-9.04,17.26c-20.3,14.21-54.52,55.79-54.52,55.79h129.39c0,0-34.7-40.13-54.17-55.03
			c-4.45-3.4-7.07-8.66-7.07-14.26v-205.59c0-4.93,2.24-9.6,6.09-12.68c25.31-20.27,120.8-99.16,120.8-135.41v-23.04
			C1173.36,939.15,1163.8,929.73,1152.12,929.9z"/>
		<path class="st11" d="M1191.33,865.23H894.14c-8.13,0-14.71-6.59-14.71-14.71V835.8h327.16v14.17
			C1206.59,858.4,1199.76,865.23,1191.33,865.23z"/>
		<path class="st11" d="M894.69,1396.84h297.19c8.13,0,14.71,6.59,14.71,14.71v14.71H879.43v-14.17
			C879.43,1403.67,886.26,1396.84,894.69,1396.84z"/>
	</g>
	
		<ellipse transform="matrix(0.5671 -0.8237 0.8237 0.5671 -196.7311 1590.5262)" class="st2" cx="1414.64" cy="982.41" rx="33.91" ry="33.91"/>
	<g>
		<polygon class="st14" points="1756.54,913.82 1782.53,880.18 1867.24,861.52 1857.03,891.67 1877.54,914.89 1795.11,929.72 		"/>
		<g>
			
				<rect x="1434.52" y="933.21" transform="matrix(0.98 -0.1988 0.1988 0.98 -154.2519 342.7283)" class="st15" width="390.34" height="12.69"/>
		</g>
		<polygon class="st11" points="1407.87,985.95 1437.15,972.12 1439.67,984.55 		"/>
	</g>
	<path class="st16" d="M2672.94,1433.08H29.63c-1.68,0-3.05-1.37-3.05-3.05v-1.17c0-1.68,1.37-3.05,3.05-3.05h2643.31
		c1.68,0,3.05,1.37,3.05,3.05v1.17C2675.99,1431.71,2674.62,1433.08,2672.94,1433.08z"/>
</g>
<path class="st17" d="M3371.14,1617.99c0,0-406.19-346.83-97.41-675.55c328.75-349.98,37.49-799.27,483.75-980.55
	c482.48-195.99,606.61,149.2,808.6,96.2c402.87-105.72,913.87-53.66,828.85,459.86c-106.73,644.62,331.16,562.4,71.08,1102.2
	L3371.14,1617.99z"/>
<g>
	<g>
		<rect x="3967.75" y="397.49" class="st18" width="891.29" height="1218.86"/>
		<rect x="4005.73" y="430.38" class="st19" width="815.34" height="1152.38"/>
		<path class="st20" d="M4244.37,397.49v41.52c0,22.93,18.57,41.52,41.48,41.52h222.81c22.91,0,41.48-18.59,41.48-41.52v-41.52
			H4244.37z"/>
	</g>
	<g>
		<rect x="4100.38" y="1419.64" class="st18" width="100.88" height="10.21"/>
		<rect x="4224.62" y="1419.64" class="st18" width="100.88" height="10.21"/>
		<rect x="4100.38" y="1442.3" class="st18" width="139.9" height="10.21"/>
	</g>
	<g>
		<rect x="4187.41" y="669.43" class="st21" width="438.04" height="5.65"/>
	</g>
	<g>
		<g>
			<g>
				<path class="st18" d="M4739.51,858.61h-147.46V711.15h147.46V858.61z M4599,851.66h133.57V718.09H4599V851.66z"/>
			</g>
			<g>
				<path class="st22" d="M4669.45,828.97c-3.09,0-6.04-1.38-8.03-3.78l-45.5-55.05c-3.67-4.44-3.04-11,1.39-14.67
					c4.43-3.67,11-3.04,14.67,1.39l36.09,43.66l65.28-109.57c2.95-4.94,9.34-6.56,14.28-3.62c4.94,2.95,6.56,9.34,3.62,14.28
					l-72.85,122.27c-1.73,2.91-4.77,4.79-8.15,5.05C4669.98,828.96,4669.71,828.97,4669.45,828.97z"/>
			</g>
		</g>
		<g>
			<g>
				<g>
					<rect x="4150.66" y="732.91" class="st18" width="327.59" height="14.39"/>
				</g>
				<g>
					<rect x="4150.66" y="797.17" class="st18" width="301.91" height="14.39"/>
				</g>
				<g>
					<rect x="4388.95" y="765.04" class="st18" width="89.3" height="14.39"/>
					<rect x="4150.66" y="765.04" class="st18" width="213.55" height="14.39"/>
				</g>
			</g>
			<g>
				<g>
					<path class="st18" d="M4077.33,745.77l-14.66,4.07l-3.02-11.63l21.87-6.98h10v82h-14.19V745.77z"/>
				</g>
				<path class="st18" d="M4100.89,808.06c0-2.86,2.32-5.18,5.18-5.18s5.18,2.32,5.18,5.18c0,2.86-2.32,5.18-5.18,5.18
					S4100.89,810.92,4100.89,808.06z"/>
			</g>
		</g>
	</g>
	<g>
		<g>
			<g>
				<path class="st18" d="M4740.66,1078.89H4593.2V931.43h147.46V1078.89z M4600.14,1071.95h133.57V938.37h-133.57V1071.95z"/>
			</g>
			<g>
				<path class="st22" d="M4670.59,1049.25c-3.09,0-6.04-1.38-8.03-3.78l-45.5-55.05c-3.67-4.44-3.04-11,1.39-14.67
					c4.43-3.67,11-3.04,14.67,1.39l36.09,43.66l65.28-109.57c2.95-4.94,9.34-6.56,14.28-3.62c4.94,2.95,6.56,9.34,3.62,14.28
					l-72.85,122.27c-1.73,2.91-4.77,4.79-8.15,5.05C4671.12,1049.24,4670.85,1049.25,4670.59,1049.25z"/>
			</g>
		</g>
		<g>
			<g>
				<g>
					<path class="st18" d="M4059.02,1022.32l27.84-23.68c11.09-9.36,15.13-14.55,15.13-21.83c0-7.97-5.66-12.59-13.05-12.59
						c-7.39,0-12.47,4.04-18.71,12.13l-10.05-7.85c7.74-10.86,15.36-16.98,29.8-16.98c15.82,0,26.68,9.7,26.68,24.37
						c0,12.71-6.81,19.52-21.02,31.3l-16.63,13.86h38.46v12.47h-58.44V1022.32z"/>
				</g>
				<path class="st18" d="M4127.08,1028.38c0-2.84,2.3-5.14,5.14-5.14c2.84,0,5.14,2.3,5.14,5.14c0,2.84-2.3,5.14-5.14,5.14
					C4129.38,1033.52,4127.08,1031.22,4127.08,1028.38z"/>
			</g>
			<g>
				<g>
					<g>
						<rect x="4153.37" y="953.19" class="st18" width="344.24" height="14.39"/>
					</g>
					<g>
						<rect x="4153.37" y="1017.45" class="st18" width="317.25" height="14.39"/>
					</g>
					<g>
						<rect x="4403.77" y="985.32" class="st18" width="93.84" height="14.39"/>
						<rect x="4153.37" y="985.32" class="st18" width="224.4" height="14.39"/>
					</g>
				</g>
			</g>
		</g>
	</g>
	<g>
		<g>
			<g>
				<path class="st18" d="M4740.66,1300.8H4593.2v-147.46h147.46V1300.8z M4600.14,1293.85h133.57v-133.57h-133.57V1293.85z"/>
			</g>
			<g>
				<path class="st22" d="M4670.59,1271.16c-3.09,0-6.04-1.38-8.03-3.78l-45.5-55.05c-3.67-4.43-3.04-11,1.39-14.67
					c4.43-3.67,11-3.04,14.67,1.39l36.09,43.66l65.28-109.57c2.95-4.94,9.34-6.56,14.28-3.62c4.94,2.94,6.56,9.34,3.62,14.28
					l-72.85,122.27c-1.73,2.91-4.77,4.8-8.15,5.06C4671.12,1271.15,4670.85,1271.16,4670.59,1271.16z"/>
			</g>
		</g>
		<g>
			<g>
				<g>
					<rect x="4153.37" y="1175.1" class="st18" width="344.24" height="14.39"/>
				</g>
				<g>
					<rect x="4153.37" y="1239.36" class="st18" width="317.25" height="14.39"/>
				</g>
				<g>
					<rect x="4403.77" y="1207.23" class="st18" width="93.84" height="14.39"/>
					<rect x="4153.37" y="1207.23" class="st18" width="224.4" height="14.39"/>
				</g>
			</g>
		</g>
		<g>
			<g>
				<path class="st18" d="M4057.99,1240.76l9.72-9.04c5.65,6.67,11.98,10.4,20.8,10.4c7.8,0,13.68-4.75,13.68-12.21
					c0-7.8-7.12-12.21-18.2-12.21h-6.44l-2.26-8.7l21.36-22.72h-34.25v-12.09h52.33v10.4l-22.04,22.61
					c12.55,1.81,23.28,8.25,23.28,22.49c0,14.58-11.3,24.98-27.69,24.98C4074.49,1254.66,4064.66,1248.9,4057.99,1240.76z"/>
			</g>
			<path class="st18" d="M4119.96,1249.63c0-2.78,2.25-5.03,5.03-5.03c2.78,0,5.03,2.25,5.03,5.03s-2.25,5.03-5.03,5.03
				C4122.21,1254.66,4119.96,1252.41,4119.96,1249.63z"/>
		</g>
	</g>
	<g>
		<g>
			<path class="st18" d="M4473.42,1452.25c-29.58,0-55.35-21-61.27-49.94c-0.47-2.32,1.02-4.58,3.34-5.05
				c2.31-0.47,4.58,1.02,5.05,3.34c5.11,24.97,27.35,43.09,52.88,43.09c25.28,0,47.47-17.91,52.77-42.58
				c0.5-2.31,2.78-3.78,5.09-3.29c2.31,0.5,3.79,2.77,3.29,5.09C4528.42,1431.5,4502.71,1452.25,4473.42,1452.25z"/>
		</g>
		<g>
			<path class="st18" d="M4416.23,1382.85c-0.27,0-0.54-0.02-0.82-0.08c-2.32-0.45-3.84-2.7-3.39-5.02
				c5.67-29.31,31.5-50.59,61.4-50.59c28.73,0,53.68,19.44,60.66,47.27c0.58,2.29-0.82,4.62-3.11,5.2c-2.29,0.57-4.62-0.82-5.2-3.11
				c-6.03-24.02-27.56-40.79-52.35-40.79c-25.81,0-48.09,18.36-52.99,43.65C4420.03,1381.43,4418.24,1382.85,4416.23,1382.85z"/>
		</g>
		<g>
			<path class="st18" d="M4473.42,1478.62c-49.02,0-88.91-39.88-88.91-88.91c0-49.02,39.88-88.91,88.91-88.91
				s88.91,39.88,88.91,88.91C4562.33,1438.73,4522.44,1478.62,4473.42,1478.62z M4473.42,1312.98c-42.31,0-76.73,34.42-76.73,76.73
				c0,42.31,34.42,76.73,76.73,76.73c42.31,0,76.73-34.42,76.73-76.73C4550.15,1347.4,4515.73,1312.98,4473.42,1312.98z"/>
		</g>
		<g>
			<rect x="4455.81" y="1378.57" class="st18" width="35.21" height="5.64"/>
			<rect x="4455.81" y="1401.64" class="st18" width="35.21" height="5.64"/>
			<rect x="4447.5" y="1389.71" class="st18" width="51.83" height="5.64"/>
		</g>
	</g>
</g>
<g>
	<path class="st23" d="M3896.61,1007.38c0,0,2.77-6.23,4.56-9.18c1.79-2.95,9.46-11.59,10.76-9.63c1.3,1.96,6.52,15.12,3.75,18.81
		c-2.77,3.69,0.18,10.1-13.6,13.99L3896.61,1007.38z"/>
	<path class="st18" d="M3743.43,968.05c0,0,70.56,58.9,98.08,53.45c21.51-4.26,54.53-15.59,54.53-15.59l6.6,16.89
		c0,0-29.61,40.17-60.48,40.43c-48.26,0.41-83.91-20.89-83.91-20.89L3743.43,968.05z"/>
	<path class="st24" d="M3619.68,1589.33c0,0,2.05,33.04,8.44,33.52c0.85,0.06,32.42,0.06,32.42,0.06l40.31-0.23
		c0,0-0.26-9.71-12.05-11.76c-11.78-2.05-31.5-10.33-38.64-25.9C3642.66,1568.63,3619.68,1589.33,3619.68,1589.33z"/>
	<path class="st22" d="M3617.36,1591.62c0,0,12.25,4.1,21.82,4.1c10.67,0,20.37-2.91,20.37-2.91s2.31-22.31,15-71.46
		c6.66-25.76,16.16-58.89,29.68-100.05c37.39-113.76,48.75-180.31,49.79-186.61c0.06-0.33,0.08-0.5,0.08-0.5l-0.12-0.05
		l-114.94-50.47c0,0,14.21,156.78-3.92,216.96c-2.54,8.41-4.71,18.21-6.58,28.83C3617.09,1494.84,3617.36,1591.62,3617.36,1591.62z"
		/>
	<path class="st25" d="M3674.54,1521.36c6.66-25.76,16.16-58.89,29.68-100.05c37.39-113.76,48.75-180.31,49.79-186.61
		c-0.01-0.19-0.02-0.36-0.04-0.55l-114.94-50.47c0,0,14.21,156.78-3.92,216.96C3632.58,1409.06,3674.54,1521.36,3674.54,1521.36z"/>
	<path class="st24" d="M3709.45,1589.33c0,0,2.05,33.04,8.44,33.52c0.85,0.06,32.42,0.06,32.42,0.06l40.31-0.23
		c0,0-0.26-9.71-12.04-11.76c-11.78-2.05-31.5-10.33-38.64-25.9C3732.43,1568.63,3709.45,1589.33,3709.45,1589.33z"/>
	<path class="st22" d="M3774.62,1187.38c0,0,1.49,101.6-16.09,226.34c-17.58,124.74-11.62,177.7-11.62,177.7s-12.08,3.91-16.95,4.31
		c-12.42,1.01-25.15-2.91-25.15-2.91s-25.16-124.79-17.95-187.23s-34.45-214.25-34.45-214.25L3774.62,1187.38z"/>
	<path class="st23" d="M3693.12,949.62l22.44,14.71l20.44-5.78c3.74-5.33,4.72-15.6,4.78-24.5c0.05-8.83-0.8-16.32-0.8-16.32
		l-30.27-13.36l-11.29-4.98c0.03,0.18,0.88,9.27,1,10.6C3701.51,933.59,3693.12,949.62,3693.12,949.62z"/>
	<path class="st26" d="M3775.13,1215.62c-27.93,26.96-133.61,22.43-140.13-7.28c-6.5-29.71,7.1-252.89,54.81-266.91
		c9.9-2.91,62.82,14.2,62.82,14.2s8.3,21.72,13.75,49.38c1.06,5.38,4.14,62.42,6.45,115.77c1.08,24.95,1.99,49.11,2.45,66.8
		C3775.71,1204.15,3775.73,1215.03,3775.13,1215.62z"/>
	<path class="st27" d="M3701.67,910.42c6.14,10.38,27.69,19.47,39.1,23.63c0.05-8.83-0.8-16.32-0.8-16.32l-30.27-13.36
		C3703.01,904.29,3698.93,905.78,3701.67,910.42z"/>
	<path class="st23" d="M3751.39,915.89c0,0-48.77,15.21-57.78-15.3c-9.01-30.52-21.37-49.11,9.39-60.11
		c30.76-11,40.27-1.15,45.76,8.3C3754.24,858.23,3763.84,911.15,3751.39,915.89z"/>
	<path class="st28" d="M3746.84,845.84c0,0-3.11,35.51-10.46,33.97c-7.34-1.54-15.43-4.84-14.35,5.87
		c1.08,10.71-7.14,29.06-17.73,29.01c-22.71-0.09-47.39-58.38-41.17-69.43C3681.07,813.37,3772.77,806.94,3746.84,845.84z"/>
	<path class="st18" d="M3739.66,942.2c-0.63-0.26-36.31-16.27-40.48-14.89c-4.17,1.38-9.37,14.12-9.37,14.12l62.82,14.2
		C3752.64,955.64,3747.69,945.58,3739.66,942.2z"/>
	<g>
		<path class="st29" d="M3961.79,1115.05l-200,188.3c-3.92,3.69-8.86,4.87-10.99,2.61l-6.75-7.17c-2.12-2.25-0.65-7.12,3.27-10.81
			l200-188.31c3.92-3.69,8.86-4.87,10.99-2.61l6.75,7.17C3967.18,1106.49,3965.71,1111.36,3961.79,1115.05z"/>
		<path class="st30" d="M3849.55,1220.72l-87.77,82.63c-3.92,3.69-8.86,4.87-10.99,2.61l-6.75-7.17c-2.12-2.25-0.65-7.12,3.27-10.81
			l87.77-82.63L3849.55,1220.72z"/>
		<path class="st29" d="M3915.82,1043.95c7.68,25.3,21.9,49,42.54,68.43c63.06,59.32,162.27,56.29,221.59-6.76
			c58.54-62.23,56.36-159.65-4.31-219.21c-0.8-0.8-1.63-1.59-2.46-2.37c-63.05-59.32-162.25-56.31-221.57,6.75
			C3911.71,933.2,3900.01,991.97,3915.82,1043.95z M3960.63,899.27c34.52-36.7,83.71-51.32,129.9-43.32
			c26.92,4.66,52.81,16.99,74.19,37.1c58.08,54.64,60.86,146.01,6.22,204.09c-20.12,21.38-45.2,35.26-71.77,41.55
			c-45.63,10.8-95.62-0.79-132.32-35.32C3908.77,1048.73,3905.98,957.36,3960.63,899.27z"/>
		<g class="st31">
			<path class="st32" d="M4170.94,1097.14c-20.12,21.38-45.2,35.26-71.78,41.56c-45.62,10.79-95.62-0.8-132.32-35.33
				c-58.08-54.64-60.86-146.01-6.22-204.1c34.52-36.7,83.72-51.32,129.9-43.32c26.92,4.66,52.81,16.99,74.19,37.1
				C4222.79,947.69,4225.58,1039.06,4170.94,1097.14z"/>
		</g>
	</g>
	<path class="st18" d="M3775.29,1187.58c-110.2-78.53-101.04-183.32-101.04-183.32c40.28,22.72,80.25,72.95,98.59,116.52
		C3773.91,1145.74,3774.82,1169.89,3775.29,1187.58z"/>
	<g>
		<path class="st23" d="M3884.06,1151.82c7.77-1.79,12.99-7.67,14.07-8.7c0,0,3.31,0.23-0.54,7.3c-0.32,0.59-1.04,2.11-1.58,3.19
			c-0.22,0.44,0.09,0.95,0.58,0.99c4.48,0.34,8.99-1.43,17.63,0.37c1.19,0.25,1.54,3.1,1.49,4.32c-0.08,2.06,0.07,4.37-2.32,7.53
			c-1.39,1.84-5.28,3.81-13.93,7.29c-3.29,1.33-12.72,0.33-21.55-2.71l-7.06-3.27l2.19-13.11l1.77,0.37
			C3877.64,1155.98,3881.12,1152.54,3884.06,1151.82z"/>
		<path class="st26" d="M3708.45,955.64c0,0-99.02,18.85,29.13,162.25c20.5,22.93,131.23,52.79,131.23,52.79s11.23-9.56,5.57-17.29
			c0,0-76.24-55.37-93.02-64.17c-7.55-3.96-29.29-88.37-41.59-108.7C3727.47,960.19,3708.45,955.64,3708.45,955.64z"/>
	</g>
	<path class="st23" d="M3899.3,1009.12c0,0,3.24-6.19,3.87-9.46c0.63-3.26,4.71-12.79,6.39-14.46c0.67-0.67,2.89,0.2,3.15,3.08
		c0.11,1.26-0.5,3.54-1.59,6.26c-1.77,4.43-1.48,10.44-2.1,12.44C3907.49,1011.98,3899.3,1009.12,3899.3,1009.12z"/>
</g>
<g>
	<path class="st23" d="M-1878.07,841.62c0,0,2.14-4.82,3.53-7.1c1.39-2.28,7.32-8.97,8.33-7.46c1.01,1.51,5.05,11.71,2.9,14.56
		c-2.15,2.85,0.14,7.82-10.53,10.83L-1878.07,841.62z"/>
	<path class="st18" d="M-1996.64,811.18c0,0,54.62,45.59,75.92,41.37c16.65-3.3,42.21-12.06,42.21-12.06l5.11,13.07
		c0,0-22.92,31.09-46.82,31.3c-37.35,0.32-64.95-16.17-64.95-16.17L-1996.64,811.18z"/>
	<path class="st24" d="M-2092.43,1292.08c0,0,1.59,25.58,6.53,25.94c0.66,0.05,25.1,0.05,25.1,0.05l31.2-0.18
		c0,0-0.2-7.52-9.32-9.11c-9.12-1.59-24.38-8-29.91-20.05C-2074.64,1276.05-2092.43,1292.08-2092.43,1292.08z"/>
	<path class="st22" d="M-2094.23,1293.86c0,0,9.48,3.17,16.89,3.17c8.26,0,15.77-2.25,15.77-2.25s1.79-17.27,11.61-55.31
		c5.15-19.94,12.51-45.58,22.97-77.44c28.94-88.05,37.74-139.57,38.54-144.44c0.04-0.26,0.06-0.38,0.06-0.38l-0.09-0.04
		l-88.97-39.06c0,0,11,121.36-3.03,167.94c-1.97,6.51-3.65,14.1-5.09,22.32C-2094.43,1218.94-2094.23,1293.86-2094.23,1293.86z"/>
	<path class="st25" d="M-2049.96,1239.47c5.15-19.94,12.51-45.58,22.97-77.44c28.94-88.05,37.74-139.57,38.54-144.44
		c-0.01-0.15-0.02-0.28-0.03-0.43l-88.97-39.06c0,0,11,121.36-3.03,167.94C-2082.45,1152.54-2049.96,1239.47-2049.96,1239.47z"/>
	<path class="st24" d="M-2022.94,1292.08c0,0,1.59,25.58,6.53,25.94c0.66,0.05,25.1,0.05,25.1,0.05l31.2-0.18
		c0,0-0.2-7.52-9.32-9.11c-9.12-1.59-24.38-8-29.91-20.05C-2005.15,1276.05-2022.94,1292.08-2022.94,1292.08z"/>
	<path class="st22" d="M-1972.5,980.95c0,0,1.16,78.64-12.45,175.2c-13.61,96.56-8.99,137.55-8.99,137.55s-9.35,3.03-13.12,3.34
		c-9.61,0.78-19.47-2.25-19.47-2.25s-19.48-96.59-13.89-144.92c5.58-48.33-26.67-165.84-26.67-165.84L-1972.5,980.95z"/>
	<path class="st23" d="M-2035.58,796.91l17.37,11.39l15.82-4.47c2.89-4.12,3.66-12.08,3.7-18.97c0.04-6.84-0.62-12.63-0.62-12.63
		l-23.43-10.34l-8.74-3.85c0.03,0.14,0.68,7.18,0.77,8.21C-2029.09,784.51-2035.58,796.91-2035.58,796.91z"/>
	<path class="st26" d="M-1972.1,1002.81c-21.62,20.87-103.42,17.36-108.47-5.63c-5.03-22.99,5.5-195.75,42.42-206.6
		c7.66-2.25,48.63,10.99,48.63,10.99s6.43,16.82,10.64,38.22c0.82,4.17,3.21,48.31,4.99,89.61c0.83,19.32,1.54,38.01,1.9,51.7
		C-1971.65,993.93-1971.63,1002.35-1972.1,1002.81z"/>
	<path class="st27" d="M-2028.97,766.57c4.75,8.04,21.43,15.07,30.27,18.29c0.04-6.84-0.62-12.63-0.62-12.63l-23.43-10.34
		C-2027.93,761.82-2031.08,762.98-2028.97,766.57z"/>
	<path class="st23" d="M-1990.48,770.81c0,0-37.75,11.78-44.72-11.85c-6.97-23.62-16.54-38.01,7.27-46.53
		c23.81-8.52,31.17-0.89,35.42,6.43C-1988.27,726.17-1980.84,767.13-1990.48,770.81z"/>
	<path class="st28" d="M-1994,716.58c0,0-2.41,27.49-8.09,26.3c-5.68-1.19-11.94-3.75-11.11,4.54c0.83,8.29-5.53,22.49-13.73,22.46
		c-17.58-0.07-36.68-45.19-31.87-53.74C-2044.91,691.45-1973.93,686.47-1994,716.58z"/>
	<path class="st18" d="M-1999.55,791.17c-0.49-0.2-28.1-12.59-31.33-11.53c-3.23,1.07-7.26,10.93-7.26,10.93l48.63,10.99
		C-1989.51,801.57-1993.34,793.79-1999.55,791.17z"/>
	<g>
		<path class="st29" d="M-1827.62,924.96l-154.81,145.76c-3.03,2.86-6.86,3.77-8.5,2.02l-5.23-5.55c-1.64-1.74-0.5-5.51,2.53-8.37
			l154.81-145.76c3.03-2.86,6.86-3.77,8.5-2.02l5.23,5.55C-1823.44,918.34-1824.58,922.1-1827.62,924.96z"/>
		<path class="st30" d="M-1914.5,1006.76l-67.94,63.96c-3.03,2.86-6.86,3.77-8.5,2.02l-5.23-5.55c-1.64-1.74-0.5-5.51,2.53-8.37
			l67.94-63.96L-1914.5,1006.76z"/>
		<path class="st29" d="M-1863.2,869.93c5.94,19.59,16.95,37.93,32.93,52.97c48.81,45.92,125.61,43.57,171.52-5.23
			c45.31-48.17,43.63-123.57-3.33-169.68c-0.62-0.62-1.26-1.23-1.9-1.84c-48.8-45.92-125.59-43.59-171.51,5.22
			C-1866.38,784.2-1875.44,829.69-1863.2,869.93z M-1828.52,757.94c26.72-28.41,64.8-39.73,100.55-33.53
			c20.84,3.61,40.87,13.15,57.42,28.72c44.96,42.29,47.11,113.02,4.81,157.98c-15.57,16.55-34.99,27.29-55.55,32.17
			c-35.32,8.36-74.02-0.61-102.42-27.34C-1868.66,873.63-1870.82,802.9-1828.52,757.94z"/>
		<g class="st31">
			<path class="st32" d="M-1665.73,911.1c-15.57,16.55-34.99,27.29-55.56,32.17c-35.31,8.35-74.02-0.62-102.42-27.35
				c-44.95-42.29-47.11-113.02-4.81-157.98c26.72-28.4,64.8-39.72,100.55-33.53c20.84,3.6,40.88,13.15,57.42,28.71
				C-1625.59,795.41-1623.43,866.14-1665.73,911.1z"/>
		</g>
	</g>
	<path class="st18" d="M-1971.98,981.11c-85.3-60.79-78.21-141.9-78.21-141.9c31.18,17.58,62.12,56.47,76.31,90.19
		C-1973.04,948.72-1972.34,967.42-1971.98,981.11z"/>
	<g>
		<path class="st23" d="M-1887.79,953.42c6.02-1.39,10.06-5.94,10.89-6.73c0,0,2.57,0.18-0.42,5.65c-0.25,0.46-0.8,1.63-1.22,2.47
			c-0.17,0.34,0.07,0.73,0.45,0.76c3.47,0.26,6.96-1.11,13.65,0.29c0.92,0.19,1.19,2.4,1.16,3.34c-0.06,1.59,0.05,3.38-1.8,5.83
			c-1.08,1.42-4.08,2.95-10.78,5.65c-2.55,1.03-9.84,0.25-16.68-2.1l-5.46-2.53l1.69-10.15l1.37,0.29
			C-1892.76,956.64-1890.06,953.98-1887.79,953.42z"/>
		<path class="st26" d="M-2023.72,801.57c0,0-76.65,14.59,22.55,125.59c15.86,17.75,101.58,40.87,101.58,40.87s8.69-7.4,4.31-13.39
			c0,0-59.02-42.86-72-49.67c-5.84-3.07-22.67-68.4-32.19-84.14C-2008.99,805.09-2023.72,801.57-2023.72,801.57z"/>
	</g>
	<path class="st23" d="M-1875.99,842.97c0,0,2.51-4.79,3-7.32c0.49-2.53,3.65-9.9,4.95-11.2c0.52-0.52,2.24,0.15,2.44,2.39
		c0.09,0.97-0.39,2.74-1.23,4.85c-1.37,3.43-1.15,8.08-1.62,9.63C-1869.65,845.18-1875.99,842.97-1875.99,842.97z"/>
</g>
<g>
	<path class="st20" d="M4226.34,1576.15c0,1.68,0.1,3.35,0.31,4.98c0.63,5.22,2.25,10.13,4.65,14.56c1.88,3.45,4.25,6.59,7,9.35
		c7.4,7.39,17.6,11.96,28.89,11.96h574.53c22.56,0,40.86-18.29,40.86-40.85c0-11.29-4.57-21.5-11.97-28.89
		c-7.39-7.4-17.6-11.97-28.89-11.97h-574.53C4244.63,1535.29,4226.34,1553.58,4226.34,1576.15z"/>
	<path class="st20" d="M4270.16,1527.89h196.99c3.45,0,6.27-2.82,6.27-6.27l0,0c0-3.45-2.82-6.27-6.27-6.27h-196.99
		c-3.45,0-6.27,2.82-6.27,6.27l0,0C4263.89,1525.07,4266.71,1527.89,4270.16,1527.89z"/>
	
		<rect x="4281.04" y="1527.89" transform="matrix(-1 -1.224647e-16 1.224647e-16 -1 8583.4365 3063.1846)" class="st33" width="21.35" height="7.4"/>
	<path class="st33" d="M4231.3,1595.69c1.88,3.45,4.25,6.59,7,9.35c7.4,7.39,17.6,11.96,28.89,11.96h121.7v-21.31H4231.3z"/>
	<path class="st22" d="M4958.63,1564.17v23.93c0,2.62-0.35,5.17-1.01,7.58c-3.32,12.28-14.54,21.31-27.87,21.31h-598.47
		c-13.33,0-24.55-9.03-27.87-21.31c-0.65-2.41-1.01-4.96-1.01-7.58v-23.93c0-15.96,12.92-28.89,28.88-28.89h598.47
		C4945.71,1535.29,4958.63,1548.22,4958.63,1564.17z"/>
	<path class="st25" d="M4957.62,1595.69c-3.32,12.28-14.54,21.31-27.87,21.31h-598.47c-13.33,0-24.55-9.03-27.87-21.31H4957.62z"/>
	<g>
		<path class="st34" d="M4899.19,1576.29c0,12.69,4.61,24.03,11.88,31.54c0.17,0.17,0.32,0.33,0.49,0.5
			c5.62,5.6,12.75,8.95,20.5,8.95c12.12,0,42.14-18.28,60.75-30.42c9.27-6.05,15.71-10.58,15.71-10.58s-6.44-4.53-15.71-10.58
			c-18.61-12.15-48.64-30.43-60.75-30.43c-3.51,0-6.88,0.69-10.06,1.95c-5.34,2.15-10.1,5.95-13.85,10.93
			c-4.14,5.47-7.08,12.35-8.32,19.99c-0.01,0.09-0.03,0.18-0.03,0.27C4899.4,1570.96,4899.19,1573.59,4899.19,1576.29z"/>
		<path class="st35" d="M4899.19,1576.29c0,12.69,4.61,24.03,11.88,31.54l92.11-31.69l-103.39-7.72
			C4899.4,1570.96,4899.19,1573.59,4899.19,1576.29z"/>
		<path class="st36" d="M4908.15,1548.17l91.89,25.09l-78.04-36.03C4916.66,1539.38,4911.9,1543.19,4908.15,1548.17z"/>
		<path class="st37" d="M4986.82,1576.29c0,4.88,2.5,9.04,6,10.58c9.27-6.05,15.71-10.58,15.71-10.58s-6.44-4.53-15.71-10.58
			C4989.32,1567.24,4986.82,1571.4,4986.82,1576.29z"/>
	</g>
</g>
<g>
	<path class="st28" d="M5149.79,829.39c-15.22-7.89-27.41-2.93-27.41-2.93c-46.57-5.47-60.15,48.84-59.52,67.52
		c0.62,18.68,2.76,38.75-18.03,63.03c-60.07,70.12,65.74,73.21,65.74,73.21c1.06-56.02,68.22-35.58,65.28-29.91
		C5261.93,1020.98,5184.4,847.34,5149.79,829.39z"/>
	<path class="st23" d="M4970.16,1051.74c0,0-8.19-12.47-14.79-12.71c-6.6-0.24-18.82-3.67-17.84-1.22s8.56,2.69,9.29,4.16
		s-11.24,3.67-14.67,3.91c-3.42,0.24-11.49,0-11.24,1.71c0.24,1.71,14.54,8.8,24.62,7.82s22.55,2.93,22.55,2.93L4970.16,1051.74z"/>
	<path class="st22" d="M5088.59,1055.77c0,0-4.45,8.81-12.53,18.94c-9.73,12.19-24.73,26.27-43.57,29.05
		c-9,1.33-17.8-0.61-25.89-4.2c-0.02-0.01-0.03-0.01-0.03-0.01c-22.88-10.16-40.08-33.51-40.08-33.51
		c-4.03-11,2.57-18.46,2.57-18.46s46.2,10.39,50.6,8.19c4.4-2.2,31.45-62.21,36.32-72.21c10.36-21.25,26.79-27.34,26.79-27.34
		L5088.59,1055.77z"/>
	<path class="st25" d="M5076.07,1074.71c-9.73,12.19-24.73,26.27-43.57,29.05c-9,1.33-17.8-0.61-25.89-4.2
		c0.9,0.12,23.75,2.94,32.85-13.35c9.29-16.62,19.34-43.02,33.14-34.22C5078.55,1055.78,5078.29,1065.22,5076.07,1074.71z"/>
	<path class="st24" d="M5260.95,1554.46c0,0,14.1,12.87,11.35,22.01c-2.75,9.14-15.47,15.24-17.19,26.41s-8.6,17.27-14.78,17.27
		c-6.19,0-29.51,0-29.51,0s-4.56-7.86,6.45-10.23c11-2.37,15.15-15.5,14.46-27.69c-0.69-12.19,1.03-28.44,1.03-28.44l23.38-5.42
		L5260.95,1554.46z"/>
	<path class="st24" d="M5141.64,1559.93c0,0,5.07,54.5-1.12,57.55l-79.2-0.16c0,0,0-9.14,12.72-11.17
		c12.72-2.03,35.07-9.48,38.85-26.07C5116.67,1563.48,5141.64,1559.93,5141.64,1559.93z"/>
	<path class="st22" d="M5202.56,1019.01c0,0,1.18,16.64,0,36.61c-0.79,13.24-14.17,30.97-16.07,35.35
		c-4.77,11-10.14,12.79-10.14,12.79l-41.59,10.19l-14.62,3.58l-46.11-13.77c0,0-21-58.62-12.57-91.62
		c8.43-33,21.32-55.92,21.32-55.92s31.26-12.34,86.62-3.12L5202.56,1019.01z"/>
	<path class="st38" d="M5190.39,1061.02c-0.79,13.24-2,25.56-3.9,29.95c-4.77,11-10.14,12.79-10.14,12.79l-41.59,10.19l-18.06-5.31
		c0,0,60.29-9.14,53.61-61.01L5190.39,1061.02z"/>
	<path class="st18" d="M5076.96,1112.66c0,0-22.84,71.08-24.3,95.28c-1.47,24.2,43.65,343.77,45.47,354.92
		c1.71,10.51,14.76,17.21,14.76,17.21s6,3.54,14.57,1.12c11.89-3.36,15.64-7.38,15.64-7.38s17.77-227.92,6.77-309.33
		c-11-81.42-11.13-151.82-11.13-151.82H5076.96z"/>
	<path class="st21" d="M5173.71,1110.54c0,0,34.83,46.74,38.08,78.33c3.25,31.59,5.09,142.57,12.01,173.37
		c6.92,30.8,32.34,90.07,32.34,186.13c0,0-2.64,5.5-10.8,8.44c-2.61,0.94-6.1,1.85-9.5,2.63c-6.73,1.54-13.63-1.75-16.7-7.93
		c-17.18-34.6-71.92-146.19-74.73-169.36c-1.99-16.39-19.27-124.89-56.97-188.55c-9.05-15.28,5.55-76.07,5.55-76.07L5173.71,1110.54
		z"/>
	<path class="st33" d="M5073.31,1101.69c0,0,9.17,7.25,27.38,7.62c21.75,0.44,75.65-5.55,75.65-5.55s2.39,6.69,2.3,13.76
		c0,0-65.83,16.6-103.97,2.42C5074.67,1119.94,5069.75,1110.68,5073.31,1101.69z"/>
	<g>
		<path class="st2" d="M5095.47,1128.05c-5.47,0-9.93-5.04-9.93-11.23c0-6.2,4.45-11.23,9.93-11.23c5.47,0,9.93,5.04,9.93,11.23
			C5105.4,1123.01,5100.95,1128.05,5095.47,1128.05z M5095.47,1108.87c-3.66,0-6.64,3.56-6.64,7.94c0,4.38,2.98,7.94,6.64,7.94
			c3.66,0,6.63-3.56,6.63-7.94C5102.11,1112.44,5099.13,1108.87,5095.47,1108.87z"/>
	</g>
	<path class="st20" d="M5240.22,1120.63l-53.46,46.55c-3.86,3.36-9.72,2.96-13.08-0.9l-68.21-78.33c-3.36-3.86-2.96-9.72,0.9-13.08
		l53.46-46.55c3.86-3.36,9.72-2.96,13.08,0.9l68.21,78.33C5244.49,1111.41,5244.08,1117.27,5240.22,1120.63z"/>
	<path class="st23" d="M5161.13,1114.76c-0.76,0.2-28.4,3.45-28.4,9.16c0,6.6,8.1,15.45,15.74,15.03
		c3.09-0.17,17.35-13.28,17.35-13.28L5161.13,1114.76z"/>
	<path class="st23" d="M5146.94,950.08c-3.14-7.63-4.98-19.24-4.93-33.62l-2.09,0.41l-35.11,6.95c0,0,0.8,11.05,0.82,21.45
		c0,0.09,0,0.17,0,0.26c0.04,9.04-6.11,18.11,8.39,21.69C5118.52,968.34,5153.55,966.09,5146.94,950.08z"/>
	<path class="st39" d="M5104.82,923.82c0,0,0.8,11.05,0.82,21.45c19.64-0.55,30.03-18.47,34.28-28.41L5104.82,923.82z"/>
	<path class="st23" d="M5098.26,933.68c0,0,46.48,0.77,46.51-28.18c0.03-28.95,6.05-48.35-23.62-50.07
		c-29.67-1.71-35.45,9.33-37.81,18.99C5080.98,884.08,5086.17,932.73,5098.26,933.68z"/>
	<path class="st28" d="M5099.98,854.72c0,0,12.73,33.97,32.26,38.99c19.53,5.02,28-0.21,28-0.21s-14.98-11.9-18.09-32.67
		C5142.15,860.82,5109.58,838.55,5099.98,854.72z"/>
	<path class="st28" d="M5103.14,857.48c0,0-9.44,3.53-13.32,10.41c-3.8,6.73-7.03,15.64-6.28,26.58c0,0-9.59-23.09,1.19-36.15
		C5096.14,844.47,5103.14,857.48,5103.14,857.48z"/>
	<path class="st23" d="M5161.13,1114.76c0,0-6.62-2.13-11.05-1.51c-4.43,0.62-7.7-0.09-7.7,1.15s5.71,1.82,6.93,2.41
		C5150.53,1117.41,5161.13,1114.76,5161.13,1114.76z"/>
	<path class="st22" d="M5169.4,953.1c0,0,32.99,2.31,45.64,33.06c12.65,30.74,36.64,82.36,36.64,91.05s-13.4,35.45-85.39,50.84
		c0,0-7.44-7.83-6.99-14.03c0,0,44.94-38.6,44.82-43.11c-0.23-8.53-7.37-19.8-46.82-59.26
		C5146.57,1000.92,5169.4,953.1,5169.4,953.1z"/>
</g>
<g>
	<g>
		<path class="st33" d="M4052.76,39.11c0,0-26.47-4.48-43.25,8.2s-19.47,8.58-28.94,16.41c-9.47,7.83,0.22,17.15-5,22.38
			c-5.22,5.22-5.42,15.29,2.32,17.9c7.75,2.61,2.53,16.78,19.31,18.65c16.78,1.86,9.26,9.63,25.18,10.81
			c15.92,1.18,29.08,1.73,37.47,5.25c8.39,3.52,15.99-0.12,18.39-6.5c2.4-6.39,9.11,1.85,11.07-6.88
			c1.96-8.73-5.03-12.18-1.12-19.27C4092.11,98.96,4101.79,48.62,4052.76,39.11z"/>
		<path class="st23" d="M4098.54,547.16c-1.83,2.12-2.05,4.49-1.12,7c0,0.01,0.01,0.02,0.02,0.03c1.72,4.65,7.33,9.82,13.84,14.97
			c0.83,0.66,1.57,1.26,2.22,1.82c0.17,0.15,0.34,0.29,0.5,0.44c0.13,0.11,0.26,0.23,0.38,0.34c6.08,5.52,3.81,6.81,14.74,18.03
			c12.46,12.78,20.97,12.95,23.39,11.76c2.04-1.01-2.17-7.81-6.84-15.45c-0.23-0.37-0.45-0.74-0.68-1.11
			c-0.62-1.02-1.24-2.05-1.86-3.07c-5.47-9.19-4.11-13.54-2.93-27.28c0.96-11.17,16.93-62.49,16.93-62.49l-23.73-3.92
			c0,0-6.85,40.83-14.67,47.16c-4.18,3.38-8.89,3.45-12.91,5.96c-0.28,0.17-0.56,0.35-0.84,0.54
			C4102.71,543.44,4100.38,545.02,4098.54,547.16z"/>
		<path class="st33" d="M4098.54,547.16c-1.83,2.12-2.05,4.49-1.12,7c0,0.01,0.01,0.02,0.02,0.03c2.1,4.64,7.57,9.78,13.86,14.92
			c0.82,0.67,1.55,1.29,2.19,1.87c0.17,0.15,0.34,0.29,0.5,0.44c0.13,0.11,0.26,0.23,0.38,0.34c6.08,5.52,3.81,6.81,14.74,18.03
			c12.46,12.78,20.97,12.95,23.39,11.76c2.04-1.01-2.17-7.81-6.84-15.45c-2.41-0.86-13.63-5.33-22.16-16.09
			c-7.51-9.45-12.57-21.62-17.69-28.66c-0.28,0.17-0.56,0.35-0.84,0.54C4102.71,543.44,4100.38,545.02,4098.54,547.16z"/>
		<path class="st23" d="M4289.54,531c1.52,7.31,11.93,6.01,23.56,3.08c11.63-2.93,8.88,0.47,25.45-1.48
			c16.57-1.95,21.55-8.17,22.04-10.64c0.44-2.19-7.76-2.9-16.56-3.86c-1.11-0.12-2.22-0.25-3.33-0.37
			c-9.93-1.17-17.24-7.53-26.29-12.72c-8.57-4.92-21.45-25.12-21.45-25.12l-22.73,1.96c0,0,12.06,18.04,16.73,25.89
			c2.75,4.62,2.65,10.75,2.34,15.48C4289.15,525.8,4289,528.43,4289.54,531z"/>
		<path class="st33" d="M4313.11,534.09c11.63-2.93,8.88,0.47,25.45-1.48c16.57-1.95,21.55-8.17,22.04-10.64
			c0.44-2.19-7.76-2.9-16.56-3.86l-0.08,0.17c0,0-9.89,7.12-23.69,7.55c-11.25,0.35-23.19-2.79-30.95-2.61
			c-0.16,2.57-0.31,5.2,0.23,7.78C4291.06,538.31,4301.48,537.02,4313.11,534.09z"/>
		<path class="st25" d="M4201.37,386.22l-20.85,57.35l-27.22,74.88c0,0-7.53,0.78-14.75-1.24c-6.65-1.87-14.31-6.84-14.31-6.84
			s7.14-80.25,21.19-126.38c3.6-11.84,7.66-21.43,12.18-26.84C4179.7,330.65,4201.37,386.22,4201.37,386.22z"/>
		<path class="st22" d="M4179.12,295.53c-13.96-4.39-53.64,1.65-93.48,9.75l-8.45-13.72l-86.23-6.12c0,0-27,59.73-12.14,103.34
			c2.88,8.46,16.69,8.76,16.69,8.76c0,0,50.52,0.55,67.17,0.43c42.86-0.3,90.5-30.1,96.68-31.38c10.12-2.1,14.31,18.14,24.59,39.34
			c10.28,21.2,95.9,93.55,95.9,93.55s13.08,0.04,18.47-2.03c5.79-2.22,7.9-5.07,7.9-5.07S4210.6,305.44,4179.12,295.53z"/>
		<path class="st23" d="M4050.02,158.67c0.14,0.09-15.06,5.4-25.28,0.96c-9.61-4.17-16.98-19.88-16.84-19.89
			c4.36-0.23,9.12-4.08,12.63-29.11l1.86,0.65l31.29,11.01c0,0-2.19,10.03-3.59,19.58C4048.91,149.88,4048.3,157.55,4050.02,158.67z
			"/>
		<path class="st40" d="M4053.67,122.29c0,0-1.33,7.03-3.19,17.08c-17.95-3.1-25.51-18.41-28.11-28.09L4053.67,122.29z"/>
		<path class="st23" d="M4058.39,132.19c0,0-42.75-5.43-38.95-32c3.79-26.57,0.83-45.16,28.28-42.82
			c27.45,2.34,31.3,13.24,32.19,22.41C4080.8,88.97,4069.61,132.92,4058.39,132.19z"/>
		<path class="st33" d="M4078.25,65.25c0,0-27.17,23.75-45.75,25.78c-18.58,2.03-25.66-3.89-25.66-3.89s10.9-9.18,17.39-23.91
			c1.91-4.34,6-7.34,10.72-7.78C4048.21,54.21,4073.38,53.51,4078.25,65.25z"/>
		<path class="st33" d="M4061.14,63.27c0,0,9.21,8.78,12.13,15.32c2.82,6.31,3.76,21.44,1.59,27.47c0,0,14.05-27.81,5.89-41.21
			C4072.11,50.63,4061.14,63.27,4061.14,63.27z"/>
		<path class="st2" d="M4086.42,221.33c-0.68,86.45,0.13,68.38-9.27,76.65c-2.26,1.99-8.66,3.21-17.09,3.83
			c-26.49,1.95-73.12-2.09-74.93-6.98c-6.23-16.91-1.95-22.2-7.24-48.12c-0.55-2.76-1.23-5.74-2.03-8.99
			c-4.38-17.79-8.56-23.83,6.33-52.57c13.5-26.03,27.57-47.18,28.85-46.43c36.25,21.18,39.04,3.14,39.04,3.14
			S4086.76,179.16,4086.42,221.33z"/>
		<path class="st22" d="M4180.52,443.57l-27.22,74.88c0,0-7.53,0.78-14.75-1.24c-6.65-1.87-14.31-6.84-14.31-6.84
			s7.14-80.25,21.19-126.38L4180.52,443.57z"/>
		<path class="st2" d="M4050.09,141.86c0,0,37.19,6.04,41.67,22c4.47,15.96,30.81,109.81,30.81,109.81s-18.86,3.53-27.65-5.14
			c-8.79-8.66-30.93-80.73-30.93-80.73L4050.09,141.86z"/>
		<path class="st41" d="M4060.06,301.81c-26.49,1.95-73.12-2.09-74.93-6.98c-6.23-16.91-1.95-22.2-7.24-48.12l12.53-36.09
			c0,0-1.83,40.1,10.07,50.57c11.88,10.46,48.55,20.01,54.36,28.78C4057.65,294.18,4059.51,298.41,4060.06,301.81z"/>
		<path class="st23" d="M4029.57,285.16c0,0,26.11-6.01,30.35-3.72c4.24,2.29,14.61,10.67,15.92,13.6
			c1.31,2.93-9.41-2.17-12.89-3.07c-2.25-0.59-8.17,1.51-11.09,2.51c-12.31,4.2-19.89,2.14-19.89,2.14L4029.57,285.16z"/>
		<path class="st2" d="M4011.03,138.71c0,0-35.1,2.41-47.13,19.45c-16.94,23.99-50.17,125.93-30.62,139.36
			c22.02,15.12,99.73,3.29,99.73,3.29s2.5-12.12-1.14-17.95c-3.64-5.83-62.25-14.87-64.97-17.55c-2.72-2.68,33.4-52.92,33.34-61.03
			C4000.19,196.18,4011.03,138.71,4011.03,138.71z"/>
		<path class="st23" d="M4061.24,288.71c0,0,5.53,7.03,7.33,7.86c1.8,0.83,2.96,0.61,2.96,0.61l-3.74-6.62L4061.24,288.71z"/>
		<path class="st23" d="M4059.92,281.44l15.99,7.62c0,0-0.67,1.11-2.63,1.04c-1.96-0.08-6.92-1.85-6.92-1.85L4059.92,281.44z"/>
	</g>
	<g>
		<g>
			<polygon class="st33" points="4065.16,307.98 4191.17,307.09 4228.42,212.56 4102.6,213.45 			"/>
			<polygon class="st33" points="4192.63,303.41 4026.22,304.58 4026.25,308.26 4191.17,307.09 			"/>
		</g>
		<path class="st42" d="M4159.03,260.18c0.93-3.32-1.01-5.99-4.32-5.97c-3.31,0.02-6.75,2.73-7.68,6.05
			c-0.93,3.32,1.01,5.99,4.32,5.97C4154.67,266.22,4158.1,263.5,4159.03,260.18z"/>
	</g>
</g>
<path class="st43" d="M3424.19,1616.7h91.96c4.93-4.18-3.41-13.67-12.12-14.31c-3.78-0.29-8.57,0.51-14.04,1.66
	c-1.27-16.81-8.49-92.37-35.73-89.33c-30.62,3.4,0,33.28,8.66,50.96c6.41,13.1,13.18,31.89,16.27,40.75
	c-2.49,0.54-5.06,1.07-7.69,1.55c-4.06-12.46-19.16-54.38-38.37-51.94c-22.55,2.86-13.49,19.67,2.5,29.64
	c11.73,7.34,26.12,17.77,32.97,22.8c-5.8,0.95-11.85,1.58-17.98,1.44C3434.86,1609.56,3427.17,1614.2,3424.19,1616.7z"/>
<path class="st43" d="M5414.48,1616.48h-101.74c-5.45-4.62,3.77-15.13,13.41-15.83c4.19-0.32,9.48,0.56,15.53,1.84
	c1.4-18.6,9.4-102.19,39.53-98.83c33.88,3.76,0,36.81-9.58,56.38c-7.1,14.49-14.58,35.28-18,45.09c2.75,0.6,5.6,1.18,8.51,1.72
	c4.49-13.79,21.2-60.17,42.45-57.47c24.95,3.16,14.92,21.76-2.76,32.8c-12.97,8.12-28.9,19.65-36.47,25.23
	c6.41,1.05,13.11,1.75,19.9,1.59C5402.68,1608.59,5411.18,1613.72,5414.48,1616.48z"/>
<path class="st33" d="M5559.94,1623.94h-2290c-1.6,0-2.9-1.31-2.9-2.9v-1.78c0-1.6,1.31-2.9,2.9-2.9h2290c1.6,0,2.91,1.31,2.91,2.9
	v1.78C5562.85,1622.63,5561.54,1623.94,5559.94,1623.94z"/>
<text transform="matrix(1 0 0 1 4180.5186 638.4197)" style="font-family:'Helvetica-Bold'; font-size:71px;">AGREEMENT</text>
<g>
	<g>
		<path class="st44" d="M2242.89,1426.05h-42.7c0.32-2.24,1.41-9.05,3.41-15.33c0.69-2.18,1.5-4.31,2.42-6.15
			c4.15-8.29,30.53-3.02,30.53-3.02s2.45,2.1,4.36,10.12C2241.75,1415.2,2242.5,1419.89,2242.89,1426.05z"/>
		<path class="st45" d="M2164.5,773.82c0,0-34.03,5.97-41.72,26.06c-7.69,20.08-51.15,344.49-51.15,344.49s21.52,17.05,67.71,10.93
			C2185.54,1149.18,2164.5,773.82,2164.5,773.82z"/>
		<path class="st44" d="M2113.86,1412.57c-0.12,5.81-0.85,11.31-2.95,13.48h-84.46c1.07-3.06,4.11-7.65,12.78-9.06
			c9.85-1.59,25.21-6.34,34.18-15.82c3.2-3.37,5.57-7.34,6.62-11.98c3.97-17.69,32.85,5.42,32.85,5.42
			S2114.04,1403.92,2113.86,1412.57z"/>
		<path class="st44" d="M2077.49,1403.97c9.44,3.01,27.48,12.2,38.94,7.88c7.4-2.79,48.8-122.54,51.49-174.91
			c0.2-3.81,0.95-9.12,2.12-15.6c2.45-13.52,6.74-32.09,11.68-52.59c13.25-54.92,31.17-123.63,30.78-145.59
			c-0.6-34.08-101.57-7.14-101.57-7.14s-6.94,27.96-8.33,68.44c-2.74,80.35-10.28,216.07-30.78,310.32
			C2070.93,1398.78,2073.57,1402.73,2077.49,1403.97z"/>
		<path class="st46" d="M2147.57,1023.28l53.38,386.87c0,0,23.44,5.65,41.67,1.13c0,0,15.63-205.76,14.32-255.5
			c-1.3-49.74,11.22-133.11-2.86-142.3C2240.01,1004.29,2147.57,1023.28,2147.57,1023.28z"/>
		<path class="st2" d="M2260.84,791.54c0,0-56.1-36.27-96.33-17.72c-6.41,2.96-13.73,11.21-18.96,16.97
			c-14.54,16.03-42.96,270.6-42.96,270.6s80.67,27.32,158.25-9.27V791.54z"/>
		<path class="st47" d="M2161.31,772.9c0,0-56.79,23.27-64.48,41.16c-7.69,17.88-32.69,127.7-32.69,140.57s43.53,2.88,50.53-17.89
			c5.82-17.25,25.44-70.23,35.79-103.74L2161.31,772.9z"/>
		<path class="st48" d="M2165.64,766.4c-3.23,1.22-9.42,7.56-10.81,11.07l-4.36,55.54c0,0,9.3-40.76,14.04-59.18
			C2165.71,769.14,2165.49,767.72,2165.64,766.4z"/>
		<g>
			<path class="st49" d="M2173.11,790.64c12.4,2.43,30.61-0.16,43.94-8.95c-6.02-14.38-8.49-25.73-9.36-33.08
				c-0.05-0.39-0.09-0.77-0.13-1.14c-0.4-3.81-0.34-6.39-0.15-7.58h-32.05c0,0-8.76,4.01-8.76,6.78c0,1.48-0.01,2.9-0.04,4.25
				c-0.06,3.68-0.21,6.9-0.4,9.67c-0.61,8.99-1.64,13.23-1.64,13.23S2160.59,788.18,2173.11,790.64z"/>
			<path class="st50" d="M2166.15,760.59c24.28,4.69,38.38-8.58,41.54-11.98c0.45-0.49,0.68-0.78,0.68-0.78
				c-0.26-0.13-0.53-0.24-0.81-0.36c-9.04-3.66-29.55-0.75-41.01,3.45C2166.48,754.61,2166.34,757.83,2166.15,760.59z"/>
			<path class="st49" d="M2215.61,734.63c-4.34,23.35-34.47,22.59-47.49,21.12c-3.67-0.41-5.97-0.88-5.97-0.88
				c-4.13-1.1-6.44-7.61-7.51-16.14c-2.13-16.87,0.56-41.64,3.41-47.97c4.29-9.53,12.37-19.84,42.72-12.4
				C2231.12,685.8,2221.18,704.71,2215.61,734.63z"/>
			<path class="st44" d="M2156.92,677.74c4.15-5.74,12.94-12.76,20.93-17.08c17.16-9.28,39.12,0.29,39.21,0.33
				c24.79,10.9,31.26,29.86,18.12,59.4c-13.9,31.24-27.13,27.72-27.13,27.72s2.81-1.75,2.55-11.48c-0.01-0.55-0.04-1.02-0.06-1.41
				c-0.13-2,0.57-4,2.07-5.33c3.08-2.75,4.58-11.06,2-13.37c-3.11-2.79-7.48,0.6-8.88,3.21c-1.22,1.84-3.41,2.49-5.44,1.2
				c-7.72-4.88-2.7-14.63-10.08-20.6c-7.37-5.97-22.33-0.96-33.39-5.71C2142.36,689.22,2153.79,682.06,2156.92,677.74z"/>
		</g>
		<path class="st47" d="M2153.47,1168.2c4.89,1.26,9.72,2.29,14.53,3.08c4.25,0.73,8.48,1.26,12.72,1.62
			c24.01,2.09,48.12-1.29,76.31-9.37c6.35-1.82,12.9-3.88,19.71-6.17c0.72-0.24-1.85-74.78-4.83-151.65
			c-0.3-7.94-0.62-15.9-0.92-23.81c-0.13-3.35-0.26-6.69-0.4-10.01c-2.7-67.99-5.37-129.4-5.94-132.7
			c-1.29-7.48-2.49-13.86-3.81-19.38c-3.84-16.11-8.61-24.94-19.01-32.54c-1.01-0.77-9.33-4.96-16.66-8.61
			c-6.08-3.02-11.47-5.65-11.47-5.65c-0.01,0-0.01,0-0.01,0c-2.42,1.19-5.32,6.72-8.36,14.5c-5.58,14.33-11.61,36.28-15.8,52.67
			c-0.01,0.05-0.02,0.07-0.02,0.08v0.01c-2.7,10.58-4.63,18.83-5.19,21.19c-0.94,3.99-2.17,11.72-3.63,22.21
			c-1.97,14.26-4.33,33.62-6.83,55.59c-0.26,2.26-0.51,4.54-0.77,6.85c-0.29,2.64-0.6,5.3-0.89,7.99c-0.1,0.86-0.19,1.73-0.28,2.6
			c-0.96,8.7-1.93,17.68-2.89,26.81c-0.8,7.55-12.24,13-13.03,20.67c-0.46,4.51-1.41,46.08-2.63,59.35
			C2152.5,1072.99,2153.12,1163.75,2153.47,1168.2z"/>
		<path class="st48" d="M2211.27,765.51c0,0,11.06,1.92,15.97,8.97c0,0-37.9,66.37-37.73,65.78
			C2189.68,839.65,2201.9,773.65,2211.27,765.51z"/>
		<path class="st48" d="M2236.26,866.59c0.04,0.16,1.95,68.75-49.66,77.09c-51.6,8.33-17.32,10.54-17.32,10.54
			s97.09-4.13,98.69-6.69C2269.58,944.96,2236.26,866.59,2236.26,866.59z"/>
		<path class="st48" d="M2192.66,973.13c0,0,0.97,0.69,2.83,1.89c0.03,0.01,0.06,0.04,0.1,0.06c7.87,5.02,31.24,18.72,65.25,27.91
			c3.57,0.97,7.26,1.89,11.06,2.73c-0.3-7.94-0.62-15.9-0.92-23.81c4.49-0.35,8.79-0.92,12.79-1.77c-0.13-1.04-0.28-2.09-0.41-3.13
			c-4.33-1.78-8.63-3.49-12.78-5.11c-3.38-1.32-6.65-2.58-9.74-3.74c-13.97-5.31-24.33-8.9-24.33-8.9l-41.37,13.1L2192.66,973.13z"
			/>
		<g>
			<path class="st51" d="M1946.86,842.38c0.52-7.75,0.89-15.54-0.61-23.83c3.52,0.05,6.51,1.72,9.35,3.88
				c-0.07-4.29-2.34-8.99-2.34-8.99c5.83-1.21,13.45,1.13,13.45,1.13c0-2.47-2.12-7.85-2.12-7.85c5.34,0.04,11.01,3.06,12.84,4.16
				c-0.07-2.81-0.65-8.6-0.65-8.6c23.79,14.51,29.75,51.26,29.75,51.26c41.81-47.44,156.71-51.13,156.71-51.13l-1.94,5.71l6.91-3.29
				l-0.43,6.72l5.32-3.39l-1.76,6.21l5.61-2.62l-1.4,5.44l4.86-1.61l-1.62,4.36l6.07-2.24l-0.16,6.14l-178.16,54.79L1946.86,842.38z
				"/>
			<polygon class="st52" points="2187.58,1145.81 2014.84,1187.18 2012.99,861.31 2185.73,819.95 2191.9,819.95 			"/>
			<polygon class="st53" points="2191.9,1145.81 2019.16,1187.18 2019.16,861.31 2191.9,819.95 			"/>
			<rect x="1993.91" y="861.31" class="st52" width="25.25" height="325.86"/>
			<polygon class="st52" points="1995.85,1187.18 1941.46,1152.53 1939.52,826.67 1941.46,826.67 1995.85,861.31 			"/>
			<polygon class="st53" points="1993.91,1187.18 1939.52,1152.53 1939.52,826.67 1993.91,861.31 			"/>
		</g>
		<path class="st49" d="M2181.83,940.66c0,0-23.3-1.62-24.47,3.81c-2.73,12.66,20.03,23.07,27.4,22.35
			C2206.21,964.71,2200.91,947.64,2181.83,940.66z"/>
		<path class="st49" d="M1934.28,919.39c0,0,10.83-4.24,12.65,0.9c4.24,12.01-4.3,24.72-8.01,24.87
			C1935.2,945.32,1931.5,919.18,1934.28,919.39z"/>
	</g>
	<path class="st47" d="M2273.85,795.18c-11.7-12.81-32.86-18.41-46.6-20.7c-5.02,6.33-9.27,17.95-4.44,28.33
		c8.59,28.46,21,70.66,26.95,96.06c2.55,10.87,3.92,18.67,3.3,20.99c-2.72,10.15-30.58,19.05-48.42,21.36
		c-7.44,0.96-13.09,1.42-14.35,1.51c-0.09,0-4.88,12.45-0.95,33.53c0,0,48.08,6.29,71.51,6.05c3.46-0.04,6.85-0.17,10.14-0.43
		c4.49-0.35,8.79-0.92,12.79-1.77c8.56-1.81,15.74-4.87,20.43-9.65C2339.05,934.98,2285.18,807.57,2273.85,795.18z"/>
</g>
<g>
	<g>
		<path class="st44" d="M-2289.59,1426.05h-42.7c0.32-2.24,1.41-9.05,3.41-15.33c0.69-2.18,1.5-4.31,2.42-6.15
			c4.15-8.29,30.53-3.02,30.53-3.02s2.45,2.1,4.36,10.12C-2290.72,1415.2-2289.98,1419.89-2289.59,1426.05z"/>
		<path class="st47" d="M-2367.97,773.82c0,0-34.03,5.97-41.72,26.06c-7.69,20.08-51.15,344.49-51.15,344.49
			s21.52,17.05,67.71,10.93C-2346.93,1149.18-2367.97,773.82-2367.97,773.82z"/>
		<path class="st44" d="M-2418.62,1412.57c-0.12,5.81-0.85,11.31-2.95,13.48h-84.46c1.07-3.06,4.11-7.65,12.78-9.06
			c9.85-1.59,25.21-6.34,34.18-15.82c3.2-3.37,5.57-7.34,6.62-11.98c3.97-17.69,32.85,5.42,32.85,5.42
			S-2418.43,1403.92-2418.62,1412.57z"/>
		<path class="st44" d="M-2454.99,1403.97c9.44,3.01,27.48,12.2,38.94,7.88c7.4-2.79,48.8-122.54,51.49-174.91
			c0.2-3.81,0.95-9.12,2.12-15.6c2.45-13.52,6.74-32.09,11.68-52.59c13.25-54.92,31.17-123.63,30.78-145.59
			c-0.6-34.08-101.57-7.14-101.57-7.14s-6.94,27.96-8.33,68.44c-2.74,80.35-10.28,216.07-30.78,310.32
			C-2461.55,1398.78-2458.9,1402.73-2454.99,1403.97z"/>
		<path class="st46" d="M-2384.91,1023.28l53.38,386.87c0,0,23.44,5.65,41.67,1.13c0,0,15.63-205.76,14.32-255.5
			c-1.3-49.74,11.22-133.11-2.86-142.3C-2292.46,1004.29-2384.91,1023.28-2384.91,1023.28z"/>
		<path class="st2" d="M-2271.64,791.54c0,0-56.1-36.27-96.33-17.72c-6.41,2.96-13.73,11.21-18.96,16.97
			c-14.54,16.03-42.96,270.6-42.96,270.6s80.67,27.32,158.25-9.27V791.54z"/>
		<path class="st47" d="M-2371.16,772.9c0,0-56.79,23.27-64.48,41.16c-7.69,17.88-32.69,127.7-32.69,140.57s43.53,2.88,50.53-17.89
			c5.82-17.25,25.44-70.23,35.79-103.74L-2371.16,772.9z"/>
		<path class="st48" d="M-2366.84,766.4c-3.23,1.22-9.42,7.56-10.81,11.07l-4.36,55.54c0,0,9.3-40.76,14.04-59.18
			C-2366.77,769.14-2366.99,767.72-2366.84,766.4z"/>
		<g>
			<path class="st49" d="M-2359.37,790.64c12.4,2.43,30.61-0.16,43.94-8.95c-6.02-14.38-8.49-25.73-9.36-33.08
				c-0.05-0.39-0.09-0.77-0.13-1.14c-0.4-3.81-0.34-6.39-0.15-7.58h-32.05c0,0-8.76,4.01-8.76,6.78c0,1.48-0.01,2.9-0.04,4.25
				c-0.06,3.68-0.21,6.9-0.4,9.67c-0.61,8.99-1.64,13.23-1.64,13.23S-2371.89,788.18-2359.37,790.64z"/>
			<path class="st50" d="M-2366.33,760.59c24.28,4.69,38.38-8.58,41.54-11.98c0.45-0.49,0.68-0.78,0.68-0.78
				c-0.26-0.13-0.53-0.24-0.81-0.36c-9.04-3.66-29.55-0.75-41.01,3.45C-2365.99,754.61-2366.14,757.83-2366.33,760.59z"/>
			<path class="st49" d="M-2316.86,734.63c-4.34,23.35-34.47,22.59-47.49,21.12c-3.67-0.41-5.97-0.88-5.97-0.88
				c-4.13-1.1-6.44-7.61-7.51-16.14c-2.13-16.87,0.56-41.64,3.41-47.97c4.29-9.53,12.37-19.84,42.72-12.4
				C-2301.36,685.8-2311.29,704.71-2316.86,734.63z"/>
			<path class="st44" d="M-2375.56,677.74c4.15-5.74,12.94-12.76,20.93-17.08c17.16-9.28,39.12,0.29,39.21,0.33
				c24.79,10.9,31.26,29.86,18.12,59.4c-13.9,31.24-27.13,27.72-27.13,27.72s2.81-1.75,2.55-11.48c-0.01-0.55-0.04-1.02-0.06-1.41
				c-0.13-2,0.57-4,2.07-5.33c3.08-2.75,4.58-11.06,2-13.37c-3.11-2.79-7.48,0.6-8.88,3.21c-1.22,1.84-3.41,2.49-5.44,1.2
				c-7.72-4.88-2.7-14.63-10.08-20.6c-7.37-5.97-22.33-0.96-33.39-5.71C-2390.12,689.22-2378.68,682.06-2375.56,677.74z"/>
		</g>
		<path class="st47" d="M-2379.01,1168.2c4.89,1.26,9.72,2.29,14.53,3.08c4.25,0.73,8.48,1.26,12.72,1.62
			c24.01,2.09,48.12-1.29,76.31-9.37c6.35-1.82,12.9-3.88,19.71-6.17c0.72-0.24-1.85-74.78-4.83-151.65
			c-0.3-7.94-0.62-15.9-0.92-23.81c-0.13-3.35-0.26-6.69-0.4-10.01c-2.7-67.99-5.37-129.4-5.94-132.7
			c-1.29-7.48-2.49-13.86-3.81-19.38c-3.84-16.11-8.61-24.94-19.01-32.54c-1.01-0.77-9.33-4.96-16.66-8.61
			c-6.08-3.02-11.47-5.65-11.47-5.65c-0.01,0-0.01,0-0.01,0c-2.42,1.19-5.32,6.72-8.36,14.5c-5.58,14.33-11.61,36.28-15.8,52.67
			c-0.01,0.05-0.02,0.07-0.02,0.08v0.01c-2.7,10.58-4.63,18.83-5.19,21.19c-0.94,3.99-2.17,11.72-3.63,22.21
			c-1.97,14.26-4.33,33.62-6.83,55.59c-0.26,2.26-0.51,4.54-0.77,6.85c-0.29,2.64-0.6,5.3-0.89,7.99c-0.1,0.86-0.19,1.73-0.28,2.6
			c-0.96,8.7-1.93,17.68-2.89,26.81c-0.8,7.55-12.24,13-13.03,20.67c-0.46,4.51-1.41,46.08-2.63,59.35
			C-2379.98,1072.99-2379.35,1163.75-2379.01,1168.2z"/>
		<path class="st48" d="M-2321.2,765.51c0,0,11.06,1.92,15.97,8.97c0,0-37.9,66.37-37.73,65.78
			C-2342.8,839.65-2330.58,773.65-2321.2,765.51z"/>
		<path class="st48" d="M-2296.22,866.59c0.04,0.16,1.95,68.75-49.66,77.09c-51.6,8.33-17.32,10.54-17.32,10.54
			s97.09-4.13,98.69-6.69C-2262.9,944.96-2296.22,866.59-2296.22,866.59z"/>
		<path class="st48" d="M-2339.82,973.13c0,0,0.97,0.69,2.83,1.89c0.03,0.01,0.06,0.04,0.1,0.06c7.87,5.02,31.24,18.72,65.25,27.91
			c3.57,0.97,7.26,1.89,11.06,2.73c-0.3-7.94-0.62-15.9-0.92-23.81c4.49-0.35,8.79-0.92,12.79-1.77c-0.13-1.04-0.28-2.09-0.41-3.13
			c-4.33-1.78-8.63-3.49-12.78-5.11c-3.38-1.32-6.65-2.58-9.74-3.74c-13.97-5.31-24.33-8.9-24.33-8.9l-41.37,13.1L-2339.82,973.13z"
			/>
		<polygon class="st44" points="-2451.15,1031.9 -2333.83,1028.96 -2358.06,883.16 -2474.23,886.6 		"/>
		<path class="st49" d="M-2350.64,940.66c0,0-23.3-1.62-24.47,3.81c-2.73,12.66,20.03,23.07,27.4,22.35
			C-2326.27,964.71-2331.57,947.64-2350.64,940.66z"/>
	</g>
	<path class="st47" d="M-2258.63,795.18c-11.7-12.81-32.86-18.41-46.6-20.7c-5.02,6.33-9.27,17.95-4.44,28.33
		c8.59,28.46,21,70.66,26.95,96.06c2.55,10.87,3.92,18.67,3.3,20.99c-2.72,10.15-30.58,19.05-48.42,21.36
		c-7.44,0.96-13.09,1.42-14.35,1.51c-0.09,0-4.88,12.45-0.95,33.53c0,0,48.08,6.29,71.51,6.05c3.46-0.04,6.85-0.17,10.14-0.43
		c4.49-0.35,8.79-0.92,12.79-1.77c8.56-1.81,15.74-4.87,20.43-9.65C-2193.43,934.98-2247.3,807.57-2258.63,795.18z"/>
	<path class="st49" d="M-2469.98,908.28c0,0,17.31-5.78,19.45-0.71c5,11.83-9.87,26.05-15.63,26.68
		C-2471.91,934.89-2474.24,908.42-2469.98,908.28z"/>
</g>
<path class="st54" d="M-1161.95,841.49c-0.14-0.34-0.31-0.69-0.52-1.07c-0.68-2.64-6.59-16.61-7.25-18.15
	c-1.86-4.35-4.9-2.04-4.9,1.21c0,1,0.43,8.18,0.18,9.22c-5.02-3.7-8.12-7.55-21.07-11.21c0,0-9.88-3.25-5.13,6.71
	c3.18,6.66,6.96,7.49,11.59,16.8c4.63,9.31,13.18,15.71,20.83,15.13l8.21,2.78l8.3-12.28l-5.34-3.3
	C-1159.26,845.97-1160.93,843.9-1161.95,841.49z"/>
<g>
	<g>
		<path class="st55" d="M-539.31,1044.49c0,0-1.46-0.43-3.99,0.37c-2.41,0.16-5.27,0.2-6.66-0.33c-2.63-1-4.86,1.49-3.2,3.58
			c0.56,0.7,1.29,1.24,2.15,1.63c-4.06,3.77-8.94,10.12-14.28,20.82c0,0-4.47,8.09,5,5.59c6.33-1.67,7.69-4.84,16.58-7.33
			c8.89-2.5,15.89-8.9,16.64-15.67l3.78-6.71l-9.34-9.28L-539.31,1044.49z"/>
		<path class="st48" d="M-519.04,786.06c0,0,73.61,38.84,64.66,151.3c-2.42,30.36-70.87,119.16-70.87,119.16
			s-12.93-6.05-12.85-15.55c0,0,33.28-96.05,40.43-102.32c6.34-5.56-30.3-91.03-32.17-114.48
			C-531.7,800.72-519.04,786.06-519.04,786.06z"/>
	</g>
	<path class="st56" d="M-395.04,1384.98c0,0,12.84,11.72,10.33,20.04s-14.09,13.87-15.66,24.05c-1.57,10.17-7.83,15.72-13.46,15.72
		s-26.87,0-26.87,0s-4.15-7.16,5.87-9.32c10.02-2.16,13.8-14.11,13.17-25.21c-0.63-11.1,0.94-25.9,0.94-25.9l21.29-4.93
		L-395.04,1384.98z"/>
	<path class="st48" d="M-395.04,1377.63c-2.35,6.94-28.19,17.11-28.19,17.11s-14.08-22.19-59.18-101.74
		c-3.88-6.85-7.94-14.37-12.11-22.38c-44.28-85.06-101.54-226.42-101.54-226.42l109.44-30.52c0,0,5.16,43.93,6.1,66.13
		c0.57,13.56,8.29,42.55,18.09,67.87c6.23,16.11,13.32,30.73,19.95,38.95C-412.29,1224.08-395.04,1377.63-395.04,1377.63z"/>
	<path class="st56" d="M-462.43,1147.68c-6.88,34.89-19.5,93.31-32.08,122.94c-44.28-85.06-101.54-226.42-101.54-226.42
		l109.44-30.52c0,0,5.16,43.93,6.1,66.13C-479.95,1093.38-472.23,1122.36-462.43,1147.68z"/>
	<path class="st56" d="M-552.53,1415.28c0,0,2.3,26.66-3.33,29.44l-72.13-0.15c0,0,0-8.32,11.59-10.17
		c11.58-1.85,31.94-8.63,35.38-23.74C-577.58,1395.55-552.53,1415.28-552.53,1415.28z"/>
	<path class="st48" d="M-613.43,1038.65c0,0,3.8,46.74,8.28,102.91c6.08,76.31,13.39,170.05,14.11,187.81
		c1.25,30.84,6.27,80.16,6.27,80.16s11.89,11.72,35.69,6.78c0,0,21.21-70.41,27.27-144.92c0.09-1.22,0.19-2.45,0.28-3.68
		c5.64-75.84,14.4-235.55,14.4-235.55L-613.43,1038.65z"/>
	<path class="st57" d="M-513.7,783.36c0,0-42.81,28.16-69.55,19.85c0,0,7.44-11.26,14.52-20.26c-0.93-5.37-1.65-10.03-2.06-13.98
		c-1.13-9.12-1.13-14.28-1.13-14.28l17.9-14.08l16.97-13.47C-538.39,765.03-513.7,783.36-513.7,783.36z"/>
	<path class="st47" d="M-453.29,1127.1c-54.4,36.73-164.33,26.23-165.15,25.53c-1.83-23.38-2.87-61.93-3.44-97.61
		c-0.23-14.88-0.4-29.25-0.5-41.81c-0.21-24.88-0.2-42.67-0.17-43.24c0,0,0.03-1.34,0.09-3.61c0.18-7.2,0.62-23.71,1.09-36.01
		c0.09-2.3,0.17-4.45,0.26-6.36c0.01-0.11,0.01-0.2,0.02-0.31c0.34-5.53,3.72-20.3,8.47-37.51c0.03-0.11,0.06-0.2,0.09-0.31
		c6.97-25.16,16.83-55.42,24.4-69.52c3.92-7.26,17.03-28.29,17.03-28.29c9.26,1.83,15.93-0.9,25.71-5.66
		c10.7-5.17,22.22-10.74,24.08-9.32c13.99,10.23,23.45,33.22,28.5,62.6C-489.94,852.58-450.6,1125.27-453.29,1127.1z"/>
	<path class="st58" d="M-536.74,741.63c0,0-11.73,21.37-34.05,27.35c-1.13-9.12-1.13-14.28-1.13-14.28l17.9-14.08L-536.74,741.63z"
		/>
	<path class="st57" d="M-580.09,754.08c0,0,44.26,7.24,48.42-19.97c4.15-27.21,12.67-44.6-15.42-50.37
		c-28.08-5.77-35.17,3.8-38.8,12.54C-589.52,705.03-591.49,751.49-580.09,754.08z"/>
	<path class="st59" d="M-515.58,680.48c0.4-0.46,1.33-0.83,3.39-0.94c0,0-1.65-1.03-3.85-1.09c-0.43-2.87-1.96-7.94-6.89-9.18
		c0,0,2.65,1.41,3,4.46c-5.72-5.87-17.97-10.14-51.89-7.47c-44.7,3.53-29.97,32.15-24.18,35.56c5.79,3.41,20.36-5.94,31.14-5.09
		c10.78,0.86,12.83,16.44,16.49,18.58c3.66,2.14,2.22-1.64,7.17-3.88c4.95-2.24,5.42,5.96,3.99,11.3
		c-1.43,5.33,5.37,12.37,5.37,12.37s0,0,6.87-7.4c6.87-7.4,13.35-38.75,10.23-45.43C-515.03,681.68-515.3,681.08-515.58,680.48z"/>
	<path class="st48" d="M-622.38,1013.22c-0.21-24.88-0.2-42.67-0.17-43.24c0,0,0.03-1.34,0.09-3.61c0.18-7.2,0.62-23.71,1.09-36.01
		c0.09-2.3,0.17-4.45,0.26-6.36c0.01-0.11,0.01-0.2,0.02-0.31c0.34-5.53,3.72-20.3,8.47-37.51c0.03-0.11,0.06-0.2,0.09-0.31
		c40.38-44.24,86.09-68.49,86.09-68.49S-514.6,971.18-622.38,1013.22z"/>
	<path class="st48" d="M-521.2,773.06c0,0-4.11-11.95-7.46-13.3c0,0-46.58,10.75-62.12,62.23
		C-590.78,821.99-572.65,790.4-521.2,773.06z"/>
	<g>
		<path class="st59" d="M-759.06,932.68l-2.73,0.63c-0.6,0.14-1.19-0.24-1.32-0.84l-40.56-185.12c-0.13-0.59,0.24-1.17,0.83-1.31
			l0.02-0.01c0.59-0.14,1.18,0.23,1.32,0.82l43.27,184.49C-758.1,931.95-758.47,932.55-759.06,932.68z"/>
	</g>
	<g>
		<path class="st55" d="M-766.45,878.92c0,0-9.77-16.17-14.21-17.52c-4.44-1.35-5.95,7.65-5.06,13.36c1,6.41,3.19,12.75,7.61,14.57
			c4.42,1.83,8.42,2.43,8.42,2.43L-766.45,878.92z"/>
		<path class="st55" d="M-765.23,878.55c0,0-0.98-5.69-2.43-6.59c-1.46-0.9-7.12-2.49-8.54-2.3c-1.42,0.2,6.02,10.51,8.07,10.7
			C-766.09,880.55-765.23,878.55-765.23,878.55z"/>
		<path class="st47" d="M-514.02,820.58c0,0-15.47,81.78-125.59,106.3c-29.73,6.62-134.74-32.68-134.74-32.68
			s1.98-14.14,11.08-16.86c0,0,101.59,3.56,109.69,8.55c7.19,4.43,78.09-55.73,99.96-64.41
			C-531.75,812.79-514.02,820.58-514.02,820.58z"/>
	</g>
</g>
<g>
	<g>
		<rect x="-1606.79" y="598.95" class="st2" width="431.4" height="620.79"/>
		<g>
			<rect x="-1496.16" y="654.85" class="st22" width="196.64" height="10.21"/>
			<rect x="-1521.58" y="678.54" class="st22" width="98.32" height="10.21"/>
			<rect x="-1411.4" y="678.54" class="st22" width="144.3" height="10.21"/>
		</g>
		<g>
			<rect x="-1511" y="908.52" class="st60" width="212.15" height="7.77"/>
			<g>
				<rect x="-1399.13" y="887.78" class="st60" width="150.22" height="7.77"/>
				<rect x="-1560.95" y="887.78" class="st60" width="146.34" height="7.77"/>
			</g>
			<g>
				<rect x="-1392.85" y="867.04" class="st60" width="129.23" height="7.77"/>
				<rect x="-1546.24" y="867.04" class="st60" width="129.23" height="7.77"/>
			</g>
		</g>
		<g>
			<g>
				<path class="st61" d="M-1370.31,985.19h-62.38c-2.83,0-5.15-2.32-5.15-5.15l0,0c0-2.83,2.32-5.15,5.15-5.15h62.38
					c2.83,0,5.15,2.32,5.15,5.15l0,0C-1365.16,982.87-1367.47,985.19-1370.31,985.19z"/>
				<path class="st61" d="M-1283.28,985.19h-62.38c-2.83,0-5.15-2.32-5.15-5.15l0,0c0-2.83,2.32-5.15,5.15-5.15h62.38
					c2.83,0,5.15,2.32,5.15,5.15l0,0C-1278.13,982.87-1280.45,985.19-1283.28,985.19z"/>
			</g>
			<g>
				<g>
					<path class="st61" d="M-1359.48,1121.86c-30.99,0-56.2-25.21-56.2-56.2c0-30.99,25.21-56.2,56.2-56.2
						c30.99,0,56.2,25.21,56.2,56.2C-1303.28,1096.65-1328.49,1121.86-1359.48,1121.86z M-1359.48,1012.3
						c-29.43,0-53.37,23.94-53.37,53.37c0,29.43,23.94,53.36,53.37,53.36c29.43,0,53.36-23.94,53.36-53.36
						C-1306.11,1036.24-1330.05,1012.3-1359.48,1012.3z"/>
				</g>
				<g>
					<path class="st61" d="M-1359.48,1110.94c-24.97,0-45.28-20.31-45.28-45.28s20.31-45.28,45.28-45.28
						c24.97,0,45.28,20.31,45.28,45.28S-1334.51,1110.94-1359.48,1110.94z M-1359.48,1023.21c-23.41,0-42.45,19.04-42.45,42.45
						c0,23.41,19.04,42.45,42.45,42.45c23.41,0,42.45-19.04,42.45-42.45C-1317.03,1042.25-1336.07,1023.21-1359.48,1023.21z"/>
				</g>
				<g>
					<path class="st61" d="M-1358.88,1083.42c-5.88,1.91-11.62,2.9-16.13,2.53c-6.88-0.57-10.75-4.18-10.9-10.15
						c-0.12-4.74,1.84-8.89,5.7-12.25c-0.04-0.32-0.07-0.65-0.09-0.97c-0.25-3.34,0.46-5.56,2.12-6.6c2.69-1.67,6.68,0.62,6.84,0.71
						l-0.89,1.53c-0.89-0.52-3.55-1.67-5.02-0.74c-1.27,0.79-1.42,2.98-1.31,4.76c3.14-2.27,7.23-4.12,12.23-5.47
						c3.69-1,7.8-1.67,11.52-1.97c0.02-0.42,0.05-0.79,0.1-1.09c0.12-0.82,0.41-1.78,1.21-1.97c0.31-0.07,0.9-0.06,1.43,0.74
						c0.34,0.52,0.51,1.26,0.54,2.15c1.28-0.03,2.47-0.01,3.52,0.07c0.01-0.02,0.02-0.04,0.03-0.07c-0.26-2.09-0.08-4.56,0.27-6.15
						c0.45-2.05,1.18-3.08,2.21-3.18c0.62-0.06,1.15,0.28,1.4,0.87c0.58,1.39-0.5,5.13-2.07,8.73c0,0.01,0,0.01,0,0.02
						c1.46,0.25,2.46,0.65,2.77,1.22c0.24,0.43,0.27,1.08-0.36,1.66c-1.18,1.09-2.13,0.82-2.58,0.55c-0.39-0.22-0.7-0.6-0.95-1.08
						c-1.18,2.34-2.47,4.34-3.48,5.18c-0.93,0.78-1.75,0.47-2.06,0.3c-0.16-0.09-0.31-0.21-0.45-0.36c-0.4,0.98-0.86,1.93-1.35,2.78
						c-1.85,3.24-3.93,4.91-6.02,4.81c-0.86-0.04-1.61-0.38-2.25-1c-1.16,2.5-2.61,4.88-4.05,6.66c-1.47,1.81-3.34,2.48-5.28,1.87
						c-3.43-1.07-6.53-6.03-7.69-11.9c-2.93,2.86-4.35,6.26-4.26,10.14c0.13,5.09,3.26,7.93,9.29,8.43
						c15.22,1.27,41.9-12.88,43.93-23.29l0,0C-1332.59,1069.36-1345.25,1079.01-1358.88,1083.42z M-1378.35,1064.26
						c0.93,6.2,4.03,10.75,6.66,11.57c1.23,0.39,2.37-0.05,3.38-1.3c1.71-2.12,3.19-4.73,4.25-7.27c-0.31-0.66-0.55-1.43-0.74-2.31
						c-0.43-2.04-0.49-4.85,0.01-6.77c-2.84,0.7-5.69,1.65-8.33,2.9C-1375.13,1062.04-1376.88,1063.1-1378.35,1064.26z
						 M-1362.1,1067.15c0.38,0.58,0.88,1.03,1.55,1.06c1.34,0.06,2.95-1.37,4.4-3.92c0.76-1.33,1.37-2.75,1.82-4.12
						c-0.29-1.11-0.45-2.4-0.5-3.59c-1.96,0.16-4.09,0.42-6.29,0.82C-1359.96,1059.63-1360.62,1063.4-1362.1,1067.15z
						 M-1352.48,1060.2c0.28,0.83,0.52,0.99,0.52,0.99c0.99-0.85,2.11-2.69,3.14-4.78c-0.84-0.03-1.78-0.04-2.81-0.01
						C-1351.77,1057.59-1352.06,1058.89-1352.48,1060.2z M-1362.84,1057.93c-0.45,0.94-0.77,3.94-0.23,6.61
						C-1362.18,1061.61-1362,1059.08-1362.84,1057.93z M-1345.45,1056.81C-1345.45,1056.81-1345.45,1056.81-1345.45,1056.81
						C-1345.45,1056.81-1345.45,1056.81-1345.45,1056.81z M-1345.71,1047.74c-0.16,0.45-0.31,1.1-0.42,1.85
						C-1345.92,1048.86-1345.78,1048.23-1345.71,1047.74z"/>
				</g>
			</g>
		</g>
	</g>
	<g>
		<rect x="-1523.37" y="814.09" class="st60" width="236.88" height="7.77"/>
		<g>
			<rect x="-1398.45" y="793.35" class="st60" width="167.74" height="7.77"/>
			<rect x="-1579.14" y="793.35" class="st60" width="163.4" height="7.77"/>
		</g>
		<g>
			<rect x="-1391.44" y="772.61" class="st60" width="144.3" height="7.77"/>
			<rect x="-1562.71" y="772.61" class="st60" width="144.3" height="7.77"/>
		</g>
	</g>
</g>
<g>
	<path class="st48" d="M-987.96,828.89c0,0,36.27,138.94-74,115.84c-29.77-6.23-109.08-85.27-109.08-85.27s7.63-12.04,17.03-10.76
		c0,0,76.63,24.92,88.88,33.94c6.79,5,14.54-73.72,38.01-72.6C-1003.66,811.15-987.96,828.89-987.96,828.89z"/>
	<path class="st62" d="M-938.27,1416.39c0,0-2.03,32.68-8.35,33.15c-0.84,0.06-32.06,0.06-32.06,0.06l-39.86-0.23
		c0,0,0.26-9.6,11.91-11.63c11.65-2.03,31.15-10.22,38.21-25.62C-960.99,1395.91-938.27,1416.39-938.27,1416.39z"/>
	<path class="st63" d="M-935.97,1418.66c0,0-12.12,4.05-21.58,4.05c-10.55,0-20.14-2.88-20.14-2.88s-2.28-22.06-14.83-70.67
		c-6.58-25.48-15.98-58.24-29.35-98.94c-36.97-112.5-48.22-178.31-49.24-184.54c-0.05-0.33-0.08-0.49-0.08-0.49l0.12-0.05
		l113.67-49.91c0,0-14.05,155.05,3.88,214.56c2.51,8.32,4.66,18.01,6.51,28.51C-935.71,1322.94-935.97,1418.66-935.97,1418.66z"/>
	<path class="st64" d="M-947.03,1258.3l-45.5,90.86c-6.58-25.48-15.98-58.24-29.35-98.94c-36.97-112.5-48.22-178.31-49.24-184.54
		c0.01-0.19,0.02-0.36,0.04-0.55l113.67-49.91c0,0-14.05,155.05,3.88,214.56C-951.02,1238.11-948.87,1247.8-947.03,1258.3z"/>
	<path class="st62" d="M-1027.05,1416.39c0,0-2.03,32.68-8.35,33.15c-0.84,0.06-32.07,0.06-32.07,0.06l-39.86-0.23
		c0,0,0.26-9.6,11.91-11.63c11.65-2.03,31.15-10.22,38.21-25.62C-1049.77,1395.91-1027.05,1416.39-1027.05,1416.39z"/>
	<path class="st63" d="M-1091.49,1018.88c0,0-1.48,100.47,15.91,223.84c17.38,123.36,11.49,175.73,11.49,175.73
		s11.94,3.87,16.76,4.26c12.28,1,24.87-2.88,24.87-2.88s24.88-123.41,17.75-185.16c-7.13-61.75,34.07-211.88,34.07-211.88
		L-1091.49,1018.88z"/>
	<path class="st54" d="M-1008.71,779.79l-19.93,17.5l-32.58-1.44c0.08-2.62,0.67-13.54,1.22-23.43c0.04-0.58,0.07-1.17,0.1-1.74
		c0.48-8.42,0.9-15.65,0.9-15.65l27.8-17.27l10.37-6.44c0,0.18,0.43,9.21,0.49,10.52C-1019.15,765.26-1008.71,779.79-1008.71,779.79
		z"/>
	<path class="st47" d="M-1098.12,1023.23c0.46,53.03,3.99,177.1,6.59,179.62c27.62,26.66,149.12-7.31,155.56-36.68
		c6.43-29.37-24.48-376.64-71.66-390.51c-9.79-2.87-62.13,14.05-62.13,14.05s-8.21,21.47-13.59,48.83
		c-1.99,10.14-8.51,82.47-12.31,130.8c-1,12.88-1.82,24.06-2.31,31.9C-1098.17,1004.47-1098.21,1012.36-1098.12,1023.23z"/>
	<path class="st65" d="M-1022.5,742.58c-4.95,11.95-27.87,24.91-37.49,29.84c0.04-0.58,0.07-1.17,0.1-1.74
		c0.48-8.42,0.9-15.65,0.9-15.65l27.8-17.27C-1024.65,736.76-1020.46,737.66-1022.5,742.58z"/>
	<path class="st54" d="M-1069.28,756.22c0,0,50.31,4.68,52.74-26.7c2.43-31.37,10.56-51.9-21.46-56.21s-39.19,7.17-42.55,17.45
		C-1083.9,701.03-1082.3,754.2-1069.28,756.22z"/>
	<path class="st62" d="M-1079.3,687.52c0,0,10.32,33.71,17.11,30.71c6.79-3,12.99-5.48,14.16,5.1c1.16,10.58-6.14,24.63,16.14,21.8
		c22.28-2.83,41.74-65.99,33.45-75.4C-1022.36,642.58-1112.39,655.23-1079.3,687.52z"/>
	<path class="st48" d="M-1056.93,776.42c0.62-0.26,35.91-16.09,40.03-14.73c4.13,1.36,9.27,13.97,9.27,13.97l-62.13,14.05
		C-1069.75,789.7-1064.86,779.76-1056.93,776.42z"/>
	<path class="st48" d="M-1098.12,1061.22c94.54-68.36,101.89-176.72,101.89-176.72c-44.98,25.37-87.69,67.32-101.55,113.42
		c-1,12.88,0.3,33.46-0.18,41.3C-1098.17,1042.46-1098.21,1050.35-1098.12,1061.22z"/>
	<path class="st54" d="M-1157.48,1026.24c0,0-1.19-0.94-3.83-1.16c-2.29-0.77-8.65-3.57-9.75-4.56c-3.46-3.14-4.67,0.2-2.26,3.53
		c0.52,0.72,2.39,1.95,3.05,2.64c-5.17,1.96-12.08,5.99-21.05,13.86c0,0-7.18,5.79,2.52,7.05c6.49,0.84,8.93-1.57,18.09-0.53
		c9.16,1.04,18.05-2.24,21.3-8.21l6.03-4.77l-5.14-12.1L-1157.48,1026.24z"/>
	<path class="st47" d="M-1036.39,792.21c0,0,99.57-4.78,9.53,162.74c-14.4,26.79-117.3,85.01-117.3,85.01s-9.67-10.47-6.02-19.23
		c0,0,67.01-76.26,75.99-79.36c7.97-2.75,6.32-95.6,13.45-117.99C-1053.62,800.99-1036.39,792.21-1036.39,792.21z"/>
</g>
<path class="st22" d="M-2438.55,885.7l46.53-1.35l-1.03-1.92c-0.6-1.13-1.79-1.83-3.07-1.8l-37.28,0.7
	c-1.33,0.03-2.57,0.68-3.33,1.77L-2438.55,885.7z"/>
</svg>
