<?xml version="1.0" encoding="utf-8"?>
<!-- Generator: Adobe Illustrator 25.2.1, SVG Export Plug-In . SVG Version: 6.00 Build 0)  -->
<svg version="1.1" id="Слой_1" xmlns="http://www.w3.org/2000/svg" xmlns:xlink="http://www.w3.org/1999/xlink" x="0px" y="0px"
	 viewBox="0 0 1386.5 736" style="enable-background:new 0 0 1386.5 736;" xml:space="preserve">
<style type="text/css">
	.st0{fill:#EAF2F9;}
	.st1{fill:#2E3552;}
	.st2{fill:#FEFEFE;}
	.st3{fill:#116BC1;}
	.st4{fill:#00519F;}
	.st5{fill:#0D5099;}
	.st6{fill:#023A65;}
	.st7{fill:#02407B;}
	.st8{fill:#004076;}
	.st9{fill:#FEA56D;}
	.st10{fill:#F8FAFE;}
	.st11{fill:#B0CDFA;}
	.st12{fill:#002455;}
	.st13{fill:#063F74;}
	.st14{fill:#9EC2F5;}
	.st15{fill:#CAE0FE;}
	.st16{fill:#EF9458;}
	.st17{fill:#C5DCFA;}
	.st18{fill:#C7D6EE;}
	.st19{fill:#D6DDE3;}
	.st20{fill:#043B65;}
	.st21{fill:#AECCFA;}
	.st22{fill:#20406B;}
	.st23{fill:#1D3D69;}
	.st24{fill:#CFE1F9;}
	.st25{fill:#477090;}
	.st26{fill:#B9D3FB;}
	.st27{fill:#D7E0F2;}
	.st28{fill:#C8D7EF;}
	.st29{fill:#F6F6F6;}
	.st30{fill:#E8F0F7;}
	.st31{fill:#93BCFA;}
	.st32{fill:#D0EDFE;}
	.st33{fill:#CEECFE;}
	.st34{fill:#BDE6FE;}
	.st35{fill:#DDF2FE;}
	.st36{fill:#CEEDFE;}
	.st37{fill:#DAF0FE;}
	.st38{fill:#EAF6FE;}
	.st39{fill:#E5F5FE;}
	.st40{fill:#BFD3E5;}
	.st41{fill:#008349;}
	.st42{fill:#E08853;}
	.st43{fill:#D1DDF0;}
	.st44{fill:#E1ECF9;}
	.st45{fill:#7E9DB5;}
	.st46{fill:#396588;}
	.st47{fill:#C6D5EE;}
	.st48{fill:#337FCC;}
	.st49{fill:#347FCC;}
	.st50{fill:#E1E6F4;}
	.st51{fill:#F2F5FD;}
	.st52{fill:#00519E;}
	.st53{fill:#ADC2FE;}
	.st54{fill:#2B478B;}
	.st55{fill:#172A54;}
	.st56{fill:#AABFFB;}
	.st57{fill:#192E5A;}
	.st58{fill:#2370C3;}
	.st59{fill:#B6D1FA;}
	.st60{fill:#CEEDFD;}
	.st61{fill:#A0D9DC;}
	.st62{fill:#97D6E2;}
	.st63{fill:#87CDB6;}
	.st64{fill:#4EB695;}
	.st65{fill:#72C5B7;}
	.st66{fill:#69C2B4;}
	.st67{fill:#58BBB2;}
	.st68{fill:#68C1B3;}
	.st69{fill:#71C5B9;}
	.st70{fill:#7CC8B8;}
	.st71{fill:#8ACEB9;}
	.st72{fill:#B1CEFA;}
	.st73{fill:#2371C3;}
	.st74{fill:#AFCCFA;}
	.st75{fill:#FEA312;}
	.st76{fill:#FEECDB;}
	.st77{fill:#FEB83E;}
	.st78{fill:#E1810E;}
	.st79{fill:#FEA91E;}
	.st80{fill:#FEA91F;}
	.st81{fill:#DA6A1E;}
	.st82{fill:#FEAA21;}
	.st83{fill:#FEAB23;}
	.st84{fill:#FEAB22;}
	.st85{fill:#FEB536;}
	.st86{fill:#FEB232;}
	.st87{fill:#FEB73B;}
	.st88{fill:#FEA81B;}
	.st89{fill:#FEB83D;}
	.st90{fill:#FEAD29;}
	.st91{fill:#FEB334;}
	.st92{fill:#FEA81C;}
	.st93{fill:#E6C3A5;}
	.st94{fill:#FEA517;}
	.st95{fill:#FEAD27;}
	.st96{fill:#E7C5A8;}
	.st97{fill:#FEA81D;}
	.st98{fill:#FEA71A;}
	.st99{fill:#FEB73C;}
	.st100{fill:#FEFEFD;}
	.st101{fill:#FEA71B;}
	.st102{fill:#70C4B8;}
	.st103{fill:#4DB595;}
	.st104{fill:#55B795;}
	.st105{fill:#6FC4B8;}
	.st106{fill:#BDE6FD;}
	.st107{fill:#BBE4E9;}
	.st108{fill:#9FD8D6;}
	.st109{fill:#4DB594;}
	.st110{fill:#55B794;}
	.st111{fill:#F5F5F5;}
	.st112{fill:#FDFDFE;}
	.st113{fill:#FDFEFE;}
	.st114{fill:#F9FBFD;}
	.st115{fill:#FAFCFD;}
	.st116{fill:#FCFDFE;}
	.st117{fill:#FBFCFD;}
	.st118{fill:#F09110;}
	.st119{fill:#FEB83C;}
	.st120{fill:#F8DCBE;}
	.st121{fill:#FEA516;}
	.st122{fill:#FEB02C;}
	.st123{fill:#FEA91D;}
	.st124{fill:#FEA412;}
	.st125{fill:#FEA619;}
	.st126{fill:#FEA618;}
	.st127{fill:#FEA413;}
	.st128{fill:#FEA719;}
	.st129{fill:#FCFDFD;}
	.st130{fill:#136CC2;}
	.st131{fill:#186FC3;}
	.st132{fill:#1D72C4;}
	.st133{fill:#176EC3;}
	.st134{fill:#176FC3;}
	.st135{fill:#146DC2;}
	.st136{fill:#1C72C4;}
	.st137{fill:#7AC7B6;}
	.st138{fill:#54B89A;}
	.st139{fill:#7DC8B8;}
	.st140{fill:#64BFAC;}
	.st141{fill:#70C5B9;}
	.st142{fill:#CDEDFD;}
	.st143{fill:#CCECFC;}
	.st144{fill:#DBF1FD;}
	.st145{fill:#70C4B9;}
</style>
<g>
	<path class="st0" d="M1383.5,588.5c0,6.7,0,13.3,0,20c-0.5,4.2-0.2,8.4-0.8,12.6c-2.4,17.7-7.2,34.6-14.5,50.9
		c-8,17.9-18.5,34.2-31,49.3c-2.3,2.8-4.8,5.5-7.2,8.3c-0.8,0.9-1.6,1.7-2.8,2c-1.4,0.3-2.8,0.2-4.2,0.2c-72.5,0-145,0-217.4,0
		c-1.5,0-3,0.2-4.5-0.3c-0.3-0.1-0.5-0.3-0.7-0.6c-0.5-3.1-0.2-6.3-1-9.3c-1.4-4.6-1.3-9.1-0.1-13.7c0.8-3,1.3-6.2,2.5-9.1
		c0.9-1.2,1.3-2.7,1.6-4.2c4.5-23.6,8.6-47.3,12-71.2c1.9-13.9,4.1-27.7,5.8-41.6c0.6-4.9,1-9.8,1.6-14.6c0.5-1,1.5-1.2,2.4-1.6
		c1.3-0.5,2.7-0.9,4-1.4c3.2-1.3,3.2-1.3,2.1-4.4c-3.2-9.9-6.2-19.9-9.2-29.9c-2-6.6-3.9-13.2-5.9-19.8c-0.3-1.1-0.8-2.2-0.4-3.4
		c0.1-0.2,0.3-0.5,0.5-0.5c3.7-0.6,4.5-3.5,5.2-6.5c1.5-6.6,2-13.3,1.9-20c0-1.6-0.3-3.3,0.5-4.9c3.8-4.1,8.2-7.6,12.3-11.3
		c3.1-2.8,6.2-5.6,9.5-8.1c1.3-1,1.6-2,0.9-3.4c-0.4-0.8-0.8-1.7-1-2.6c-0.2-0.6-0.6-1.4,0.1-1.8c0.7-0.5,1.2,0.2,1.7,0.6
		c1,0.8,1.7,1.8,2.3,2.9c0.2-0.2-0.1-0.4-0.1-0.6c-3.3-9.2-10-15.4-18-20.3c-4.3-2.6-8.8-4.7-13.3-6.9c-1.6-0.8-3.2-1.8-4.6-3
		c-2.6-2.3-3.8-5.1-3.8-8.6c0.1-7.3-1.3-14.2-4.6-20.8c-3.5-6.9-8.2-9.2-15.7-7.7c-2.5,0.5-5,0.2-7.5,0.3c-4.2,0.3-7.6,1.7-9.4,5.8
		c-0.7,1.6-1.9,2.9-3.2,4c-3.9,3.4-3.6,7.9-2.9,12.5c0.2,1.4,0.8,2.7,1,4.1c0,0.8-0.2,1.6-0.2,2.4c-0.4,7.4,0.5,14.7,3,21.7
		c-0.2,1.2-1.4,1.4-2.3,1.7c-9.9,3.7-18.3,9.7-26.2,16.6c-3.6,3.1-6.7,6.7-10,10.1c-2.5,2.5-5.4,3.2-8.7,1.7
		c-9.9-4.5-19.9-9-29.3-14.6c-0.7-0.4-1.5-0.8-2-1.4c-1.9-3.9-4.4-7.2-9-8.2c-0.4-0.1-0.8-0.2-1.2-0.2c-3-0.4-5.5,0.5-6,2.3
		c-0.7,2.4,1,3.8,2.7,5.1c0.8,0.6,1.6,1.2,2.2,2c2.3,3.6,5.5,5.4,9.7,5.5c0.8,0.5,1.4,1.2,1.8,2c5.8,10.9,15.5,17.6,25.9,23.4
		c2.2,1.3,4.5,2.5,6.8,3.7c1.6,0.8,3.1,1,4.8,0.4c7-2.2,13.9-4.5,20.3-8.1c2.1-1.2,2.3-1.1,2.7,0.9c-0.8,1.4-0.3,2.9-0.2,4.4
		c0.2,4.2,0.2,8.5,0.4,12.7c0.3,5.2-0.2,10.5-0.5,15.7c-0.6,10.5-1.6,21-2.8,31.5c-0.7,5.5-1.3,11.1-2,16.6
		c-0.4,3.6-0.4,3.6,2.7,5.4c0.4,0.2,0.7,0.4,1,0.7c0.7,1,0.3,2.1,0.1,3.1c-4.3,20.3-9.1,40.6-14.3,60.7
		c-4.2,16.3-8.7,32.5-13.6,48.5c-1.9,6.2-3.9,12.4-5.8,18.6c-0.4,1.2-0.9,2.4-0.9,3.6c-0.6,3.4-2.6,6.1-4.4,8.8
		c-3.8,6-8.6,11.3-13.3,16.7c-2.7,1.7-5.8,3-7.1,6.2c-0.3,0.5-0.8,0.9-1.3,1c-1.2,0.3-2.5,0.3-3.7,0.3c-20.3,0-40.5,0-60.8,0
		c-1.3,0-2.7,0.1-3.9-0.4c-1.1-0.6-1.3-1.7-1.5-2.7c-3.8-20.4-7.7-40.9-11.5-61.3c-3.6-19.1-7.2-38.3-10.7-57.4
		c-4-21.5-8.2-43-12-64.5c-0.1-0.4-0.2-0.8-0.3-1.2c-0.4-8-0.1-16.1-0.2-24.1c0-0.7,0-1.5,0-2.2c0-5.3,0-5.3-4.9-6.4
		c-1.1-0.6-1.3-1.7-1.5-2.8c-4.9-25.9-9.7-51.9-14.6-77.8c-4.1-21.7-8.1-43.4-12.2-65.1c-6-31.9-12-63.8-17.9-95.8
		c-4.9-26.2-9.8-52.4-14.7-78.6c-3.6-19.3-7.2-38.6-10.8-58c-0.4-2.3-0.3-4.9-2.1-6.8c-2.9-4.2-4.6-9-6.6-13.6
		c-0.2-0.5-0.1-1,0.4-1.3c3-0.7,6.1-0.5,9.2-0.7c17.5-1.4,34.9-4.1,52.2-7.1c22.5-3.9,44.9-7.9,67.6-10.3
		c11.8-1.3,23.7-1.9,35.6-2.3c7.8-0.2,15.6,0,23.4,0.3c12.6,0.5,25.2,1.9,37.7,4.2c25.7,4.6,50.4,12.3,74.2,23c1.4,0.6,2.7,1.3,4,2
		c2.3,1.3,2.4,1.7,1.3,4.1c-0.1,0.3-0.4,0.6-0.5,0.8c0,0.2,0.3,0,0.5-0.1c1.1-0.2,2.1-0.1,3.2-0.5c1.3-0.1,2.5-0.6,3.8-0.2
		c4.2,2.7,8.6,5.1,12.8,7.8c12.1,7.6,22.6,17,32.2,27.5c7.4,8.1,13.6,17.1,18.8,26.7c11.1,20.6,17,42.8,19.8,65.9
		c0.9,7.7,1.6,15.4,2,23.1c0.9,16.6,0.2,33.1,0.4,49.7c0.1,9.4-0.2,18.8,0.1,28.2c0.3,10.3,1,20.6,4,30.6
		c2.3,7.6,5.7,14.6,12.4,19.5c3.3,2.5,7.1,4.1,11.1,5.1c15.3,3.9,30,9.4,44.2,16.5c17.1,8.5,32.9,19,47.1,31.7
		c17.5,15.6,32.2,33.4,43.5,54.1c11.3,20.6,18.6,42.5,21.4,65.9C1383.3,580.9,1383,584.7,1383.5,588.5z"/>
	<path class="st0" d="M6.6,569c1.2-2.7,0.6-5.7,0.9-8.5c1.2-12.6,3.7-24.9,7.2-37c3.3-11.6,7.9-22.8,13.3-33.5
		c5.7-11.3,12.2-22.1,19.7-32.3c7.8-10.5,16.3-20.5,25.4-30c8.6-9,17.8-17.4,28.2-24.4c11-7.3,22.6-13.3,34.7-18.5
		c11.7-5,23.3-10.2,34.9-15.4c11-4.9,21.6-10.4,31.5-17.2c13.8-9.5,25.1-21.3,33.3-36c3.4-6.1,6-12.6,8.5-19.1
		c2.7-0.7,3-2.7,2.8-5.1c-0.2-1.8,0-3.7,0-5.5c0-0.9-0.1-1.9,0.7-2.5c1.8-5.6,2.6-11.4,3.4-17.2c1.4-9.1,1.5-18.3,2.2-27.5
		c0.7-9.3-0.2-18.4-0.3-27.6c-0.1-9.2-1.4-18.5-1.9-27.7c-1.1-20.8,2.7-40.7,10.5-59.9c5.3-13,12.7-24.8,21-36
		c0.5-0.7,1.3-0.8,2-0.8c7.4,0,14.9-0.3,22.3,0.2c2.4,1.7,1.2,4,1,6.1c-0.1,1-0.8,1.8-1.2,2.7c-4.5,9-9,17.9-13.5,26.9
		c-0.6,1.1-1.2,2.2-1.5,3.4c-3.4,17.4-6.6,34.9-9.9,52.3c-8.1,42.6-16.2,85.3-24.2,127.9c-2.7,14.2-5.3,28.5-8.1,42.7
		c-0.3,1.4-0.3,2.9-1.6,3.8c-1.5,0.5-3,0.3-4.4,0.3c-4,0-4.1,0.1-4.1,4c0,12.3,0,24.6,0,36.9c0,3.2,0.1,6.3-0.1,9.5
		c-2.2,10.8-4.2,21.7-6.2,32.6c-4,21-7.9,42.1-12,63.1c-0.6,2.9-1,5.9-1.7,8.8c-0.2,1.1-0.4,2.1-1.5,2.8c-0.8,0.4-1.6,0.4-2.4,0.4
		c-2.9,0.2-3,0.3-3,3.3c0,9.2,0,18.4,0,27.6c0,1.3,0.1,2.7-0.2,4c-2.7,13.6-5.2,27.1-7.7,40.7c-3.3,17.4-6.6,34.8-9.9,52.3
		c-5.6,29.4-11.1,58.7-16.7,88.1c-0.3,1.4-0.2,2.9-1.6,3.8c-1.2,0.5-2.5,0.4-3.7,0.4c-36.9,0-73.8,0-110.7,0c-1.2,0-2.3,0.1-3.5-0.2
		c-1-0.3-1.5-1-2-1.8c-16.2-24.9-29.8-51-38.9-79.4c-5-15.6-8.5-31.5-10.3-47.8c-0.4-4-0.1-8.1-0.6-12.1
		C6.6,583.3,6.6,576.1,6.6,569z"/>
	<path class="st0" d="M285.1,85c5.4-6.4,11-12.7,17.2-18.3c12.1-11.1,25.3-20.8,39.6-29.1c16.3-9.3,33.3-16.9,51.1-22.7
		c14.3-4.7,29-8.2,43.9-10.7c9-1.5,18.2-2.5,27.3-3.2c3.4-0.3,7,0.4,10.3-0.8c8.8,0,17.7,0,26.5,0c0.5,0.6,1.2,0.5,1.8,0.5
		c11.4,0.3,22.6,1.7,33.8,3.4c18.3,2.8,36.2,7.4,53.7,13.5c16.5,5.8,32.4,12.9,47.6,21.5c9.8,5.5,19.3,11.4,28.3,18
		c7.6,5.5,14.9,11.3,22,17.5c4.2,3.7,8.6,7.2,13.2,10.5c-0.6,0.7-1.4,0.8-2.2,0.8c-7.1,0-14.2,0.2-21.3-0.1
		c-1.9-0.4-3.4-1.7-4.9-2.8c-1-0.7-1.6-0.8-2.6,0c-1.6,1.3-3.4,2.3-5.5,2.8c-1.3,0.2-2.7,0.2-4,0.2c-33.4,0-66.9,0-100.3,0
		c-1.5,0-3,0.2-4.4-0.4c-1.1-0.8-1-2.1-1-3.2c0-1.9-0.9-2.5-2.6-2.4c-1.9,0.1-3.8,0-5.7,0c-1.4,0-2.1,0.6-2.2,2.1
		c0,1.2,0.2,2.5-0.9,3.5c-1.2,0.6-2.4,0.5-3.7,0.5c-72.2,0-144.4,0-216.7,0c-1.2,0-2.5,0.1-3.7-0.4c-1.2-0.9-1-2.2-1-3.4
		c0-1.6-0.7-2.2-2.3-2.2c-1.8,0-3.7,0.1-5.5,0c-1.8-0.1-2.8,0.6-2.7,2.6c0,1.1,0.1,2.2-0.9,3c-0.9,0.5-1.9,0.5-2.9,0.5
		c-5.4,0-10.8,0-16.2,0C287.2,85.8,286,86,285.1,85z"/>
	<path class="st1" d="M57.6,730.9c0.9,0,1.8,0.1,2.7,0.1c37.8,0,75.7,0,113.5,0c0.9,0,1.8-0.1,2.7-0.1c0.8-0.6,1.7-0.7,2.6-0.7
		c10.8,0,21.6-0.1,32.4,0c1.5-0.1,3-0.1,4.5-0.1c64.1,0,128.3,0,192.4,0c1,0,2,0,3,0.1c13-0.1,26-0.1,39.1,0c1.5-0.2,3-0.1,4.5-0.1
		c62.8,0,125.6,0,188.4,0c1,0,2,0,3,0.1c13-0.1,26-0.1,39.1,0c1.5-0.1,3-0.1,4.5-0.1c64.5,0,128.9,0,193.4,0c1,0,2,0,3,0.1
		c10.8-0.1,21.6-0.1,32.5,0c0.9,0,1.8,0.1,2.6,0.7c13.8,0,27.6,0.1,41.5,0.1c9.3,0,18.7,0,28,0c0.9-0.7,2-0.7,3.1-0.7
		c4.1,0,8.2,0,12.2,0c3.4-0.2,6.8,0.2,10.2-0.3c1.1-0.2,2.2-0.2,3.3,0c1.7,0.3,3.3,0.2,5,0.2c20.1,0,40.1,0,60.2,0c1,0,2,0,3,0.1
		c3.2,0.1,6.4,0,9.6,0c1.1,0,2.1-0.1,3.1,0.7c0.9,0,1.8,0,2.7,0c74,0,148.1,0,222.1,0c0.8,0,1.7-0.1,2.5-0.1
		c1.1-0.6,2.2-0.7,3.4-0.7c8.3,0,16.7,0,25,0c0.6,0,1.2,0,1.7,0.1c1.4,0.2,2.5,0.9,2.9,2.4c0.4,1.5-0.1,2.6-1.5,3.3
		c-444,0-887.9,0-1331.9,0c-1.4-0.7-1.9-1.8-1.5-3.3c0.3-1.5,1.4-2.2,2.8-2.4c0.7-0.1,1.5-0.1,2.2-0.1c7.7,0,15.4,0,23.1,0
		C55.4,730.2,56.6,730.1,57.6,730.9z"/>
	<path class="st2" d="M806.9,126c1.7-0.1,1.8,1.2,2.1,2.3c1.9,10,3.7,20,5.6,30c2.2,11.9,4.5,23.9,6.8,35.8
		c2.9,15.8,5.8,31.7,8.8,47.5c1.7,9.1,3.5,18.2,5.2,27.3c2.5,13.2,4.9,26.5,7.3,39.7c1.9,9.9,3.8,19.8,5.7,29.7
		c2.5,13.2,4.9,26.5,7.3,39.7c1.9,10,3.9,20,5.7,30c2.5,13.2,4.8,26.3,7.3,39.5c1.7,9,3.4,18,5.1,27.1c2.2,11.5,4.3,23.1,6.4,34.6
		c0.1,0.6,0.3,1.1,0.5,1.7c-3,1.5-6,1.1-9,0.3c-0.9-1-0.7-2.3-0.8-3.6c0-5.6,0-11.1,0-16.7c0-1.4,0-2.7-1.3-3.6
		c-0.7-0.9-1-1.9-1.1-3c-2.6-18.1-5.1-36.2-7.8-54.2c-0.1-0.7-0.2-1.3-0.1-2c0.3-1.2,0-2.3-0.5-3.4c-8.6-18.6-16.9-37.4-25.4-56
		c-0.2-0.5-0.4-0.9-0.8-1.2c-2.9-1.9-6.3-2.9-9.4-4.2c-0.8-0.4-1.6-0.8-2.5-1.1c-0.7-0.3-1.1,0.2-1.6,0.6c-0.9,0.6-1.7,1.3-2.4,2.1
		c-0.6,0.6-1.3,1.2-2,1.7c-2,1.5-3.5,3.6-5.6,4.9c-2.4,2.6-5.2,4.7-7.8,7.2c-0.6,0.6-1.3,1.2-2.3,1.3c-5.1-0.7-10.1-2.1-15.1-3.1
		c-1.3,0-1.8,1.1-2.6,1.8c-5.3,5-9.9,10.6-15.2,15.7c-4.4,4.2-8.2,9-12.6,13.1c-0.9,0.8-1.7,1.8-3,2.2c-6.8,1.7-13.8,2.6-20.7,4
		c-1.3,0.3-2.6,0.4-3.8,1c-0.6,0.4-0.7,1.1-0.9,1.7c-6.6,21.8-13.3,43.5-19.9,65.3c-0.6,2-0.7,4.3-2.7,5.7c-2,0.3-2.4,1.6-2.4,3.4
		c0.1,5.5,0,11.1,0,16.6c0,1.2,0.2,2.5-0.7,3.6c-2.8,1.1-5.5,0.8-8.3,0.2c-1.1-1-0.6-2.2-0.3-3.3c2.4-12.7,4.8-25.4,7.2-38.1
		c7.4-39.4,14.9-78.7,22.4-118.1c3.8-20.2,7.7-40.4,11.5-60.6c6.8-36.2,13.7-72.3,20.5-108.5c3.4-18.1,6.8-36.2,10.3-54.2
		c0.2-1.1,0.4-2.3,1.6-3c1-0.4,2-0.4,3-0.4c11.7,0,23.3,0,35,0C804.6,125.2,805.8,125.2,806.9,126z"/>
	<path class="st3" d="M871.6,510.9c3,0,6,0,8.9,0c0.2,0,0.3,0.1,0.5,0.1c1.7,0.1,4.1-0.6,5.1,0.3c1.3,1.2,0.4,3.6,0.4,5.5
		c0.1,9.2,0.1,18.5,0.1,27.7c0.4,4.2,0.8,8.4,0.8,12.7c0,56.3,0,112.6,0,168.9c0,1.6,0.4,3.4-0.8,4.8c-0.8,0-1.7,0.1-2.5,0.1
		c-65.3,0-130.7,0-196,0c-0.8,0-1.7,0-2.5-0.1c-0.4-0.4-0.6-0.8-0.6-1.3c-0.1-3.2-0.2-6.5-0.2-9.7c0-54,0-108,0-162.1
		c0-3.6,0.2-7.2,0.1-10.7c-0.1-10.6,0-21.3,0-31.9c0-4.6,1.2-5.6,5.7-4.9c0.6,0.1,1.1,0.3,1.6,0.6c2.8,0,5.6,0,8.4,0
		c1.4-1,3-0.7,4.6-0.7c31,0,62,0,92.9,0c23.1,0,46.1,0,69.2,0C868.7,510.2,870.3,509.9,871.6,510.9z"/>
	<path class="st4" d="M1016,699.3c-1-0.9-0.1-1.8,0.1-2.5c11.9-37,21.9-74.6,30.5-112.6c1.5-6.6,2.9-13.2,4.3-19.7
		c0.8-0.6,1.6-0.3,2.4-0.2c0.9,0.2,1.8,0.4,2.7,0.6c5.1,1,5.8,0.2,6.2-4.9c0.7-7.8,0.3-15.6,0.4-23.5c0-1.4-0.3-2.9,1.1-3.9
		c0.8-0.4,1.6-0.3,2.4-0.1c7,1.9,14.2,2.4,21.5,2.2c0.5,0,1,0,1.5,0.2c1.6,0.4,1.8,1.7,2.1,3.1c1.3,7.2,2.5,14.5,3.8,21.7
		c0.5,2.5,1.4,4.8,3.1,6.7c2.2,2.5,4.9,4,8.3,3.9c0.7,0,1.5,0.1,2.2,0.3c3.3,1.8,4.6,4.9,5.6,8.2c2.1,6.9,1.7,14,0.7,21.1
		c-3.2,22.8-6.1,45.5-9.9,68.2c-1.4,8.3-2.8,16.6-5.1,24.7c-0.7,2.4-1,4.9-3.3,6.6c-2.1,0.6-4.3,0.4-6.5,0.3
		c-1.9-0.2-2.4-1.7-2.5-3.2c-0.8-7.2-1.3-14.4-1.6-21.7c-0.3-8.6-0.4-17.3-0.7-26c-0.3-8.1,0-16.2-0.4-24.2
		c-0.4-7.8-1-15.6-1.7-23.4c-0.1-1.3-0.3-2.7-0.2-4c0-0.7,0-1.4-0.2-2.1c-0.5-8-1.2-16-1.6-24.1c-2.5,4.5-4.9,9.1-7,13.7
		c-3.5,7.6-6.7,15.2-9.5,23.1c-2.3,6.5-4.2,13-5.6,19.7c-2.9,13.6-8.4,26.1-14.7,38.3c-5.6,10.8-12,21.2-18.8,31.3
		c-0.7,1.1-1.3,2.3-2.7,2.9C1020.8,700.4,1018.4,700.1,1016,699.3z"/>
	<path class="st5" d="M1108.5,571c-8.6,1-13.3-5-14.5-12.9c-1.1-7.1-2.3-14.1-3.5-21.2c-0.1-0.7-0.5-1.2-1.1-1.5
		c-1.6-10-3.5-19.9-4.9-30c-0.1-1-0.4-2-0.1-3c0.9-0.9,2-0.5,3.1-0.3c1.9,0.3,3.7,0.7,5.8,0.8c-0.9-3.4-1.9-6.6-1.2-10.1
		c0.2-1.1-0.6-1.2-1.4-1.2c-1.8-0.1-3.6-0.6-5.4-0.5c-1.1,0-2.2-0.1-2.9-1c-1.3-5.3-1.6-10.8-2.5-16.2c-0.6-3.8,0.2-7.2,1.4-10.7
		c3.2-9.8,7.2-19.3,11.4-28.7c0.3-0.5,0.6-0.9,1.1-1.2c8.3,0.4,16.1,2.5,22.8,7.7c1.8,1.4,3.2,3.2,3.9,5.4
		c3.3,9.1,4.2,18.6,4.2,28.2c-0.6,0.8-0.5,1.7-0.5,2.6c0.1,7.2-0.1,14.4-1.6,21.5c-0.8,3.8-1.3,7.9-6.5,8.3
		c-3.6,1.2-7.2,0.7-10.8,0.4c-1.4-0.1-2.8-0.3-4.4-0.2c2.6,6.3,6.2,11.7,11.3,16c3.2,2.7,6.6,5.3,10.6,6.8
		c3.3,10.7,6.7,21.5,10,32.2c0.3,1.1,0,1.5-1,1.8c-2.8,1-5.6,2-8.4,3.1c-1,0.9-2.1,1.5-3.4,1.8
		C1116.1,569.7,1112.5,571.5,1108.5,571z"/>
	<path class="st2" d="M886.6,730.9c0-61.6,0-123.3,0-184.9c0-0.5,0.1-1,0.1-1.5c1.3,6.7,2.6,13.4,3.9,20.1
		c2.1,11.2,4.3,22.4,6.4,33.6c2.9,15.8,5.8,31.5,8.7,47.3c1.7,9,3.4,18,5.1,27.1c2.5,13.3,4.9,26.7,7.4,40
		c1.1,6.1,2.3,12.2,3.5,18.3C909.9,730.9,898.2,730.9,886.6,730.9z"/>
	<path class="st6" d="M1124.6,474.5c-1.1-2.8-0.6-5.8-1-8.8c-0.7-5.5-1.4-11-2.8-16.3c-1.6-6.1-5.9-9.6-11.4-11.9
		c-4.7-2-9.6-3.1-14.6-3.6c-0.4,0-0.8-0.3-1.2-0.4c-1.6-0.8-1.6-2.5-1.7-3.9c-0.1-4.3-0.6-8.6,0.7-12.9c0.1-0.5,0.2-1,0.2-1.5
		c0.3-3.7,0.2-3.9-3.4-4.6c-4.2-0.7-7-3.3-9.5-6.4c-2.2-2.5-3.8-5.4-5.1-8.7c-2.3,1.7-3.5,3.8-4.2,6.4c-0.5,1.8-0.6,3.6-1.2,5.4
		c-0.4,1.2-0.6,2.7-2.4,2.7c-1.5-3.6-2.1-7.3-1.5-11.2c0.3-1.7,0.8-3.4,2-4.5c2.6-2.2,4.4-4.9,6-7.8c0.9-1.7,2.6-2.6,4.4-3
		c2.9-0.5,5.7-1.5,8.7-0.5c0.7,0.2,1.3-0.1,1.9-0.3c7.3-2.1,12.9,0.1,16.7,6.8c3.9,6.9,5.4,14.5,5.2,22.3c-0.1,3.9,1.5,6.7,4.6,8.8
		c3.9,2.7,8.3,4.5,12.5,6.7c8.8,4.6,16.4,10.4,21,19.6c0.6,1.3,1.2,2.5,1.5,4c0.2,0.5,0.4,1.1-0.5,1c-0.8-1-1.6-2.1-2.5-3.1
		c-0.4-0.4-0.9-0.8-1.6-1c0.7,1.7,1.3,3.5,2.1,5.1c0.4,0.9,0.3,1.4-0.5,2.1C1139.2,461.2,1132,468,1124.6,474.5z"/>
	<path class="st5" d="M992.1,448c9.8,5.6,20,10.5,30.2,15.2c4,1.8,6.6,1.4,9.6-1.8c8.1-9,17.1-16.9,27.9-22.7
		c3.2-1.7,6.6-3.1,10.1-4.2c1.9-2.2,4.4-1.6,6.7-1.5c0.2,0.4,0.3,0.8,0.2,1.2c-3.2,8.4-6.5,16.9-9.4,25.5c-1.5,4.6-2.5,9.1-2.2,13.9
		c0.1,1.3,0.1,2.7-0.2,4c-0.1,0.4-0.3,0.8-0.3,1.2c-0.1,1.8-0.9,2.4-2.6,1.3c-2-1.4-4.3-1.7-6.6-1.9c-1.2-0.1-2.5-0.1-3.5-1
		c0.2-1.5-0.3-1.4-1.4-0.8c-6.5,3.7-13.5,6.3-20.7,8.5c-2.2,0.7-4.1,0.5-6.1-0.6c-7-3.7-13.7-7.9-20.1-12.5
		c-5.2-3.7-8.4-9.1-12-14.2c-0.6-0.8-1.1-1.7-1.7-2.5C989.7,452.4,990.5,450.1,992.1,448z"/>
	<path class="st7" d="M806.9,126c-13,0-25.9,0-38.9,0.1c-1,0-2,0.1-3,0.1c-1.2,0.5-1.8,0.2-1.5-1.2c0.2-1,0.8-1.8,1.2-2.7
		c1.7-3.7,3.8-7.2,5.3-11c2.1-4.5,4.3-9,6.6-13.3c1.8-3.3,2.6-6.6,2.2-10.2c0-1,0-1.9,0.6-2.8c0-0.1,0-0.2,0-0.2
		c0.1-1.8-0.6-4.2,0.3-5.3c1.1-1.3,3.6-0.4,5.4-0.4c2-0.1,4.5-0.7,5.8,0.3c1.4,1,0.2,3.7,0.5,5.6c0.7,1,0.7,2.1,0,3.1
		c-0.3,2.8,0.3,5.3,1.5,7.8c2.7,5.3,5.1,10.7,7.6,16.1C802.8,116.7,804.8,121.3,806.9,126z"/>
	<path class="st5" d="M1064.2,532.9c-1,0.6-0.6,1.6-0.7,2.5c0,4.6-0.2,9.3,0,13.9c0.2,4.7-0.7,9.4-0.6,14.1c0.1,2.1-1.4,2.3-3,2.5
		c-3.1,0.3-6-0.9-9-1.5c-5.2-2.1-5.1-2.1-4.3-8c2.6-20.4,4.9-40.9,5.2-61.5c0.1-4.6-0.9-9.3-0.3-13.9c0.9-0.1,1,0.7,1.3,1.3
		c2.6,5.1,6,9.4,10.4,13.1c0.6,0.5,1.2,1.1,1.4,2c0.2,6.6,0.4,13.3-0.1,19.9c-0.4,4.4-0.1,8.8-0.1,13.2
		C1064.3,531.3,1064.5,532.1,1064.2,532.9z"/>
	<path class="st8" d="M1108.5,571c5-1,9.9-2.3,14.7-4c-3.9,37.2-9.5,74.1-16.1,110.8c-1.1,6.3-2.4,12.6-3.5,18.9
		c-0.2,1.1-0.6,1.8-1.6,2.3c-1.7,0.9-3.4,1.1-5-0.2c2.9-5.2,3.7-11,4.9-16.6c2.7-13.1,4.6-26.4,6.5-39.6c2-13.7,3.7-27.5,5.6-41.2
		c1.1-7.5,1.7-15-0.4-22.4C1112.7,575.8,1111.2,573,1108.5,571z"/>
	<path class="st9" d="M1076.4,433.9c0-0.3,0-0.6,0-0.9c-0.2-0.3-0.2-0.7,0-1.1c1.9-0.9,4.2-0.9,6.1-2.1c2.3-1.4,4.2-3.1,5.7-5.5
		c-3.8,1.9-7.7,3-11.9,3.3c-4.7,0-5.5-0.6-7.2-4.9c-1.4-3.5-1.9-7.2-2.3-10.9c0.1-0.6,0.2-1.2,0.4-1.8c1.7-0.8,1.7-2.5,2-4
		c0.8-4.3,1.7-8.5,5.8-11.3c1.8,3.5,3.7,7,6.3,10.1c2.7,3.2,6.1,5.3,10.2,5.5c2.1,0.1,2.4,1,2.3,2.8c-0.3,5-1.9,10-1.1,15.1
		c0.3,1.8,0.2,3.7,1.1,5.3c-0.2,0.3-0.4,0.7-0.6,1c-1.5,2.2-3.9,2.8-6.2,3.4c-2.1,0.5-4.3,0.4-6.4,0.1
		C1077.9,437.7,1076.5,436.1,1076.4,433.9z"/>
	<path class="st9" d="M1064.1,496.6c-5.2-3.4-8.6-8.3-11.4-13.7c-0.3-0.6-0.7-1.3-1-1.9c0-1.3-1.6-2.9,0.5-4c4.1,0.5,8.5,0,11.8,3.3
		c0.8-0.8,0.2-1.8,0.5-2.6c0.8,0.4,0.8,1.2,0.9,1.9c0,1.9,0.6,3.6,1.1,5.3c0.9,3.3,1.7,3.9,5.3,4.2c3.1,0.2,6.1-0.1,9.2,0.5
		c0.6,0.1,1.3,0.2,1.9,0.4c3.5,0.7,7.1,0.6,10.8,1c-2,4.3-0.3,8.4,0.8,12.7c-3.3,0-6.4-1.1-9.5-1.3c-0.1,0.1-0.3,0.2-0.4,0.2
		c-6.7-0.9-13.2-2.9-19.5-5.4C1064.4,497.2,1064.3,496.9,1064.1,496.6z"/>
	<path class="st10" d="M1026,184.5c-0.8-2.1,0.2-3,2.2-3c0.7,0,1.3,0.1,1.9,0.3c10.1,3.3,20.2,6.7,30.3,10.1
		c1.6,0.6,3.2,1.3,2.1,3.6c-0.6,1-1.7,1.2-2.8,1.5c-5,1.6-10,3-15,4.6c-0.4,0.1-0.8,0.2-1.2,0.3c-3.3,1-3.7,0.9-5.8-1.9
		c-3.4-4.2-6.9-8.3-10.2-12.5C1026.9,186.6,1025.8,185.9,1026,184.5z"/>
	<path class="st11" d="M901.8,172c-6.3,0-12.7-0.1-19,0c-1.7,0-2.3-0.4-2.3-2.2c0.1-12.9,0.1-25.8,0-38.7c0-1.7,0.6-2.1,2.2-2.1
		c12.9,0.1,25.8,0.1,38.7,0c1.6,0,2.2,0.4,2.2,2.1c-0.1,12.9-0.1,25.8,0,38.7c0,1.8-0.6,2.3-2.3,2.2C914.8,172,908.3,172,901.8,172z
		"/>
	<path class="st12" d="M1019.5,730.5c-1,0-2,0-3,0c-1.3-2.1-0.4-4.4-0.7-6.6c-0.1-0.9,0.5-2.3-0.7-2.6c-1.1-0.3-2,0.7-2.6,1.6
		c-1.2,1.7-2.1,3.6-3.2,5.4c-0.8,1.3-1.7,2.5-3.5,2.4c-4.2,0-8.3,0-12.5,0c-0.6,0-1.8,0.7-1.9-0.8c1.3-3.2,4.2-4.6,7.1-6
		c4.2-1,7.4-3.4,10.2-6.7c2.6-3.1,5.8-5.6,9.6-7.3c1.1-0.5,2.2-1.2,3.5-0.5c2,2.7,2.9,5.7,1.8,9.1c-1.1,3.1-1.8,6.2-2.6,9.3
		C1020.7,728.8,1020.7,730,1019.5,730.5z"/>
	<path class="st13" d="M1122.6,529.9c-0.1,0.9-0.6,0.8-1.2,0.4c-9.9-5.5-17.6-13-21.7-24.1c5.5,0.6,10.9,0.8,16.3,0.7
		C1118.1,514.6,1120.4,522.3,1122.6,529.9z"/>
	<path class="st14" d="M1108.1,125.1c14-3.8,28-7.7,42-11.5c3.5-1,7.1-1.9,10.6-2.9c1.5-0.4,2.3,0,2.9,1.4c0.8,1.9,1.8,3.7,2.9,5.9
		c-18,2.4-35.7,4.7-53.4,7.1c-1.3,0.2-2.7,0.3-4,0.5C1108.5,125.8,1108,126,1108.1,125.1z"/>
	<path class="st15" d="M1038,199.5c1.6,3,4,2.5,6.5,1.5c2.7,4.4,6.9,7.5,10.1,11.5c0.7,0.9,1.9,1.5,1.5,2.9
		c-1.1,1.4-2.5,1.1-3.9,0.7c-3.4-1-6.8-2.2-10.2-3.3c-6.5-2.1-12.9-4.3-19.3-6.5c-1.3-0.4-2.8-0.7-3.3-2.3c-0.2-0.7-0.9-1.3,0-2
		C1025.7,201.2,1031.8,200,1038,199.5z"/>
	<path class="st9" d="M1097,698.8c1.7,0.1,3.3,0.1,5,0.2c-0.7,2.9-1.2,5.9-2.1,8.7c-1.3,4.6-1.3,9.2,0,13.7
		c-2.1,4.4-10,4.1-11.4-0.4c-0.2-0.7-0.2-1.5,0-2.2c1.5-5.4,1.2-10.9,1.2-16.5c0-1.1-0.2-2.3,0.6-3.4
		C1092.6,699,1094.8,698.9,1097,698.8z"/>
	<path class="st9" d="M1021.5,709.5c-4.2,0.6-7.2,3.3-10.2,5.9c-1.5,1.4-2.9,3-4.3,4.5c-2.3,2.4-4.9,4.2-8.5,4
		c3.2-3.9,6.4-7.8,9.6-11.7c3.2-3.9,5.7-8.3,7.9-12.9c2.5,0,5,0,7.5,0.1c1.5-0.7,3-0.8,4.5-0.3c0.7,0.3,0.8,0.9,0.4,1.4
		C1026.3,703.6,1024.6,707.1,1021.5,709.5z"/>
	<path class="st16" d="M992.1,448c-0.7,2.3-1.4,4.6-2.1,7c-4.1,0.5-7.1-1.1-9.3-4.4c-0.9-1.4-2.2-2.4-3.5-3.4
		c-1.7-1.3-3.1-3.1-2.4-5.3c0.8-2.2,2.8-2.8,5.1-2.8C985.6,438.9,989.9,442.1,992.1,448z"/>
	<path class="st17" d="M1056,215c-3.3-3.5-6.5-7-9.7-10.5c-0.9-1-2.2-1.8-1.8-3.5c6-1.8,12-3.7,18-5.5c0.2,0.2,0.3,0.3,0.5,0.5
		c-1.8,6.1-4,12.1-6.1,18.1C1056.8,214.6,1056.8,215.2,1056,215z"/>
	<path class="st17" d="M1038,199.5c-3,1.7-6.4,1.1-9.6,1.9c-2.1,0.5-4.4,0.7-6.6,1c-0.8,0.1-1.7,0.3-2.3-0.4
		c1.9-5.7,3.8-11.4,5.7-17.1c0.1-0.2,0.5-0.3,0.8-0.4C1030,189.5,1034,194.5,1038,199.5z"/>
	<path class="st18" d="M910.1,296.7c-0.7,7.2-2.4,14.2-8.2,19.8c-3.9,3.7-6.6,3.6-10.1-0.5c-5.4-6.3-7-13.9-7.3-21.9
		c-0.1-1.5,0.5-2,2-2c3.5-0.1,6.9-1,9.8-3.1c0.9-0.7,1.4-0.4,2.1,0.1c2.8,1.9,6,2.9,9.3,3.1C910.9,292.2,909.8,294.5,910.1,296.7z"
		/>
	<path class="st12" d="M1089,721.4c3.8,3.6,6.2,3.6,11,0.1c0.7,3,1.1,5.9,0.5,9c-4.1,0.5-8.3,0.2-12.4,0.2
		C1086.6,727.7,1087,723.1,1089,721.4z"/>
	<path class="st19" d="M1056,215c2.3-5.4,4-11,5.9-16.5c0.3-0.8,0.4-1.8,1-2.5c0.1,0.9-0.2,1.8-0.5,2.7c-1.8,5.4-3.6,10.9-5.5,16.3
		c-1,2.9-2,3.5-4.8,2.5c-10-3.3-20-6.6-30-10c-1.6-0.5-3.4-1.1-2.8-3.5c1.1,0.8,2.3,1.4,3.5,1.8c10,3.3,20.1,6.5,30.1,9.9
		C1054.3,216.1,1055.2,215.9,1056,215z"/>
	<path class="st20" d="M1066.7,411.8c1.1,1.6,0.8,3.5,1.4,5.2c0.5,1.6,0.8,3.2,1.3,4.8c1.6,4.8,2.2,5.1,7,5.2c1.3,1.6,1.1,3.3,0.2,5
		c-0.1,0.3-0.1,0.7-0.2,1c-2.1,0.9-4.5,0.1-6.5,1.5C1066.6,427.2,1066.3,419.6,1066.7,411.8z"/>
	<path class="st21" d="M886.5,393.5c-0.3,1.8,1,4.6-0.5,6.1c-1.4,1.3-4.1,0.3-6.3,0.4c-1.7,0.1-3.3-0.1-5,0
		c-1.5,0.1-2.3-0.3-2.2-2.1c0.1-3.4,0.1-6.8,0-10.2c0-1.3,0.4-1.8,1.7-1.8c3.5,0.1,7,0.1,10.5,0c1.5,0,1.9,0.6,1.8,1.9
		C886.5,389.6,886.5,391.4,886.5,393.5z"/>
	<path class="st22" d="M991.5,729.9c0.7,0.9,1.7,0.6,2.6,0.6c4.2,0,8.3,0,12.5,0c0.2,0.1,0.2,0.2,0.2,0.3c-0.1,0.1-0.1,0.2-0.2,0.2
		c-5.2,0-10.4,0-15.5,0C991.1,730.6,991.3,730.2,991.5,729.9z"/>
	<path class="st23" d="M1088,730.4c4.2,0,8.3,0,12.5,0c0.1,0.1,0.1,0.3,0.1,0.5c-4.3,0-8.5,0-12.8,0
		C1087.8,730.7,1087.9,730.6,1088,730.4z"/>
	<path class="st24" d="M1108.1,125.1c0.3,0.2,0.6,0.3,0.9,0.5c-1.2,1-2.8,0-4.5,1.3c0.6-1,0.8-1.4,1-1.8
		C1106.4,124.4,1107.3,124.5,1108.1,125.1z"/>
	<path class="st25" d="M1149.5,452c0.5-0.2,0.4-0.7,0.5-1c0.4,0.5,0.8,1.2,0.2,1.7C1150,452.9,1149.6,452.5,1149.5,452z"/>
	<path class="st3" d="M779.5,85c0,1,0,2.1,0,3.1c-1.3,1.1-2.8,0.8-4.3,0.8c-22.8,0-45.7,0.1-68.5-0.1c-5.3,0.2-10.6,0-16,0
		c-3.4,0.1-6.8-0.1-10.2,0c-0.6,0-1.2-0.1-1.7-0.2c-1.2-0.4-2.4-1-3.5-1.7c-0.7-0.4-1.7-0.8-1.1-2c1-0.6,1.9,0,2.8,0.1
		c8.2,0,16.3,0,24.5,0c13.5,0,27,0.1,40.5,0.1C754.5,85,767,85,779.5,85z"/>
	<path class="st3" d="M791.6,88.1c0-1,0-2.1,0-3.1c22.9,0,45.8,0,68.6,0.1c0.9,0,2.2-0.7,2.3,1.2c0.2,2.1-1.1,1.8-2.3,1.8
		c-21.9,0-43.8,0-65.7,0C793.6,88,792.6,88.1,791.6,88.1z"/>
	<path class="st14" d="M1108.2,123.6c7.8-5.3,15.7-10.6,23.5-15.8c4.1-2.7,8.2-5.4,12.2-8.2c1.3-0.9,1.8-0.7,2.1,0.8
		c0.9,4.2,0.9,4.2-3,6.2c-10.7,5.4-21.3,10.8-32,16.2c-0.8,0.4-1.6,0.8-2.4,1.2C1108.4,123.8,1108.3,123.7,1108.2,123.6z"/>
	<path class="st3" d="M285.1,85c7.5,0,15,0,22.5,0c0.9,1,0.9,2.1,0,3.1c-8.3,0-16.6,0-25,0c-16.8,0-33.7,0-50.5,0
		c-0.4,0.2-0.8,0.2-1.1-0.1c-0.7-1.1-0.4-2.1,0.5-3c0.4-0.2,0.8-0.3,1.2-0.1C250.1,85,267.6,85,285.1,85z"/>
	<path class="st26" d="M247.6,284c0,3.1,0,6.3,0,9.4c0,3.6,0,3.6-3.5,3.7c-7.7,0-15.3-0.1-23,0c-1.9,0-2.6-0.4-2.6-2.5
		c0.1-8.1,0.1-16.1,0-24.2c0-1.9,0.5-2.4,2.4-2.4c8.2,0.1,16.3,0.1,24.5,0c1.8,0,2.3,0.6,2.2,2.3C247.5,274.8,247.6,279.4,247.6,284
		z"/>
	<path class="st27" d="M232.6,85c-0.3,0.1-0.7,0.1-1,0.2c-0.1-0.1-0.2-0.2-0.3-0.3c-0.7-1.4,0-2.8,0.1-4.1c0.1-1.8-0.4-2.9-2.4-3
		c-2.9-0.2-5.6-1.4-8.1-2.8c-0.4-0.2-0.8-0.2-1.2,0.1c-2.7,1.6-5.6,2.5-8.7,2.7c-1.2,0.1-1.8,0.8-1.6,2c0.4,4.1,0.8,8.3,2.4,12.2
		c1.7,4,4.2,7.3,8.1,9.4c4-1,6-4.3,8-7.4c1.2-1.8,1.4-4.1,2.8-5.8c0.1,0,0.2-0.1,0.3-0.1c0.3,0.1,0.7,0.1,1,0.2
		c-1.6,4.6-3.4,9-7.1,12.4c-4,3.7-6.5,3.7-9.9-0.4c-4.1-4.9-6.4-10.6-7-17c-0.2-1.8-0.5-3.6-0.5-5.4c0-1.2,0.5-1.6,1.6-1.6
		c3.8-0.1,7.4-1,10.5-3.4c0.7-0.5,1-0.2,1.5,0.1c2.9,1.9,6,3.1,9.5,3.3c1.6,0.1,2.6,0.8,2.4,2.7C233,80.8,233.1,82.9,232.6,85z"/>
	<path class="st2" d="M248.1,352.9c2.3-11.9,4.6-23.9,6.9-35.8c2.7-14.5,5.4-28.9,8.1-43.4c2.1-11,4.3-22.1,6.4-33.1
		c3.2-17.1,6.4-34.3,9.6-51.4c2.1-11,4.3-22.1,6.4-33.1c1.8-9.4,3.4-18.9,5.2-28.3c0.1-0.7,0.3-1.3,0.5-1.9c1.1-0.6,2.2-0.7,3.4-0.7
		c12.3,0,24.6,0,37,0c0.9,0,1.8,0,2.7,0.4c1.4,0.8,1.5,2.4,1.7,3.7c2.7,13.8,5.2,27.7,7.8,41.5c3.6,19.2,7.2,38.5,10.8,57.7
		c6,32.1,12,64.1,18,96.2c1.6,8.4,3.2,16.8,4.7,25.3c0.2,1.1,0.9,2.4-0.4,3.5c-1.2,0.5-2.5,0.4-3.7,0.4c-37.8,0-75.6,0-113.4,0
		c-2.9,0-5.8-0.1-8.7-0.1C249.9,353.7,248.8,353.8,248.1,352.9z"/>
	<path class="st3" d="M248.1,352.9c3.8,0,7.6,0.1,11.5,0.1c38.2,0,76.3,0,114.5,0c1,0,2-0.1,3-0.1c1.7-1.1,3.5-0.8,5.3-0.5
		c1.1,0.1,1.7,1,1.9,2.1c0.2,1.1,0.1,2.2,0.1,3.2c-0.1,42-0.2,84.1-0.1,126.1c0,1.1,0.1,2.2-0.3,3.2c-0.5,0.9-1.4,1.1-2.3,1.2
		c-0.7,0.1-1.3,0.1-2,0.1c-39.7,0-79.3,0-119,0c-1.2,0-2.5,0.1-3.6-0.6c-1.1-1.5-0.7-3.2-0.7-4.8c0-35.1,0-70.3,0-105.4
		c0-6.5,0-13,0-19.5c0-3.4-0.2-3.6-3.5-3.6c-3.3,0-6.7,0-10,0c-2.6,0-2.8,0.3-2.9,2.9c0,0.8,0,1.7,0,2.5c0,41,0,81.9,0,122.9
		c0,1.6,0.3,3.2-0.6,4.6c-0.6,0.5-0.9,0-1.1-0.4c-0.5-1.1-0.4-2.3-0.4-3.4c0-23.1,0-46.2,0-69.3c0-3.2,0.3-6.4,0.8-9.7
		c0-15.7,0.1-31.4,0.1-47.1c0-4.4,0-4.4,4.5-4.4C244.8,353,246.4,353,248.1,352.9z"/>
	<path class="st3" d="M411.6,730.9c-0.8,0-1.7,0.1-2.5,0.1c-65,0-130,0-195.1,0c-0.8,0-1.7,0-2.5-0.1c-1.1-1.3-0.8-2.8-0.8-4.3
		c0-23.7,0-47.3,0-71c0-31.9,0-63.8,0-95.7c0-4.3,0.3-8.6,0.8-12.9c0-11.1,0.1-22.1,0-33.2c0-2.2,0.5-3.2,2.8-2.8
		c1.2,0.2,2.5,0,3.7-0.1c2.8-1.3,5.8-0.5,8.6-0.7c1.4-0.1,2.8-0.1,4.2-0.1c54.4,0,108.8,0,163.2,0c1.1,0,2.2-0.1,3.2,0.1
		c3.1-0.1,6.2-0.1,9.3,0c6.6-0.3,6.7-0.2,6.7,6.4c0,9.3,0.1,18.6,0,27.9c-0.2,3.6,0,7.2,0,10.7c0,53.1,0,106.3,0,159.4
		c0,3.2-0.2,6.5-0.1,9.7C413.2,726.7,413.2,729,411.6,730.9z"/>
	<path class="st2" d="M211.5,547c0,0.5,0.1,1,0.1,1.5c0,60.8,0,121.6,0,182.4c-11.7,0-23.3,0-35,0c2.5-12.9,4.9-25.8,7.4-38.7
		c3.2-17.1,6.4-34.3,9.6-51.4c2.1-11,4.3-22.1,6.4-33.1c3.2-17.1,6.4-34.3,9.6-51.4C210.2,553.1,210.9,550.1,211.5,547z"/>
	<path class="st7" d="M334.5,125.9c-14.5,0-28.9,0-43.4,0c5.2-10.4,10.4-20.9,15.7-31.3c1.1-2.2,0.6-4.4,0.7-6.6c0-1,0-2.1,0-3.1
		c0-0.1,0-0.2,0-0.2c0.1-1.8-0.6-4.2,0.3-5.3c1.1-1.3,3.6-0.4,5.4-0.4c2-0.1,4.5-0.7,5.8,0.3c1.4,1,0.2,3.7,0.5,5.6
		c0.6,0.8,0.7,1.8,0.6,2.8c-0.9,5.8,2.5,10.4,4.6,15.3c2.9,6.8,6.2,13.5,9.1,20.3C334.3,124.1,334.9,124.9,334.5,125.9z"/>
	<path class="st2" d="M226.5,510.9c-2.8,0-5.6,0-8.4,0c1.7-8.6,3.3-17.2,5-25.8c1.2-6.3,2.4-12.7,3.6-19c2.6-14,5.3-27.9,7.9-41.9
		c1.3-6.6,2.6-13.1,3.9-19.6c0,3.4,0.1,6.8,0.1,10.2c0,23.1,0,46.1,0,69.2c0,1-0.1,2-0.1,3c-1.9,1.4-4.2,0.7-6.3,0.8
		c-5.1,0.1-4.9-0.3-4.9,4.9c0,4.9,0,9.8,0,14.7C227.4,508.6,227.5,509.9,226.5,510.9z"/>
	<path class="st7" d="M544,85c0-0.1,0-0.2,0-0.2c0.1-1.8-0.6-4.2,0.3-5.3c1.1-1.3,3.6-0.4,5.4-0.4c2-0.1,4.5-0.7,5.8,0.3
		c1.4,1,0.2,3.7,0.5,5.6c0.6,0.8,0.7,1.8,0.6,2.8c-0.7,4.1,1.3,7.4,2.9,10.9c3.9,8.3,7.7,16.6,11.4,24.9c0.4,0.9,1.5,2.1-0.2,2.9
		c-0.9,0.3-1.8,0.3-2.7,0.3c-12.2,0-24.4,0-36.6,0c-0.9,0-1.8,0-2.7-0.2c-0.8-0.2-1.1-0.7-0.9-1.5c0.2-0.7,0.4-1.3,0.7-1.8
		c4.2-8.2,7.8-16.7,12.2-24.8c1.8-3.4,2.9-6.8,2.5-10.7C543.3,86.8,543.4,85.8,544,85z"/>
	<path class="st3" d="M544,85c0,1,0,2.1,0,3.1c-1.2,1-2.7,0.8-4.1,0.8c-13.6,0-27.1,0-40.7,0c-58.3,0-116.5,0-174.8,0
		c-1.6,0-3.4,0.4-4.8-0.8c0-1,0-2.1,0-3.1c0.3,0,0.7,0,1,0c74.1,0,148.3,0,222.4,0C543.3,85,543.7,85,544,85z"/>
	<path class="st3" d="M556.1,88.1c0-1,0-2.1,0-3.1c36.6,0,73.3,0,109.9,0c0.9-0.2,1.8-0.7,2.8-0.2c0.7,1.2-0.3,1.6-1,2
		c-1.2,0.8-2.6,1.3-4,1.7c-0.6,0.2-1.2,0.2-1.8,0.2c-4.2,0-8.5,0.2-12.7,0c-2.2,0.2-4.5,0.1-6.7,0.1c-27.3,0-54.6,0-82,0
		C559.1,88.8,557.5,89.2,556.1,88.1z"/>
	<path class="st28" d="M669,85.1c-1,0-2-0.1-3-0.1c1.7-1,3.4-2,4.9-3.2c0.7-0.5,1-0.4,1.7,0c1.4,1.1,2.9,2.1,4.4,3.1
		c-1,0.1-2,0.1-3,0.2c-0.7,0.7-1.6,0.6-2.5,0.6C670.7,85.7,669.8,85.8,669,85.1z"/>
	<path class="st3" d="M646.6,730.9c-0.8,0-1.7,0.1-2.5,0.1c-63.7,0-127.4,0-191.1,0c-0.8,0-1.7,0-2.5-0.1c-1.2-1-1.3-2.5-1.5-3.8
		c-0.5-2.5-1.3-5-1.2-7.6c-0.2-53.8,0-107.6-0.1-161.4c0-3.7,0.2-7.3,0.1-11c-0.1-11-0.1-22.1,0-33.1c0-3.1,0.6-3.6,3.7-3.7
		c1.2,0,2.3-0.1,3.5,0.1c2.9-0.1,5.8-0.1,8.8,0c1.4-0.1,2.8-0.1,4.2-0.1c54.4,0,108.8,0,163.2,0c1.1,0,2.2-0.1,3.2,0.1
		c3.1-0.1,6.2-0.1,9.3,0c6.6-0.3,6.7-0.2,6.7,6.4c0,9.3,0.1,18.6,0,27.9c-0.2,3.6,0,7.2,0,10.7c0,50,0,99.9,0,149.9
		c0,3.1-0.2,6.2-0.1,9.2c-0.3,5.1-1.6,10.1-2.8,15C647.4,730,647,730.5,646.6,730.9z"/>
	<path class="st0" d="M1088,730.4c-0.1,0.1-0.1,0.3-0.1,0.4c-22.4,0-44.7,0-67.1,0.1c-0.5,0-1,0.1-1.3-0.5c1.3-4.5,2.7-9,3.8-13.6
		c0.6-2.6-0.7-5-1.8-7.3c2.3-3.3,4.7-6.6,7-9.9c0.1-0.2,0.3-0.5,0.5-0.5c3.4,0.1,4.9-2.4,6.6-4.6c11.3-15,20.1-31.2,26-49
		c4.2-12.7,9.6-24.8,15.2-36.9c1.3-2.8,2.6-5.6,3.8-8.4c0.6-1.4,1-2.8,2.3-3.8c0.4-0.2,0.8-0.1,1.1,0.2c2.2,20.8,2.3,41.6,2.6,62.5
		c0.2,12.4,0.8,24.8,2,37.1c0.1,1.1-0.4,2.9,1.7,2.9c0.3,7.5,0.3,15-1.4,22.4C1087.7,724.3,1087.8,727.4,1088,730.4z"/>
	<path class="st29" d="M646.6,730.9c0.9-5.3,2.4-10.6,3-15.9c1.5-12.2,4.5-24,6.9-36c2.5-12.8,5.3-25.6,7.9-38.4
		c0.3-1.3,0-3.5,1.6-3.6c1.9,0,1.5,2.3,1.7,3.6c4.6,22.7,9.4,45.3,14,68c1.4,7.1,3.2,14.1,3.8,21.3c0,0.3,0,0.6,0.1,1
		C672.6,730.9,659.6,730.9,646.6,730.9z"/>
	<path class="st29" d="M448.5,719.9c0.7,3.6,1.4,7.3,2,10.9c-13,0-25.9,0-38.9,0c0.3-2,0.7-4,1-6c0.9-9.5,3.3-18.6,5.2-27.9
		c3.7-18.3,7.4-36.5,11.3-54.7c0.3-1.5,0.3-3.1,0.7-4.7c0.5-0.6,0.9-1.6,2-1c0.8,1.6,0.8,3.4,1.2,5.1c4.9,23.6,9.7,47.3,14.6,70.9
		C448.1,715,448.1,717.5,448.5,719.9z"/>
	<path class="st30" d="M1006.5,730.9c0-0.2,0-0.3,0-0.5c2.3-1.5,3.2-4,4.3-6.3c1.1-2.3,2.9-3.5,5.7-4.2c0,3.6,0,7.1,0,10.5
		C1013.2,731.6,1009.8,730.7,1006.5,730.9z"/>
	<path class="st0" d="M649.6,544.5c0-10.3-0.1-20.6,0-31c0-2.1-0.5-2.9-2.6-2.6c-1.1,0.2-2.3,0-3.5-0.1c-1.1-0.8-1.2-2-1.4-3.1
		c-5.2-28.4-10.6-56.8-15.9-85.2c-4-21.6-8.1-43.2-12.1-64.8c-6-31.9-12-63.9-17.9-95.8c-4.3-23.4-8.8-46.8-13.1-70.2
		c-3.9-21-7.8-41.9-11.8-62.9c-0.2-1-0.5-2,0.2-2.9c-5-10.8-10-21.7-15-32.5c-0.8-1.8-0.3-3.6-0.4-5.4c31.1,0,62.3,0,93.4,0
		c0.9,1,0.6,2.2,0.7,3.3c0.4,9,1.6,17.9,5.3,26.2c2.9,6.5,7.1,11.9,13.2,15.9c2,1.3,3.8,1.3,5.7-0.1c8.1-5.4,12.8-13.1,15.8-22.1
		c1.9-6,2.6-12.2,3.1-18.4c0.2-2,0.1-3.9-2.5-4.2c-0.2,0-0.3-0.4-0.3-0.6c5.3,0,10.7,0,16,0c3.7,1.3,6.8,3.8,10.2,5.7
		c14.8,8.3,30.7,13.5,47.5,16.1c1.4,0.2,2.8,0.5,4.2,0.6c0.8,0,1.7,0.2,2,1.1c-2.1,4.3-4.1,8.7-6.2,13c-0.5,1-0.6,1.6,0.8,1.6
		c-1.5,7.9-3,15.8-4.5,23.6c-2.1,11-4.3,22.1-6.4,33.1c-3.2,17.1-6.4,34.3-9.6,51.4c-2.1,11-4.3,22.1-6.4,33.1
		c-2.7,14.5-5.4,28.9-8.1,43.4c-2.6,13.6-5.3,27.3-7.8,40.9c-3.1,16.5-6.1,33-9.2,49.5c-2.2,11.7-4.6,23.4-6.8,35.1
		c-3.3,17.1-6.4,34.3-9.6,51.4c-1.5,7.7-3,15.4-4.5,23.1c-0.2,0-0.5,0.1-0.7,0.1c-1.8,0.1-4.2-0.6-5.3,0.3c-1.3,1.1-0.4,3.6-0.4,5.5
		c-0.1,10.1-0.1,20.1-0.1,30.2c-0.9,10.8-3.5,21.3-5.5,31.9c-3.5,18.9-7.1,37.8-10.7,56.7c-0.3,1.3-0.1,3.5-1.4,3.7
		c-1.5,0.1-1.1-2.1-1.5-3.2c-1.1-3-1.3-6.2-1.9-9.3c-4.6-24.7-9.3-49.4-13.8-74.1C650.1,549.9,650,547.2,649.6,544.5z"/>
	<path class="st31" d="M871.6,510.9c-0.7,0-1.5,0.1-2.2,0.1c-55.5,0-111.1,0-166.6,0c-0.7,0-1.5,0-2.2-0.1c0-6.8,0-13.7,0-20.5
		c0-3.4,0-3.4,3.5-3.5c0.8-0.7,1.8-0.8,2.8-0.8c17.3,0,34.7-0.1,52,0.1c3.2-0.1,6.4-0.1,9.6,0c2.8-0.1,5.7-0.1,8.5,0
		c2.8-0.1,5.7-0.1,8.5,0c4.3-0.1,8.5-0.1,12.8,0c1.3,0,2.5-0.1,3.8,0c3.2,0.1,6.3-0.2,9.5,0c6.2-0.1,12.3-0.1,18.5,0
		c12.2-0.2,24.4,0,36.7-0.1c1,0,2,0.1,2.8,0.8c1.8-0.3,2,0.7,2,2.2C871.5,496.4,871.6,503.7,871.6,510.9z"/>
	<path class="st32" d="M759,486.9c-18.3,0-36.7,0-55,0c7.1-23.2,14.2-46.3,21.3-69.5c0.4-1.2,0.3-2.5,1.2-3.5
		c1.3,1.1,1.6,2.7,2.2,4.1c2.5,5.4,5.1,10.7,7.3,16.3c0.1,0.3,0.1,0.6,0.1,0.9c0.3,11.1,0.1,22.2,0.1,33.4c0,3.5,0.1,3.6,3.7,3.6
		c4.3,0,8.6-0.1,12.9,0.1c4.8,0,9.7-0.2,14.5,0.1c0.3,0.1,0.6,0.2,0.8,0.3c0.3,0.2,0.4,0.4,0.3,0.7c-0.8,0.9-2,0.7-3,0.7
		c-3.1,0-6.3,0-9.4,0c-1.4,0-1.8,0.5-1.2,1.8c1.1,2.6,2.3,5.1,3.4,7.7C758.8,484.7,759.5,485.7,759,486.9z"/>
	<path class="st33" d="M834.1,367c2.4,3.2,3.5,7.1,5.2,10.7c3.8,8.1,7.4,16.3,11.1,24.5c3.5,7.6,7,15.3,10.4,22.9
		c0.3,0.7,1.1,1.6,0.3,2.5c-4,8.8-9,17.2-13.2,25.9c-0.1,0.1-0.1,0.3-0.3,0.4c-0.5,0.7-0.9,1.9-2,1.5c-0.9-0.3-0.7-1.4-0.7-2.2
		c0-4.5,0-9,0-13.5c0-6.1,0-12.1,0-18.2c0-1,0.3-2.1-0.8-2.6c-4.2-0.4-8.4,0-12.6-0.2c-1.1,0-2.3,0.2-3.4-0.5
		c-1.1-1-1.3-2.3-1.2-3.7c0.3-7.8-0.8-15.6-0.5-23.4c0.1-2.2-0.4-4.3-0.6-6.4c1-4,3.3-7.5,5-11.3C831.6,371.3,832.4,368.8,834.1,367
		z"/>
	<path class="st34" d="M845,418c0.9,0.8,0.5,1.9,0.5,2.8c0,11.4,0,22.7,0,34.3c1.1-0.6,1.5-1.6,2-2.6c4.2-8.1,8.4-16.2,12.7-24.3
		c0.2-0.3,0-1.2,0.9-0.8c0.7,5.2,1.4,10.5,2.1,15.7c1.1,7.5,2.2,15.1,3.3,22.6c1,7,2,14.1,3,21.1c-13.2,0-26.4,0-39.6,0
		c-0.4-0.4-0.4-0.9-0.3-1.4c1.7-3.8,3.6-7.4,5.7-11.2c-1.9-0.5-3.7,0.1-5.4-0.5c-0.3-0.1-0.4-0.3-0.5-0.6c0.1-0.3,0.2-0.5,0.5-0.6
		c2.1-0.7,4.3-0.3,6.5-0.4c0.4,0,0.9,0,1.3,0c2.2-0.3,4.5,0.5,6.6-0.6c0.8-0.9,0.6-2.1,0.5-3.1c-0.6-15.3-0.7-30.7-0.6-46.1
		c0-1.2-0.1-2.5,0.2-3.7C844.6,418.5,844.8,418.3,845,418z"/>
	<path class="st35" d="M767,394c5.8-6,11.1-12.5,17.5-18c0.6,0.7,0.7,1.5,0.6,2.3c-0.4,5.5-0.6,10.9-1,16.4
		c-0.5,6.9-0.7,13.7-1.4,20.6c-0.1,1,0,2-0.7,2.8c-0.9,0.7-2,0.6-3.1,0.6c-3-0.1-5.9,0-8.9-0.1c-0.9,0-1.8,0-2.6-0.6
		c-1.2-2.1-1.1-4.5-1.2-6.8c-0.2-4.7-0.1-9.5-0.1-14.2C766.2,396,766.4,394.9,767,394z"/>
	<path class="st36" d="M800.5,379.5c3.2-2.8,6.3-5.7,9.5-8.5c1.8,0.7,0.8,2.1,0.6,3.1c-1.3,6.1-2.6,12.2-3.9,18.3
		c-1.7,7.5-3.3,15.1-4.9,22.6c-0.3,1.2-0.4,2.5-1.5,3.3c-5.4,0.8-10.7,0.5-16.1,0.2c-1.6-0.8-0.8-1.9-0.4-2.9
		c2.4-5.8,5.1-11.6,7.7-17.3c2.5-5.5,4.8-11.1,7.5-16.6C799.4,380.9,799.6,380,800.5,379.5z"/>
	<path class="st37" d="M826,384c0.6,1.6,0.9,3.2,1,4.8c0.2,8.6,0.4,17.3,0.5,25.9c0,1.1,0.3,2.1,0.5,3.2c-0.2,0.3-0.5,0.4-0.8,0.6
		c-3.8,0.3-7.6,0.8-11.3-0.4c-0.5-0.7-0.3-1.4-0.3-2.2c0.7-12.6,1.6-25.2,2.5-37.8c0.2-3.6,0.7-7.3,0.7-10.9c0-1.7,0.1-3.3,1.3-4.7
		c0.5-0.4,0.2-1.9,1.5-1c1.5,6.6,3.1,13.2,4.5,19.9C826.3,382.2,826.5,383.1,826,384z"/>
	<path class="st34" d="M800.5,379.5c-4.2,9.3-8.3,18.6-12.5,28c-1.5,3.5-3,7-4.5,10.5c0,0.2,0,0.5-0.1,0.7c-0.3,0.6-0.5,1.6-1.4,1.2
		c-0.7-0.4-0.5-1.2,0-1.9c0.5-10.5,1.2-21.1,1.9-31.6c0.2-3.4,0.4-6.9,0.6-10.4C789.9,377.2,795.2,378.4,800.5,379.5z"/>
	<path class="st35" d="M800.6,417.9c2-9.5,4.1-19.1,6.1-28.6c1.2-5.7,2.5-11.5,3.8-17.2c0.1-0.5,0-0.8-0.4-1.1
		c1.8-1.7,3.7-3.3,5.5-5c0.8,0.7,0.7,1.7,0.5,2.6c-2.4,16.2-4.5,32.4-7,48.6c0,0.2-0.2,0.5-0.3,0.7c-0.2,0.2-0.4,0.4-0.7,0.5
		c-2.4,0.3-4.8,0.5-7.2-0.2C800.8,418.2,800.7,418,800.6,417.9z"/>
	<path class="st38" d="M767,394c0,8-0.2,16,0.5,23.9c-0.1,0.1-0.2,0.2-0.3,0.3c-1,0.6-2.1,0.5-3.1,0.5c-4.8-0.1-9.7,0.4-14.5-0.3
		c-1-0.5-0.9-1.4-0.6-2.1c1-2.5,1.5-5.1,3.1-7.3c3.9-3.5,7.6-7.1,10.9-11.1C764.1,396.5,765.7,395.3,767,394z"/>
	<path class="st34" d="M752,409c-0.5,3.2-2.3,5.9-3,9c0.1,0.3,0,0.6-0.3,0.7c-3.2,0.2-6.4,0.1-9.7,0c-2,0-2.8,0.8-2.7,2.8
		c0.1,3.1,0,6.3,0,9.4c0,1.1,0.1,2.2-0.8,3c-2-4.2-4.1-8.4-5.9-12.7c-1-2.4-2.6-4.6-3-7.3c6-1.2,12-2.3,18-3.5
		C747,410,749.5,409.5,752,409z"/>
	<path class="st39" d="M820,362.5c-0.7,7.7-1.1,15.4-1.6,23c-0.5,7.5-0.9,15-1.6,22.5c-0.3,3.3,0.2,6.7-0.9,9.9
		c-1.3,1.1-2.6,0.9-4,0.2c-0.9-1.8-0.3-3.6-0.1-5.4c1.7-15.2,3-30.5,4.9-45.7c0.1-0.9,0.3-1.8,0.8-2.6
		C818.2,363.6,818.8,362.6,820,362.5z"/>
	<path class="st36" d="M817.5,364.5c-0.3,6.4-1.2,12.7-1.9,19c-0.6,5.2-1.1,10.3-1.6,15.5c-0.7,6.3-1.3,12.6-2,19
		c-1.2,1-2.3,1-3.5,0c0.2-5.9,1.5-11.6,2.3-17.4c0.8-6.4,1.8-12.7,2.7-19.1c0.7-5.1,1.3-10.3,2-15.4
		C816.2,365.5,816.9,365,817.5,364.5z"/>
	<path class="st34" d="M826,384c-1.6-6.9-3.2-13.8-4.8-20.7c-0.2-0.7-0.3-1.3,0.3-1.8c4.2,1.8,8.6,3.2,12.5,5.5
		C831.8,372.8,829.2,378.6,826,384z"/>
	<path class="st2" d="M649.6,544.5c1.3,6.7,2.6,13.4,3.9,20.2c2.1,11.2,4.3,22.4,6.4,33.6c2.4,13.2,4.8,26.3,7.2,39.5
		c0.1,0.4,0.3,0.8,0.7,1.7c1.2-6.1,2.2-11.6,3.2-17.1c2.1-11.1,4.3-22.2,6.4-33.4c2.6-13.9,5.2-27.8,7.8-41.7c0-0.1,0.2-0.3,0.3-0.4
		c0,0.7,0.1,1.5,0.1,2.2c0,59.5,0,119,0,178.4c0,0.7-0.1,1.5-0.1,2.2c-1.6-7.7-3.3-15.3-4.9-23c-3.1-15.1-6.2-30.3-9.3-45.4
		c-1.7-8.1-3.3-16.2-5.1-24.5c-1.1,1-0.9,2.2-1.1,3.2c-2.4,11.2-4.7,22.3-6.9,33.5c-2.7,13.5-5.5,27-8.2,40.6c0,0.2-0.2,0.4-0.4,0.6
		c0-0.7-0.1-1.3-0.1-2c0-55.4,0-110.8,0-166.2C649.6,546,649.6,545.2,649.6,544.5z"/>
	<path class="st2" d="M871.5,622c0,30.4,0,60.8,0,91.2c0,2.1-0.4,2.7-2.7,2.7c-55.2-0.1-110.5-0.1-165.7,0c-2.3,0-2.7-0.6-2.7-2.7
		c0.1-60.9,0.1-121.8,0-182.7c0-2,0.4-2.6,2.5-2.6c55.3,0.1,110.7,0.1,166,0c2.1,0,2.6,0.6,2.5,2.6C871.5,561,871.5,591.5,871.5,622
		z"/>
	<path class="st8" d="M1083,596.5c-7.7,16.8-15.7,33.4-21.5,51.1c-5.9,17.7-15,33.8-26.3,48.6c-1.8,2.3-3.5,4.1-6.7,3.5
		c-1.7-0.1-3.3-0.2-5-0.3c7.1-10.3,13.7-21,19.6-32.1c5.2-9.8,9.9-19.8,13.1-30.4c1.8-6,3.1-12.2,4.7-18.3
		c2.7-10.3,6.6-20.2,11-29.9c2.6-5.6,5.4-11.1,8-16.6c0.5-1,0.9-1.9,2.2-3.1c0.4,8.9,1.4,17.4,1.4,25.9
		C1083.8,595.6,1083.4,596,1083,596.5z"/>
	<path class="st2" d="M1064.1,496.6c6.8,2.4,13.7,4.1,20.6,5.9c1.7,10.3,3.5,20.6,5.2,30.9c0.1,0.7,0.4,1.5-0.5,2
		c-8.5,0.5-16.9-0.4-25.2-2.5c-0.7-0.5-0.7-1.2-0.6-2C1063.7,519.5,1063.9,508.1,1064.1,496.6z"/>
	<path class="st40" d="M1083,596.5c0.2-0.5,0.3-1,0.5-1.5c0.8,0.3,0.4,1,0.4,1.5C1083.6,596.5,1083.3,596.5,1083,596.5z"/>
	<path class="st2" d="M1082.6,490.2c-4.8,0.2-9.6-0.2-14.4-0.6c-1.4-0.1-1.8-1.5-2.1-2.5c-1-3-2.1-6-1.8-9.2
		c-1.1-12.8,4.4-24,8.6-35.5c1.1-2.9,2-5.8,3.5-8.5c0.6,2.5,2.4,3.4,4.7,3.7c4.3,0.4,8.2-0.6,11.8-3c-2.8,6.9-5.6,13.8-8.4,20.8
		c-0.7,1.8-1.2,3.8-2.1,5.6c-3.5,7.4-1.9,15-0.8,22.6C1082.1,485.7,1082.3,487.9,1082.6,490.2z"/>
	<path class="st13" d="M1101.3,467.3c1.7,6.9,3.2,13.3,4.8,19.6c0.4,1.6-0.4,2.4-1.7,2.8c-2,0.8-4.2,0.9-6.3,1.2
		c-1.9,0.2-2.3-0.5-2.7-2.4C1094.1,480.7,1097.6,474.4,1101.3,467.3z"/>
	<path class="st41" d="M1078.9,387.4c3.1-2,7.3-2,10.4,0.1C1085.7,386.8,1082.3,386.8,1078.9,387.4z"/>
	<path class="st2" d="M770.5,111.5c-4-0.7-8-1.2-11.9-2c-17.1-3.2-33.1-9.4-47.9-18.6c-1.4-0.9-2.8-1.7-4.1-2.8
		c13.8,0,27.6-0.1,41.5-0.1c10.5,0,21,0,31.5,0c0.3,3.3-0.2,6.3-1.9,9.3C775.1,102,772.9,106.8,770.5,111.5z"/>
	<path class="st42" d="M1076.6,432c-0.1-1.7-0.1-3.3-0.2-5c4.5-0.4,8.7-1.7,12.9-3.9C1087.4,428.3,1082.1,431.9,1076.6,432z"/>
	<path class="st0" d="M921.6,150.5c0,5.7-0.1,11.5,0,17.2c0,1.7-0.5,2.3-2.2,2.3c-11.6-0.1-23.2-0.1-34.7,0c-1.7,0-2.1-0.6-2.1-2.2
		c0.1-11.6,0.1-23.2,0-34.7c0-1.6,0.4-2.2,2.1-2.2c11.7,0.1,23.3,0.1,35,0c1.6,0,2,0.6,2,2C921.5,138.9,921.6,144.7,921.6,150.5z"/>
	<path class="st43" d="M897,318c-4.4-1.9-6.9-5.5-8.8-9.6c-1.9-4.2-2.2-8.8-2.7-13.3c-0.1-1.1,0.2-2.1,1.5-2.1c3.7,0,7.2-1,10.1-3.3
		c0.3-0.2,0.6,0,0.8,0.3c0.5,7.4,0.6,14.8-0.1,22.2C897.8,314.1,898.4,316.2,897,318z"/>
	<path class="st44" d="M897,318c0.6-8.8,0.5-17.6,0.5-26.4c0-0.6,0-1.2,0.5-1.6c2.4,1.8,5.1,2.8,8,3c2,0.1,3.2,0.8,3,3.2
		c-0.7,8.4-2.6,16.1-10.1,21.2C898.4,317.7,897.9,318.5,897,318z"/>
	<path class="st45" d="M1070.9,429.1c0.1,0.9,0.3,1.8,0.4,2.9c-1.2-0.7-0.8-1.7-0.9-2.5c-0.1-0.1-0.1-0.3-0.1-0.4
		C1070.6,428.9,1070.8,429,1070.9,429.1z"/>
	<path class="st46" d="M1070.9,429.1c-0.2,0.1-0.3,0.3-0.5,0.4c-0.8-0.9-0.4-2-0.3-3.6C1070.5,427.4,1070.7,428.2,1070.9,429.1z"/>
	<path class="st0" d="M886,393.1c0,6.4,0,6.4-6.3,6.4c-1.6,0-3.2-0.1-4.7,0c-1.3,0.1-2-0.3-2-1.8c0.1-3.2,0.1-6.3,0-9.5
		c0-1.3,0.4-1.8,1.7-1.8c3.2,0.1,6.5,0,9.7,0c1.2,0,1.6,0.5,1.6,1.7C886,389.8,886,391.5,886,393.1z"/>
	<path class="st44" d="M678.6,88c0.5,0.1,1,0.1,1.5,0.2c3.1,0.5,6.2,1,9.4,1.3c2.5,0.3,3.4,1,3.3,3.5c-0.5,10.2-2,20.2-7.7,29.1
		c-2.8,4.3-6.2,8-10.7,10.7c-1.1,0.6-2.2,1.5-3.2-0.1c-0.4-1.1-0.3-2.3-0.3-3.4c0-11.6,0-23.2,0-34.8c0-2.2,0-4.3,1.1-6.3
		C674.1,86.6,676.3,87.5,678.6,88z"/>
	<path class="st47" d="M671.5,133c4.1-1.4,7.3-4.2,10-7.4c6.8-8.3,9.6-18,10.1-28.5c0.1-1.5,0.5-2.9,0.5-4.4c0-2-0.8-2.6-2.7-2.7
		c-3.2-0.1-6.4-0.5-9.4-1.9c3.5,0,7,0,10.5,0c3.5,1,3.7,1,3.4,4.8c-0.7,11.7-3,23-10.2,32.7c-2.8,3.7-6.2,6.7-10.1,9.1
		c-1.6,1-2.9,0.8-4.4-0.1c-5-3-9-7-12-12.1c-4.6-7.9-6.7-16.5-7.4-25.5c-0.2-3-0.3-6-0.4-8.9c4.3,0,8.7,0,13,0
		c-0.1,1.3-1.3,1.3-2.2,1.6c-2,0.6-4.1,0.6-6.2,0.9c-1.3,0.2-2,0.7-1.9,2.1c0.5,13.3,2.8,25.9,12.9,35.8
		C667,130.3,669.7,131.1,671.5,133z"/>
	<path class="st48" d="M678.6,88c-2.2,0.1-4.3,0.1-6.5,0.2c-0.3,0.1-0.5,0-0.7-0.2c-0.5-1-0.5-1.9,0.2-2.8c0.8,0,1.7,0,2.5,0
		C675.2,86.7,677.2,86.7,678.6,88z"/>
	<path class="st49" d="M231.6,85.1c-0.2,0.9-0.3,1.9-0.5,2.8l0,0.2c-3.4,1.1-6.9,0.9-10.3,0.2c-1.1-0.9-0.9-2-0.5-3.1
		c0.2-0.3,0.4-0.5,0.7-0.6c3.6-0.4,7.1-0.9,10.7,0.3L231.6,85.1z"/>
	<path class="st2" d="M233.1,269.1c3.7,0,7.3,0.1,11,0c1.8,0,2.5,0.5,2.5,2.4c-0.1,7.5,0.1,14.9-0.4,22.4c-0.2,2.3-1.9,2.1-3.2,2.1
		c-5.7,0.1-11.3,0-17,0c-6.3,0-6.3,0-6.3-6.3c0-6,0.1-12,0-18c0-2.1,0.7-2.7,2.8-2.7C225.9,269.2,229.5,269.1,233.1,269.1z"/>
	<path class="st50" d="M220.1,102c-4.4-1.8-6.9-5.5-8.8-9.6c-1.9-4.2-2.2-8.8-2.7-13.2c-0.1-1.1,0.1-2.1,1.5-2.1
		c3.7-0.1,7.1-1.1,10.2-3.3c0.3-0.2,0.6,0,0.8,0.3c0.4,2.7,0.3,5.4,0.2,8.1c0,1,0,2-0.8,2.8l0,0.2c-1.7,1-3.5,0.4-5.3,0.7
		c-0.6,0.1-1.5-0.1-1.5,0.8c0,0.7,0.9,0.6,1.4,0.7c1.7,0.3,3.7-0.6,5.1,1C221,92.9,221.5,97.5,220.1,102z"/>
	<path class="st51" d="M220.1,102c0-4.6,0-9.3,0-13.9c0.1-0.2,0.3-0.3,0.5-0.2c3.5,0.1,7,0.1,10.5,0.2c-1.5,4.2-3.2,8.2-6.6,11.2
		C223.2,100.5,221.9,101.7,220.1,102z"/>
	<path class="st51" d="M220.6,85c0-2.9,0-5.7,0-8.6c0-0.8-0.3-1.7,0.5-2.3c2.3,1.7,4.9,2.7,7.7,3c3.2,0.3,3.4,0.4,3.3,3.5
		c-0.1,1.5-0.3,2.9-0.5,4.4C227.9,84.9,224.2,85,220.6,85z"/>
	<path class="st0" d="M431.6,636.5c-0.5,0.3-0.7,1.1-1.5,1c-0.9-0.8-1-1.9-1.2-2.9c-4.2-22.3-8.4-44.6-12.5-66.9
		c-1.3-6.7-2.7-13.3-3.5-20.1c-0.1-1,0.1-2-0.3-3c0-10.3-0.1-20.6,0-31c0-2.1-0.5-2.9-2.6-2.6c-1.1,0.2-2.3,0-3.5-0.1
		c-0.9-0.6-1.1-1.6-1.3-2.6c-6.8-36-13.5-72-20.2-108c-0.4-2.1-0.6-4.2-0.8-6.3c0.6,3.6,0.5,7.2,0.5,10.8c0,25.9,0,51.8,0,77.7
		c0,1.4,0.2,2.8-0.4,4.2c-0.2,0.3-0.4,0.4-0.7,0.4c0-1-0.1-2-0.1-3c0-42.6,0-85.3,0.1-127.9c0-2.6-0.7-3.4-3.2-3
		c-1.1,0.2-2.3,0-3.5-0.1c-1.7-8.7-3.3-17.4-5-26.1c-2.5-13.1-5-26.2-7.4-39.2c-3.4-18.5-6.7-36.9-10.2-55.4
		c-2.2-11.9-4.6-23.7-6.8-35.6c-3.4-18.5-6.8-36.9-10.2-55.4c-0.9-5.1-2-10.2-3-15.3c-4.7-10.3-9.3-20.6-14.1-30.8
		c-1.1-2.3-0.9-4.7-0.9-7.1c0.3,0,0.7,0,1,0c74.1,0,148.3,0,222.4,0c0.3,0,0.7,0,1,0c0.3,3.2-0.2,6.1-1.7,9.1
		c-4.9,9.5-9.5,19.2-14.2,28.8c0.7,1.3,0.2,2.6,0,3.9c-3.7,19.3-7.3,38.6-11,57.9c-7.5,39.7-15,79.4-22.5,119
		c-3.5,18.5-7,37-10.5,55.5c-0.2,0.8-0.3,1.7-0.7,2.4c-0.3,0.5-0.7,0.7-1.1,0c-0.6-1.3-0.4-2.8-0.4-4.2c0-14.7,0-29.3,0-44
		c0-3.6-0.1-3.7-3.6-3.7c-18.1,0-36.1,0-54.2,0c-3.5,0-3.6,0.1-3.6,3.7c0,18,0,36,0,53.9c0,3.6,0.1,3.7,3.8,3.7
		c17.4,0,34.8,0,52.2,0c1.4,0,2.8-0.1,4.2,0.4c1.3,1,0.6,2.3,0.4,3.4c-2.2,12.3-4.6,24.5-6.9,36.8c-5.6,29.9-11.3,59.9-17,89.8
		c-0.4,2.1-0.2,4.6-2,6.3c-0.2,0-0.5,0.1-0.7,0.1c-1.8,0.1-4.2-0.6-5.3,0.3c-1.3,1.1-0.4,3.6-0.4,5.5c-0.1,10.1-0.1,20.1-0.1,30.2
		c-1,11.6-3.9,23-6,34.4c-3.2,17.4-6.6,34.7-9.8,52.1C432.5,634.5,432.5,635.7,431.6,636.5z"/>
	<path class="st31" d="M383.7,486.9c0.1,0,0.3-0.1,0.4-0.1c0.9-0.7,2-0.7,3.1-0.7c2.6,0,5.2-0.1,7.7,0c2.7,0.1,3.4,0.7,3.4,3.5
		c0.1,5.6,0.1,11.1,0,16.7c0,1.5,0.4,3.2-0.8,4.6c-0.7,0-1.5,0.1-2.2,0.1c-55.5,0-111.1,0-166.6,0c-0.7,0-1.5,0-2.2-0.1
		c0-7.2,0.1-14.5,0-21.7c0-1.7,0.5-2.3,2.3-2.2c3.2,0.1,6.5,0,9.7,0c0.2,0.2,0.4,0.3,0.6,0.5c0.7-0.6,1.6-0.7,2.6-0.7
		c4.3,0,8.6,0,12.9,0c0.9,0,1.8,0.1,2.6,0.8c0.8,0,1.7,0.1,2.5,0.1c40.4,0,80.8,0,121.1,0C381.7,487.5,382.9,488,383.7,486.9z"/>
	<path class="st52" d="M257.1,487.5c-6,0-12,0-18,0c0-43.6,0-87.1,0-130.7c0-3.2,0-3.2,3.3-3.2c4.2,0,8.3,0.1,12.5,0
		c1.7,0,2.3,0.5,2.3,2.3c-0.1,6.6,0,13.2,0,19.7C257.1,412.8,257.1,450.1,257.1,487.5z"/>
	<path class="st53" d="M301.1,404.4c7.2-1.5,13.5,1.1,17.5,7c3.9,5.8,4,14.1,0.1,20c-4,6.1-10.2,8.7-17.7,7.3
		c-4.2,0-6.9-2.6-9.3-5.5c-6.8-8.1-4.5-21.9,4.5-27.4C297.7,404.9,299.3,404.2,301.1,404.4z"/>
	<path class="st54" d="M301.1,404.4c-8.3,2.9-12.7,9-12.6,17.6c0.1,7.9,4.8,14.2,12.6,16.7c-3.8,1-6.9-0.7-9.7-2.8
		c-6-4.5-7.9-10.8-6.7-17.9c1.2-7.1,5.6-11.8,12.7-13.7C298.7,404,299.9,403.7,301.1,404.4z"/>
	<path class="st55" d="M283.1,451.6c1.6,6,3.2,12,4.8,18c0.4,1.4,0.6,2.5-1.2,3.1c-2,0.6-2.5-0.4-2.9-1.9
		c-1.5-5.6-2.8-11.2-4.7-16.7c-1.1-1.1-1.3-2.6-1.5-4.1c-0.2-1.7,0.5-3,2.2-3.3c1.8-0.4,2.7,0.8,3.2,2.4
		C283.3,449.8,283.3,450.7,283.1,451.6z"/>
	<path class="st56" d="M283.1,451.6c-0.3-1-0.7-2-0.9-3.1c-0.3-1.3-1.1-1.8-2.3-1.6c-1.3,0.2-2,1.2-1.8,2.5c0.2,1.5,0.6,3,1,4.6
		c-0.3,0-0.6,0-0.9,0c-2.4-0.9-3.7-2.5-3.6-4.7c0.1-2.1,0.6-3.9,3.1-4.4c2.1-0.9,4-0.5,5.3,1.3C284.1,447.8,284.7,449.7,283.1,451.6
		z"/>
	<path class="st57" d="M277.6,444.8c-3.6,3-3.4,6.3,0.6,9.1c-2.6,0-4.1-1.4-4.5-3.8c-0.4-2.2,0.4-4.1,2.4-5.3
		C276.6,444.5,277.1,444.3,277.6,444.8z"/>
	<path class="st2" d="M412.7,544.5c1.3,6.7,2.6,13.4,3.9,20.1c2.1,11.1,4.2,22.2,6.3,33.4c2.4,12.9,4.8,25.8,7.2,38.7
		c0,0.2,0,0.5,0,0.7c0.5,2.1-0.1,4.1-0.5,6.1c-2,9.9-4.1,19.7-6.1,29.6c-2.8,13.8-5.6,27.7-8.4,41.5c-0.7,3.5-1.6,6.9-2.4,10.3
		c0-0.7-0.1-1.3-0.1-2c0-58.8,0-117.6,0-176.4C412.6,545.8,412.6,545.2,412.7,544.5z"/>
	<path class="st2" d="M226.6,621.9c0-30.4,0-60.8,0-91.2c0-2.1,0.4-2.7,2.7-2.7c55.2,0.1,110.5,0.1,165.7,0c2.3,0,2.7,0.6,2.7,2.7
		c-0.1,60.9-0.1,121.8,0,182.7c0,2-0.4,2.6-2.5,2.6c-55.3-0.1-110.7-0.1-166,0c-2.1,0-2.6-0.6-2.5-2.6
		C226.6,682.9,226.6,652.4,226.6,621.9z"/>
	<path class="st2" d="M397.6,510.9c0-7.2-0.1-14.5,0-21.7c0-1.8-0.6-2.3-2.3-2.2c-3.7,0.1-7.5-0.1-11.2-0.1c0-31.4,0-62.9,0-94.3
		c0.1,0,0.2,0,0.2,0c2.9,15.2,5.8,30.3,8.6,45.5c2.9,15.2,5.7,30.4,8.5,45.6c1.7,9.1,3.4,18.2,5.1,27.3
		C403.6,510.9,400.6,510.9,397.6,510.9z"/>
	<path class="st2" d="M482.6,365c1.6-5.7,2.3-11.5,3.4-17.2c2.7-13.7,5.3-27.4,7.9-41.1c3.2-17.1,6.4-34.3,9.6-51.4
		c2.1-11,4.3-22.1,6.4-33.1c3.5-18.6,7-37.2,10.6-55.8c2.3-12.3,4.6-24.5,7-36.8c0.2-1.2,0.4-2.4,0.6-3.7c11.1,0,22.3,0.1,33.4,0.1
		c3.3,0,6.7-0.1,10-0.1c2.3,12.1,4.6,24.2,6.9,36.3c2.6,13.8,5.1,27.6,7.7,41.5c2.3,12.1,4.6,24.2,6.9,36.3
		c2.6,13.8,5,27.7,7.6,41.5c2.1,11.1,4.3,22.2,6.3,33.4c3.1,16.4,6.1,32.8,9.1,49.3c2.3,12.1,4.6,24.2,6.9,36.3
		c3.4,18.2,6.7,36.4,10.1,54.6c2.3,12.1,4.6,24.2,6.9,36.3c1.2,6.5,2.4,13,3.6,19.5c-3,0-6,0-8.9,0c-1-1-0.8-2.3-0.8-3.5
		c0-5.4,0-10.8,0-16.2c0-3.2-0.2-3.3-3.4-3.3c-7.3,0-14.7,0-22,0c-1.2,0-2.5,0.1-3.7-0.3c-1.4-0.7-0.7-2-0.8-3.1
		c0-2.8-0.2-3-3.1-3.2c-0.4,0-0.8,0-1.2,0c-0.6,0-1.1,0-1.6-0.1c-0.7-0.1-1.4-0.3-1.6-1.1c0-1.8-0.1-3.6,0.3-5.4
		c0.5-1.4,2-1,2.9-1.6c0.1-0.2,2.4-9.4,2.4-9.6c-0.1-1.9-1.4-2.2-3-2c-0.8-0.1-1.6-0.2-2.1-1c0.1-3.9-1.2-7.8-0.2-11.7
		c0.4-1.2,1.6-1.1,2.5-1.5c1.8-1.6,1.9-3,0.4-5.6c-0.1-0.2,0-0.5,0.1-0.7c0.3-0.2,0.6-0.3,1-0.4c0.4-0.1,0.7-0.1,1.1-0.1
		c0.2,0,0.5,0,0.7,0c3.2,0,3.5-0.4,3.5-3c0-2.7-1.9-2.1-3.5-2.2c-0.2,0-0.5,0-0.7,0c-0.4,0-0.7,0-1.1,0c-0.4,0-0.7,0-1.1,0
		c-0.5,0-1,0-1.5,0c-0.4,0-0.7-0.1-1.1-0.2c-0.3-0.2-0.6-0.5-0.6-0.9c0.6-1.7,0.6-3.5,0.4-5.3c0.1-0.4,0.3-0.7,0.6-0.9
		c0.2-0.1,0.5-0.2,0.7-0.2c0.4-0.1,0.7-0.1,1.1-0.1c0.6,0,1.2,0,1.8-0.1c1.7-0.9,0.9-2.5,0.9-3.7c-0.1-1.5,0.4-2.5,1.6-3.2
		c0.6-1.6,0.8-3.3-0.1-4.9c-2.4-0.8-4.8-0.2-7.2-0.4c-2.8-0.1-3-0.4-3.3-3.2c-0.7-7.6-2.9-14.7-8-20.6c-1.8-2-3.8-3.7-6.1-5.2
		c-1-0.6-2-1.2-2.5-2.4c-0.1-0.4-0.2-0.7-0.2-1.1c0.6-1.8,2.6-2.2,3.7-3.6c0.6-0.8,1.8-1.4,0.8-2.7c-0.7-0.7-1.2-1.6-2.1-2.2
		c-1.8-1-3.7,0.2-5.5-0.3c-1.2-0.4-2.2-1.2-3.1-2c-0.5-0.4-1-0.8-1.7-1c-1.5-0.5-2.4,0-2.6,1.6c-0.1,1.4,0.1,2.8,0.4,4.1
		c0.2,0.9,0.5,1.7,0.3,2.7c-0.7,1.4-1.6,2.7-2.2,4.2c-0.2,0.2-0.5,0.5-0.8,0.6c-13,5-20.7,15.1-26.9,26.8c-1.1,2.1-2.2,4-4.7,4.7
		c-1.2,1.4,0,3.5-1.3,4.9c-0.8,0.2-1.5-0.2-2.1-0.5c-8.7-4.2-17.7-4.7-26.9-1.6c-13.8,5.3-23,14.5-25,29.6c-1.2,9.2,1.2,17.7,7,25
		c5.5,7,12.6,11.2,21.4,12.7c1.8,0.3,1.9,0.4,1,1.6c-1.3,0.4-2.6,0.3-4,0.3c-11.3,0-22.6,0-33.9,0c-3.5,0-3.6,0.1-3.6,3.6
		c0,5.3,0,10.6,0,15.9c0,1.2,0.1,2.5-0.8,3.5c-2.8,0-5.6,0-8.4,0c1.7-8.6,3.3-17.2,5-25.8c1.2-6.3,2.4-12.7,3.6-19
		c2.6-14,5.3-27.9,7.9-41.9c2.1-11,4.2-21.9,6.3-32.9c1-5.4,2.1-10.9,3.1-16.3C480.4,371.4,481.2,368.2,482.6,365z"/>
	<path class="st43" d="M671.5,88c0.2,0.1,0.3,0.1,0.5,0.2c-1.1,15-0.2,29.9-0.5,44.9c-6.3-2.1-10.2-6.8-13.3-12.2
		c-3.8-6.6-5.7-13.9-6.3-21.5c-0.2-2.3-0.3-4.6-0.4-6.9c-0.1-1.6,0.3-2.2,2.1-2.5c3-0.5,6.2,0,8.9-1.8c0.5-0.1,1-0.1,1.5-0.2
		C666.6,87.6,669.1,86.5,671.5,88z"/>
	<path class="st58" d="M671.5,88c-2.5,0-5,0-7.5,0c1.6-1,3.7-1.2,5-2.8c0.8,0,1.7,0,2.5,0C671.5,86.1,671.5,87,671.5,88z"/>
	<path class="st31" d="M604,486.9c9,0,17.9,0,26.9,0.1c4.2,0,3.6-0.5,3.6,3.8c0,6.7,0,13.4,0,20.2c-0.7,0-1.5,0.1-2.2,0.1
		c-55.5,0-111.1,0-166.6,0c-0.7,0-1.5,0-2.2-0.1c0-7.2,0.1-14.3,0-21.5c0-2,0.6-2.5,2.5-2.5c13.5,0.1,27,0,40.5,0
		c2.6-1.4,5.4-0.5,8.1-0.7c5.5,0.1,11-0.2,16.5,0c12.7,0,25.3-0.1,38,0c0.6,0,1.2-0.1,1.9,0c0.4,0,0.9,0,1.3,0c2.2,0,4.4-0.1,6.6,0
		c0.4,0,0.9,0,1.3,0c1.4,0,2.8,0,4.2,0c0.3,0,0.6,0,0.8,0c1.4,0,2.7,0,4.1,0c0.3,0,0.5,0,0.8,0c0.8,0,1.6,0,2.3,0c0.4,0,0.8,0,1.1,0
		c0.6,0,1.3,0,1.9,0c0.3,0,0.5,0,0.8,0c0.6,0,1.3,0,1.9,0c0.5,0,1,0,1.6,0c0.4,0,0.8,0,1.2,0C601.9,486.3,603.1,486.1,604,486.9z"/>
	<path class="st2" d="M431.6,636.5c1.2-6.7,2.4-13.5,3.7-20.2c2.4-13.1,4.9-26.3,7.4-39.4c1.7-8.9,3.4-17.8,5.2-26.7
		c0.2-1-0.2-2.2,0.7-3.1c0,0.7,0.1,1.5,0.1,2.2c0,56.1,0,112.3,0,168.4c0,0.7-0.1,1.5-0.1,2.2c-1.6-7.7-3.3-15.5-4.9-23.2
		c-2.9-14.1-5.9-28.1-8.7-42.2C433.7,648.5,432,642.6,431.6,636.5z"/>
	<path class="st2" d="M634.6,622c0,30.4,0,60.8,0,91.2c0,2.1-0.4,2.7-2.7,2.7c-55.2-0.1-110.5-0.1-165.7,0c-2.3,0-2.7-0.6-2.7-2.7
		c0.1-60.9,0.1-121.8,0-182.7c0-2,0.4-2.6,2.5-2.6c55.3,0.1,110.7,0.1,166,0c2.1,0,2.6,0.6,2.5,2.6C634.5,561,634.6,591.5,634.6,622
		z"/>
	<path class="st59" d="M700.6,294.6c0,4.2,0,8.3,0,12.5c0,1.4-0.4,1.9-1.8,1.9c-8.5,0-17,0-25.5,0c-1.3,0-1.7-0.5-1.7-1.8
		c0-8.5,0-17,0-25.5c0-1.3,0.4-1.8,1.7-1.8c8.5,0,17,0,25.5,0c1.4,0,1.9,0.5,1.8,1.9C700.5,286.1,700.6,290.4,700.6,294.6z"/>
	<path class="st37" d="M829.5,473.5c0.2,0,0.3,0,0.5,0c0.3,4,1.4,8,0,12c0,0.5,0,1,0,1.4c-6.2,0-12.3,0-18.5,0
		c-0.1-0.1-0.3-0.3-0.3-0.4c0-4.5-0.5-9,1.3-13.3c1.5-0.8,3.1-0.4,4.7-0.4c3.2-0.1,6.3,0,9.5,0C827.7,472.8,828.7,472.7,829.5,473.5
		z"/>
	<path class="st60" d="M829.5,473.5c-5.7,0-11.3,0-17,0c-0.8,0.7-1.8,0.8-2.8,0.7c-2.2-0.1-3,0.9-3,2.9c0,1.7-0.4,3.4-0.5,5.2
		c-0.2,3.9-0.5,4.1-4.1,4.6c-1.2,0-2.4,0-3.5,0c-0.9-1.4-0.2-2.9,0-4.4c0.2-2.1,0.6-4.3,0.9-6.4c0.2-1.4-0.3-2-1.8-2
		c-2.1,0-4.2,0.1-6.2,0c-1.7-0.1-2.6,0.6-2.9,2.3c-0.4,2.5-1.1,5-1.6,7.6c-0.2,1.1-0.4,2.1-1.3,2.9c-2.8,0-5.7,0-8.5,0
		c-0.9-1-0.8-2.2-0.6-3.3c0.5-2.5,0.2-5,0.4-7.5c0.1-1.5-0.5-1.9-1.9-1.9c-2.1-0.1-4.2,0.4-6.2-0.4c-0.1-0.1-0.2-0.2-0.3-0.3
		c0-0.1,0-0.3,0-0.4c2-1.5,4.3-0.6,6.5-0.8c4.5-0.1,8.9-0.1,13.4,0c4-0.1,7.9-0.1,11.9,0c2-0.1,4.1-0.1,6.1,0c2-0.1,4.1-0.1,6.1,0
		c4.6-0.1,9.3,0,13.9,0c0.9,0,1.8,0,2.7,0.5c0.1,0.1,0.2,0.2,0.3,0.4C829.5,473.2,829.5,473.3,829.5,473.5z"/>
	<path class="st35" d="M785.6,486.9c0.8-3.9,1.7-7.7,2.4-11.6c0.2-1.4,0.8-1.8,2.1-1.8c2.9,0,5.8,0,8.7,0c1.3,0,1.7,0.2,1.4,1.7
		c-0.7,3.9-1.2,7.8-1.7,11.7C794.2,487,789.9,486.9,785.6,486.9z"/>
	<path class="st38" d="M759,486.9c-1.9-4.4-3.8-8.7-5.9-13.5c5.3,0,10.4,0,15.4,0v0c0.5,0.6,0.7,1.3,0.7,2c0.1,3.1,0.1,6.2,0,9.4
		c0,0.8-0.2,1.5-0.8,2C765.4,486.9,762.2,486.9,759,486.9z"/>
	<path class="st35" d="M768.5,486.9c0-4.5,0-9,0-13.4c2.6,0,5.3,0,7.9,0c1.2,0,1.5,0.3,1.3,1.6c-0.4,3.9-0.5,7.9-0.8,11.8
		C774.2,486.9,771.4,486.9,768.5,486.9z"/>
	<path class="st39" d="M802.1,486.9c3.1-0.3,3.4-2.5,3.5-5c0.1-2.1,0.3-4.3,0.5-6.4c0.1-1.3,0.7-2.1,2.2-2.1c1.4,0.1,2.8,0,4.2,0
		c-0.3,4.5-0.7,9-1,13.5C808.4,486.9,805.2,486.9,802.1,486.9z"/>
	<path class="st61" d="M753.1,472.9c-5.1,0-10.3,0-15.4,0.1c-1.7,0-2.1-0.6-2.1-2.2c0.1-12.1,0.1-24.2,0.1-36.3
		c1.2,0.1,1.2,1.2,1.6,1.9c1,1.8,1.6,3.8,2.7,5.6c0.1,0.3,0.2,0.5,0.2,0.8c0.1,0.3,0.1,0.6,0.1,0.8c0,5.3,0,10.6,0,15.8
		c0,1-0.2,2,0.3,2.9c2,1.9,4.4,3.4,6,5.8c0.5,0.7,1.5,0.6,2.3,0.6c0.9,0,1.8-0.1,2.7,0.4C752.4,470.3,753.3,471.4,753.1,472.9z"/>
	<path class="st62" d="M739.5,442c-2-2.1-2.4-5.1-3.9-7.5c0-0.2,0-0.3-0.1-0.5c0-4.6,0.1-9.3,0-13.9c0-1.6,0.5-2.2,2.1-2.1
		c3.8,0.3,7.6-0.5,11.3,0.5c0.5,1.4-0.1,2.4-1,3.3c-1.9,0.8-2.4,3.1-4,4c-3.6,2.1-3.9,5.3-3.8,8.9
		C740.3,437.1,740.9,439.7,739.5,442z"/>
	<path class="st63" d="M753.1,472.9c-0.5-1.1-1.3-2.1-1.5-3.4c0.4-0.5,0.9-0.7,1.5-0.7c4.6-0.1,9.3-0.2,13.9,0.1
		c0.3,0,0.6,0.2,0.9,0.4c1,1.2,1.1,2.4,0.2,3.6C763.1,472.9,758.1,472.9,753.1,472.9z"/>
	<path class="st64" d="M768.1,472.9c0-1.1,0-2.2,0-3.3c0.1-0.1,0.2-0.2,0.3-0.3c2.4-0.6,4.7-0.7,7.1,0c0.9,1.3,0.4,2.5-0.4,3.7
		c-2.2,0-4.3,0.1-6.5,0.1C768.4,473,768.3,472.9,768.1,472.9z"/>
	<path class="st65" d="M827.5,418.1c0.2-0.1,0.3-0.1,0.5-0.2c5.7,0,11.3,0.1,17,0.1c0,0.2,0,0.3,0,0.5c-0.4,0.3-0.8,0.6-1.3,0.6
		c-5.3,0.1-10.5,0.5-15.8-0.3C827.6,418.7,827.5,418.5,827.5,418.1z"/>
	<path class="st66" d="M827.5,418.5c5.8,0,11.7,0,17.5,0c0,11.2,0,22.4,0.1,33.6c0,6.1,0.2,12.3,0.3,18.4c0,0.8,0.4,1.7-0.4,2.3
		c-0.9-1-0.6-2.2-0.6-3.3c0-2.9-0.1-5.8,0-8.4c-2.2,3.7-3.7,8.2-6.9,11.7c-0.3,0-0.7,0-1,0c-0.4-1.5,0.6-2.5,1.2-3.6
		c1.2-2.2,2.5-4.3,3.3-6.6c0.3-1.1,0.3-2.1,0.3-3.2c0-9.2,0-18.4,0-27.6c0-2-0.5-3.5-2.5-4.4c-2.1-0.9-3.1-2.9-4.5-4.6
		c-1-0.9-2.1-0.6-3.3-0.6c-1.3-0.1-2.6,0.3-3.8-0.6C826.8,420.5,826.7,419.5,827.5,418.5z"/>
	<path class="st67" d="M837.5,472.9c2.4-4.5,4.7-9,7.1-13.5c0.1,0,0.3,0.1,0.4,0.1c0,4.4,0,8.9,0,13.3
		C842.5,472.9,840,472.9,837.5,472.9z"/>
	<path class="st68" d="M841.5,463.5c-1.7,3.1-3.3,6.3-5,9.4c-2.3,0-4.7,0.1-7,0.1c0,0,0-0.1,0-0.1c-1-1.2-1.3-2.4-0.3-3.8
		c1.6-0.8,3.5,0.1,5.1-0.8c1.2-1.2,2.1-2.8,3.5-3.7C838.9,463.9,839.9,462.7,841.5,463.5z"/>
	<path class="st60" d="M830,485.5c0-3,0.1-6.1-0.4-9.1c-0.2-1-0.1-2,0.4-2.9c2,0,4.1,0,6.5,0C834.2,477.7,832.1,481.6,830,485.5z"/>
	<path class="st69" d="M782,418c0,0.5,0.1,1,0.1,1.5c0.6-0.5,0.6-1.3,1.4-1.5c5.7,0,11.3,0,17-0.1c0,0-0.1,0.2-0.1,0.2
		c0.2,0.2,0.3,0.5,0.3,0.8c-0.1,1.4-0.4,2.7-1.9,3.2c-7.1,0.1-14.1,0.5-21.2-0.2c-1-2.5-3-2.8-5.4-2.7c-1.5,0.1-3.1,0.3-4.6-0.4
		c-0.3-0.2-0.4-0.4-0.2-0.7c0,0-0.1-0.1-0.1-0.1C772.4,417.9,777.2,418,782,418z"/>
	<path class="st70" d="M827.5,418.5c0,1,0,2,0,3c-0.9,0.9-2,0.7-3,0.7c-2.7-0.1-5.4,0.3-8.1-0.2c-1.2-1.3-1.8-3.5-4.3-2.8
		c-1.2,0-2.4,0.1-3.6-0.2c-0.3-0.1-0.5-0.3-0.6-0.5c0-0.1,0.1-0.3,0.1-0.4c0.2,0,0.3-0.1,0.5-0.1c1.2,0,2.3,0,3.5,0c1.3,0,2.7,0,4,0
		c3.8,0.1,7.7,0.1,11.5,0.2C827.5,418.2,827.5,418.4,827.5,418.5z"/>
	<path class="st65" d="M808,418.1c0,0.1,0,0.3,0,0.4c-2.5,1.2-5,1.2-7.5,0c0-0.1,0-0.3,0-0.4C803,418.1,805.5,418.1,808,418.1z"/>
	<path class="st71" d="M767.6,418.1c0,0.1,0,0.3,0,0.4c0.8,1.1,0.8,2.1,0,3.2c-0.4,0.3-0.9,0.5-1.4,0.5c-5.6,0.1-11.2,0.1-16.9,0
		c-0.3,0-0.6-0.1-0.9-0.3c-0.1-0.1-0.2-0.2-0.4-0.3c0.3-1,0.7-2,1-3c0-0.1,0-0.3,0-0.4C755.2,418,761.4,418.1,767.6,418.1z"/>
	<path class="st3" d="M702.5,621.9c0-29.7,0-59.5,0-89.2c0-2.1,0.4-2.7,2.7-2.7c53.9,0.1,107.8,0.1,161.7,0c2.3,0,2.7,0.6,2.7,2.7
		c-0.1,59.6-0.1,119.1,0,178.7c0,2-0.4,2.6-2.5,2.6c-54-0.1-108-0.1-162,0c-2.1,0-2.6-0.6-2.5-2.6
		C702.6,681.6,702.5,651.7,702.5,621.9z"/>
	<path class="st21" d="M888.9,146.1c2.8,1.5,5.8,2.8,8.5,4.4c1.4,0.8,2.2,0.6,3.2-0.4c4.7-4.4,9.4-8.7,14.1-13
		c0.8-0.7,1.6-1.3,2.8-1.6c-5.2,9.6-10.4,19.2-15.8,29.1c-4.5-6.2-8.9-12.2-13.2-18.1C888.7,146.4,888.8,146.3,888.9,146.1z"/>
	<path class="st72" d="M884.3,388.7c-1.7,3.1-3.2,5.8-4.7,8.7c-1.5-1.6-2.8-3.2-4-5.5C880,394.5,881.1,389.9,884.3,388.7z"/>
	<path class="st73" d="M220.6,88c-0.2,0.1-0.3,0.1-0.5,0.2c-2,0-4-0.1-5.9-0.1c-1.2,0-1.6-0.3-1.6-1.5c0-1.2,0.5-1.6,1.6-1.5
		c2.1,0.1,4.3,0.1,6.4,0.1C220.6,86.1,220.6,87,220.6,88z"/>
	<path class="st74" d="M232.9,292.1c-3-4.2-5.9-8.1-8.8-12c0.1-0.1,0.1-0.2,0.2-0.4c1.7,0.8,3.4,1.5,4.9,2.5
		c1.3,0.9,2.1,0.7,3.2-0.4c3.5-3.3,7.1-6.4,10.9-9.4C240,278.9,236.5,285.4,232.9,292.1z"/>
	<path class="st21" d="M482.6,365c-0.5,3.3-1.1,6.6-1.6,9.9c-19.8,0-39.6,0-59.5,0.1c-1.5,0-2-0.4-2-2c0-19.6,0-39.3,0-58.9
		c0-1.7,0.6-2.1,2.2-2.1c19.6,0,39.1,0.1,58.7,0c2.1,0,2.2,1,2.2,2.6C482.6,331.4,482.6,348.2,482.6,365z"/>
	<path class="st47" d="M397.6,183.1c0-0.6,0.1-1.2,0-1.7c-0.2-1.7,0.4-2.3,2.2-2.3c7-0.1,13.4-2,19.1-6.1c0.6-0.4,0.9-0.8,1.7-0.2
		c5.7,4.8,12.6,5.9,19.7,6.7c1.4,0.2,1.9,0.6,1.8,1.9c-0.3,12.9-2.7,25.3-10.7,35.8c-2.6,3.4-5.8,6.1-9.5,8.4c-1.6,1-3,1-4.6,0
		c-5-3-9-7-11.9-12.1c-4.6-7.9-6.8-16.5-7.3-25.6c0-0.8-0.4-1.6-0.4-2.4C397.5,184.7,397.6,183.9,397.6,183.1
		C397.6,183.1,397.6,183.1,397.6,183.1z"/>
	<path class="st21" d="M483.1,122c1.8,0.3,4.6-1,6.1,0.5c1.3,1.4,0.3,4.1,0.4,6.3c0.1,1.8,0,3.7,0,5.5c0,1.3-0.5,1.8-1.8,1.7
		c-3.5-0.1-7-0.1-10.5,0c-1.5,0-1.8-0.6-1.8-1.9c0.1-3.4,0.1-6.8,0-10.2c0-1.4,0.5-1.9,1.9-1.9C479.2,122.1,480.9,122,483.1,122z"/>
	<path class="st54" d="M314.6,428.5c-1.8,0.9-3.7,1.9-5.6,2.8c-3.2,1.5-6.8,0.6-9.4-2.1c-3.8-4.1-3.9-11,0.1-15
		c2.2-2.3,5-3.3,8.2-2.4c2.3,0.6,4.5,1.5,6.7,2.7c-0.3,0.8-1.1,1-1.7,1.2c-2.5,0.9-3.5,2.8-3.6,5.4c-0.1,2.7,0.8,4.9,3.3,6.1
		C313.3,427.5,314.1,427.7,314.6,428.5z"/>
	<path class="st55" d="M314.6,428.5c-4.3-1.2-5.9-2.9-6-6.4c-0.1-4.4,1-5.9,6-7.6c5.5,1.7,7.6,5.8,5.5,10.3
		C318.9,427.1,316.9,428,314.6,428.5z"/>
	<path class="st3" d="M395.6,621.9c0,29.8,0,59.6,0,89.5c0,2-0.4,2.6-2.6,2.6c-54-0.1-108-0.1-161.9,0c-2.1,0-2.6-0.5-2.6-2.6
		c0.1-59.6,0.1-119.3,0-178.9c0-2,0.4-2.6,2.6-2.6c54,0.1,108,0.1,161.9,0c2.1,0,2.6,0.5,2.6,2.6
		C395.6,562.3,395.6,592.1,395.6,621.9z"/>
	<path class="st75" d="M569.5,486.9c-12.8,0-25.6,0-38.3,0c-1.2-0.4-1.3-1.3-0.9-2.3c3.2-1.7,6.5-3.3,9.6-5.2
		c15.6-9.6,20-30.2,9.4-45.1c-4.4-6.2-10.3-10.6-17.7-12.8c-0.5-0.2-0.9-0.5-1.1-1c0.5-1.8-0.9-4,1.1-5.6
		c10.3-1.4,20.7-0.4,31.1-0.7c0.7,0,1.5,0,2.2,0.2c3,3.4,6.2,6.8,5.3,11.9c-0.1,0.7-0.1,1.7-1,1.7c-1.1,0-1.1-1-1.2-1.8
		c-0.1-0.8,0-1.7-0.1-2.5c-0.1-0.8-0.4-1.4-1.3-1.5c-0.6-0.1-1.3-0.3-1.7,0.2c-0.6,0.8,0.2,1.4,0.6,2c0.3,0.5,0.7,0.9,1.1,1.3
		c1.1,1.2,1.8,2.2-0.5,3c-1.5,0.5-1.1,4.2,0.4,5.1c2.5,1.4,3.1,4.4,5,6.3c0.5,0.5,0,1.2-0.7,1.3c-2.1,0.3-2.1,1.7-2.1,3.3
		c0,1.1,0.4,2.8-1.2,2.8c-1.5,0-1.1-1.8-1.1-2.9c-0.1-1.6,0.1-3.1-2.3-3c-1.2,0.1-1.7,0.9-0.9,1.6c2.5,2.3,2.1,5,1.6,7.9
		c-0.4,2.1,0.6,4.3,0.4,6.5c0,0.7,0,1.3-0.2,2c-0.1,0.5-0.3,1-0.9,1c-0.8,0.1-1-0.5-1.1-1.1c-0.3-1.6-0.1-3.2-0.2-4.7
		c0-1.6,0-3.2,0-4.7c-0.1-1.2-0.7-1.8-1.9-1.8c-0.6,0-1.2-0.1-1.6,0.5c-0.3,0.5,0.1,1,0.3,1.4c0.5,0.9,1.3,1.5,1.9,2.3
		c0.8,1,0.8,1.9-0.7,2.1c-2.2,0.4-1.7,1.7-0.7,2.6c2.8,2.4,4.3,5.9,6.8,8.5c2.2,2.2,1.8,4.8,1.6,7.5c-0.1,0.5-0.3,1-0.9,1
		c-0.7,0-0.9-0.6-1.1-1.2c-0.2-1-0.1-2-0.2-3c0-1.3-0.7-1.8-1.9-1.8c-1.4,0-1.9,0.4-1.1,1.8c0.4,0.6,0.8,1.3,1.3,1.9
		c0.8,1,1.1,1.8,0.5,3.1c-0.8,2-0.6,3.9,0.8,5.9C567.2,482.7,569,484.5,569.5,486.9z"/>
	<path class="st76" d="M565.5,415.1c-10.7,0-21.5-0.1-32.2-0.1c-0.6,0-1.2,0-1.7-0.1c2.3-0.2,3.2-1.7,4.1-3.6
		c4.3-8.8,10.1-16.5,17.9-22.5c3.2-2.5,6.7-4.2,10.6-5.3c1-0.8,2.1-0.3,3.1-0.1c3.1,0.6,6.2,0.6,9.4,0.2c1.5,2.2,4.1,3,6,4.7
		c6.1,5.4,9.2,12.2,10.4,20c0.1,0.9,0.4,1.8,0.5,2.7c0.3,3.6,0.3,3.5,3.9,3.6c2.2,0.1,4.5-0.6,6.6,0.5c-0.3,0.4-0.7,0.5-1.2,0.6
		c-0.2,0-0.4,0-0.7,0c-0.2,0-0.4,0-0.7,0c-0.3,0-0.7,0-1,0c-0.3,0-0.7,0-1,0c-0.3,0-0.7,0-1,0c-0.2,0-0.5,0-0.7,0
		c-0.6,0-1.2,0-1.7,0c-0.4,0-0.7,0-1.1,0c-0.5,0-1,0-1.5,0c-0.4,0-0.8,0-1.1,0c-0.8,0-1.5,0-2.3,0c-0.3,0-0.5,0-0.8,0
		c-1.4,0-2.7,0-4.1,0c-0.3,0-0.6,0-0.8,0c-1.4,0-2.8,0-4.2,0c-0.4,0-0.9,0-1.3,0c-2.2,0.1-4.4,0.1-6.6,0c-0.4,0-0.9,0-1.3,0
		C569.1,415.6,567.2,416.1,565.5,415.1z"/>
	<path class="st77" d="M514.5,486.9c-2.7,0-5.3,0-8,0c-6.1-1.1-11.8-3.1-16.9-6.8c-20.3-15-18.1-46.6,4.1-58.6
		c2.4-1.3,4.6-2.9,7.4-3.5c3.6-0.6,7.1-1.3,10.8-1.3c13.5,0.1,27.1,9.8,31.6,22.6c3.8,10.9,3,21.3-2.8,31.2c-1.7,3-4,5.5-6.5,7.9
		c-1.6,0.7-2.2,2.5-3.7,3.4c-2.3,0.7-4.2,2.1-6.3,3C521.1,486.1,517.9,486.7,514.5,486.9z"/>
	<path class="st78" d="M533.5,478.5c4.3-4.4,7.9-9.2,9.8-15.1c7-20.7-6.5-42.7-28.1-45.7c-4.1-0.6-8.3-0.6-12.4,0.5
		c-0.6,0.2-1.2,0.6-1.8-0.1c9.4-3.4,18.7-2.8,27.7,1.5c0.6,0.3,1.2,0.6,1.8,0.9c0.4,0.2,0.7,0.4,1.1,0.5c6.7,2.8,10.6,8.3,13.5,14.4
		c6.7,14.3,3.7,28.8-6.5,40C537.2,476.8,536.1,478.9,533.5,478.5z"/>
	<path class="st76" d="M581,376c1.2,1,1,1.8,0,2.8c-1.3,1.5-3.1,2.4-4.5,3.7c-2.6-1.3-5.7-0.6-8.3-2c-0.7-0.4-1.6-0.5-2.2-1.1
		c-0.3-1.8-0.8-3.5-1-5.3c-0.1-1.4-0.6-3.3,1-4c1.6-0.7,3.2,0.1,4.4,1.3c0.3,1.6,1.3,3,1.6,4.8c0.4-1.1,0.1-2.2,0.9-2.9
		c1.2-0.1,2.4,0.2,3.6-0.3c1-0.4,1.7,0.1,2.4,0.8c0.4,1.6-1.2,2.4-1.7,3.7C578.7,377.1,579.8,376.4,581,376z"/>
	<path class="st79" d="M595.1,415c0.3,0,0.7,0,1,0c1.3,4.4,1.4,8.9,0.9,13.5c0.5,1.9,0.8,3.8-0.3,5.6c-0.9,2.1-0.2,4.3-0.6,6.5
		c0,0.3-0.1,0.5-0.2,0.8c-0.5,2,0,4-0.4,6c0,0.3-0.1,0.6-0.2,0.8c-0.3,2.7-0.2,5.4-0.1,8.2c0,3.1-0.7,6.2-0.5,9.4
		c0,0.7-0.2,1.3-0.7,1.8c-1.4,0.5-1.6-0.6-1.7-1.5c-0.6-5.9-1.7-11.7-0.9-17.7c0.1-0.3,0.2-0.6,0.5-0.8c0.3-0.2,0.6-0.2,0.8,0
		c0.9,1.2,0.4,2.6,0.5,3.8c0.1,2.7,0,5.3,0,8c0.1-8.3-0.3-16.6,0.7-24.9c0.3-4.7,1.3-9.4,0.4-14.2
		C594.2,418.6,593.8,416.7,595.1,415z"/>
	<path class="st80" d="M597,448.5c-0.4,4,1.1,8.1-0.2,12.2c0.8,4.6,0.6,9.2,0.1,13.8c0.4,1.9,0.8,3.8-0.3,5.6
		c-0.4,0.5-0.9,0.7-1.6,0.4c-1.2-2.1-0.6-4.4-0.4-6.6c0.6-3.6,0.1-7.3,0.2-10.9c0.2-5.1-0.3-10.3,0.3-15.4l0,0
		c0.7-2.1-0.2-4.4,0.5-6.5l0,0c1.6-0.5,1.5,0.8,1.6,1.6C597.4,444.6,597.3,446.5,597,448.5z"/>
	<path class="st81" d="M566.1,379.5c0.8-0.2,1.6-0.1,2.4,0.4c1.5,0.8,3.1,1.2,4.8,1c1.5-0.2,2.6,0.4,3.3,1.7c0,0.3,0.1,0.6,0.1,0.9
		c-0.3,1.5-1.5,1.1-2.4,1.1c-3.4,0.2-6.7-0.5-10.1-1.1C564,381.8,565,380.6,566.1,379.5z"/>
	<path class="st82" d="M599,460.9c1.3-0.4,2.9-0.5,3.3,0.7c0.5,1.6,1.1,3.9-0.4,5.1c-1.1,1-1.1,1.7-1.1,2.8c0,1.3,0.6,2.8-0.7,4
		c-1.2,0.5-2.1,0.1-2.1-1.2C597.8,468.5,598.1,464.6,599,460.9z"/>
	<path class="st83" d="M602.1,434.6c0.2,0,0.5,0,0.7-0.1c3.5-0.1,5,2.1,3.7,5.5c-0.3,0.8-1,1-1.8,1c-0.9,0-1.8-0.1-2.7-0.1
		C601,438.8,601,436.7,602.1,434.6z"/>
	<path class="st84" d="M604,486.9c-1.2,0-2.3,0-3.5,0c-1.1-2.1-1-4.2,0-6.3c1.3,0,3.2-0.9,3.8,0.7C605.1,483,605.2,485.1,604,486.9z
		"/>
	<path class="st85" d="M599,460.9c0.4,3.5-0.5,7-0.5,10.5c0,1.2,0,2.2,1.6,2.1c-0.9,1-2.4-0.1-3.3,0.9c-0.5-4.6-0.4-9.2-0.1-13.8
		C597.5,460.5,598.3,460.6,599,460.9z"/>
	<path class="st86" d="M600.6,415c0.3,0,0.7,0,1,0c0.5,1.9,0.1,3.8,0.2,5.4c0.3-1.6-0.3-3.5,0.3-5.4c0.2,0,0.3,0,0.5,0
		c0.9,1,0.6,2.3,0.7,3.5c0,0.9,0.4,1.7,0.8,2.5c-1.4,0.4-1.6,1.2-1.6,2.7c0,1.4,1.3,3.6-1.4,4.2C600,423.7,599.2,419.4,600.6,415z"
		/>
	<path class="st87" d="M597,428.5c-0.6-4.5-0.9-9-0.9-13.5c0.7,0,1.3,0,2,0c1.2,1.9,0.5,3.9,0.6,5.9c0,0.3-0.1,0.6-0.2,0.8
		c-0.7,2,0.4,4.3-0.9,6.2C597.4,428.1,597.2,428.3,597,428.5z"/>
	<path class="st88" d="M600.6,415c-0.3,4.3,0.9,8.6,0.5,12.9c-0.7,0-1.3,0-2,0c-0.9-0.9-0.8-2.2-0.7-3.3c0.4-3.2-0.1-6.5,1.2-9.6
		C599.9,415,600.2,415,600.6,415z"/>
	<path class="st89" d="M597,448.5c-1-1.7-0.2-3.6-0.4-5.3c-0.1-0.8,0.4-1.9-1-2.2c0-1.6,0-3.2,0-4.8c0-0.9,0-1.8,1.1-2.1
		c0.1,0.2,0.3,0.3,0.4,0.5c1.2,2.9,0.5,6,1.2,8.9c0.2,0.9-0.2,2,0.4,2.9c0.3,0.4,0.8,0.7,1,1.1C598.9,448.3,597.6,447.3,597,448.5z"
		/>
	<path class="st90" d="M599.6,447.5c-0.5,0-1.1-0.1-1.6-0.1c-0.4-2.1-0.3-4.3,0-6.4c0.6-0.4,1.2-0.4,1.7,0.1
		C601.5,442.7,601.5,446,599.6,447.5z"/>
	<path class="st87" d="M595.6,480.5c0.2-0.4,0.6-0.5,1-0.5c0.3,0.7,1,0.3,1.5,0.5c1.1,2.1,1.1,4.3,0,6.4c-0.7,0-1.3,0-2,0
		c-1.2-1.9-0.5-4-0.6-6C595.5,480.8,595.5,480.6,595.6,480.5z"/>
	<path class="st91" d="M599.6,415c-0.2,4.3-0.3,8.6-0.5,12.9c-0.3,0-0.7,0-1,0c-0.4-2.2-0.4-4.3,0-6.5l0,0c0.7-2.1-0.2-4.4,0.5-6.5
		C598.9,415,599.2,415,599.6,415z"/>
	<path class="st92" d="M604.1,421c-1.2,0.1-1.6-0.5-1.5-1.6c0.1-1.5,0-2.9,0-4.4c0.5,0,1,0,1.5,0C605.1,417,605.1,419,604.1,421z"/>
	<path class="st93" d="M581,376c-1.1,1.6-3,1.8-4.8,2.9c0.5-2.2,2.2-3.2,2.9-4.9C579.7,374.7,580.4,375.4,581,376z"/>
	<path class="st87" d="M599.6,441.1c-0.5,0-1.1-0.1-1.6-0.1c-0.8-2.1-0.8-4.3,0-6.4c0.5,0,1,0,1.5,0
		C600.6,436.7,600.6,438.9,599.6,441.1L599.6,441.1z"/>
	<path class="st94" d="M598,434.6c0,2.1,0,4.3,0,6.4c0,2.1,0,4.3-0.1,6.4c-0.8-4.2-1-8.5-0.9-12.8
		C597.4,434.6,597.7,434.6,598,434.6z"/>
	<path class="st95" d="M598.1,486.9c0-2.1,0-4.3,0-6.4c0.5,0,1,0,1.5,0.1c0.8,2.1,0.8,4.2,0,6.3
		C599.1,486.9,598.6,486.9,598.1,486.9z"/>
	<path class="st96" d="M573.1,373.5c-0.1,1.2,0.3,2.5-0.8,3.8c-1-1.9-2.1-3.6-1.7-5.7C571.2,372.5,572.2,372.9,573.1,373.5z"/>
	<path class="st97" d="M599.6,441.1c0-2.2,0-4.3,0-6.5c0.3,0,0.6,0,1,0c1.1,2.1,1.1,4.3,0,6.4C600.2,441,599.9,441,599.6,441.1z"/>
	<path class="st98" d="M599.6,486.9c0-2.1,0-4.2,0-6.3c0.3,0,0.7,0,1,0c0,2.1,0,4.2,0,6.3C600.2,486.9,599.9,486.9,599.6,486.9z"/>
	<path class="st99" d="M600.6,441c0-2.1,0-4.3,0-6.4c0.3,0,0.7,0,1,0c0.4,2.1,0.4,4.2,0,6.4C601.2,440.9,600.9,441,600.6,441z"/>
	<path class="st98" d="M601.6,440.9c0-2.1,0-4.2,0-6.4c0.2-0.1,0.3-0.1,0.5,0c0,2.1,0,4.2,0,6.4
		C601.9,440.9,601.7,440.9,601.6,440.9z"/>
	<path class="st75" d="M598.1,421.5c0,2.2,0,4.3,0,6.5l-0.2,0.1l-0.2-0.1C597.8,425.8,597,423.6,598.1,421.5z"/>
	<path class="st77" d="M585,415c1.5,0,3,0,4.5,0c0.5,2,0,4.1,0.2,5.7c0.3-1.6-0.3-3.7,0.2-5.7c0.8,0,1.7,0,2.5,0
		c1,4,1.3,8.1,1.1,12.2c-0.1,0.3-0.1,0.5-0.3,0.8c-0.8,1-0.6,2.3-0.6,3.5c0,1,0.1,2-0.5,2.8c-0.3,0.2-0.5,0.2-0.8,0
		c-0.7-3.8-0.5-7.5-0.6-9.9c0.2,2.7,0.2,6.8,0.7,11c0.4,3.8,1.3,7.7,0.4,11.6c-0.2,0.5-0.6,1-0.7,1.6c-0.2,3.9,0.1,7.8-0.2,11.7
		c-0.6,1.9-0.5,3.8-0.3,5.7c0.1,0.2,0.3,0.4,0.4,0.6c0.4,0.4,0.7,0.8,0.8,1.4c0.3,5.1,0.8,10.3,1.1,15.4c0.1,1.1,0.2,2.4-0.7,3.3
		c-0.8,0-1.7,0-2.5,0c-0.5-2,0-4.1-0.3-5.9c-0.1,1.8,0.3,3.8-0.2,5.9c-1.5,0-3,0-4.5,0c-0.4-2.1-0.3-4.2-0.1-6.3
		c1.3-2.5,0.3-5.2,0.8-7.8c0.3-1.4,0.1-2.9-0.1-4.3c-0.2-0.3-0.6,0.1-0.3,0c0.1-0.1,0.2,0,0.2,0.1c0.3,4,0.1,7.9-0.5,11.8
		c-1,2.1,0.1,4.4-0.6,6.6c-1.5,0-3,0-4.5,0c-1-1.2-0.2-2.5-0.5-3.6c-0.2,1,0.5,2.4-0.5,3.6c-2.3,0-4.7,0-7,0
		c-0.9-2.1-0.5-4.2-0.3-6.3c0.1-1.1,0.3-2.1,0.3-2.6c-0.8,2.6,0,5.9-1,8.9c-0.5,0-1,0-1.5,0c-2.4-1.8-3.2-4.7-5.1-6.9
		c-1.1-1.3-1.1-4.1,0.2-5.8c0.7-0.9,0.3-1-0.1-1.5c-1-1.1-1.8-2.4-2.5-3.7c-0.2-0.3-0.3-1-0.2-1.1c1.3-0.8,2.7-0.3,4.1-0.4
		c1.1,0,1.1,0.8,1.1,1.6c0,1.5,0,3,0.2,4.5c1.5-2.9,1-5.7-1.1-7.8c-0.2-0.2-0.4-0.3-0.5-0.5c-1.8-3-4-5.5-6.4-8.1
		c-1.9-2.1-1.3-2.9,2.5-3.6c-1.2-1.6-2.9-2.7-3.5-4.6c-0.4-1.1-0.2-1.5,1-1.6c3.6-0.5,4.2,0,4.2,3.7c0,3,0,6,0.3,9
		c1.1-1.5,0.7-3.2,0.6-4.8c-0.2-2.7-1.4-5.5,0.7-8c0.3-0.3-0.2-0.7-0.5-1c-0.4-0.5-1-0.9-1.3-1.5c-0.7-1.1-2.1-2.4-1.3-3.5
		c0.8-1,2.7-0.3,4.1-0.3c1.1,0,1,0.9,1,1.7c0.1,1.5-0.2,3,0.3,4.6c1.2-0.9,0.7-2.1,0.7-3c-0.2-2.3,0.1-4,3.5-3.3
		c-1.7-2.2-3.5-3.7-4.1-6c-0.1-0.5-0.6-0.5-1-0.6c-0.8-0.1-1.8,0.2-1.9-1.1c-0.1-1.7-0.1-3.5,0.1-5.2c0-0.2,1.6-0.3,2.8-0.5
		c-1.6-1.9-3.6-3.5-4-6.2c1.8,0.2,3.9-1.1,5,0.8c0.8,1.5-0.1,3.6,0.5,5.4c1.3-2.2,1-6.2-0.5-7.8c-1.4-1.4-2.2-3.1-2.8-5
		c1.8,0,3.7,0,5.5,0c0.9,1.2,0.3,2.5,0.5,3.6c0.3-1.1-0.4-2.4,0.5-3.6c2.3,0,4.7,0,7,0c0.9,1.2,0.3,2.6,0.5,3.7
		c0.3-1.1-0.4-2.5,0.5-3.7c1.5,0,3,0,4.5,0c0.5,2,0.1,4.1,0.2,5.8C585.1,419.1,584.5,417.1,585,415z"/>
	<path class="st100" d="M514.5,486.9c5.3-1,10.3-2.6,14.9-5.4c0.4-0.2,0.9-0.7,1.3,0c0.7,1,0.6,2,0,3c-0.2,0.9,0,1.7,0.6,2.4
		C525.6,486.9,520.1,486.9,514.5,486.9z"/>
	<path class="st101" d="M592.6,486.9c0.2-6.5-1.2-12.9-1-19.4c0.3-0.2,0.6-0.2,0.9-0.1c1,0.9,0.8,2.1,0.9,3.2
		c0.2,3.3,0.4,6.7,0.8,10c0.1,2.1,0.8,4.3-0.5,6.3C593.2,486.9,592.9,486.9,592.6,486.9z"/>
	<path class="st87" d="M593.5,486.9c0-2.1,0-4.3,0-6.4c0-0.1,0.1-0.2,0.1-0.4c0.4-1.2,0.2-2.5,0.3-3.7c0-0.9-0.1-1.8,0.8-2.5
		c0.1,0,0.3,0,0.4,0c0.3,2.2-0.6,4.4,0.5,6.5c0,0,0,0,0,0c0.4,2.1,0.4,4.3,0,6.4C594.9,486.9,594.2,486.9,593.5,486.9z"/>
	<path class="st79" d="M571.1,486.9c-0.3-4.2,0.7-8.4,1-12.6c1,4.2-0.4,8.4,0,12.6C571.7,486.9,571.4,486.9,571.1,486.9z"/>
	<path class="st98" d="M579.1,486.9c0-2,0-4.1,0-6.1c0.2,0,0.5,0,0.7,0c0.5,2,0.1,4.1,0.2,6.1C579.7,486.9,579.4,486.9,579.1,486.9z
		"/>
	<path class="st80" d="M595.6,486.9c0-2.1,0-4.3,0-6.4c1.1,2.1,0.2,4.3,0.5,6.4C595.9,486.9,595.7,486.9,595.6,486.9z"/>
	<path class="st75" d="M589.6,486.9c0-1.9,0-3.9,0-5.8c0.2,0,0.3,0,0.5,0c0,1.9,0,3.9,0,5.8c0,0-0.2,0.1-0.2,0.1L589.6,486.9z"/>
	<path class="st75" d="M585.1,480.5c0,2.1,0,4.3,0,6.4c0,0-0.2,0.1-0.2,0.1s-0.2,0-0.2,0C584.8,484.8,583.9,482.6,585.1,480.5
		L585.1,480.5z"/>
	<path class="st3" d="M632.6,622.2c0,29.7,0,59.3,0.1,89c0,2.3-0.7,2.8-2.9,2.8c-53.8-0.1-107.7-0.1-161.5,0c-2.1,0-2.7-0.4-2.7-2.7
		c0.1-59.6,0.1-119.1,0-178.7c0-2.3,0.6-2.7,2.7-2.7c53.9,0.1,107.8,0.1,161.7,0c2,0,2.6,0.4,2.6,2.5
		C632.5,562.4,632.6,592.3,632.6,622.2z"/>
	<path class="st0" d="M685.8,308c-3.7,0-7.3,0-11,0c-1.6,0-2.3-0.5-2.3-2.2c0-7.6,0-15.2,0-22.7c0-1.5,0.6-2.1,2.1-2.1
		c7.6,0,15.2,0,22.7,0c1.7,0,2.1,0.8,2.1,2.3c0,7.5,0,15,0,22.5c0,1.6-0.6,2.2-2.2,2.2C693.5,307.9,689.6,308,685.8,308z"/>
	<path class="st70" d="M829.1,469.5c0.2,1.1,0.3,2.3,0.5,3.4c-5.7,0-11.4,0-17.1,0c-0.9-1.2-0.9-2.5,0.1-3.7
		c1.8-0.9,3.7-0.4,5.6-0.5c2.7-0.1,5.4,0,8.1,0C827.3,468.8,828.3,468.7,829.1,469.5z"/>
	<path class="st102" d="M775,472.9c0.2-1.1,0.3-2.2,0.5-3.4c0.3-0.4,0.7-0.7,1.2-0.7c4,0,8-0.5,12.1,0.2c1.4,1.3,0.9,2.6-0.2,3.8
		C784.1,472.9,779.5,472.9,775,472.9z"/>
	<path class="st103" d="M788.6,472.9c0.2-1.1,0.3-2.2,0.5-3.3c0.3-0.4,0.6-0.6,1-0.6c3.6-0.1,7.1-0.5,10.7,0.2
		c1.3,1.4,0.6,2.6-0.3,3.8C796.5,472.9,792.6,472.9,788.6,472.9z"/>
	<path class="st104" d="M812.5,469.5c0,1.1,0,2.3,0,3.4c-2,0-4,0-5.9,0c-0.9-1.2-0.9-2.4-0.1-3.6
		C808.5,468.6,810.5,468.3,812.5,469.5z"/>
	<path class="st105" d="M806.6,469.6c0,1.1,0,2.2,0,3.3c-2,0-4,0-6,0c0.2-1.1,0.3-2.2,0.5-3.4C802.9,468.4,804.7,468.4,806.6,469.6z
		"/>
	<path class="st38" d="M739.6,443c0-0.2,0-0.3,0-0.5c1.1-6.9,4.4-13,6.7-19.5c0.4-1.2,1.3-1.4,2.4-1.3c6.3,0.1,12.6-0.2,18.9,0.2
		c0.7,0.8,0.7,1.9,0.7,2.8c-0.3,13.6,0.9,27.1,0.5,40.7c0,0.9,0,1.8-0.2,2.7c-0.1,0.3-0.2,0.6-0.4,0.8c-5.5,0.5-10.9,0.1-16.4,0.2
		c-1,0-1.5-0.6-1.9-1.4c-3.4-7.5-7.1-14.8-9.9-22.6C739.6,444.6,740,443.7,739.6,443z"/>
	<path class="st32" d="M740.1,445c2.4,4.1,4,8.5,6,12.8c1.6,3.4,3.1,6.8,4.6,10.2c0.5,1.2,1.6,1,2.5,1c5,0,10,0,14.9,0
		c0.1,0.1,0.2,0.2,0.1,0.3c0,0.1-0.1,0.2-0.1,0.2c0,0,0.1,0.1,0.1,0.1c-5.5,0-11,0-16.5,0c-0.4,0-0.8-0.1-1.2,0
		c-2.4,0.2-4.3,0-5.7-2.5c-0.9-1.7-2.6-2.9-4.6-3.5C739.6,457.3,739.6,451.1,740.1,445z"/>
	<path class="st106" d="M748.1,421.9c-1.2,0.2-1.1,1.3-1.4,2.1c-2.4,6.2-4.7,12.3-7,18.5c0-0.2,0-0.3-0.1-0.5c0-3.8,0.1-7.6,0-11.5
		c0-1.6,0.3-2.7,1.9-3.6c1.8-0.9,3.2-2.4,4.1-4.2c0.6-1.1,1.3-1.4,2.4-1.3c0,0,0,0,0,0c0.2,0.1,0.2,0.2,0.2,0.3
		C748.2,421.9,748.1,421.9,748.1,421.9z"/>
	<path class="st106" d="M740.1,445c0,6.2,0,12.3,0,18.5c-0.7-0.6-0.5-1.4-0.5-2.1c0-6.1,0-12.3,0-18.4
		C740.2,443.5,740,444.3,740.1,445z"/>
	<path class="st107" d="M768,469.5c0-0.2,0-0.3,0-0.5c0,0,0,0,0,0c1.6-1.2,3.5-0.7,5.3-0.8c1.6-0.1,3.1-0.1,4.7,0
		c3.8-0.1,7.7-0.1,11.5,0c3.8-0.1,7.6-0.1,11.4,0c2-0.1,4.1-0.1,6.1,0c2-0.1,4.1-0.1,6.1,0c5.4-0.1,10.8-0.1,16.3,0
		c1.9,0.1,3.9-0.5,5.6,0.7c-1.9,1.1-4,0.2-5.9,0.6c-5.5,0-11,0-16.5,0c-2,0-4,0-5.9,0c-1.9,0-3.7,0-5.6,0c-4,0-7.9,0-11.9,0
		c-4.5,0-9.1,0-13.6,0C773,469.5,770.5,469.5,768,469.5z"/>
	<path class="st33" d="M835,469c-1.8,0-3.6,0-5.5,0c-0.6-0.7-0.7-1.5-0.8-2.3c0-3.8-0.5-7.6-0.6-11.5c-0.2-9.1-0.3-18.3-0.9-27.4
		c-0.1-1.9-0.5-4,0.6-5.8c2.4-0.3,4.7-0.5,7.1,0.1c1.2,2.6,3.1,4.5,5.8,5.6c0.9,0.3,1.3,0.8,1.3,1.8c0,10.8,0,21.6,0,32.4
		c0,0.6-0.2,1.1-0.5,1.6C838.4,464.1,836.6,466.4,835,469z"/>
	<path class="st108" d="M835,422c-2.3,0-4.6,0-7,0c-1.1,0.9-2.3,0.7-3.6,0.7c-2.7,0-5.5,0.1-8.2,0c-1.5,0-3.1,0.1-4.6,0
		c-1.4,0.1-2.8,0-4.2,0c-2.7,0.1-5.3,0.1-8,0c-6,0.1-11.9,0.1-17.9,0c-3.6,0.1-7.1,0-10.7,0c-1.2,0-2.3,0.1-3.3-0.7
		c-6.5,0-13-0.1-19.5-0.1c0-0.1,0-0.3,0-0.4c6.5,0,13,0,19.5,0c3.3-1.2,6.6-1.2,9.9,0c7.4,0,14.7,0,22.1,0c2.7-1.3,5.5-0.5,8.3-0.7
		c1.4,0,2.7-0.1,4.1,0c1.4,0,2.8-0.3,4,0.7c3.8,0,7.7,0,11.5,0C830,421.8,832.6,420.8,835,422z"/>
	<path class="st109" d="M777.5,421.5c-3.3,0-6.6,0-9.9,0c0-1,0-2,0-3c2.4,0,4.8,0.2,7.1-0.1C777.1,418.2,778,419.1,777.5,421.5z"/>
	<path class="st103" d="M808,421.4c-2.8,0-5.6,0-8.4,0c0.3-1,0.6-2,0.9-2.9c2.5,0,5,0,7.5,0h0C808.8,419.5,808.8,420.5,808,421.4z"
		/>
	<path class="st65" d="M808,421.4c0-1,0-2,0-2.9c1.3,0,2.7,0,4,0c0.8,1,0.7,2,0,3C810.7,421.5,809.3,421.4,808,421.4z"/>
	<path class="st110" d="M812.1,421.5c0-1,0-2,0-3c0.3,0,0.7,0,1,0c2.4-0.4,3.5,0.5,2.9,3C814.7,421.5,813.4,421.5,812.1,421.5z"/>
	<path class="st111" d="M753,632.9c0-5.1,0-5,5.1-5.6c8.8-0.9,17.5-2.7,24.8-8.1c2.3-1.7,3.5-1.8,5.8,0c6.6,5.1,14.6,7,22.7,8.2
		c1.8,0.2,3.6,0.4,5.5,0.5c1.1,0.1,1.6,0.4,1.6,1.6c-0.1,18.2-3,35.6-13.5,51.1c-4.5,6.6-10.2,11.8-17,15.9
		c-1.7,1.1-3.1,0.9-4.8,0.1c-8.5-4.3-14.5-11-19.2-19.1c-6.5-11.2-9.3-23.6-10.4-36.4C753.3,638.4,753.2,635.7,753,632.9z"/>
	<path class="st112" d="M783.2,595.5c0-1.9,0.1-3.8,0-5.7c-0.1-1.5,0.7-1.8,2-1.8c1.2,0,2.2,0,2,1.7c-0.1,0.7-0.1,1.3,0,2
		c0.2,0.8-0.7,2.1,1.1,2.3c1.3,0.1,1.6-0.6,1.9-1.7c0.6-2,1.9-3.5,3.9-4.2c3.1-1.1,6.7-0.1,8.4,2.1c2.1,2.8,2.1,7.7,0,10.6
		c-1.7,2.4-5.1,3.2-8.4,2.2c-2.3-0.7-3.6-2.4-4-4.6c-0.2-1.1-0.7-1.5-1.8-1.5c-1.4,0.1-1,1-1.1,1.8c0,0.7-0.1,1.5,0,2.2
		c0.2,1.6-0.3,2.1-2,2.1c-1.9,0-2-0.9-1.9-2.3C783.2,599,783.2,597.3,783.2,595.5z"/>
	<path class="st112" d="M754.5,559c2-2.1,3.8-3.6,5.1-5.4c1.9-2.7,4.5-3.1,8.3-2.3c-2.7,2.5-4.9,4.6-7.3,6.6c-1,0.9-1,1.6-0.2,2.7
		c2.5,3.3,4.9,6.7,7.4,10.1c-4.5,1-4.7,0.9-7-2.5c-1-1.4-1.8-2.8-2.9-4.1c-0.5-0.6-0.6-1.9-1.7-1.4c-0.9,0.4-1.8,1.2-1.7,2.5
		c0.1,1.4-0.1,2.8,0,4.2c0.2,1.8-0.9,1.6-2,1.5c-1.1,0-2.3,0.4-2.3-1.6c0.1-5.6,0.1-11.2,0-16.7c0-1.8,0.9-1.8,2.2-1.8
		c1.2,0,2.3-0.2,2.2,1.7C754.4,554.5,754.5,556.4,754.5,559z"/>
	<path class="st113" d="M789.2,557.6c3.2-2.5,6.1-2.7,8.6-0.4c2.6,2.4,2.9,8.7,0.6,11.9c-1.9,2.6-5,3-9,0.8c0,1.8-0.1,3.4,0,5
		c0.1,1.7-0.7,1.9-2.1,1.9c-1.4,0-1.8-0.5-1.8-1.9c0.1-5.7,0-11.3,0-17c0-0.8-0.4-2,1.2-1.9C787.8,556.1,789.3,555.5,789.2,557.6z"
		/>
	<path class="st112" d="M732.8,594.9c0.2-1.9-1-5,0.4-6.3c1.6-1.6,4.7-0.5,7.2-0.5c4.7,0,6.1,2,4.4,6.4c-0.3,0.7,0,0.8,0.3,1.2
		c2.3,3.2,0.8,6.9-3.1,7.3c-2.6,0.2-5.3,0-8,0.1c-1.1,0-1.2-0.6-1.2-1.4C732.8,599.5,732.8,597.4,732.8,594.9z"/>
	<path class="st112" d="M762.8,603.2c-2.2-0.8-3.9,0.7-5.2-1.2c-0.4-0.7-0.9,0.3-1.4,0.6c-2.1,1.2-4.1,1.3-6.1,0
		c-1.6-1-1.8-2.7-1.6-4.4c0.2-2.1,1.5-3.3,3.5-3.7c1.5-0.3,3-0.5,4.4-0.8c0.7-0.1,1.3-0.5,1.2-1.3c-0.1-0.7-0.5-1.3-1.2-1.3
		c-1.2-0.1-2.6-0.5-3.3,0.9c-0.8,1.6-2.2,0.9-3.3,0.9c-1,0-0.7-0.9-0.5-1.5c0.5-1.6,1.8-2.6,3.3-3.2c2.1-0.8,4.3-0.6,6.4,0.1
		c1.9,0.7,2.7,2.1,2.7,4.1c0,2.1,0,4.2,0,6.2C761.5,600,761.2,601.5,762.8,603.2z"/>
	<path class="st112" d="M768.6,556.2c4.2-0.4,4.2-0.4,5.3,3.3c0.7,2.2,1.3,4.4,2.4,6.7c0.7-2.6,1.7-5.2,2.2-7.9
		c0.4-2.3,1.7-2.4,3.5-2.3c1.2,0.1,1.2,0.5,0.9,1.4c-2,5.5-3.9,11.1-5.9,16.6c-0.7,2-2.2,2.8-4.3,2.8c-0.8,0-2,0.5-2.1-1
		c0-1-0.3-2,1.5-2.2c1.8-0.2,2.1-1.4,1.5-3.1C771.9,565.8,770.3,561,768.6,556.2z"/>
	<path class="st112" d="M779.1,595.7c0,1.7,0,3.3,0,5c0,1.3,0.2,2.4-1.8,2.3c-1.9,0-2-0.9-1.9-2.3c0.1-2.4-0.1-4.8,0-7.2
		c0.1-1.6-0.3-2.4-2.2-2.4c-1.8,0-2.8,0.3-2.7,2.4c0.1,2.2,0,4.5-0.7,6.7c-0.6,1.8-1.6,3.1-3.7,3.1c-0.8,0-2.1,0.4-2.1-1
		c0-0.9-0.8-2.4,1.3-2.5c1.1,0,1.2-1.2,1.4-2.1c0.6-2.6,0.3-5.3,0.3-8c0-1.4,0.4-1.9,1.9-1.9c2.8,0.1,5.7,0.1,8.5,0
		c1.3,0,1.8,0.4,1.7,1.7C779.1,591.7,779.1,593.7,779.1,595.7z"/>
	<path class="st112" d="M820.6,595.6c0-1.8,0.1-3.7,0-5.5c-0.1-1.4,0.1-2.1,1.8-2.1c1.7,0,2.3,0.5,2.1,2.1c-0.4,2.5,0.5,3.4,3,3.2
		c1.8-0.2,3.7,0,5.1,1.5c1.4,1.5,1.5,3.3,0.9,5.1c-0.6,2-2.3,2.9-4.2,3c-2.4,0.1-4.8,0-7.2,0.1c-1.3,0.1-1.5-0.6-1.5-1.7
		C820.6,599.4,820.6,597.5,820.6,595.6z"/>
	<path class="st112" d="M815.4,565.6c-1,4.2-3.4,6-7.2,5.8c-3.6-0.2-5.8-2.3-6.3-6.2c-0.9-6.8,3.4-11.1,9.4-9.3c1.2,0.4,2.3,1,3,2.1
		c0.6,0.9,1.7,2.5,0.7,3c-1.1,0.6-3.1,1.2-4-0.9c-0.5-1.1-1.4-1.3-2.5-1.2c-1.2,0.1-2,0.9-2.3,2c-0.5,1.7-0.5,3.5,0,5.2
		c0.6,2.1,3.5,2.9,4.5,1C811.9,564.9,813.5,565.6,815.4,565.6z"/>
	<path class="st114" d="M811.9,588c1.5,0,3,0.1,4.5,0c1.2-0.1,1.8,0.2,1.8,1.6c0,1.4-0.6,1.8-1.8,1.6c-2.5-0.4-2.9,0.8-2.8,3
		c0.2,2.4,0,4.8,0.1,7.2c0.1,1.5-0.7,1.6-1.8,1.5c-1.1,0-2.2,0.2-2.1-1.5c0.1-2.7-0.1-5.3,0.1-8c0.1-1.8-0.6-2.4-2.3-2.2
		c-1.2,0.1-2.3,0.3-2.3-1.6c0-2,1.3-1.5,2.4-1.6C809,588,810.4,588,811.9,588z"/>
	<path class="st115" d="M835.5,595.2c0-1.6,0-3.2,0-4.7c0-1.3-0.3-2.5,1.9-2.5c2.3,0,2.1,1.2,2.1,2.6c0,3.3,0,6.6,0,9.9
		c0,1.4,0.2,2.5-1.9,2.5c-2,0-2.1-0.8-2-2.4C835.6,598.9,835.5,597,835.5,595.2z"/>
	<path class="st0" d="M422.1,343.2c0-8.7,0.1-17.5,0-26.2c0-1.9,0.5-2.6,2.5-2.5c17.6,0.1,35.3,0.1,52.9,0c2.1,0,2.6,0.7,2.6,2.7
		c-0.1,17.6-0.1,35.1,0,52.7c0,2-0.5,2.7-2.6,2.7c-17.6-0.1-35.3-0.1-52.9,0c-2,0-2.5-0.7-2.5-2.6
		C422.1,361.1,422.1,352.2,422.1,343.2z"/>
	<path class="st44" d="M420.1,175c5.2,3.9,11.1,5.8,17.6,6c1.5,0,2.5,0.6,2.4,2.4c-0.6,10.8-2.1,21.3-8.4,30.4
		c-2.8,4-6.3,7.2-10.5,9.8c-0.5,0.3-1.1,0.4-1.7,0.4c-0.8-1-0.8-2.2-0.8-3.3c0-12.1-0.1-24.3,0.1-36.4
		C418.9,181.2,418.7,178,420.1,175z"/>
	<path class="st43" d="M420.1,175c-0.9,16.3-0.4,32.7-0.5,49c-6.2-2.1-10.2-6.8-13.3-12.1c-3.8-6.6-5.7-13.9-6.3-21.5
		c-0.2-2.6-0.4-5.1-0.4-7.7c0-0.9,0.2-1.6,1.3-1.7c6.8-0.5,13.2-1.9,18.8-6.2C419.7,174.8,419.9,175,420.1,175z"/>
	<path class="st0" d="M482.5,135.5c-6.4,0-6.4,0-6.4-6.3c0-1.7,0.1-3.3,0-5c-0.1-1.3,0.5-1.7,1.8-1.7c3.2,0.1,6.3,0.1,9.5,0
		c1.2,0,1.8,0.4,1.8,1.7c-0.1,3.2-0.1,6.3,0,9.5c0,1.4-0.5,1.9-1.9,1.9C485.6,135.5,484,135.5,482.5,135.5z"/>
	<path class="st111" d="M341.4,633.9c-0.5,15.5-3.2,30.4-11.3,43.9c-4.9,8.1-11.4,14.5-19.5,19.2c-1.3,0.8-2.4,0.8-3.7,0.1
		c-10.4-4.9-17.1-13.3-22-23.3c-6.5-13.3-8.6-27.5-8.9-42.1c0-0.6,0.1-1.2,0-1.7c-0.4-1.9,0.5-2.4,2.3-2.5c7.7-0.3,15.2-1.8,22.3-5
		c2.7-1.2,5.2-2.7,7.4-4.6c0.6-0.5,1-0.9,1.8-0.1c7.1,6.2,15.7,8.4,24.7,9.7c0.7,0.1,1.3,0.1,2,0.2c1.7,0.5,4.1-0.5,4.9,0.8
		C342.1,629.9,341.4,632.1,341.4,633.9z"/>
	<path class="st113" d="M284,569.7c0,2-0.1,3.8,0,5.5c0.1,1.8-1.1,1.5-2.2,1.5c-1.2,0.1-1.8-0.1-1.8-1.6c0.1-5.8,0-11.6,0-17.5
		c0-0.6-0.3-1.6,0.6-1.6c1,0,2.3-0.8,2.9,0.5c0.4,1,0.4,0.9,1.2,0.4c3.6-2.7,7.9-1.3,9.3,3c0.8,2.6,0.7,5.3-0.4,7.8
		C292.1,571.6,288.1,572.5,284,569.7z"/>
	<path class="st112" d="M353.1,562.7c-1.3,2.2-2.8,4.3-3.8,6.6c-1,2.2-2.8,1.8-4.4,1.6c-1.6-0.2-0.7-1.8-0.8-2.7
		c-0.1-3.5,0-7-0.1-10.5c0-1.6,0.7-1.8,1.9-1.7c1.2,0,2.1,0,2,1.7c-0.1,2.2,0,4.3,0.4,6.7c1.3-2.2,2.8-4.3,3.9-6.6
		c1-2.2,2.8-1.7,4.4-1.6c0.8,0,0.7,0.8,0.7,1.3c0,4.1,0,8.1,0,12.2c0,1.7-1.1,1.3-2,1.3c-1,0-2,0.2-1.9-1.4c0.1-2.2,0-4.5,0-6.7
		C353.4,562.8,353.3,562.8,353.1,562.7z"/>
	<path class="st112" d="M370.2,562.8c-1.4,2.3-2.8,4.6-4.1,7c-1,2-2.8,1.2-4.2,1.1c-1.6-0.1-0.8-1.6-0.8-2.4
		c-0.1-3.6,0-7.2-0.1-10.7c0-1.6,0.7-1.7,2-1.7c1.2,0,2.1,0,2,1.6c-0.1,2.2,0,4.5,0,7.5c1.7-2.8,3.2-4.9,4.3-7.2
		c0.8-1.7,2-2,3.6-1.9c1.1,0,1.7,0.3,1.6,1.5c-0.1,4-0.1,8,0,12c0,1.6-0.9,1.5-1.9,1.5c-1.1,0-2.1,0.1-2-1.6c0.1-2.2,0-4.3,0-6.5
		C370.5,562.9,370.4,562.8,370.2,562.8z"/>
	<path class="st116" d="M310.2,571c-1.7-0.5-3.4,1-4.7-1c-0.5-0.8-1,0.4-1.5,0.6c-2.2,1.1-4.4,1.3-6.3-0.3c-1.8-1.4-1.9-3.4-1.1-5.5
		c0.7-1.9,2.4-2.4,4.2-2.7c1.1-0.2,2.3-0.3,3.4-0.5c0.7-0.1,1.3-0.5,1.2-1.3c-0.1-0.7-0.5-1.2-1.3-1.3c-1.2-0.1-2.5-0.4-3.3,0.9
		c-0.2,0.4-0.4,1-1,0.9c-1-0.1-2.3,0.5-2.8-0.3c-0.6-0.9,0.3-1.9,0.8-2.7c1.5-2.1,5.4-2.8,8.5-1.8c2.7,0.9,3.1,2.9,3,5.3
		c-0.1,1.6,0,3.2,0,4.7C309.4,567.7,309.3,569.3,310.2,571z"/>
	<path class="st112" d="M277.6,571.2c-1.8-0.8-3.6,0.9-4.8-1.3c-0.2-0.5-1.1,0.5-1.6,0.8c-1.9,1-3.8,1.1-5.7,0
		c-1.6-0.9-2-2.5-1.9-4.3c0.2-2.2,1.4-3.5,3.5-4c1.5-0.3,2.9-0.5,4.4-0.8c0.8-0.1,1.2-0.5,1.2-1.3c0-0.8-0.4-1.3-1.2-1.4
		c-1.2-0.2-2.5-0.4-3.4,0.9c-0.3,0.4-0.4,1-1,0.9c-1,0-2.2,0.5-2.8-0.3c-0.7-0.9,0.2-1.9,0.8-2.7c1.5-2,5.4-2.8,8.5-1.8
		c2.6,0.9,3,2.9,3,5.3C276.7,564.5,276,567.7,277.6,571.2z"/>
	<path class="st112" d="M326.4,563.7c0,1.7-0.1,3.5,0,5.2c0.1,1.6-0.3,2.2-2.1,2.1c-1.7,0-2-0.6-1.8-2.1c0-0.2,0-0.5,0-0.7
		c0-3.8-0.9-4.4-4.7-3.7c-0.9,0.2-1.1,0.6-1.1,1.4c0,1-0.1,2,0,3c0.2,1.6-0.3,2.1-2,2.1c-1.8,0-1.8-0.8-1.8-2.1
		c0.1-3.7,0.1-7.3,0-11c0-1.6,0.6-1.9,2.1-1.9c1.5,0,1.9,0.6,1.8,1.9c-0.1,0.6,0,1.2,0,1.7c-0.2,1.4,0.4,2,1.8,1.8
		c0.2,0,0.3,0,0.5,0c3.4,0,3.5,0,3.4-3.4c0-1.7,0.5-2.1,2.1-2.1c1.5,0,1.9,0.6,1.8,1.9C326.3,559.8,326.4,561.7,326.4,563.7z"/>
	<path class="st113" d="M248.9,560.8c0-2.7,0.1-5.5,0-8.2c0-1.3,0.4-1.7,1.7-1.7c3.4,0.1,6.8,0.1,10.2,0c1.4,0,1.7,0.5,1.7,1.8
		c0,1.2-0.3,1.9-1.7,1.8c-0.5-0.1-1,0-1.5,0c-2,0.1-4.6-0.6-5.8,0.4c-1.4,1.2-0.4,3.9-0.4,5.9c-0.1,2.8-0.1,5.7,0,8.5
		c0.1,1.7-0.7,1.9-2.1,1.8c-1.2,0-2.3,0.1-2.2-1.7C249.1,566.5,248.9,563.6,248.9,560.8z"/>
	<path class="st117" d="M335.3,556.1c1.6,0,3.2,0.1,4.7,0c1.2-0.1,1.6,0.3,1.6,1.5c0,1.3-0.4,1.9-1.7,1.7c-2.5-0.4-3.1,0.6-2.9,3
		c0.2,2.4,0,4.8,0.1,7.2c0.1,1.5-0.7,1.6-1.8,1.5c-1.1-0.1-2.2,0.3-2.1-1.5c0.1-2.6-0.1-5.2,0.1-7.7c0.1-1.9-0.4-2.8-2.4-2.5
		c-1.2,0.2-2.3,0.1-2.2-1.7c0.1-1,0.3-1.5,1.4-1.5C331.8,556.1,333.6,556.1,335.3,556.1z"/>
	<path class="st118" d="M530.6,484.5c0-1,0-2,0-3c0.7-1.2,1.3-2.6,2.8-3c3.9-2,6.4-5.3,8.7-8.8c3.7-5.6,5.9-11.9,5.7-18.5
		c-0.3-11.6-4.5-21.5-14.3-28.4c-0.7-0.5-1.4-1.2-2.1-1.7c5.6,1.1,10.1,4.3,14.1,8c4.3,4.1,7.5,9,9,14.9
		c3.8,15.2-2.9,30.1-16.8,37.4C535.5,482.5,533.5,484.3,530.6,484.5z"/>
	<path class="st119" d="M563.5,477.2c0,0.8,0,1.4,0,2c-0.1,1.5-0.8,1.5-1.8,0.7c-0.7-0.6-1.4-1.2-1.9-2c-0.7-1.1-2.2-2.2-1.5-3.4
		c0.7-1.2,2.4-0.5,3.7-0.5C564.8,474.1,563,476.3,563.5,477.2z"/>
	<path class="st77" d="M563.6,431.6c-0.3,0.9,0.5,2.3-0.7,2.7c-0.9,0.3-1.8-0.8-2.4-1.5c-0.4-0.4-0.8-0.9-1-1.4
		c-0.4-1-1.9-2.3-0.9-3c1.1-0.8,3-0.7,4.3-0.1C564.3,428.8,563.3,430.4,563.6,431.6z"/>
	<path class="st120" d="M574.1,410.5c-8-0.2-16-0.5-23.8-2.9c-0.4-0.1-0.8-0.2-1.2-0.4c-1.9-0.6-2.7-1.4-1.1-3.4
		c2.8-3.5,5.3-7.2,8.4-10.4c1.4-1.4,2.8-1.7,4.5-1.2c5.7,2,11.3,3.9,17.5,3.3c1.4-0.1,2.1,0.9,2.5,2.1c1.2,3.4,1.7,6.9,2,10.4
		c0.1,1.5-0.9,2.5-2.5,2.5C578.2,410.5,576.2,410.5,574.1,410.5z"/>
	<path class="st89" d="M595.1,415c0.1,2.2,0.1,4.4,0.4,6.7c0.5,4.3-0.2,8.5-0.9,12.8c-0.1-0.1-0.2-0.2-0.3-0.3c-0.8-2,0-4.1-0.6-6
		c0-0.3-0.1-0.6-0.1-0.9c0.3-3.2-0.6-6.4-0.5-9.6c0-0.9-0.2-1.8,0.5-2.6C594.1,415,594.6,415,595.1,415z"/>
	<path class="st98" d="M593.5,415c0.2,4.3,0.3,8.6,0.5,13c-0.3,0.3-0.7,0.3-1,0c-0.2-4.3-0.3-8.6-0.5-13
		C592.9,415,593.2,415,593.5,415z"/>
	<path class="st97" d="M572,415.1c-0.1,2,0.4,4.1-0.5,6.8c-0.8-2.7-0.3-4.8-0.5-6.8C571.4,415,571.7,415.1,572,415.1z"/>
	<path class="st101" d="M580,415.1c-0.1,2,0.3,4.1-0.5,6.1c-0.8-2-0.4-4.1-0.5-6.1C579.4,415,579.7,415.1,580,415.1z"/>
	<path class="st75" d="M590,415c0,2,0,3.9,0,5.9c-0.2,0-0.3,0-0.5,0c0-2,0-3.9,0-5.9C589.7,415,589.9,415,590,415z"/>
	<path class="st75" d="M598.6,415c-0.3,2.2,0.6,4.4-0.5,6.5c0-2.2,0-4.3,0-6.5C598.2,415,598.4,415,598.6,415z"/>
	<path class="st75" d="M585,415c0,2,0,3.9,0,5.9c-0.2,0-0.3,0-0.5,0c0-2,0-3.9,0-5.9C584.7,415,584.9,415,585,415z"/>
	<path class="st75" d="M602.1,415c0,1.8,0,3.6,0,5.4c-0.2,0-0.3,0-0.5,0c0-1.8,0-3.6,0-5.4C601.7,415,601.9,415,602.1,415z"/>
	<path class="st121" d="M479.6,452.4c-0.8-16.5,14.3-31.5,31.3-31.1c16.6,0.4,31.1,13.6,30.9,31.2c-0.2,18-13.3,31.1-31.1,31.3
		C493.5,484,479,470.2,479.6,452.4z"/>
	<path class="st77" d="M593.1,428c0.3,0,0.7,0,1,0c0,0,0,0,0,0c0.7,2.1-0.2,4.4,0.5,6.5l0,0c0,8.5-1.6,16.9-0.9,25.5
		c-0.2,0-0.4,0-0.6,0c0-3.1,0-6.2,0-9.3c0-1.1,0.1-2.2-0.5-3.1c-0.9-1.3-0.4-2.7-0.5-4c-0.1-0.9,0.1-1.8-0.3-2.6
		c-0.2-2.1-0.6-4.3,0.3-6.3l0,0c0.9-1.1,0.4-2.3,0.5-3.5C592.7,430,592.3,428.9,593.1,428L593.1,428z"/>
	<path class="st77" d="M593.6,480.5c-0.8-3.2-0.6-6.5-1-9.7c-0.1-1.1,0.4-2.3-0.5-3.3c-1-0.5-1.2-1.5-1.2-2.5
		c0.2-5.1,0.2-10.2,0.2-15.3c0-0.7-0.2-1.6,1-1.6c0,2.6,0.2,5.1,0,7.7c-0.3,3.7,1.7,7.2,1.1,10.9c-0.1,0.6,0.4,0.8,1,0.9
		c0.1,0.1,0.2,0.2,0.3,0.3c0.6,2,0.6,4.1-0.1,6.1c-0.4,1.3-0.2,2.6-0.3,3.9C594,478.8,594.2,479.7,593.6,480.5L593.6,480.5z"/>
	<path class="st87" d="M595.1,447.5c-0.4,8,0.8,15.9,0.5,23.9c0,0.9,0.3,1.9-0.5,2.6c0,0,0,0,0,0c-0.9-1.1-0.4-2.3-0.5-3.5
		c-0.1-1,0.3-2.1-0.5-3c0,0,0,0,0,0c-0.1-6.2,0.9-12.4,0.5-18.7C594.5,448.3,594.6,447.8,595.1,447.5z"/>
	<path class="st122" d="M592.1,448c-0.5,0.3-0.5,0.8-0.5,1.3c0,5.4,0,10.8,0,16.2c0,0.6,0.3,1.3,0.5,1.9c-0.2,0-0.3,0-0.5,0
		c-0.4,0-0.8-0.1-1-0.5c0-5.5,0.4-11.1,0.3-16.6c0-0.8,0.2-1.7-0.3-2.4c0.2-0.4,0.6-0.5,1-0.5c0.1-0.1,0.2-0.1,0.3-0.2
		c0.1,0.1,0.2,0.1,0.3,0.2C592.1,447.7,592.1,447.8,592.1,448z"/>
	<path class="st122" d="M592.1,441c1.1,2.1,0.2,4.4,0.5,6.5c-0.2,0-0.3,0-0.5,0l0,0C591.7,445.3,591.7,443.1,592.1,441z"/>
	<path class="st77" d="M595.6,441c-0.3,2.2,0.6,4.4-0.5,6.5C595.3,445.3,594.5,443.1,595.6,441z"/>
	<ellipse class="st75" cx="597.8" cy="467.2" rx="0.2" ry="8.1"/>
	<path class="st82" d="M588.6,447.5c0.3,6.6,0.8,13.2-1.2,19.6c-0.2-2.3-0.8-4.5,0.2-6.8c0.9-2,0.4-4.2,0.2-6.3
		C587.7,451.8,586.7,449.5,588.6,447.5L588.6,447.5z"/>
	<path class="st98" d="M592.1,441c0,2.2,0,4.3,0,6.5c-0.2,0-0.3,0-0.5,0c0.1-7.7-1.4-15.3-1-23c0-0.8,0-1.6,0.3-2.4
		c-0.1,3.2,0.7,6.4,0.8,9.6c0,0.9-0.4,2,0.5,2.8C592.1,436.7,592.1,438.8,592.1,441z"/>
	<path class="st97" d="M582.6,467.1c-0.3-6.4-0.9-12.8-0.5-19.2C582.3,454.4,582.9,460.7,582.6,467.1z"/>
	<path class="st123" d="M586.1,441c0,6.5,0,13,0,19.6c-0.7,0-0.9-0.3-0.9-0.6c-0.4-6.2,0.1-12.4,0.6-18.6
		C585.7,441.2,585.9,441.1,586.1,441L586.1,441z"/>
	<path class="st124" d="M577.3,466.9c0-6.3-0.5-12.6-0.7-18.9c0.2,0,0.5,0,0.7,0C577.3,454.3,577.3,460.6,577.3,466.9z"/>
	<path class="st88" d="M571.9,448c1.1,4,0.5,8.1,0.7,12.2c-0.2,0-0.5,0-0.7,0C571.9,456.1,571.9,452,571.9,448z"/>
	<path class="st125" d="M585.1,480.5c-0.4-4.2,0.8-8.3,1-12.5c0,3.8,0,7.6,0,11.3C586,480,585.8,480.4,585.1,480.5
		C585.1,480.5,585.1,480.5,585.1,480.5z"/>
	<path class="st126" d="M582.2,421.8c1.5,4.1-0.1,8,0,12.1C582.2,429.9,582.2,425.9,582.2,421.8z"/>
	<path class="st75" d="M590.6,448c0.4,0.3,0.5,0.8,0.5,1.3c0,5.5,0,10.9,0,16.4c0,0.5,0,1-0.5,1.3c0,0,0,0,0,0c-0.4-2-0.4-4,0-6
		C590.6,456.7,590.6,452.3,590.6,448z"/>
	<path class="st82" d="M588.6,447.5c0.2-2.1-0.4-4.2,0.5-6.9c0.7,2.8,0.4,4.8,0.3,6.9C589.4,447.5,588.9,447.5,588.6,447.5
		C588.6,447.5,588.6,447.5,588.6,447.5z"/>
	<path class="st97" d="M581.2,435c0.9,4-0.5,8-0.3,12C580,443,581.5,439,581.2,435z"/>
	<path class="st75" d="M572.6,434.5c2.3,1.9,0.3,4.1,0.7,6.1C572.2,438.7,572.7,436.5,572.6,434.5L572.6,434.5z"/>
	<path class="st101" d="M588.1,428c-2.2-1.9-0.5-4.1-0.6-6.1C588.4,423.8,587.9,425.9,588.1,428L588.1,428z"/>
	<path class="st98" d="M588.6,474c0-2.1,0-4.1,0-6.6C590,469.5,589.9,472.8,588.6,474L588.6,474z"/>
	<path class="st75" d="M577.1,433.9c0-3.9,0-7.9,0-11.8c0.1,0,0.2,0,0.2,0c0,3.9,0,7.8,0,11.8C577.3,433.9,577.2,433.9,577.1,433.9z
		"/>
	<path class="st98" d="M572.6,434.5c-2.2-1.9-0.5-4.1-0.6-6.1C572.9,430.3,572.4,432.4,572.6,434.5
		C572.6,434.5,572.6,434.5,572.6,434.5z"/>
	<path class="st98" d="M586.1,434.5c-2.2-1.9-0.5-4.1-0.6-6.1C586.4,430.3,585.9,432.4,586.1,434.5L586.1,434.5z"/>
	<path class="st88" d="M575.5,467.8c0.8,1.9,0.5,3.9,0.2,5.8C574.8,471.7,575,469.8,575.5,467.8z"/>
	<path class="st98" d="M593.1,428c0,1.5,0,3.1,0,4.6c0,0.8,0.2,1.7-1,1.9c0-1.5,0-3.1,0-4.6C592.1,429.1,591.9,428.2,593.1,428z"/>
	<path class="st92" d="M569.3,467c-1-2-0.7-4,0-6.1C569.3,463,569.3,465,569.3,467z"/>
	<path class="st123" d="M586.1,434.5c1.5,1.3,1.5,5.1,0,6.5c0,0,0,0,0,0C586.1,438.8,586.1,436.7,586.1,434.5
		C586.1,434.5,586.1,434.5,586.1,434.5z"/>
	<path class="st88" d="M575.6,447.1c-0.6-1.9-0.7-3.9,0-5.8C576.3,443.3,576.1,445.2,575.6,447.1z"/>
	<path class="st123" d="M588.6,474c0,2,0,4,0,6.6C587.1,478.1,587.3,475.2,588.6,474L588.6,474z"/>
	<path class="st123" d="M582.2,480c-1-1.9-0.7-3.8-0.2-5.7C582.8,476.2,582.6,478.1,582.2,480z"/>
	<path class="st123" d="M577,474.3c0.7,1.9,0.7,3.8,0.3,6.3C576.1,478.2,576.8,476.2,577,474.3z"/>
	<path class="st127" d="M591,474.6c0,1.8,0,3.5,0,5.3c-0.1,0-0.2,0-0.2,0c0-1.8,0-3.5,0-5.3C590.8,474.6,590.9,474.6,591,474.6z"/>
	<path class="st124" d="M588.1,428c1.1,1.9,0.1,4,0,5.9C588.1,432,588.1,430,588.1,428C588.1,428,588.1,428,588.1,428z"/>
	<path class="st75" d="M581,468c0,1.8,0,3.5,0,5.3c-0.1,0-0.2,0-0.2,0c0-1.8,0-3.5,0-5.3C580.8,468.1,580.9,468.1,581,468z"/>
	<path class="st122" d="M590.6,461c0,2,0,4,0,6C589.8,465,589.8,463,590.6,461z"/>
	<path class="st128" d="M594.1,467.5c1.2,0.2,1,1.1,1,1.9c0,1.5,0,3.1,0,4.6c-1,1.3-0.3,2.9-0.5,4.3c-0.1,0.8,0.4,1.9-1,2.2
		C593.7,476.2,593.9,471.8,594.1,467.5z"/>
	<path class="st111" d="M517,633.9c0-1.9-0.7-4.2,0.2-5.6c1-1.6,3.5-0.6,5.4-0.9c8.7-1.1,17.2-2.8,24.3-8.1c2.3-1.7,3.5-1.7,5.8,0
		c6.6,5.1,14.6,7,22.7,8.2c1.9,0.3,3.8,0.4,5.7,0.5c1.1,0.1,1.4,0.5,1.4,1.5c-0.1,20.9-3.7,40.6-17.9,57c-3.7,4.3-8.1,7.6-13,10.5
		c-1.4,0.8-2.5,0.8-3.9,0.2c-9.4-4.5-15.8-12-20.7-20.9c-5.7-10.5-8.3-21.9-9.5-33.6c-0.3-2.9-0.4-5.8-0.7-8.7
		C517,633.9,517,633.9,517,633.9z"/>
	<path class="st112" d="M555.2,561.2c-0.6,2.7-1.3,5.4-1.9,8.1c-0.3,1.3-0.9,1.7-2.2,1.7c-1.3,0-1.9-0.3-2.2-1.7
		c-0.6-3-1.4-5.9-2.4-8.8c0,3-0.1,5.9,0,8.9c0,1.4-0.5,1.7-1.7,1.6c-1.2,0-2,0-2-1.7c0.1-3.9,0.1-7.8,0-11.7c0-1.2,0.4-1.7,1.6-1.6
		c0.7,0.1,1.3,0.1,2,0c1.8-0.3,2.5,0.5,2.8,2.2c0.5,2.7,1.2,5.3,2,8.6c0.8-3.5,1.5-6.4,2.2-9.3c0.7-3,3.1-1.1,4.7-1.5
		c1.6-0.3,1.3,1.1,1.3,2c0,3.7-0.1,7.5,0,11.2c0.1,1.7-0.8,1.6-2,1.7c-1.2,0-1.8-0.3-1.8-1.6c0.1-2.7,0-5.4,0-8.1
		C555.6,561.3,555.4,561.2,555.2,561.2z"/>
	<path class="st113" d="M478,561.3c-0.1,1.2,0.1,2.5,0.7,3.7c0.8,1.7,2.2,2.8,4.1,2.8c1.8,0.1,3.4-0.5,4.1-2.3
		c0.8-2.2,2.5-1.5,4-1.5c1.1,0,0.6,0.9,0.5,1.5c-1.5,5.4-8.3,7.7-13.3,4.5c-3.7-2.4-4.3-6.1-4.2-10.1c0.2-4,1.7-7.3,5.6-9
		c4.3-1.8,9.7-0.1,11.5,3.7c0.4,0.8,1.3,2.1,0.2,2.5c-1,0.4-2.9,0.9-3.7-0.4c-1.4-2.5-3.3-3.5-6-2.6C479,555.1,478,557.3,478,561.3z
		"/>
	<path class="st116" d="M534.7,563.1c-1.3,2.1-2.7,4.2-3.7,6.4c-1,2.2-2.8,1.5-4.3,1.4c-1.6-0.2-0.8-1.8-0.8-2.7
		c-0.1-3.5,0-7-0.1-10.5c0-1.6,0.7-1.7,2-1.7c1.4,0,2,0.3,1.9,1.8c-0.1,2.2,0,4.4,0.4,6.9c1.4-2.4,3-4.7,4.2-7.1
		c1-2,2.6-1.6,4.1-1.4c1.6,0.2,0.8,1.8,0.8,2.7c0.1,3.5,0,7,0.1,10.5c0.1,1.6-0.6,1.8-1.9,1.7c-1.2,0-2.1,0-2-1.7c0.1-2,0-4.1,0-6.1
		C535.1,563.2,534.9,563.1,534.7,563.1z"/>
	<path class="st112" d="M569.9,571.4c-4.6,0-7.8-3.3-7.7-8c0.1-4.6,3.2-7.8,7.7-7.8c4.6,0,7.7,3.3,7.7,8
		C577.5,568.3,574.3,571.4,569.9,571.4z"/>
	<path class="st112" d="M523,563.5c0,4.8-3.2,8-7.8,7.9c-4.5-0.1-7.6-3.3-7.6-7.9c0-4.7,3.2-8,7.8-7.9
		C520,555.7,523,558.9,523,563.5z"/>
	<path class="st116" d="M609.8,563.5c0-2,0.1-4,0-6c-0.1-1.5,0.9-1.5,2-1.5c1,0,2.1-0.1,1.9,1.5c-0.1,0.7,0,1.3,0,2
		c-0.1,1.3,0.4,1.7,1.7,1.7c1.5,0,3,0,4.5,0.3c2.4,0.4,3.6,2,3.7,4.3c0.1,2.3-0.8,4.1-3.2,4.7c-3.2,0.8-6.4,0.2-9.7,0.4
		c-1,0-0.8-0.8-0.9-1.5C609.8,567.5,609.8,565.5,609.8,563.5z"/>
	<path class="st112" d="M579.4,563.9c0-6.2,4-9.5,9.4-8c1.3,0.4,2.5,1.1,3.2,2.3c0.5,0.9,1.8,2.3,0.5,2.9c-1,0.5-2.9,1.1-3.8-0.9
		c-0.5-1.1-1.5-1.4-2.7-1.3c-1.2,0.1-1.8,0.9-2.1,1.9c-0.6,1.8-0.5,3.6,0,5.4c0.3,1,1,1.7,2.2,1.8c1.1,0.1,2.1-0.2,2.5-1.2
		c0.8-2.1,2.5-1.3,3.8-1.3c1.2,0,0.6,0.9,0.4,1.5c-0.8,2.8-3.5,4.5-6.8,4.4c-3.3-0.1-5.7-2.1-6.3-5.3
		C579.5,565.3,579.5,564.5,579.4,563.9z"/>
	<path class="st117" d="M601.1,556.1c1.6,0,3.2,0,4.7,0c1,0,1.7,0.1,1.7,1.4c0,1.2-0.3,2-1.6,1.8c-2.9-0.6-3,1.1-2.9,3.2
		c0.1,2.3-0.1,4.7,0.1,7c0.1,1.8-1,1.5-2.1,1.5c-1.1,0-1.9,0-1.9-1.5c0.1-2.4-0.1-4.8,0.1-7.2c0.2-2.3-0.3-3.5-2.9-3
		c-1.5,0.3-1.8-0.6-1.7-1.9c0-0.9,0.3-1.4,1.3-1.3C597.6,556.1,599.3,556.1,601.1,556.1z"/>
	<path class="st129" d="M500.1,556.1c1.5,0,3,0,4.5,0c1.1,0,1.7,0.2,1.7,1.5c0,1.2-0.3,2-1.7,1.7c-2.5-0.4-3.1,0.8-2.9,3.1
		c0.2,2.4,0,4.8,0.1,7.2c0.1,1.6-0.9,1.5-1.9,1.5c-1,0-2,0.2-1.9-1.4c0.1-2.7-0.1-5.3,0.1-8c0.1-1.9-0.5-2.6-2.4-2.3
		c-1.2,0.2-2.3,0.1-2.2-1.7c0.1-1.8,1.2-1.5,2.2-1.5C497.1,556,498.6,556.1,500.1,556.1z"/>
	<path class="st74" d="M677.4,291.7c1.2,0.6,2.6,1.1,3.7,1.9c2.1,1.4,3.6,1.3,5.5-0.7c2.9-3.1,6.3-5.8,9.8-8.4
		c-3.3,6.2-6.6,12.3-9.9,18.5c-0.5,1-0.9,0.9-1.5,0c-2.6-3.6-5.2-7.2-7.8-10.9C677.3,292,677.4,291.9,677.4,291.7z"/>
	<path class="st35" d="M767.5,422c4.7,0,9.3,0,14,0c0.5,2.2,0.2,4.4,0.1,6.6c-1.4,3-3.8,5.5-4.5,8.9c-1.2,4-1.6,8.1-0.9,12.2
		c0.3,2.5,1.1,4.8,2.2,7c0.4,0.8,0.7,1.7,0.8,2.6c0.1,2.1,0.1,4.1,0.1,6.2c0,1.3-0.2,2.5-1.2,3.4c-3.3,0-6.7,0-10,0
		C768.4,453.3,767.3,437.7,767.5,422z"/>
	<path class="st63" d="M758.8,451.5c-3.4,0-6.3-2.9-6.2-6.1c0.1-3.1,3-5.9,6.2-5.9c3.3,0,6.2,2.8,6.2,6.1
		C765.1,449,762.4,451.5,758.8,451.5z"/>
	<path class="st37" d="M816,422c4,0,8,0,12,0c0.1,7.6,0.4,15.1,0.6,22.6c0.3,8.1,0.4,16.2,0.9,24.3c-5.5,0-11,0-16.5,0
		c-1.2-1.6-0.8-3.5-0.7-5.3c0.4-4.8,0.7-9.6,0.9-14.4c0-0.8,0.1-1.7,0.6-2.4c1.4-1.1,1.7,0.4,2.1,1.1c1.2,2,2.9,3,5.1,2.9
		c2.5,0,4.7-1.7,5.2-3.9c0.5-2.8-0.7-5.3-3.3-6.3c-2.4-1-5.4,0-6.8,2.1c-0.4,0.6-0.5,1.4-1,2c-0.5,0.6-0.8,0.2-1.1-0.3
		c-0.9-3.4,0.3-6.7,0.3-10.1c0-2.9,0.4-5.7,0.5-8.6C814.9,424.4,815.1,423.1,816,422z"/>
	<path class="st39" d="M814.6,446.4c-0.2,0.5-0.5,1.1-0.5,1.6c0.1,7-1.2,13.9-1,20.9c-2,0-4,0-6,0c-0.9-1-0.8-2.2-0.7-3.3
		c1.6-13.6,2.8-27.2,4.3-40.8c0.1-1,0.1-2,0.9-2.8c1.5,0,3,0,4.5,0c-0.5,6.8-1,13.5-1.5,20.3c-0.1,0.9,0,1.8,0,2.7
		C815,445.5,815,446,814.6,446.4z"/>
	<path class="st36" d="M811.6,422c-0.4,6.3-1.1,12.6-1.9,18.9c-0.7,5.6-1.2,11.3-1.6,17c-0.3,3.7-1.3,7.3-1,11.1c-2,0-4,0-6,0
		c-1-2.9,0.5-5.6,0.6-8.4c0-0.5,0.2-0.9,0.3-1.4c0.1-0.8,0.4-1.6,0.7-2.4c2.4-5,2.7-10.3,2-15.7c-0.1-0.6-0.1-1.1,0-1.7
		c0.7-4.9,1.4-9.8,2.1-14.7c0.1-0.9,0.1-1.8,0.8-2.6C808.9,422,810.2,422,811.6,422z"/>
	<path class="st36" d="M778,469c0.8-3.3,0.4-6.7,0.5-10.1c0.8-0.1,1.2,0.4,1.6,1c2.1,3.1,5.1,5,8.7,5.9c0.5,0.1,0.9,0.4,1.3,0.8
		c0.4,1,0,1.7-0.6,2.5C785.7,469,781.9,469,778,469z"/>
	<path class="st35" d="M789.5,469c0.2-0.8,0.3-1.6,0.5-2.4c0.1-0.1,0.1-0.2,0.2-0.3c4.5-0.8,8.2-3,10.9-6.8c0.3-0.4,0.7-0.7,1.3-0.6
		c-0.5,3.4-1,6.7-1.5,10.1C797.2,469,793.4,469,789.5,469z"/>
	<path class="st35" d="M807.5,422c-0.3,5.9-1.4,11.6-2.4,17.4c-0.5-0.2-0.8-0.6-0.9-1.1c-1-4-3.3-7.3-6-10.4
		c-0.1-0.2-0.2-0.5-0.2-0.8c0.1-1.9,0.1-3.8,1.6-5.2C802.2,422,804.9,422,807.5,422z"/>
	<path class="st36" d="M799.6,422c-0.4,1.9-0.7,3.7-1.1,5.6c-1,0.5-1.7-0.3-2.5-0.7c-4.4-2.3-8.6-2-12.6,1c-0.7,0.5-1.3,1.4-2.4,1.1
		c0.2-2.3-0.5-4.7,0.5-7C787.5,422,793.5,422,799.6,422z"/>
	<path class="st130" d="M793.6,595.9c-0.1-1.6,0.1-2.5,0.6-3.4c0.6-1,1.4-1.6,2.6-1.6c2.1,0,3.4,2.1,3.1,5.1c-0.2,2.9-1.5,4.4-3.6,4
		C793.6,599.6,793.8,597.4,793.6,595.9z"/>
	<path class="st130" d="M789.1,563.5c0-2.6,1.4-4.4,3.4-4.4c1.9,0,3.3,2,3.3,4.5c0,2.9-1.4,4.6-3.5,4.5
		C790.3,568,789.1,566.2,789.1,563.5z"/>
	<path class="st131" d="M739.3,596.5c1.2,0.1,3-0.3,2.9,1.9c-0.2,2.2-2,1.7-3.4,1.9c-1.5,0.2-2.1-0.3-2.2-2
		C736.5,595.9,738,596.6,739.3,596.5z"/>
	<path class="st132" d="M739.5,593.9c-1.9,0.1-3,0.3-2.9-1.6c0.1-2.1,1.5-1.4,2.5-1.4c1.2,0,2.9-0.4,2.8,1.5
		C741.8,594.3,740.1,593.8,739.5,593.9z"/>
	<path class="st133" d="M757.4,596c0.2,3.1-0.7,4.4-2.7,4.6c-1,0.1-2,0-2.4-1.2c-0.3-1.2,0.2-2.1,1.4-2.5
		C754.9,596.5,756.1,596.3,757.4,596z"/>
	<path class="st131" d="M826.4,600c-1.2,0.2-2.1,0-2-1.9c0.1-1.4,0.2-2.3,1.9-2c1.5,0.2,3.3-0.1,3.4,2
		C829.8,600.2,828.1,600,826.4,600z"/>
	<path class="st21" d="M431.2,336.5c4.4,2.4,8.9,4.7,13.3,7.2c1.8,1,2.9,0.7,4.3-0.7c8.1-7.6,16.4-15.1,24.6-22.6
		c0.2-0.2,0.4-0.2,1.2-0.6c-1.9,3.6-3.5,6.7-5.1,9.8c-5.2,9.6-10.4,19.1-15.6,28.7c-0.5,0.9-1,1.7-1.5,2.6c-1.8,3-1.9,3-4,0.1
		c-5.9-8-11.7-16.1-17.6-24.1C430.9,336.8,431,336.7,431.2,336.5z"/>
	<path class="st72" d="M482.5,133.5c-1.4-1.9-2.8-3.3-3.9-5.6c4.4,2.6,5.6-1.8,8.5-3.2C485.9,127.9,484.1,130.5,482.5,133.5z"/>
	<path class="st130" d="M290.5,563.6c0,2.8-1.2,4.4-3.2,4.5c-2.1,0.1-3.4-1.6-3.4-4.3c-0.1-2.8,1.3-4.7,3.4-4.7
		C289.2,559.1,290.5,560.9,290.5,563.6z"/>
	<path class="st134" d="M305.3,563.9c0.4,2.9-0.5,4.5-2.8,4.6c-1.1,0.1-2.1-0.1-2.3-1.3c-0.3-1.1,0.2-2,1.3-2.4
		C302.7,564.5,304,564.3,305.3,563.9z"/>
	<path class="st135" d="M272.7,565.3c0,2.1-1.5,3.4-3.4,3.3c-1.2-0.1-1.9-0.6-1.9-1.8c0-1.4,2.1-2.7,4.4-2.7
		C273.1,564.1,272.5,565,272.7,565.3z"/>
	<path class="st124" d="M594.6,434.5c-1.1-2.1-0.2-4.4-0.5-6.5C595.2,430.1,594.3,432.3,594.6,434.5z"/>
	<path class="st77" d="M510.5,483c-17.3-0.5-30.4-13.6-30.3-30.6c0.1-17.3,13.2-30.2,30.3-30.2c16.9,0,30.3,12.8,30.4,30.1
		C541.1,469.8,527.2,482.7,510.5,483z"/>
	<path class="st130" d="M573.5,563.6c0,2.8-1.3,4.4-3.6,4.4c-2.3,0-3.7-1.7-3.6-4.6c0.1-2.8,1.4-4.4,3.6-4.5
		C572.1,558.9,573.5,560.7,573.5,563.6z"/>
	<path class="st130" d="M511.8,563.5c0-2.9,1.4-4.6,3.7-4.6c2.1,0.1,3.5,1.8,3.5,4.6c0,3-1.3,4.6-3.7,4.5
		C513.1,568,511.8,566.3,511.8,563.5z"/>
	<path class="st136" d="M615.5,568.1c-0.9,0.1-2,0.1-1.9-2c0-1.7,0.6-2.2,2.2-2c1.6,0.2,3.7-0.2,3.7,2.2
		C619.4,568.4,617.4,568,615.5,568.1z"/>
	<path class="st137" d="M781,429c3.3-3.1,7-4.8,11.6-4.1c2.2,0.4,3.9,1.7,5.8,2.7c0,0.1,0,0.2,0.1,0.4c-0.3,3-0.6,6-2.2,8.6
		c-2.3-0.3-5,0.1-5.8-3.3c-0.5,1.7-1.6,2.7-3,3.6c-3.1,2-3.1,5.1-0.1,7.3c1.1,0.8,2.4,1.2,3.6,1.7c1.6,0.7,2.9,1.7,3.3,3.5
		c0.3,1.3-0.5,2.2-1.2,3.2c-2.2,1.9-4.9,0.8-7.4,0.7c0.1,0.8,0.7,0.9,1.1,1c1.6,0.3,3,0.9,3.3,2.8c0.1,0.8,1.1,0.9,1.5,1.6
		c0.1,2.7-0.5,5.3-1.8,7.8c0,0,0,0.2,0,0.2c-5.2-0.6-8.6-3.6-11.5-7.7c-1.2-2.9-2.7-5.7-3-9c1-1.7,0.1-3.4,0.2-5.1
		c0.2-2.6,0.6-5.2,0.8-7.8C777.4,434,779.2,431.5,781,429z"/>
	<path class="st138" d="M776.6,437.1c1.1,1.9-0.4,3.6-0.1,5.5c0.3,1.8,0.1,3.6,0,5.4c0,0.8,0.3,1.8-0.9,1.9
		C774.9,445.6,775.2,441.3,776.6,437.1z"/>
	<path class="st139" d="M814.6,446.4c0-0.5,0-0.9,0-1.4c1.6-4.2,4.1-6.1,7.4-5.5c2.9,0.5,5,2.7,5.1,5.6c0.2,3.2-1.5,5.5-4.5,6.3
		c-2.9,0.7-5.8-0.6-7.2-3.2C815.1,447.6,814.9,447,814.6,446.4z"/>
	<path class="st140" d="M790,466.4c0-2.8,1.2-5.3,1.5-8c-1-1.7-0.9-3.2,1-4.2c3.8-1.9,4.4-4.2,2.1-8c-0.3-0.4-0.5-0.9-0.6-1.4
		c0.1-2.6,1-5.1,1.5-7.7c0.1-0.3,0.3-0.5,0.5-0.6c0.8-2,1.1-4,1.5-6.1c0.2-0.9,0.3-1.8,1-2.4c3.8,2.9,5.4,7.1,6.6,11.5
		c0,0.5,0,0.9,0,1.4c0.3,4.7-0.3,9.3-1.5,13.8c-0.2,0.8-0.2,1.6-0.6,2.4c-0.2,0.6-0.4,1.2-0.6,1.8c-2.6,3.3-5.3,6.5-9.8,7.4
		C791.8,466.4,790.9,466.6,790,466.4z"/>
	<path class="st141" d="M803.1,457c0.6-4.3,1.1-8.6,1.7-13c0.1-1.1,0.2-2.1,0.3-3.2C806.2,446.5,805.7,451.9,803.1,457z"/>
	<path class="st75" d="M509.9,455.5c-1.8-0.1-4,0.1-6.1-0.4c-4.2-1-6.8-3.6-7.6-7.7c-0.8-3.9,0.7-7.3,4-9.6c1.9-1.3,2.8-2.3,1.4-4.5
		c-1.1-1.7-0.2-2.5,1.6-3.2c2.1-0.8,2,0.7,2.4,1.8c0.6,1.7,1.1,2.7,3.5,2.2c4.2-0.9,8.9,2.1,10.5,6c0.2,0.4,0.4,1,0.2,1.1
		c-1.6,1.4-3.7,1.7-5.6,2.6c-1.2,0.5-1.7-0.7-2.3-1.5c-1.4-1.9-3.7-2.5-6-1.5c-2.1,0.9-2.8,2.6-2.4,4.7c0.5,2.5,1.7,3.5,4.6,3.5
		c4.1,0,8.1-0.1,12.1,1.2c3.5,1.1,5.5,3.7,6.1,7.2c0.7,3.8-0.5,7.3-3.7,9.4c-2.1,1.4-3,2.5-1.6,4.8c0.9,1.5-0.1,2-1.3,2.5
		c-1.3,0.5-2.3,0.6-2.6-1c-0.5-2.1-1.5-2.7-3.8-2.1c-4.6,1-9.2-1.3-11.6-5.5c-0.8-1.3-0.5-1.9,0.9-2.3c1-0.3,1.9-0.6,2.8-1.1
		c1.7-0.9,2.9-1.2,4.1,1.1c1.2,2.2,4.4,2.3,7.2,0.8c1.9-1,2.8-2.6,2.3-4.8c-0.5-2.2-2.5-3.6-5.3-3.6
		C512.6,455.5,511.4,455.5,509.9,455.5z"/>
	<path class="st142" d="M796,436.5c0,0.1,0,0.3,0,0.4c-0.3,1.3-0.9,2.1-2.4,1.5c-0.9-0.3-1.9-0.4-2.9-0.3c-1.1,0.1-2,0.5-2.2,1.7
		c-0.3,1.1,0.4,1.9,1.3,2.4c0.8,0.6,1.8,0.8,2.7,1.2c0.8,0.4,1.7,0.7,2,1.7c0.2,0.3,0.4,0.6,0.6,0.8c-0.3,1.2-0.1,2.5-1,3.5
		c-0.7-1.8-2.2-2.8-4-3.5c-1.1-0.4-2.2-0.9-3.1-1.5c-3.4-2.4-3.2-6.5,0.5-8.4c1.4-0.7,2.4-1.2,2.1-3c-0.1-0.5,0.2-1,0.8-1
		c0.4,0,1,0.1,1,0.5c-0.4,3.2,2.3,2.8,4,3.4C795.7,436.1,795.8,436.3,796,436.5z"/>
	<path class="st143" d="M793.2,454.6c-2.2,0.6-1.5,2.4-1.7,3.8c-1.1,0.2-2.1,0.3-2-1.3c0.1-1.6-0.8-2-2.1-2.1
		c-0.6-0.1-1.3-0.3-1.9-0.5c-0.8-0.3-1.2-0.9-0.8-1.8c0.4-0.9,1-0.5,1.7-0.3c2.3,0.9,4.5,1,6.6-0.4
		C793.7,452.9,793.1,453.7,793.2,454.6z"/>
	<path class="st144" d="M793.2,454.6c-1.2-0.8-0.1-1.7-0.1-2.5c0.1-0.9,1.2-1.5,1-2.6c0.2-1.2-0.6-2.7,1-3.5
		C797.8,449.3,797,452.8,793.2,454.6z"/>
	<path class="st145" d="M794.4,445.2c-1.6-0.7-3.3-1.4-4.9-2.3c-1.3-0.7-2.4-1.7-1.9-3.3c0.4-1.5,1.6-2.2,3.2-2.1c1,0,2-0.2,2.9,0.4
		c1.3,0.8,1.7-0.2,2.3-1C795.9,439.7,794.8,442.4,794.4,445.2z"/>
</g>
</svg>
