<svg version="1.1" id="_x2014_лой_x5F_1" xmlns="http://www.w3.org/2000/svg" xmlns:xlink="http://www.w3.org/1999/xlink" x="0" y="0" viewBox="0 0 2800 1868.1" style="enable-background:new 0 0 2800 1868.1" xml:space="preserve"><style>.st0{fill:#d4deff}.st1{fill:#fff}.st2{fill:#e3eaff}.st3{fill:#e5f1fa}.st4{fill:#d8eaff}.st5{fill:#b9d8fd}.st10{fill:#2c2858}.st11{fill:#e3e3e1}.st12{fill:#f3f3f3}.st13{fill:#fad332}.st14{fill:#faba23}.st15{fill:#faee6c}.st16{fill:#95a6db}.st17{fill:#4ead60}.st18{fill:#e62552}.st21{fill:#023766}.st23{font-family:&apos;MyriadPro-Regular&apos;}.st24{font-size:122px}.st25{fill:#ffb27d}.st27{fill:#233862}.st28{fill:#2b478b}.st29{fill:#e9f3fe}.st30{fill:#22407a}.st31{fill:#d9e9f9}.st32{fill:#ba4c43}</style><circle transform="rotate(-88.7 3140.9 132) scale(1.00005)" class="st0" cx="3140.9" cy="132" r="81.4"/><path class="st1" d="m3161.5 191.8-6.3-14.2a45.6 45.6 0 0 1-24.2 3.3l-.8-10.9c6.5 1.1 15 .6 22.9-2.9 10-4.4 14.2-13.1 10.7-21.1-3.4-7.7-11-10.1-23.2-9.7-16.8.7-28.5-1.9-33.9-14.1-5.1-11.7-.7-24.2 11.3-32l-6.3-14.2 8.7-3.8 6 13.6a41.2 41.2 0 0 1 20.4-3.1l.6 10.8c-3.7-.4-10.8-.9-19.8 3-10.8 4.8-12 13-9.6 18.6 3.2 7.3 10 8.7 24.5 8.3 17.1-.5 27.6 3.6 33.1 16.1 4.9 11.1 1.7 24.9-11.7 33.7l6.4 14.6-8.8 4z"/><path class="st0" d="m3290.4 222.3-68.7-77.1s25.3-54.1 99.4-56.1c46-1.2 86.6-47.5 86.6-47.5l69 77.5s-44.7 63.6-97.3 64c-55.5.6-89 39.2-89 39.2z"/><path class="st2" d="M3388.6 115.8c7.2 19.9-5.8 42.8-28.9 51.2-23.2 8.4-47.8-.9-55-20.8-7.2-19.9 5.8-42.8 28.9-51.2 23.1-8.3 47.8 1 55 20.8z"/><path class="st0" d="m3308.8 602.5-33.2-97.8s-59.6-4.7-97.8 58.8c-23.7 39.4-84.1 51.9-84.1 51.9l33.4 98.3s77.3-7.5 103.7-53c27.9-48.1 78-58.2 78-58.2z"/><ellipse transform="rotate(-40.5 3201.7 606.3)" class="st2" cx="3201.7" cy="606.3" rx="44.6" ry="38.3"/><path class="st3" d="M2528 1849c116-184.3 235.6-314.9 223.1-576.1-10.7-223.8-264.5-288.5-331.9-383.7-82.5-116.6 14.3-337.5-132-536.5-160.2-217.9-416.9-213.1-628-103-154.2 80.4-312.5 108-467.5 60.4-262-80.5-620.9-103-656.6 216.7-24.8 222.4-146.3 291.3-339 440.6-259.9 201.3-62.1 599.2 38.1 880.5L2528 1849z"/><path class="st4" d="m1523.3 923.8 480.3 311.4 415.1-640.3 174.9-269.8-480.3-311.4-326.5 503.8z"/><path class="st5" d="M2141.1 88.6 2514 330.3l-530.3 818-372.9-241.7 530.3-818zm-139.2 1006.6 470.7-726c12.5-19.3 7-45-12.3-57.5l-280.1-181.6a41.9 41.9 0 0 0-58 12.4L1651.8 868a41.2 41.2 0 0 0 12.2 57l281.2 182.3a41 41 0 0 0 56.7-12.1z"/><path class="st5" d="M2162.7 683.5a119.6 119.6 0 1 0-200.9-130 119.6 119.6 0 0 0 200.9 130z"/><path style="fill:#c8e7ff" d="m1735.6 891.1 176.4 452.3 603-235.1 254.1-99-176.3-452.4-474.5 185z"/><path class="st5" d="m2574.7 622.2 136.9 351.2-770.4 300.4-136.9-351.2 770.4-300.4zm-594.5 624L2664 979.6a35.3 35.3 0 0 0 20-45.7l-102.8-263.8a35.5 35.5 0 0 0-46.1-20.2l-683.3 266.4a35 35 0 0 0-19.9 45.2l103.3 264.8a34.6 34.6 0 0 0 45 19.9z"/><circle transform="rotate(-8.3 2257.4 947.6)" class="st5" cx="2258" cy="948" r="101.4"/><path d="M998.3 408.4s-17.6 214.1-56.9 208.1c-39.4-6 36.6-237 36.6-237s-163.1-144-238.8-157.6c0 0 62.3 231.5 25.5 215.9-36.7-15.6-112.6-253.4-112.6-253.4S469.2 94 406.9 200.1c-62.3 106.1-28.1 177.6-1.5 192.8 26.6 15.2 210.4 64.6 199.1 87.2C593.2 502.7 459.1 506 396 465c0 0 24.4 210.5 127 229.1 102.5 18.7 150.5-34.8 213.6-22.1 63.2 12.7 103.8 42.2 68.3 50.2s-137.1-32.8-198.7-4.2c-61.6 28.6-109.3 43.5-21.7 88.8 87.5 45.3 257.3 80.4 310.3 18.1l6.6-7.8c-3.6 5.4-6.6 7.8-6.6 7.8 14.4 14.9 26.9 70 34.7 111.8.8 7 2.5 16.8 5.2 30.2l2.2 14.3c10.2 91.5-46 228.7-46 228.7l18.4 11c83.1-130.8 38.2-270.2 38.2-270.2-24.4-107.4.2-188.1.2-188.1s205.9-50.1 159.9-209.9c-.1-.1-43.8-102.6-109.3-144.3z" style="opacity:.3;fill:#a8c3ff"/><image style="overflow:visible;opacity:.3" width="563" height="497" xlink:href="4A96A2B968B9DD06.png" transform="translate(1083.8 590.8)"/><path d="M1460.9 761s102.1-32.8 116.9-21.1c16.3 12.8 51.3 135.4 46.2 216-2.9 45.4-18.6 50.2-42 50.8l-103.2 2.9-17.9-248.6z" style="fill:#3085f7"/><path class="st1" d="M1472.5 762.6c-8.9-4.1-78.1-10.5-114.6-51.1-39.4-43.8-46.6-123.4-85.8-111.5-38 11.6-16.6 156.3-15.3 165 0 .2-.1.4-.4.5-8.2 1-113.7 15.9-140.5 39.8-29.9 26.6-.3 58.9-.3 58.9-10.4 4.5-49.1 36.1 5.4 75.5.3.2.3.6.1.8-5.3 8.9-35.4 49.7 32.9 68.5 0 0-20.2 47 29 55.3 49.3 8.3 280.1-38.3 295.8-54.8 37.9-40 32.3-228.9-6.3-246.9z"/><path d="M627.4 1050.7s85.8 193.9 48.7 207.6c-37.1 13.7-80-222.9-80-222.9S386.3 989 314 1013.5c0 0 163.4 170.6 124.1 174.8-39.3 4.2-217.6-165.5-217.6-165.5s-201.7 9.6-205.8 131.4c-4.1 121.8 59.4 167.3 89.7 167.8 30.3.4 213.5-45.1 214.3-20.1.8 25-114.3 92.3-188.5 87 0 0 120.6 170.6 218.6 137.5 98-33.1 114.4-102.4 175.4-121.7 60.9-19.3 110.2-13.3 83.1 10.7-27.1 24-134.7 37.4-174.8 91.7-40.1 54.4-74.5 90.1 23 87.4 97.5-2.7 261.8-53.9 278.4-133.3a411 411 0 0 1 2.1-9.9c-.6 6.4-2.1 9.9-2.1 9.9 19.5 6 56.5 47.7 82.9 80.2a395 395 0 0 0 18.8 23.6l8.7 11.3c52.1 74.4 67.9 220.2 67.9 220.2l21.1.7c10.5-153.2-94.3-252.4-94.3-252.4-71.9-81.3-88.6-163-88.6-163s155.4-142.2 40-258.6c.1 0-86.3-67.9-163-72.5z" style="fill:#cde2fa"/><path class="st10" d="M2570.3 1857.5H200.6c-6.8 0-12.3-1.9-12.3-4.3s5.5-4.3 12.3-4.3h2369.8c6.8 0 12.3 1.9 12.3 4.3-.1 2.4-5.6 4.3-12.4 4.3z"/><path class="st1" d="M3098.1 369.2a82.3 82.3 0 1 1-158.1 46.5 82.3 82.3 0 1 1 158.1-46.5z"/><path class="st2" d="m3032 455.2-4.4-15.1a46 46 0 0 1-24.7.2l.6-11a42 42 0 0 0 23.4.1c10.6-3.1 15.9-11.3 13.4-19.8-2.4-8.2-9.7-11.6-22.1-12.8-17-1.5-28.4-5.6-32.2-18.5-3.6-12.4 2.4-24.4 15.4-30.6l-4.4-15.1 9.2-2.7 4.3 14.5c9-2.3 15.8-1.8 20.9-.5l-.8 10.9a37.5 37.5 0 0 0-20.3.5c-11.5 3.4-13.8 11.5-12 17.5 2.3 7.8 8.9 10 23.5 11.6 17.2 1.7 27.2 7.2 31.1 20.5 3.5 11.8-1.5 25.2-16.1 32.3l4.6 15.5-9.4 2.5z"/><path class="st10" d="m2181 1848.9-393.5.2a112.3 112.3 0 0 1-112.4-112.3l-.6-962.9c0-62.1 50.2-112.4 112.3-112.4l393.5-.2c62.1 0 112.4 50.2 112.4 112.3l.6 962.9c0 62.1-50.3 112.4-112.3 112.4z"/><path class="st1" d="m2185 1829.7-401.6.3c-43.6 0-79-35.3-79.1-79l-.6-984c0-43.6 35.3-79 79-79.1l401.6-.3c43.6 0 79 35.3 79.1 79l.6 984a79 79 0 0 1-79 79.1z"/><path class="st10" d="M1670.8 976.4c-9.7 0-17.5-7.9-17.5-17.5V868a17.5 17.5 0 0 1 35 0v90.9c0 9.6-7.8 17.5-17.5 17.5zM2296 976.4c-9.7 0-17.5-7.9-17.5-17.5V868a17.5 17.5 0 0 1 35 0v90.9c0 9.6-7.8 17.5-17.5 17.5zM1670.8 1110.8c-9.7 0-17.5-7.9-17.5-17.5v-90.9c0-9.7 7.8-17.5 17.5-17.5s17.5 7.8 17.5 17.5v90.9c0 9.7-7.8 17.5-17.5 17.5z"/><path class="st11" d="M1976.8 1133.1c-89.3 0-162-72.7-162-162s72.7-162 162-162 162 72.7 162 162c-.1 89.3-72.7 162-162 162zm0-315.9c-84.9 0-154 69.1-154 154s69.1 154 154 154 154-69.1 154-154c-.1-85-69.1-154-154-154z"/><path class="st12" d="M1976.8 1063a21.5 21.5 0 0 1-21.5-21.5V744.4a21.5 21.5 0 1 1 43 0v297.2c0 11.8-9.6 21.4-21.5 21.4z"/><path class="st12" d="M1978.3 1080.7h-.8a21.4 21.4 0 0 1-16.5-8.8l-89.3-114.4a21.4 21.4 0 1 1 34.7-25.3l73.2 92.4 68.6-93.7a21.5 21.5 0 0 1 32.7 27.9l-86.3 114.4a21.5 21.5 0 0 1-16.3 7.5z"/><g><path class="st10" d="m942.6 1848.9-393.5.2a112.3 112.3 0 0 1-112.4-112.3l-.6-962.8c0-62.1 50.2-112.4 112.3-112.4l393.5-.2c62.1 0 112.4 50.2 112.4 112.3l.6 962.9c0 62-50.2 112.3-112.3 112.3z"/><path class="st1" d="m946.7 1829.7-401.6.3c-43.6 0-79-35.3-79.1-79l-.6-984c0-43.6 35.3-79 79-79.1l401.6-.3c43.6 0 79 35.3 79.1 79l.6 984a79 79 0 0 1-79 79.1z"/><path class="st10" d="M432.4 976.4c-9.7 0-17.5-7.9-17.5-17.5V868a17.5 17.5 0 0 1 35 0v90.9c.1 9.6-7.8 17.5-17.5 17.5zM1057.7 976.4c-9.7 0-17.5-7.9-17.5-17.5V868a17.5 17.5 0 0 1 35 0v90.9c0 9.6-7.8 17.5-17.5 17.5z"/><path class="st13" d="M928.9 1733.7v20.3c0 7.9-6.4 14.3-14.3 14.3H667.3c-7.9 0-14.3-6.4-14.3-14.3v-20.3a14.3 14.3 0 0 1 14.3-14.4h247.3c4.4 0 8.3 2 10.9 5.1a14 14 0 0 1 3.4 9.3z"/><path class="st14" d="M666.7 1719.4h7.2v48.9h-7.2zM696.8 1719.4h7.2v48.9h-7.2zM726.9 1719.4h7.2v48.9h-7.2zM757 1719.4h7.2v48.9H757zM787.2 1719.4h7.2v48.9h-7.2zM817.3 1719.4h7.2v48.9h-7.2zM847.4 1719.4h7.2v48.9h-7.2zM877.5 1719.4h7.2v48.9h-7.2zM907.6 1719.4h7.2v48.9h-7.2z"/><path class="st14" d="M925.5 1724.4H656.4c2.6-3.1 6.6-5.1 10.9-5.1h247.3c4.4.1 8.3 2 10.9 5.1zM925.5 1763.2H656.4c2.6 3.1 6.6 5.1 10.9 5.1h247.3c4.4 0 8.3-2 10.9-5.1z"/><g><path class="st13" d="M946.2 1684.8v20.3c0 7.9-6.4 14.3-14.3 14.3H684.6c-7.9 0-14.3-6.4-14.3-14.3v-20.3a14.3 14.3 0 0 1 14.3-14.4h247.3a14.3 14.3 0 0 1 14.3 14.4z"/><path class="st14" d="M684 1670.4h7.2v48.9H684zM714.1 1670.4h7.2v48.9h-7.2zM744.2 1670.4h7.2v48.9h-7.2zM774.3 1670.4h7.2v48.9h-7.2zM804.5 1670.4h7.2v48.9h-7.2zM834.6 1670.4h7.2v48.9h-7.2zM864.7 1670.4h7.2v48.9h-7.2zM894.8 1670.4h7.2v48.9h-7.2zM924.9 1670.4h7.2v48.9h-7.2z"/><path class="st14" d="M942.8 1675.5H673.7c2.6-3.1 6.6-5.1 10.9-5.1h247.3c4.4 0 8.3 2 10.9 5.1zM942.8 1714.3H673.7c2.6 3.1 6.6 5.1 10.9 5.1h247.3c4.4 0 8.3-2 10.9-5.1z"/></g><g><path class="st13" d="M932.8 1635.9v20.3c0 7.9-6.4 14.3-14.3 14.3H671.2c-7.9 0-14.3-6.4-14.3-14.3v-20.3a14.3 14.3 0 0 1 14.3-14.4h247.3c4.4 0 8.3 2 10.9 5.1 2.1 2.6 3.4 5.8 3.4 9.3z"/><path class="st14" d="M670.6 1621.6h7.2v48.9h-7.2zM700.7 1621.6h7.2v48.9h-7.2zM730.8 1621.6h7.2v48.9h-7.2zM760.9 1621.6h7.2v48.9h-7.2zM791 1621.6h7.2v48.9H791zM821.2 1621.6h7.2v48.9h-7.2zM851.3 1621.6h7.2v48.9h-7.2zM881.4 1621.6h7.2v48.9h-7.2zM911.5 1621.6h7.2v48.9h-7.2z"/><path class="st14" d="M929.4 1626.7H660.3c2.6-3.1 6.6-5.1 10.9-5.1h247.3c4.4 0 8.3 2 10.9 5.1zM929.4 1665.4H660.3c2.6 3.1 6.6 5.1 10.9 5.1h247.3c4.4 0 8.3-1.9 10.9-5.1z"/></g><g><path class="st13" d="M938.3 1588v20.3c0 7.9-6.4 14.3-14.3 14.3H676.7c-7.9 0-14.3-6.4-14.3-14.3V1588a14.3 14.3 0 0 1 14.3-14.4H924c4.4 0 8.3 2 10.9 5.1a14 14 0 0 1 3.4 9.3z"/><path class="st14" d="M676.1 1573.6h7.2v48.9h-7.2zM706.2 1573.6h7.2v48.9h-7.2zM736.3 1573.6h7.2v48.9h-7.2zM766.5 1573.6h7.2v48.9h-7.2zM796.6 1573.6h7.2v48.9h-7.2zM826.7 1573.6h7.2v48.9h-7.2zM856.8 1573.6h7.2v48.9h-7.2zM886.9 1573.6h7.2v48.9h-7.2zM917 1573.6h7.2v48.9H917z"/><path class="st14" d="M934.9 1578.7H665.8c2.6-3.1 6.6-5.1 10.9-5.1H924c4.4 0 8.3 2 10.9 5.1zM934.9 1617.5H665.8c2.6 3.1 6.6 5.1 10.9 5.1H924c4.4 0 8.3-2 10.9-5.1z"/></g><g><path class="st13" d="M907.5 1538.3v20.3c0 7.9-6.4 14.3-14.3 14.3H645.9c-7.9 0-14.3-6.4-14.3-14.3v-20.3a14.3 14.3 0 0 1 14.3-14.4h247.3c4.4 0 8.3 2 10.9 5.1 2.1 2.6 3.4 5.8 3.4 9.3z"/><path class="st14" d="M645.3 1524h7.2v48.9h-7.2zM675.4 1524h7.2v48.9h-7.2zM705.5 1524h7.2v48.9h-7.2zM735.6 1524h7.2v48.9h-7.2zM765.7 1524h7.2v48.9h-7.2zM795.9 1524h7.2v48.9h-7.2zM826 1524h7.2v48.9H826zM856.1 1524h7.2v48.9h-7.2zM886.2 1524h7.2v48.9h-7.2z"/><path class="st14" d="M904.1 1529.1H634.9c2.6-3.1 6.6-5.1 10.9-5.1h247.3c4.5 0 8.4 2 11 5.1zM904.1 1567.8H634.9c2.6 3.1 6.6 5.1 10.9 5.1h247.3c4.5 0 8.4-2 11-5.1z"/></g><g><path class="st13" d="M937.8 1490v20.3c0 7.9-6.4 14.3-14.3 14.3H676.2c-7.9 0-14.3-6.4-14.3-14.3V1490a14.3 14.3 0 0 1 14.3-14.4h247.3c4.4 0 8.3 2 10.9 5.1 2.2 2.5 3.4 5.7 3.4 9.3z"/><path class="st14" d="M675.6 1475.6h7.2v48.9h-7.2zM705.7 1475.6h7.2v48.9h-7.2zM735.8 1475.6h7.2v48.9h-7.2zM766 1475.6h7.2v48.9H766zM796.1 1475.6h7.2v48.9h-7.2zM826.2 1475.6h7.2v48.9h-7.2zM856.3 1475.6h7.2v48.9h-7.2zM886.4 1475.6h7.2v48.9h-7.2zM916.6 1475.6h7.2v48.9h-7.2z"/><path class="st14" d="M934.4 1480.7H665.3c2.6-3.1 6.6-5.1 10.9-5.1h247.3c4.4 0 8.3 2 10.9 5.1zM934.4 1519.5H665.3c2.6 3.1 6.6 5.1 10.9 5.1h247.3c4.4 0 8.3-2 10.9-5.1z"/></g><g><path class="st13" d="M927.1 1440.9v20.3c0 7.9-6.4 14.3-14.3 14.3H665.5c-7.9 0-14.3-6.4-14.3-14.3v-20.3a14.3 14.3 0 0 1 14.3-14.4h247.3c4.4 0 8.3 2 10.9 5.1 2.1 2.5 3.4 5.8 3.4 9.3z"/><path class="st14" d="M664.8 1426.6h7.2v48.9h-7.2zM695 1426.6h7.2v48.9H695zM725.1 1426.6h7.2v48.9h-7.2zM755.2 1426.6h7.2v48.9h-7.2zM785.3 1426.6h7.2v48.9h-7.2zM815.4 1426.6h7.2v48.9h-7.2zM845.6 1426.6h7.2v48.9h-7.2zM875.7 1426.6h7.2v48.9h-7.2zM905.8 1426.6h7.2v48.9h-7.2z"/><path class="st14" d="M923.7 1431.6H654.5c2.6-3.1 6.6-5.1 10.9-5.1h247.3c4.4.1 8.4 2 11 5.1zM923.7 1470.4H654.5c2.6 3.1 6.6 5.1 10.9 5.1h247.3c4.4 0 8.4-2 11-5.1z"/></g><g><path class="st13" d="M941.9 1392.2v20.3c0 7.9-6.4 14.3-14.3 14.3H680.2c-7.9 0-14.3-6.4-14.3-14.3v-20.3a14.3 14.3 0 0 1 14.3-14.4h247.3c4.4 0 8.3 2 10.9 5.1 2.2 2.6 3.5 5.8 3.5 9.3z"/><path class="st14" d="M679.6 1377.9h7.2v48.9h-7.2zM709.7 1377.9h7.2v48.9h-7.2zM739.9 1377.9h7.2v48.9h-7.2zM770 1377.9h7.2v48.9H770zM800.1 1377.9h7.2v48.9h-7.2zM830.2 1377.9h7.2v48.9h-7.2zM860.3 1377.9h7.2v48.9h-7.2zM890.5 1377.9h7.2v48.9h-7.2zM920.6 1377.9h7.2v48.9h-7.2z"/><path class="st14" d="M938.5 1383H669.3c2.6-3.1 6.6-5.1 10.9-5.1h247.3c4.4 0 8.3 2 11 5.1zM938.5 1421.7H669.3c2.6 3.1 6.6 5.1 10.9 5.1h247.3c4.4 0 8.3-2 11-5.1z"/></g><g><circle transform="rotate(-18.2 658.4 1622.8)" class="st14" cx="658.4" cy="1623" r="147.6"/><path class="st13" d="M773.7 1660.2a121.2 121.2 0 1 1-230.7-74.5 121.2 121.2 0 0 1 230.7 74.5z"/><path class="st15" d="m733.2 1527.6-167 174.1a121.6 121.6 0 0 1-28.9-85.1L647 1502.3c15.9-1.5 32.4.1 48.6 5.4 14 4.5 26.7 11.3 37.6 19.9zM763.3 1562.4l-161.2 168a121.9 121.9 0 0 1-27.3-19.5l167.9-175c8.1 7.8 15 16.8 20.6 26.5z"/><path class="st1" d="M666.5 1507.8c-14.3-1.5-16.9-.1-23.4 12.6 1.6-14.1.2-16.8-12.6-23.4 14.3 1.5 16.9.1 23.4-12.6-1.5 14.3-.1 16.9 12.6 23.4zM615.8 1735.5c-12.1-1.3-14.3-.1-19.7 10.6 1.3-11.9.2-14.1-10.6-19.7 12.1 1.3 14.3.1 19.7-10.6-1.3 12-.1 14.2 10.6 19.7z"/></g><g><path class="st11" d="M743.5 1116.6c-89.3 0-162-72.7-162-162s72.7-162 162-162 162 72.7 162 162c-.1 89.4-72.7 162-162 162zm0-315.9c-84.9 0-154 69.1-154 154s69.1 154 154 154 154-69.1 154-154-69.1-154-154-154z"/><circle class="st12" cx="743.5" cy="954.7" r="117.2"/><path class="st11" d="M832.3 1003.9a101.2 101.2 0 0 1-177.6 0 102 102 0 0 1 48.5-43.7 54.4 54.4 0 1 1 80.6 0 102 102 0 0 1 48.5 43.7z"/></g><g><path class="st14" d="m932 1232.4-68-36.5-5.8 10.7c-2.8 5.2 10.3 17.6 29.1 27.7 18.9 10.1 36.4 14.2 39.2 9 .4-.5 5.5-10.9 5.5-10.9z"/><path class="st13" d="M932 1233.1c-2.8 5.2-20.3 1.1-39.2-9-18.9-10.1-31.9-22.6-29.1-27.7 2.8-5.2 20.3-1.1 39.2 9 18.9 10.2 31.9 22.6 29.1 27.7z"/></g><g><path class="st14" d="m630 1369.7-68.8 11.2 1.8 10.8c.8 5.2 17 7 36.1 3.8 19.1-3.1 33.9-9.9 33-15.1l-2.1-10.7z"/><path class="st13" d="M630.5 1370.2c.8 5.2-13.9 12-33 15.1-19.1 3.1-35.3 1.4-36.1-3.8-.8-5.2 13.9-12 33-15.1 19.1-3.1 35.2-1.4 36.1 3.8z"/></g><g><path class="st14" d="m712.2 1249.1-62.5-30.8-4.8 9.8c-2.3 4.8 9.8 15.5 27.2 24.1 17.4 8.5 33.3 11.6 35.7 6.9.1-.5 4.4-10 4.4-10z"/><path class="st13" d="M712.3 1249.8c-2.3 4.8-18.3 1.7-35.7-6.9-17.4-8.5-29.5-19.3-27.2-24.1 2.3-4.8 18.3-1.7 35.7 6.9 17.3 8.5 29.5 19.3 27.2 24.1z"/></g><g><path class="st14" d="m619 1132.9-72 11.7 1.8 11.3c.9 5.5 17.8 7.3 37.8 4 20-3.2 35.5-10.3 34.6-15.8l-2.2-11.2z"/><path class="st13" d="M619.5 1133.5c.9 5.5-14.6 12.5-34.6 15.8-20 3.2-36.9 1.4-37.8-4-.9-5.5 14.6-12.5 34.6-15.8s36.9-1.5 37.8 4z"/></g></g><g><path class="st2" d="M-259.6 1374.7h-436.6a35 35 0 0 1-35.1-35.1v-92.3a35 35 0 0 1 35.1-35.1h436.6a35 35 0 0 1 35.1 35.1v92.3a35 35 0 0 1-35.1 35.1z"/><path class="st14" d="M-573.8 1270.6v45.7c0 12.3-10 22.3-22.3 22.3h-86.5a22.3 22.3 0 0 1-22.3-22.3v-45.7c0-12.3 10-22.3 22.3-22.3h86.5a22.3 22.3 0 0 1 22.3 22.3z"/><path class="st16" d="M-397.5 1312H-541a18.6 18.6 0 1 1 0-37.2h143.5a18.6 18.6 0 1 1 0 37.2z"/><path class="st17" d="M-269.4 1312h-71.9a18.6 18.6 0 1 1 0-37.2h71.9a18.6 18.6 0 1 1 0 37.2z"/><path class="st13" d="m-582.7 1252.7-112.2 82.2c-6-4-10-10.8-10-18.6v-45.7c0-12.3 10-22.3 22.3-22.3h86.5c5-.1 9.6 1.6 13.4 4.4z"/><path class="st18" d="M-602.9 1312.9a15 15 0 1 1-30 0 15 15 0 0 1 30 0z"/><path class="st16" d="M-585 1312.9a15 15 0 1 1-30 0 15 15 0 0 1 30 0z"/></g><g><path class="st1" d="M3529.4 1009.4a74 74 0 1 1-129.7 70.9 74 74 0 0 1 129.7-70.9z"/><path class="st2" d="m3487.8 1097.3-6.8-12.4a40.6 40.6 0 0 1-21.7 4.9l-1.5-9.8c6 .5 13.6-.6 20.5-4.4 8.7-4.7 11.8-13 8-19.9-3.7-6.7-10.7-8.3-21.8-7-15.2 1.9-25.9.5-31.8-10.1-5.6-10.2-2.5-21.8 7.7-29.8l-6.8-12.4 7.6-4.1 6.5 11.9a36.2 36.2 0 0 1 18.2-4.4l1.4 9.7c-3.4-.1-9.9 0-17.7 4.3-9.4 5.1-9.9 12.7-7.2 17.6 3.5 6.4 9.7 7.1 22.8 5.7 15.4-1.8 25.2 1.1 31.2 12 5.3 9.7 3.5 22.4-8 31.4l7 12.7-7.6 4.1z"/></g><g><path class="st1" d="M3024.3 1139a73.9 73.9 0 1 1-133.5-63.4 73.9 73.9 0 0 1 133.5 63.4z"/><path class="st2" d="m2928.7 1156.9 6.1-12.7a41 41 0 0 1-16.6-14.7l7-7a36.5 36.5 0 0 0 15.6 14c8.9 4.3 17.4 2 20.8-5.2 3.3-6.9.4-13.5-7.1-21.7-10.4-11.1-15.6-20.7-10.4-31.7 5-10.4 16.2-14.8 28.7-11.2l6.1-12.7 7.8 3.7-5.8 12.2a37.5 37.5 0 0 1 14.3 12.2l-7.1 6.8c-1.9-2.8-5.8-8-13.8-11.8-9.7-4.6-16.1-.6-18.5 4.5-3.1 6.5 0 12 8.8 21.8 10.4 11.5 13.9 21.1 8.5 32.3-4.7 9.9-16.1 16-30.1 11.9l-6.2 13.1-8.1-3.8z"/></g><g><path class="st0" d="M3302.5 322.1a73.8 73.8 0 1 1-135.3 59.5 73.8 73.8 0 1 1 135.3-59.5z"/><path class="st1" d="m3253.6 406.2-5.7-12.9a41.2 41.2 0 0 1-22 3l-.7-9.9a38 38 0 0 0 20.8-2.6c9.1-4 12.9-11.9 9.7-19.2-3.1-7-10-9.2-21.1-8.8-15.3.6-25.9-1.7-30.8-12.8-4.7-10.6-.7-21.9 10.2-29l-5.7-12.9 7.9-3.5 5.5 12.4a36.7 36.7 0 0 1 18.6-2.8l.5 9.8a33 33 0 0 0-18 2.7c-9.8 4.3-10.9 11.8-8.7 16.9 2.9 6.6 9.1 7.9 22.2 7.6 15.5-.4 25.1 3.3 30.1 14.6 4.4 10.1 1.6 22.6-10.6 30.6l5.8 13.3-8 3.5z"/></g><g><path class="st0" d="m3470.8 327.6 48.8-91s59.5 5.1 86.9 74.1c16.9 42.8 74.4 64.9 74.4 64.9l-49.1 91.5s-75-20.1-93.6-69.3c-19.5-52-67.4-70.2-67.4-70.2z"/><path class="st2" d="M3604.6 383.1c-16.2 13.6-42.2 9.3-58-9.6-15.9-18.9-15.6-45.2.6-58.8 16.2-13.6 42.2-9.3 58 9.6 15.8 18.9 15.6 45.2-.6 58.8z"/></g><g><path class="st0" d="m3209.5 1000.8-68.7-77.1s25.3-54.1 99.4-56.1c46-1.2 86.6-47.5 86.6-47.5l69 77.5s-44.7 63.6-97.3 64c-55.4.5-89 39.2-89 39.2z"/><path class="st2" d="M3307.7 894.3c7.2 19.9-5.8 42.8-28.9 51.2-23.2 8.4-47.8-.9-55-20.8-7.2-19.9 5.8-42.8 28.9-51.2 23.1-8.4 47.8.9 55 20.8z"/></g><g><path class="st0" d="m3575.9 599-11.6-86.3s-48.5-13.6-90.4 32.8c-26 28.7-77.9 29.2-77.9 29.2l11.6 86.7s65.2 6.3 94.3-27c30.9-35.2 74-35.4 74-35.4z"/><ellipse transform="rotate(-29.4 3486.3 584.8)" class="st2" cx="3486.7" cy="584.8" rx="37.6" ry="32.2"/></g><g><path class="st2" d="M-259.6 1571.7h-436.6a35 35 0 0 1-35.1-35.1v-92.3a35 35 0 0 1 35.1-35.1h436.6a35 35 0 0 1 35.1 35.1v92.3a35 35 0 0 1-35.1 35.1z"/><path d="M-573.8 1467.5v45.7c0 12.3-10 22.3-22.3 22.3h-86.5a22.3 22.3 0 0 1-22.3-22.3v-45.7c0-12.3 10-22.3 22.3-22.3h86.5a22.3 22.3 0 0 1 22.3 22.3z" style="fill:#d6224c"/><path class="st16" d="M-397.5 1509H-541a18.6 18.6 0 1 1 0-37.2h143.5a18.6 18.6 0 1 1 0 37.2z"/><path class="st17" d="M-269.4 1509h-71.9a18.6 18.6 0 1 1 0-37.2h71.9a18.6 18.6 0 1 1 0 37.2z"/><path class="st18" d="m-582.7 1449.7-112.2 82.2c-6-4-10-10.8-10-18.6v-45.7c0-12.3 10-22.3 22.3-22.3h86.5c5-.1 9.6 1.6 13.4 4.4z"/><circle transform="rotate(-1.7 -617.8 1510) scale(1.00003)" cx="-617.9" cy="1509.9" style="fill:#fac832" r="15"/><circle transform="rotate(-1.7 -600 1510) scale(1.00003)" class="st16" cx="-600" cy="1509.9" r="15"/></g><g><path class="st2" d="M-259.6 1768.7h-436.6a35 35 0 0 1-35.1-35.1v-92.3a35 35 0 0 1 35.1-35.1h436.6a35 35 0 0 1 35.1 35.1v92.3a35 35 0 0 1-35.1 35.1z"/><path class="st14" d="M-573.8 1664.5v45.7c0 12.3-10 22.3-22.3 22.3h-86.5a22.3 22.3 0 0 1-22.3-22.3v-45.7c0-12.3 10-22.3 22.3-22.3h86.5a22.3 22.3 0 0 1 22.3 22.3z"/><path class="st16" d="M-397.5 1706H-541a18.6 18.6 0 1 1 0-37.2h143.5a18.6 18.6 0 1 1 0 37.2z"/><path class="st17" d="M-269.4 1706h-71.9a18.6 18.6 0 1 1 0-37.2h71.9a18.6 18.6 0 1 1 0 37.2z"/><path class="st13" d="m-582.7 1646.7-112.2 82.2c-6-4-10-10.8-10-18.6v-45.7c0-12.3 10-22.3 22.3-22.3h86.5c5-.1 9.6 1.6 13.4 4.4z"/><path class="st18" d="M-602.9 1706.9a15 15 0 1 1-30 0 15 15 0 0 1 30 0z"/><path class="st16" d="M-585 1706.9a15 15 0 1 1-30 0 15 15 0 0 1 30 0z"/></g><g><path class="st5" d="M1530.2 341.8s14.2 60.8 0 61.9c-14.2 1.1-45.8-21.9-101.1-9.4-55.3 12.6-121.9 34.8-173.9-32.3s39.1-102 39.1-102l235.9 81.8z"/><path class="st5" d="m1410.7 354.6 285-18 4.1-13.3-299.2-160-277.5 8-3.6 12 291.2 171.3zM1633.4 538.8a11 11 0 0 0-14.6-5.5 11 11 0 0 0-5.5 14.6c2.5 5.6 9 8 14.6 5.5 5.5-2.5 8-9.1 5.5-14.6z"/><path class="st5" d="M1624.4 543.2c11.2-2.5 28.8 99.9 28.8 99.9s-6.9 4.5-10.6 4.3c-3.7-.3-7.6-13.9-7.6-13.9l1.8 14.6s-12.3 2.2-17.1-.1c0-.1-13-100.8 4.7-104.8z"/><path class="st4" d="m1628.4 545-34.8-224.4-1.6-.8-163.1-87.4-4.2 7.9 161.4 86.5 35.3 218.8z"/></g><g><path class="st12" d="M2001 1486.6c-.5.7-2.6 4 .1 7.8l.4.6c32.1 19.3 128.4 97.3 128.4 152.3v114h-290.6v-114c0-55.4 97.6-134.6 129-152.9 1-1.4 1.3-2.8 1.3-3.9 0-2.3-1.3-4-1.3-4-31.5-18.7-129-97.3-129-152.7v-113.9h290.6v114c-.1 55.2-97.4 134.3-128.9 152.7z"/><path class="st21" d="M2146.5 1790.6h-326.3V1763c0-1 .8-1.8 1.8-1.8h322.9c.9 0 1.7.8 1.7 1.7v27.7z"/><path class="st11" d="M1922.4 1654.3c-1.5 25.5 3.4 80.5 2.9 106.9h-86.1v-114c0-55.4 97.6-134.6 129-152.9 1-1.4 1.3-2.8 1.3-3.9 0-2.3-1.3-4-1.3-4-31.5-18.7-129-97.3-129-152.7v-113.9h57.6l41.1 11.3v90.1s-4.1 26 6.1 51.4c10.2 25.5 32.1 107.3 31.8 117.9-.3 10.7-50.9 120.1-53.4 163.8z"/><path d="M2092.2 1295.6c-17.6.3-47.9 3.4-96.9 15.8-33.6 8.5-91.4 2.1-122-2.3a17.8 17.8 0 0 0-20.3 17.6v13.1c0 36.2 97.4 114.6 123.1 134.7a16 16 0 0 1 6.2 12.7v201.2a21 21 0 0 1-9 17.2c-20.3 14.2-54.4 55.6-54.4 55.6h129s-34.6-40-54-54.9a18 18 0 0 1-7-14.2V1487c0-4.9 2.2-9.6 6.1-12.6 25.2-20.2 120.5-98.9 120.5-135.1v-23a21 21 0 0 0-21.3-20.7z" style="fill:#ffd600"/><path class="st21" d="M2144.7 1231.1h-322.9c-.9 0-1.7-.8-1.7-1.7v-27.7h326.3v27.6c.1 1-.7 1.8-1.7 1.8z"/></g><path class="st15" d="m2089.2 1338.9-99.8 107.4c7.5 11.4 10.7 13.4 20.8 5.7l90.6-93.3c3.4-6.6 3.4-6.6-.3-16.2-3.4-8.3-5.6-10-11.3-3.6z"/><path class="st3" d="M1976.2-234.8c-149.3 0-2324.3.5-2325.6-3.4l-.2-.5-.2-.7c-.8-1.9-335.1-548.8 184.6-929.4 203.3-148.9-12.7-247.3 149-413.1 185.8-190.5 388.6 20.2 595.3-66.2a332.8 332.8 0 0 0 109.8-77.5 406.3 406.3 0 0 1 78.8-62.9 463.4 463.4 0 0 1 76.8-37.8 514.6 514.6 0 0 1 52.7-17.1 596.7 596.7 0 0 1 113.9-18.9c230.9-17.3 490.7 79.8 624.8 221.7 27 28.6 149.8 176.4 53 379.5-61.1 128.3 194.9 250.8 285.8 397.3 231.3 372.5 3.6 624.1 1.5 629z"/><text transform="translate(1255.6 1214.8)"><tspan x="0" y="0" class="st23 st24">cost</tspan><tspan x="7.5" y="146.4" class="st23 st24">and</tspan><tspan x="-62.4" y="292.8" class="st23 st24">timing</tspan></text><g><path class="st25" d="M1664.9 959.1v6.8s-1.8 21.2 24.3 24.3c26.1 3.1 47.6 2.7 46.9-13.7-2.4-12.7-6.6-32.4-6.7-42.9-.1-3.9.2-8 .9-12.7l-50.7-1-14.9 2.4.2 36.8z"/><path d="m1664.7 922.4.2 36.7c5.4 2.5 11.5 4 18.3 4 23.3 0 38.3-17.1 46.2-29.5-.1-3.9.2-8 .9-12.7l-50.7-1-14.9 2.5z" style="fill:#e2915a"/><path class="st25" d="M1734.2 912.8c-5.9 31.6-46.7 30.6-64.3 28.6-5-.6-8.1-1.2-8.1-1.2-5.6-1.5-8.7-10.3-10.2-21.9-2.9-22.9.8-56.4 4.6-65 5.8-12.9 16.8-26.9 57.9-16.8 41.1 10.2 27.6 35.8 20.1 76.3z"/><path class="st27" d="M1767.6 1849.5h-57.8c.4-3 1.9-12.3 4.6-20.8.9-3 2-5.8 3.3-8.3 5.6-11.2 41.4-4.1 41.4-4.1s3.3 2.8 5.9 13.7c1.1 4.8 2.1 11.1 2.6 19.5zM1592.8 1831.2c-.2 7.9-1.1 15.3-4 18.3h-114.4c1.5-4.1 5.6-10.4 17.3-12.3 13.3-2.2 34.2-8.6 46.3-21.4 4.3-4.6 7.6-9.9 9-16.2 5.4-24 44.5 7.3 44.5 7.3s1.6 12.6 1.3 24.3z"/><path class="st28" d="M1668.9 1572.1c-1.6 8.8-2.6 16-2.9 21.1-3.6 70.9-59.7 233.2-69.8 236.9-15.5 5.9-40-6.6-52.8-10.7-5.3-1.7-8.9-7-7.7-12.5 27.8-127.7 38-311.5 41.7-420.4 1.9-54.8 11.3-92.7 11.3-92.7s136.8-36.5 137.6 9.7c.8 41-45.2 201.3-57.4 268.6z"/><path class="st27" d="m1668.9 1572.1-91.4-185.4c1.9-54.8 11.3-92.7 11.3-92.7s136.8-36.5 137.6 9.7c.7 40.8-45.3 201.1-57.5 268.4z"/><path class="st28" d="m1638.5 1303.9 72.3 524.1s31.8 7.7 56.5 1.5c0 0 21.2-278.7 19.4-346.1-1.8-67.4 15.2-180.3-3.9-192.8-19.1-12.5-144.3 13.3-144.3 13.3z"/><path class="st27" d="M1643.6 823.3s18.1-1.4 39.4-10.7c17.3-7.5 39.2.8 46.3 4.5-.2-1.1-.6-2.7-1.7-4.3 0 0 3.2 2.3 3.7 5.4.3.2.5.4.4.5 0 0 3.6-.7 5.9.4 0 0-1.6-.2-2.2.8l-.3.3c27 13.1 29.5 55.8 20.8 65.6-10.5 11.9-23 38.7-23 38.7s-4.6-6.3-2.7-16.8c1.9-10.5-7.1-10.5-18.5-15.2-11.4-4.8-1.9-18.1-11.9-26.2-10-8.1-46.6-3.3-46.1-9.5-13.6-4.9-10.1-32.1-10.1-33.5z"/><path class="st29" d="m1742.3 985.7-16.6 357.2s-138.9 2.3-135-29.2c4-31.4 50.1-317.1 50.1-317.1l101.5-10.9z"/><path class="st30" d="M1791.9 1188.2c-8.3 24.8 7.3 108 12.9 136.2l2 9.5c-19.2 31.3-89.7 30.9-89.7 30.9-13.6-59.9-20.6-155.3-20.6-155.3l54.1-237 68 62.9s-5.1 38.4-11.5 77.4c-5 30.8-10.7 62.2-15.2 75.4z"/><path class="st1" d="M1676.3 918s-1.3 4.1-11.6 2.6c0 0-8.6-1.2-8-5.8-.1 0 8.6-2.5 19.6 3.2z"/><path class="st30" d="M1598.2 990.8v.2c-3.3 3.2-96 93.2-114 128.5-18.3 35.8 83.6 107.1 83.6 107.1s6.6 2.6 11.1 1.6c-4.8 39.6-10.2 76.1-7 91.7 5.8 28.2 31.8 37.6 31.8 35.5 0-.7 9.5-102.3 14.7-155.4 11.1-113.7 43.6-226.7 43.6-226.7-30.4 3-63.8 17.5-63.8 17.5zm-55.3 144.1-.1-.5c0-5.2 19.7-16.5 40.9-29.9l.4-.4c-.4 11-.3 21.7.3 31.7 1.2 18.6-.1 40.8-2.4 63.4-10-16-37.1-58.5-39.1-64.3z"/><path class="st31" d="M1746.2 972c.2-3.4-16-8.1-16-8.1s-18.5 25.6-48.9 26.1c0 0 8.7 16.9 18.9 21.3 0-.1 45-19.1 46-39.3zM1681.3 989.3s-16.1-9.6-16.2-19.9c0 0-10.4-1.3-15 3.7 0 0-3.8 17.8 1.2 28.1.1 0 23.3-3.5 30-11.9z"/><path class="st32" d="m1692.3 987.8-21.9-5.2s-2.9.2-2.8 3.8c.1 3.6 6.2 14 8.9 14.8 2.7.8 20.9-6.2 15.8-13.4z"/><path class="st29" d="M1743.7 970.2c.2-3.4-10.8-10.4-10.8-10.4s-21.2 24.7-51.6 25.2c0 0 8.7 16.9 18.9 21.3 0-.1 42.5-15.8 43.5-36.1zM1681.3 985s-16.3-8.6-16.4-19c0 0-9.8 4.3-14.4 9.4 0 0-4.2 11.2.9 21.5 0 0 23.2-3.6 29.9-11.9z"/><path d="M1638.6 1231.4a34 34 0 0 0 10.7 21.8l9.7 8.9a5.7 5.7 0 0 0 8.3-.7l12-15.2c3.2-4.1 4.7-9.3 4.2-14.4-1.1-11.5-3.2-33.8-4.9-55.2a656.4 656.4 0 0 1-2.5-44.5c-.3-32.8 6.2-137.4 6.2-137.4l-7.9.4s-19.5 40.6-29.7 95.8a357.2 357.2 0 0 0-5.4 43.1c0-.1-4.1 59.6-.7 97.4z" style="fill:#c65447"/><path class="st32" d="M1638.6 1231.4a34 34 0 0 0 10.7 21.8l9.7 8.9a5.7 5.7 0 0 0 8.3-.7l12-15.2c3.2-4.1 4.7-9.3 4.2-14.4-1.1-11.5-3.2-33.8-4.9-55.2-21.7-24.4-30.5-58.1-33.9-85.7a357.2 357.2 0 0 0-5.4 43.1c0-.1-4.1 59.6-.7 97.4z"/><path class="st25" d="M1561.2 1232.3a15 15 0 0 1 17-15c2.5.4 4.8 1.4 6.3 3.5 6.2 8.2 12.1 32.2 1.1 33.4-4.5.5-10.2-2.7-14.6-6-4.5-3.4-9.8-8.8-9.8-14.4v-1.5z"/><path class="st27" d="M1804.8 1324.4c-19.9-20.7-54.3-61.5-53.1-95 1.6-46.9 55.4-116.7 55.4-116.7-5 30.9-10.7 62.3-15.2 75.5-8.3 24.8 7.3 108 12.9 136.2z"/><path class="st25" d="M1804.1 1242.8s-14.3 7.2-23 3.6-18.9-6.3-28.6 4.8c-9.7 11.1-11.8 18.7-9.7 22.8 2 4.1 24.7 2.6 28.5 0 3.8-2.6 9.7-8.9 13.5-7.8 10.4 3 19.2-4.9 24.1-11.2 2.9-3.8-5.1-5.7-4.8-12.2z"/><path class="st30" d="M1750.6 972.4s57 6.3 70.5 31.2c13.5 24.8 83.4 125.5 81.1 167.4-2.3 41.8-95.4 88.8-95.4 88.8s-20.6-8.7-20.9-18.1c-.3-9.4 64.4-65.4 60.5-75.9-3.9-10.5-75.2-93.2-82-120.5-7-27.4-13.8-72.9-13.8-72.9z"/><path class="st27" d="m1584.1 1104-.4.4c-21.3 13.4-40.9 24.8-40.9 29.9-2.8-9.1 24.8-47 33.7-54.8 9.1-7.8 7.6 24.5 7.6 24.5zM1732.9 959.8s-43.3 181.4-36.4 249.7c0 0 15.9-73 54.2-132.8 0 0-14-12.3-13.2-16.8 0 0 10.4-3.1 20.4-1 0 0-1.1-78.2-7.4-86.4a44.2 44.2 0 0 0-17.6-12.7zM1665 965.9c.9-.5-42.9 177.2-46.6 233.9 0 0 4.3-101.1 3.9-130.2 0 0 18-9.5 18-12.9 0-3.3-19.2-12.4-19.2-12.4s12.2-62.2 18.8-69.1c6.6-6.8 25.1-9.3 25.1-9.3z"/></g></svg>