<svg width="348" height="430" viewBox="0 0 348 430" fill="none" xmlns="http://www.w3.org/2000/svg">
<path d="M340.31 164.333H248.886V427.741H340.31V164.333Z" fill="#FFB800"/>
<path d="M248.886 164.333H7.32422V427.741H248.886V164.333Z" fill="#FFC634"/>
<path d="M248.869 311.637V293.201L7.30765 293.201V311.637L248.869 311.637Z" fill="#C24F4B"/>
<path d="M340.287 311.643V293.208H248.862V311.643H340.287Z" fill="#983734"/>
<path d="M183.521 160.304C183.521 160.304 257.552 126.668 309.184 139.487L298.87 146.386L304.058 158.594C304.058 158.594 246.627 143.639 181.995 162.318L183.521 160.304Z" fill="#C24F4B"/>
<path d="M170.827 159.022C170.827 159.022 161.184 157.862 146.841 155.909C108.758 150.659 37.4124 139.671 24.5958 129.537C4.45551 113.604 52.1819 45.9057 72.8105 36.5048C93.439 27.0428 170.827 159.022 170.827 159.022Z" fill="#C24F4B"/>
<path d="M321.818 74.6579C325.235 91.4452 169.423 163.905 169.423 163.905C169.423 163.905 172.23 156.214 176.869 144.249C193.713 100.358 234.299 -1.40405 247.665 -2.20519e-05C249.008 0.122068 250.594 0.610427 252.303 1.40401C272.81 10.4387 318.644 59.2135 321.818 74.6579Z" fill="#C24F4B"/>
<path d="M251.022 16.299C241.501 32.8421 177.906 142.479 176.93 144.188C193.713 100.358 234.299 -1.40405 247.665 -2.20286e-05C247.665 -2.20286e-05 250.289 -0.0610671 252.303 1.40401C254.744 3.17431 256.27 7.20327 251.022 16.299Z" fill="#983734"/>
<path d="M146.902 155.847C108.758 150.598 37.4121 139.61 24.5956 129.476C18.7976 113.177 33.8113 111.834 44.7359 110.735C55.6604 109.575 146.902 155.847 146.902 155.847Z" fill="#983734"/>
<path d="M141.775 164.211C141.775 164.211 150.503 144.31 167.714 143.211C185.657 142.051 195.849 164.211 195.849 164.211H141.775Z" fill="#983734"/>
<path d="M252.73 164.333H0V200.532H252.73V164.333Z" fill="#FFB803"/>
<path d="M348 164.333H252.73V200.532H348V164.333Z" fill="#FFB800"/>
<path d="M150.625 161.281C150.625 161.281 101.129 145.592 67.7451 155.97C29.1734 167.934 31.4925 215.488 31.4925 215.488L40.5252 211.765L52.7314 217.503C52.7314 217.503 54.8065 167.202 86.1765 160.121C113.335 154.016 150.625 161.281 150.625 161.281Z" fill="#C24F4B"/>
<path d="M125.175 164.333H106.743V430H125.175V164.333Z" fill="#C24F4B"/>
</svg>
