<svg version="1.1" id="_x2014_лой_x5F_2" xmlns="http://www.w3.org/2000/svg" xmlns:xlink="http://www.w3.org/1999/xlink" x="0" y="0" viewBox="0 0 3129.8 1870.1" style="enable-background:new 0 0 3129.8 1870.1" xml:space="preserve"><style>.st0{fill:#e8f2fa}.st1{fill:#aed3ff}.st2{fill:#d2e4ff}.st3{fill:#f3f9ff}.st4{fill:#ee9849}.st5{fill:#a6c7f9}.st6{fill:#c65447}.st8{fill:#3085f7}.st9{fill:#fff}.st10{fill:#ffb27d}.st11{fill:#163560}.st12{fill:#e37970}.st14{fill:#80bdcc}.st15{fill:#e7f1fd}.st16{fill:#5f9aa8}.st17{fill:#c45446}.st20{fill:#233862}.st21{fill:#2b478b}.st22{fill:#e9f3fe}.st23{fill:#22407a}.st24{fill:#d9e9f9}.st25{fill:#ba4c43}.st26{fill:#82b378}.st27{fill:#a8d29f}.st28{fill:#f1a34f}.st31{fill:#06944b}.st32{fill:#1c468a}.st34{fill:#ffad73}.st36{fill:#1b4f9a}.st37{fill:#2b4e95}.st38{fill:#1c3965}.st39{fill:#113e74}.st41{fill:#063663}.st42{fill:#00984b}.st43{fill:#007451}.st44{fill:#004c92}.st48{fill:#21488f}.st50{fill:#ffde00}.st56{fill:#d4e6fa}.st57{fill:#0b3154}.st58{fill:#a8c3ff}.st60{fill:#ffdcc3}.st62{fill:#eebf9d}.st63{fill:#00964c}.st66{fill:#c3c3c3}.st67{fill:#062137}.st72{fill:#ffab73}.st73{fill:#002344}.st74{fill:#004e91}.st77{fill:#004f86}.st82{opacity:.5;fill:#3085f7}.st83{fill:#ffdc00}</style><path class="st0" d="M2742.1 720.9c-125.4-107-276.7-752.3-794.7-416.2-267.6 173.6-718.9-149.1-1092.5-37.6-343 102.4-376.1 439.6-342.9 549.5 67 222-141.6 255-335.2 350.4-303.6 149.6-80.4 675.4 206.5 677.9 286.8 2.5 2024.5-5 2024.5-5s416.7 1.1 590-228.9c186.5-247.5 68.3-613.7-255.7-890.1z"/><path transform="rotate(-180 -916 -169.4)" class="st1" d="M-1273-769.3h714.1V430.5H-1273z"/><path class="st2" d="M-1295.4-769.3h714.1V430.5h-714.1z"/><path transform="rotate(-180 -937.5 -493.3)" class="st3" d="M-1246.7-702.3h618.5v417.9h-618.5z"/><path class="st3" d="M-970.8 107.8h332v223.1h-332z"/><path class="st4" d="M-648.2-489s-105.6-13.2-170.1 46.3-184.8 5.3-233.2 0c-84.2-9.2-150.1 18.4-169.7 48.6v90.8h573V-489z"/><path transform="rotate(-180 -732.3 -564.2)" class="st5" d="M-734.5-635.1h4.4v141.8h-4.4z"/><path transform="rotate(-180 -906 -503.4)" class="st5" d="M-908.2-574.2h4.4v141.8h-4.4z"/><path transform="rotate(-180 -1085.2 -535.4)" class="st5" d="M-1087.4-606.3h4.4v141.8h-4.4z"/><path class="st5" d="M-783.9-613.3h33.9c2 0 3.7-1.7 3.7-3.7s-1.7-3.7-3.7-3.7h-33.9c-2 0-3.7 1.7-3.7 3.7s1.7 3.7 3.7 3.7zM-783.9-600.1h33.9c2 0 3.7-1.7 3.7-3.7s-1.7-3.7-3.7-3.7h-33.9a3.7 3.7 0 1 0 0 7.4zM-955-541.1h33.9c2 0 3.7-1.7 3.7-3.7s-1.7-3.7-3.7-3.7H-955a3.7 3.7 0 1 0 0 7.4zM-955-528.1h33.9c2 0 3.7-1.7 3.7-3.7s-1.7-3.7-3.7-3.7H-955a3.7 3.7 0 1 0 0 7.4zM-1137.2-594.5h33.9c2 0 3.7-1.7 3.7-3.7s-1.7-3.7-3.7-3.7h-33.9c-2 0-3.7 1.7-3.7 3.7.1 2 1.7 3.7 3.7 3.7zM-1137.2-581.5h33.9c2 0 3.7-1.7 3.7-3.7s-1.7-3.7-3.7-3.7h-33.9c-2 0-3.7 1.7-3.7 3.7.1 2 1.7 3.7 3.7 3.7z"/><path class="st3" d="M-750.3-177.4a61 61 0 1 1 122.2 0 61 61 0 0 1-122.2 0z"/><path class="st6" d="M-633.4-177.4a55.9 55.9 0 0 1-93.7 41.2l37.8-41.2v-55.9c30.9 0 55.9 25 55.9 55.9z"/><path class="st5" d="M-710.6-187.3h-20.1c-.9 0-1.7-.8-1.7-1.7 0-.9.8-1.7 1.7-1.7h20.1c.9 0 1.7.8 1.7 1.7 0 .9-.7 1.7-1.7 1.7z"/><circle class="st3" cx="-840.9" cy="-177.4" r="61.1"/><path d="m-840.9-177.4 34.3 44.1a55.9 55.9 0 1 1 21.4-49.2l-55.7 5.1z" style="fill:#e57970"/><path class="st5" d="M-797.9-163.6h-14c-.9 0-1.7-.8-1.7-1.7 0-.9.8-1.7 1.7-1.7h14c.9 0 1.7.8 1.7 1.7 0 .9-.7 1.7-1.7 1.7z"/><path class="st3" d="M-750.3-9.2a61 61 0 1 1 122.2 0 61 61 0 0 1-122.2 0z"/><path class="st4" d="M-633.4-9.2A55.9 55.9 0 0 1-727.1 32l37.8-41.2v-55.9c30.9 0 55.9 25 55.9 55.9z"/><path class="st5" d="M-710.6-19.1h-20.1c-.9 0-1.7-.8-1.7-1.7 0-.9.8-1.7 1.7-1.7h20.1c.9 0 1.7.8 1.7 1.7 0 1-.7 1.7-1.7 1.7z"/><path class="st3" d="M-902-9.2a61 61 0 1 1 122.2 0 61 61 0 0 1-122.2 0z"/><path class="st6" d="M-785.2-14.3a55.9 55.9 0 1 0-21.4 49.2l-34.3-44.1 55.7-5.1z"/><path class="st5" d="M-797.9 4.6h-14c-.9 0-1.7-.8-1.7-1.7 0-.9.8-1.7 1.7-1.7h14c.9 0 1.7.8 1.7 1.7 0 .9-.7 1.7-1.7 1.7zM-653.2 315.4h-304.7V135.3h3.8v176.3h300.9z"/><path class="st5" d="M-862.6 250.3c-37.3-29.7-77 0-77 0V301h278.9V169.8c-75.8 1.9-164.6 110.2-201.9 80.5zM-936.4 149.1h129.9c1.8 0 3.2-1.4 3.2-3.2 0-1.8-1.4-3.2-3.2-3.2h-129.9a3.2 3.2 0 0 0-3.2 3.2c0 1.7 1.4 3.2 3.2 3.2zM-936.4 164.7h129.9c1.8 0 3.2-1.4 3.2-3.2 0-1.8-1.4-3.2-3.2-3.2h-129.9a3.2 3.2 0 0 0-3.2 3.2c0 1.7 1.4 3.2 3.2 3.2zM-937 179.4h86c1.4 0 2.6-1.2 2.6-2.6v-1.2c0-1.4-1.2-2.6-2.6-2.6h-86a2.6 2.6 0 0 0-2.6 2.6v1.2c0 1.4 1.2 2.6 2.6 2.6z"/><path transform="rotate(-180 675.9 923.8)" class="st1" d="M318.8 323.9h714.1v1199.8H318.8z"/><path class="st2" d="M296.4 323.9h714.1v1199.8H296.4z"/><path class="st8" d="M1095.9 137.4H2073V1611h-977.1z"/><path class="st9" d="M1190.3 219.8H1977v1052.8h-786.7zM350.1 380.5h622.2v820.6H350.1z"/><path transform="rotate(-180 2521 923.8)" class="st1" d="M2164 323.9h714.1v1199.8H2164z"/><path class="st2" d="M2141.6 323.9h714.1v1199.8h-714.1z"/><path class="st9" d="M2195.3 380.5h622.2v820.6h-622.2z"/><path class="st10" d="m-962.9 1715.8 16.7 70.4 25-.2 1-70.2zM-752.3 1718.8l47.5 67.4 18.5-23.8-28.6-52.9z"/><path class="st11" d="M-876 790.9c-8.6-4.9-19-5.4-26.2-5 1.9-1.9 5.5-2.6 5.5-2.6a39.8 39.8 0 0 0-14.5 3.8c-62.5-24.1-72.3 67.9-71 89.3 1.3 21.4-21 28.4-53.5 45.2-62 32.1-67.5 75.2-67.5 75.2l1.5 1c3.1-5.2 9.4-15 14.8-16.5-.2.5-6.3 13.5-8.6 20.9 18.3 13.9 52.5 44.8 76.4 66.6a36 36 0 0 1 1.6-13.5l2.9 17.7c12.8 11.7 21.6 20 21.6 20-1.6-17.3 78.1-108.4 119.7-135.7 10.1-14.9 13.7-41.2 14-43.3a112.5 112.5 0 0 1-8.5 39.2c35.2-32.5 14.7-149.3-8.2-162.3z"/><path class="st10" d="M-875.7 958.6c.2.1-20.1 10.6-35.3 6.5-14.4-3.9-23.7-22.5-23.5-22.6 6.1-1.2 7.8-9.6 7.7-45.4l2.7.5 46.2 9.1s-1.1 14.5-1.1 28.2c0 11.5.7 22.4 3.3 23.7z"/><path class="st12" d="M-928 805.9s22.8-24.3 51.4-1.2c0 0-16.6-2.9-51.4 1.2z"/><path d="M-877.9 906.7s-1.1 14.5-1.1 28.2c-25.9-.7-39.5-24.3-45.1-37.4l46.2 9.2z" style="fill:#d68d5d"/><path class="st11" d="M-928.9 892.5s-13.5-21.4-16.8-39.7c-2.3-13.1 4.3-61.5 53-54.5a66 66 0 0 0 27.4 10.4c10.6 7.1 25.8 22.5 8.8 64.8l-4.4 14.3-68 4.7z"/><path class="st14" d="m-693.8 1743.9-24.5.7-26.5.8s-61.2-68.2-95.6-177.4l-2.5-7.7c-18.8-54.8-57.8-123.6-78.3-185.9a851 851 0 0 1-8.8-28.1l-2.4-8.3a669 669 0 0 1-23.6-124l148.3 1.2c-.1.1 23.9 251.9 113.9 528.7z"/><path class="st15" d="M-828.5 1130.1c-.4 70.6 10.3 100.8 10.3 100.8s-63.5 32.3-138.9 8.5l-62.5-14.3c1.3-2.9 12.5-50.4 13.7-53 15.9-34.2 28-49.2 29.9-59.7 3.5-19.6 3.6-39.9 1.8-59.1a473.7 473.7 0 0 0-18.3-92.8c20.6-4.7 40.3-12.7 61.7-20.7 4.9 6.1 19.4 12.3 32.5 12 15-.3 19.7-6.7 19.2-13.8 16 8.9 28.7 17.4 28.7 17.4 13.6 23.6 41.2 46.6 43.2 82.9.7 8.7-21.3 89.8-21.3 91.8z"/><path class="st16" d="M-956 1137.9c-6.5 9.2-18.9 64.9-49.8 71.9 15.9-39.7 28-57.2 29.9-69.4 3.5-22.8 3.6-46.4 1.8-68.7 10.3-18.1 18.1-30.6 18.1-30.6.8-2.9 16.4-51.3 21.5-8.1 4.9 43.4-14.3 94.7-21.5 104.9z"/><path class="st10" d="M-869.3 919.7s-61.2 1-61.2-37.1-8-63.6 31.1-65.9c39-2.3 46.7 12.3 49.8 25 3 12.7-3.8 76.7-19.7 78z"/><path class="st11" d="M-851.5 820.5c-9.4-11.4-16.6-9-20.6-5.5-13.2-19.8-55 8.8-55 8.8a73 73 0 0 1-23.8 43s11.1 6.9 36.8.3c20.2-5.2 34.9-34 40.2-46a48.7 48.7 0 0 1 13.6 18c3 9.7 4.4 29.7 10.2 29 .2 0 12.8-30.4-1.4-47.6z"/><path class="st10" d="M-947 1782.3s2 13.9-3.2 28.9c0 0-4.1 18.7 14.3 19 18.4.3 22.9-1.4 20.8-12.8l-6-31.2-25.9-3.9z"/><path class="st17" d="M-913.4 1839.3h-38.2c-2.1-9.8 1.3-28.2 1.3-28.2 20.8 19.9 33.8-.5 33.8-.5 3.5 8.5 3.1 28.7 3.1 28.7z"/><path class="st10" d="M-642 1820s-33.9-38.5-44.3-57.6l-25.2 12.9 56.3 52.9 13.2-1.7v-6.5z"/><path class="st17" d="M-621.2 1839.2h-47a75.6 75.6 0 0 1-12.9-21.1c-2.8-5.6-9-8.8-15.3-10.5v31.6h-9.7l-9-33.6c-6-11.2-1.5-21.6 2.7-30.5 4.9 0 19.2 3.5 44.2 32.3a32.2 32.2 0 0 0 26.3 12.5l.4.2c14.2 6.7 18.8 14.7 20.3 19.1z"/><path class="st12" d="M-623.4 982.9s-40.1 22.4-54.5 28.9l-23.8 11-16.5 7.7c-8.4 4-18.5 1.8-24.5-5.3-21.7-25.4-78-80.4-136.1-87.3l-.2-.1v.1h-.1l.3.6c3.3 8.1 35.1 87.7 36.1 104.5 1 17.7 4.2 289.3 4.2 289.3s-2.1 12.5 21.9 7.3c23.9-5.2 30.2-10.4 30.2-10.4s-22.9-167.5-16.7-225.8a133 133 0 0 0-2.4-37.6c35.4 21.4 77.1 31 77.1 31s15.6-6.8 39.7-21.8a247.7 247.7 0 0 0 33.5-27c14-12.8 38.1-43.8 38.1-43.8l-6.3-21.3z"/><path class="st16" d="m-718.3 1744.7-26.5.8s-61.2-68.2-95.6-177.4l-2.5-7.7c-18.8-54.8-57.8-123.6-78.3-185.9a851 851 0 0 1-8.8-28.1l-2.4-8.3 21.8-16.6s65.6 106.2 85.8 206c17.6 86.8 88.2 191.2 106.5 217.2z"/><path class="st14" d="M-908.4 1536.8c.4 48.6-2.1 160.3-8.4 206.5h-23.5c-13 0-19.5-.2-19.5-.2a3902.9 3902.9 0 0 1-35.4-204.2c-6.7-47-12.7-87.4-17.3-122.1-4.6-34.9-7.9-64.2-9-88.9l-.4-11.4-.1-10.8 128.1-12.5c-1.5 85.2-14.7 215.4-14.5 243.6z"/><path class="st16" d="M-940.3 1743.3c-13 0-19.5-.2-19.5-.2a3902.9 3902.9 0 0 1-35.4-204.2c-6.7-47-12.7-87.4-17.3-122.1-4.6-34.9-7.9-64.2-9-88.9l47 27.7s-30 10.6-18.6 90.7c11.5 80.1 36.9 285.7 52.8 297z"/><path class="st12" d="M-934.2 1327.1s-9 32.6-40.2 28.4c-31.2-4.2-75.6-22.9-75.6-22.9s13.3-42.2 29.9-97.5c20.1-67.1 44.9-153.5 56.7-208 3.3-15.3 5.5-28 6.4-37.2l26.4-50.3s38.1 86.7 40.2 108.6c2 21.9-43.8 278.9-43.8 278.9z"/><path class="st10" d="M-822.7 1072.6c-15 2-20.8 10-22.6 20.7-1 5.8-4 11.6-6.5 15.6-15 .8-50.6 2.7-80.6 4.6l-2.5 39.3c24.6-3.1 54.8-9.3 89.6-21.2a24 24 0 0 0 10.2-5.5c21.6-17.7 33.8-47.2 33.8-51.5.1-4.2-6.4-4-21.4-2z"/><path class="st17" d="M-935.6 1094c-1.4 35.4-9.7 104.1-84 140.8l-.6.3c20.1-67.1 44.9-153.5 56.7-208 13.7 20.4 28.7 47.4 27.9 66.9z"/><path class="st12" d="M-930.7 939.7s-63.5 4.5-78.8 38.5c-15.3 34-20.1 147.1-.7 180.4 0 0 26.7 7.6 74-1.2a57 57 0 0 0 1.7-.3s15.1-36.9 1.6-44.2c0 0-39.9 2.1-35.7-11.1s37.9-162.1 37.9-162.1z"/><path class="st10" d="M-580.4 956.2c-34.2-4.4-42.8 26.7-42.8 26.7l6.4 21.3c10.5 1.5 19.7-1.3 28.2-13.4s10.8-7.5 16.2-16.5c7.4-12.3-4.1-16.9-8-18.1zM-677.9 1011.8l-23.8 11c5.1 9 11.4 25.3 13.1 52.2a220 220 0 0 0 34.5-27.8c18-17.7 37.1-43 37.1-43l-6.4-21.3s-40.2 22.4-54.5 28.9z"/><path d="M2993.9 1845.3H199.2c-1.5 0-2.7-1.3-2.7-3 0-1.6 1.2-3 2.7-3h2794.7c1.5 0 2.7 1.3 2.7 3 0 1.6-1.2 3-2.7 3z" style="fill:#202f4e"/><path class="st9" d="M2381.5 1329.6h305.9v6.7h-305.9zM2381.5 1367.3h305.9v6.7h-305.9z"/><g><path class="st10" d="M3694.3 896.9v7.2s-2 22.4 25.6 25.7c27.6 3.3 50.2 2.8 49.5-14.4-2.5-13.4-6.9-34.2-7.1-45.3-.1-4.1.2-8.5 1-13.4l-53.5-1.1-15.8 2.6.3 38.7z"/><path d="m3694.1 858.1.2 38.8a46 46 0 0 0 19.3 4.3c24.6 0 40.5-18 48.8-31.1-.1-4.1.2-8.5 1-13.4l-53.5-1.1-15.8 2.5z" style="fill:#e2915a"/><path class="st10" d="M3767.4 848c-6.2 33.4-49.3 32.3-67.9 30.2-5.2-.6-8.5-1.3-8.5-1.3-5.9-1.6-9.2-10.9-10.7-23.1-3-24.1.8-59.5 4.9-68.6 6.1-13.6 17.7-28.4 61.1-17.7 43.3 10.7 29.1 37.7 21.1 80.5z"/><path class="st20" d="M3802.7 1836.7h-61.1c.5-3.2 2-12.9 4.9-21.9 1-3.1 2.1-6.2 3.5-8.8 5.9-11.9 43.7-4.3 43.7-4.3s3.5 3 6.2 14.5c1.2 5 2.2 11.7 2.8 20.5zM3618.2 1817.5c-.2 8.3-1.2 16.2-4.2 19.3h-120.8c1.5-4.4 5.9-10.9 18.3-13 14.1-2.3 36.1-9.1 48.9-22.6 4.6-4.8 8-10.5 9.5-17.1 5.7-25.3 47 7.8 47 7.8s1.5 13.2 1.3 25.6z"/><path class="st21" d="M3698.5 1544c-1.7 9.3-2.7 16.9-3 22.3-3.8 74.9-63 246.1-73.6 250.1-16.4 6.2-42.2-7-55.7-11.3-5.6-1.8-9.4-7.4-8.1-13.2 29.3-134.8 40.1-328.9 44-443.8 2-57.9 11.9-97.9 11.9-97.9s144.4-38.5 145.2 10.2c.8 43.3-47.8 212.5-60.7 283.6z"/><path class="st20" d="m3698.5 1544-96.5-195.7c2-57.9 11.9-97.9 11.9-97.9s144.4-38.5 145.2 10.2c.9 43.1-47.7 212.3-60.6 283.4z"/><path class="st21" d="m3666.4 1260.8 76.3 553.2s33.5 8.1 59.6 1.6c0 0 22.3-294.2 20.5-365.4s16-190.3-4.1-203.5c-20.1-13.1-152.3 14.1-152.3 14.1z"/><path class="st20" d="M3671.8 753.5s19.1-1.5 41.6-11.3c18.3-8 41.4.8 48.8 4.8-.2-1.2-.7-2.9-1.8-4.5 0 0 3.4 2.4 3.9 5.7.3.3.5.4.4.5 0 0 3.8-.7 6.3.4 0 0-1.7-.2-2.3.9l-.3.3c28.5 13.8 31.2 58.9 22 69.3-11 12.5-24.3 40.8-24.3 40.8s-4.8-6.7-2.8-17.7-7.5-11-19.6-16.1c-12-5-2-19.1-12.5-27.6s-49.2-3.5-48.7-10c-14.4-5.3-10.7-34-10.7-35.5z"/><path class="st22" d="m3776 924.9-17.6 377.1s-146.7 2.4-142.5-30.8c4.2-33.2 52.9-334.7 52.9-334.7l107.2-11.6z"/><path class="st23" d="M3828.4 1138.6c-8.7 26.2 7.7 114 13.6 143.8l2.1 10c-20.3 33-94.7 32.6-94.7 32.6-14.3-63.2-21.7-164-21.7-164l57.1-250.2 71.8 66.4s-5.4 40.5-12.2 81.7c-5.3 32.7-11.3 65.9-16 79.7z"/><path class="st9" d="M3706.3 853.5s-1.4 4.3-12.3 2.7c0 0-9.1-1.3-8.5-6.1.1 0 9.3-2.7 20.8 3.4z"/><path class="st23" d="M3623.9 930.3v.2c-3.5 3.4-101.4 98.4-120.4 135.7-19.3 37.8 88.3 113 88.3 113s6.9 2.7 11.7 1.7c-5.1 41.8-10.8 80.3-7.4 96.7 6.1 29.7 33.6 39.7 33.6 37.4 0-.7 10.1-108 15.5-164 11.7-120.1 46-239.3 46-239.3-32 3.3-67.3 18.6-67.3 18.6zm-58.3 152.1-.1-.6c0-5.4 20.7-17.5 43.2-31.6l.4-.4c-.4 11.6-.4 22.9.3 33.5a422 422 0 0 1-2.5 66.9c-10.7-16.8-39.3-61.6-41.3-67.8z"/><path class="st24" d="M3780.2 910.4c.2-3.6-16.9-8.6-16.9-8.6s-19.5 27.1-51.7 27.5c0 0 9.2 17.8 20 22.4 0 .1 47.5-19.9 48.6-41.3zM3711.6 928.7s-17-10.1-17.1-21c0 0-11-1.4-15.8 4 0 0-4 18.8 1.3 29.6.1 0 24.6-3.7 31.6-12.6z"/><path class="st25" d="m3723.2 927.1-23.1-5.5s-3 .3-2.9 4c.1 3.8 6.5 14.8 9.3 15.6 2.9.9 22.2-6.5 16.7-14.1z"/><path class="st22" d="M3777.5 908.6c.2-3.6-11.4-11-11.4-11s-22.3 26.1-54.5 26.6c0 0 9.2 17.8 20 22.4 0 0 44.8-16.7 45.9-38zM3711.6 924.1s-17.2-9.1-17.3-20.1c0 0-10.4 4.6-15.2 9.9 0 0-4.4 11.8.9 22.7.1.1 24.6-3.6 31.6-12.5z"/><path class="st6" d="M3666.5 1184.2c.8 8.8 4.8 17 11.3 23l10.2 9.4a6 6 0 0 0 8.8-.7l12.7-16.1c3.4-4.3 5-9.8 4.5-15.2a3345 3345 0 0 1-5.2-58.3 839.2 839.2 0 0 1-2.7-47c-.3-34.6 6.6-145 6.6-145l-8.3.4s-20.6 42.8-31.4 101.1a375.2 375.2 0 0 0-5.7 45.4c0 .2-4.3 63.2-.8 103z"/><path class="st25" d="M3666.5 1184.2c.8 8.8 4.8 17 11.3 23l10.2 9.4a6 6 0 0 0 8.8-.7l12.7-16.1c3.4-4.3 5-9.8 4.5-15.2a3345 3345 0 0 1-5.2-58.3c-22.9-25.8-32.2-61.4-35.8-90.4a375.2 375.2 0 0 0-5.7 45.4c0 .1-4.3 63.1-.8 102.9z"/><path class="st10" d="M3584.9 1185.3a16 16 0 0 1 18-15.9c2.6.4 5 1.5 6.7 3.7 6.5 8.7 12.8 34 1.2 35.2-4.7.5-10.8-2.8-15.4-6.4-4.7-3.6-10.4-9.2-10.4-15.2v-1.4z"/><path class="st20" d="M3842 1282.4c-21-21.9-57.4-65-56.1-100.3 1.7-49.5 58.5-123.2 58.5-123.2-5.3 32.6-11.3 65.8-16 79.7-8.8 26.2 7.7 114.1 13.6 143.8z"/><path class="st10" d="M3841.3 1196.3s-15.1 7.6-24.3 3.8c-9.2-3.8-20-6.6-30.2 5.1-10.3 11.7-12.4 19.8-10.3 24.1 2.2 4.3 26.1 2.7 30 0 4-2.7 10.2-9.3 14.2-8.2 11 3.2 20.2-5.2 25.4-11.9 3.2-4-5.2-6-4.8-12.9z"/><path class="st23" d="M3784.7 910.9s60.2 6.7 74.4 32.9c14.2 26.2 88 132.5 85.6 176.7-2.4 44.2-100.7 93.7-100.7 93.7s-21.8-9.2-22.1-19.1c-.3-9.9 68-69.1 63.8-80.1-4.1-11-79.3-98.4-86.6-127.2-7.2-28.8-14.4-76.9-14.4-76.9z"/><path class="st20" d="m3609 1049.8-.4.4c-22.5 14.2-43.2 26.2-43.2 31.6-3-9.6 26.2-49.6 35.6-57.8 9.6-8.2 8 25.8 8 25.8zM3766.1 897.6s-45.7 191.5-38.4 263.6c0 0 16.8-77.1 57.3-140.2 0 0-14.8-13-14-17.8 0 0 11-3.2 21.6-1.1 0 0-1.2-82.5-7.8-91.3a49.5 49.5 0 0 0-18.7-13.2zM3694.4 904.1c.9-.5-45.3 187.1-49.2 246.9 0 0 4.6-106.7 4.1-137.5 0 0 19-10.1 19-13.6s-20.3-13.1-20.3-13.1 12.8-65.7 19.8-73c7.1-7.1 26.6-9.7 26.6-9.7z"/></g><g><path class="st26" d="M523.8 1672.9s26.6-31 1.6-50.7c0 0-18.2-11-33.1-10.1 0 0 21 35.3 14.2 38.8-6.8 3.5-20.6-41-20.6-41s-41.4-4-54.8 2.4c0 0 35.4 29 28 30.7-7.5 1.7-45.7-26.7-45.7-26.7s-38.6 6.6-36.5 30.1c2.1 23.5 15.3 30.8 21.2 30.2 5.8-.6 40-13.7 40.8-8.9.7 4.8-19.8 20.4-34.2 21.2 0 0 27.2 30 45.3 21.3 18.1-8.7 19.6-22.4 30.9-27.5 11.3-5.1 20.9-5.1 16.2.1-4.7 5.2-25 10.3-31.5 21.7-6.4 11.4-12.2 19.1 6.5 16.3 18.7-2.8 49.1-16.5 50.4-32.2l1.3-15.7z"/><path class="st26" d="M395.9 1647s104.8-4 127.9 25.9c0 0 5.1 15.3 20.9 29.3l2.5 6.7s-18.2-19.1-24.6-20.3c-.1 0 10.1-37.1-126.7-41.6z"/><path class="st26" d="M544.7 1702.2s22.5 16.6 24 46.3l-4.1.4s-7.2-30.7-20.2-42.7c-12.9-12.1.3-4 .3-4z"/><path class="st27" d="M616.7 1633.9s-42.3-23.7-22.5-55.8c0 0 15.8-19.7 32.7-24.8 0 0-9 47.9 0 49 9 1.1 6.2-54.1 6.2-54.1s44.5-21.4 62-19.7c0 0-27.6 46.8-18.6 45.6 9-1.1 40-48.5 40-48.5s45.6-8.5 53 18.6c7.3 27.1-4.5 40.6-11.3 42.3s-50.2 1.1-49 6.8c1.1 5.6 30.4 14.7 46.8 9.6 0 0-18 44.5-41.7 42.3-23.7-2.3-31-16.9-45.6-18-14.7-1.1-25.4 2.8-18 6.8 7.3 3.9 32.1 1.3 44 11.4 11.8 10.1 21.4 16.3-.6 20.8s-61.4 1.7-69.3-15.2l-8.1-17.1z"/><path class="st26" d="M748.6 1552.8s-118.3 38.3-131.9 81.2c0 0 .6 19.2-11.3 41.1v8.5s12.4-28.7 19.2-32.7c0-.1-26.5-37.3 124-98.1z"/><path class="st26" d="M605.5 1675.1s-18.3 27.7-7.8 61.5l4.7-1.3s-4.6-37.2 5-55.8c9.4-18.8-1.9-4.4-1.9-4.4z"/><path class="st27" d="M549.5 1601.3s55.7-31.2 29.7-73.5c0 0-20.8-26-43.1-32.7 0 0 11.9 63.1 0 64.6-11.9 1.5-8.2-71.3-8.2-71.3s-58.7-28.2-81.7-26c0 0 36.4 61.7 24.5 60.2-11.9-1.5-52.7-63.9-52.7-63.9s-60.2-11.1-69.8 24.5c-9.7 35.7 5.9 53.5 14.9 55.7 8.9 2.2 66.1 1.5 64.6 8.9s-40.1 19.3-61.7 12.6c0 0 23.8 58.7 55 55.7s40.9-22.3 60.2-23.8c19.3-1.5 33.4 3.7 23.8 8.9-9.7 5.2-42.3 1.7-57.9 15-15.6 13.3-28.2 21.4.7 27.4 29 5.9 81 2.2 91.4-20.1l10.3-22.2z"/><path class="st26" d="M375.7 1494.3s156 50.5 173.8 107c0 0-.7 25.3 14.9 54.2v11.1s-16.3-37.9-25.3-43.1c0 .1 34.9-49-163.4-129.2z"/><path class="st26" d="M564.3 1655.5s24.1 36.5 10.3 81l-6.2-1.7s6-49-6.6-73.6c-12.5-24.6 2.5-5.7 2.5-5.7z"/><path class="st28" d="M551.4 1833a109.1 109.1 0 0 1-109.1-109.1h218.3c-.1 60.2-49 109.1-109.2 109.1z"/><path d="M579.8 1832.1a109.1 109.1 0 0 1-122.7-108.3h27.1c0 55.7 41.7 101.6 95.6 108.3z" style="fill:#ffb973"/><path class="st28" d="M440.7 1838.5H662c0-7.4-6-13.5-13.5-13.5H454.2c-7.5 0-13.5 6.1-13.5 13.5z"/><path transform="rotate(-180 552 1725.5)" style="fill:#d86713" d="M439.7 1723.8H664v3.3H439.7z"/><g><path class="st9" d="M312 2052.1h1068.2a28.2 28.2 0 0 1 28.2 28.2v612.9a28.2 28.2 0 0 1-28.2 28.2H312a28.2 28.2 0 0 1-28.2-28.2v-612.9a28.2 28.2 0 0 1 28.2-28.2z"/><path transform="rotate(-180 655 2497.2)" class="st22" d="M365 2301.4h579.8v391.7H365z"/><path class="st20" d="M920.9 2501.3s-99-12.3-159.5 43.4-173.2 4.9-218.6 0c-78.9-8.6-140.7 17.2-159.1 45.6v85.1h537.1v-174.1z"/><path transform="rotate(-180 842.1 2430.8)" class="st20" d="M840 2364.3h4.1v132.9H840z"/><path transform="rotate(-180 679.3 2487.8)" class="st20" d="M677.2 2421.4h4.1v132.9h-4.1z"/><path transform="rotate(-180 511.3 2457.8)" class="st20" d="M509.3 2391.3h4.1v132.9h-4.1z"/><path class="st20" d="M793.7 2384.7h31.8c1.9 0 3.5-1.6 3.5-3.5s-1.6-3.5-3.5-3.5h-31.8a3.5 3.5 0 0 0-3.5 3.5c.1 2 1.6 3.5 3.5 3.5zM793.7 2397.2h31.8c1.9 0 3.5-1.6 3.5-3.5s-1.6-3.5-3.5-3.5h-31.8a3.5 3.5 0 0 0-3.5 3.5c.1 1.9 1.6 3.5 3.5 3.5zM633.4 2452.5h31.8c1.9 0 3.5-1.6 3.5-3.5s-1.6-3.5-3.5-3.5h-31.8a3.5 3.5 0 0 0-3.5 3.5c0 1.9 1.6 3.5 3.5 3.5zM633.4 2464.7h31.8c1.9 0 3.5-1.6 3.5-3.5s-1.6-3.5-3.5-3.5h-31.8a3.5 3.5 0 0 0-3.5 3.5c0 1.9 1.6 3.5 3.5 3.5zM462.6 2402.4h31.8c1.9 0 3.5-1.6 3.5-3.5s-1.6-3.5-3.5-3.5h-31.8a3.5 3.5 0 0 0-3.5 3.5c.1 1.9 1.6 3.5 3.5 3.5zM462.6 2414.5h31.8c1.9 0 3.5-1.6 3.5-3.5s-1.6-3.5-3.5-3.5h-31.8a3.5 3.5 0 0 0-3.5 3.5c.1 2 1.6 3.5 3.5 3.5z"/><g><path class="st22" d="M998.9 2483.8h311.2V2693H998.9z"/><path class="st20" d="M1296.7 2678.4h-285.6v-168.8h3.5v165.2h282.1z"/><path class="st31" d="M1100.3 2617.3c-35-27.8-72.1 0-72.1 0v47.6h261.4v-123c-71 1.8-154.3 103.3-189.3 75.4z"/><path class="st20" d="M1031.2 2522.5H1153a3 3 0 0 0 3-3 3 3 0 0 0-3-3h-121.8a3 3 0 0 0-3 3 3 3 0 0 0 3 3zM1031.2 2537.1H1153c1.6 0 3-1.3 3-3s-1.3-3-3-3h-121.8c-1.6 0-3 1.3-3 3s1.3 3 3 3zM1030.6 2550.9h80.6c1.3 0 2.4-1.1 2.4-2.4v-1.1c0-1.3-1.1-2.5-2.4-2.5h-80.6a2.5 2.5 0 0 0-2.4 2.5v1.1c0 1.3 1.1 2.4 2.4 2.4z"/></g><path class="st31" d="M930.9 2261.3H379a13.9 13.9 0 1 1 0-27.8h551.9a14 14 0 0 1 0 27.8zM930.9 2197.5H379a13.9 13.9 0 1 1 0-27.8h551.9a13.9 13.9 0 1 1 0 27.8zM1271.9 2130.1H379.6a13 13 0 1 1 0-26h892.3a13 13 0 1 1 0 26z"/><path class="st32" d="M838.2 2721.5h15.7v252.4h-15.7z"/><path d="M1349 2067.2H343.1a11.2 11.2 0 1 1 0-22.4H1349a11.2 11.2 0 1 1 0 22.4z" style="fill:#c4c4c4"/><path class="st20" d="M1010.8 2962.4H681.3a6.7 6.7 0 0 0 0 13.4h329.5c3.7 0 6.7-3 6.7-6.7-.1-3.7-3-6.7-6.7-6.7z"/></g></g><g><path class="st34" d="m902.6 1723.1 16 67.4 23.9-.1.9-67.3zM1104.2 1726l45.5 64.5 17.7-22.8-27.4-50.6z"/><path class="st11" d="M985.8 837.7a46.5 46.5 0 0 0-25.1-4.8c1.8-1.8 5.3-2.5 5.3-2.5-4.3-.6-13.9 3.6-13.9 3.6-59.8-23-69.2 65-68 85.5 1.2 20.5-20.1 27.1-51.2 43.3-59.4 30.8-64.6 72-64.6 72l1.5.9c2.9-5 9-14.4 14.1-15.8-.2.5-6 12.9-8.2 20a1394 1394 0 0 1 73.1 63.8c-.1-4.1.1-9.9 1.6-13l2.8 17 20.6 19.1c-1.5-16.5 74.8-103.8 114.6-129.9 9.7-14.3 13.1-39.5 13.4-41.4a111 111 0 0 1-8.1 37.5c33.7-31.1 14-142.9-7.9-155.3z"/><path class="st34" d="M986 998.2c.2.1-19.2 10.2-33.8 6.2-13.7-3.7-22.7-21.6-22.5-21.6 5.8-1.2 7.5-9.2 7.4-43.5l2.6.5 44.2 8.8s-1 13.9-1 27c0 11 .6 21.4 3.1 22.6z"/><path d="M983.9 948.5s-1 13.9-1 27c-24.7-.7-37.8-23.3-43.2-35.8l44.2 8.8z" style="fill:#fa9150"/><path class="st11" d="M935.1 935s-13-20.5-16.1-38c-2.2-12.5 4.1-58.9 50.7-52.2 0 0 13.5 1.3 26.3 9.9 10.1 6.8 24.7 21.6 8.4 62l-4.2 13.7-65.1 4.6z"/><path class="st36" d="m1160.2 1750.1-23.4.7-25.4.8s-58.6-65.3-91.5-169.9l-2.4-7.4c-18-52.5-55.3-118.3-75-177.9l-8.5-26.9-2.3-8a625 625 0 0 1-22.5-118.7l141.9 1.1s22.9 241.1 109.1 506.2z"/><path class="st15" d="M1031.2 1162.4c-.4 67.5 9.9 96.5 9.9 96.5s-60.8 30.9-133 8.1l-55.7-12.8c1.2-2.7 19.8-48.1 21-50.6 15.3-32.8 14.9-48.2 16.7-58.3 3.4-18.8 3.4-38.2 1.8-56.6a454 454 0 0 0-17.5-88.9c19.7-4.5 38.1-12.3 58.6-20 4.7 5.9 19.1 12 31.6 11.7 14.4-.3 19.1-6.5 18.3-13.2a479.5 479.5 0 0 1 27.6 16.6c13 22.6 39.5 44.6 41.4 79.3.4 8.7-20.7 86.3-20.7 88.2z"/><path class="st37" d="M1103.5 1106.8c-12.4-29.6-49.1-96.5-100.1-119.7l18.5 104s-2.3 16.1 8.4 29.4a279 279 0 0 0 65.3 55.7s32.6-3.3 80.9-19.4c15.2-5 47.7-32.4 47.7-32.4l.4-21.3s-43.2 8.7-58.1 10.4l-42.2 5.3a19.8 19.8 0 0 1-20.8-12z"/><path class="st34" d="M992.2 960.9s-58.6 1-58.6-35.5-7.6-60.9 29.8-63.1c37.4-2.2 44.7 11.8 47.6 23.9 3 12.3-3.6 73.5-18.8 74.7z"/><path class="st11" d="M990 861.5s-16 42.8-40.6 49.1c-24.6 6.3-35.3-.3-35.3-.3s3.5-37.3 7.4-63.4c0 0 56.4-5.8 68.5 14.6z"/><path class="st11" d="M986 864.9s12 9.6 14.9 18.8 4.2 28.4 9.8 27.8c0 0 12.1-29.1-1.5-45.5-14.3-17.4-23.2-1.1-23.2-1.1z"/><path class="st34" d="M1224.6 1103.1s17-25.8 46.8-11.8c3.2 2.3 12.3 9.8 2 18.8-7.6 6.7-8.3 1.7-19.6 10.3-11.3 8.6-20.5 8.4-29.7 4l.5-21.3zM917.8 1786.8s1.9 13.3-3.1 27.6c0 0-3.9 17.9 13.7 18.2 17.6.3 21.9-1.3 19.9-12.3s-5.8-29.9-5.8-29.9l-24.7-3.6z"/><path class="st38" d="m950 1840.2-1.1.6h-34.5l-1-.6c-2-9 1.3-25.8 1.3-25.8 19.9 18.3 32.4-.5 32.4-.5 3.3 7.8 2.9 26.3 2.9 26.3z"/><path class="st34" d="M1209.8 1822.1s-32.4-36-42.4-54.3l-24.1 12.4 53.9 50.7 12.6-1.7v-7.1z"/><path class="st38" d="M1230 1840.8h-44.4c-4.3-3.2-8.3-10.6-13.2-20.5-2.6-5.3-8.6-8.2-14.7-9.8v30h-9.2l-8.7-31.9c-5.7-10.6-.5-20.1 3.6-28.5 4.7 0 17.3 3.2 41.3 30.2 7.9 8.9 16.6 12 25.2 11.8l.4.2c14.4 6.5 18.5 14.6 19.7 18.5z"/><path class="st37" d="M982.9 978.4s33.9 83.7 34.9 100.6c1 16.9 4 277 4 277s-2 12 20.9 7 28.9-10 28.9-10-21.9-160.4-15.9-216.2c5.2-48.6-33.6-124.1-43.7-142.8-1.5-2.8-3.9-5-6.8-6.2l-22.3-9.4z"/><path class="st39" d="m1136.8 1750.8-25.4.8s-58.6-65.3-91.5-169.9l-2.4-7.4c-18-52.5-55.3-118.3-75-177.9l-8.5-26.9-2.3-8 20.9-15.9s62.8 101.6 82.2 197.3c16.9 83.1 84.5 183 102 207.9z"/><path class="st36" d="M954.8 1551.8c.4 46.5-2 153.4-8 197.7h-22.5c-12.4 0-18.6-.2-18.6-.2-15.2-77-26-140.6-33.9-195.5-6.5-45-12.2-83.6-16.6-116.9-4.4-33.4-7.5-61.5-8.6-85.1l-.4-10.9-.1-10.3 122.6-12c-1.5 81.5-14.1 206.2-13.9 233.2z"/><path class="st39" d="M924.3 1749.5c-12.4 0-18.6-.2-18.6-.2-15.2-77-26-140.6-33.9-195.5-6.5-45-12.2-83.6-16.6-116.9-4.4-33.4-7.5-61.5-8.6-85.1l45 26.5s-28.7 10.1-17.8 86.8c10.9 76.7 35.2 273.5 50.5 284.4z"/><path class="st37" d="M930.1 1351s-8.6 31.2-38.5 27.2-72.4-21.9-72.4-21.9 12.8-40.4 28.7-93.4c19.2-64.2 43-146.9 54.2-199.1 3.1-14.6 5.3-26.8 6.1-35.6l24.8-48.1s37 83 39 103.9c1.9 21-41.9 267-41.9 267z"/><path class="st34" d="m900.2 1080.9 32.7-100.8c-.1 0-41.3 12.3-62.1 22.8 0 0-13 16.7-21 55.3 0 0-8.5 92.6 10.5 126.5 0 0 59.8 12 155.4-20.9v-21.9s-104.6 5.5-126 8l10.5-69z"/><path d="M928.7 1127.9c-1.3 33.9-9.3 99.6-80.4 134.8l-.6.3c19.2-64.2 43-146.9 54.2-199.1 13.2 19.4 27.6 45.3 26.8 64z" style="fill:#1f3d70"/><path class="st37" d="M932.9 980.1s-60.7 4.3-75.3 36.8c-14.6 32.5-19.3 140.8-.7 172.7 0 0 25.6 7.3 70.9-1.2l1.7-.3s14.4-35.4 1.5-42.3c0 0-38.2 2-34.2-10.6s36.1-155.1 36.1-155.1z"/><path class="st34" d="M1005 1147.6s8.3-10.1 10.1-20.4c1.8-10.3 7.3-18 21.7-19.8 14.4-1.9 20.6-2.1 20.5 2 0 4.1-11.8 32.4-32.4 49.3-20.6 16.8-19.9-11.1-19.9-11.1z"/></g><g><path class="st41" d="M2486.6 2309c-3.7-7.1 80.6-32.8 81.9 37.5 0 0 157.8-3.9 82.5-91.9-26.1-30.5-23.4-55.6-22.6-79.1.8-23.4-16.3-91.6-74.7-84.7 0 0-15.3-6.2-34.4 3.7-43.4 22.6-140.7 240.4-32.7 214.5z"/><path class="st34" d="M2744.7 2373.5s10.3-15.6 18.6-15.9c8.3-.3 23.6-4.6 22.4-1.5-1.2 3.1-10.7 3.4-11.7 5.2-.9 1.8 14.1 4.6 18.4 4.9 4.3.3 14.4 0 14.1 2.1-.3 2.1-18.2 11-30.9 9.8a86.2 86.2 0 0 0-28.3 3.7l-2.6-8.3z"/><path class="st42" d="M2596.1 2378.6s5.6 11.1 15.7 23.8c12.2 15.3 31 33 54.7 36.4a58.6 58.6 0 0 0 32.5-5.3c28.7-12.7 50.3-42 50.3-42 5.1-13.8-3.2-23.2-3.2-23.2s-58 13-63.5 10.3c-5.5-2.8-39.5-78.1-45.6-90.6a68.5 68.5 0 0 0-33.6-34.3l-7.3 124.9z"/><path class="st43" d="M2611.8 2402.3c12.2 15.3 31 33 54.7 36.4a58.6 58.6 0 0 0 32.5-5.3c-1.1.1-29.8 3.7-41.2-16.8-11.7-20.9-24.3-54-41.6-42.9-7.5 4.9-7.2 16.7-4.4 28.6z"/><path class="st44" d="M2379.9 3004.2s-17.7 16.1-14.2 27.6 19.4 19.1 21.6 33.1c2.2 14 10.8 21.7 18.5 21.7h37s5.7-9.9-8.1-12.8c-13.8-3-19-19.4-18.1-34.7.9-15.3-1.3-35.7-1.3-35.7l-29.3-6.8-6.1 7.6zM2529.5 3011.1s-6.4 68.4 1.4 72.2l99.4-.2s0-11.5-16-14-44-11.9-48.7-32.7c-4.7-20.9-36.1-25.3-36.1-25.3z"/><path class="st42" d="M2453.1 2332.4s-1.5 20.9 0 45.9c1 16.6 17.8 38.9 20.2 44.4 6 13.8 12.7 16 12.7 16l52.2 12.8 18.3 4.5 57.9-17.3s26.3-73.5 15.8-114.9a322 322 0 0 0-26.7-70.2s-39.2-15.5-108.7-3.9l-41.7 82.7z"/><path d="M2468.4 2385.2c1 16.6 2.5 32.1 4.9 37.6 6 13.8 12.7 16 12.7 16l52.2 12.8 22.7-6.7s-75.6-11.5-67.3-76.5l-25.2 16.8z" style="fill:#f9c9a4"/><path d="M2610.7 2449.9s28.7 89.2 30.5 119.5c1.8 30.4-54.8 431.3-57 445.3-2.1 13.2-18.5 21.6-18.5 21.6s-7.5 4.4-18.3 1.4c-14.9-4.2-19.6-9.3-19.6-9.3s-22.3-285.9-8.5-388.1c13.8-102.1 14-190.5 14-190.5h77.4z" style="fill:#012244"/><path d="M2489.3 2447.3s-43.7 58.6-47.8 98.3c-4.1 39.6-6.4 178.9-15.1 217.5-8.7 38.6-40.6 113-40.6 233.5 0 0 3.3 6.9 13.6 10.6 3.3 1.2 7.7 2.3 11.9 3.3a19 19 0 0 0 21-9.9c21.6-43.4 90.2-183.4 93.8-212.5 2.5-20.6 24.2-156.7 71.5-236.6 11.4-19.2-7-95.4-7-95.4l-101.3-8.8z" style="fill:#002352"/><path class="st38" d="M2615.3 2436.2s-11.5 9.1-34.3 9.6c-27.3.6-94.9-7-94.9-7s-3 8.4-2.9 17.3c0 0 82.6 20.8 130.4 3 0 0 6.1-11.6 1.7-22.9z"/><path class="st9" d="M2575 2455.2c0-7.8 5.6-14.1 12.5-14.1s12.5 6.3 12.5 14.1-5.6 14.1-12.5 14.1c-6.9-.1-12.5-6.4-12.5-14.1zm4.1 0c0 5.5 3.7 10 8.3 10 4.6 0 8.3-4.5 8.3-10s-3.7-10-8.3-10c-4.5 0-8.3 4.5-8.3 10z"/><path class="st48" d="m2405.9 2459.9 67.1 58.4a11.7 11.7 0 0 0 16.4-1.1l85.6-98.3a11.7 11.7 0 0 0-1.1-16.4l-67.1-58.4a11.7 11.7 0 0 0-16.4 1.1l-85.6 98.3a11.5 11.5 0 0 0 1.1 16.4z"/><path class="st34" d="M2505.1 2452.6c1 .3 35.6 4.3 35.6 11.5 0 8.3-10.2 19.4-19.7 18.9-3.9-.2-21.8-16.7-21.8-16.7l5.9-13.7zM2522.9 2246c3.9-9.6 6.2-24.1 6.2-42.2l2.6.5 44 8.7s-1 13.9-1 26.9v.3c-.1 11.3 7.7 22.7-10.5 27.2-5.6 1.5-49.6-1.3-41.3-21.4z"/><path d="M2575.7 2213s-1 13.9-1 26.9c-24.6-.7-37.7-23.2-43-35.6l44 8.7z" style="fill:#f58e4e"/><path class="st34" d="M2584 2225.4s-58.3 1-58.4-35.4c0-36.3-7.6-60.7 29.6-62.8 37.2-2.2 44.5 11.7 47.4 23.8 3.1 12.2-3.5 73.2-18.6 74.4z"/><path class="st41" d="M2581.8 2126.3s-16 42.6-40.5 48.9-35.1-.3-35.1-.3 18.8-14.9 22.7-41c0 .1 40.9-27.9 52.9-7.6z"/><path class="st41" d="M2577.9 2129.8a36 36 0 0 0 16.7 13.1 58.6 58.6 0 0 1 7.9 33.3s12-29-1.5-45.3c-14.4-17.4-23.1-1.1-23.1-1.1z"/><path class="st34" d="M2505.1 2452.6s8.3-2.7 13.9-1.9c5.6.8 9.7-.1 9.7 1.4 0 1.6-7.2 2.3-8.7 3-1.6.8-14.9-2.5-14.9-2.5z"/><path class="st42" d="M2494.7 2249.8s-41.4 2.9-57.3 41.5c-15.9 38.6-46 103.3-46 114.2s16.8 44.5 107.1 63.8c0 0 9.3-9.8 8.8-17.6 0 0-56.4-48.4-56.2-54.1.3-10.7 9.2-24.8 58.7-74.4 13.6-13.4-15.1-73.4-15.1-73.4z"/></g><g><path class="st50" d="M3651.2 641.9s-234.7-65.5-127.1-365.4 312.4-170.5 253.2-432.8c-78-345.8 252.3-581 615.5-485.2 363.2 95.8 265.8 202.2 692.6 95 520.3-130.7 564.2 413.1 443.5 593.7-120.7 180.6 329.4 206.7 143.5 594.6H3651.2z"/><path class="st50" d="m5422.4-93.8 18.1-42.4.4-1a11 11 0 0 0-4.7-13.9l-33.6-18.9-1.5-1a10.8 10.8 0 0 1-3.6-11.3c7-24.6 9-50.3 5.9-75.7a11 11 0 0 1 7.1-11.6l30.1-11.3a11.2 11.2 0 0 0 6.7-13.1l-11.8-45.6c-1.4-5.6-7-9.2-12.8-8.2l-42.1 7.2c-4.2.7-8.3-1.1-10.7-4.5a187.1 187.1 0 0 0-35.6-38.1c-3.6-2.9-5-7.7-3.6-12.1l13.6-41.2.7-2.1c1.8-5.3-.8-11.2-6-13.4l-43.3-18.5a11.4 11.4 0 0 0-14.3 4.8l-21 37.4a10.8 10.8 0 0 1-11.7 5.4 194 194 0 0 0-59.4-1.7 11 11 0 0 1-11.6-7.1l-13.5-35.6a11.3 11.3 0 0 0-13.3-6.9l-45.8 11.8a10.8 10.8 0 0 0-7.9 12.2l8.3 49.6c.7 4.2-1 8.4-4.5 11a193.7 193.7 0 0 0-33.5 30.9 10.6 10.6 0 0 1-11.6 3.3l-49.5-16.4a11 11 0 0 0-13.6 6.1l-18.6 43.5a11.1 11.1 0 0 0 4.7 13.9l41.4 23.3a10.7 10.7 0 0 1 5.4 11.8c-.2 1.1-.5 2.2-.6 3.4a193.1 193.1 0 0 0-3.3 40.9c.2 4.6-2.7 8.8-7.1 10.4l-37.6 14.3c-5.3 2-8.3 7.8-6.8 13.3l2.6 10.1 9.2 35.4a11 11 0 0 0 12.5 8.1l41.5-7c4.4-.8 8.8 1.4 11.1 5.2a194.6 194.6 0 0 0 39.9 48.6l-2.9 8.6-11.7 35.5a10.6 10.6 0 0 0 6 13.3l43.6 18.7a11 11 0 0 0 13.9-4.8l14.3-25.5a11 11 0 0 1 12.4-5.2c19.8 5.4 40.3 7.6 60.6 6.5 4.8-.3 9.2 2.6 10.7 7l17 45c1.9 5 7.3 7.8 12.6 6.5l46.3-12c5.5-1.4 8.9-6.8 8-12.2l-8.7-51.6c-.8-4.4 1.2-8.8 5.1-11.2a186.3 186.3 0 0 0 35.5-28.5c2.9-3 7.3-4 11.2-2.8l47.5 15.7c5.7 1.6 11.6-1 13.9-6.3zm-123.5-199c21.4 31.4 24 66.9 12.2 94.1-41.4 95.4-169.9 86.9-199-11.5a95.9 95.9 0 0 1 14.1-80.9 103.7 103.7 0 0 1 172.7-1.7zM4416.2-84.7l28-47.9.7-1.1a13.2 13.2 0 0 0-3.6-17.3l-37.3-27.5-1.7-1.5a13 13 0 0 1-2.6-14.1 230 230 0 0 0 18.3-89.6 13.6 13.6 0 0 1 10.2-12.8l37.6-9a13.5 13.5 0 0 0 10-14.6l-7.2-56.2c-.9-6.9-7-12.1-14-11.7l-51.4 2.2a13 13 0 0 1-12.1-7 230.1 230.1 0 0 0-36.8-50.8v-.1a13.3 13.3 0 0 1-2.5-15l22.4-47.2 1.1-2.4a13 13 0 0 0-5.2-16.9l-49-28.6c-6-3.4-13.6-1.9-17.8 3.7l-30.7 41.5a13.2 13.2 0 0 1-14.8 4.7 232 232 0 0 0-70.7-10.9 13.3 13.3 0 0 1-12.8-10.2l-10.8-44.6a13.5 13.5 0 0 0-14.9-10.2l-56.4 7.2c-6.7.9-11.5 6.7-11.2 13.4l2.5 60.4c.2 5.1-2.5 9.9-7 12.4a246.3 246.3 0 0 0-44.6 31.8 13 13 0 0 1-14.4 2.2l-56.7-26.9a13.3 13.3 0 0 0-17.1 5.3l-28.7 49.2c-3 5.2-2.1 11.9 2.1 16 .4.4.9.9 1.5 1.2l46 34.1a13.1 13.1 0 0 1 4.7 14.9 227.9 227.9 0 0 0-11.2 52.3 12.7 12.7 0 0 1-10 11.3l-47.1 11.4c-6.7 1.6-11.1 8-10.2 14.9l1.6 12.5 5.7 43.6c.8 6.9 6.8 11.9 13.8 11.6l50.6-2.2c5.4-.3 10.3 2.9 12.4 7.9a235.2 235.2 0 0 0 40.4 64l-4.7 9.9-19.2 40.7a12.9 12.9 0 0 0 5.2 16.8l49.3 28.9a13.4 13.4 0 0 0 17.3-3.6l20.9-28.4c3.5-4.8 10-6.6 15.5-4.4 22.8 9.4 47 15.1 71.4 16.8 5.8.4 10.6 4.4 11.8 9.9l13.6 56.3a12.8 12.8 0 0 0 14 9.6l57-7.4c6.8-.9 11.7-6.7 11.3-13.4l-2.7-62.9a13 13 0 0 1 7.8-12.6 221.1 221.1 0 0 0 46.7-28.6c3.9-3.1 9.3-3.7 13.8-1.6l54.4 25.8c6.4 3.1 13.9.8 17.5-5.2zm-117.8-256c7 13.6 11.9 29.1 14.2 46.4.5 3.7.7 7.8.7 12.2a126 126 0 0 1-14.3 55.6c-63.7 107.8-215.9 78.4-235.9-43.4l-.9-6.1c-2.4-19 3.6-48.3 13.2-64.9 5-8.7 10.6-16.5 16.7-23.5a124.6 124.6 0 0 1 206.3 23.7zM4951.4-700l20.7 72.3c.3 1.1.4 2.1.3 3.2a9.3 9.3 0 0 1-6.7 8.3l-125.5 35.9a9.3 9.3 0 0 1-11.5-6.3l-20.7-72.2a9.3 9.3 0 0 1 6.4-11.5l125.5-35.9a9.1 9.1 0 0 1 11.5 6.2z"/><path class="st50" d="M4972.4-624.5a9.3 9.3 0 0 1-6.7 8.3l-125.5 35.9a9.3 9.3 0 0 1-10.1-3.5L4894-642l78.4 17.5z"/><path class="st50" d="m4951.4-700-56.2 69.8-86.1-25-1.1-3.7a9.3 9.3 0 0 1 6.4-11.5l125.5-35.9a9.3 9.3 0 0 1 11.5 6.3zM5609 546.8h26v95.7h-26zM5631.7 537.3h-18.3a3.3 3.3 0 0 1-3.3-3.3c0-1.8 1.5-3.3 3.3-3.3h18.3c1.8 0 3.3 1.5 3.3 3.3 0 1.8-1.5 3.3-3.3 3.3zM5564.1 471.6h26v170.8h-26zM5586.3 464.5H5568a3.3 3.3 0 0 1-3.3-3.3c0-1.8 1.5-3.3 3.3-3.3h18.3c1.8 0 3.3 1.5 3.3 3.3 0 1.9-1.5 3.3-3.3 3.3zM5521.2 352.7h26v289.8h-26zM5543.3 344.8H5525a3.3 3.3 0 0 1-3.3-3.3c0-1.8 1.5-3.3 3.3-3.3h18.3c1.8 0 3.3 1.5 3.3 3.3 0 1.8-1.5 3.3-3.3 3.3zM5477.1 405.2h26v237.2h-26zM5499.2 398.9h-18.3a3.3 3.3 0 0 1-3.3-3.3c0-1.8 1.5-3.3 3.3-3.3h18.3c1.8 0 3.3 1.5 3.3 3.3 0 1.8-1.5 3.3-3.3 3.3zM5434.1 273.6h26v368.9h-26zM5456.3 266.5H5438a3.3 3.3 0 0 1-3.3-3.3c0-1.8 1.5-3.3 3.3-3.3h18.3c1.8 0 3.3 1.5 3.3 3.3a3.4 3.4 0 0 1-3.3 3.3zM5392.2 331.2h26v311.3h-26zM5414.4 324.6h-18.3a3.3 3.3 0 0 1-3.3-3.3c0-1.8 1.5-3.3 3.3-3.3h18.3c1.8 0 3.3 1.5 3.3 3.3 0 1.8-1.5 3.3-3.3 3.3z"/><g><path class="st50" d="M4527.8 644.6h-737c-16 0-29-12.7-29-28.4v-963.5c0-16.1 13.7-29 30.1-28.4l764.9 34.5v957.4c0 15.7-13 28.4-29 28.4z"/><path class="st50" d="M4585.7 644.6h737c16 0 29-12.7 29-28.4v-963.5c0-16.1-13.7-29-30.1-28.4l-764.9 34.5v957.4c.1 15.7 13 28.4 29 28.4zM3817.6-355.4l-23.9 19.4a14.4 14.4 0 0 0-5.3 11.3v954.5c0 8 6.3 14.5 14.1 14.5h59.5c8.1 0 14.6-7 14.1-15.3l-58.5-984.4z"/><path class="st50" d="m5297.4-355.4 23.9 19.4c3.4 2.7 5.3 6.9 5.3 11.3v954.5c0 8-6.3 14.5-14.1 14.5H5253c-8.1 0-14.6-7-14.1-15.3l58.5-984.4zM4529.5 644.6h-693.4a27.7 27.7 0 0 1-27.3-28.1v-951.3a27.7 27.7 0 0 1 28.3-28.1l605.2 23.4c63.9 2.5 114.4 56.5 114.4 122.3v833.6a27.6 27.6 0 0 1-27.2 28.2z"/><path class="st50" d="M4581.8 644.6h697.9c13.8 0 25-11.5 25-25.8v-956a25.5 25.5 0 0 0-26-25.8l-620.4 24c-56.7 2.2-101.6 50.2-101.6 108.6v849.2a25.5 25.5 0 0 0 25.1 25.8z"/><path class="st50" d="M4554.9-139.5h3.8v671.2h-3.8z"/></g><g><path class="st50" d="M3842.1 643h562.2a70.8 70.8 0 0 0 70.8-70.8v-3a70.8 70.8 0 0 0-70.8-70.8h-562.2a70.8 70.8 0 0 0-70.8 70.8v3a70.7 70.7 0 0 0 70.8 70.8z"/><path class="st50" d="m4160.7 551.5-.5 31.6a50.7 50.7 0 0 0 49.8 51.4l373.7 6 .1-6.3a64.3 64.3 0 0 1-34.7-58.2l.2-11.1a64.6 64.6 0 0 1 36.6-57.1v-.1l-373.7-6a50.6 50.6 0 0 0-51.5 49.8z"/><path class="st50" d="M4593.5 643h-393.7c-25.4 0-45.3-31.8-45.3-72.3 0-40.6 19.9-72.3 45.3-72.3h393.7a6 6 0 0 1 0 11.8h-393.7c-18.1 0-33.4 27.7-33.4 60.5s15.3 60.5 33.4 60.5h393.7a6 6 0 0 1 5.9 5.9 6 6 0 0 1-5.9 5.9z"/><path class="st50" d="M4217.4 536.8H4556v.9h-338.6zM4422.6 550h128.5v.9h-128.5zM4326.9 594.9h224.2v.9h-224.2z"/><path class="st50" d="M4259.4 537.3s17.4 7.3 19.4 31.8 0 37.6 0 37.6l-21-10-21.2 10v-38.4s-.8-31.1-29.7-31.1h52.5z"/></g><g><path class="st50" d="M3797 498.4h432.6A46.4 46.4 0 0 0 4276 452v-16.1a46.4 46.4 0 0 0-46.4-46.4H3797a46.4 46.4 0 0 0-46.4 46.4V452a46.4 46.4 0 0 0 46.4 46.4z"/><path class="st50" d="m4041.3 429.5-.4 23.8a38 38 0 0 0 37.2 38.7l278.9 4.5.1-4.7a48.6 48.6 0 0 1-25.9-43.8l.1-8.4c.3-19 11.4-35.2 27.3-42.9v-.1l-278.9-4.5a37.7 37.7 0 0 0-38.4 37.4z"/><path class="st50" d="M4364.2 498.2h-293.8c-19 0-33.8-23.9-33.8-54.4s14.8-54.4 33.8-54.4h293.8c2.4 0 4.4 2 4.4 4.4s-2 4.5-4.4 4.5h-293.8c-13.5 0-25 20.8-25 45.5 0 24.6 11.4 45.5 25 45.5h293.8a4.5 4.5 0 0 1 0 8.9z"/><path class="st50" d="M4124.1 418.5h212.1v.6h-212.1zM4236.7 428.4h95.9v.6h-95.9zM4165.3 462.1h167.3v.6h-167.3z"/></g><g><path class="st50" d="m4768.1 419.2-166.7 8.2V260.7l166.7-8.2z"/><path class="st50" d="m4613.9 407.8 49.2-91.2 36.3 47.6 18-20.7 38.3 57.3zM4686.6 302.7c0-7 5.7-13 12.7-13.4a12 12 0 0 1 12.7 12.1c0 7-5.7 13-12.7 13.4a12 12 0 0 1-12.7-12.1zM5254.4-19.4 5014.2-7.5v-240.2l240.2-11.8z"/><path class="st50" d="m5032.2-35.9 71-131.4 52.1 68.6 26.1-29.7 55.2 82.5zM5137-187.3c0-10.1 8.2-18.8 18.4-19.3a17.4 17.4 0 0 1 18.4 17.5c0 10.1-8.2 18.8-18.4 19.3a17.3 17.3 0 0 1-18.4-17.5zM4836.2-54.2l-234.8 11.5v-13.6l234.8-11.6zM4727.3-21.2 4601.4-15v-6.8l125.9-6.2zM4690.4 3.4l-89 4.4V.9l89-4.3zM4796.7-1.8l-89 4.4v-6.9l89-4.4zM4917.8-7.8l-108.5 5.4v-6.9l108.5-5.3zM4678.6 26.3l-77.2 3.8v-6.9l77.2-3.8zM4770.9 21.7l-77.3 3.8v-6.8l77.3-3.8zM4876.1 16.6l-94.2 4.6v-6.8l94.2-4.7z"/><g><path class="st50" d="m4836.2-205.9-234.8 11.6V-208l234.8-11.6zM4727.3-172.8l-125.9 6.2v-6.9l125.9-6.2zM4877.6-180.2l-125.9 6.2v-6.9l125.9-6.2zM4690.4-148.3l-89 4.4v-6.8l89-4.4zM4796.7-153.5l-89 4.4v-6.8l89-4.4zM4917.8-159.4l-108.5 5.3v-6.8l108.5-5.4zM4678.6-125.4l-77.2 3.8v-6.8l77.2-3.8zM4770.9-129.9l-77.3 3.8v-6.9l77.3-3.8zM4876.1-135.1l-94.2 4.6v-6.8l94.2-4.6z"/></g><g><path class="st50" d="m5178.1 26.5-165.2 8.1V25l165.2-8.1zM5101.4 49.8l-88.5 4.3v-4.8l88.5-4.3zM5207.2 44.6l-88.6 4.3v-4.8l88.6-4.3zM5075.5 67l-62.6 3.1v-4.8l62.6-3.1zM5150.2 63.4l-62.6 3.1v-4.9l62.6-3zM5235.4 59.2l-76.2 3.7v-4.8l76.2-3.7zM5067.2 83.1l-54.3 2.7V81l54.3-2.7zM5132.1 79.9l-54.3 2.7v-4.8l54.3-2.7zM5206.1 76.3l-66.2 3.3v-4.8l66.2-3.3z"/></g><g><path class="st50" d="m4836.2 100.7-234.8 11.6V98.6l234.8-11.5zM4727.3 133.8l-125.9 6.2v-6.9l125.9-6.2zM4877.6 126.4l-125.9 6.2v-6.9l125.9-6.1zM4690.4 158.4l-89 4.3v-6.8l89-4.4zM4796.7 153.1l-89 4.4v-6.8l89-4.4zM4917.8 147.2l-108.5 5.3v-6.8l108.5-5.4zM4678.6 181.2l-77.2 3.8v-6.8l77.2-3.8zM4770.9 176.7l-77.3 3.8v-6.9l77.3-3.8zM4876.1 171.5l-94.2 4.6v-6.8l94.2-4.6z"/></g><g><path class="st50" d="m4992.5 338.5-181.4 8.9v-13.6l181.4-8.9zM4908.3 370.4l-97.2 4.7v-6.8l97.2-4.8zM5024.5 364.6l-97.3 4.8v-6.8l97.3-4.8zM4879.8 394.5l-68.7 3.4v-6.8l68.7-3.4zM4961.9 390.5l-68.7 3.4V387l68.7-3.4zM5055.5 385.9l-83.8 4.1v-6.8l83.8-4.2zM4870.8 417.2l-59.7 3v-6.9l59.7-2.9zM4942 413.7l-59.6 3v-6.9l59.6-2.9zM5023.3 409.8l-72.8 3.5v-6.8l72.8-3.6z"/></g></g><g><path class="st50" d="m4464.3 84.2-261.7-9.5v-261.8l261.7 9.5z"/><path class="st50" d="m4222.2 45.5 77.3-136.6 56.9 79.6 28.3-30 60.2 95.1zM4336.4-109.8c0-11 9-19.7 20-19.3 11 .4 20 9.7 20 20.7s-9 19.7-20 19.3c-11.1-.3-20-9.6-20-20.7zM4439.4 122.3l-234.8-8.6v-13.6l234.8 8.5zM4330.5 146l-125.9-4.6v-6.8l125.9 4.6zM4293.6 167.4l-89-3.2v-6.9l89 3.3zM4399.8 171.3l-89-3.3v-6.8l89 3.2zM4521 175.7l-108.5-4v-6.8l108.5 3.9zM4281.8 189.3l-77.2-2.8v-6.9l77.2 2.8zM4374.1 192.6l-77.3-2.8V183l77.3 2.8zM4479.3 196.4l-94.2-3.4v-6.8l94.2 3.4z"/><g><path class="st50" d="m4439.4 283.3-234.8-8.5v-13.7l234.8 8.5zM4330.5 307l-125.9-4.5v-6.9l125.9 4.6zM4480.8 312.5l-125.9-4.6v-6.8l125.9 4.5zM4293.6 328.4l-89-3.2v-6.8l89 3.2zM4399.8 332.3l-89-3.2v-6.9l89 3.3zM4521 336.7l-108.5-3.9v-6.9l108.5 4zM4281.8 350.3l-77.2-2.8v-6.8l77.2 2.8zM4374.1 353.7l-77.3-2.8V344l77.3 2.8zM4479.3 357.5l-94.2-3.4v-6.9l94.2 3.4z"/></g><g><path class="st50" d="m4099.3-175.5-234.8-8.5v-13.7l234.8 8.5zM3990.4-151.7l-125.9-4.6v-6.9l125.9 4.6zM4140.7-146.3l-125.9-4.6v-6.8l125.9 4.6zM3953.5-130.3l-89-3.3v-6.8l89 3.2zM4059.7-126.5l-89-3.2v-6.8l89 3.2zM4180.9-122.1l-108.5-3.9v-6.8l108.5 3.9zM3941.7-108.5l-77.2-2.8v-6.8l77.2 2.8zM4034-105.1l-77.3-2.8v-6.9l77.3 2.8zM4139.2-101.3l-94.2-3.4v-6.9l94.2 3.5z"/></g></g><g><path class="st50" d="m3697.2 616.6.2 3.3c.4 3.5 1.5 6.7 3.1 9.6a26.8 26.8 0 0 0 23.7 14.1h379.6a27 27 0 0 0 0-54h-379.6a27 27 0 0 0-27 27zM3726.1 584.7h130.1c2.3 0 4.1-1.9 4.1-4.1 0-2.3-1.9-4.1-4.1-4.1h-130.1a4.1 4.1 0 0 0-4.1 4.1c0 2.2 1.8 4.1 4.1 4.1zM3733.3 584.7h14.1v4.9h-14.1z"/><path class="st50" d="M3700.4 629.5a26.8 26.8 0 0 0 23.7 14.1h80.4v-14.1h-104.1z"/><path class="st50" d="M4181 608.7v15.8a19.1 19.1 0 0 1-19.1 19.1h-395.4a19.1 19.1 0 0 1-19.1-19.1v-15.8c0-10.5 8.5-19.1 19.1-19.1h395.4a19 19 0 0 1 19.1 19.1z"/><path class="st50" d="M4180.3 629.5a19.1 19.1 0 0 1-18.4 14.1h-395.4c-8.8 0-16.2-6-18.4-14.1h432.2z"/><path class="st50" d="M4141.7 616.7c0 8.4 3 15.9 7.9 20.8l.3.3a19 19 0 0 0 13.5 5.9c8 0 27.8-12.1 40.1-20.1l10.4-7-10.4-7c-12.3-8-32.1-20.1-40.1-20.1-2.3 0-4.5.5-6.6 1.3a22 22 0 0 0-9.2 7.2 30.1 30.1 0 0 0-5.5 13.2v.2c-.2 1.7-.4 3.5-.4 5.3z"/><path class="st50" d="M4141.7 616.7c0 8.4 3 15.9 7.9 20.8l60.9-20.9-68.3-5.1c-.3 1.6-.5 3.4-.5 5.2zM4147.6 598.1l60.7 16.6-51.6-23.8a22.3 22.3 0 0 0-9.1 7.2z"/><path class="st50" d="M4199.6 616.7c0 3.2 1.7 6 4 7l10.4-7-10.4-7c-2.3 1-4 3.7-4 7z"/></g><g><path class="st50" d="M3828.3 645.7c3.4 0 6.9-2.4 7.9-5.5l203.4-624.8c1-3.1-.9-5.6-4.3-5.6a8.6 8.6 0 0 0-7.9 5.5L3824 640.2c-1 3 1 5.5 4.3 5.5zM3664.4 644.8c3.4 0 6.9-2.4 7.9-5.5l203.4-624.8c1-3.1-.9-5.6-4.3-5.6a8.6 8.6 0 0 0-7.9 5.5l-203.4 624.8c-1 3.1 1 5.5 4.3 5.6z"/><path class="st50" d="m3840.9 101.5 164.6 1c3.2 0 6.5-2.3 7.5-5.2.9-2.9-.9-5.2-4.1-5.3l-164.6-1a8.3 8.3 0 0 0-7.5 5.2c-.9 2.9.9 5.3 4.1 5.3zM3805.4 210.6l164.6 1c3.2 0 6.5-2.3 7.5-5.2.9-2.9-.9-5.2-4.1-5.3l-164.6-1a8.3 8.3 0 0 0-7.5 5.2c-.9 2.9.9 5.3 4.1 5.3zM3771.2 315.7l164.6 1c3.2 0 6.5-2.3 7.5-5.2.9-2.9-.9-5.2-4.1-5.3l-164.6-1a8.3 8.3 0 0 0-7.5 5.2c-.9 2.9.9 5.3 4.1 5.3zM3732.7 434l164.6 1c3.2 0 6.5-2.3 7.5-5.2.9-2.9-.9-5.2-4.1-5.3l-164.6-1a8.3 8.3 0 0 0-7.5 5.2c-.9 2.9.9 5.2 4.1 5.3zM3692.4 557.8l164.6 1c3.2 0 6.5-2.3 7.5-5.2.9-2.9-.9-5.2-4.1-5.3l-164.6-1a8.3 8.3 0 0 0-7.5 5.2c-.9 2.9.9 5.2 4.1 5.3z"/><g><path class="st50" d="M3999.2-122.9s2-4.4 3.2-6.5c1.3-2.1 6.7-8.2 7.6-6.8.9 1.4 4.6 10.7 2.6 13.3-2 2.6.1 7.1-9.6 9.9l-3.8-9.9z"/><path class="st50" d="M3891.3-150.6s49.7 41.5 69.1 37.6c15.2-3 38.4-11 38.4-11l4.7 11.9s-20.9 28.3-42.6 28.5c-34 .3-59.1-14.7-59.1-14.7l-10.5-52.3zM3804.2 287s1.4 23.3 5.9 23.6h22.8l28.4-.2s-.2-6.8-8.5-8.3c-8.3-1.4-22.2-7.3-27.2-18.2-5.3-11.5-21.4 3.1-21.4 3.1z"/><path class="st50" d="M3802.5 288.6s8.6 2.9 15.4 2.9c7.5 0 14.3-2 14.3-2s1.6-15.7 10.6-50.3c4.7-18.1 11.4-41.5 20.9-70.5 26.3-80.1 34.3-127 35.1-131.4l.1-.4h-.1l-81-35.5s10 110.4-2.8 152.8c-1.8 5.9-3.3 12.8-4.6 20.3-8.1 45.9-7.9 114.1-7.9 114.1z"/><path class="st50" d="M3842.8 239.1c4.7-18.1 11.4-41.5 20.9-70.5 26.3-80.1 34.3-127 35.1-131.4v-.4l-81-35.5s10 110.4-2.8 152.8c-1.8 5.9 27.8 85 27.8 85zM3867.4 287s1.4 23.3 5.9 23.6h22.8l28.4-.2s-.2-6.8-8.5-8.3c-8.3-1.4-22.2-7.3-27.2-18.2-5.2-11.5-21.4 3.1-21.4 3.1z"/><path class="st50" d="M3913.3 3.9s1.1 71.6-11.3 159.4c-12.4 87.9-8.2 125.2-8.2 125.2s-8.5 2.8-11.9 3c-8.7.7-17.7-2-17.7-2s-17.7-87.9-12.6-131.9-24.4-150.9-24.4-150.9l86.1-2.8zM3855.9-163.6l15.8 10.4 14.4-4.1c2.6-3.8 3.3-11 3.4-17.3 0-6.2-.6-11.5-.6-11.5l-21.3-9.4-8-3.5.7 7.5c1.5 16.6-4.4 27.9-4.4 27.9z"/><path class="st50" d="M3913.7 23.8c-19.7 19-94.1 15.8-98.7-5.1-4.6-20.9 5-178.1 38.6-188 7-2 44.3 10 44.3 10s5.8 15.3 9.7 34.8c.7 3.8 2.9 44 4.5 81.6.8 17.6 1.4 34.6 1.7 47.1.3 11.5.3 19.1-.1 19.6zM3861.9-191.2c4.3 7.3 19.5 13.7 27.5 16.6 0-6.2-.6-11.5-.6-11.5l-21.3-9.4c-4.7 0-7.5 1-5.6 4.3z"/><path class="st50" d="M3896.9-187.4s-34.4 10.7-40.7-10.8-15.1-34.6 6.6-42.3c21.7-7.8 28.4-.8 32.2 5.8 3.9 6.7 10.7 44 1.9 47.3z"/><path class="st50" d="M3893.7-236.7s-2.2 25-7.4 23.9c-5.2-1.1-10.9-3.4-10.1 4.1s-5 20.5-12.5 20.4c-16-.1-33.4-41.1-29-48.9 12.7-22.4 77.3-26.9 59 .5zM3888.7-168.8c-.4-.2-25.6-11.5-28.5-10.5-2.9 1-6.6 9.9-6.6 9.9l44.3 10c-.1 0-3.6-7.1-9.2-9.4zM4045.1-47.1 3904.3 85.6c-2.8 2.6-6.2 3.4-7.7 1.8l-4.8-5.1c-1.5-1.6-.5-5 2.3-7.6L4035-57.9c2.8-2.6 6.2-3.4 7.7-1.8l4.8 5.1c1.4 1.5.4 4.9-2.4 7.5z"/><path class="st50" d="m3966.1 27.4-61.8 58.2c-2.8 2.6-6.2 3.4-7.7 1.8l-4.8-5.1c-1.5-1.6-.5-5 2.3-7.6l61.8-58.2 10.2 10.9zM4012.8-97.2a110.4 110.4 0 1 0 183.1-111l-1.7-1.7a110.4 110.4 0 0 0-181.4 112.7zm31.5-101.9a101.3 101.3 0 0 1 143.8-4.4 101.7 101.7 0 1 1-143.8 4.4z"/><path class="st50" d="M4192.5-59.7a101.4 101.4 0 0 1-143.8 4.4 101.7 101.7 0 1 1 143.8-4.4zM3913.8 4c-77.6-55.3-71.2-129.1-71.2-129.1 28.4 16 56.5 51.4 69.4 82.1.8 17.5 1.4 34.6 1.8 47z"/><g><path class="st50" d="M3990.4-21.2c5.5-1.3 9.2-5.4 9.9-6.1 0 0 2.3.2-.4 5.1l-1.1 2.2c-.2.3.1.7.4.7 3.2.2 6.3-1 12.4.3.8.2 1.1 2.2 1.1 3-.1 1.5.1 3.1-1.6 5.3-1 1.3-3.7 2.7-9.8 5.1-2.3.9-9 .2-15.2-1.9l-5-2.3 1.5-9.2 1.2.3c2.1.4 4.5-2 6.6-2.5z"/><path class="st50" d="M3866.7-159.4s-69.8 13.3 20.5 114.3c14.4 16.2 92.4 37.2 92.4 37.2s7.9-6.7 3.9-12.2c0 0-53.7-39-65.5-45.2-5.3-2.8-20.6-62.2-29.3-76.6-8.6-14.3-22-17.5-22-17.5z"/></g><path class="st50" d="M4001.1-121.7s2.3-4.4 2.7-6.7c.4-2.3 3.3-9 4.5-10.2.5-.5 2 .1 2.2 2.2.1.9-.4 2.5-1.1 4.4-1.2 3.1-1 7.4-1.5 8.8-1 3.5-6.8 1.5-6.8 1.5z"/></g></g><path class="st50" d="m5702.6 654.1-2103.3-.7c-1.6 0-2.8-1.5-2.8-3.4v-2.7c0-1.9 1.3-3.4 2.8-3.4l2103.3.7c1.6 0 2.8 1.5 2.8 3.4v2.7c.1 1.8-1.2 3.4-2.8 3.4z"/><g><path class="st0" d="M3651.2 641.9s-234.7-65.5-127.1-365.4 312.4-170.5 253.2-432.8c-78-345.8 252.3-581 615.5-485.2 363.2 95.8 265.8 202.2 692.6 95 520.3-130.7 564.2 413.1 443.5 593.7-120.7 180.6 329.4 206.7 143.5 594.6H3651.2z"/><path d="m5422.4-93.8 18.1-42.4.4-1a11 11 0 0 0-4.7-13.9l-33.6-18.9-1.5-1a10.8 10.8 0 0 1-3.6-11.3c7-24.6 9-50.3 5.9-75.7a11 11 0 0 1 7.1-11.6l30.1-11.3a11.2 11.2 0 0 0 6.7-13.1l-11.8-45.6c-1.4-5.6-7-9.2-12.8-8.2l-42.1 7.2c-4.2.7-8.3-1.1-10.7-4.5a187.1 187.1 0 0 0-35.6-38.1c-3.6-2.9-5-7.7-3.6-12.1l13.6-41.2.7-2.1c1.8-5.3-.8-11.2-6-13.4l-43.3-18.5a11.4 11.4 0 0 0-14.3 4.8l-21 37.4a10.8 10.8 0 0 1-11.7 5.4 194 194 0 0 0-59.4-1.7 11 11 0 0 1-11.6-7.1l-13.5-35.6a11.3 11.3 0 0 0-13.3-6.9l-45.8 11.8a10.8 10.8 0 0 0-7.9 12.2l8.3 49.6c.7 4.2-1 8.4-4.5 11a193.7 193.7 0 0 0-33.5 30.9 10.6 10.6 0 0 1-11.6 3.3l-49.5-16.4a11 11 0 0 0-13.6 6.1l-18.6 43.5a11.1 11.1 0 0 0 4.7 13.9l41.4 23.3a10.7 10.7 0 0 1 5.4 11.8c-.2 1.1-.5 2.2-.6 3.4a193.1 193.1 0 0 0-3.3 40.9c.2 4.6-2.7 8.8-7.1 10.4l-37.6 14.3c-5.3 2-8.3 7.8-6.8 13.3l2.6 10.1 9.2 35.4a11 11 0 0 0 12.5 8.1l41.5-7c4.4-.8 8.8 1.4 11.1 5.2a194.6 194.6 0 0 0 39.9 48.6l-2.9 8.6-11.7 35.5a10.6 10.6 0 0 0 6 13.3l43.6 18.7a11 11 0 0 0 13.9-4.8l14.3-25.5a11 11 0 0 1 12.4-5.2c19.8 5.4 40.3 7.6 60.6 6.5 4.8-.3 9.2 2.6 10.7 7l17 45c1.9 5 7.3 7.8 12.6 6.5l46.3-12c5.5-1.4 8.9-6.8 8-12.2l-8.7-51.6c-.8-4.4 1.2-8.8 5.1-11.2a186.3 186.3 0 0 0 35.5-28.5c2.9-3 7.3-4 11.2-2.8l47.5 15.7c5.7 1.6 11.6-1 13.9-6.3zm-123.5-199c21.4 31.4 24 66.9 12.2 94.1-41.4 95.4-169.9 86.9-199-11.5a95.9 95.9 0 0 1 14.1-80.9 103.7 103.7 0 0 1 172.7-1.7z" style="fill:#d5e4f2"/><path d="m4416.2-84.7 28-47.9.7-1.1a13.2 13.2 0 0 0-3.6-17.3l-37.3-27.5-1.7-1.5a13 13 0 0 1-2.6-14.1 230 230 0 0 0 18.3-89.6 13.6 13.6 0 0 1 10.2-12.8l37.6-9a13.5 13.5 0 0 0 10-14.6l-7.2-56.2c-.9-6.9-7-12.1-14-11.7l-51.4 2.2a13 13 0 0 1-12.1-7 230.1 230.1 0 0 0-36.8-50.8v-.1a13.3 13.3 0 0 1-2.5-15l22.4-47.2 1.1-2.4a13 13 0 0 0-5.2-16.9l-49-28.6c-6-3.4-13.6-1.9-17.8 3.7l-30.7 41.5a13.2 13.2 0 0 1-14.8 4.7 232 232 0 0 0-70.7-10.9 13.3 13.3 0 0 1-12.8-10.2l-10.8-44.6a13.5 13.5 0 0 0-14.9-10.2l-56.4 7.2c-6.7.9-11.5 6.7-11.2 13.4l2.5 60.4c.2 5.1-2.5 9.9-7 12.4a246.3 246.3 0 0 0-44.6 31.8 13 13 0 0 1-14.4 2.2l-56.7-26.9a13.3 13.3 0 0 0-17.1 5.3l-28.7 49.2c-3 5.2-2.1 11.9 2.1 16 .4.4.9.9 1.5 1.2l46 34.1a13.1 13.1 0 0 1 4.7 14.9 227.9 227.9 0 0 0-11.2 52.3 12.7 12.7 0 0 1-10 11.3l-47.1 11.4c-6.7 1.6-11.1 8-10.2 14.9l1.6 12.5 5.7 43.6c.8 6.9 6.8 11.9 13.8 11.6l50.6-2.2c5.4-.3 10.3 2.9 12.4 7.9a235.2 235.2 0 0 0 40.4 64l-4.7 9.9-19.2 40.7a12.9 12.9 0 0 0 5.2 16.8l49.3 28.9a13.4 13.4 0 0 0 17.3-3.6l20.9-28.4c3.5-4.8 10-6.6 15.5-4.4 22.8 9.4 47 15.1 71.4 16.8 5.8.4 10.6 4.4 11.8 9.9l13.6 56.3a12.8 12.8 0 0 0 14 9.6l57-7.4c6.8-.9 11.7-6.7 11.3-13.4l-2.7-62.9a13 13 0 0 1 7.8-12.6 221.1 221.1 0 0 0 46.7-28.6c3.9-3.1 9.3-3.7 13.8-1.6l54.4 25.8c6.4 3.1 13.9.8 17.5-5.2zm-117.8-256c7 13.6 11.9 29.1 14.2 46.4.5 3.7.7 7.8.7 12.2a126 126 0 0 1-14.3 55.6c-63.7 107.8-215.9 78.4-235.9-43.4l-.9-6.1c-2.4-19 3.6-48.3 13.2-64.9 5-8.7 10.6-16.5 16.7-23.5a124.6 124.6 0 0 1 206.3 23.7z" style="fill:#c9d7e3"/><path d="m4951.4-700 20.7 72.3c.3 1.1.4 2.1.3 3.2a9.3 9.3 0 0 1-6.7 8.3l-125.5 35.9a9.3 9.3 0 0 1-11.5-6.3l-20.7-72.2a9.3 9.3 0 0 1 6.4-11.5l125.5-35.9a9.1 9.1 0 0 1 11.5 6.2z" style="fill:#ccdef9"/><path d="M4972.4-624.5a9.3 9.3 0 0 1-6.7 8.3l-125.5 35.9a9.3 9.3 0 0 1-10.1-3.5L4894-642l78.4 17.5z" style="fill:#bcd5f9"/><path d="m4951.4-700-56.2 69.8-86.1-25-1.1-3.7a9.3 9.3 0 0 1 6.4-11.5l125.5-35.9a9.3 9.3 0 0 1 11.5 6.3z" style="fill:#dde9fb"/><path class="st56" d="M5609 546.8h26v95.7h-26zM5631.7 537.3h-18.3a3.3 3.3 0 0 1-3.3-3.3c0-1.8 1.5-3.3 3.3-3.3h18.3c1.8 0 3.3 1.5 3.3 3.3 0 1.8-1.5 3.3-3.3 3.3zM5564.1 471.6h26v170.8h-26zM5586.3 464.5H5568a3.3 3.3 0 0 1-3.3-3.3c0-1.8 1.5-3.3 3.3-3.3h18.3c1.8 0 3.3 1.5 3.3 3.3 0 1.9-1.5 3.3-3.3 3.3zM5521.2 352.7h26v289.8h-26zM5543.3 344.8H5525a3.3 3.3 0 0 1-3.3-3.3c0-1.8 1.5-3.3 3.3-3.3h18.3c1.8 0 3.3 1.5 3.3 3.3 0 1.8-1.5 3.3-3.3 3.3zM5477.1 405.2h26v237.2h-26zM5499.2 398.9h-18.3a3.3 3.3 0 0 1-3.3-3.3c0-1.8 1.5-3.3 3.3-3.3h18.3c1.8 0 3.3 1.5 3.3 3.3 0 1.8-1.5 3.3-3.3 3.3zM5434.1 273.6h26v368.9h-26zM5456.3 266.5H5438a3.3 3.3 0 0 1-3.3-3.3c0-1.8 1.5-3.3 3.3-3.3h18.3c1.8 0 3.3 1.5 3.3 3.3a3.4 3.4 0 0 1-3.3 3.3zM5392.2 331.2h26v311.3h-26zM5414.4 324.6h-18.3a3.3 3.3 0 0 1-3.3-3.3c0-1.8 1.5-3.3 3.3-3.3h18.3c1.8 0 3.3 1.5 3.3 3.3 0 1.8-1.5 3.3-3.3 3.3z"/><g><path class="st57" d="M4527.8 644.6h-737c-16 0-29-12.7-29-28.4v-963.5c0-16.1 13.7-29 30.1-28.4l764.9 34.5v957.4c0 15.7-13 28.4-29 28.4z"/><path class="st57" d="M4585.7 644.6h737c16 0 29-12.7 29-28.4v-963.5c0-16.1-13.7-29-30.1-28.4l-764.9 34.5v957.4c.1 15.7 13 28.4 29 28.4z"/><path class="st58" d="m3817.6-355.4-23.9 19.4a14.4 14.4 0 0 0-5.3 11.3v954.5c0 8 6.3 14.5 14.1 14.5h59.5c8.1 0 14.6-7 14.1-15.3l-58.5-984.4zM5297.4-355.4l23.9 19.4c3.4 2.7 5.3 6.9 5.3 11.3v954.5c0 8-6.3 14.5-14.1 14.5H5253c-8.1 0-14.6-7-14.1-15.3l58.5-984.4z"/><path class="st9" d="M4529.5 644.6h-693.4a27.7 27.7 0 0 1-27.3-28.1v-951.3a27.7 27.7 0 0 1 28.3-28.1l605.2 23.4c63.9 2.5 114.4 56.5 114.4 122.3v833.6a27.6 27.6 0 0 1-27.2 28.2z"/><path class="st9" d="M4581.8 644.6h697.9c13.8 0 25-11.5 25-25.8v-956a25.5 25.5 0 0 0-26-25.8l-620.4 24c-56.7 2.2-101.6 50.2-101.6 108.6v849.2a25.5 25.5 0 0 0 25.1 25.8z"/><path style="fill:#aeaeae" d="M4554.9-139.5h3.8v671.2h-3.8z"/></g><g><path class="st48" d="M3842.1 643h562.2a70.8 70.8 0 0 0 70.8-70.8v-3a70.8 70.8 0 0 0-70.8-70.8h-562.2a70.8 70.8 0 0 0-70.8 70.8v3a70.7 70.7 0 0 0 70.8 70.8z"/><path class="st60" d="m4160.7 551.5-.5 31.6a50.7 50.7 0 0 0 49.8 51.4l373.7 6 .1-6.3a64.3 64.3 0 0 1-34.7-58.2l.2-11.1a64.6 64.6 0 0 1 36.6-57.1v-.1l-373.7-6a50.6 50.6 0 0 0-51.5 49.8z"/><path d="M4593.5 643h-393.7c-25.4 0-45.3-31.8-45.3-72.3 0-40.6 19.9-72.3 45.3-72.3h393.7a6 6 0 0 1 0 11.8h-393.7c-18.1 0-33.4 27.7-33.4 60.5s15.3 60.5 33.4 60.5h393.7a6 6 0 0 1 5.9 5.9 6 6 0 0 1-5.9 5.9z" style="fill:#0f3874"/><path class="st62" d="M4217.4 536.8H4556v.9h-338.6zM4422.6 550h128.5v.9h-128.5zM4326.9 594.9h224.2v.9h-224.2z"/><path class="st63" d="M4259.4 537.3s17.4 7.3 19.4 31.8 0 37.6 0 37.6l-21-10-21.2 10v-38.4s-.8-31.1-29.7-31.1h52.5z"/></g><g><path d="M3797 498.4h432.6A46.4 46.4 0 0 0 4276 452v-16.1a46.4 46.4 0 0 0-46.4-46.4H3797a46.4 46.4 0 0 0-46.4 46.4V452a46.4 46.4 0 0 0 46.4 46.4z" style="fill:#589ef4"/><path class="st60" d="m4041.3 429.5-.4 23.8a38 38 0 0 0 37.2 38.7l278.9 4.5.1-4.7a48.6 48.6 0 0 1-25.9-43.8l.1-8.4c.3-19 11.4-35.2 27.3-42.9v-.1l-278.9-4.5a37.7 37.7 0 0 0-38.4 37.4z"/><path d="M4364.2 498.2h-293.8c-19 0-33.8-23.9-33.8-54.4s14.8-54.4 33.8-54.4h293.8c2.4 0 4.4 2 4.4 4.4s-2 4.5-4.4 4.5h-293.8c-13.5 0-25 20.8-25 45.5 0 24.6 11.4 45.5 25 45.5h293.8a4.5 4.5 0 0 1 0 8.9z" style="fill:#3288e3"/><path class="st62" d="M4124.1 418.5h212.1v.6h-212.1zM4236.7 428.4h95.9v.6h-95.9zM4165.3 462.1h167.3v.6h-167.3z"/></g><g><path class="st66" d="m4768.1 419.2-166.7 8.2V260.7l166.7-8.2z"/><path class="st9" d="m4613.9 407.8 49.2-91.2 36.3 47.6 18-20.7 38.3 57.3zM4686.6 302.7c0-7 5.7-13 12.7-13.4a12 12 0 0 1 12.7 12.1c0 7-5.7 13-12.7 13.4a12 12 0 0 1-12.7-12.1z"/><path class="st66" d="M5254.4-19.4 5014.2-7.5v-240.2l240.2-11.8z"/><path class="st9" d="m5032.2-35.9 71-131.4 52.1 68.6 26.1-29.7 55.2 82.5zM5137-187.3c0-10.1 8.2-18.8 18.4-19.3a17.4 17.4 0 0 1 18.4 17.5c0 10.1-8.2 18.8-18.4 19.3a17.3 17.3 0 0 1-18.4-17.5z"/><path class="st63" d="m4836.2-54.2-234.8 11.5v-13.6l234.8-11.6z"/><path class="st57" d="M4727.3-21.2 4601.4-15v-6.8l125.9-6.2zM4690.4 3.4l-89 4.4V.9l89-4.3zM4796.7-1.8l-89 4.4v-6.9l89-4.4zM4917.8-7.8l-108.5 5.4v-6.9l108.5-5.3zM4678.6 26.3l-77.2 3.8v-6.9l77.2-3.8zM4770.9 21.7l-77.3 3.8v-6.8l77.3-3.8zM4876.1 16.6l-94.2 4.6v-6.8l94.2-4.7z"/><g><path class="st63" d="m4836.2-205.9-234.8 11.6V-208l234.8-11.6z"/><path class="st57" d="m4727.3-172.8-125.9 6.2v-6.9l125.9-6.2zM4877.6-180.2l-125.9 6.2v-6.9l125.9-6.2zM4690.4-148.3l-89 4.4v-6.8l89-4.4zM4796.7-153.5l-89 4.4v-6.8l89-4.4zM4917.8-159.4l-108.5 5.3v-6.8l108.5-5.4zM4678.6-125.4l-77.2 3.8v-6.8l77.2-3.8zM4770.9-129.9l-77.3 3.8v-6.9l77.3-3.8zM4876.1-135.1l-94.2 4.6v-6.8l94.2-4.6z"/></g><g><path class="st63" d="m5178.1 26.5-165.2 8.1V25l165.2-8.1z"/><path class="st57" d="m5101.4 49.8-88.5 4.3v-4.8l88.5-4.3zM5207.2 44.6l-88.6 4.3v-4.8l88.6-4.3zM5075.5 67l-62.6 3.1v-4.8l62.6-3.1zM5150.2 63.4l-62.6 3.1v-4.9l62.6-3zM5235.4 59.2l-76.2 3.7v-4.8l76.2-3.7zM5067.2 83.1l-54.3 2.7V81l54.3-2.7zM5132.1 79.9l-54.3 2.7v-4.8l54.3-2.7zM5206.1 76.3l-66.2 3.3v-4.8l66.2-3.3z"/></g><g><path class="st63" d="m4836.2 100.7-234.8 11.6V98.6l234.8-11.5z"/><path class="st57" d="m4727.3 133.8-125.9 6.2v-6.9l125.9-6.2zM4877.6 126.4l-125.9 6.2v-6.9l125.9-6.1zM4690.4 158.4l-89 4.3v-6.8l89-4.4zM4796.7 153.1l-89 4.4v-6.8l89-4.4zM4917.8 147.2l-108.5 5.3v-6.8l108.5-5.4zM4678.6 181.2l-77.2 3.8v-6.8l77.2-3.8zM4770.9 176.7l-77.3 3.8v-6.9l77.3-3.8zM4876.1 171.5l-94.2 4.6v-6.8l94.2-4.6z"/></g><g><path class="st63" d="m4992.5 338.5-181.4 8.9v-13.6l181.4-8.9z"/><path class="st57" d="m4908.3 370.4-97.2 4.7v-6.8l97.2-4.8zM5024.5 364.6l-97.3 4.8v-6.8l97.3-4.8zM4879.8 394.5l-68.7 3.4v-6.8l68.7-3.4zM4961.9 390.5l-68.7 3.4V387l68.7-3.4zM5055.5 385.9l-83.8 4.1v-6.8l83.8-4.2zM4870.8 417.2l-59.7 3v-6.9l59.7-2.9zM4942 413.7l-59.6 3v-6.9l59.6-2.9zM5023.3 409.8l-72.8 3.5v-6.8l72.8-3.6z"/></g></g><g><path class="st66" d="m4464.3 84.2-261.7-9.5v-261.8l261.7 9.5z"/><path class="st9" d="m4222.2 45.5 77.3-136.6 56.9 79.6 28.3-30 60.2 95.1zM4336.4-109.8c0-11 9-19.7 20-19.3 11 .4 20 9.7 20 20.7s-9 19.7-20 19.3c-11.1-.3-20-9.6-20-20.7z"/><path class="st63" d="m4439.4 122.3-234.8-8.6v-13.6l234.8 8.5z"/><path class="st57" d="m4330.5 146-125.9-4.6v-6.8l125.9 4.6zM4293.6 167.4l-89-3.2v-6.9l89 3.3zM4399.8 171.3l-89-3.3v-6.8l89 3.2zM4521 175.7l-108.5-4v-6.8l108.5 3.9zM4281.8 189.3l-77.2-2.8v-6.9l77.2 2.8zM4374.1 192.6l-77.3-2.8V183l77.3 2.8zM4479.3 196.4l-94.2-3.4v-6.8l94.2 3.4z"/><g><path class="st63" d="m4439.4 283.3-234.8-8.5v-13.7l234.8 8.5z"/><path class="st57" d="m4330.5 307-125.9-4.5v-6.9l125.9 4.6zM4480.8 312.5l-125.9-4.6v-6.8l125.9 4.5zM4293.6 328.4l-89-3.2v-6.8l89 3.2zM4399.8 332.3l-89-3.2v-6.9l89 3.3zM4521 336.7l-108.5-3.9v-6.9l108.5 4zM4281.8 350.3l-77.2-2.8v-6.8l77.2 2.8zM4374.1 353.7l-77.3-2.8V344l77.3 2.8zM4479.3 357.5l-94.2-3.4v-6.9l94.2 3.4z"/></g><g><path class="st63" d="m4099.3-175.5-234.8-8.5v-13.7l234.8 8.5z"/><path class="st57" d="m3990.4-151.7-125.9-4.6v-6.9l125.9 4.6zM4140.7-146.3l-125.9-4.6v-6.8l125.9 4.6zM3953.5-130.3l-89-3.3v-6.8l89 3.2zM4059.7-126.5l-89-3.2v-6.8l89 3.2zM4180.9-122.1l-108.5-3.9v-6.8l108.5 3.9zM3941.7-108.5l-77.2-2.8v-6.8l77.2 2.8zM4034-105.1l-77.3-2.8v-6.9l77.3 2.8zM4139.2-101.3l-94.2-3.4v-6.9l94.2 3.5z"/></g></g><g><path class="st67" d="m3697.2 616.6.2 3.3c.4 3.5 1.5 6.7 3.1 9.6a26.8 26.8 0 0 0 23.7 14.1h379.6a27 27 0 0 0 0-54h-379.6a27 27 0 0 0-27 27zM3726.1 584.7h130.1c2.3 0 4.1-1.9 4.1-4.1 0-2.3-1.9-4.1-4.1-4.1h-130.1a4.1 4.1 0 0 0-4.1 4.1c0 2.2 1.8 4.1 4.1 4.1z"/><path class="st57" d="M3733.3 584.7h14.1v4.9h-14.1z"/><path class="st67" d="M3700.4 629.5a26.8 26.8 0 0 0 23.7 14.1h80.4v-14.1h-104.1z"/><path class="st57" d="M4181 608.7v15.8a19.1 19.1 0 0 1-19.1 19.1h-395.4a19.1 19.1 0 0 1-19.1-19.1v-15.8c0-10.5 8.5-19.1 19.1-19.1h395.4a19 19 0 0 1 19.1 19.1z"/><path d="M4180.3 629.5a19.1 19.1 0 0 1-18.4 14.1h-395.4c-8.8 0-16.2-6-18.4-14.1h432.2z" style="fill:#092b44"/><path d="M4141.7 616.7c0 8.4 3 15.9 7.9 20.8l.3.3a19 19 0 0 0 13.5 5.9c8 0 27.8-12.1 40.1-20.1l10.4-7-10.4-7c-12.3-8-32.1-20.1-40.1-20.1-2.3 0-4.5.5-6.6 1.3a22 22 0 0 0-9.2 7.2 30.1 30.1 0 0 0-5.5 13.2v.2c-.2 1.7-.4 3.5-.4 5.3z" style="fill:#c7e0fd"/><path d="M4141.7 616.7c0 8.4 3 15.9 7.9 20.8l60.9-20.9-68.3-5.1c-.3 1.6-.5 3.4-.5 5.2z" style="fill:#9cc7f0"/><path d="m4147.6 598.1 60.7 16.6-51.6-23.8a22.3 22.3 0 0 0-9.1 7.2z" style="fill:#dff0ff"/><path class="st57" d="M4199.6 616.7c0 3.2 1.7 6 4 7l10.4-7-10.4-7c-2.3 1-4 3.7-4 7z"/></g><g><path class="st38" d="M3828.3 645.7c3.4 0 6.9-2.4 7.9-5.5l203.4-624.8c1-3.1-.9-5.6-4.3-5.6a8.6 8.6 0 0 0-7.9 5.5L3824 640.2c-1 3 1 5.5 4.3 5.5zM3664.4 644.8c3.4 0 6.9-2.4 7.9-5.5l203.4-624.8c1-3.1-.9-5.6-4.3-5.6a8.6 8.6 0 0 0-7.9 5.5l-203.4 624.8c-1 3.1 1 5.5 4.3 5.6z"/><path class="st38" d="m3840.9 101.5 164.6 1c3.2 0 6.5-2.3 7.5-5.2.9-2.9-.9-5.2-4.1-5.3l-164.6-1a8.3 8.3 0 0 0-7.5 5.2c-.9 2.9.9 5.3 4.1 5.3zM3805.4 210.6l164.6 1c3.2 0 6.5-2.3 7.5-5.2.9-2.9-.9-5.2-4.1-5.3l-164.6-1a8.3 8.3 0 0 0-7.5 5.2c-.9 2.9.9 5.3 4.1 5.3zM3771.2 315.7l164.6 1c3.2 0 6.5-2.3 7.5-5.2.9-2.9-.9-5.2-4.1-5.3l-164.6-1a8.3 8.3 0 0 0-7.5 5.2c-.9 2.9.9 5.3 4.1 5.3zM3732.7 434l164.6 1c3.2 0 6.5-2.3 7.5-5.2.9-2.9-.9-5.2-4.1-5.3l-164.6-1a8.3 8.3 0 0 0-7.5 5.2c-.9 2.9.9 5.2 4.1 5.3zM3692.4 557.8l164.6 1c3.2 0 6.5-2.3 7.5-5.2.9-2.9-.9-5.2-4.1-5.3l-164.6-1a8.3 8.3 0 0 0-7.5 5.2c-.9 2.9.9 5.2 4.1 5.3z"/><g><path class="st72" d="M3999.2-122.9s2-4.4 3.2-6.5c1.3-2.1 6.7-8.2 7.6-6.8.9 1.4 4.6 10.7 2.6 13.3-2 2.6.1 7.1-9.6 9.9l-3.8-9.9z"/><path class="st73" d="M3891.3-150.6s49.7 41.5 69.1 37.6c15.2-3 38.4-11 38.4-11l4.7 11.9s-20.9 28.3-42.6 28.5c-34 .3-59.1-14.7-59.1-14.7l-10.5-52.3z"/><path class="st74" d="M3804.2 287s1.4 23.3 5.9 23.6h22.8l28.4-.2s-.2-6.8-8.5-8.3c-8.3-1.4-22.2-7.3-27.2-18.2-5.3-11.5-21.4 3.1-21.4 3.1z"/><path class="st63" d="M3802.5 288.6s8.6 2.9 15.4 2.9c7.5 0 14.3-2 14.3-2s1.6-15.7 10.6-50.3c4.7-18.1 11.4-41.5 20.9-70.5 26.3-80.1 34.3-127 35.1-131.4l.1-.4h-.1l-81-35.5s10 110.4-2.8 152.8c-1.8 5.9-3.3 12.8-4.6 20.3-8.1 45.9-7.9 114.1-7.9 114.1z"/><path class="st43" d="M3842.8 239.1c4.7-18.1 11.4-41.5 20.9-70.5 26.3-80.1 34.3-127 35.1-131.4v-.4l-81-35.5s10 110.4-2.8 152.8c-1.8 5.9 27.8 85 27.8 85z"/><path class="st74" d="M3867.4 287s1.4 23.3 5.9 23.6h22.8l28.4-.2s-.2-6.8-8.5-8.3c-8.3-1.4-22.2-7.3-27.2-18.2-5.2-11.5-21.4 3.1-21.4 3.1z"/><path class="st63" d="M3913.3 3.9s1.1 71.6-11.3 159.4c-12.4 87.9-8.2 125.2-8.2 125.2s-8.5 2.8-11.9 3c-8.7.7-17.7-2-17.7-2s-17.7-87.9-12.6-131.9-24.4-150.9-24.4-150.9l86.1-2.8z"/><path class="st72" d="m3855.9-163.6 15.8 10.4 14.4-4.1c2.6-3.8 3.3-11 3.4-17.3 0-6.2-.6-11.5-.6-11.5l-21.3-9.4-8-3.5.7 7.5c1.5 16.6-4.4 27.9-4.4 27.9z"/><path class="st57" d="M3913.7 23.8c-19.7 19-94.1 15.8-98.7-5.1-4.6-20.9 5-178.1 38.6-188 7-2 44.3 10 44.3 10s5.8 15.3 9.7 34.8c.7 3.8 2.9 44 4.5 81.6.8 17.6 1.4 34.6 1.7 47.1.3 11.5.3 19.1-.1 19.6z"/><path d="M3861.9-191.2c4.3 7.3 19.5 13.7 27.5 16.6 0-6.2-.6-11.5-.6-11.5l-21.3-9.4c-4.7 0-7.5 1-5.6 4.3z" style="fill:#ff9d5f"/><path class="st72" d="M3896.9-187.4s-34.4 10.7-40.7-10.8-15.1-34.6 6.6-42.3c21.7-7.8 28.4-.8 32.2 5.8 3.9 6.7 10.7 44 1.9 47.3z"/><path d="M3893.7-236.7s-2.2 25-7.4 23.9c-5.2-1.1-10.9-3.4-10.1 4.1s-5 20.5-12.5 20.4c-16-.1-33.4-41.1-29-48.9 12.7-22.4 77.3-26.9 59 .5z" style="fill:#013763"/><path class="st73" d="M3888.7-168.8c-.4-.2-25.6-11.5-28.5-10.5-2.9 1-6.6 9.9-6.6 9.9l44.3 10c-.1 0-3.6-7.1-9.2-9.4z"/><path class="st77" d="M4045.1-47.1 3904.3 85.6c-2.8 2.6-6.2 3.4-7.7 1.8l-4.8-5.1c-1.5-1.6-.5-5 2.3-7.6L4035-57.9c2.8-2.6 6.2-3.4 7.7-1.8l4.8 5.1c1.4 1.5.4 4.9-2.4 7.5z"/><path d="m3966.1 27.4-61.8 58.2c-2.8 2.6-6.2 3.4-7.7 1.8l-4.8-5.1c-1.5-1.6-.5-5 2.3-7.6l61.8-58.2 10.2 10.9z" style="fill:#649bf5"/><path class="st77" d="M4012.8-97.2a110.4 110.4 0 1 0 183.1-111l-1.7-1.7a110.4 110.4 0 0 0-181.4 112.7zm31.5-101.9a101.3 101.3 0 0 1 143.8-4.4 101.7 101.7 0 1 1-143.8 4.4z"/><g style="opacity:.5"><path d="M4192.5-59.7a101.4 101.4 0 0 1-143.8 4.4 101.7 101.7 0 1 1 143.8-4.4z" style="fill:#a8cffb"/></g><path class="st73" d="M3913.8 4c-77.6-55.3-71.2-129.1-71.2-129.1 28.4 16 56.5 51.4 69.4 82.1.8 17.5 1.4 34.6 1.8 47z"/><g><path class="st72" d="M3990.4-21.2c5.5-1.3 9.2-5.4 9.9-6.1 0 0 2.3.2-.4 5.1l-1.1 2.2c-.2.3.1.7.4.7 3.2.2 6.3-1 12.4.3.8.2 1.1 2.2 1.1 3-.1 1.5.1 3.1-1.6 5.3-1 1.3-3.7 2.7-9.8 5.1-2.3.9-9 .2-15.2-1.9l-5-2.3 1.5-9.2 1.2.3c2.1.4 4.5-2 6.6-2.5z"/><path class="st57" d="M3866.7-159.4s-69.8 13.3 20.5 114.3c14.4 16.2 92.4 37.2 92.4 37.2s7.9-6.7 3.9-12.2c0 0-53.7-39-65.5-45.2-5.3-2.8-20.6-62.2-29.3-76.6-8.6-14.3-22-17.5-22-17.5z"/></g><path class="st72" d="M4001.1-121.7s2.3-4.4 2.7-6.7c.4-2.3 3.3-9 4.5-10.2.5-.5 2 .1 2.2 2.2.1.9-.4 2.5-1.1 4.4-1.2 3.1-1 7.4-1.5 8.8-1 3.5-6.8 1.5-6.8 1.5z"/></g></g><path d="m5702.6 654.1-2103.3-.7c-1.6 0-2.8-1.5-2.8-3.4v-2.7c0-1.9 1.3-3.4 2.8-3.4l2103.3.7c1.6 0 2.8 1.5 2.8 3.4v2.7c.1 1.8-1.2 3.4-2.8 3.4z" style="fill:#2c3554"/></g></g><g><image style="overflow:visible;opacity:.3" width="2717" height="2380" xlink:href="C6F907C3AFC52A01.png" transform="matrix(.24 0 0 .24 1633.4 1290)"/><path class="st8" d="M2101.3 1525.6s126.2-17.5 141.2-.8c16.5 18.4 32.4 169 9.9 262.2-12.6 52.5-32 54.9-59.6 50.9l-121.4-17.7 29.9-294.6z"/><path class="st9" d="M2114.5 1529.8c-9.6-6.7-89.3-28.2-123.7-83.3-37.1-59.4-29.3-153.9-77.6-148-46.9 5.8-51.4 179.5-51.6 190 0 .3-.2.5-.5.5-9.7-.5-136.3-4.6-172.5 17.9-40.4 25-12.4 68.9-12.4 68.9-13 3.1-64.9 32.2-9.1 89.5.3.3.2.7 0 1-8.1 9.3-51.5 51 24.5 86.9 0 0-33.3 50.9 22.7 70.6 55.9 19.8 335.7 12.4 357.3-3.7 52.3-39.1 84.5-261.3 42.9-290.3z"/></g><path class="st8" d="M1251.2 315.4H1913v8.5h-661.8zM1251.2 376.2H1913v8.5h-661.8zM1251.2 437H1913v8.5h-661.8zM1251.2 497.9H1913v8.5h-661.8zM1251.2 558.7H1913v8.5h-661.8zM1251.2 619.5H1913v8.5h-661.8zM1251.2 680.4H1913v8.5h-661.8zM1251.2 741.2H1913v8.5h-661.8zM1251.2 802H1913v8.5h-661.8zM1251.2 862.9h390.5v8.5h-390.5zM1251.2 923.7h390.5v8.5h-390.5zM1251.2 984.5h390.5v8.5h-390.5z"/><path class="st9" d="M1386.9 1394.6h390.5v8.5h-390.5zM1386.9 1445.5h390.5v8.5h-390.5z"/><image style="overflow:visible" width="325" height="325" xlink:href="free-icon-pdf-337946 1.png" transform="translate(1153.8 1318.7) scale(.5991)"/><image style="overflow:visible;opacity:.7" width="325" height="325" xlink:href="free-icon-pdf-337946 1.png" transform="translate(322.3 1264) scale(.5026)"/><image style="overflow:visible;opacity:.7" width="325" height="325" xlink:href="free-icon-pdf-337946 1.png" transform="translate(2175.5 1264) scale(.5026)"/><path class="st82" d="M404 447.5h518.4v6.7H404zM404 495.2h518.4v6.7H404zM404 542.8h518.4v6.7H404zM404 590.5h518.4v6.7H404zM404 638.2h518.4v6.7H404zM404 685.8h518.4v6.7H404zM404 733.5h518.4v6.7H404zM404 781.1h518.4v6.7H404zM404 828.8h518.4v6.7H404zM404 876.4h305.9v6.7H404zM404 924.1h305.9v6.7H404zM404 971.7h305.9v6.7H404zM2246.6 447.5H2765v6.7h-518.4zM2246.6 495.2H2765v6.7h-518.4zM2246.6 542.8H2765v6.7h-518.4zM2246.6 590.5H2765v6.7h-518.4zM2246.6 638.2H2765v6.7h-518.4zM2246.6 685.8H2765v6.7h-518.4zM2246.6 733.5H2765v6.7h-518.4zM2246.6 781.1H2765v6.7h-518.4zM2246.6 828.8H2765v6.7h-518.4zM2246.6 876.4h305.9v6.7h-305.9zM2246.6 924.1h305.9v6.7h-305.9zM2246.6 971.7h305.9v6.7h-305.9z"/><path class="st9" d="M508.3 1324.6h305.9v6.7H508.3zM508.3 1362.3h305.9v6.7H508.3z"/><path class="st83" d="m1294.8 1123.9 7.9 24.7a3.6 3.6 0 0 0 3.4 2.5h25.6c3.5 0 5 4.5 2.1 6.6l-20.7 15.3a3.6 3.6 0 0 0-1.3 4.1l7.9 24.7a3.6 3.6 0 0 1-5.6 4.1l-20.8-15.3c-1.3-.9-3-.9-4.3 0l-20.7 15.3c-2.8 2.1-6.6-.7-5.6-4.1l7.9-24.8c.5-1.5 0-3.2-1.3-4.1l-20.8-15.3c-2.8-2.1-1.4-6.6 2.1-6.6h25.6c1.6 0 3-1 3.4-2.5l7.9-24.8c1.5-3.2 6.2-3.2 7.3.2zM1397.6 1123.8l7.9 24.7a3.6 3.6 0 0 0 3.4 2.5h25.6c3.5 0 5 4.5 2.1 6.6l-20.7 15.3a3.6 3.6 0 0 0-1.3 4.1l7.9 24.7a3.6 3.6 0 0 1-5.6 4.1l-20.8-15.3c-1.3-.9-3-.9-4.3 0l-20.7 15.3c-2.8 2.1-6.6-.7-5.6-4.1l7.9-24.8c.5-1.5 0-3.2-1.3-4.1l-20.8-15.3c-2.8-2.1-1.4-6.6 2.1-6.6h25.6c1.6 0 3-1 3.4-2.5l7.9-24.8c1.5-3.2 6.3-3.2 7.3.2zM1500.7 1123.3l7.9 24.8a3.6 3.6 0 0 0 3.4 2.5l25.6.1c3.5 0 4.9 4.6 2.1 6.6l-20.8 15.2a3.6 3.6 0 0 0-1.3 4.1l7.9 24.8a3.6 3.6 0 0 1-5.6 4.1l-20.7-15.4c-1.3-.9-3-.9-4.3 0l-20.8 15.2c-2.8 2.1-6.6-.7-5.6-4.1l8-24.7c.5-1.5 0-3.2-1.3-4.1l-20.7-15.4c-2.8-2.1-1.4-6.6 2.1-6.6l25.6.1c1.6 0 3-1 3.4-2.5l8-24.7c1.3-3.4 6-3.4 7.1 0zM1603.5 1123.6l7.9 24.8a3.6 3.6 0 0 0 3.4 2.5l25.6.1c3.5 0 4.9 4.6 2.1 6.6l-20.8 15.2a3.6 3.6 0 0 0-1.3 4.1l7.9 24.8a3.6 3.6 0 0 1-5.6 4.1l-20.7-15.4c-1.3-.9-3-.9-4.3 0l-20.8 15.2c-2.8 2.1-6.6-.7-5.6-4.1l8-24.7c.5-1.5 0-3.2-1.3-4.1l-20.7-15.4c-2.8-2.1-1.4-6.6 2.1-6.6l25.6.1c1.6 0 3-1 3.4-2.5l8-24.7c1.3-3.4 6-3.4 7.1 0zM1706.4 1123.9l7.9 24.8a3.6 3.6 0 0 0 3.4 2.5l25.6.1c3.5 0 4.9 4.6 2.1 6.6l-20.8 15.2a3.6 3.6 0 0 0-1.3 4.1l7.9 24.8a3.6 3.6 0 0 1-5.6 4.1l-20.7-15.4c-1.3-.9-3-.9-4.3 0l-20.8 15.2c-2.8 2.1-6.6-.7-5.6-4.1l8-24.7c.5-1.5 0-3.2-1.3-4.1l-20.7-15.4c-2.8-2.1-1.4-6.6 2.1-6.6l25.6.1c1.6 0 3-1 3.4-2.5l8-24.7c1.3-3.4 6-3.4 7.1 0z"/><g><path class="st43" d="M2448.8 901.1s83.3 86 87.3 118.4c4 32.4-39.6 83.2-39.6 83.2l-47.7-201.6z"/><path class="st11" d="M2413.2 1793.2s-2.8 45.7-11.7 46.4l-44.9.1-55.8-.3s.4-13.4 16.7-16.3c16.3-2.8 43.6-14.3 53.5-35.8 10.4-22.7 42.2 5.9 42.2 5.9zM2537.4 1793.2s-2.8 45.7-11.7 46.4l-44.9.1-55.9-.2s.5-13.6 16.8-16.4c16.3-2.8 43.6-14.3 53.5-35.8 10.4-22.7 42.2 5.9 42.2 5.9z"/><path class="st11" d="M2351.4 1303s14.6 93.3 69 258.9c54.4 165.6 61.8 237.3 61.8 237.3s14.7 2.1 30.3 2.1c9.8 0 28.1-3.8 28.1-3.8s.5-181-24.6-264.2c-25.1-83.3-5.4-300.2-5.4-300.2l-159.2 69.9z"/><path class="st32" d="M2323 1238.2s-2.1 140.6 22.3 313.1c24.3 172.6 16.1 245.8 16.1 245.8s20 3.6 27.1 3.8c7.5.2 31.2-1.9 31.2-1.9s34.8-172.6 24.8-259 47.7-296.4 47.7-296.4l-169.2-5.4z"/><path class="st10" d="m2435.8 909.3-27.5 20.3-39.7-8.4c.5-3.6 3.2-18.6 5.6-32.2l.4-2.4 3.8-21.5 37.1-18.5 13.8-6.9-1.2 14.7a118.9 118.9 0 0 0 7.7 54.9z"/><path class="st43" d="M2371.4 899c.9-.4 54-16 59.8-14.1 5.8 1.9 9.2 13.1 9.2 13.1l-86.9 19.6s6.8-13.9 17.9-18.6z"/><path class="st42" d="M2514.5 1255.5c-9 41.1-158.9 46-197.6 8.7-4.4-4.3-4.6-24-3-50.7 3.2-52.1 13.7-130.5 14.1-170.5a322 322 0 0 1 6.4-57.1c7.5-38.3 19-68.3 19-68.3s73.2-23.7 86.9-19.6c66.1 19.3 83.2 316.4 74.2 357.5z"/><path class="st43" d="M2314 1213.5c3.2-52.1 13.7-130.5 14.1-170.5a322 322 0 0 1 6.4-57.1l44-7.8s43 175.9-64.5 235.4z"/><path class="st10" d="M2337.8 1140.9s3 7.2-3.3 12-10.4 12.6-9 18.3c1.4 5.7 15.3 15 20.1 13.5 4.8-1.5 14.6-9 13.5-12-1.1-3 6.6-26.4-5.1-35.4s-16.2 3.6-16.2 3.6z"/><path class="st42" d="M2387.1 907s-43 8-77.2 58.5c-34.2 50.4-56.7 87.9-50.4 106.1 6.3 18.2 63.8 81.2 73.7 81.2 9.9 0 25.9-7.2 26.8-23.4 0 0-40.5-60.6-32.5-69.7 3.4-3.9 52.5-43.8 59.5-25.7 11.6 29.8.1-127 .1-127z"/><path d="M2425.3 855c-8.1 15.6-38.5 29.1-51.1 34l.4-2.4 3.8-21.5 37.1-18.5c8.2-.1 13.2 2 9.8 8.4z" style="fill:#fca56b"/><path class="st10" d="M2366.5 866s54.9 17.1 65-17.2c10.1-34.3 24-55.3-10.6-67.7-34.6-12.4-45.3-1.3-51.5 9.3-6.1 10.7-17 70.2-2.9 75.6z"/><path class="st11" d="M2371.6 787.1s3.5 40 11.8 38.2c8.3-1.7 15.8-3 14.6 9-1.2 12-12.7 26 12.8 28.1 25.5 2.1 62.1-63.6 55.1-76-20.3-35.8-123.5-43-94.3.7z"/></g></svg>