<svg width="708" height="454" viewBox="0 0 708 454" fill="none" xmlns="http://www.w3.org/2000/svg">
<path d="M801.244 415.937C800.687 418.304 800.047 420.756 799.35 423.207C798.709 425.658 797.874 428.249 796.982 430.839C796.565 432.093 704.392 453.346 704.392 453.346L680.047 453.29H462.136L398.487 453.207H230.744L160.66 453.151H57.68C43.2511 453.151 30.4099 443.987 25.7024 430.338C25.3124 429.168 24.9224 428.054 24.5882 427.051C22.6662 421.09 20.5492 414.265 18.4043 406.717C17.3458 403.012 16.2873 399.14 15.2288 395.101C14.1982 391.118 13.1397 386.995 12.1648 382.733C11.9419 381.842 11.747 380.923 11.5241 380.004C11.4127 379.558 11.3291 379.14 11.2177 378.694V378.667C10.4099 375.157 9.62997 371.508 8.87789 367.831C5.75811 352.734 3.08402 336.494 1.52414 319.837C0.214947 305.993 -0.342155 291.898 0.214947 277.887C0.354223 274.6 0.577064 271.313 0.772049 268.026C1.32915 261.034 2.1648 254.043 3.36257 247.246C4.14252 242.622 5.11745 238.026 6.23165 233.542C8.90574 222.567 12.6105 212.065 17.513 202.149C19.2678 198.723 21.0784 195.352 23.1118 192.065C27.6522 184.572 32.2762 177.581 36.9558 171.007H37.0115C39.4628 167.525 41.914 164.238 44.3653 161.09C53.5296 149.196 62.8332 139.001 72.1925 130.171C187.234 22.5391 319.128 126.383 400.744 54.1546C480.548 -16.4024 629.852 -17.433 696.62 47.6644C697.874 48.9179 699.211 50.1713 700.464 51.5641C705.896 57.3301 710.715 63.5696 714.782 70.3106C716.676 73.4303 718.431 76.6615 719.991 79.9763C729.573 100.199 733.111 124.21 728.515 151.982C727.651 157.302 726.453 162.734 724.977 168.305C724.949 168.444 724.921 168.583 724.866 168.695C721.969 179.335 717.985 190.394 712.749 202.065C712.414 202.817 712.052 203.597 711.718 204.349C711.161 205.547 710.604 206.717 710.047 207.915C696.983 235.269 700.994 254.767 712.776 271.313C717.428 277.859 723.333 283.959 729.852 289.892C744.058 302.845 761.189 314.99 775.45 329.558C777.345 331.508 779.155 333.486 780.966 335.491C781.718 336.355 782.442 337.246 783.194 338.11C785.033 340.338 786.815 342.622 788.514 344.99C788.626 345.129 788.709 345.268 788.793 345.408C795.478 354.962 800.492 365.658 802.721 378.11C802.748 378.277 802.776 378.444 802.804 378.611V378.639C804.698 389.614 804.42 401.898 801.244 415.937Z" fill="#EBF3FA"/>
<path d="M394.791 96.2857C394.791 96.2857 399.248 89.3777 409.86 90.1576C409.86 90.1576 425.292 78.6534 441.755 88.6256C441.755 88.6256 459.247 86.1465 472.2 90.7704C480.835 93.8345 483.676 97.0657 483.676 97.0657L394.791 96.2857Z" fill="#F8FCFF"/>
<path opacity="0.5" d="M243.195 258.054C243.195 258.054 200.911 252.622 184.56 267.971C168.237 283.319 176.761 302.121 151.274 301.425C125.786 300.728 111.19 337.859 109.769 358.332C108.349 378.806 117.736 381.146 117.736 381.146H249.073L243.195 258.054Z" fill="#9BCC8F"/>
<path d="M801.495 378.306H243.697V168.307H734.977C734.949 168.446 734.922 168.585 734.866 168.697C731.969 179.337 727.986 190.396 722.749 202.067C722.415 202.819 722.053 203.599 721.718 204.351C721.161 205.549 720.604 206.719 720.047 207.917C706.983 235.27 710.994 254.769 722.777 271.315C727.429 277.861 733.334 283.961 739.852 289.894C754.058 302.847 771.189 314.992 785.451 329.56C787.345 331.51 789.156 333.487 790.966 335.493C791.718 336.356 792.442 337.248 793.195 338.111C795.033 340.34 796.816 342.624 798.515 344.992C798.626 345.131 798.71 345.27 798.793 345.409L801.495 378.306Z" fill="#F2CCAA"/>
<path d="M370.27 168.307H313.474V372.93H370.27V168.307Z" fill="#F9DDBF"/>
<path d="M787.512 349.421H238.293V378.836H787.512V349.421Z" fill="#DDAF8A"/>
<path d="M720.047 207.944C706.983 235.298 710.994 254.797 722.777 271.343V372.93H665.953V168.307H722.777V202.095C722.443 202.847 722.081 203.627 721.746 204.379C721.161 205.577 720.604 206.775 720.047 207.944Z" fill="#F9DDBF"/>
<path d="M578.18 139.308H442.442V375.937H578.18V139.308Z" fill="#F9DDBF"/>
<path d="M421.691 274.185H402.694V280.926H421.691V274.185Z" fill="#FFF2E6"/>
<path d="M417.429 280.898H406.955V378.308H417.429V280.898Z" fill="#FFF2E6"/>
<path d="M406.955 285.3C406.955 285.3 408.515 282.43 412.192 282.542C416.203 282.681 417.429 285.3 417.429 285.3V280.898H406.955V285.3Z" fill="#DDAF8A"/>
<path d="M421.691 274.157H402.694V275.327H421.691V274.157Z" fill="#DDAF8A"/>
<path d="M475.089 274.185H456.091V280.926H475.089V274.185Z" fill="#FFF2E6"/>
<path d="M470.827 280.898H460.353V378.308H470.827V280.898Z" fill="#FFF2E6"/>
<path d="M460.353 285.3C460.353 285.3 461.913 282.43 465.59 282.542C469.601 282.681 470.827 285.3 470.827 285.3V280.898H460.353V285.3Z" fill="#DDAF8A"/>
<path d="M475.089 274.157H456.091V275.327H475.089V274.157Z" fill="#DDAF8A"/>
<path d="M566.148 274.185H547.15V280.926H566.148V274.185Z" fill="#FFF2E6"/>
<path d="M561.886 280.898H551.412V378.308H561.886V280.898Z" fill="#FFF2E6"/>
<path d="M551.412 285.3C551.412 285.3 552.944 282.43 556.649 282.542C560.66 282.681 561.886 285.3 561.886 285.3V280.898H551.412V285.3Z" fill="#DDAF8A"/>
<path d="M566.148 274.157H547.15V275.327H566.148V274.157Z" fill="#DDAF8A"/>
<path d="M625.089 274.185H606.092V280.926H625.089V274.185Z" fill="#FFF2E6"/>
<path d="M620.827 280.898H610.353V378.308H620.827V280.898Z" fill="#FFF2E6"/>
<path d="M610.353 285.3C610.353 285.3 611.885 282.43 615.59 282.542C619.601 282.681 620.827 285.3 620.827 285.3V280.898H610.353V285.3Z" fill="#DDAF8A"/>
<path d="M625.089 274.157H606.092V275.327H625.089V274.157Z" fill="#DDAF8A"/>
<path d="M533.417 377.917H488.71V323.377C488.71 311.26 498.543 301.427 510.66 301.427H512.721C524.142 301.427 533.39 310.675 533.39 322.095V377.917H533.417Z" fill="#F2CCAA"/>
<path d="M290.27 236.833H267.735V212.209C267.735 206.359 272.47 201.624 278.32 201.624H280.326C285.841 201.624 290.298 206.081 290.298 211.596V236.833H290.27Z" fill="#DDAF8A"/>
<path d="M280.297 200.813H278.292C272.024 200.813 266.899 205.911 266.899 212.206V237.638H291.049V211.593C291.049 205.632 286.23 200.813 280.297 200.813ZM278.292 202.429H280.297C285.339 202.429 289.462 206.552 289.462 211.593V236.022H268.515V212.206C268.515 212.123 268.515 212.011 268.515 211.928C268.654 206.663 272.999 202.429 278.292 202.429Z" fill="white"/>
<path d="M289.88 211.93H267.874V213.462H289.88V211.93Z" fill="white"/>
<path d="M279.629 212.681H278.153V236.692H279.629V212.681Z" fill="white"/>
<path d="M273.334 192.321C273.334 192.321 278.153 190.705 285.618 192.321L283.028 198.783C283.028 198.783 279.462 198.309 275.953 198.783L273.334 192.321Z" fill="#DDAF8A"/>
<path d="M275.006 198.949L272.192 193.462C272.192 193.462 269.128 194.075 268.014 195.272L272.666 199.506L275.006 198.949Z" fill="#DDAF8A"/>
<path d="M283.919 198.978L286.482 193.574C286.482 193.574 289.156 193.853 290.66 195.385L286.036 199.535L283.919 198.978Z" fill="#DDAF8A"/>
<path d="M352.304 236.833H329.77V212.209C329.77 206.359 334.505 201.624 340.354 201.624H342.36C347.875 201.624 352.332 206.081 352.332 211.596V236.833H352.304Z" fill="#DDAF8A"/>
<path d="M342.332 200.813H340.326C334.059 200.813 328.933 205.911 328.933 212.206V237.638H353.084V211.593C353.112 205.632 348.293 200.813 342.332 200.813ZM340.326 202.429H342.332C347.373 202.429 351.496 206.552 351.496 211.593V236.022H330.577V212.206C330.577 212.123 330.577 212.011 330.577 211.928C330.716 206.663 335.034 202.429 340.326 202.429Z" fill="white"/>
<path d="M351.942 211.93H329.936V213.462H351.942V211.93Z" fill="white"/>
<path d="M341.663 212.681H340.187V236.692H341.663V212.681Z" fill="white"/>
<path d="M335.396 192.321C335.396 192.321 340.215 190.705 347.68 192.321L345.089 198.783C345.089 198.783 341.524 198.309 338.014 198.783L335.396 192.321Z" fill="#DDAF8A"/>
<path d="M337.039 198.949L334.226 193.462C334.226 193.462 331.162 194.075 330.048 195.272L334.7 199.506L337.039 198.949Z" fill="#DDAF8A"/>
<path d="M345.981 198.978L348.544 193.574C348.544 193.574 351.218 193.853 352.722 195.385L348.098 199.535L345.981 198.978Z" fill="#DDAF8A"/>
<path d="M290.27 326.331H267.735V301.707C267.735 295.857 272.471 291.122 278.32 291.122H280.326C285.841 291.122 290.298 295.579 290.298 301.094V326.331H290.27Z" fill="#DDAF8A"/>
<path d="M280.298 290.315H278.292C272.025 290.315 266.899 295.413 266.899 301.708V327.14H291.05V301.095C291.05 295.134 286.231 290.315 280.298 290.315ZM278.292 291.931H280.298C285.339 291.931 289.462 296.054 289.462 301.095V325.524H268.515V301.708C268.515 301.625 268.515 301.513 268.515 301.43C268.654 296.165 273 291.931 278.292 291.931Z" fill="white"/>
<path d="M289.88 301.429H267.875V302.961H289.88V301.429Z" fill="white"/>
<path d="M279.629 302.183H278.153V326.194H279.629V302.183Z" fill="white"/>
<path d="M273.334 281.848C273.334 281.848 278.153 280.232 285.618 281.848L283.028 288.31C283.028 288.31 279.462 287.837 275.953 288.31L273.334 281.848Z" fill="#DDAF8A"/>
<path d="M275.006 288.448L272.192 282.961C272.192 282.961 269.128 283.574 268.014 284.772L272.666 289.005L275.006 288.448Z" fill="#DDAF8A"/>
<path d="M283.919 288.479L286.482 283.075C286.482 283.075 289.156 283.354 290.66 284.886L286.036 289.036L283.919 288.479Z" fill="#DDAF8A"/>
<path d="M352.304 326.331H329.769V301.707C329.769 295.857 334.504 291.122 340.354 291.122H342.36C347.875 291.122 352.332 295.579 352.332 301.094V326.331H352.304Z" fill="#DDAF8A"/>
<path d="M342.331 290.315H340.326C334.058 290.315 328.933 295.413 328.933 301.708V327.14H353.083V301.095C353.111 295.134 348.292 290.315 342.331 290.315ZM340.326 291.931H342.331C347.373 291.931 351.495 296.054 351.495 301.095V325.524H330.576V301.708C330.576 301.625 330.576 301.513 330.576 301.43C330.716 296.165 335.033 291.931 340.326 291.931Z" fill="white"/>
<path d="M351.941 301.429H329.936V302.961H351.941V301.429Z" fill="white"/>
<path d="M341.663 302.183H340.187V326.194H341.663V302.183Z" fill="white"/>
<path d="M335.396 281.848C335.396 281.848 340.215 280.232 347.68 281.848L345.09 288.31C345.09 288.31 341.524 287.837 338.014 288.31L335.396 281.848Z" fill="#DDAF8A"/>
<path d="M337.039 288.448L334.226 282.961C334.226 282.961 331.162 283.574 330.048 284.772L334.7 289.005L337.039 288.448Z" fill="#DDAF8A"/>
<path d="M345.981 288.479L348.544 283.075C348.544 283.075 351.218 283.354 352.722 284.886L348.098 289.036L345.981 288.479Z" fill="#DDAF8A"/>
<path d="M418.237 236.833H395.702V212.209C395.702 206.359 400.438 201.624 406.287 201.624H408.293C413.808 201.624 418.265 206.081 418.265 211.596V236.833H418.237Z" fill="#DDAF8A"/>
<path d="M408.264 200.813H406.258C399.991 200.813 394.894 205.911 394.894 212.206V237.638H419.044V211.593C419.044 205.632 414.197 200.813 408.264 200.813ZM406.258 202.429H408.264C413.306 202.429 417.428 206.552 417.428 211.593V236.022H396.481V212.206C396.481 212.123 396.481 212.011 396.481 211.928C396.648 206.663 400.966 202.429 406.258 202.429Z" fill="white"/>
<path d="M417.874 211.93H395.869V213.462H417.874V211.93Z" fill="white"/>
<path d="M407.595 212.681H406.119V236.692H407.595V212.681Z" fill="white"/>
<path d="M401.3 192.321C401.3 192.321 406.119 190.705 413.584 192.321L410.994 198.783C410.994 198.783 407.428 198.309 403.919 198.783L401.3 192.321Z" fill="#DDAF8A"/>
<path d="M402.972 198.949L400.158 193.462C400.158 193.462 397.094 194.075 395.98 195.272L400.632 199.506L402.972 198.949Z" fill="#DDAF8A"/>
<path d="M411.885 198.978L414.448 193.574C414.448 193.574 417.122 193.853 418.626 195.385L414.002 199.535L411.885 198.978Z" fill="#DDAF8A"/>
<path d="M525.925 225.631H496.204V193.152C496.204 185.464 502.443 179.196 510.159 179.196H512.805C520.048 179.196 525.953 185.074 525.953 192.344V225.631H525.925Z" fill="#DDAF8A"/>
<path d="M512.806 178.138H510.159C501.886 178.138 495.146 184.879 495.146 193.152V226.689H526.984V192.344C527.012 184.517 520.633 178.138 512.806 178.138ZM510.159 180.283H512.806C519.463 180.283 524.867 185.686 524.867 192.344V224.572H497.262V193.152C497.262 193.04 497.262 192.901 497.262 192.789C497.457 185.854 503.168 180.283 510.159 180.283Z" fill="white"/>
<path d="M525.452 192.79H496.455V194.796H525.452V192.79Z" fill="white"/>
<path d="M511.914 193.792H509.964V225.463H511.914V193.792Z" fill="white"/>
<path d="M549.852 225.909H527.791V201.814C527.791 196.104 532.415 191.452 538.153 191.452H540.103C545.479 191.452 549.852 195.825 549.852 201.201V225.909Z" fill="#DDAF8A"/>
<path d="M540.103 190.644H538.153C532.025 190.644 527.011 195.63 527.011 201.786V226.688H550.66V201.201C550.632 195.379 545.925 190.644 540.103 190.644ZM538.125 192.231H540.075C545.033 192.231 549.045 196.242 549.045 201.201V225.128H528.571V201.813C528.571 201.73 528.571 201.646 528.571 201.535C528.71 196.382 532.944 192.231 538.125 192.231Z" fill="white"/>
<path d="M549.491 201.535H527.958V203.011H549.491V201.535Z" fill="white"/>
<path d="M539.462 202.259H538.014V225.769H539.462V202.259Z" fill="white"/>
<path d="M494.366 225.909H472.304V201.814C472.304 196.104 476.928 191.452 482.667 191.452H484.616C489.992 191.452 494.366 195.825 494.366 201.201V225.909Z" fill="#DDAF8A"/>
<path d="M484.617 190.644H482.667C476.539 190.644 471.525 195.63 471.525 201.786V226.688H495.174V201.201C495.146 195.379 490.41 190.644 484.617 190.644ZM482.639 192.231H484.589C489.519 192.231 493.558 196.242 493.558 201.201V225.128H473.057V201.813C473.057 201.73 473.057 201.646 473.057 201.535C473.224 196.382 477.458 192.231 482.639 192.231Z" fill="white"/>
<path d="M494.004 201.535H472.472V203.011H494.004V201.535Z" fill="white"/>
<path d="M483.948 202.259H482.5V225.769H483.948V202.259Z" fill="white"/>
<path d="M633.556 236.833H611.021V212.209C611.021 206.359 615.757 201.624 621.606 201.624H623.612C629.127 201.624 633.584 206.081 633.584 211.596V236.833H633.556Z" fill="#DDAF8A"/>
<path d="M623.584 200.813H621.579C615.311 200.813 610.214 205.911 610.214 212.206V237.638H634.364V211.593C634.336 205.632 629.517 200.813 623.584 200.813ZM621.579 202.429H623.584C628.626 202.429 632.748 206.552 632.748 211.593V236.022H611.801V212.206C611.801 212.123 611.801 212.011 611.801 211.928C611.941 206.663 616.286 202.429 621.579 202.429Z" fill="white"/>
<path d="M633.166 211.93H611.161V213.462H633.166V211.93Z" fill="white"/>
<path d="M622.916 212.681H621.44V236.692H622.916V212.681Z" fill="white"/>
<path d="M616.621 192.321C616.621 192.321 621.44 190.705 628.905 192.321L626.314 198.783C626.314 198.783 622.749 198.309 619.239 198.783L616.621 192.321Z" fill="#DDAF8A"/>
<path d="M618.292 198.949L615.479 193.462C615.479 193.462 612.414 194.075 611.3 195.272L615.952 199.506L618.292 198.949Z" fill="#DDAF8A"/>
<path d="M627.205 198.978L629.768 193.574C629.768 193.574 632.442 193.853 633.946 195.385L629.322 199.535L627.205 198.978Z" fill="#DDAF8A"/>
<path d="M706.064 236.833H683.502V212.209C683.502 206.359 688.237 201.624 694.087 201.624H696.092C701.608 201.624 706.064 206.081 706.064 211.596V236.833Z" fill="#DDAF8A"/>
<path d="M696.092 200.813H694.086C687.819 200.813 682.694 205.911 682.694 212.206V237.638H706.844V211.593C706.872 205.632 702.025 200.813 696.092 200.813ZM694.086 202.429H696.092C701.134 202.429 705.256 206.552 705.256 211.593V236.022H684.309V212.206C684.309 212.123 684.309 212.011 684.309 211.928C684.476 206.663 688.794 202.429 694.086 202.429Z" fill="white"/>
<path d="M705.702 211.93H683.696V213.462H705.702V211.93Z" fill="white"/>
<path d="M695.423 212.681H693.947V236.692H695.423V212.681Z" fill="white"/>
<path d="M689.128 192.321C689.128 192.321 693.947 190.705 701.412 192.321L698.822 198.783C698.822 198.783 695.256 198.309 691.746 198.783L689.128 192.321Z" fill="#DDAF8A"/>
<path d="M690.799 198.949L687.986 193.462C687.986 193.462 684.922 194.075 683.808 195.272L688.46 199.506L690.799 198.949Z" fill="#DDAF8A"/>
<path d="M699.741 198.978L702.304 193.574C702.304 193.574 704.978 193.853 706.482 195.385L701.858 199.535L699.741 198.978Z" fill="#DDAF8A"/>
<path d="M706.064 326.331H683.501V301.707C683.501 295.857 688.237 291.122 694.086 291.122H696.092C701.607 291.122 706.064 295.579 706.064 301.094V326.331Z" fill="#DDAF8A"/>
<path d="M696.092 290.315H694.086C687.819 290.315 682.693 295.413 682.693 301.708V327.14H706.844V301.095C706.872 295.134 702.025 290.315 696.092 290.315ZM694.086 291.931H696.092C701.133 291.931 705.256 296.054 705.256 301.095V325.524H684.309V301.708C684.309 301.625 684.309 301.513 684.309 301.43C684.476 296.165 688.794 291.931 694.086 291.931Z" fill="white"/>
<path d="M705.702 301.429H683.696V302.961H705.702V301.429Z" fill="white"/>
<path d="M695.423 302.183H693.947V326.194H695.423V302.183Z" fill="white"/>
<path d="M689.128 281.848C689.128 281.848 693.947 280.232 701.412 281.848L698.821 288.31C698.821 288.31 695.256 287.837 691.746 288.31L689.128 281.848Z" fill="#DDAF8A"/>
<path d="M690.799 288.448L687.986 282.961C687.986 282.961 684.922 283.574 683.807 284.772L688.459 289.005L690.799 288.448Z" fill="#DDAF8A"/>
<path d="M699.74 288.479L702.303 283.075C702.303 283.075 704.977 283.354 706.481 284.886L701.857 289.036L699.74 288.479Z" fill="#DDAF8A"/>
<path d="M442.443 168.307H224.894L243.696 151.983H442.443V168.307Z" fill="#2B478B"/>
<path d="M738.543 151.983C737.679 157.304 736.481 162.735 735.005 168.307H578.208V151.983H738.543Z" fill="#2B478B"/>
<path d="M632.304 266.16H395.814V274.182H632.304V266.16Z" fill="#FFF2E6"/>
<path d="M443.028 130.981H434.615L510.604 67.0254L587.289 130.981H443.028Z" fill="#2B478B"/>
<path d="M395.814 266.161L514.059 243.459L632.304 266.161H395.814Z" fill="#FFF2E6"/>
<path d="M429.685 266.163L514.058 249.951L598.403 266.163H429.685Z" fill="#F2CCAA"/>
<path d="M578.181 139.308H443.028V130.98L510.354 75.4365L578.181 130.98V139.308Z" fill="#F9DDBF"/>
<path d="M507.401 93.2921C507.401 91.2587 509.044 89.6152 511.077 89.6152C513.111 89.6152 514.754 91.2587 514.754 93.2921C514.754 95.3255 513.111 96.969 511.077 96.969C509.044 96.969 507.401 95.3255 507.401 93.2921Z" fill="#DBA579"/>
<path d="M511.077 291.901C513.108 291.901 514.754 290.254 514.754 288.224C514.754 286.193 513.108 284.547 511.077 284.547C509.047 284.547 507.401 286.193 507.401 288.224C507.401 290.254 509.047 291.901 511.077 291.901Z" fill="#DBA579"/>
<path d="M622.081 366.664H399.017V370.118H622.081V366.664Z" fill="#FFF2E6"/>
<path d="M635.005 370.118H386.064V373.572H635.005V370.118Z" fill="#F7E6D7"/>
<path d="M648.487 373.572H372.582V378.335H648.487V373.572Z" fill="#F4DDCB"/>
<path d="M522.359 161.509H499.824V136.885C499.824 131.035 504.56 126.3 510.409 126.3H512.415C517.93 126.3 522.387 130.757 522.387 136.272V161.509H522.359Z" fill="#DDAF8A"/>
<path d="M521.746 130.984C519.908 127.725 516.398 125.496 512.359 125.496H510.354C506.231 125.496 502.638 127.697 500.632 130.984C499.574 132.711 498.989 134.716 498.989 136.889V162.321H523.139V136.276C523.139 134.354 522.638 132.543 521.746 130.984ZM521.551 160.705H500.604V136.889C500.604 136.805 500.604 136.694 500.604 136.61C500.66 134.493 501.384 132.543 502.582 130.984C504.365 128.644 507.178 127.112 510.354 127.112H512.359C515.451 127.112 518.181 128.644 519.824 130.984C520.883 132.488 521.524 134.298 521.524 136.276V160.705H521.551Z" fill="white"/>
<path d="M521.969 136.61H499.964V138.142H521.969V136.61Z" fill="white"/>
<path d="M511.719 137.389H510.242V161.4H511.719V137.389Z" fill="white"/>
<path d="M505.423 117.025C505.423 117.025 510.242 115.409 517.707 117.025L515.117 123.487C515.117 123.487 511.551 123.014 508.042 123.487L505.423 117.025Z" fill="#DDAF8A"/>
<path d="M507.095 123.625L504.281 118.138C504.281 118.138 501.217 118.751 500.103 119.948L504.755 124.182L507.095 123.625Z" fill="#DDAF8A"/>
<path d="M516.008 123.656L518.571 118.252C518.571 118.252 521.245 118.531 522.749 120.063L518.125 124.213L516.008 123.656Z" fill="#DDAF8A"/>
<path d="M126.927 382.872C126.927 382.872 43.8913 382.593 12.1365 382.705C11.9137 381.813 11.7187 380.894 11.4958 379.975C11.3844 379.529 11.3008 379.111 11.1894 378.666V378.638C10.3816 375.128 9.60169 371.479 8.8496 367.802C5.72983 352.705 3.05574 336.465 1.49585 319.808C8.12536 317.914 34.8663 311.173 52.1643 320.253C72.025 330.699 68.7381 346.242 87.9024 341.869C107.067 337.524 138.961 353.958 126.927 382.872Z" fill="#9BCC8F"/>
<path d="M803.863 397.915C803.529 403.597 802.693 409.586 801.272 415.937C801.133 416.522 800.994 417.107 800.855 417.692C800.409 419.503 799.908 421.369 799.378 423.207C798.738 425.659 797.902 428.249 797.011 430.84C796.871 431.285 795.646 434.21 794.142 437.831C790.214 447.246 781.022 453.374 770.799 453.374H704.392L680.047 453.319H462.136L426.705 453.291L398.488 453.263H230.744L160.661 453.207H57.6803C43.2514 453.207 30.4102 444.043 25.7027 430.394C25.3127 429.224 24.9227 428.11 24.5885 427.107C23.2793 423.068 21.9144 418.639 20.4659 413.876C19.0732 409.252 17.6525 404.294 16.2598 399.057C15.9255 397.776 15.5634 396.466 15.2292 395.157C13.9757 390.338 12.7222 385.296 11.5244 380.06C11.413 379.614 11.3294 379.196 11.218 378.751V378.723H802.86V378.751C803.863 384.656 804.225 391.035 803.863 397.915Z" fill="#A8D29F"/>
<path d="M414.894 407.331L369.796 453.208H426.426L461.607 413.821L414.894 407.331Z" fill="#F9DDBF"/>
<path d="M430.186 360.505L429.768 362.26L429.211 364.627H427.456L427.372 362.371L427.289 360.644L430.186 360.505Z" fill="#FFB27D"/>
<path d="M435.729 321.981C435.729 321.981 437.122 320.505 438.013 321.675C438.905 322.844 439.907 323.624 441.272 324.516C442.637 325.407 440.047 332.399 438.32 332.232C436.593 332.092 429.573 326.577 435.729 321.981Z" fill="#BC3F3F"/>
<path d="M428.849 321.283C429.183 321.033 432.359 319.946 435.451 321.005C438.542 322.063 433.055 325.072 433.055 325.072L431.272 325.155L428.849 321.283Z" fill="#809A7A"/>
<path d="M426.788 367.19C426.788 367.19 426.788 366.327 426.899 366.048C427.01 365.77 427.456 364.6 427.456 364.6H429.211C429.211 364.6 429.545 365.658 429.545 365.992C429.573 366.327 429.545 367.162 429.545 367.162H426.788V367.19Z" fill="#233862"/>
<path d="M437.847 367.19C437.847 367.19 437.847 366.327 437.735 366.048C437.624 365.77 437.178 364.6 437.178 364.6H435.423C435.423 364.6 435.089 365.658 435.089 365.992C435.061 366.327 435.089 367.162 435.089 367.162H437.847V367.19Z" fill="#233862"/>
<path d="M430.854 319.28C430.854 319.28 430.799 321.175 430.548 322.038L428.626 326.189L435.868 324.462L434.141 322.066C434.141 322.066 433.612 319.503 433.891 318.584C434.169 317.637 430.854 319.28 430.854 319.28Z" fill="#FFB27D"/>
<path d="M430.855 319.53C430.855 319.53 431.44 320.923 432.498 320.867C433.585 320.839 433.835 319.614 433.835 319.614L430.855 319.53Z" fill="#ED985F"/>
<path d="M430.214 318.416C430.214 318.416 429.852 316.689 429.629 316.16C429.379 315.631 429.184 313.291 431.886 313.152C431.886 313.152 432.916 313.263 433.501 312.929C433.501 312.929 433.501 313.263 433.362 313.402C433.362 313.402 434.281 313.179 435.033 313.987C435.757 314.795 434.56 317.636 434.615 318.305L430.214 318.416Z" fill="#2C3A64"/>
<path d="M432.387 320.337C431.607 320.337 430.158 319.278 430.158 317.997V315.991C430.158 315.518 430.492 315.128 430.882 315.128H433.863C434.253 315.128 434.587 315.518 434.587 315.991V317.886C434.615 319.25 433.278 320.365 432.387 320.337Z" fill="#FFB27D"/>
<path d="M430.158 317.078C430.158 317.078 430.158 315.881 431.133 315.686C432.08 315.491 434.225 316.271 434.532 315.379C434.838 314.488 430.381 314.516 430.158 315.073C429.936 315.63 430.158 317.078 430.158 317.078Z" fill="#2C3A64"/>
<path d="M433.501 338.025C433.974 336.521 433.974 344.209 432.052 352.844C431.746 354.153 431.105 357.329 430.632 360.421H426.676C426.621 357.942 426.342 354.46 426.175 351.869C425.646 343.736 426.983 337.607 426.983 337.607L433.501 338.025Z" fill="#2B478B"/>
<path d="M438.571 351.869C438.515 354.348 438.014 357.663 437.986 360.086H433.975C433.696 358.332 433.278 356.521 432.972 355.045C432.749 354.014 432.582 353.151 432.61 352.593C432.61 351.535 431.941 348.499 431.551 345.797C431.523 345.685 431.523 345.602 431.496 345.49C430.966 341.702 431.161 338.025 431.161 338.025L437.93 337.607C437.902 337.607 438.682 345.24 438.571 351.869Z" fill="#2B478B"/>
<path d="M426.453 340.757C426.453 340.757 427.985 342.595 432.108 342.345C436.231 342.066 438.208 341.37 438.208 341.37L426.453 340.757Z" fill="#233862"/>
<path d="M438.208 341.341C436.871 341.536 427.679 342.009 426.454 340.756C425.228 339.502 428.459 322.427 428.459 322.427C428.459 322.427 428.821 322.316 429.434 322.204C429.74 322.149 430.13 322.093 430.548 322.037C430.548 322.176 430.66 324.182 432.331 325.018C432.331 325.018 434.337 324.21 434.142 322.065C434.142 322.037 434.142 322.009 434.142 321.981C434.42 322.009 434.671 322.037 434.949 322.093C435.506 322.176 436.064 322.316 436.621 322.511C436.621 322.511 439.573 341.174 438.208 341.341Z" fill="#9FB899"/>
<path d="M426.537 332.539C426.481 332.622 426.843 333.124 427.373 333.82C428.431 335.213 430.13 337.218 430.13 337.218C430.102 337.915 430.019 338.332 430.019 338.332C427.679 337.218 426.119 336.188 425.061 335.38C423.584 334.21 423.167 333.458 423.167 333.458C425.534 323.486 428.543 322.455 428.543 322.455L429.517 328.472C429.517 328.444 426.704 332.316 426.537 332.539Z" fill="#9FB899"/>
<path d="M434.95 322.092L434.337 323.931L433.529 325.129L432.359 325.769L431.273 325.129L429.434 322.176C429.741 322.12 430.131 322.065 430.549 322.009C430.549 322.065 430.576 322.371 430.771 322.761C431.44 324.042 433.306 324.042 433.975 322.761C434.086 322.538 434.142 322.287 434.142 322.037C434.142 322.009 434.142 321.981 434.142 321.953C434.42 322.009 434.699 322.065 434.95 322.092Z" fill="white"/>
<path d="M430.13 337.219C430.13 337.246 430.13 337.246 430.13 337.274C430.13 337.414 430.13 337.525 430.102 337.636C430.047 337.72 429.991 337.804 429.907 337.859C429.796 337.971 429.685 338.054 429.573 338.138C429.517 338.11 429.462 338.082 429.406 338.054C427.4 337.051 426.008 336.132 425.061 335.38C425.673 335.185 426.509 334.767 427.373 333.82C428.431 335.185 430.13 337.219 430.13 337.219Z" fill="#FFB27D"/>
<path d="M441.718 333.069C441.718 333.069 441.3 333.849 439.852 335.047C438.821 335.882 437.261 336.969 434.949 338.111C434.949 338.111 434.838 337.665 434.81 336.997C434.81 336.997 436.481 334.935 437.512 333.543C438.013 332.846 438.376 332.317 438.32 332.261C438.181 332.094 436.426 329.754 435.618 328.724C435.395 328.417 435.256 328.222 435.256 328.222L436.259 322.317C436.259 322.289 439.155 323.153 441.718 333.069Z" fill="#9FB899"/>
<path d="M439.852 335.047C438.905 335.827 437.54 336.774 435.534 337.804C435.479 337.832 435.423 337.86 435.395 337.888C435.144 337.581 434.977 337.219 434.894 336.885C434.922 336.857 434.977 336.802 435.033 336.718C435.507 336.133 436.704 334.629 437.512 333.515C438.404 334.462 439.267 334.88 439.852 335.047Z" fill="#FFB27D"/>
<path d="M434.142 321.981C432.805 321.842 431.551 321.897 430.548 322.009C430.548 322.009 433.891 319.975 434.142 321.981Z" fill="#FFB27D"/>
<path d="M430.826 327.806H430.743L430.687 324.603H430.882L430.826 327.806Z" fill="#809A7A"/>
<path d="M430.743 327.722C430.687 327.805 430.548 328.112 430.631 328.167C430.715 328.195 430.882 328.195 430.938 328.167C430.966 328.084 430.854 327.527 430.743 327.722Z" fill="#809A7A"/>
<path d="M433.946 327.806H433.89L433.835 324.603H434.002L433.946 327.806Z" fill="#809A7A"/>
<path d="M433.89 327.722C433.835 327.805 433.695 328.112 433.779 328.167C433.863 328.195 434.03 328.195 434.085 328.167C434.113 328.084 434.002 327.527 433.89 327.722Z" fill="#809A7A"/>
<path d="M431.272 325.158L428.459 322.428C428.459 322.428 427.818 321.982 428.821 321.314C429.824 320.617 431.272 325.158 431.272 325.158Z" fill="#809A7A"/>
<path d="M433.529 325.158L436.342 322.428C436.342 322.428 436.983 321.982 435.98 321.314C434.978 320.617 433.529 325.158 433.529 325.158Z" fill="#809A7A"/>
<path d="M437.067 338.39C436.509 338.446 436.064 338.307 435.702 337.972C435.646 337.917 435.59 337.861 435.535 337.805C435.256 337.471 435.089 337.081 435.005 336.719C434.894 336.329 434.894 336.023 434.894 335.995V335.911H430.326V335.995C430.354 336.496 430.27 336.914 430.103 337.248C430.019 337.415 429.908 337.582 429.769 337.722C429.657 337.833 429.518 337.945 429.379 338.028C428.766 338.39 428.097 338.362 428.069 338.362H427.986V340.284H437.15V338.362L437.067 338.39Z" fill="#809A7A"/>
<path d="M438.32 332.231C438.32 332.231 435.785 328.889 437.791 327.942C438.598 327.552 439.712 332.12 439.1 332.565C438.487 332.983 437.512 333.54 437.512 333.54L438.32 332.231Z" fill="#809A7A"/>
<path d="M426.843 331.677C426.843 331.677 427.735 327.498 426.955 327.916C426.175 328.334 425.033 332.094 425.645 332.54C426.258 332.958 427.233 333.515 427.233 333.515L426.843 331.677Z" fill="#809A7A"/>
<path d="M437.957 332.234C436.787 330.785 436.369 328.445 436.425 326.05C436.48 324.239 436.731 322.596 436.731 322.54L437.678 323.292C437.678 323.292 437.121 324.295 437.093 326.05C437.065 327.665 436.982 328.891 437.901 331.704L437.957 332.234Z" fill="#BC3F3F"/>
<path d="M429.156 361.314H427.122C426.955 361.342 426.649 361.063 426.649 360.701C426.649 360.701 426.649 359.782 426.593 359.643C426.342 358.946 426.732 358.891 427.094 358.891H430.827C431.217 358.891 430.632 360.061 430.632 360.451L430.771 360.952C430.743 361.286 429.546 361.314 429.156 361.314Z" fill="#233862"/>
<path d="M429.768 362.262L429.211 364.602H427.456L427.344 362.345C427.623 362.457 428.487 362.707 429.768 362.262Z" fill="white"/>
<path d="M434.448 360.505L434.866 362.26L435.423 364.627H437.178L437.261 362.371L437.345 360.644L434.448 360.505Z" fill="#FFB27D"/>
<path d="M435.478 361.314H437.512C437.679 361.342 437.985 361.063 437.985 360.701C437.985 360.701 437.985 359.782 438.041 359.643C438.292 358.946 437.902 358.891 437.54 358.891H433.807C433.417 358.891 434.002 360.061 434.002 360.451L433.863 360.952C433.891 361.286 435.088 361.314 435.478 361.314Z" fill="#233862"/>
<path d="M434.866 362.262L435.423 364.602H437.178L437.289 362.345C437.011 362.457 436.147 362.707 434.866 362.262Z" fill="white"/>
<path d="M431.634 318.946C431.634 318.946 431.913 319.308 432.386 319.308C432.86 319.308 433.083 318.946 433.083 318.946C433.083 318.946 432.275 318.806 431.634 318.946Z" fill="white"/>
<path d="M474.475 339.197C474.475 339.197 473.473 349.921 475.701 355.771C476.314 357.387 483.111 363.682 484.197 365.799C484.197 365.799 485.645 364.518 485.478 364.239C484.503 362.679 483.166 357.832 480.214 354.629C477.261 351.426 480.826 343.097 480.826 343.097L474.475 339.197Z" fill="#E8945B"/>
<path d="M475.312 335.884C472.526 335.16 469.434 330.842 469.434 330.842L470.214 330.146C471.022 331.121 474.42 332.764 474.42 332.764C474.392 331.873 474.42 331.093 474.476 330.341C474.866 325.383 476.732 323.711 477.234 323.349C477.317 323.293 477.373 323.266 477.373 323.266C477.373 323.266 477.373 323.293 477.373 323.377C477.373 323.516 477.401 323.823 477.401 324.241C477.512 327.277 477.651 336.469 475.312 335.884Z" fill="#FFB27D"/>
<path d="M470.214 330.147C470.214 330.035 470.27 328.503 469.769 328.169C469.379 327.918 468.794 327.222 468.599 327.25C468.404 327.278 467.874 328.42 468.181 329.172C468.487 329.924 469.434 330.815 469.434 330.815L470.214 330.147Z" fill="#FFB27D"/>
<path d="M477.15 370.06L478.571 369.893C478.571 369.893 482.275 362.233 481.774 357.469C481.662 356.383 481.746 355.269 482.08 354.21C482.442 353.068 482.888 351.564 483.278 350.088C483.501 349.196 483.752 348.249 483.947 347.302C484.225 346.021 484.448 344.74 484.587 343.514C484.81 341.481 484.81 339.698 484.337 338.5L477.902 337.859C477.902 337.859 477.345 343.013 477.206 348.11C477.206 348.416 477.178 348.751 477.178 349.057C477.122 351.843 477.54 354.182 477.818 356.188C477.902 356.829 477.93 357.469 477.874 358.082L477.15 370.06Z" fill="#FFB27D"/>
<path d="M479.573 317.775C479.573 317.775 481.078 319.056 479.685 320.533C479.685 320.533 480.827 320.644 481.217 320.338C481.217 320.338 481.133 320.505 481.078 320.561C481.078 320.561 482.359 320.616 482.888 320.199C483.417 319.809 483.083 313.235 479.518 313.959C479.518 313.959 476.509 313.736 476.788 317.218C477.066 320.728 475.924 320.728 475.924 320.728C475.924 320.728 476.231 320.895 476.398 320.895C476.398 320.895 476.621 320.811 476.676 320.672C476.676 320.672 476.621 320.867 476.565 320.923C476.565 320.923 477.791 321.034 478.403 320.561C479.044 320.115 479.768 318.499 479.573 317.775Z" fill="#233862"/>
<path d="M475.06 325.437H483.305C482.72 323.961 481.885 322.902 481.244 322.763C480.91 322.679 480.325 321.426 480.325 319.448L480.158 319.476L477.567 319.977C477.567 319.977 477.623 320.785 477.623 321.565C477.623 322.206 477.595 322.847 477.456 322.93C477.261 322.958 477.094 322.986 477.094 322.986C477.094 322.986 475.673 323.989 475.06 325.437Z" fill="#FFB27D"/>
<path d="M477.568 319.977C477.568 319.977 477.623 320.785 477.623 321.565C479.072 321.537 479.824 320.2 480.158 319.476L477.568 319.977Z" fill="#E8945B"/>
<path d="M480.409 319.198C480.409 319.198 481.161 318 481.356 316.969C481.495 316.245 481.105 313.515 478.376 313.905C478.376 313.905 477.596 313.989 476.843 314.49C476.259 314.88 475.395 315.744 476.342 318.111L476.593 318.919L480.409 319.198Z" fill="#233862"/>
<path d="M477.066 320.731C477.066 320.731 480.493 320.786 480.493 318.641C480.493 316.497 480.938 315.076 478.738 314.965C476.537 314.825 476.119 315.661 475.952 316.357C475.813 317.054 476.175 320.647 477.066 320.731Z" fill="#FFB27D"/>
<path d="M477.206 314.908C477.206 314.908 478.153 317.415 479.573 317.777C481.022 318.139 481.635 317.749 481.635 317.749C481.635 317.749 480.521 316.886 480.298 315.354C480.326 315.354 477.902 313.71 477.206 314.908Z" fill="#233862"/>
<path d="M477.428 315.105C477.428 315.105 476.732 315.662 476.564 316.219C476.397 316.776 476.314 317.89 475.98 317.835C475.98 317.835 475.283 316.135 476.063 315.16C476.927 314.13 477.428 315.105 477.428 315.105Z" fill="#233862"/>
<path d="M488.877 341.762L487.846 342.068C487.846 342.068 484.448 336.442 484.141 334.965C484.03 334.492 483.807 333.545 483.501 332.458C482.916 330.258 482.136 327.528 482.136 327.528L481.885 326.442L481.022 322.709C481.022 322.709 482.665 322.876 483.64 323.294C483.947 323.433 484.197 323.6 484.281 323.767C485.005 325.327 485.701 329.283 486.203 332.096C486.481 333.656 486.704 334.882 486.816 335.132C487.15 335.829 488.097 339.784 488.877 341.762Z" fill="#FFB27D"/>
<path d="M477.317 315.186C477.317 315.186 477.985 317.805 479.796 318.64C479.796 318.64 477.985 317.025 477.818 315.298C477.679 313.571 477.317 315.186 477.317 315.186Z" fill="#233862"/>
<path d="M477.512 329.923C477.372 333.46 476.843 336.97 475.283 336.747C473.389 336.469 472.888 334.714 472.804 333.405C472.748 332.597 472.832 331.956 472.832 331.956C472.832 331.956 473.751 331.956 473.918 331.817C474.643 331.148 474.42 324.686 474.782 324.018C475.144 323.349 477.428 322.903 477.428 322.903C477.428 322.903 477.679 326.441 477.512 329.923Z" fill="white"/>
<path d="M486.258 346.412C486.258 346.412 484.921 346.885 482.916 347.192C480.465 347.582 477.011 347.721 473.946 346.412C473.946 346.412 473.696 341.259 474.42 338.557C475.144 335.855 475.479 334.573 475.479 334.573C475.479 334.573 478.403 335.409 481.356 334.768C481.774 334.685 482.192 334.573 482.609 334.406C482.609 334.406 484.448 338.78 484.949 340.674C485.451 342.54 486.258 346.412 486.258 346.412Z" fill="#2B478B"/>
<path d="M489.267 336.524C489.267 337.415 488.347 337.973 487.372 338.223C486.425 338.474 485.45 338.474 485.116 338.279C484.587 337.917 483.696 333.906 483.445 332.68C483.389 332.457 483.361 332.318 483.361 332.318C483.361 332.318 482.665 333.989 482.637 334.129C482.637 334.212 482.609 334.296 482.609 334.379C482.609 334.491 482.609 334.574 482.609 334.574C482.609 334.574 478.821 336.496 475.478 334.741C475.478 334.741 474.141 326.942 474.726 325.605C475.005 324.936 476.537 323.572 477.15 322.959C477.289 322.819 477.261 322.569 477.233 322.318C477.177 322.123 477.372 321.928 477.567 321.984C477.957 322.095 478.654 322.067 479.406 321.817C479.768 321.705 480.158 321.51 480.548 321.26C480.659 321.176 480.799 321.26 480.826 321.371C480.882 321.844 481.021 322.68 481.272 322.68C481.634 322.68 484.03 322.987 484.225 323.265C484.28 323.377 484.921 324.797 485.701 326.663C487.205 330.229 489.267 335.382 489.267 336.524Z" fill="white"/>
<path d="M483.389 332.319C483.389 332.319 482.693 333.99 482.665 334.129C482.665 334.213 482.637 334.297 482.637 334.38C482.303 334.659 481.885 334.854 481.467 334.993C480.297 335.355 479.768 333.071 479.852 331.957C479.935 330.815 481.606 327.584 482.164 327.528C482.721 327.472 483.389 332.319 483.389 332.319Z" fill="#ECF3FE"/>
<path d="M483.473 332.679C483.418 332.456 483.39 332.316 483.39 332.316C483.445 332.428 483.445 332.567 483.473 332.679Z" fill="#E58638"/>
<path d="M491.44 346.133C491.356 345.771 491.105 345.492 490.771 345.353C490.214 345.158 489.295 344.963 488.18 345.297C486.286 345.854 486.119 347.024 486.231 347.832C486.342 348.668 485.98 350.005 486.036 350.952C486.091 351.899 486.37 354.267 487.763 354.155C489.155 354.044 493.668 352.818 493.668 352.818C493.668 352.818 494.448 351.342 492.86 349.197C491.913 347.916 491.551 346.746 491.44 346.133Z" fill="#B64C41"/>
<path d="M490.575 345.05L490.213 345.078C490.213 345.078 490.157 344.827 489.99 344.66C489.851 344.548 489.684 344.493 489.461 344.521C489.238 344.548 489.099 344.66 489.015 344.799C488.904 345.022 488.96 345.3 488.96 345.3L488.598 345.384C488.598 345.356 488.486 344.883 488.681 344.493C488.82 344.214 489.043 344.075 489.378 343.991C489.712 343.936 489.99 344.019 490.213 344.242C490.492 344.576 490.575 345.022 490.575 345.05Z" fill="#B64C41"/>
<path d="M494.614 352.598C494.614 352.598 490.102 353.824 488.709 353.935C487.316 354.075 487.038 351.679 486.982 350.732C486.926 349.785 487.289 348.448 487.177 347.612C487.149 347.445 487.149 347.278 487.149 347.111C487.177 346.359 487.595 345.523 489.127 345.077C490.241 344.743 491.16 344.938 491.718 345.133C492.052 345.272 492.303 345.551 492.386 345.913C492.414 345.997 492.414 346.08 492.442 346.164C492.609 346.832 492.971 347.863 493.807 348.977C495.394 351.122 494.614 352.598 494.614 352.598Z" fill="#CE6161"/>
<path opacity="0.4" d="M487.65 350.927L490.352 350.314C490.352 350.314 490.993 352.264 489.712 352.599C488.43 352.989 487.901 352.236 487.65 350.927Z" fill="#B64C41"/>
<path d="M487.65 350.927C487.65 350.927 488.263 351.54 489.127 351.317C489.962 351.094 490.38 350.314 490.38 350.314L487.65 350.927Z" fill="#B64C41"/>
<path opacity="0.4" d="M490.938 350.201L493.639 349.588C493.639 349.588 494.28 351.538 492.999 351.872C491.717 352.234 491.16 351.482 490.938 350.201Z" fill="#B64C41"/>
<path d="M490.938 350.201C490.938 350.201 491.55 350.814 492.414 350.591C493.249 350.368 493.667 349.588 493.667 349.588L490.938 350.201Z" fill="#B64C41"/>
<path d="M492.358 345.913C492.386 345.997 492.386 346.08 492.414 346.164C492.052 346.916 491.383 347.863 490.213 348.058C488.264 348.448 487.122 347.111 487.122 347.111C487.149 346.359 487.567 345.523 489.099 345.077C490.213 344.743 491.133 344.938 491.69 345.133C492.052 345.272 492.303 345.579 492.358 345.913Z" fill="#C65549"/>
<path d="M490.242 348.475C490.13 348.503 489.991 348.419 489.963 348.308L489.907 348.113C489.879 348.002 489.963 347.862 490.074 347.834C490.186 347.807 490.325 347.89 490.353 348.002L490.409 348.197C490.464 348.336 490.381 348.447 490.242 348.475Z" fill="#9F4F46"/>
<path d="M488.821 341.565C488.821 341.565 489.128 342.29 489.462 342.513C489.796 342.707 490.102 343.209 490.158 343.599C490.27 344.323 489.712 344.769 489.323 344.769C488.905 344.769 488.515 344.212 488.264 342.875C488.264 342.791 487.874 342.039 487.874 342.039L488.821 341.565Z" fill="#FFB27D"/>
<path d="M478.626 335.604C476.453 335.604 475.59 334.852 475.506 334.796L475.367 333.766C475.395 333.793 478.292 335.521 482.776 333.849L482.693 334.629C480.938 335.298 479.74 335.604 478.626 335.604Z" fill="#B64C41"/>
<path d="M478.57 370.117C478.57 370.117 478.403 370.647 478.57 371.065L476.509 372.318L474.086 372.959L473.361 372.597C473.361 372.597 476.955 370.758 477.15 367.973C477.317 365.772 478.57 370.117 478.57 370.117Z" fill="#FFB27D"/>
<path d="M476.815 372.902C475.645 373.07 476.035 373.265 474.448 373.682C472.86 374.1 472.191 373.71 472.052 373.515C471.941 373.32 472.665 372.958 473.417 372.568C473.417 372.568 474.587 372.847 475.84 372.401C476.871 372.039 477.846 371.315 478.57 371.036C478.682 371.259 478.793 371.51 478.821 371.76C478.988 372.485 477.985 372.763 476.815 372.902Z" fill="#1C468A"/>
<path d="M487.428 365.019C488.041 365.325 487.651 366.217 487.122 367.164C486.565 368.111 486.955 367.944 486.37 369.364C485.785 370.757 485.116 371.036 484.893 371.036C484.698 371.008 484.838 370.284 484.977 369.504C485.005 369.392 485.005 369.309 485.033 369.197C485.172 368.306 484.81 367.498 484.559 366.579C484.336 365.715 482.888 364.072 482.888 364.072L483.612 362.122C483.612 362.122 484.893 363.626 485.45 364.211C485.785 364.573 486.314 364.713 486.76 364.796C486.955 364.852 487.205 364.908 487.428 365.019Z" fill="#E8945B"/>
<path d="M487.094 367.162C486.537 368.109 486.927 367.942 486.342 369.363C485.757 370.755 485.088 371.034 484.866 371.034C484.671 371.006 484.81 370.282 484.949 369.502H484.977C484.977 369.502 485.84 368.806 486.23 367.608C486.537 366.633 486.565 365.519 486.76 364.822C486.982 364.878 487.233 364.934 487.428 365.045C488.013 365.324 487.651 366.215 487.094 367.162Z" fill="#1C468A"/>
<path d="M467.929 326.551L467.985 327.554L468.041 328.891L468.097 329.977H469.935L469.991 328.891L470.074 327.554L470.102 326.551H467.929Z" fill="#233862"/>
<path d="M467.79 326.719H470.213L470.158 326.356H467.846L467.79 326.719Z" fill="white"/>
<path d="M468.765 326.356L468.208 326.217L468.124 326.356H468.765Z" fill="white"/>
<path d="M467.985 327.554L468.04 328.891H469.99L470.074 327.554H467.985Z" fill="white"/>
<path d="M467.985 327.554C467.985 327.554 468.487 327.192 468.57 327.693C468.598 327.944 468.069 328.752 468.069 328.752C467.846 328.585 467.707 327.693 467.985 327.554Z" fill="#FFB27D"/>
<path d="M63.613 195.159C63.613 195.159 68.9055 188.251 81.6074 189.031C81.6074 189.031 100.02 177.526 119.658 187.499C119.658 187.499 140.521 185.02 155.981 189.643C166.287 192.708 169.685 195.939 169.685 195.939L63.613 195.159Z" fill="#F8FCFF"/>
<path d="M191.245 136.466C191.245 136.466 197.123 129.558 211.19 130.338C211.19 130.338 231.607 118.834 253.362 128.806C253.362 128.806 276.482 126.327 293.641 130.951C305.061 134.015 308.85 137.246 308.85 137.246L191.245 136.466Z" fill="#F8FCFF"/>
<path d="M719.991 79.9775L555.256 78.8911C555.256 78.8911 564.42 68.1391 586.314 69.3368C586.314 69.3368 618.097 51.426 651.996 66.9413C651.996 66.9413 688.013 63.0973 714.698 70.2839C714.726 70.2839 714.754 70.3118 714.782 70.3118C716.676 73.4315 718.431 76.6627 719.991 79.9775Z" fill="#F8FCFF"/>
<path d="M178.683 111.898C178.683 109.446 180.66 107.469 183.112 107.469C185.563 107.469 187.541 109.446 187.541 111.898C187.541 114.349 185.563 116.327 183.112 116.327C180.688 116.299 178.683 114.321 178.683 111.898Z" fill="#F8FCFF"/>
<path opacity="0.5" d="M134.978 213.653C134.978 213.653 138.46 209.141 146.733 209.642C146.733 209.642 158.766 202.121 171.607 208.639C171.607 208.639 185.256 207.024 195.368 210.032C202.109 212.038 204.337 214.155 204.337 214.155L134.978 213.653Z" fill="#F8FCFF"/>
<path d="M802.832 378.668L601.997 378.724C601.997 378.724 600.186 361.732 614.977 358.222C629.768 354.713 621.885 344.545 633.055 339.197C644.225 333.821 660.325 336.105 664.253 348.779C668.181 361.453 680.353 349.921 695.144 348.779C709.935 347.637 714.002 355.632 716.565 359.894C719.128 364.155 739.49 366.718 749.016 355.158C758.543 343.598 765.451 341.064 775.952 340.98C778.765 340.952 781.049 339.81 783.194 338.139C785.033 340.367 786.815 342.651 788.515 345.019C795.339 354.685 800.576 366.022 802.832 378.668Z" fill="#82B378"/>
<path d="M565.953 405.101C565.953 413.207 506.593 419.753 433.362 419.753C360.131 419.753 300.772 413.179 300.772 405.101C300.772 396.995 360.131 390.449 433.362 390.449C506.593 390.449 565.953 396.995 565.953 405.101Z" fill="#F9DDBF"/>
<path d="M584.838 407.971C584.838 418.723 513.39 427.441 425.284 427.441C337.15 427.441 265.73 418.723 265.73 407.971C265.73 397.219 337.178 388.5 425.284 388.5C513.418 388.5 584.838 397.219 584.838 407.971Z" fill="#F9DDBF"/>
<path d="M803.863 397.915C803.528 403.597 802.693 409.586 801.272 415.937C801.133 416.522 800.993 417.107 800.854 417.692H515.339L553.25 397.915H803.863Z" fill="#F9DDBF"/>
<path d="M359.963 397.024V413.793H20.4652C19.0724 409.169 17.6518 404.211 16.259 398.974L359.963 397.024Z" fill="#F9DDBF"/>
<path d="M573.111 397.913C568.543 397.913 566.175 392.426 569.379 389.139C571.523 386.938 574.309 384.933 577.763 384.097C587.484 381.701 589.88 389.055 595.674 388.359C601.468 387.69 610.771 383.818 619.852 390.448C628.933 397.077 644.922 386.103 655.841 387.217C659.518 387.607 661.913 388.944 663.445 390.531C666.091 393.289 664.086 397.885 660.242 397.885H573.111V397.913Z" fill="#82B378"/>
<path d="M655.001 378.497H719.737L722.717 363.288H658.121L655.001 378.497Z" fill="#D36D1A"/>
<path d="M653.915 378.497H718.623L721.631 363.288H657.007L653.915 378.497Z" fill="#F49540"/>
<path d="M700.628 380.363H718.316C719.096 380.363 719.737 379.723 719.737 378.943V378.497H700.628V380.363Z" fill="#D36D1A"/>
<path d="M642 380.341H700.774V378.475H642V380.341Z" fill="#FFA255"/>
<path d="M701.826 380.363L702.94 384.709L706.227 397.606C706.283 397.773 706.422 397.884 706.589 397.884C706.923 397.884 707.174 397.578 707.118 397.244L704.194 382.174L703.831 380.308H701.826V380.363Z" fill="#FFA255"/>
<path d="M702.94 384.708C702.829 382.479 704.194 382.229 704.194 382.229L703.831 380.362H701.854L702.94 384.708Z" fill="#D36D1A"/>
<path d="M647.37 380.363L646.256 384.709L642.969 397.606C642.913 397.773 642.774 397.884 642.607 397.884C642.273 397.884 642.022 397.578 642.078 397.244L645.002 382.174L645.365 380.308H647.37V380.363Z" fill="#FFA255"/>
<path d="M646.255 384.708C646.367 382.479 645.002 382.229 645.002 382.229L645.364 380.362H647.342L646.255 384.708Z" fill="#D36D1A"/>
<path d="M661.408 380.363L660.294 384.709L657.007 397.606C656.952 397.773 656.812 397.884 656.645 397.884C656.311 397.884 656.06 397.578 656.116 397.244L659.041 382.174L659.403 380.308H661.408V380.363Z" fill="#FFA255"/>
<path d="M660.294 384.708C660.405 382.479 659.041 382.229 659.041 382.229L659.403 380.362H661.38L660.294 384.708Z" fill="#D36D1A"/>
<path d="M185.702 376.328H241.412L243.975 363.236H188.376L185.702 376.328Z" fill="#D36D1A"/>
<path d="M184.755 376.328H240.465L243.028 363.236H187.429L184.755 376.328Z" fill="#F49540"/>
<path d="M224.978 377.943H240.214C240.883 377.943 241.44 377.386 241.44 376.717V376.327H225.005V377.943H224.978Z" fill="#D36D1A"/>
<path d="M174.489 377.957H225.074V376.341H174.489V377.957Z" fill="#FFA255"/>
<path d="M238.069 377.945L239.016 381.706L241.829 392.82C241.857 392.959 241.996 393.071 242.136 393.071C242.414 393.071 242.637 392.82 242.581 392.541L240.074 379.589L239.768 377.973H238.069V377.945Z" fill="#FFA255"/>
<path d="M239.044 381.706C238.961 379.784 240.103 379.561 240.103 379.561L239.797 377.945H238.097L239.044 381.706Z" fill="#D36D1A"/>
<path d="M226.009 377.945L226.956 381.706L229.769 392.82C229.797 392.959 229.936 393.071 230.075 393.071C230.354 393.071 230.577 392.82 230.521 392.541L228.014 379.589L227.708 377.973H226.009V377.945Z" fill="#FFA255"/>
<path d="M226.955 381.706C226.872 379.784 228.014 379.561 228.014 379.561L227.707 377.945H226.008L226.955 381.706Z" fill="#D36D1A"/>
<path d="M179.1 377.945L178.153 381.706L175.34 392.82C175.312 392.959 175.173 393.071 175.033 393.071C174.755 393.071 174.532 392.82 174.588 392.541L177.095 379.589L177.401 377.973H179.1V377.945Z" fill="#FFA255"/>
<path d="M178.153 381.706C178.237 379.784 177.095 379.561 177.095 379.561L177.401 377.945H179.1L178.153 381.706Z" fill="#D36D1A"/>
<path d="M191.19 377.945L190.243 381.706L187.429 392.82C187.401 392.959 187.262 393.071 187.123 393.071C186.844 393.071 186.621 392.82 186.677 392.541L189.184 379.589L189.49 377.973H191.19V377.945Z" fill="#FFA255"/>
<path d="M190.242 381.706C190.325 379.784 189.183 379.561 189.183 379.561L189.49 377.945H191.189L190.242 381.706Z" fill="#D36D1A"/>
<path d="M142.444 317.385C143.224 316.215 146.288 316.855 149.296 318.861C152.304 320.839 154.115 323.401 153.335 324.571C152.555 325.741 149.491 325.101 146.483 323.095C143.474 321.089 141.664 318.555 142.444 317.385Z" fill="#233862"/>
<path d="M158.154 360.922L157.569 360.95C157.569 360.95 157.346 350.588 156.427 346.382C154.728 338.583 150.299 332.454 150.271 332.399L151.33 332.064C151.385 332.12 152.221 333.429 153.419 335.825C154.505 338.025 156.288 341.73 157.04 346.02C157.792 350.254 158.182 360.867 158.154 360.922Z" fill="#BC3F3F"/>
<path d="M147.43 317.272C147.43 317.272 151.301 316.437 153.168 319.612C155.034 322.76 155.145 328.247 156.371 330.058C157.625 331.84 159.797 339.417 157.485 341.116C155.145 342.815 140.8 341.06 139.992 340.281C139.184 339.501 140.048 331.562 141.441 329.25C142.861 326.938 139.435 316.102 147.43 317.272Z" fill="#A53D38"/>
<path d="M141.636 351.842C137.235 350.728 132.416 343.903 132.416 343.903L133.641 342.817C134.923 344.321 140.243 346.94 140.243 346.94C140.215 345.547 140.243 344.293 140.327 343.151C140.912 335.352 143.864 332.761 144.672 332.176C144.811 332.093 144.867 332.037 144.867 332.037C144.867 332.037 144.867 332.093 144.867 332.204C144.867 332.427 144.895 332.901 144.923 333.541C145.118 338.332 145.313 352.789 141.636 351.842Z" fill="#FFB27D"/>
<path d="M133.641 342.845C133.613 342.65 133.502 339.976 132.973 339.474C132.444 338.973 131.385 338.277 131.079 338.332C130.772 338.388 129.742 340.087 130.243 341.257C130.717 342.427 132.416 343.903 132.416 343.903L133.641 342.845Z" fill="#FFB27D"/>
<path d="M151.218 397.19C150.939 398.248 150.661 399.279 150.355 400.198C150.299 400.393 150.215 400.588 150.16 400.783C150.132 400.867 150.104 400.978 150.076 401.062C150.02 401.257 149.937 401.424 149.881 401.619C149.797 401.842 149.714 402.092 149.63 402.287C149.575 402.455 149.519 402.622 149.463 402.761C148.572 405.157 147.82 406.661 147.82 406.661L146.037 406.549C146.037 406.549 146.705 403.374 146.845 398.833C146.845 398.666 146.845 398.499 146.845 398.332C146.845 397.97 146.845 397.608 146.845 397.246C146.845 397.106 146.845 396.939 146.845 396.8C146.817 392.9 146.316 388.276 144.784 383.847C143.53 380.254 142.611 376.911 141.97 373.875C139.853 364.07 140.355 357.636 140.355 357.636L150.355 358.806L150.828 358.861C150.884 363.457 150.995 369.669 151.079 374.544C151.107 375.379 151.107 376.187 151.134 376.939C151.19 380.059 151.246 382.204 151.246 382.204C153.14 386.382 152.444 392.232 151.218 397.19Z" fill="#FFB27D"/>
<path d="M155.981 356.577C154.087 352.343 153.196 351.145 153.168 349.808C153.14 348.749 153.669 347.607 154.672 344.822C154.923 344.153 155.062 343.485 155.173 342.816C155.981 337.44 152.861 331.646 150.939 331.228C150.41 331.089 149.491 329.139 149.491 326.02L149.24 326.075L145.173 326.883C145.173 326.883 145.257 328.164 145.257 329.362C145.257 330.365 145.201 331.396 144.978 331.507C144.672 331.535 141.496 332.092 140.911 333.011C140.354 333.903 140.967 333.986 140.744 337.273C140.438 341.646 143.53 346.827 140.8 355.602C138.014 364.543 157.012 358.916 155.981 356.577Z" fill="#FFB27D"/>
<path d="M145.173 326.882C145.173 326.882 145.257 328.163 145.257 329.361C147.541 329.305 148.739 327.216 149.24 326.074L145.173 326.882Z" fill="#EF9E67"/>
<path d="M144.421 328.026C144.421 328.026 149.797 328.109 149.797 324.767C149.797 321.424 150.494 319.168 147.067 318.973C143.641 318.778 142.973 320.059 142.694 321.174C142.416 322.288 143.001 327.914 144.421 328.026Z" fill="#FFB27D"/>
<path d="M144.616 318.889C144.616 318.889 146.093 322.817 148.349 323.402C150.605 323.987 151.58 323.374 151.58 323.374C151.58 323.374 149.853 322.009 149.491 319.585C149.491 319.585 145.73 316.995 144.616 318.889Z" fill="#A53D38"/>
<path d="M144.978 319.194C144.978 319.194 143.864 320.086 143.613 320.921C143.335 321.785 143.223 323.54 142.722 323.484C142.722 323.484 141.608 320.81 142.861 319.306C144.17 317.69 144.978 319.194 144.978 319.194Z" fill="#A53D38"/>
<path d="M162.973 361.061L161.357 361.535C161.357 361.535 156.037 352.677 155.535 350.393C155.368 349.641 154.978 348.137 154.533 346.465C153.585 342.983 152.388 338.722 152.388 338.722L151.998 336.995L150.633 331.117C150.633 331.117 153.223 331.396 154.755 332.009C155.257 332.231 155.647 332.482 155.786 332.761C156.9 335.212 158.014 341.424 158.794 345.825C159.24 348.276 159.574 350.198 159.741 350.616C160.215 351.786 161.719 357.997 162.973 361.061Z" fill="#FFB27D"/>
<path d="M144.783 319.336C144.783 319.336 145.842 323.458 148.683 324.767C148.683 324.767 145.842 322.233 145.591 319.531C145.34 316.801 144.783 319.336 144.783 319.336Z" fill="#A53D38"/>
<path d="M156.928 396.325C156.343 402.453 153.836 406.409 153.836 406.409L152.973 407.189C152.973 407.189 152.193 402.704 151.608 397.551C151.079 392.676 150.327 387.495 149.491 385.935C148.237 383.568 147.318 378.749 146.65 373.679C145.563 365.267 145.173 356.075 145.173 356.075L155.313 355.573C156.343 357.272 156.761 360.086 156.872 363.289C156.984 366.66 156.705 370.42 156.343 373.818C155.842 378.554 155.118 382.509 154.95 383.373C154.923 383.484 154.95 383.595 155.006 383.707C157.012 387.718 157.318 392.286 156.928 396.325Z" fill="#FFB27D"/>
<path d="M137.736 347.942C137.903 350.003 138.655 352.761 141.636 353.207C142.694 353.374 143.446 352.399 143.975 350.839C144.672 348.778 145.006 345.658 145.117 342.482C145.229 339.502 145.201 336.494 145.117 334.377C143.892 334.237 141.663 333.207 140.967 332.956C140.939 332.984 140.939 333.012 140.911 333.012C140.883 333.04 140.883 333.04 140.883 333.067C140.856 333.095 140.828 333.123 140.828 333.179C140.521 333.736 140.493 336.884 140.354 339.864C140.215 342.482 140.02 344.934 139.491 345.435C139.24 345.658 137.792 345.658 137.792 345.658C137.792 345.658 137.624 346.661 137.736 347.942Z" fill="#FFB93E"/>
<path d="M145.118 342.481C144.895 348.052 144.059 353.54 141.636 353.205C138.655 352.76 137.903 350.002 137.736 347.941C138.46 347.913 139.742 347.718 140.271 346.938C140.995 345.824 143.279 338.665 143.279 338.665C143.279 338.665 144.171 340.281 145.118 342.481Z" fill="#FFA412"/>
<path d="M141.97 350.059C141.97 350.059 147.931 351.563 153.14 349.809C153.14 349.809 156.009 355.909 156.789 358.499C157.569 361.118 163.53 394.516 163.53 394.516C163.53 394.516 150.41 398.304 141.692 395.045C141.692 395.045 139.129 359.335 140.271 355.575C141.441 351.842 141.97 350.059 141.97 350.059Z" fill="#2B478B"/>
<path d="M140.327 339.838C140.772 344.155 141.97 349.977 141.97 349.977C142.639 350.339 143.307 350.59 143.976 350.757C148.6 352.011 153.168 349.726 153.168 349.726C153.168 349.726 153.168 349.587 153.196 349.42C153.196 349.281 153.224 349.142 153.224 349.03C153.252 348.779 154.366 346.161 154.366 346.161C154.366 346.161 154.394 346.356 154.477 346.718C154.867 348.64 156.26 354.908 157.096 355.465C157.597 355.799 159.157 355.799 160.633 355.409C162.165 354.991 163.586 354.128 163.586 352.735C163.586 350.952 160.355 342.902 158.015 337.359C156.761 334.406 156.037 332.373 155.09 332.122C155.09 332.122 148.683 334.74 145.146 334.323C143.92 334.183 141.692 333.153 140.995 332.902C140.967 332.93 140.967 332.958 140.94 332.958C140.912 332.986 140.912 332.986 140.912 333.013C140.912 333.041 140.884 333.041 140.884 333.069C140.355 333.821 140.438 335.103 140.41 335.576C140.327 336.607 140.132 337.916 140.327 339.838Z" fill="#FFB93E"/>
<path d="M154.338 346.243C154.338 346.243 153.252 348.862 153.196 349.112C153.168 349.224 153.168 349.363 153.168 349.502C152.639 349.948 151.998 350.254 151.33 350.449C149.463 351.007 148.656 347.441 148.767 345.658C148.878 343.876 151.497 338.806 152.388 338.695C153.279 338.639 154.338 346.243 154.338 346.243Z" fill="#FFA412"/>
<path d="M154.449 346.799C154.365 346.465 154.338 346.242 154.338 346.242C154.393 346.437 154.421 346.632 154.449 346.799Z" fill="#E58638"/>
<path d="M146.789 351.174C143.39 351.174 142.053 350.227 141.942 350.143L141.719 348.556C141.747 348.584 146.315 351.313 153.362 348.695L153.223 349.893C150.493 350.923 148.543 351.174 146.789 351.174Z" fill="#163560"/>
<path d="M163.558 352.846C163.558 354.239 162.137 355.103 160.605 355.52C162.722 353.013 158.098 337.804 157.987 337.442C160.327 342.958 163.558 351.064 163.558 352.846Z" fill="#FFA412"/>
<path d="M148.823 408.191H147.681C147.291 408.135 147.012 408.024 146.622 407.968C146.037 407.885 145.759 408.135 145.703 408.191H140.912C140.801 408.024 140.912 407.606 141.024 407.327C141.107 407.132 141.274 406.965 141.469 406.91C141.971 406.77 142.973 406.631 143.92 405.795C144.45 405.322 146.427 404.068 146.427 404.068C146.483 404.068 146.678 404.124 147.569 404.904C148.043 405.294 148.823 404.347 148.823 404.347C148.823 404.347 148.962 404.458 149.074 404.709C149.157 404.904 149.241 405.127 149.185 405.461C149.102 405.907 149.352 406.715 149.519 407.244C149.631 407.578 149.714 407.801 149.714 407.801C149.714 407.801 149.798 408.08 148.823 408.191Z" fill="#233862"/>
<path d="M149.102 404.709C148.823 404.904 148.266 405.266 147.876 405.321C147.375 405.377 146.4 404.096 146.4 404.096C146.455 404.096 146.65 404.151 147.542 404.931C148.015 405.321 148.795 404.374 148.795 404.374C148.795 404.374 148.99 404.486 149.102 404.709Z" fill="#466AA5"/>
<path d="M148.823 408.191H147.681C147.291 408.135 147.012 408.024 146.622 407.968C146.037 407.884 145.759 408.135 145.703 408.191H140.912C140.801 408.024 140.912 407.606 141.024 407.327C141.163 407.188 141.219 407.884 141.302 407.996C141.386 408.107 145.23 408.024 145.452 407.884C145.675 407.717 146.344 407.439 147.263 407.661C148.071 407.856 149.269 407.355 149.547 407.216C149.659 407.55 149.742 407.773 149.742 407.773C149.742 407.773 149.798 408.079 148.823 408.191Z" fill="#466AA5"/>
<path d="M154.895 408.191H153.753C153.363 408.135 153.084 408.024 152.694 407.968C152.109 407.885 151.831 408.135 151.775 408.191H146.956C146.845 408.024 146.956 407.606 147.068 407.327C147.151 407.132 147.318 406.965 147.513 406.91C148.015 406.77 149.018 406.631 149.965 405.795C150.494 405.322 152.472 404.068 152.472 404.068C152.527 404.068 152.722 404.124 153.614 404.904C154.087 405.294 154.867 404.347 154.867 404.347C154.867 404.347 155.006 404.458 155.118 404.709C155.201 404.904 155.285 405.127 155.229 405.461C155.146 405.907 155.396 406.715 155.564 407.244C155.675 407.578 155.759 407.801 155.759 407.801C155.759 407.801 155.87 408.08 154.895 408.191Z" fill="#233862"/>
<path d="M155.146 404.709C154.867 404.904 154.31 405.266 153.92 405.321C153.419 405.377 152.444 404.096 152.444 404.096C152.5 404.096 152.695 404.151 153.586 404.931C154.059 405.321 154.839 404.374 154.839 404.374C154.839 404.374 155.034 404.486 155.146 404.709Z" fill="#466AA5"/>
<path d="M154.895 408.191H153.753C153.363 408.135 153.084 408.024 152.694 407.968C152.109 407.884 151.831 408.135 151.775 408.191H146.956C146.845 408.024 146.956 407.606 147.068 407.327C147.207 407.188 147.263 407.884 147.346 407.996C147.43 408.107 151.274 408.024 151.497 407.884C151.72 407.717 152.388 407.439 153.307 407.661C154.115 407.856 155.313 407.355 155.591 407.216C155.703 407.55 155.786 407.773 155.786 407.773C155.786 407.773 155.87 408.079 154.895 408.191Z" fill="#466AA5"/>
<path d="M162.862 360.781C162.862 360.781 163.363 361.951 163.865 362.258C164.366 362.592 164.867 363.344 164.979 363.985C165.174 365.127 164.282 365.851 163.642 365.851C163.001 365.851 162.388 364.96 161.998 362.87C161.97 362.759 161.358 361.561 161.358 361.561L162.862 360.781Z" fill="#FFB27D"/>
<path d="M131.218 336.856L131.273 337.636L131.524 340.088L131.663 341.648H134.783L134.978 340.088L135.284 337.636L135.396 336.856H131.218Z" fill="#EE9849"/>
<path d="M130.995 336.856H135.619L135.535 336.41H131.106L130.995 336.856Z" fill="#D17A33"/>
<path d="M131.273 337.636L131.524 340.087H134.978L135.284 337.636H131.273Z" fill="#D17A33"/>
<path d="M130.884 338.526C130.884 338.526 131.664 337.635 132.472 338.331C133.252 339 132.416 340.448 131.747 340.838C131.051 341.228 130.856 341.423 130.856 341.423L130.884 338.526Z" fill="#FFB27D"/>
<path d="M148.766 360.977L149.351 360.921C149.351 360.921 148.181 350.531 148.516 346.241C149.156 338.219 152.722 331.534 152.75 331.478L151.663 331.283C151.608 331.339 150.967 332.76 150.103 335.322C149.323 337.662 148.07 341.59 147.875 345.963C147.708 350.28 148.739 360.921 148.766 360.977Z" fill="#BC3F3F"/>
<path d="M155.954 358.693C155.954 358.693 155.369 357.272 154.449 356.91L149.77 357.802C149.77 357.802 150.912 358.888 151.023 359.612L155.954 358.693Z" fill="#D2E4FF"/>
<path d="M150.076 366.714L158.071 365.21C158.433 365.126 158.683 364.764 158.628 364.402L157.625 359.11C157.541 358.748 157.179 358.497 156.817 358.553L148.823 360.057C148.461 360.14 148.21 360.503 148.266 360.865L149.268 366.157C149.352 366.519 149.714 366.77 150.076 366.714Z" fill="#912F2F"/>
<path d="M153.003 360.677L156.819 360.644L156.776 355.741L152.96 355.774L153.003 360.677Z" fill="#E58638"/>
<path d="M153.246 360.673L157.062 360.64L157.02 355.737L153.203 355.77L153.246 360.673Z" fill="#EE9849"/>
<path d="M153.859 362.587L156.889 360.268L153.91 356.375L150.879 358.694L153.859 362.587Z" fill="#578E9B"/>
<path d="M154.175 362.332L157.205 360.013L154.226 356.12L151.195 358.439L154.175 362.332Z" fill="#74ACBE"/>
<path d="M152.054 366.352L159.714 364.904C160.188 364.82 160.494 364.374 160.41 363.901L159.463 358.943C159.38 358.469 158.934 358.163 158.461 358.246L150.8 359.695C150.327 359.778 150.02 360.224 150.104 360.697L151.051 365.656C151.107 366.129 151.58 366.436 152.054 366.352Z" fill="#BC3F3F"/>
<path d="M153.864 321.647C153.864 321.647 156.316 316.772 152.89 314.85C149.463 312.928 146.956 313.68 145.09 316.048L153.864 321.647Z" fill="#233862"/>
<path d="M142.304 320.227C142.471 319.67 142.666 319.28 142.833 318.974C142.638 318.528 142.638 318.138 142.806 317.859C143.028 317.497 143.558 317.33 144.254 317.386C145.48 317.469 147.234 318.11 149.017 319.224C151.329 320.673 152.611 322.539 153.112 323.57C153.474 324.294 154.727 325.185 155.145 326.132C155.591 326.021 155.87 325.826 156.065 325.492C156.705 324.461 155.73 322.623 153.78 320.701C152.722 319.67 151.385 318.612 149.825 317.637C148.572 316.857 147.346 316.216 146.176 315.742C143.195 314.517 140.744 314.35 140.02 315.464C139.435 316.495 140.382 318.305 142.304 320.227Z" fill="#2B478B"/>
<path d="M97.5125 334.74C97.1782 334.072 105.089 331.649 105.228 338.278C105.228 338.278 120.075 337.916 113 329.643C110.549 326.774 110.799 324.406 110.883 322.206C110.967 320.005 109.351 313.598 103.863 314.239C103.863 314.239 102.415 313.654 100.632 314.573C96.5097 316.663 87.3454 337.192 97.5125 334.74Z" fill="#163560"/>
<path d="M121.802 342.15C121.802 342.15 122.777 340.673 123.557 340.646C124.337 340.618 125.785 340.2 125.674 340.506C125.562 340.785 124.671 340.813 124.588 341.008C124.504 341.175 125.925 341.453 126.315 341.481C126.732 341.509 127.679 341.481 127.652 341.676C127.624 341.871 125.925 342.707 124.755 342.595C123.557 342.484 122.081 342.93 122.081 342.93L121.802 342.15Z" fill="#FFB27D"/>
<path d="M107.819 342.625C107.819 342.625 108.348 343.656 109.295 344.853C110.437 346.302 112.22 347.945 114.448 348.28C115.507 348.447 116.537 348.196 117.512 347.778C120.214 346.58 122.248 343.823 122.248 343.823C122.721 342.514 121.941 341.65 121.941 341.65C121.941 341.65 116.482 342.876 115.953 342.625C115.423 342.374 112.415 333.628 111.691 332.541C110.966 331.455 108.515 330.87 108.515 330.87L107.819 342.625Z" fill="white"/>
<path d="M109.295 344.851C110.437 346.299 112.22 347.943 114.448 348.277C115.507 348.444 116.537 348.193 117.512 347.776C117.401 347.776 114.699 348.11 113.641 346.188C112.554 344.238 111.356 341.118 109.741 342.149C108.989 342.622 109.017 343.737 109.295 344.851Z" fill="#E7E7E7"/>
<path d="M87.4567 401.508C87.4567 401.508 85.7854 403.04 86.1196 404.099C86.4539 405.185 87.9581 405.91 88.1531 407.219C88.3481 408.528 89.1558 409.252 89.9079 409.252C90.6322 409.252 93.3898 409.252 93.3898 409.252C93.3898 409.252 93.9191 408.333 92.6377 408.054C91.3286 407.776 90.855 406.216 90.9386 404.795C91.0221 403.347 90.8272 401.425 90.8272 401.425L88.0695 400.784L87.4567 401.508Z" fill="#233862"/>
<path d="M101.552 402.15C101.552 402.15 100.939 408.585 101.691 408.947L111.05 408.919C111.05 408.919 111.05 407.833 109.546 407.61C108.042 407.359 105.396 406.496 104.95 404.518C104.504 402.568 101.552 402.15 101.552 402.15Z" fill="#233862"/>
<path d="M94.8939 355.966C96.8159 351.648 97.9858 350.423 97.763 349.058C97.5959 348.055 98.2644 330.478 98.2644 330.478C98.4872 330.395 98.9608 330.339 99.2115 330.283C99.9914 330.116 100.66 329.559 100.938 328.779C101.273 327.86 101.523 326.495 101.523 324.796L101.774 324.852L105.925 325.659C105.925 325.659 105.841 326.969 105.841 328.194V328.222C105.841 329.281 106.537 330.228 107.568 330.534C108.097 330.673 108.543 330.813 108.543 330.813C108.543 330.813 110.075 335.158 110.354 339.615C110.632 344.072 107.596 346.021 110.381 354.935C113.195 364.099 93.8076 358.361 94.8939 355.966Z" fill="#FFB27D"/>
<path d="M105.897 325.716C105.897 325.716 105.813 327.025 105.813 328.251C103.501 328.195 102.276 326.078 101.774 324.908L105.897 325.716Z" fill="#E8945B"/>
<path d="M106.677 326.886C106.677 326.886 101.189 326.97 101.189 323.544C101.189 320.118 100.465 317.834 103.975 317.639C107.485 317.444 108.153 318.753 108.432 319.895C108.71 321.009 108.097 326.775 106.677 326.886Z" fill="#FFB27D"/>
<path d="M106.482 317.554C106.482 317.554 104.978 321.565 102.666 322.15C100.354 322.735 99.3508 322.122 99.3508 322.122C99.3508 322.122 101.134 320.729 101.496 318.25C101.496 318.278 105.34 315.632 106.482 317.554Z" fill="#163560"/>
<path d="M106.092 317.86C106.092 317.86 107.206 318.278 107.651 319.086C108.097 319.893 108.487 320.924 108.404 322.233C108.404 322.233 109.546 319.503 108.264 317.971C106.927 316.328 106.092 317.86 106.092 317.86Z" fill="#163560"/>
<path d="M105.479 324.74C105.479 324.74 105.869 325.241 106.621 325.213C107.234 325.185 107.457 324.656 107.457 324.656C107.457 324.656 106.343 324.377 105.479 324.74Z" fill="#EBF3FA"/>
<path d="M94.3649 338.279C94.3649 338.279 94.2256 340.257 94.3649 342.597C94.4484 344.157 96.0362 346.246 96.259 346.775C96.8161 348.084 97.4568 348.279 97.4568 348.279L102.359 349.477L104.086 349.895L109.518 348.279C109.518 348.279 111.997 341.343 110.994 337.472C109.992 333.572 108.487 330.87 108.487 330.87C108.487 330.87 104.031 335.215 98.2646 330.508L94.3649 338.279Z" fill="white"/>
<path d="M95.7854 343.238C95.869 344.798 96.0082 346.246 96.2589 346.775C96.816 348.084 97.4567 348.279 97.4567 348.279L102.359 349.477L104.504 348.837C104.504 348.837 97.3731 347.75 98.1809 341.622L95.7854 343.238Z" fill="#F2CCAA"/>
<path d="M109.183 349.336C109.183 349.336 111.885 357.72 112.053 360.589C112.22 363.458 106.899 401.202 106.676 402.511C106.482 403.765 104.922 404.545 104.922 404.545C104.922 404.545 104.225 404.963 103.195 404.684C101.802 404.294 101.356 403.821 101.356 403.821C101.356 403.821 99.267 376.912 100.548 367.302C101.858 357.692 101.858 349.364 101.858 349.364H109.183V349.336Z" fill="#233862"/>
<path d="M97.7627 349.086C97.7627 349.086 93.6401 354.601 93.278 358.334C92.888 362.066 92.6652 375.158 91.8574 378.807C91.0496 382.456 88.0413 389.448 88.0413 400.785C88.0413 400.785 88.3477 401.426 89.3226 401.788C89.629 401.899 90.0468 402.011 90.4368 402.094C91.2446 402.289 92.0524 401.899 92.4145 401.147C94.4479 397.052 100.91 383.877 101.245 381.147C101.467 379.197 103.529 366.384 107.986 358.891C109.044 357.08 107.317 349.922 107.317 349.922L97.7627 349.086Z" fill="#2B478B"/>
<path d="M105.591 324.853C105.591 324.853 105.674 325.243 106.677 325.187C106.677 325.187 107.513 325.131 107.485 324.685C107.513 324.685 106.705 324.379 105.591 324.853Z" fill="white"/>
<path d="M109.629 348.028C109.629 348.028 108.543 348.892 106.398 348.92C103.835 348.975 97.4565 348.251 97.4565 348.251C97.4565 348.251 97.178 349.031 97.178 349.867C97.178 349.867 104.95 351.817 109.462 350.145C109.462 350.201 110.047 349.115 109.629 348.028Z" fill="#233862"/>
<path d="M105.841 349.839C105.841 349.115 106.371 348.502 107.011 348.502C107.652 348.502 108.181 349.087 108.181 349.839C108.181 350.563 107.652 351.176 107.011 351.176C106.371 351.176 105.841 350.563 105.841 349.839ZM106.203 349.839C106.203 350.368 106.566 350.786 106.983 350.786C107.429 350.786 107.763 350.368 107.763 349.839C107.763 349.31 107.401 348.892 106.983 348.892C106.566 348.892 106.203 349.31 106.203 349.839Z" fill="white"/>
<path d="M89.083 349.55L97.0452 356.482L106.539 345.579L98.5768 338.646L89.083 349.55Z" fill="#009843"/>
<path d="M99.2392 349.587C99.2392 349.587 102.164 349.921 102.136 350.618C102.136 351.314 101.412 352.735 101.05 352.79C100.688 352.846 98.6821 350.868 98.6821 350.868L99.2392 349.587Z" fill="#FFB27D"/>
<path d="M98.2646 330.479C98.2646 330.479 94.3649 330.758 92.8608 334.379C91.3566 338 88.5432 344.101 88.5432 345.131C88.5432 346.162 90.131 349.31 98.6268 351.148C98.6268 351.148 99.5181 350.229 99.4624 349.505C99.4624 349.505 94.1421 344.936 94.1699 344.407C94.1978 343.404 95.0335 342.067 99.7131 337.415C100.967 336.134 98.2646 330.479 98.2646 330.479Z" fill="white"/>
<path d="M474.81 453.264H462.164L426.732 453.236C425.813 450.506 425.368 446.941 426.064 442.428C428.209 428.445 437.429 420.59 449.546 420.785C461.663 420.952 468.599 428.222 472.053 434.935C474.448 439.643 475.395 447.554 474.81 453.264Z" fill="#82B378"/>
<path d="M242.61 431.116C242.61 431.116 235.841 426.994 237.512 414.877C239.184 402.76 246.37 395.935 255.785 396.103C265.2 396.242 270.632 402.565 273.306 408.387C275.98 414.208 276.342 425.685 274.198 429.25C271.997 432.816 250.632 433.791 242.61 431.116Z" fill="#82B378"/>
<path d="M277.457 393.207C277.457 393.207 273 390.505 274.086 382.538C275.172 374.572 279.908 370.087 286.092 370.198C292.276 370.31 295.841 374.432 297.596 378.276C299.351 382.092 299.601 389.641 298.181 391.981C296.788 394.321 282.749 394.962 277.457 393.207Z" fill="#82B378"/>
<path d="M360.27 444.878C360.27 444.878 357.401 428.444 355.256 431.814C353.139 435.184 360.27 444.878 360.27 444.878Z" fill="#82B378"/>
<path d="M358.042 444.515C358.042 444.515 352.889 435.574 351.802 436.632C350.716 437.69 358.042 444.515 358.042 444.515Z" fill="#82B378"/>
<path d="M361.524 444.99C361.552 444.85 360.939 431.87 364.17 433.263C367.373 434.628 361.524 444.99 361.524 444.99Z" fill="#82B378"/>
<path d="M353.445 444.516C353.445 444.516 358.571 441.842 367.317 443.986C367.317 443.986 369.351 445.073 367.317 445.741C365.256 446.438 350.159 446.716 353.445 444.516Z" fill="#82B378"/>
<path d="M196.259 445.908C196.259 445.908 193.39 429.474 191.246 432.844C189.129 436.243 196.259 445.908 196.259 445.908Z" fill="#82B378"/>
<path d="M194.031 445.574C194.031 445.574 188.878 436.632 187.791 437.691C186.733 438.749 194.031 445.574 194.031 445.574Z" fill="#82B378"/>
<path d="M197.513 446.02C197.54 445.881 196.928 432.9 200.159 434.293C203.39 435.686 197.513 446.02 197.513 446.02Z" fill="#82B378"/>
<path d="M189.435 445.576C189.435 445.576 194.56 442.902 203.307 445.047C203.307 445.047 205.34 446.133 203.307 446.802C201.273 447.47 186.176 447.749 189.435 445.576Z" fill="#82B378"/>
<path d="M653 447.748L524.142 447.692L550.131 426.271L678.988 426.327L653 447.748Z" fill="#DDAF8A"/>
<path d="M683.191 358.137C683.191 358.137 682.105 359.724 681.492 363.095C680.963 366.048 680.489 367.134 679.709 367.747C678.929 368.36 674.584 370.142 674.584 370.142L674.918 370.894C674.918 370.894 681.297 370.031 682.021 368.972C682.745 367.914 685.475 361.619 685.252 360.17C685.029 358.722 683.191 358.137 683.191 358.137Z" fill="#F4A269"/>
<path d="M678.79 391.481C679.18 391.954 678.567 392.567 677.788 393.18C676.98 393.793 677.37 393.793 676.367 394.768C675.392 395.77 674.723 395.77 674.529 395.659C674.361 395.575 674.751 394.99 675.141 394.378C675.197 394.294 675.253 394.211 675.281 394.127C675.726 393.403 675.671 392.595 675.81 391.731C675.921 390.924 675.253 389.029 675.253 389.029L676.562 387.637C676.562 387.637 677.119 389.364 677.398 390.088C677.565 390.506 677.955 390.812 678.289 391.035C678.456 391.174 678.651 391.314 678.79 391.481Z" fill="#FFB27D"/>
<path d="M677.76 393.18C676.952 393.793 677.342 393.793 676.339 394.768C675.364 395.77 674.696 395.771 674.501 395.659C674.334 395.576 674.724 394.991 675.114 394.378H675.141C675.141 394.378 676.116 394.099 676.868 393.208C677.481 392.484 677.871 391.537 678.289 391.035C678.456 391.147 678.651 391.286 678.79 391.453C679.18 391.954 678.568 392.567 677.76 393.18Z" fill="#C65447"/>
<path d="M686.172 371.174C686.172 371.174 673.776 370.227 671.437 371.703C669.097 373.18 675.643 391.815 675.643 391.815C675.643 391.815 676.339 391.62 676.813 391.285C677.258 390.979 677.732 390.366 677.732 390.366C677.732 390.366 678.289 384.127 676.089 376.55C675.838 375.714 686.172 378.361 687.788 375.492C689.403 372.622 688.066 369.781 688.066 369.781L686.172 371.174Z" fill="#2C3A64"/>
<path d="M672.328 395.294C672.383 395.906 671.52 396.074 670.517 396.129C669.514 396.185 669.821 396.38 668.456 396.631C667.091 396.881 666.534 396.491 666.422 396.324C666.339 396.157 666.98 395.906 667.648 395.6C667.732 395.572 667.815 395.517 667.899 395.489C668.679 395.154 669.097 394.458 669.682 393.817C670.239 393.205 670.796 391.283 670.796 391.283L672.662 390.893C672.662 390.893 672.133 392.62 671.966 393.372C671.854 393.817 672.021 394.291 672.161 394.681C672.216 394.876 672.3 395.071 672.328 395.294Z" fill="#FFB27D"/>
<path d="M670.517 396.13C669.514 396.185 669.821 396.38 668.456 396.631C667.091 396.882 666.534 396.492 666.422 396.325C666.339 396.157 666.98 395.907 667.648 395.6C667.648 395.6 668.623 395.935 669.737 395.628C670.656 395.378 671.52 394.848 672.161 394.653C672.244 394.848 672.3 395.071 672.328 395.294C672.383 395.935 671.52 396.074 670.517 396.13Z" fill="#C65447"/>
<path d="M688.595 371.954C688.595 371.954 677.564 372.483 675.308 374.043C673.024 375.603 669.96 392.901 669.96 392.901C669.96 392.901 670.211 393.068 670.712 393.124C671.186 393.152 672.244 392.845 672.244 392.845C672.244 392.845 677.314 384.962 677.62 383.013C677.927 381.063 677.759 379.336 678.623 379.252C679.486 379.169 690.294 380.116 691.798 377.191C693.33 374.238 688.595 371.954 688.595 371.954Z" fill="#1C468A"/>
<path d="M685.558 357.664C685.28 357.33 684.918 356.717 684.5 355.547C684.556 355.658 685.141 357.107 685.92 357.803C688.706 358.75 691.464 364.655 691.492 364.628C691.492 364.628 697.035 360.059 693.163 356.132C691.659 354.6 691.213 352.817 690.962 351.591C690.712 350.366 688.817 345.24 685.614 347.525C685.614 347.525 684.973 347.413 684.723 347.525C684.723 347.525 684.946 347.525 685.085 347.58C684.667 347.664 684.082 347.831 683.664 348.249C682.55 349.363 683.079 356.327 685.558 357.664Z" fill="#163560"/>
<path d="M689.069 356.299C689.069 356.299 688.038 356.215 687.008 356.299C686.311 356.355 685.615 356.577 685.225 356.745C684.25 357.162 684.362 358.862 686.395 358.555C688.428 358.249 689.208 356.828 689.069 356.299Z" fill="#FFB27D"/>
<path d="M685.308 357.551C685.308 357.551 685.03 359.028 686.339 358.972C687.202 358.944 689.096 357.886 688.929 357.134C688.846 356.772 688.177 355.852 688.066 353.735L687.899 353.791L685.225 354.515C685.225 354.515 685.336 355.379 685.392 356.159C685.475 356.827 685.475 357.468 685.308 357.551Z" fill="#FFB27D"/>
<path d="M685.253 354.486C685.253 354.486 685.364 355.349 685.42 356.129C686.924 355.99 687.648 354.542 687.927 353.762L685.253 354.486Z" fill="#F4A269"/>
<path d="M688.177 353.319C688.177 353.319 688.651 351.898 688.567 350.812C688.512 350.032 687.425 347.358 684.751 348.472C684.751 348.472 683.971 348.75 683.331 349.475C682.829 350.032 682.188 351.146 683.776 353.291L684.25 354.043L688.177 353.319Z" fill="#163560"/>
<path d="M685.169 355.742C685.169 355.742 688.679 354.907 688.122 352.734C687.565 350.561 687.648 348.973 685.392 349.419C683.136 349.865 682.913 350.812 682.913 351.564C682.913 352.344 684.25 355.909 685.169 355.742Z" fill="#FFB27D"/>
<path d="M683.776 349.782C683.776 349.782 685.392 352.094 686.952 352.094C688.512 352.094 689.041 351.537 689.041 351.537C689.041 351.537 687.676 350.924 687.063 349.42C687.063 349.42 684.194 348.362 683.776 349.782Z" fill="#163560"/>
<path d="M684.055 349.921C684.055 349.921 683.498 350.673 683.442 351.286C683.414 351.871 683.637 353.041 683.275 353.097C683.275 353.097 682.105 351.537 682.662 350.367C683.303 349.085 684.055 349.921 684.055 349.921Z" fill="#163560"/>
<path d="M681.186 371.369C681.464 371.731 682.383 371.815 683.358 371.982C684.11 372.121 684.918 372.261 685.503 372.595C686.812 373.347 691.046 375.938 692.272 375.826C692.746 375.77 692.662 374.851 692.383 373.653C691.938 371.731 690.963 369.057 690.963 367.887C690.963 367.247 690.74 365.743 690.461 364.043C690.434 363.904 690.406 363.765 690.406 363.626C689.849 360.283 689.069 356.355 689.069 356.355C689.069 356.355 688.205 358.25 686.534 358.25C684.863 358.25 685.253 356.801 685.253 356.801C685.253 356.801 683.72 356.968 683.358 357.358C682.996 357.748 682.077 359.447 681.882 359.893C681.882 359.893 681.854 360.478 683.303 360.757C683.303 360.757 682.941 362.344 682.913 363.403C682.885 364.183 683.442 366.634 683.609 368.166C683.665 368.695 683.665 369.141 683.581 369.308C683.47 369.559 683.108 369.809 682.69 370.032C681.854 370.478 680.824 370.952 681.186 371.369Z" fill="#265CAA"/>
<path d="M689.515 357.553C689.515 357.553 690.796 356.773 692.021 358.249C693.247 359.725 691.13 370.254 689.32 370.812C687.286 371.424 681.186 371.369 681.186 371.369L681.437 370.617C681.437 370.617 687.787 368.583 688.038 368.249C688.289 367.915 688.874 357.72 689.515 357.553Z" fill="#FFB27D"/>
<path d="M689.069 356.299C689.069 356.299 691.687 356.55 692.467 357.413C693.219 358.277 693.442 360.616 693.442 360.616C693.442 360.616 691.13 362.483 688.344 361.758L689.069 356.299Z" fill="#265CAA"/>
<path d="M672.746 367.58L672.495 365.268L675.754 369.557C675.754 369.557 674.389 370.226 674.306 370.114C674.222 370.003 672.746 367.58 672.746 367.58Z" fill="#163560"/>
<path d="M677.62 367.582L680.629 372.178H675.587L672.746 367.582H677.62Z" fill="#1650A5"/>
<path d="M672.746 367.579L672.523 365.295L674.222 367.412L672.746 367.579Z" fill="#EFDECE"/>
<path d="M680.49 371.925L680.712 371.758L677.732 367.329L677.621 367.58L680.49 371.925Z" fill="#EFDECE"/>
<path d="M677.732 367.329L672.968 367.468L672.746 367.58H677.62L677.732 367.329Z" fill="#FCECDB"/>
<path d="M678.707 371.257C678.79 371.257 678.929 371.257 679.041 371.257C678.679 371.09 678.317 370.895 678.317 370.895C678.317 370.895 678.484 370.728 679.097 370.951C679.18 370.979 679.236 370.979 679.319 370.979L678.456 370.589C678.623 370.449 679.041 370.561 679.347 370.672C679.57 370.756 679.849 370.728 680.044 370.561C680.016 370.561 680.016 370.561 679.988 370.561C679.487 370.477 679.347 370.199 679.487 370.227C679.626 370.254 680.489 370.31 680.489 370.31C680.879 370.282 681.631 370.589 681.631 370.589L681.214 371.369C681.214 371.369 679.988 371.591 679.654 371.508C679.626 371.508 679.598 371.48 679.57 371.48L678.456 371.396C678.456 371.424 678.484 371.285 678.707 371.257Z" fill="#FFB27D"/>
<path d="M621.329 402.093C621.162 402.093 613.139 406.745 613.78 408.221C614.393 409.697 624.588 404.934 624.588 404.934L621.329 402.093Z" fill="#ED985F"/>
<path d="M622.889 388.054C622.889 388.054 622.694 385.909 626.733 384.238C630.8 382.567 632.833 385.603 633.056 386.662C633.279 387.72 635.173 393.709 630.354 394.628C625.535 395.547 622.889 388.054 622.889 388.054Z" fill="#233862"/>
<path d="M623.362 405.436C624.253 406.077 625.395 406.578 626.816 406.912C632.136 408.138 634.198 403.626 634.95 400.534C634.226 400.116 633.529 400.032 633.139 399.977C632.749 399.921 632.359 399.893 632.025 399.893C631.44 399.447 630.521 397.553 630.326 394.656L630.075 394.712L625.869 395.854C625.869 395.854 626.064 397.191 626.148 398.445C626.231 399.419 626.175 400.032 626.175 400.032C625.841 400.116 625.507 400.701 625.507 400.701C625.507 400.812 624.281 402.818 623.362 405.436Z" fill="#FFB27D"/>
<path d="M625.897 395.853C625.897 395.853 626.092 397.191 626.176 398.444C628.543 398.193 629.657 395.937 630.103 394.684L625.897 395.853Z" fill="#ED985F"/>
<path d="M625.201 397.108C625.201 397.108 630.855 396.801 630.605 393.291C630.354 389.782 630.911 387.358 627.29 387.414C623.669 387.47 623.056 388.862 622.861 390.06C622.666 391.23 623.724 397.08 625.201 397.108Z" fill="#FFB27D"/>
<path d="M622.888 388.053C623.696 386.939 624.365 387.106 624.755 387.412C627.707 385.49 629.88 387.858 629.88 387.858C630.437 390.365 632.359 391.674 632.359 391.674C632.359 391.674 631.384 392.371 628.961 391.953C628.237 391.813 627.54 391.34 626.955 390.755C628.042 392.287 629.407 393.373 629.407 393.373C626.482 392.259 625.061 388.415 624.922 387.997C624.588 388.332 623.975 389.056 623.808 389.724C623.585 390.644 623.362 391.591 622.833 391.563C622.833 391.563 621.691 389.752 622.888 388.053Z" fill="#233862"/>
<path d="M636.594 416.913C637.095 414.294 638.766 403.877 637.095 400.534C636.51 399.336 634.142 399.225 631.58 399.336C630.772 399.865 627.736 401.815 626.482 401.565C626.482 401.565 626.454 401.565 626.399 401.537C625.814 401.398 625.73 400.423 626.204 400.06C626.204 400.06 624.783 400.506 623.223 400.785C622.332 400.952 619.63 402.79 619.63 402.79C619.63 402.79 621.134 404.406 622.917 405.158C622.61 407.888 623.056 409.086 625.897 415.381C628.293 420.701 625.563 425.492 625.563 425.492C625.563 425.492 639.602 436.801 639.686 431.035C639.769 426.69 635.925 420.255 636.594 416.913Z" fill="#B5453C"/>
<path d="M624.894 437.748C624.142 437.664 623.445 437.246 623.028 436.606C622.972 436.494 622.888 436.383 622.805 436.271C621.217 433.848 620.576 426.439 616.983 418.528C616.12 416.606 612.972 416.271 612.108 414.071C612.108 414.071 609.991 407.024 616.147 406.829C622.303 406.634 632.61 426.439 632.777 428.5C632.916 430.533 636.844 439.085 624.894 437.748Z" fill="#233862"/>
<path d="M600.438 437.581H609.184C609.184 437.581 609.518 436.188 608.933 435.241C608.432 434.405 608.627 433.932 608.989 433.236C608.599 433.403 608.07 433.542 607.513 433.514C607.067 433.486 606.621 433.291 606.203 433.068C605.814 433.486 604.226 435.325 603.697 435.687C603.167 436.077 600.605 435.937 600.438 437.581Z" fill="#9E332E"/>
<path d="M635.675 403.263C635.675 403.263 636.817 413.625 629.435 415.797C622.054 417.97 619.936 406.271 625.925 405.408C631.858 404.572 635.675 403.263 635.675 403.263Z" fill="#9E332E"/>
<path d="M611.886 408.89C611.357 412.846 609.295 425.325 605.674 431.397C604.504 433.347 608.627 434.461 608.655 434.461C609.212 434.322 610.131 433.43 610.549 433.04C613.501 430.394 619.49 422.846 619.49 416.829C619.49 413.876 619.546 408.277 617.401 406.829C616.064 405.965 612.109 407.302 611.886 408.89Z" fill="#233862"/>
<path d="M630.103 437.579C630.103 437.579 629.769 437.133 629.212 436.27C628.543 435.239 627.791 433.234 626.9 430.671C625.953 427.969 624.811 424.654 623.418 421.2C622.972 420.142 622.527 419.055 622.025 417.969C621.162 416.047 618.738 416.298 617.875 414.125C617.875 414.125 614.532 406.576 620.688 406.381C626.844 406.186 638.543 426.548 639.212 428.526C639.936 430.699 643.529 439.668 630.103 437.579Z" fill="#2B478B"/>
<path d="M606.872 437.581H615.619C615.619 437.581 615.953 436.188 615.368 435.241C614.866 434.405 615.061 433.932 615.424 433.236C615.034 433.403 614.504 433.542 613.947 433.514C613.502 433.486 613.056 433.291 612.638 433.068C612.248 433.486 610.66 435.325 610.131 435.687C609.574 436.077 607.039 435.937 606.872 437.581Z" fill="#B5453C"/>
<path d="M626.9 430.673C625.953 427.971 624.81 424.657 623.418 421.203C623.78 418.584 624.588 416.3 625.925 415.381C625.897 415.353 629.128 425.381 626.9 430.673Z" fill="#26407E"/>
<path d="M617.011 408.612C616.482 412.567 615.73 425.325 612.109 431.397C610.939 433.347 615.062 434.461 615.089 434.461C615.646 434.322 616.566 433.431 616.984 433.041C619.936 430.394 625.925 422.846 625.925 416.829C625.925 413.876 622.471 408.5 620.326 407.08C618.989 406.188 617.206 407.024 617.011 408.612Z" fill="#2B478B"/>
<path d="M634.978 400.533C634.978 400.533 622.554 405.101 620.688 405.018C619.49 404.962 609.462 401.425 609.462 401.425L608.571 403.124C608.571 403.124 618.348 409.391 621.022 409.363C626.315 409.308 635.256 406.049 636.287 405.408C637.318 404.767 637.902 401.174 634.978 400.533Z" fill="#FFB27D"/>
<path d="M609.435 401.424C609.435 401.424 608.543 400.032 607.624 400.004C606.733 399.976 605.173 400.617 604.644 400.728C604.114 400.839 602.61 401.313 603.056 402.065C603.501 402.789 605.591 402.956 606.482 402.789C607.373 402.622 608.515 403.151 608.515 403.151L609.435 401.424Z" fill="#FFB27D"/>
<path d="M607.875 400.032C607.875 400.032 606.454 399.391 606.036 399.252C605.619 399.14 605.702 399.252 605.841 399.642C605.953 400.032 606.705 400.394 606.705 400.505C606.705 400.645 607.875 400.032 607.875 400.032Z" fill="#FFB27D"/>
<path d="M624.143 395.075C624.143 395.075 624.672 394.852 626.176 394.991C626.176 394.991 626.092 395.576 624.978 395.632C624.365 395.66 624.143 395.075 624.143 395.075Z" fill="white"/>
<path d="M628.571 402.789C628.571 402.789 629.685 406.299 633.502 407.107C633.502 407.107 639.797 405.157 636.677 400.867C636.677 400.867 633.557 398.555 628.571 402.789Z" fill="#B5453C"/>
<path d="M630.855 384.461C630.855 384.461 632.304 382.428 636.009 383.486C639.713 384.544 637.847 389.113 639.073 390.394C640.298 391.675 641.97 394.294 639.073 395.38C636.176 396.439 633.78 396.661 634.505 392.65C635.229 388.639 634.755 384.517 631.273 385.408L630.855 384.461Z" fill="#233862"/>
<path d="M571.524 430.34C571.83 429.616 576.538 417.304 580.159 417.304C582.109 417.304 583.864 417.749 583.446 420.981C583.028 424.184 579.435 441.621 577.178 441.371C574.922 441.12 571.524 430.34 571.524 430.34Z" fill="#182E51"/>
<path d="M584.727 438.836C584.671 439.366 584.532 440.452 584.671 441.093C584.699 441.26 584.866 441.399 585.033 441.399H590.911C591.189 441.399 591.384 441.093 591.245 440.842C590.939 440.313 590.41 439.533 589.825 439.282C589.1 438.976 588.432 438.558 588.181 438.391C588.125 438.335 588.042 438.335 587.958 438.335L585.089 438.53C584.894 438.53 584.755 438.669 584.727 438.836Z" fill="#182E51"/>
<path d="M586.398 419.504C586.398 419.504 588.209 437.08 588.431 438.529C588.431 438.529 585.618 439.086 584.755 438.529C583.919 437.972 580.353 428.529 580.437 426.83C580.521 425.159 586.398 419.504 586.398 419.504Z" fill="#233862"/>
<path d="M574.448 430.34C574.754 429.616 579.462 417.304 583.083 417.304C585.033 417.304 586.788 417.749 586.37 420.981C585.952 424.184 582.359 441.621 580.103 441.371C577.874 441.12 574.448 430.34 574.448 430.34Z" fill="#233862"/>
<path d="M560.577 432.875C560.577 432.875 559.184 440.925 565.117 441.371C571.078 441.816 579.184 441.733 580.103 441.371C581.022 441.009 583.947 434.045 578.432 432.652C572.944 431.259 560.577 432.875 560.577 432.875Z" fill="#233862"/>
<path d="M577.624 421.871C578.098 419.392 579.685 409.503 578.098 406.3C577.541 405.158 575.312 405.046 572.861 405.158C572.109 405.659 569.212 407.498 568.014 407.275C568.014 407.275 557.373 413.514 560.048 419.503C561.273 422.233 560.827 426.383 560.159 429.587C559.602 432.344 561.301 435.074 564.059 435.715C570.465 437.219 578.404 436.411 578.432 432.679C578.515 428.528 577.011 425.046 577.624 421.871Z" fill="white"/>
<path d="M574.644 411.426C574.644 411.426 580.215 420.562 584.059 422.428C584.059 422.428 585.841 419.643 582.526 414.963C579.212 410.256 577.958 405.353 576.955 405.771C575.953 406.189 574.644 411.426 574.644 411.426Z" fill="#FFB27D"/>
<path d="M583.111 417.304C583.111 417.304 586.175 417.248 586.927 418.028C587.707 418.808 586.621 422.735 584.086 422.429L583.111 417.304Z" fill="#FFB27D"/>
<path d="M576.705 405.381C576.705 405.381 578.209 405.409 579.602 408.612C579.602 408.612 578.153 414.267 575.145 413.765C572.137 413.264 576.705 405.381 576.705 405.381Z" fill="white"/>
<path d="M571.44 390.646C571.44 390.646 567.847 389.95 566.036 391.259C562.777 393.626 562.61 401.816 561.384 403.041C560.159 404.267 557.234 403.738 556.955 410.061C556.705 416.384 558.125 416.913 556.426 419.727C554.727 422.54 557.15 425.353 557.15 425.353C557.15 425.353 556.148 423.794 556.593 422.679C556.593 422.679 558.71 425.743 560.159 426.607C564.058 428.947 568.432 428.111 570.577 426.663C570.883 426.44 571.245 426.328 571.635 426.273C572.694 426.106 574.922 424.713 574.114 415.855C573.668 411.008 576.76 406.133 575.479 404.016C575.479 404.016 576.064 404.908 576.12 405.938C576.12 405.938 576.9 404.462 575.563 403.069C574.226 401.677 577.15 398.835 576.705 395.521C576.37 393.236 574.755 390.73 571.44 390.646Z" fill="#233862"/>
<path d="M159.128 453.124H57.68C43.2511 453.124 30.4099 443.96 25.7023 430.311C25.3124 429.141 24.9224 428.026 24.5881 427.024C22.6661 421.063 20.5491 414.238 18.4043 406.689C18.4043 406.689 34.8945 402.344 52.9725 411.536C71.0505 420.728 64.9223 435.408 85.368 432.678C105.841 429.948 137.819 426.55 149.128 436.077C155.201 441.285 157.931 448.026 159.128 453.124Z" fill="#82B378"/>
<path d="M137.039 434.571C137.039 434.571 143.808 423.652 147.93 425.268C152.053 426.883 138.738 434.571 138.738 434.571H137.039Z" fill="#82B378"/>
<path d="M134.058 432.009C134.058 432.009 135.256 424.767 138.153 425.101C141.05 425.435 136.705 432.009 136.705 432.009H134.058Z" fill="#82B378"/>
<path d="M51.5796 415.992C51.5796 415.992 61.1339 404.572 64.3651 405.324C67.5963 406.104 53.1673 416.354 53.1673 416.354L51.5796 415.992Z" fill="#82B378"/>
<path d="M49.6577 412.818C49.6577 412.818 51.134 404.963 53.7524 405.074C56.3708 405.186 51.719 412.818 51.719 412.818H49.6577Z" fill="#82B378"/>
<path d="M56.5381 416.383C56.5381 416.383 70.9113 413.375 71.4684 416.383C72.0534 419.391 56.5381 416.383 56.5381 416.383Z" fill="#82B378"/>
<path d="M514.114 403.038C514.114 407.161 478.404 410.504 434.365 410.504C390.326 410.504 354.616 407.161 354.616 403.038C354.616 398.916 390.326 395.573 434.365 395.573C478.432 395.573 514.114 398.916 514.114 403.038Z" fill="#82B378"/>
<path d="M404.142 403.488C404.142 403.488 398.627 400.368 401.663 392.513C404.699 384.658 411.412 376.83 424.978 375.828C438.543 374.825 446.12 375.549 453.028 380.647C459.936 385.744 469.462 392.931 466.565 400.117C463.696 407.304 415.34 405.855 404.142 403.488Z" fill="#73A567"/>
<path d="M345.118 321.342C345.118 321.342 342.388 321.621 340.828 323.933C339.742 325.548 339.937 329.337 338.488 330.646C337.04 331.955 337.318 334.518 339.157 335.604C340.995 336.691 350.744 337.443 353.78 334.88C356.817 332.289 352.722 330.869 352.945 326.523C353.112 324.518 350.243 320.757 345.118 321.342Z" fill="#163560"/>
<path d="M335.842 363.737C335.842 363.737 334.365 365.214 334.143 365.715C333.92 366.216 333.613 367.442 334.7 367.526C335.814 367.637 336.26 367.47 336.399 366.941C336.566 366.411 336.872 364.657 336.872 364.657L335.842 363.737Z" fill="#F4A269"/>
<path d="M341.107 338.334C341.107 338.334 338.265 339.114 337.43 342.847C336.622 346.579 337.402 354.574 336.678 357.08C335.953 359.587 335.062 364.184 335.062 364.184C335.062 364.184 336.065 364.991 337.123 364.936C337.123 364.936 342.555 356.969 342.611 354.796C342.694 352.679 341.107 338.334 341.107 338.334Z" fill="#FFB27D"/>
<path d="M362.778 411.091C362.778 411.091 364.505 412.651 364.171 413.766C363.837 414.88 362.277 415.632 362.082 416.969C361.859 418.334 361.023 419.058 360.271 419.058C359.519 419.058 356.678 419.058 356.678 419.058C356.678 419.058 356.121 418.111 357.458 417.805C358.795 417.526 359.296 415.91 359.213 414.434C359.129 412.958 359.352 410.98 359.352 410.98L362.193 410.312L362.778 411.091Z" fill="#233862"/>
<path d="M348.265 411.76C348.265 411.76 348.878 418.389 348.126 418.751L338.488 418.724C338.488 418.724 338.488 417.609 340.048 417.359C341.608 417.108 344.31 416.217 344.784 414.183C345.229 412.205 348.265 411.76 348.265 411.76Z" fill="#233862"/>
<path d="M355.117 364.213C353.14 359.756 351.914 358.502 352.165 357.11C352.332 356.079 351.636 337.973 351.636 337.973C351.413 337.89 350.939 337.834 350.661 337.778C349.853 337.611 349.184 337.026 348.906 336.246C348.571 335.299 348.293 333.906 348.293 332.151L348.042 332.207L343.78 333.043C343.78 333.043 343.864 334.38 343.892 335.661V335.689C343.892 336.775 343.168 337.75 342.109 338.057C341.58 338.224 341.106 338.335 341.106 338.335C341.106 338.335 339.546 342.82 339.24 347.416C338.934 352.012 342.081 354.018 339.212 363.21C336.26 372.597 356.204 366.664 355.117 364.213Z" fill="#FFB27D"/>
<path d="M343.781 333.042C343.781 333.042 343.864 334.379 343.892 335.66C346.287 335.604 347.541 333.404 348.07 332.206L343.781 333.042Z" fill="#E8945B"/>
<path d="M342.973 334.239C342.973 334.239 348.628 334.322 348.628 330.813C348.628 327.303 349.352 324.935 345.759 324.712C342.137 324.517 341.441 325.855 341.163 327.024C340.884 328.222 341.497 334.127 342.973 334.239Z" fill="#FFB27D"/>
<path d="M343.196 324.628C343.196 324.628 344.756 328.751 347.123 329.364C349.491 329.977 350.522 329.336 350.522 329.336C350.522 329.336 348.711 327.887 348.321 325.353C348.321 325.38 344.366 322.679 343.196 324.628Z" fill="#163560"/>
<path d="M343.586 324.963C343.586 324.963 342.444 325.381 341.97 326.217C341.497 327.024 341.107 328.111 341.218 329.448C341.218 329.448 340.048 326.634 341.357 325.047C342.722 323.403 343.586 324.963 343.586 324.963Z" fill="#163560"/>
<path d="M344.198 332.067C344.198 332.067 343.808 332.569 343.029 332.541C342.388 332.513 342.165 331.956 342.165 331.956C342.165 331.956 343.335 331.677 344.198 332.067Z" fill="#EBF3FA"/>
<path d="M354.338 345.994C354.338 345.994 354.31 348.669 354.171 351.092C354.087 352.707 353.92 354.212 353.697 354.741C353.112 356.078 352.472 356.301 352.472 356.301L347.402 357.554L345.619 358L340.021 356.329C340.021 356.329 337.458 349.198 338.489 345.187C339.519 341.175 341.079 338.39 341.079 338.39C341.079 338.39 345.647 342.875 351.608 338L354.338 345.994Z" fill="white"/>
<path d="M340.382 357.359C340.382 357.359 337.597 365.994 337.43 368.947C337.262 371.9 342.75 410.758 342.945 412.123C343.14 413.404 344.728 414.212 344.728 414.212C344.728 414.212 345.452 414.629 346.51 414.351C347.959 413.933 348.404 413.46 348.404 413.46C348.404 413.46 350.577 385.744 349.24 375.855C347.903 365.967 347.875 357.387 347.875 357.387H340.382V357.359Z" fill="#233862"/>
<path d="M352.165 357.108C352.165 357.108 356.399 362.791 356.789 366.635C357.179 370.479 357.402 383.961 358.237 387.721C359.073 391.454 362.165 398.668 362.165 410.367C362.165 410.367 361.831 411.036 360.856 411.398C360.549 411.509 360.104 411.621 359.714 411.704C358.906 411.899 358.042 411.482 357.68 410.729C355.591 406.523 348.934 392.958 348.599 390.145C348.349 388.139 346.26 374.964 341.663 367.22C340.549 365.354 342.332 357.972 342.332 357.972L352.165 357.108Z" fill="#2B478B"/>
<path d="M344.087 332.15C344.087 332.15 343.976 332.568 342.945 332.512C342.945 332.512 342.081 332.456 342.109 332.011C342.109 331.983 342.945 331.677 344.087 332.15Z" fill="white"/>
<path d="M339.936 356.049C339.936 356.049 341.051 356.94 343.279 356.968C345.925 357.024 352.471 356.3 352.471 356.3C352.471 356.3 352.75 357.107 352.75 357.971C352.75 357.971 344.755 359.976 340.103 358.277C340.103 358.249 339.519 357.135 339.936 356.049Z" fill="#233862"/>
<path d="M363.035 361.76L350.929 366.207L353.416 372.979L365.523 368.532L363.035 361.76Z" fill="#163560"/>
<path d="M350.939 366.161C350.939 366.161 354.838 368.584 358.571 367.024C362.304 365.465 363.028 361.704 363.028 361.704L350.939 366.161Z" fill="#235187"/>
<path d="M352.722 366.159C352.332 366.215 351.998 365.936 351.942 365.574C351.886 365.184 352.165 364.85 352.527 364.794C352.917 364.739 353.251 365.017 353.307 365.379C353.363 365.741 353.084 366.103 352.722 366.159ZM352.555 365.017C352.304 365.045 352.109 365.296 352.165 365.546C352.193 365.797 352.444 365.992 352.694 365.936C352.945 365.908 353.14 365.658 353.084 365.407C353.029 365.156 352.806 364.961 352.555 365.017Z" fill="#17467F"/>
<path d="M360.605 366.857C360.605 366.857 360.605 367.887 360.8 368.361C360.995 368.862 361.58 369.503 361.775 369.503C361.97 369.503 361.608 368.472 361.691 368.5C361.775 368.528 362.248 370.199 362.583 370.255C362.917 370.283 363.223 368.361 363.056 367.609C362.889 366.857 362.109 365.938 362.109 365.938L360.605 366.857Z" fill="#FFB27D"/>
<path d="M351.636 337.971C351.636 337.971 354.756 338.389 356.455 341.703C357.764 344.266 358.655 352.316 359.575 354.851C360.466 357.274 361.357 361.453 362.026 365.213C362.082 365.492 362.137 365.909 362.137 365.909L360.633 366.829C360.772 367.107 360.132 365.77 359.992 365.436C357.625 360.227 356.956 357.859 355.563 353.876C355.034 352.372 353.335 349.029 352.666 347.915C351.023 345.241 349.742 344.21 350.661 341.23L351.636 337.971Z" fill="#FFB27D"/>
<path d="M335.285 364.351C335.285 364.351 334.254 364.88 334.003 365.214C333.753 365.548 333.335 366.022 333.586 366.078C333.864 366.133 334.644 365.548 334.644 365.548L335.285 364.351Z" fill="#F4A269"/>
<path d="M334.142 366.495C334.142 366.495 335.062 365.827 335.647 366.049C336.231 366.3 336.259 367.191 336.092 367.386C335.925 367.581 334.449 367.776 334.059 367.275C333.697 366.774 334.142 366.495 334.142 366.495Z" fill="#FFB27D"/>
<path d="M342.109 338.056C342.109 338.056 346.148 339.393 350.661 337.777C350.661 337.777 353.753 337.917 355.146 339.532C356.538 341.148 358.21 345.437 358.21 345.437C358.21 345.437 356.594 348.808 352.137 348.864C347.653 348.919 338.321 346.022 338.321 346.022C338.321 346.022 337.151 346.412 336.176 345.688C336.176 345.688 337.151 341.009 338.628 339.699C340.104 338.362 342.109 338.056 342.109 338.056Z" fill="white"/>
<path d="M352.304 364.962C352.276 364.851 349.964 353.569 349.184 347.163C348.794 343.792 348.962 341.341 349.184 339.893C349.435 338.305 350.02 337.581 350.048 337.553L350.299 337.581C350.299 337.608 348.767 340.756 349.519 347.107C350.271 353.514 352.583 364.767 352.611 364.879L352.304 364.962Z" fill="#0C2442"/>
</svg>
