<?xml version="1.0" encoding="utf-8"?>
<!-- Generator: Adobe Illustrator 25.2.1, SVG Export Plug-In . SVG Version: 6.00 Build 0)  -->
<svg version="1.1" id="_x2014_лой_x5F_1" xmlns="http://www.w3.org/2000/svg" xmlns:xlink="http://www.w3.org/1999/xlink"
	 x="0px" y="0px" viewBox="0 0 2758.7 1729.2" style="enable-background:new 0 0 2758.7 1729.2;" xml:space="preserve">
<style type="text/css">
	.st0{fill:#ED7D2B;}
	.st1{fill:#F99746;}
	.st2{fill:#233862;}
	.st3{fill:#2A4E96;}
	.st4{fill:#FFFFFF;}
	.st5{fill:#FFB27D;}
	.st6{fill:#E2915A;}
	.st7{fill:#25468D;}
	.st8{fill:#D4E3FA;}
	.st9{fill:#205099;}
	.st10{fill:#183F72;}
	.st11{fill:#163560;}
	.st12{fill:#ED975D;}
	.st13{fill:#244F94;}
	.st14{fill:#6BB7BF;}
	.st15{fill:#86D1CD;}
	.st16{fill:#F1A34F;}
	.st17{fill:#DB7714;}
	.st18{fill:#5685D8;}
	.st19{fill:#739AF0;}
	.st20{fill:#2E3552;}
	.st21{fill:#FFAB73;}
	.st22{fill:#355C89;}
	.st23{fill:#063663;}
	.st24{fill:#032D4F;}
	.st25{fill:#FA9050;}
	.st26{fill:#009941;}
	.st27{fill:#8A1D1C;}
	.st28{fill:#007E32;}
	.st29{fill:#A9453D;}
	.st30{enable-background:new    ;}
	.st31{font-family:'Helvetica-Bold';}
	.st32{font-size:140px;}
	.st33{font-size:134px;}
	.st34{font-size:110.3543px;}
	.st35{fill:#FDB07D;}
	.st36{fill:#3E5B85;}
	.st37{fill:#112C4C;}
	.st38{fill:#EB955D;}
	.st39{fill:#02964B;}
	.st40{fill:#7F2722;}
	.st41{fill:#067C3B;}
	.st42{fill:#DCE3F7;}
	.st43{fill:#2B478B;}
	.st44{fill:#2A4E94;}
	.st45{fill:#2B4789;}
	.st46{fill:#193660;}
	.st47{fill:#D7915C;}
	.st48{fill:#141414;}
	.st49{fill:#D8915B;}
	.st50{fill:#C98557;}
	.st51{fill:#28375F;}
	.st52{fill:#314685;}
	.st53{fill:#8C874A;}
	.st54{fill:#A6A361;}
	.st55{fill:#F1A977;}
	.st56{fill:#163962;}
	.st57{fill:#44974C;}
	.st58{fill:#D48B5D;}
	.st59{fill:#E29763;}
	.st60{fill:#0A2352;}
	.st61{fill:#20509A;}
	.st62{fill:#1A3E70;}
	.st63{fill:#E8E8E8;}
	.st64{font-size:94.996px;}
</style>
	<g>

		<image style="overflow:visible;opacity:0.3;" width="467" height="381" xlink:href="9786E977E08D4DAF.png"  transform="matrix(1 0 0 1 1187 -15.8)">
	</image>
		<g>
		<g>
			<g>
				<g>
					<path class="st0" d="M1460.6,313.9l-115.5,2c-0.1-6.3,2.3-12,6.3-16.2s39.7-6.9,46-7c5.5-0.1,9.9-4.7,9.8-10.2l-0.9-38.2
						l20-0.5l0.9,38.2c0.1,2.8,1.2,5.2,3.1,7s4.4,2.8,7.1,2.8c6.3-0.1,12,2.3,16.2,6.3C1457.8,302,1460.5,307.6,1460.6,313.9z"/>
					<path class="st1" d="M1494.3,313.9l-90.5,1.3c-14.5-1.9-14.2-11.6-10.2-15.8c4-4.2,9.6-6.9,15.9-7c5.5-0.1,9.9-4.7,9.8-10.2
						l-0.9-38.2l7.8-0.2l0.9,38.2c0.1,2.8,1.2,5.2,3.1,7s4.4,2.8,7.1,2.8c6.3-0.1,45.7,2.3,49.9,6.3
						C1491.5,302,1494.2,307.6,1494.3,313.9z"/>
					<path class="st1" d="M1526.5,19.2l-9.8,94.7c0.9,39.7-20.3,72.6-48.3,92.1l0,0c-9.5,6.6-19.9,11.7-30.4,15
						c-8.7,2.7-14.7,12.1-14.4,22.8l0.1,2.2c0.1,6.6,0.3,12.2,0.3,12.2l-14.6,0.3c0,0-0.1-5.6-0.3-12.3c-0.3-11.8-7.2-22-16.8-24.7
						c-41.1-11.6-78.5-50.3-79.7-102.9l-12.5-94.2L1526.5,19.2z"/>
					<g>
						<path class="st0" d="M1333.6,177c-10.9-26.2-30.5-31.8-51.2-37.7c-16.6-4.7-33.7-9.6-46.5-25c-14.2-17-17.6-41.5-8.5-60.8
							c6.9-14.7,19.6-23.1,34.7-23.1c21.5,0.1,39.3,15.5,51.4,44.4c8.7,20.8,11.5,41.2,11.6,42l-12.4,1.7
							c-0.1-0.8-10.6-75.5-50.6-75.6c-13.8-0.1-20.5,9.9-23.3,15.9c-7,14.8-4.2,34.3,6.8,47.5c10.3,12.4,24.9,16.6,40.3,21
							c21.6,6.2,46.1,13.1,59.4,44.9L1333.6,177z"/>
					</g>
					<g>
						<path class="st1" d="M1498.4,173.2c9.7-26.6,29-33.1,49.4-40c16.3-5.5,33.2-11.2,45.3-27.1c13.4-17.7,15.7-42.3,5.7-61.2
							c-7.6-14.4-20.6-22.2-35.8-21.4c-21.5,1.1-38.5,17.3-49.3,46.8c-7.7,21.1-9.5,41.7-9.6,42.5l12.5,1.1
							c0.1-0.8,7.1-75.9,47-77.9c13.8-0.7,21,9,24.1,14.8c7.6,14.4,5.7,34.1-4.6,47.7c-9.7,12.9-24.1,17.7-39.3,22.8
							c-21.3,7.2-45.4,15.3-57.2,47.6L1498.4,173.2z"/>
					</g>
					<path class="st0" d="M1468.4,206c-9.5,6.6-19.9,11.7-30.4,15c-8.7,2.7-14.7,12.1-14.4,22.8l0.1,2.2c-2.5,4.2-3.7,8.4-3.1,12.3
						l-11.2,0.3c0,0-0.1-5.6-0.3-12.3c-0.3-11.8-7.2-22-16.8-24.7c-41.1-11.6-78.5-50.3-79.7-102.9l-12.5-94.2l37.4-0.9
						C1337.5,23.6,1322.5,242.1,1468.4,206z"/>
					<path class="st1" d="M1434.6,260.3l-37.3,0.9c-5.1,0.1-9.3-3.9-9.4-9l0,0c-0.1-5.1,3.9-9.3,9-9.4l37.3-0.9
						c5.1-0.1,9.3,3.9,9.4,9l0,0C1443.7,256,1439.7,260.2,1434.6,260.3z"/>
				</g>
			</g>
		</g>
	</g>
</g>
	<g>

		<image style="overflow:visible;opacity:0.3;" width="2847" height="1637" xlink:href="9786E977E08D4DAD.png"  transform="matrix(1 0 0 1 -39 141.2)">
	</image>
		<g>
		<g>
			<g>
				<g>
					<path class="st2" d="M824.9,1427.4c0,0,2.6,29.8-3.7,32.9l-80.5-0.2c0,0,0-9.3,12.9-11.4s35.6-9.6,39.5-26.5
						C797,1405.4,824.9,1427.4,824.9,1427.4z"/>
					<path class="st2" d="M1055.9,1415.9c0,0,2.4,41.3-3.9,44.4l-80.5-0.2c0,0,0-9.3,12.9-11.4s35.6-9.6,39.5-26.5
						C1027.8,1405.4,1055.9,1415.9,1055.9,1415.9z"/>
					<path class="st3" d="M1058.7,1421c0,0-16,8.2-22.8,9.7c-7.6,1.7-21.9,0.6-21.9,0.6c-27.4-73.4-112.3-371.8-112.3-371.8
						c-3.7,82.5-18.6,164.8-34.1,231c-0.4,1.8-0.8,3.5-1.2,5.3l0,0c-0.4,1.6-0.8,3.2-1.1,4.7c0,0.1,0,0.1,0,0.2
						c-18.8,78.1-37.6,131.2-37.6,131.2s-4.9,6.2-18.4,3.3c-15.5-3.2-20.7-10-20.7-10c10-318,15.6-497.2,15.6-497.2
						s134.4-72.6,170.9-10.5C1011.6,979.5,1058.7,1421,1058.7,1421z"/>
					<path class="st4" d="M1004.5,960.3c-17.4-62.3-20.3-121.4-20.2-170.4c0.2-69.7,6.4-118.8-14.5-127.1c0,0-64.8-18.8-109.4-27.1
						c-7.1-3.9-15-8-21-10.4c-14.1-5.7-69-85.5-78.3-104.7c-9.3-19.1-24.7-102.4-24.7-102.4L715,425c0,0-6.4,93.5-3.3,117.8
						c3.1,24.4,71.1,129.1,76.7,138.3l0,0c24.2,88.5,0,232.5,11.1,264.6c5.7,16.5,111.2,46.8,169,43c2.9-0.2,5.6-0.5,8.3-0.8l0,0
						c13.7-1.9,23.6-6.3,27.2-13.9C1005.7,970.2,1006,965.7,1004.5,960.3z"/>
					<path class="st5" d="M736.4,418.2c0,0,12.1-35.1,3.2-36.2c-8.8-1-31-0.9-33.8,5c-2.7,5.9,9.1,38,9.1,38L736.4,418.2z"/>
					<g>
						<g>
							<g>
								<path class="st0" d="M530.4,505.7l-64.6-39.1c2.9-4.7,7.4-7.9,12.4-9.1s10.4-0.6,15.2,2.3c4.2,2.5,9.6,1.2,12.1-3L523,428
									l15.1,9.1L520.6,466c-1.3,2.1-1.6,4.5-1,6.7c0.5,2.2,1.9,4.2,4,5.5c4.7,2.9,7.9,7.4,9.1,12.4
									C533.9,495.5,533.2,501,530.4,505.7z"/>
								<path class="st1" d="M530.4,505.7l-42.9-26c-9.9-8.3-5.1-15.4-0.1-16.6s10.4-0.6,15.2,2.3c4.2,2.5,9.6,1.2,12.1-3l17.5-28.9
									l5.9,3.6L520.6,466c-1.3,2.1-1.6,4.5-1,6.7c0.5,2.2,1.9,4.2,4,5.5c4.7,2.9,7.9,7.4,9.1,12.4
									C533.9,495.5,533.2,501,530.4,505.7z"/>
								<path class="st1" d="M719.4,317.4l-52.3,65.9c-18.2,30.1-49.6,44.5-79.7,45.7l0,0c-10.3,0.4-20.4-0.7-29.7-3.3
									c-7.7-2.1-16.7,2.1-21.6,10.2l-1,1.7c-3,5-5.6,9.2-5.6,9.2l-11-6.7c0,0,2.6-4.3,5.6-9.3c5.4-8.9,5.1-19.8-0.8-26.4
									c-25.2-28.1-34.6-74.7-10.5-114.5l35.4-76.1L719.4,317.4z"/>
								<g>
									<path class="st0" d="M500.7,343.4c4.3-24.7-7.7-38.2-20.3-52.4c-10.1-11.4-20.6-23.2-22.8-40.7
										c-2.5-19.4,6.6-39.3,22.5-49.4c12.1-7.7,25.6-7.9,36.8-0.7c16,10.3,21.9,30.2,17.2,57.5c-3.4,19.6-11,36.1-11.3,36.8
										l-10-4.7c0.3-0.6,27.9-61.3-1.8-80.4c-10.3-6.6-20-2.4-24.9,0.7c-12.2,7.7-19.4,23.6-17.5,38.6
										c1.8,14.1,10.7,24.2,20.1,34.8c13.2,14.9,28.1,31.7,22.9,61.6L500.7,343.4z"/>
								</g>
								<g>
									<path class="st1" d="M625.3,418.8c19.9-15.3,37.3-10.9,55.8-6.3c14.8,3.7,30.1,7.5,46.6,1.3c18.4-6.8,31.7-24.1,33.3-42.9
										c1.2-14.3-4.9-26.3-16.5-32.9c-16.5-9.4-36.9-5.4-58.9,11.5c-15.8,12.1-26.9,26.5-27.3,27.1l8.8,6.7
										c0.4-0.5,41.3-53.2,72-35.7c10.6,6,11.4,16.6,10.9,22.4c-1.2,14.4-11.9,28.1-26.1,33.4c-13.4,5-26.4,1.7-40.1-1.7
										c-19.3-4.8-41.1-10.2-65.2,8.3L625.3,418.8z"/>
								</g>
								<path class="st0" d="M587.3,429c-10.3,0.4-20.4-0.7-29.7-3.3c-7.7-2.1-16.7,2.1-21.6,10.2l-1,1.7c-3.8,2-6.8,4.5-8.1,7.7
									l-8.5-5.1c0,0,2.6-4.3,5.6-9.3c5.4-8.9,5.1-19.8-0.8-26.4c-25.2-28.1-34.6-74.7-10.5-114.5l35.4-76.1l28.3,17.1
									C576.4,230.9,461.5,386.7,587.3,429z"/>
								<path class="st1" d="M536.4,453.5l-28.2-17.1c-3.8-2.3-5.1-7.3-2.8-11.2l0,0c2.3-3.8,7.3-5.1,11.2-2.8l28.2,17.1
									c3.8,2.3,5.1,7.3,2.8,11.2l0,0C545.2,454.5,540.2,455.8,536.4,453.5z"/>
							</g>
						</g>
					</g>
					<path class="st5" d="M705.9,387.1c0,0-1.1,12.1,2.7,14.4c3.9,2.3,5.2-14.4,5.2-14.4s0.2,13.7,3.2,14.6s4.8-15.7,4.8-15.7
						s0.3,13.2,2.3,12.8c2-0.5,3.4-12.8,3.4-12.8s0.9,9.6,3.7,7.9c2.7-1.7,5.3-12,5.3-12L705.9,387.1z"/>
					<path class="st5" d="M736.4,418.2c0,0,8.3-6.5,10.1-12.4s7.2-15.9,4.3-17.1s-11.2,11.6-11.2,11.6L736.4,418.2z"/>
					<path class="st5" d="M879.7,626.1l-1,5.4c0,0-4.8,16.6,15.5,23.2c20.3,6.6,37.4,9.6,39.4-3.5c0.1-10.5-0.1-26.8,1.4-35.2
						c0.6-3.1,1.4-6.4,2.7-10l-40.1-8.8l-12.3-0.4L879.7,626.1z"/>
					<path class="st6" d="M885.3,596.9l-3.7,19.7c38.1,10.1,54.8-6.9,56.1-10.5l-40.1-8.8L885.3,596.9z"/>
					<path class="st5" d="M943.6,597.9c-11.8,24-44.3,14-58,8.5c-3.9-1.6-6.2-2.8-6.2-2.8c-4.2-2.5-4.7-10.2-3.2-19.8
						c2.8-19,13.3-45,18.3-51.1c7.6-9,19.5-17.8,50.2-0.5C975.3,549.6,958.8,567.1,943.6,597.9z"/>
					<path class="st2" d="M891.1,505.7c0,0,14.8,3,34,0.3c15.6-2.1,31.2,9.4,36.1,14c0.1-1,0.1-2.3-0.4-3.8c0,0,2,2.5,1.7,5.2
						c0.2,0.3,0.3,0.4,0.2,0.5c0,0,3,0.3,4.7,1.6c0,0-1.2-0.6-1.9,0.2c-0.1,0.1-0.2,0.1-0.3,0.2c18.7,16.5,11.1,51.3,1.9,57.3
						c-11.1,7.2-30.1,26.9-30.1,26.9s0.7-7.2,4.6-15.2c3.9-8-3.4-10-11.4-16.4c-8.1-6.4,2.5-14.9-3.6-23.6
						c-6.2-8.7-36.6-13.2-34.8-18C881.9,527.9,890.8,506.9,891.1,505.7z"/>
					<path class="st4" d="M896,589c0,0-2,3-9.9-0.5c0,0-6.6-2.9-5.1-6.4C881,582,888.6,581.9,896,589z"/>
					<path class="st7" d="M887.1,670.3c0,0-18.3,121.5-155.2,205.8l-12.8,37.1h49.4c0,0,122.6-102.8,130.9-239.5L887.1,670.3z"/>
					<polygon class="st7" points="887.1,670.3 887.1,651.9 909.7,658.3 899.4,673.8 					"/>
					<path class="st8" d="M879.7,626.1l-13.2,11.3c0,0-3.7,15.8,5.2,32.9l26.6-15.2C898.4,655.1,882.7,647.5,879.7,626.1z"/>
					<path class="st8" d="M898.4,655.1c0,0,2.6,14.3,9.6,21.4c0,0,30-5.2,38.3-19.6l-12.6-19.6C933.7,637.2,930.7,650.6,898.4,655.1
						z"/>
					<path class="st5" d="M1078.1,969.9c0,0,0.1,27.2-2.4,32.6c-2.5,5.4-13.7,23-18.9,26.8c-5.2,3.8,1.1-21.8-0.5-26.5
						s-3.6,9.2-6,9.8s-3-11.7-3.6-16.1c-0.6-4.4,10.2-16.6,13.4-26.5C1063.2,960.2,1078.1,969.9,1078.1,969.9z"/>
					<path class="st4" d="M969.4,662.8c0,0,26.4,7.2,44.2,46.5c18.7,41.2,68.9,132.8,70.8,145.5c1.9,12.6-3.3,130.7-3.3,130.7
						s-21.9,0.8-28.7-9.6c0,0-7.6-103.6-11-109.3c-3.4-5.6-89.8-108.6-82.5-134.8C966.1,705.8,969.4,662.8,969.4,662.8z"/>
					<path class="st8" d="M1003.9,973.9c-6.5,5.6-15.4,10.5-27.2,13.9l0,0c-2.9,0.8-5.7,1.1-8.3,0.8c-48.3-5-40.8-192.5-17.5-206.4
						c24.6-14.6,33.4,7.6,33.4,7.6c-0.1,49,2.7,108.1,20.2,170.4C1006,965.7,1005.7,970.2,1003.9,973.9z"/>
					<path class="st2" d="M865.2,1300.5c0.3-1.5,0.7-3,1.1-4.7C866,1297.4,865.6,1298.9,865.2,1300.5z"/>
					<path class="st2" d="M867.6,1290.5c14.8-69.9-1.2-257.2,6-260.8c7.3-3.7,28.1,29.8,28.1,29.8
						C898,1142,883.1,1224.3,867.6,1290.5z"/>
				</g>
				<g>
					<polygon class="st5" points="378,1686.6 372.7,1648 395.2,1629.2 402.3,1680.3 					"/>
					<path class="st2" d="M452.8,1721H361c0,0-2.2-14,2.6-24.6c4.6-10.2,11.7-16.5,12.4-24.3c5.8,6,13,9.9,26.3,8.1
						c1.6,2.6,10.5,16.7,15.9,20.6C424.2,1705.2,450.9,1703.7,452.8,1721z"/>
					<path class="st9" d="M434.3,1165.5c-6,48.3-10.9,93.8-14.9,136.2c-21.4,226-17.2,364.1-17.2,364.1s-1.5,4.1-14.8,4.1
						c-7.5,0-14.8-1.6-14.8-1.6s-47.8-147.6-44.1-231.5c0.4-10.1,1.6-19.3,3.7-27.2c11.5-43-42.4-207.3,16.2-268.4
						C407,1080,437.1,1143.4,434.3,1165.5z"/>
					<path class="st10" d="M434.3,1165.5c-6,48.3-10.9,93.8-14.9,136.2l-90.9,135.1c0.4-10.1,1.6-19.3,3.7-27.2
						c11.5-43-42.4-207.3,16.2-268.4C407,1080,437.1,1143.4,434.3,1165.5z"/>
					<path class="st5" d="M506.5,705.2c0,0-2.2-11-4.7-19.4c-1.1-3.7,6.6-28.2,11.9-31.2c5.3-3,19.2,13.5,15.2,26.1
						c-2,6.5-5.3,27.6-5.3,27.6L506.5,705.2z"/>
					<path class="st5" d="M506.5,705.2c0,0-2.9-6.4-5.5-7.4s-5.4-11.5-7.3-15.6c0,0,1.8-2.7,5.1,0.8c2,2.1,6.4,8.4,6.4,8.4
						L506.5,705.2z"/>
					<path class="st5" d="M127.8,742.3c-0.6,1.2-1.3,3.2-2,5.2c0-0.5,0-1.1,0-1.6c0-3.9-14.5-25-20.5-26.3s-14.4,18.5-6.9,29.4
						c3.8,5.6,13.2,24.9,13.2,24.9l15.5-8c0,0,0.9-7,3.1-8.7c2.2-1.8,1.8-12.6,2.4-17.1C132.4,740,129.9,738,127.8,742.3z"/>
					<path class="st5" d="M224.2,1675c-1.3-12.4-1.6-44.9-1.6-44.9s33.2-10.6,31.9-3.3c-6,35.8-4.4,53.5-4.4,53.5l-13.4,8
						L224.2,1675z"/>
					<path class="st9" d="M406.6,1163.2c0,0-128.1,351.1-153.3,503.4c0,0-5.8,4-16.7,2.7c-12.4-1.5-15.7-10.1-15.7-10.1
						s-23.1-182.5,22.9-245.9c31.6-43.5-13.6-234.8,60-250.1C377.3,1147.9,406.6,1163.2,406.6,1163.2z"/>
					<path class="st11" d="M383.9,825.5L383.9,825.5c0-0.2-0.1-0.3-0.1-0.5c-0.7-3.1-1.6-6.1-2.4-9.2l0,0c-2.7-9.2-5.9-18-9.3-25.8
						c-2-4.4-4-8.6-6.1-12.2c-0.3-0.6-0.6-1.1-0.9-1.6l0,0c-4.9-8.3-10-14.1-14.6-15.8c-8.4-3.2-17.7-2.3-24.1-1
						c1.4-2,4.6-3.1,4.6-3.1c-4.1,0-12.5,5.3-12.5,5.3c-59-13.2-55.5,70.3-51.5,89.2s-15,28.1-41.8,47.5
						c-51.1,36.9-50.3,76.1-50.3,76.1c0.5,0.2,1,0.4,1.5,0.7c2.1-5.1,6.4-14.7,11-16.7c-0.1,0.5-3.8,12.9-4.9,19.8
						c7.8,4.3,18.6,10.9,30.3,18.4l0,0c15.7,10,32.9,21.6,46.8,30.9c-0.7-3.8-1.3-9.2-0.3-12.3l4.4,13.7l0.6,1.8
						c8.8,6,15.8,10.8,19.4,13.2c0.4,0.2,0.7,0.5,1,0.7c1,0.7,1.6,1.1,1.6,1.1c-1.2-4.8,4-17.4,12.6-33.3c0.6-1.1,1.2-2.2,1.9-3.4
						c2.8-5,5.9-10.3,9.3-15.8c1.2-2,2.4-3.9,3.7-5.9l0,0c1-1.6,2-3.2,3.1-4.9l0,0c2.5-3.9,5.1-7.8,7.8-11.7
						c6.9-10.1,14.1-20.2,21.3-29.4c10.4-13.4,20.6-25.1,29.2-32.7c0.3-0.6,0.5-1.2,0.8-1.8c1.3-3.1,2.4-6.6,3.2-10.1
						c0.2-1.1,0.5-2.1,0.7-3.2c2.1-11.2,2.2-22.4,2.1-25c0.7,10.8,0.4,19-0.3,25.2c-0.2,1.4-0.3,2.6-0.5,3.8l0,0
						c-0.5,2.6-1,4.8-1.5,6.6c1.4-1.7,2.6-3.6,3.7-5.7c0.7-1.4,1.4-2.8,1.9-4.3C391.7,876.4,389.9,850.2,383.9,825.5z"/>
					<path class="st5" d="M372.8,910c0.2,0.1-16.5,12.2-30.7,10.5c-13.3-1.6-24.2-17-24-17c5.3-1.9,5.7-9.6,0.8-41.6l2.5,0.1l42.5,2
						c0,0,1,13.1,2.8,25.4C368.2,899.6,370.3,909.3,372.8,910z"/>
					<path class="st12" d="M363.9,864c0,0,1,13.1,2.8,25.4c-23.2,2.8-38.5-16.5-45.3-27.4L363.9,864z"/>
					<path class="st11" d="M316.5,858.1c0,0-14.9-17.3-20.3-33.2c-3.8-11.4-4.3-55.5,40.1-55.7c0,0,12.8-0.6,25.9,5.6
						c10.4,5,26.1,16.7,16.4,56.7l-2.1,13.3L316.5,858.1z"/>
					<path class="st13" d="M439.7,1156.5c0,0-55.3,32.8-124.6,16c-0.8-0.2-57.1-9.2-57.1-9.2c1-2.6,8.2-46.2,9.2-48.6
						c12.3-31.8,34.8-204.2,53.6-212.7c4.8,5.2,18.5,8.8,30.3,7.8c13.5-1.2,18-7,16.9-13.3c15,7.1,26.5,13.6,26.5,13.6
						C408,930.6,439.7,1156.5,439.7,1156.5z"/>
					<path class="st5" d="M373.4,874.4c0,0-54.5,9-59.6-25s-15.6-55.8,19-63s43.3,4.8,47.8,15.7C385,813.1,387.4,871.2,373.4,874.4z
						"/>
					<path class="st11" d="M357.5,782c0,0-9,42.1-31.1,51.5c-22.1,9.3-32.9,4.6-32.9,4.6s15.5-16.6,15.5-41.6
						C309.1,796.5,343.4,764.6,357.5,782z"/>
					<path class="st11" d="M354.3,785.8c0,0,12.5,7.2,16.5,15.5s7.9,25.9,13,24.5c0,0,7.2-28.8-7.7-42.3
						C360.3,769.2,354.3,785.8,354.3,785.8z"/>
					<path class="st4" d="M524,705.9c-2.2-0.8-5.5-2.6-9.7-3c-3.8-0.3-8.6,0.9-8.6,0.9s-15.4,95.6-16.5,100.6
						c-1.1,5.1-65.9,78-83.4,77.8c-15.8-0.3-34.5,11.9-37.9,14.3c0,0,36.7,77.7,38.6,92.3c2,15.9,21,260.4,21,260.4
						s-1.1,11.4,20.1,5.3c21.3-6.1,26.6-11.2,26.6-11.2s-19.5-192.5-23.6-252.3c-0.5-8-1.9-15.5-3.7-22.3
						c-1.8-6.6-0.4-13.7,3.7-19.2c26.9-36.9,69.3-96.6,71.7-109.3C525.6,821.3,524,705.9,524,705.9z"/>
					<path class="st2" d="M300.6,1721h-91.7c0,0-2.2-14,2.6-24.6c4.6-10.2,11.7-16.5,12.4-24.3c5.8,6,13,9.9,26.3,8.1
						c1.6,2.6,10.5,16.7,15.9,20.6C272,1705.2,298.8,1703.7,300.6,1721z"/>
					<path class="st4" d="M363.6,996.3c-3.1-19-42.6-95.4-42.6-95.4s-25-7.5-41.4-1.5s-101.4-42-104.1-46.5
						c-2.7-4.4-48.2-89.2-48.2-89.2s-3.8-2.2-9.8,1c-6,3.1-6,9.2-6,9.2s35.1,106.8,44.5,123.3c5.6,10,53,44.6,89.8,70.6
						c7,5,10.7,13.4,9.5,21.9c-4.9,36.5-6.2,57.1-11.9,119.7c-4.7,52-6.5,152.6-6.5,152.6s41.1,14.2,69.5,16.1
						c28.4,1.9,34.6-28,34.6-28S366.8,1015.8,363.6,996.3z"/>
					<path class="st4" d="M355.5,857.6c0,0,6.6,3.9,14.4,2.7c5.4-0.8,6.6-7.2,6.6-7.2s-3.7-1.2-9.7,0
						C360.9,854.4,355.5,857.6,355.5,857.6z"/>
				</g>
				<g>
					<path class="st14" d="M569.7,561.5c0,0,12.4,17,11.1,36.4c-1,14.4-13.8,29-14.7,29.6l20.3,10.8c0,0,15-26.7,10-49
						c-1.6-6.8-8.7-17.8-14-22.6C576.5,561.4,569.7,561.5,569.7,561.5z"/>
					<path class="st15" d="M528.2,563.3L515.4,535c0,0,59.9,2,79.8,50.8C595.1,585.8,553.2,555.9,528.2,563.3z"/>
				</g>
				<g>
					<path class="st14" d="M303,1219.5c0,0-14.3-10.8-18-26.9c-2.7-12,4.1-27,4.7-27.6l-19.1-3.8c0,0-5.7,25.4,3.9,42.3
						c2.9,5.2,11.5,12.3,17,15C297.5,1221.3,303,1219.5,303,1219.5z"/>
					<path class="st15" d="M336.3,1207.9l17.4,19.9c0,0-49.2,13.1-77.3-21.7C276.3,1206,317.8,1220,336.3,1207.9z"/>
				</g>
				<g>
					<path class="st16" d="M2371,1299.3c0,0-1.2-18.7,33.9-27.8c15.7-4.1,50.8,3.2,28.6,37.6c-23.1,35.9-43.7,22.9-43.7,22.9
						s48.2-37.7,28.9-55c-21.3-19-29.5,18.7-29.5,18.7S2380.6,1295.4,2371,1299.3z"/>
					<path class="st17" d="M2383.4,1334.3c0,0-13.1-7.1-7.9-22.9l18.9,3.3c0,0-7.3,17.1,10.5,19.2
						C2404.9,1333.8,2387.8,1337.9,2383.4,1334.3z"/>
				</g>
				<g>
					<path class="st16" d="M1130.4,758.2c0,0-1.2-18.7,33.9-27.8c15.7-4.1,50.8,3.2,28.6,37.6c-23.1,35.9-43.7,22.9-43.7,22.9
						s48.2-37.7,28.9-55c-21.3-19-29.5,18.7-29.5,18.7S1140,754.2,1130.4,758.2z"/>
					<path class="st17" d="M1142.8,793.1c0,0-13.1-7.1-7.9-22.9l18.9,3.3c0,0-7.3,17.1,10.5,19.2
						C1164.3,792.6,1147.2,796.7,1142.8,793.1z"/>
				</g>
				<g>
					<path class="st18" d="M1134.1,351.4c0,0,19.6-28.3,49.7-8.2l18.3-17.5c0,0-17.1-13-56.6,10.3
						C1119.7,351.2,1134.1,351.4,1134.1,351.4z"/>
					<path class="st19" d="M1114.8,379.1c0,0-3.9-32.4,50.4-52.7c0,0-19.6,9.5-25.7,41.9L1114.8,379.1z"/>
				</g>
				<g>
					<path class="st18" d="M1708.6,1155.5c0,0-31.8-13.2-18.6-46.9l-21-14.2c0,0-9.1,19.5,22.1,53.2
						C1711.4,1169.7,1708.6,1155.5,1708.6,1155.5z"/>
					<path class="st19" d="M1739.7,1168.6c0,0-30.9,10.7-62.2-38.1c0,0,13.5,17.2,46.3,16.2L1739.7,1168.6z"/>
				</g>
				<path class="st1" d="M1472.2,199.2c0,0,16.1-10.1,17.7-22.4c0,0,15.6,0.8,19,5.9c0,0-7.2,20.3-15.6,24.1
					C1493.3,206.8,1474.3,208.1,1472.2,199.2z"/>
				<path class="st1" d="M955.6,1355.8c0,0-17.1-10.8-18.9-23.9c0,0-16.7,0.9-20.3,6.3c0,0,7.7,21.6,16.7,25.7
					C933.1,1363.9,953.4,1365.3,955.6,1355.8z"/>
				<path class="st15" d="M1743.4,714.3c0,0,17.2-10.9,19-24c0,0,16.7,0.9,20.4,6.3c0,0-7.7,21.7-16.7,25.8
					C1766,722.5,1745.7,723.9,1743.4,714.3z"/>
				<path class="st20" d="M2755.3,1729.2H0c-1.9,0-3.4-1.5-3.4-3.4v-1.8c0-1.9,1.5-3.4,3.4-3.4h2755.3c1.9,0,3.4,1.5,3.4,3.4v1.8
					C2758.7,1727.6,2757.2,1729.2,2755.3,1729.2z"/>
			</g>
		</g>
	</g>
</g>
	<g>

		<image style="overflow:visible;opacity:0.3;" width="433" height="1132" xlink:href="9786E977E08D4DB3.png"  transform="matrix(1 0 0 1 1202 261.2)">
	</image>
		<g>
		<g>
			<path class="st21" d="M1474.3,315.2c1,5.3,11.2,10.4,13.7,11.1c2.3-6.4,7.3-12.4,7-12.1c-0.2-0.5-0.5-1.1-0.9-1.8
				c-2.3-4.5-6.8-11.7-12.3-13.4c-8.2-2.5-24.5-4.1-25.5-0.6C1455.3,301.9,1473.2,309.3,1474.3,315.2z"/>
			<path class="st22" d="M1438.1,1343.5h105.1c7.5-5.1-2-55-2-55s-28.7-10.9-33.6,11.3c-5,22.1-36.5,29.2-53.3,31.9
				C1442.8,1333.4,1439.2,1339.7,1438.1,1343.5z"/>
			<path class="st22" d="M1285.6,1343.5h105.1c7.5-5.1-2-55-2-55s-28.7-10.9-33.6,11.3c-5,22.1-36.5,29.2-53.3,31.9
				C1290.4,1333.4,1286.8,1339.7,1285.6,1343.5z"/>
			<path class="st23" d="M1313.9,834c0,0,4.7,59,10.3,129.8c7.5,96.3,27.9,334.9,27.9,334.9s13.3,11.4,42.9,5.2
				c0,0,25.2-82.3,32.7-176.3c0.1-1.5,0.2-3.1,0.3-4.6c7-95.7,17.9-297.1,17.9-297.1L1313.9,834z"/>
			<path class="st24" d="M1312.3,813.7c0,0,6.3,79.3,11.9,150.2l103.5,163.8c0.1-1.5,0.2-3.1,0.3-4.6c7-95.7,17.9-297.1,17.9-297.1
				L1312.3,813.7z"/>
			<path class="st23" d="M1335.4,798.7l168.7,499.3c0,0,28.2,14.4,39.8-5.1c0,0-2.7-210.5-32.8-262.7
				c-17-29.5-28.9-112.3-26.9-140.2c4-54.8-12.3-105.8-12.3-105.8L1335.4,798.7z"/>
			<path class="st21" d="M1376,538.2c11.5,6,22.6,6.4,32.3,4.4c8.9-1.9,16.5-5.8,21.9-9.2c5.6-3.6,8.8-6.7,8.8-6.7s-0.4-0.6-1-1.7
				c-3.4-5.8-13.7-26.6-9.1-60.1c0.1-0.4-3.3,0.2-8.3,1.4c-14.9,3.5-44.8,12-46.2,12.4h-0.1c0,0-0.4,7-1.6,19.6
				c-0.1,1.1-0.2,2.3-0.3,3.5c-0.2,1.5-0.3,3-0.5,4.7C1370.7,519.6,1376,538.2,1376,538.2z"/>
			<path class="st25" d="M1372.9,498.3c22.2,5.1,55.4-27.7,55.4-27.7c-2.4-1.8-5-3.2-7.6-4.3c-14.9,3.5-44.8,12-46.2,12.4h-0.1
				C1374.4,478.7,1374.1,485.7,1372.9,498.3z"/>
			<path class="st21" d="M1342.7,311.6c0,0,8.7-13.2,17.3-13.9c8.6-0.8,26.4,1.3,25.1,4.6c-4.2,10.7-19.2,5.9-22.9,12.7
				c-3.2,5.8-14.7,8.2-14.7,8.2L1342.7,311.6z"/>
			<path class="st21" d="M1365.3,476.9c0,0,9.1,3.3,20.8,4.8c17,2.3,39.5,0.9,46.5-19.7c11.9-34.7,27-55.5-7.9-69.7
				c-18.7-7.6-30.6-8-38.8-5.1c-7.1,2.5-11.2,7.5-14.4,12.4C1364.9,410.3,1351.2,470.8,1365.3,476.9z"/>
			<path class="st26" d="M1303.8,584.9c83.5,78,68.8-70.5,68.8-70.5s-31.8-14.1-41.8-14.1s-16.4-33.7-48.2-80.2l0,0l0,0l66.3-95.2
				c0,0-2.5-14.2-6.2-13.3c-5.2,1.2-14.9,7.3-25,14.8c-25.4,18.8-70.9,57.2-79.7,76.9C1238,403.2,1230.4,516.3,1303.8,584.9z"/>
			<path class="st27" d="M1374.9,365.4l0.1-0.2C1374.9,365.3,1374.9,365.4,1374.9,365.4z"/>
			<path class="st26" d="M1312.6,817.6c0,0,49.7,16.9,102.5,17.3c10.3,0.1,24.9-1.9,37-3.9c12.4-2.1,22.1-4.2,22.1-4.2
				c10.6-2.4,22.3-9,20.7-21.1c-4.8-36.7-1.7-132.9-4.1-192.9c0,0-0.1-11.7,7.3-19.9l0,0c1.2-1.3,2.6-2.6,4.3-3.7
				c11.1-7.3,55.7-61.7,78.3-140.3c2.7-9,3.7-14.5,3.8-14.8c0,0,0.6-2.5,0.7-2.5v-2.8c-6.4-29.2-71.1-107-88.4-114.9
				c-0.5-0.2-1.1-0.1-1.7,0.4l0,0c-5.7,4.8-8.1,13.8-8.1,14l4,8.1l42.5,100.4c-40.6,39-46,70-55.8,68c-9.4-2-41.2,4.7-43.6,5.3
				c-0.7-0.2-1.5-0.3-2.3-0.5c0,0-33.9,19.1-59,5c0,0-0.2,0-0.7,0.1c-6.1,1-49.8,8.2-60.4,19.4c-3.6,3.8-5,27.2-5.4,53.1
				c-0.6,36.1,0.8,77.1,0.8,77.1C1304.4,703.5,1283.7,811.6,1312.6,817.6z"/>
			<path class="st28" d="M1452.1,830.9c12.4-2.1,22.1-4.2,22.1-4.2c10.6-2.4,22.3-9,20.7-21.1c-4.8-36.7-1.7-132.9-4.1-192.9
				c0,0-0.1-11.7,7.3-19.9c-11.7,10.3-43.6,40.9-51.4,74C1438.4,702.1,1444.3,794.5,1452.1,830.9z"/>
			<path class="st21" d="M1493.5,312.7c0,0-0.1-10.5-2-12.7c-1.8-2.1-3.1,3.8-3.4,5.7C1487.9,307.6,1493.5,312.7,1493.5,312.7z"/>
			<path class="st21" d="M1345.2,308.2c0,0,2.7-7.1,3.3-9c0.6-1.9,2-2,2.2-0.7s0.6,4-0.4,5.5
				C1349.3,305.5,1345.2,308.2,1345.2,308.2z"/>
			<path class="st29" d="M1349.7,396.7c20.4,14.6,48.5,0.2,57.3,4.1c8.7,3.9,10.3,18.5,10.5,23.2s0.8,8.6,12.6,5.8
				c1.9-0.5,3.3-0.3,4.3,0.3c4.9,2.9-1.4,17.1-3.3,20.1c0,0-2.7,10.1,3.3,15.1c0.7,0.6,12.6,5.8,41.3-38.1
				c4.5-6.9,8.8-22.4,1.9-37.4c-7-15-36-29.4-60.7-37.1c-9.2-2.9-16.1-2.8-21.5-0.8c-8.9,3.3-13.7,11.7-18.4,20.2
				C1369.1,386.4,1349.7,396.7,1349.7,396.7z"/>
		</g>
	</g>
</g>
	<g>

		<image style="overflow:visible;opacity:0.3;" width="710" height="261" xlink:href="9786E977E08D4DB5.png"  transform="matrix(1 0 0 1 1559 1509.2)">
	</image>
		<g>
		<rect x="1594.8" y="1545" class="st4" width="624.6" height="175.6"/>
	</g>
</g>
	<g>

		<image style="overflow:visible;opacity:0.3;" width="658" height="462" xlink:href="9786E977E08D4DB7.png"  transform="matrix(1 0 0 1 1100 1308.2)">
	</image>
		<g>
		<rect x="1135.9" y="1343.6" class="st4" width="572.9" height="377"/>
	</g>
</g>
	<g>

		<image style="overflow:visible;opacity:0.3;" width="720" height="346" xlink:href="9786E977E08D4DB4.png"  transform="matrix(1 0 0 1 583 1424.2)">
	</image>
		<g>
		<rect x="618.3" y="1460.1" class="st4" width="635.4" height="260.5"/>
	</g>
</g>
	<g id="LMzHMH.tif">

		<image style="overflow:visible;enable-background:new    ;" width="488" height="197" id="Layer_0" xlink:href="977E7E6B267EF964.png"  transform="matrix(1.9427 0 0 1.9427 1714.9558 -620.8411)">
	</image>
</g>
	<g class="st30">

		<image style="overflow:visible;opacity:0.3;" width="163" height="273" xlink:href="9786E977E08D4DBD.png"  transform="matrix(1 0 0 1 1398 1369.2)">
	</image>
		<g>
		<text transform="matrix(1 0 0 1 1433.3074 1524.9709)" class="st24 st31 st32">1</text>
	</g>
</g>
	<g class="st30">

		<image style="overflow:visible;opacity:0.3;" width="163" height="273" xlink:href="9786E977E08D4DBF.png"  transform="matrix(1 0 0 1 902 1468.2)">
	</image>
		<g>
		<text transform="matrix(1 0 0 1 937.215 1624.2253)" class="st24 st31 st32">2</text>
	</g>
</g>
	<g class="st30">

		<image style="overflow:visible;opacity:0.3;" width="162" height="273" xlink:href="E67FBE53746C3A5C.png"  transform="matrix(1 0 0 1 1872 1532.2)">
	</image>
		<g>
		<text transform="matrix(1 0 0 1 1907.0906 1688.276)" class="st24 st31 st32">3</text>
	</g>
</g>
	<g class="st30">

		<image style="overflow:visible;opacity:0.3;" width="159" height="264" xlink:href="E67FBE53746C3A5B.png"  transform="matrix(1 0 0 1 1350 3.2)">
	</image>
		<g>
		<text transform="matrix(1 0 0 1 1385.1008 153.7318)" class="st4 st31 st33">1</text>
	</g>
</g>
	<g class="st30">

		<image style="overflow:visible;opacity:0.3;" width="212" height="244" xlink:href="E67FBE53746C3A54.png"  transform="matrix(1 0 0 1 487 227.2)">
	</image>
		<g>
		<text transform="matrix(0.8676 0.4972 -0.4972 0.8676 548.7742 345.3335)" class="st4 st31 st34">2</text>
	</g>
</g>
	<g>

		<image style="overflow:visible;opacity:0.3;" width="108" height="100" xlink:href="E67FBE53746C3A57.png"  transform="matrix(1 0 0 1 571 396.2)">
	</image>
		<g>
		<path class="st5" d="M606.4,435.7c0,0-0.9,9.3,2.1,11s4-11,4-11s0.2,10.5,2.4,11.2c2.3,0.7,3.7-12.1,3.7-12.1s0.2,10.1,1.8,9.8
			c1.5-0.3,2.6-9.8,2.6-9.8s0.7,7.4,2.8,6c2.1-1.3,4.1-9.2,4.1-9.2L606.4,435.7z"/>
	</g>
</g>
	<g>
	<path class="st35" d="M3419.7,587.4c1,5.1,10.8,10,13.2,10.7c2.2-6.2,7-12,6.7-11.7c-0.2-0.5-0.5-1.1-0.8-1.7
		c-2.2-4.4-6.5-11.3-11.9-12.9c-7.9-2.4-23.6-3.9-24.6-0.6C3401.4,574.5,3418.7,581.7,3419.7,587.4z"/>
		<path class="st36" d="M3384.8,1536.4h101.4c7.3-4.9-2-53.1-2-53.1s-27.7-10.5-32.5,10.9c-4.8,21.3-35.3,28.1-51.4,30.7
		C3389.4,1526.7,3385.9,1532.8,3384.8,1536.4z"/>
		<path class="st36" d="M3237.7,1536.4h101.4c7.3-4.9-2-53.1-2-53.1s-27.7-10.5-32.5,10.9c-4.8,21.3-35.3,28.1-51.4,30.7
		C3242.3,1526.7,3238.8,1532.8,3237.7,1536.4z"/>
		<path class="st11" d="M3265,1045c0,0,4.6,56.9,9.9,125.2c7.3,92.9,26.9,323.1,26.9,323.1s12.9,11,41.4,5c0,0,24.3-79.4,31.5-170.1
		c0.1-1.5,0.2-3,0.3-4.5c6.8-92.3,17.3-286.6,17.3-286.6L3265,1045z"/>
		<path class="st37" d="M3263.5,1025.4c0,0,6.1,76.5,11.5,144.9l99.8,158c0.1-1.5,0.2-3,0.3-4.5c6.8-92.3,17.3-286.6,17.3-286.6
		L3263.5,1025.4z"/>
		<path class="st11" d="M3285.7,1011l162.7,481.6c0,0,27.2,13.9,38.4-4.9c0,0-2.6-203-31.7-253.4c-16.4-28.5-27.9-108.3-25.9-135.3
		c3.8-52.8-11.9-102-11.9-102L3285.7,1011z"/>
		<path class="st35" d="M3324.9,759.6c11.1,5.8,21.8,6.2,31.2,4.2c8.6-1.8,15.9-5.6,21.1-8.9c5.4-3.4,8.5-6.4,8.5-6.4s-0.4-0.5-1-1.6
		c-3.3-5.6-13.2-25.7-8.8-57.9c0.1-0.4-3.1,0.2-8,1.3c-14.4,3.4-43.3,11.6-44.5,12l0,0c0,0-0.4,6.8-1.5,19c-0.1,1.1-0.2,2.2-0.3,3.4
		c-0.1,1.4-0.3,2.9-0.5,4.5C3319.8,741.7,3324.9,759.6,3324.9,759.6z"/>
		<path class="st38" d="M3321.9,721.2c21.4,4.9,53.5-26.8,53.5-26.8c-2.3-1.7-4.8-3.1-7.3-4.2c-14.4,3.4-43.3,11.6-44.5,12l0,0
		C3323.6,702.2,3323.1,709,3321.9,721.2z"/>
		<path class="st35" d="M3292.8,583.8c0,0,8.4-12.7,16.7-13.4s25.4,1.2,24.2,4.4c-4,10.3-18.5,5.7-22.1,12.3
		c-3.1,5.6-14.2,7.9-14.2,7.9L3292.8,583.8z"/>
		<path class="st35" d="M3314.6,700.5c0,0,8.8,3.2,20.1,4.7c16.4,2.2,38.1,0.9,44.9-19c11.4-33.5,26.1-53.6-7.6-67.2
		c-18-7.3-29.6-7.7-37.4-4.9c-6.8,2.4-10.8,7.2-13.9,12C3314.2,636.3,3301,694.7,3314.6,700.5z"/>
		<path class="st39" d="M3255.3,804.7c80.5,75.2,66.4-68,66.4-68s-30.7-13.6-40.3-13.6c-9.7,0-16.7-26.9-47.4-71.7l0,0l0,0l64.4-55.1
		c0,0-3-16.4-6.5-15.6c-5,1.1-14.5,4.1-25.8,8.4c-29.5,11.1-71.4,30.8-79.9,49.8C3186.1,638.8,3184.5,738.6,3255.3,804.7z"/>
		<path class="st40" d="M3323.8,593l0.1-0.2C3323.9,592.9,3323.9,592.9,3323.8,593z"/>
		<path class="st39" d="M3263.8,1029.1c0,0,48,16.3,98.8,16.7c9.9,0.1,24-1.8,35.7-3.8c11.9-2,21.4-4.1,21.4-4.1
		c10.2-2.4,21.5-8.7,20-20.3c-4.6-35.4-1.6-128.2-4-186.1c0,0-0.1-11.3,7.1-19.2l0,0c1.2-1.3,2.5-2.5,4.2-3.5
		c10.7-7,61-54.5,82.7-130.3c2.6-8.6,3.6-14,3.7-14.3l0,0l0,0c-6.2-28.1-75-70.9-91.7-78.5c-0.5-0.2-1.1-0.1-1.7,0.4l0,0
		c-5.5,4.6-7.8,13.3-7.9,13.5c0,0,0,0,0,0.1l51.9,67.1c-39.1,37.6-51.5,62.5-61,60.6c-9.1-1.9-39.7,4.6-42.1,5.1
		c-0.7-0.2-1.4-0.3-2.2-0.5c0,0-32.7,18.4-56.9,4.8c0,0-0.2,0-0.7,0.1c-5.9,0.9-48.1,7.9-58.3,18.7c-3.5,3.7-4.8,26.3-5.2,51.2
		c-0.5,34.8,0.8,74.4,0.8,74.4C3255.9,919,3235.9,1023.4,3263.8,1029.1z"/>
		<path class="st41" d="M3398.3,1042c11.9-2,21.4-4.1,21.4-4.1c10.2-2.4,21.5-8.7,20-20.3c-4.6-35.4-1.6-128.2-4-186.1
		c0,0-0.1-11.3,7.1-19.2c-11.3,10-42.1,39.5-49.6,71.4C3385.1,917.7,3390.8,1006.8,3398.3,1042z"/>
		<path class="st35" d="M3438.3,585c0,0-0.1-10.2-1.9-12.2c-1.8-2-3,3.7-3.3,5.5C3432.8,580,3438.3,585,3438.3,585z"/>
		<path class="st35" d="M3295.2,580.6c0,0,2.6-6.8,3.2-8.7s1.9-1.9,2.1-0.7c0.2,1.2,0.5,3.8-0.4,5.3
		C3299.2,577.9,3295.2,580.6,3295.2,580.6z"/>
</g>
	<g>

		<image style="overflow:visible;opacity:0.3;" width="106" height="94" xlink:href="E67FBE53746C3A55.png"  transform="matrix(1 0 0 1 1329 420.2)">
	</image>
		<g>
		<path class="st4" d="M1364.5,456.2c0,0-0.5,4.6,10.3,7.7c0,0,9.1,2.6,10.5-2.2C1385.4,461.8,1377.9,455.4,1364.5,456.2z"/>
	</g>
</g>
	<g>

		<image style="overflow:visible;opacity:0.3;" width="475" height="1058" xlink:href="E67FBE53746C3A4B.png"  transform="matrix(1 0 0 1 2262 715.2)">
	</image>
		<g>
		<g>
			<g>
				<path class="st5" d="M2347.7,1085.6c0,0-9.7-11.7-14.8-13.4c-5.2-1.6-15.2-9.4-16.5-6.2c-1.3,3.2,6.8,8.1,6.3,11.8
					c-0.4,3.7-25.6,9.5-25.5,13.4c0.2,3.9,5.9,13.2,15.5,12.2c9.6-1.1,34.1-7.7,39.1-5.3C2356.8,1100.7,2347.7,1085.6,2347.7,1085.6
					z"/>
				<path class="st4" d="M2529.9,982.8c-14.2,19.1-34.1,30.5-48,46.1c-30.3,34-41.1,41.4-41.1,41.4c-14.1,7.5-54,18.9-78.9,25.2l0,0
					c-6.3,1.9-5.8,2.1-10.4,3.1l-9.3-19.1c0,0,52.8-43.9,68.4-51.2c24.6-21.2,24.8-58.4,31.8-79.6c6.9-20.6,19.6-31.2,41.7-39
					C2516,898.4,2574.1,923.5,2529.9,982.8z"/>
				<path class="st42" d="M2520.2,966.8l2,14.7c-31.7,58.2-82,89.6-82,89.6c-10.2,5.1-55.7,17.5-80.5,25.3
					c0.9-0.4,65-26.4,77.9-34.6c13-8.3,49.2-95.6,49.2-95.6L2520.2,966.8z"/>
				<path class="st2" d="M2425.2,1723.7h104.2c7.5-5.1-2-54.5-2-54.5s-28.4-10.8-33.3,11.1c-4.9,21.9-36.2,28.9-52.8,31.6
					C2429.9,1713.7,2426.3,1719.9,2425.2,1723.7z"/>
				<path class="st2" d="M2579.7,1723.7h104.2c7.5-5.1-2-54.5-2-54.5s-28.4-10.8-33.3,11.1c-4.9,21.9-36.2,28.9-52.8,31.6
					C2584.4,1713.7,2580.8,1719.9,2579.7,1723.7z"/>
				<path class="st43" d="M2453.2,1218.9c0,0,4.7,58.4,10.2,128.6c7.5,95.4,27.7,331.9,27.7,331.9s13.2,11.3,42.5,5.1
					c0,0,24.9-81.6,32.4-174.7c0.1-1.5,0.2-3.1,0.3-4.6c6.9-94.8,17.7-294.4,17.7-294.4L2453.2,1218.9z"/>
				<path class="st2" d="M2451.6,1198.7c0,0,6.3,78.6,11.8,148.8l102.6,162.3c0.1-1.5,0.2-3.1,0.3-4.6
					c6.9-94.8,17.7-294.4,17.7-294.4L2451.6,1198.7z"/>
				<path class="st43" d="M2481.5,1198.7c0,0,74.4,185.1,98.2,255.3c16.9,50,64.7,225.4,64.7,225.4s20.8,6.3,38.2-5.9
					c0,0,17.8-179.2-18.1-229.7c-19-26.8-4.7-278.6-82-280.8C2505.3,1160.9,2481.5,1198.7,2481.5,1198.7z"/>
				<path class="st5" d="M2514.7,925.8c11.4,6,22.4,6.4,32,4.3c8.8-1.8,16.3-5.7,21.7-9.2c5.5-3.5,8.8-6.6,8.8-6.6s-0.4-0.6-1-1.6
					c-3.4-5.7-13.5-26.4-9-59.5c0.1-0.4-3.2,0.2-8.2,1.4c-14.8,3.5-44.4,11.9-45.7,12.3h-0.1c0,0-0.4,7-1.6,19.5
					c-0.1,1.1-0.2,2.3-0.3,3.4c-0.2,1.5-0.3,3-0.5,4.6C2509.5,907.3,2514.7,925.8,2514.7,925.8z"/>
				<path class="st12" d="M2511.6,886.3c22,5.1,54.9-27.5,54.9-27.5c-2.4-1.8-4.9-3.2-7.5-4.3c-14.8,3.5-44.4,11.9-45.7,12.3h-0.1
					C2513.2,866.8,2512.9,873.8,2511.6,886.3z"/>
				<path class="st5" d="M2504.2,865.1c0,0,9.1,3.3,20.6,4.8c16.9,2.3,39.1,0.9,46.1-19.5c11.8-34.4,26.8-55-7.8-69.1
					c-18.5-7.5-30.4-7.9-38.4-5c-7,2.5-11.1,7.4-14.2,12.3C2503.7,799.1,2490.2,859,2504.2,865.1z"/>
				<path class="st4" d="M2612,1211.7c0,0-9.7,2.1-21.9,4.2c-12,2-26.4,4-36.7,3.9c-52.2-0.4-95.9-15.8-95.9-15.8
					c-9.8,0-14.3-15.2-15.9-36.4c-1.1-14.4-0.9-31.5-0.1-48.5c0.3-5.5,0.6-11,0.9-16.5c0.7-10.7,1.5-21,2.2-30.1
					c0.7-8.5,1.3-16,1.7-21.8c0,0-1.4-40.7-0.8-76.4c0.4-25.7,14.8-49,18.4-52.8c10.5-11.1,40.7-18.1,46.8-19
					c0.5-0.1,0.7-0.1,0.7-0.1c24.9,14,58.4-4.9,58.4-4.9c0.8,0.1,1.5,0.3,2.2,0.5c2.5-0.5,27.6,3.2,33.5,6.4
					c14.5,7.9,22.9,95.5,22.9,95.5c2.4,59.5-0.6,154.8,4.1,191.1C2634.1,1202.8,2622.5,1209.3,2612,1211.7z"/>
				<path class="st4" d="M2503.9,842.9c0,0-0.7,4.5,9.6,8c0,0,8.7,3,10.3-1.6C2523.8,849.3,2516.9,842.7,2503.9,842.9z"/>
				<path class="st42" d="M2592.3,1042.6c0,0-53.9,90.1-84.5,106c-20.7,10.7-49.6,16.4-66.2,18.9c-1.1-14.4-0.9-31.5-0.1-48.5
					c21.9-2.7,55.3-6.9,55.3-6.9L2592.3,1042.6z"/>
				<path class="st4" d="M2521.3,997.3l-28.7,103.7c0,0-33.8,2.1-50.1,1.5c0.7-10.7,0.7-11.1,1.4-20.2
					C2443.9,1082.4,2482.7,1062.1,2521.3,997.3z"/>
				<path class="st5" d="M2348.3,1108.7c0,0-9.7-11.7-14.8-13.4c-5.2-1.6-15.2-9.4-16.5-6.2c-1.3,3.2,6.7,8.1,6.3,11.8
					c-0.4,3.7-25.6,9.5-25.5,13.4c0.2,3.9,5.9,13.2,15.5,12.2c9.6-1.1,34-6.9,39-4.4C2357.3,1124.7,2348.3,1108.7,2348.3,1108.7z"/>
				<path class="st4" d="M2631.5,964.8c0,0,1.7,54.9-123.5,165.1l-25.1-45c-4.6-2.7,80.9-186.6,105.4-185.1
					C2635.9,902.6,2631.5,964.8,2631.5,964.8z"/>
				<path class="st4" d="M2497.8,1079.6c0,0-142.4,16.3-147.6,19.1c-5.3,2.8-16.6,13.8-12.8,27.7c0,0,73.7,9.3,114.2,9.1
					c35-0.1,57.6-5.8,57.6-5.8L2497.8,1079.6z"/>
			</g>
			<path class="st44" d="M2509,767.2c-9,12.5,1.5,29.8,16.8,27.3c6-1,10.8-1.7,13.6-0.5c8.1,3.6,9.6,17.2,9.7,21.6
				c0.1,4.3,0.7,8,11.8,5.4c1.8-0.4,3.1-0.3,4,0.2c4.1,2.4-0.1,13.1-2.3,17.5c-0.6,1.2-1,2.5-1.1,3.8c-0.3,3.1-0.3,8.4,3.5,11.5
				c0.7,0.5,11.8,5.4,38.4-35.4c4.2-6.4,8.2-20.9,1.7-34.8c-6.5-13.9-35.2-29.4-59-32.3C2520.6,748.3,2510.2,765.7,2509,767.2z"/>
		</g>
	</g>
</g>
	<g>
	<path class="st2" d="M3725.3,1884.7H3631c-0.4-0.1-0.7-0.2-1-0.3c-2.6-1.3-3.9-6.2-4.5-12.1c-1-10.6,0.4-24.2,0.4-24.2
		s32.1-26.8,37.1-6.9c4.9,19.9,31.7,28.4,46.8,30.5C3724.1,1873.6,3725.3,1883.4,3725.3,1884.7z"/>
		<path class="st2" d="M3641,1884.7h-99.4c-6.3-5.6-3.1-36.6-3.1-36.6s32.1-26.8,37.1-6.9c4.9,19.9,31.7,28.4,46.8,30.5
		c1.1,0.2,2.2,0.4,3.2,0.6C3635.7,1874.8,3639.8,1881.9,3641,1884.7z"/>
		<path class="st45" d="M3584.1,1344.9c0,0,0.1,3.6,0.2,10.1c0.9,41.7,4.5,203.1,7.9,293.1c0.1,3.3,0.3,6.4,0.4,9.5
		c0.1,1.6,0.1,3.3,0.2,4.9c2,43.5,7.9,86.1,13.9,120.2c7.6,43.4,15.3,73,15.3,73c29,5.9,47.8-5.1,47.8-5.1s7.8-67.4,10.8-108.2
		c1-13.2,5.7-58.4,11.7-113.4c4.6-42.5,10-90.9,14.9-134.8c0.3-2.3,0.5-4.7,0.8-7c7.9-71.1,14.5-129,14.5-129l-51.2-4.9
		L3584.1,1344.9z"/>
		<path class="st46" d="M3606.6,1782.7l85.6-153.7c4.6-42.5,10-90.9,14.9-134.8c0.3-2.3,0.5-4.7,0.8-7c7.9-71.1,14.5-129,14.5-129
		l-51.2-4.9l-86.9,1.8L3606.6,1782.7z"/>
		<path class="st45" d="M3713,1358.5c0,0-47.9,236.8-86.9,351c-39,114.3-39.5,146-39.5,146s-35.8,7.8-51.6-1.3
		c0,0-9-216.6,14.6-274.2c15.6-38.1,27.6-119,23.5-148.2s-7.9-87.7-7.9-87.7L3713,1358.5z"/>
		<path class="st47" d="M3654.8,1040.6l-53.3-15c0,0,9-22.1,12.2-45.2c1.7-12.8,1.7-25.9-2.8-35.7c-0.3-0.6-0.6-1.2-0.9-1.8
		c-2-3.8-0.8-5.5,1.9-6c4.7-0.8,13.8,2.4,18,5.7c0.1,0.1,0.3,0.2,0.4,0.3c6.1,5.1,35.6,20.1,37.1,20.8h0.1c0,0,0,0.2,0.1,0.6l0,0
		c0,0,0,0.1,0,0.2c0.2,1.1,0.5,3.2,0.8,6C3670,984.9,3671.2,1018,3654.8,1040.6z"/>
		<path class="st4" d="M3578,1371.1c11.3,8,29.2,10.9,48.8,10.6c22.9-0.4,48.3-5.1,68.6-11.2c10.9-3.3,20.4-6.9,27.2-10.5
		c30.3-15.8,26-36.9,25.3-115.7c-0.7-80.4-50.2-184.4-59.2-201.8c-15.9-31-87-19.5-87-19.5c-15.6,7.5-21.2,32.4-22.7,65
		c-1.7,36.2,1.6,81.9,1.6,123.5c0,34.4-6.5,64.9-11.2,90.1C3563.2,1334.5,3560.1,1358.5,3578,1371.1z"/>
		<path class="st8" d="M3569.4,1301.7c13.7,28.9,40.7,61.3,57.4,80.1c22.9-0.4,48.3-5.1,68.6-11.2c8.5-20.5,12.3-54.6,4.4-111
		c-6-43-49.9-215.8-49.9-215.8c-35.4-4.6-57.4,14.7-70.9,44.3c-1.7,36.2,1.6,81.9,1.6,123.5
		C3580.6,1246,3574.1,1276.5,3569.4,1301.7z"/>
		<path class="st48" d="M3752.3,1456.6v81.9c0,9.7-7.9,17.5-17.5,17.5h-151.1c-9.7,0-17.5-7.9-17.5-17.5v-81.9
		c0-9.7,7.9-17.5,17.5-17.5h32.2v-10c0-16.6,13.5-30.1,30.1-30.1h26.6c16.6,0,30.1,13.5,30.1,30.1v10h32.2
		C3744.4,1439.1,3752.3,1446.9,3752.3,1456.6z M3627.7,1439.1h62.9v-10c0-10-8.1-18.2-18.2-18.2h-26.6c-10,0-18.2,8.1-18.2,18.2v10
		H3627.7z"/>
		<path class="st49" d="M3668.4,1378.8c0,0,18.5,35.7,9.3,49.6c-9.3,13.9-42.3-4-45-11.9c-2.6-7.9,0-46.3,0-46.3L3668.4,1378.8z"/>
		<path class="st4" d="M3579,1088.1c0,0,17,109.6,17,150.3c-0.1,40.7,32.3,148.9,32.3,148.9s21.4,1.7,29.8,0.6
		c9.7-1.2,15.5-5.7,15.5-5.7s-7.1-127.8,6.5-176.8s14.3-147.4,14.3-147.4s-12.4-24.1-57.5-17.4
		C3583.3,1048.6,3579,1088.1,3579,1088.1z"/>
		<path class="st7" d="M3611.4,977.8c0,0-12.1,38.4-9.7,45.2c0,0,65.8,8.9,92.6,34.9c0,0-8.7-37.4-19.4-46.7
		C3664.2,1001.9,3611.4,977.8,3611.4,977.8z"/>
		<path class="st50" d="M3668.5,970.7c-6,0-43.2,0.1-53.6,8.9c-0.4,0.3-0.7,0.6-1.1,0.7c1.7-12.8,1.7-25.9-2.8-35.7
		c0.4-3-0.4-6.2,1-7.7c3.3-3.4,13.7,2.3,18,5.7c0.1,0.1,0.3,0.2,0.4,0.3c6.1,5.1,35.6,20.1,37.1,20.8l0.2,0.7l0,0c0,0,0,0.1,0,0.2
		C3667.9,965.8,3668.2,967.9,3668.5,970.7z"/>
		<path class="st47" d="M3692.4,968.4c0,0-61.6,11.8-68.3-26.7c-6.7-38.4-19.2-62.8,19.8-72c39-9.1,49.2,4.2,54.6,16.5
		C3703.9,898.5,3708.3,964.3,3692.4,968.4z"/>
		<path class="st2" d="M3613,958.4c0,0,3.2-2.4-9.3-21.3c-12.5-18.9-18.4-13.7-18.5-33.8c-0.2-20.1-7.6-32.2,15.7-45.3
		c23.4-13.1,19.6-25.2,33.6-28.1s34.4,8.6,46.4,6.2c12-2.4,49.7,46.6,25.6,58.2c0,0-11.2,0.6-19.1-4.3c-7.9-4.9-36.8-9.8-40.1-1
		C3644,897.7,3625.7,951.6,3613,958.4z"/>
</g>
	<g id="man_7_">
	<g>
		<path class="st51" d="M-1086,1022c0,0-19.4,18-15.6,30.8s21.3,21.3,23.7,37c2.4,15.6,11.8,24.2,20.4,24.2c8.5,0,40.7,0,40.7,0
			s6.3-11-8.9-14.3s-20.9-21.7-19.9-38.8c0.9-17.1-1.4-39.8-1.4-39.8l-32.2-7.6L-1086,1022z"/>
		<path class="st51" d="M-733.7,1114h-108c-0.9-0.2-1.7-0.4-2.1-0.6c-7.2-3.6-5-31.1-4.1-39.7c0.2-1.6,0.3-2.5,0.3-2.5
			s37.9-30.3,43.1-7.1c0.2,0.7,0.4,1.4,0.6,2.1c6.6,21.7,36,31.6,53,34.4C-737.9,1102.6-734.6,1110.2-733.7,1114z"/>
		<path class="st52" d="M-755.4,492.1c0,0-5.8,71.9-12.5,158.2c-9.2,117.3-20.3,261.4-21.4,288.7c-1.9,47.4-9.5,123.2-9.5,123.2
			s-18,18-54,10.4c0,0-32.1-108.3-41.3-222.8c-0.1-1.9-0.3-3.8-0.4-5.7C-903,727.5-916.3,482-916.3,482L-755.4,492.1z"/>
		<path class="st51" d="M-755.4,492.1c0,0-5.8,71.9-12.5,158.2L-894.1,850c-0.1-1.9-0.3-3.8-0.4-5.7
			c-8.5-116.6-21.8-362.1-21.8-362.1L-755.4,492.1z"/>
		<path class="st52" d="M-781.7,500.7c0,0-103.8,260.2-172.1,382.5s-89.6,156.4-89.6,156.4s-39.1-15.6-42.7-26.3
			c0,0,26.1-236.1,71.8-293.6c25.8-32.5,56.2-130.1,57.6-164.2c1.4-34.1,9.2-101.7,9.2-101.7L-781.7,500.7z"/>
	</g>
		<path class="st47" d="M-676.7,428.8l5.9,11.8c0,0,30.2,4.2,21.9,35.7c0,0-4.5,12.9-12.8,8.8s-4.2-3.7-16.1-9.3
		c-11.9-5.5-18.8-16.1-16.2-25.8l-1.9-10.3L-676.7,428.8z"/>
		<path class="st47" d="M-834.9,99c4.6-27.3,4.8-43.4,4.8-43.4l-52.7-42.4c2,58.4-35.4,86.4-35.4,86.4s70.2,34.5,110.7,21.8
		C-807.5,121.3-817.5,108.6-834.9,99z"/>
		<path class="st47" d="M-817.8,54.6c0,0-67,11.1-73.3-30.7s-19.2-68.6,23.3-77.4c42.5-8.9,53.2,5.8,58.7,19.3
		C-803.5-20.8-800.5,50.7-817.8,54.6z"/>
		<path class="st51" d="M-890.6,26.8c0,0,1.4-56,62.4-65c41.8-6.2,16.5-41.1,11.7-46.6c0,0-32,6.1-64.7,13.3
		C-949.9-56.5-897.9,18.5-890.6,26.8z"/>
		<path class="st53" d="M-683.8,445.3c9-9.2,15.6-21.2,15.6-21.2s-76.1-94.6-82.3-104.4s-52.4-167.1-52.4-167.1l-116.9-23.7
		c0,0,97.6,201.3,113.8,225.9c26.7,40.6,106.6,100.9,106.6,100.9S-690.8,452.5-683.8,445.3z"/>
		<path class="st54" d="M-750.9,498.1c-1.2,1-2.6,1.6-4.3,1.6c-15.2-0.2-59.7,8.3-97.2,4.4c-31.7-3-59.7-12.4-89.8-25.9
		c-4-1.8-13.2-6.7-13-11.2c0.1-4.9,0.6-12,1.2-20.9c2.1-31.1,5.8-84.6,2.2-146.2c-0.7-11.5-1-22.9-1-34.1
		c-0.3-83.6,16-157.5,49.3-182.4c2.8-2,20.6,6.9,36.6,14.8c14.8,7.3,25.2,7.1,39.2,4.3l18.5,13.4c17.1,15.8,35.8,37.4,43.9,70.1
		c6.9,27.8,11,78,13.2,130c1,23.6,1.8,47.3,2,69.9v0.8c0.2,2.2,0.2,4.7,0.2,6.9C-749.1,451.4-749.9,497.3-750.9,498.1z"/>
		<path class="st53" d="M-954,446.1c2.1-31.1,5.8-84.6,2.2-146.2c-0.7-11.5-1-22.9-1-34.1c13.9-33.7,25.2-58.1,25.2-58.1h35
		C-892.7,207.7-867,382.8-954,446.1z"/>
		<g>
		<path class="st47" d="M-1022.1,457l-6.6,11.4c0,0,13,27.5-17.9,37.8c0,0-13.3,3.4-14.4-5.9c-1.1-9.2,0.8-5.6-1.1-18.6
			s3.1-24.6,12.7-27.7l7.6-7.2L-1022.1,457z"/>
			<path class="st54" d="M-1039.7,460.1c12.6,2.5,26.2,1.5,26.2,1.5s37.4-115.5,42.2-126.1s111.1-135.4,111.1-135.4l-44.3-110.8
			c0,0-114.9,192-126.6,218.9c-19.3,44.6-26,144.5-26,144.5S-1049.6,458.2-1039.7,460.1z"/>
	</g>
</g>
	<g>
	<path class="st55" d="M-444.2,2297.7l22.9-0.3c0,0-34.4-38.2-44.9-57.6l-29-53.6l-38,9.4l48.2,68.3L-444.2,2297.7z"/>
		<path class="st56" d="M-658.7,1254.5c-8.8-5-19.3-5.5-26.6-5.1c1.9-2,5.6-2.7,5.6-2.7c-4.6-0.7-14.7,3.8-14.7,3.8
		c-63.4-24.4-73.3,68.9-72,90.6s-21.3,28.8-54.3,45.8c-62.9,32.6-68.4,76.2-68.4,76.2c0.5,0.3,1,0.6,1.5,1c3.1-5.3,9.5-15.2,15-16.7
		c-0.2,0.5-6.4,13.7-8.7,21.2c18.6,14.1,53.3,45.4,77.5,67.6c-0.1-4.3,0.1-10.5,1.6-13.7l3,18c12.9,11.9,21.9,20.3,21.9,20.3
		c-1.6-17.5,79.2-110,121.4-137.6c10.3-15.1,13.9-41.8,14.2-43.9c-1.8,21.2-5.4,33-8.6,39.7
		C-614.7,1386.2-635.5,1267.7-658.7,1254.5z"/>
		<path class="st55" d="M-658.5,1424.6c0.2,0.1-20.4,10.8-35.8,6.5c-14.6-4-24.1-22.8-23.9-22.9c6.2-1.2,7.9-9.7,7.8-46.1l2.8,0.5
		l46.9,9.3c0,0-1.1,14.7-1.1,28.6C-661.8,1412.3-661.1,1423.3-658.5,1424.6z"/>
		<path class="st57" d="M-711.4,1269.8c0,0,23.1-24.6,52.1-1.3C-659.3,1268.6-676.2,1265.6-711.4,1269.8z"/>
		<path class="st58" d="M-660.7,1372c0,0-1.1,14.7-1.1,28.6c-26.2-0.7-40.1-24.7-45.8-37.9L-660.7,1372z"/>
		<path class="st56" d="M-712.4,1357.6c0,0-13.7-21.7-17-40.3c-2.4-13.3,4.4-62.4,53.8-55.3c0,0,14.3,1.4,27.8,10.5
		c10.7,7.2,26.2,22.9,8.9,65.7l-4.5,14.5L-712.4,1357.6z"/>
		<path class="st9" d="M-474,2221.1l-24.8,0.8l-26.9,0.8c0,0-62.1-69.1-96.9-180c-0.8-2.6-1.7-5.2-2.6-7.8
		c-19.1-55.6-58.6-125.3-79.4-188.5c-3.3-10.1-6.3-19.5-9-28.5c-0.9-2.9-1.7-5.7-2.5-8.5c-15.3-53.3-19.8-88.3-23.9-125.7l133,1.1
		C-606.9,1684.8-565.3,1940.4-474,2221.1z"/>
		<path class="st4" d="M-610.6,1598.5c1.8,71.5,10.5,102.3,10.5,102.3s-64.4,32.7-140.9,8.6c-0.9-0.3,5-295.6,26.7-303.7
		c5,6.2,19.9,12.3,33.1,12c15.2-0.3,20.2-6.9,19.4-14C-645.6,1412.7-613.1,1496.1-610.6,1598.5z"/>
		<path class="st55" d="M-651.9,1385.1c0,0-62,1-62.1-37.6c0-38.6-8.1-64.5,31.5-66.8s47.3,12.4,50.5,25.3
		C-628.9,1318.9-635.8,1383.9-651.9,1385.1z"/>
		<path class="st56" d="M-633.9,1284.6c-9.6-11.6-16.8-9.1-20.9-5.6c-13.4-20-55.8,8.9-55.8,8.9c-20.8,19.9-24.1,43.6-24.1,43.6
		s11.3,7,37.4,0.3c20.5-5.3,35.4-34.5,40.8-46.7c3.7,3.3,11.5,10.9,13.8,18.3c3.1,9.8,4.5,30.1,10.4,29.4
		C-632.3,1332.8-619.5,1302-633.9,1284.6z"/>
		<path class="st59" d="M-402.3,1449.3c0,0,8.7-31.5,43.4-27.1c4,1.2,15.6,5.9,8.2,18.3c-5.5,9.2-7.8,4.4-16.5,16.8
		c-8.6,12.3-18,15.1-28.6,13.6L-402.3,1449.3z"/>
		<path class="st55" d="M-698.4,2295.5c-2.1-11.6-6.1-31.7-6.1-31.7l0.9-71.2h-43.3l16.2,68.2c0.3,3.2,1.2,15.4-3.3,28.5
		c0,0-4.2,18.9,14.5,19.3C-700.9,2308.9-696.3,2307.1-698.4,2295.5z"/>
		<path class="st60" d="M-734,2289.3c0,0-3.7,20-1.6,29.5c0,0,5.5,0,19,0c12.8,0,20.2,0,20.2,0s0.2-21.7-3.3-30
		C-699.7,2288.8-712.9,2308.6-734,2289.3z"/>
		<path class="st60" d="M-421,2297.6c-0.1-0.1-0.3-0.1-0.4-0.2c-9.2,0.3-18.4-3.1-26.7-12.5c-25.4-28.6-39.7-31.8-44.7-31.8
		c-4.3,8.8-9,18.8-2.9,30l9.1,35.6h9.8l0.1-33.6c6.5,1.7,12.8,4.8,15.6,10.4c6.9,13.7,11.6,23.2,18,23.2c3.6,0,44.1,0,44.1,0
		S-399.9,2307.1-421,2297.6z"/>
		<path class="st13" d="M-402.3,1449.3c0,0-40.7,22.8-55.3,29.3c-8.3,3.7-27.4,12.7-40.8,19c-8.6,4-18.7,1.8-24.9-5.4
		c-22.1-25.8-79.3-81.7-138.3-88.6l0.1,0.1l-0.3-0.1c0,0,35.9,88.7,36.9,106.6c1.1,17.9,4.2,293.4,4.2,293.4s-2.1,12.7,22.2,7.4
		c24.3-5.3,30.6-10.6,30.6-10.6s-23.2-169.9-16.9-229c1.2-11.7,0.1-24.8-2.5-38.3c36,21.9,78.5,31.6,78.5,31.6s31.8-13.9,75.3-45.7
		c13.6-10,37.6-48.1,37.6-48.1L-402.3,1449.3z"/>
		<path class="st10" d="M-498.8,2221.9l-26.9,0.8c0,0-62.1-69.1-96.9-180c-0.8-2.6-1.7-5.2-2.6-7.8c-19.1-55.6-58.6-125.3-79.4-188.5
		c-3.3-10.1-6.3-19.5-9-28.5c-0.9-2.9-1.7-5.7-2.5-8.5l22.1-16.8c0,0,66.5,107.7,87.1,209C-588.9,2089.7-517.3,2195.6-498.8,2221.9z
		"/>
		<path class="st61" d="M-691.6,2011.1c0.4,49.3-2.1,162.5-8.5,209.4h-23.8c-13.2,0-19.7-0.2-19.7-0.2
		c-16.1-81.5-27.5-149-35.9-207.1c-6.8-47.7-12.9-88.6-17.6-123.8c-4.7-35.4-8-65.1-9.2-90.2c-0.2-3.9-0.3-7.8-0.4-11.5
		c-0.1-3.7-0.1-7.4-0.1-10.9l129.9-12.7C-678.4,1850.4-691.8,1982.5-691.6,2011.1z"/>
		<path class="st10" d="M-723.9,2220.5c-13.2,0-19.7-0.2-19.7-0.2c-16.1-81.5-27.5-149-35.9-207.1c-6.8-47.7-12.9-88.6-17.6-123.8
		c-4.7-35.4-8-65.1-9.2-90.2l47.7,28c0,0-30.4,10.7-18.8,92C-765.8,2000.5-740.1,2209-723.9,2220.5z"/>
		<path class="st13" d="M-717.8,1798.4c0,0-9.2,33.1-40.8,28.8c-31.7-4.2-76.7-23.2-76.7-23.2s13.5-42.8,30.4-98.9
		c20.4-68,45.6-155.7,57.5-211c3.3-15.5,5.6-28.4,6.5-37.7l26.7-50.8c0,0,38.8,87.7,40.9,109.9
		C-671.3,1537.7-717.8,1798.4-717.8,1798.4z"/>
		<path class="st62" d="M-719.2,1562c-1.4,35.9-9.9,105.5-85.1,142.8c-0.2,0.1-0.4,0.2-0.6,0.3c20.4-68,45.6-155.7,57.5-211
		C-733.6,1514.8-718.4,1542.2-719.2,1562z"/>
		<path class="st55" d="M-582.9,1542.4c0,4.3-12.4,34.3-34.3,52.2c-4.2,3.5-7.6,5.2-10.3,5.6c-35.6,12.2-66.5,18.5-91.6,21.6v-39.7
		c31-2,69.1-4.1,84.9-4.9c2.6-4.1,5.6-9.9,6.6-15.8c1.9-10.9,7.7-19,23-21C-589.4,1538.3-582.9,1538.1-582.9,1542.4z"/>
		<path class="st13" d="M-714.3,1405.7c0,0-64.7,4.3-80.1,38.8c-15.5,34.5-20.4,149.2-0.7,182.9c0,0,27.1,7.7,75.1-1.2
		c0.6-0.1,1.2-0.2,1.8-0.3c0,0,15.3-37.5,1.6-44.9c0,0-40.5,2.1-36.2-11.3C-748.7,1556.4-714.3,1405.7-714.3,1405.7z"/>
</g>
	<g>

		<image style="overflow:visible;opacity:0.3;" width="774" height="1195" xlink:href="E67FBE53746C3A4C.png"  transform="matrix(1 0 0 1 1572 399.2)">
	</image>
		<g>
		<g>
			<path class="st11" d="M1990.2,706.2c0,0,16.1,26.6-14.2,43.4c0,0,23.3,8.4,31.5,5.2c0,0-2,2.1-3.5,2.9c0,0,21.9,7,32.9,3.2
				c10.9-3.8,34.5-110-30.3-115.6c0,0-51.1-18.3-61.8,38.7c-10.8,57-30.5,51.4-30.5,51.4s4.8,4,7.4,4.8c0,0,4.2-0.3,5.6-2
				c0,0-1.6,2.9-2.9,3.6c0,0,20.7,7.8,33.4,3.4C1970.3,740.7,1990,718.6,1990.2,706.2z"/>
			<path class="st2" d="M1925.2,1544.4h82.6c0,0,2-12.6-2.3-22.1c-4.1-9.2-10.6-14.8-11.2-21.8c-5.2,5.4-11.7,8.9-23.6,7.3
				c-1.5,2.4-9.4,15.1-14.3,18.6C1951,1530.1,1926.9,1528.8,1925.2,1544.4z"/>
			<path class="st43" d="M1993.5,1512.9c0,0-7,2.3-14.4,2.9c-13,1.2-14.9-2.7-14.9-2.7s-12.9-115.1-54.8-335
				c-6-31.8-8.4-49.3-10.6-77.6c-0.7-8.5-1.3-17.9-2-28.9c-1.9-29.6,2.6-79.5,24.8-92.6c10.1-6,23.9-4.3,42.4,10.3
				c1.5,1.1,3,2.4,4.5,3.7c54.2,46.9,32,181.6,34.2,244.9c0.4,10.5,1.4,19,3.6,24.9c2.8,7.6,8.8,18,10.2,27.9
				C2027.8,1372.8,1993.5,1512.9,1993.5,1512.9z"/>
			<path class="st2" d="M2002.7,1237.8l-103.9-137.3c-0.7-8.5-1.3-17.9-2-28.9c-1.9-29.6,2.6-79.5,24.8-92.6l42.4,10.3
				c1.5,1.1,3,2.4,4.5,3.7C2022.8,1039.9,2000.5,1174.5,2002.7,1237.8z"/>
			<path class="st2" d="M2296.5,1370.6l-34.4-75.1c0,0-12.3,3.4-19.2,11.3c-6.6,7.6-11.4,6.2-26.5-4.2c5.7,8.8,6.4,13.9,9.9,25.4
				c2.8,0.3,18.5,15.6,34.6,19.8C2267.5,1349.5,2281.6,1375.6,2296.5,1370.6z"/>
			<path class="st43" d="M1936.2,1012c0,0,74,257.2,101.1,273.8c27.1,16.6,169.6,39.3,198.6,51.7c0,0,3.5-5.1,1.5-15.9
				c-0.5-2.4-4.5-11-4.5-11s-88.5-66.5-146.8-73.3c-14.5-1.7,29.4-222.5-68.3-231.3C1928.5,998,1936.2,1012,1936.2,1012z"/>
			<path class="st5" d="M1828.6,588.8c0,0,2.6-5.8,4.9-6.7s4.9-10.3,6.6-14.1c0,0-1.7-2.4-4.6,0.7c-1.8,1.9-5.7,7.5-5.7,7.5
				L1828.6,588.8z"/>
			<path class="st5" d="M2171.5,623.3c0.5,1,1.2,2.9,1.8,4.7c0-0.5,0-1,0-1.4c0-3.5,13.1-22.5,18.5-23.7s12.9,16.6,6.2,26.5
				c-3.4,5.1-11.9,22.4-11.9,22.4l-13.9-7.2c0,0-0.8-6.3-2.8-7.8c-2-1.6-1.6-11.3-2.2-15.4C2167.3,621.3,2169.6,619.5,2171.5,623.3z
				"/>
			<path class="st5" d="M1951,774.3c-0.2,0.1,14.9,10.9,27.6,9.4c12-1.4,21.8-15.3,21.6-15.3c-4.7-1.7-5.1-8.6-0.8-37.4l-2.3,0.1
				l-38.2,1.8c0,0-0.9,11.8-2.5,22.8C1955.1,765,1953.2,773.7,1951,774.3z"/>
			<path class="st12" d="M1958.9,732.9c0,0-0.9,11.8-2.5,22.8c20.9,2.5,34.7-14.8,40.7-24.6L1958.9,732.9z"/>
			<path class="st11" d="M2001.6,727.6c0,0,13.4-15.6,18.2-29.9c3.4-10.2,3.9-49.9-36.1-50.2c0,0-11.5-0.6-23.3,5.1
				c-9.3,4.5-23.4,15-14.8,51l1.9,12L2001.6,727.6z"/>
			<path class="st5" d="M1903,1002c0,0,37.5,23.7,99.9,8.5c0.7-0.2,35.5-5.7,35.5-5.7c-0.9-2.4-37.4-62.8-38.3-64.9
				c-11.1-28.6,14.6-165.1-2.3-172.7c-4.3,4.7-16.7,7.9-27.2,7c-12.2-1.1-16.2-6.3-15.2-12c-13.5,6.4-23.8,12.3-23.8,12.3
				C1919.3,792.8,1903,1002,1903,1002z"/>
			<path class="st5" d="M1950.5,742.3c0,0,49,8.1,53.6-22.5s14-50.2-17.1-56.7s-39,4.3-43,14.1
				C1940,687.1,1937.8,739.4,1950.5,742.3z"/>
			<path class="st11" d="M1964.7,659.1c0,0,8.1,37.9,28,46.3c19.9,8.4,29.6,4.2,29.6,4.2s-14-14.9-14-37.4
				C2008.3,672.2,1977.4,643.5,1964.7,659.1z"/>
			<path class="st11" d="M1967.6,662.5c0,0-11.2,6.5-14.9,14c-3.6,7.4-7.1,23.3-11.7,22.1c0,0-6.5-25.9,6.9-38
				C1962.2,647.6,1967.6,662.5,1967.6,662.5z"/>
			<path class="st54" d="M2183,651.7c0,0-31.6,96.1-40,111c-5.1,9-62,44.4-95.1,67.8c-0.4,0.2-0.8,0.8-1.3,1.5l0,0
				c-8.3,12.8-33.9,91.7-27.8,105.9c25.8,59.6,43.5,82.6,49.9,99.3c3.2,8.3-1.1,17.7-9.5,20.7c-10.6,3.8-26.2,8.5-44.6,11.7
				c-3.5,0.6-7.1,1.2-10.8,1.6c-50.8,6.4-85.2-5.5-102.7-14.3c-8.3-4.2-13.2-12.8-12.7-22.1c1-18.8,10.5-37.5,14.7-82.8
				c3.2-34.4-26.5-86.7-25.2-105c0.5-7.2,6.2-15.9,9.3-21.5l0,0c5.5-9.9,8.5-18.9,4.8-23.9c-24.2-33.2-76.4-79-78.5-90.4
				c-3.1-16.8-1.7-120.6-1.7-120.6c2-0.7,4.9-2.4,8.8-2.7c3.4-0.3,7.7,0.8,7.7,0.8s13.8,86,14.9,90.6c1,4.6,59.3,70.2,75.1,70
				c14.2-0.2,34.2,10.7,37.3,12.8c0,0-12.7,22.6-15.9,53.1c-2.2,21.3,12,11.8,21-2.8c12.1-19.8,36.5-47.9,36.5-47.9
				s19.8-5.2,34.6,0.2c14.8,5.4,91.3-37.8,93.7-41.8c2.5-4,43.4-80.3,43.4-80.3s3.4-2,8.8,0.9C2182.9,646.3,2183,651.7,2183,651.7z"
			/>
			<path class="st4" d="M1964.7,725.7c0,0-2.1,4.2-4.9,4.3s-10-0.6-10.5-1.3s-1.7-5.2-1.7-5.2S1959.5,723,1964.7,725.7z"/>
			<g>
				<g>
					<g>
						<path class="st0" d="M1708.9,674.8l-77.3-27.7c1.5-4.2,4.5-7.4,8.3-9.2c3.7-1.8,28.1,5.4,32.3,6.9c3.7,1.3,7.8-0.6,9.1-4.3
							l9-25.6l13.4,4.7l-9,25.6c-0.7,1.9-0.5,3.8,0.3,5.4c0.8,1.6,2.2,3,4.1,3.6c4.2,1.5,7.4,4.5,9.2,8.3
							C1710,666.2,1710.4,670.6,1708.9,674.8z"/>
						<path class="st1" d="M1733.2,684l-62.4-22.6c-9.2-4.9-6.5-11.3-2.8-13.1s8.1-2.1,12.3-0.7c3.7,1.3,7.8-0.6,9.1-4.3l9-25.6
							l5.3,1.9l-9,25.6c-0.7,1.9-0.5,3.8,0.3,5.4c0.8,1.6,2.2,3,4.1,3.6c4.2,1.5,31.8,13.7,33.6,17.5
							C1734.4,675.4,1734.7,679.8,1733.2,684z"/>
						<path class="st1" d="M1826.8,495.5l-30.4,60.5c-9.4,26.6-31.8,43.2-55.3,49l0,0c-8,2-16.2,2.8-24,2.3
							c-6.4-0.4-12.8,4.4-15.3,11.5l-0.5,1.5c-1.6,4.4-2.9,8.2-2.9,8.2l-9.8-3.4c0,0,1.3-3.8,2.9-8.2c2.8-7.9,0.8-16.4-5-20.6
							c-24.4-18-39.5-53.2-27.1-88.5L1675,442L1826.8,495.5z"/>
						<g>
							<path class="st0" d="M1658.9,551.8c-0.7-20.2-12.3-28.8-24.6-37.9c-9.8-7.3-20-14.9-24.6-28.3c-5.2-14.9-1.3-32,9.6-42.6
								c8.3-8,18.8-10.4,28.9-6.6c14.3,5.5,22.2,20.2,23,42.5c0.5,16-2.7,30.3-2.9,30.9l-8.7-2c0.1-0.5,11.9-52.8-14.6-63
								c-9.2-3.5-16.2,1.4-19.5,4.7c-8.3,8.1-11.4,21.8-7.4,33.3c3.7,10.8,12.4,17.3,21.5,24.1c12.8,9.5,27.3,20.3,28.2,44.8
								L1658.9,551.8z"/>
						</g>
						<g>
							<path class="st1" d="M1769.4,590.8c13.2-15.3,27.6-14.7,42.9-14.2c12.2,0.5,24.9,0.9,36.9-6.6c13.4-8.4,21.1-24.2,19.2-39.2
								c-1.4-11.5-8.1-19.9-18.4-23.2c-14.6-4.7-30,1.8-44.5,18.7c-10.4,12.1-16.8,25.3-17.1,25.9l8,3.9
								c0.2-0.5,23.8-48.7,50.9-39.9c9.3,3,11.7,11.2,12.3,15.9c1.4,11.5-4.8,24.1-15.1,30.6c-9.7,6.1-20.5,5.7-31.9,5.3
								c-16-0.6-34.1-1.3-50,17.2L1769.4,590.8z"/>
						</g>
						<path class="st0" d="M1741.2,605c-8,2-16.2,2.8-24,2.3c-6.4-0.4-12.8,4.4-15.3,11.5l-0.5,1.5c-2.7,2.2-4.6,4.6-5.1,7.4
							l-7.5-2.6c0,0,1.3-3.8,2.9-8.2c2.8-7.9,0.8-16.4-5-20.6c-24.4-18-39.5-53.2-27.1-88.5L1675,442l25.1,8.8
							C1700.1,450.8,1635.1,592.3,1741.2,605z"/>
						<path class="st1" d="M1705,632.6l-25-8.8c-3.4-1.2-5.2-5-4-8.3l0,0c1.2-3.4,5-5.2,8.3-4l25,8.8c3.4,1.2,5.2,5,4,8.3l0,0
							C1712.2,632,1708.4,633.8,1705,632.6z"/>
					</g>
				</g>
			</g>
			<path class="st53" d="M2059.2,1058c-10.6,3.8-26.2,8.5-44.6,11.7c-17.5-24.2-47.2-54.6-39.6-110.5
				c7.9-57.8,64.7-118.7,71.6-127.1c-8.3,12.8-33.9,91.7-27.8,105.9c25.8,59.6,43.5,82.6,49.9,99.3
				C2071.9,1045.7,2067.6,1055,2059.2,1058z"/>
			<path class="st5" d="M1828.4,590c0,0,8.8-25.7,2.4-26.4c-6.5-0.7-22.7-0.7-24.7,3.7c-2,4.3,6.7,27.8,6.7,27.8L1828.4,590z"/>
			<path class="st53" d="M1887.1,825.5c5.5-9.9,8.5-18.9,4.8-23.9c-24.2-33.2-76.4-79-78.5-90.4c5.2,12.4,68.4,49.5,86.2,65.5
				C1917.2,792.5,1887.8,824.8,1887.1,825.5z"/>
		</g>
	</g>
</g>
	<g>

		<image style="overflow:visible;opacity:0.3;" width="162" height="201" xlink:href="E67FBE53746C3A4F.png"  transform="matrix(1 0 0 1 1100 1308.2)">
	</image>
		<g>
		<rect x="1135.9" y="1343.6" class="st63" width="76.5" height="116.5"/>
	</g>
</g>
	<g>

		<image style="overflow:visible;opacity:0.3;" width="161" height="345" xlink:href="E67FBE53746C3A4D.png"  transform="matrix(1 0 0 1 583 1425.2)">
	</image>
		<g>
		<rect x="618.3" y="1461.1" class="st63" width="76.5" height="259.5"/>
	</g>
</g>
	<g class="st30">

		<image style="overflow:visible;opacity:0.3;" width="180" height="223" xlink:href="E67FBE53746C3A4A.png"  transform="matrix(1 0 0 1 1643 438.2)">
	</image>
		<g>
		<text transform="matrix(0.9352 0.354 -0.354 0.9352 1694.722 549.7778)" class="st4 st31 st64">3</text>
	</g>
</g>
</svg>
