<?xml version="1.0" encoding="utf-8"?>
<!-- Generator: Adobe Illustrator 25.2.1, SVG Export Plug-In . SVG Version: 6.00 Build 0)  -->
<svg version="1.1" id="Слой_1" xmlns="http://www.w3.org/2000/svg" xmlns:xlink="http://www.w3.org/1999/xlink" x="0px" y="0px"
	 viewBox="0 0 113.96 201.84" style="enable-background:new 0 0 113.96 201.84;" xml:space="preserve">
<style type="text/css">
	.st0{fill:#061433;}
	.st1{fill:#FFFFFF;}
</style>
<path class="st0" d="M101.15,198.16c-15.94-13.21-31.88-26.42-47.87-39.67c-15.77,13.25-31.49,26.48-47.23,39.7
	c-0.05-0.02-0.1-0.05-0.15-0.07c0-0.31,0-0.62,0-0.93c0-38.22,0-76.44,0-114.66c0-23.67,0-47.35,0-71.02c0-1.83,0.12-3.64,0.65-5.4
	C7,4.57,7.68,3.17,8.79,2.01c1.3-1.35,2.87-2.02,4.75-2.02C25.9,0,38.26,0,50.62,0c18.57,0,37.14,0,55.71,0c0.34,0,0.68,0,1.02,0
	c0.01,0.03,0.02,0.05,0.03,0.08c-0.09,0.04-0.17,0.1-0.26,0.13c-2.36,0.83-3.92,2.5-4.87,4.77c-0.69,1.64-0.93,3.37-0.93,5.14
	c-0.01,6.83,0,13.66,0,20.49c0,55.5,0,110.99,0,166.49c0,0.34,0,0.67,0,1.01C101.26,198.12,101.2,198.14,101.15,198.16z
	 M81.46,73.44c0,0.38,0,0.67,0,0.97c0,8.96,0,17.93,0,26.89c0,0.14-0.01,0.27,0,0.41c0.05,0.4-0.17,0.65-0.48,0.82
	c-0.2,0.1-0.43,0.15-0.63,0.24c-0.1,0.05-0.16,0.15-0.28,0.26c0.77,0.17,3.96,0.14,4.48-0.04c-0.12-0.09-0.21-0.19-0.31-0.23
	c-1.03-0.38-1.05-0.4-1.05-1.45c0-9.56,0-19.11,0-28.67c0-0.29,0-0.58,0-0.88c-9.09,0-18.08,0-27.11,0c0,0.56,0,1.08,0,1.69
	C64.54,73.44,72.97,73.44,81.46,73.44z M33.27,84.33c-0.08-0.06-0.13-0.08-0.14-0.12c-0.53-1.21-1.06-2.42-1.57-3.63
	c-0.05-0.13-0.03-0.32,0.03-0.45c0.48-0.98,0.98-1.95,1.47-2.93c0.16-0.32,0.43-0.52,0.77-0.62c0.15-0.04,0.3-0.1,0.45-0.15
	c0.3-0.1,0.36-0.29,0.22-0.67c-0.94,0-1.89,0-2.84,0c-0.11,0-0.22,0.03-0.32,0.04c-0.21,0.43,0.06,0.53,0.36,0.64
	c0.51,0.18,0.58,0.25,0.43,0.59c-0.32,0.77-0.69,1.52-1.06,2.33c-0.68-1.2-1.08-2.37-0.98-2.85c0.79-0.27,0.79-0.27,0.68-0.71
	c-1.47,0-2.94,0-4.44,0c0,0.2,0,0.35,0,0.5c0.49,0.18,0.99,0.26,1.22,0.81c0.63,1.54,1.3,3.06,1.94,4.59
	c0.06,0.13,0.1,0.33,0.04,0.45c-0.39,0.83-0.8,1.65-1.29,2.63c-0.34-0.79-0.6-1.4-0.86-2.03c-0.77-1.85-1.54-3.7-2.32-5.54
	c-0.15-0.35-0.15-0.6,0.23-0.78c0.25-0.12,0.4-0.3,0.29-0.63c-1.28,0-2.57,0-3.95,0c0.08,0.24,0.09,0.52,0.21,0.58
	c0.61,0.33,0.76,0.95,1,1.5c1.33,3.07,2.63,6.15,3.95,9.22c0.04,0.1,0.11,0.19,0.15,0.27c0.31,0,0.58,0,0.83,0
	c0.75-1.46,1.49-2.89,2.3-4.45c0.69,1.58,1.31,3.01,1.94,4.45c0.3,0,0.57,0,0.84,0c0.07-0.12,0.13-0.21,0.17-0.31
	c1.27-3.17,2.54-6.34,3.79-9.51c0.18-0.45,0.33-0.89,0.82-1.11c0.28-0.12,0.29-0.37,0.17-0.64c-0.84,0-1.64,0-2.5,0
	c0,0.17-0.05,0.37,0.01,0.42c0.24,0.19,0.51,0.33,0.84,0.54C35.28,79.3,34.2,81.78,33.27,84.33z M53.61,101.87c0-0.4,0-0.74,0-1.07
	c-0.02-1.96-0.03-3.91-0.05-5.87c-0.01-0.75-0.02-1.5-0.03-2.25c0-0.24,0.02-0.45,0.26-0.58c0.85-0.45,2.4,0.07,2.84,0.97
	c0.27,0.55,0.31,1.14,0.26,1.73c-0.09,1.15-0.8,1.82-1.95,1.86c-0.22,0.01-0.44,0-0.66,0c-0.06,0.69-0.04,0.74,0.45,0.94
	c0.78,0.32,1.6,0.36,2.41,0.16c1.54-0.37,2.57-1.79,2.52-3.46c-0.04-1.49-1.12-2.8-2.64-3.05c-0.8-0.13-1.63-0.11-2.44-0.12
	c-1.52-0.02-3.04-0.01-4.57-0.01c-0.24,0-0.49,0-0.76,0c0,0.24,0,0.43,0,0.6c0.08,0.04,0.11,0.08,0.15,0.09
	c0.26,0.06,0.53,0.12,0.8,0.18c0.56,0.14,0.68,0.27,0.74,0.82c0.03,0.29,0.05,0.59,0.06,0.89c0.06,2.21,0.13,4.41,0.16,6.62
	c0.02,1.38,0.31,1.32-1.22,1.83c-0.46,0.16-0.46,0.2-0.23,0.81c1.87-0.37,3.78-0.14,5.66-0.09c0.19-0.71,0.16-0.77-0.4-0.85
	C54.55,101.98,54.15,101.94,53.61,101.87z M28.6,94.17c0.03-0.05,0.09-0.12,0.09-0.17c-0.05-0.77-0.09-1.54-0.19-2.3
	c-0.02-0.14-0.25-0.31-0.41-0.37c-1.09-0.38-2.21-0.52-3.36-0.35c-1.61,0.24-2.74,1.33-2.98,2.85c-0.23,1.47,0.55,2.93,1.99,3.62
	c0.61,0.29,1.26,0.51,1.89,0.77c0.52,0.22,1.07,0.4,1.56,0.69c1.18,0.7,1.16,2.17,0,2.9c-1.31,0.81-3.09,0.39-3.89-0.92
	c-0.13-0.21-0.23-0.44-0.33-0.67c-0.31-0.68-0.33-0.7-1.04-0.48c0,0.78,0,1.55,0,2.31c0,0.28,0.2,0.38,0.43,0.46
	c1.26,0.42,2.54,0.69,3.88,0.5c1.69-0.23,3.04-1.4,3.34-2.95c0.34-1.78-0.32-3.14-1.95-3.93c-0.53-0.26-1.1-0.44-1.64-0.65
	c-0.44-0.17-0.9-0.33-1.33-0.53c-0.24-0.11-0.48-0.28-0.66-0.47c-0.84-0.85-0.54-2.11,0.57-2.54c1.03-0.39,2.15-0.01,2.72,0.95
	c0.13,0.21,0.22,0.45,0.32,0.68C27.86,94.21,27.86,94.21,28.6,94.17z M73.76,91.03c-0.48-0.14-0.8-0.06-1.11,0.11
	c-0.48,0.25-0.99,0.46-1.48,0.69c-0.18,0.08-0.45,0.12-0.39,0.39c0.03,0.14,0.21,0.31,0.35,0.34c0.57,0.12,0.68,0.49,0.68,1.01
	c-0.02,2.66-0.02,5.32-0.03,7.99c0,0.51,0,1.02,0,1.55c0.8,0.01,0.69-0.85,1.21-1.06c0.22,0.13,0.46,0.27,0.7,0.39
	c0.57,0.29,1.16,0.51,1.81,0.56c2.48,0.19,4.14-1.55,4.43-3.62c0.21-1.48-0.43-2.97-1.64-3.72c-1.14-0.71-2.81-0.6-3.99,0.25
	c-0.14,0.1-0.28,0.21-0.54,0.39C73.76,94.47,73.76,92.76,73.76,91.03z M62.96,75.98c-0.12,0.36,0.07,0.49,0.36,0.5
	c0.41,0.02,0.62,0.22,0.69,0.61c0.2,1.03,0.08,2.06,0.07,3.17c-0.22-0.11-0.36-0.17-0.5-0.24c-1.29-0.62-3.03-0.37-4.1,0.56
	c-1.73,1.51-1.54,3.57-0.81,4.91c0.55,1,1.43,1.56,2.59,1.65c0.86,0.06,1.68-0.08,2.43-0.52c0.12-0.07,0.27-0.1,0.41-0.15
	c0.05,0.31,0.09,0.57,0.14,0.86c0.17-0.03,0.28-0.04,0.38-0.07c0.59-0.15,1.18-0.31,1.77-0.46c0.18-0.04,0.37-0.03,0.54-0.09
	c0.13-0.05,0.22-0.19,0.32-0.28c-0.11-0.09-0.21-0.21-0.34-0.25c-0.25-0.07-0.52-0.1-0.8-0.15c-0.12-3.57,0.04-7.09-0.09-10.66
	C64.94,75.59,63.94,75.79,62.96,75.98z M66.93,103.11c1.07-0.26,2.06-0.49,3.04-0.74c0.07-0.02,0.15-0.19,0.14-0.27
	c-0.02-0.11-0.12-0.24-0.22-0.29c-0.09-0.05-0.22-0.01-0.33-0.01c-0.59-0.01-0.63-0.05-0.62-0.61c0.01-1.64,0.03-3.27,0.04-4.91
	c0-0.24-0.03-0.48-0.04-0.7c-1.01-0.14-2.76-0.1-3.23,0.06c-0.03,0.54-0.03,0.54,0.36,0.61c0.13,0.02,0.27,0.02,0.41,0.04
	c0.47,0.07,0.53,0.11,0.52,0.61c-0.01,1.18-0.03,2.36-0.06,3.55c-0.01,0.2-0.04,0.43-0.15,0.58c-0.5,0.68-1.17,1.08-2.04,0.98
	c-0.56-0.06-0.91-0.4-0.99-0.96c-0.06-0.4-0.09-0.81-0.09-1.22c-0.01-1.16,0.01-2.32,0.01-3.48c0-0.26-0.03-0.52-0.05-0.84
	c-0.93,0-1.79-0.01-2.65,0.01c-0.31,0.01-0.49,0.25-0.37,0.49c0.06,0.12,0.22,0.22,0.36,0.26c0.75,0.24,0.76,0.23,0.76,0.99
	c0,0.32,0,0.64-0.01,0.95c-0.01,0.89-0.03,1.77-0.01,2.66c0.03,1.39,0.89,2.23,2.29,2.25c0.76,0.01,1.42-0.26,2.02-0.71
	c0.26-0.2,0.52-0.41,0.86-0.67C66.87,102.23,66.9,102.63,66.93,103.11z M41.4,79.59c-0.11,0.01-0.33,0.01-0.56,0.03
	c-1.52,0.14-2.8,1.19-3.23,2.65c-0.47,1.59,0.03,3.21,1.27,4.17c0.87,0.67,1.87,0.89,2.95,0.85c2.54-0.1,4.02-2.17,3.66-4.5
	C45.18,80.79,43.66,79.59,41.4,79.59z M37.99,100.52c-0.19,0.2-0.33,0.33-0.44,0.47c-0.83,1.07-2.54,0.99-3.42,0.17
	c-1.04-0.96-1.41-2.9-0.72-4.15c0.32-0.58,0.78-1,1.45-1.15c0.69-0.15,1.07,0.06,1.38,0.69c0.12,0.24,0.23,0.5,0.4,0.71
	c0.37,0.45,1,0.53,1.41,0.22c0.42-0.32,0.48-1,0.13-1.47c-0.29-0.37-0.67-0.62-1.13-0.71c-1.25-0.25-2.49-0.23-3.67,0.32
	c-0.76,0.36-1.37,0.89-1.81,1.61c-1.06,1.69-0.72,3.97,0.79,5.03c1.34,0.94,2.82,1.12,4.34,0.53c0.88-0.34,1.53-0.95,1.85-1.92
	C38.35,100.75,38.19,100.65,37.99,100.52z M57.43,87.03c0.11-0.29,0.06-0.49-0.28-0.55c-0.09-0.01-0.18-0.02-0.27-0.03
	c-0.62-0.08-0.69-0.15-0.71-0.76c-0.01-0.34-0.01-0.68-0.01-1.02c-0.01-2.8-0.02-5.59-0.04-8.39c0-0.25,0-0.49,0-0.76
	c-0.23,0-0.41-0.05-0.53,0.01c-0.75,0.4-1.53,0.69-2.36,0.85c-0.28,0.05-0.24,0.28-0.11,0.5c0.08,0.02,0.17,0.04,0.26,0.05
	c0.75,0.12,0.77,0.15,0.81,0.9c0,0.09,0.01,0.18,0.01,0.27c0.02,2.27,0.04,4.54,0.05,6.82c0,0.25,0,0.5-0.02,0.75
	c-0.06,0.62-0.11,0.67-0.71,0.79c-0.18,0.04-0.36,0.08-0.51,0.16c-0.07,0.04-0.09,0.2-0.09,0.29c0.01,0.06,0.11,0.16,0.18,0.17
	c0.2,0.02,0.41,0.01,0.61,0.01c0.66-0.02,1.32-0.05,1.97-0.07C56.24,87.02,56.81,87.03,57.43,87.03z M46.71,80.75
	c-0.06,0.44,0.18,0.52,0.44,0.58c0.37,0.09,0.52,0.32,0.52,0.69c0.02,1.21,0.04,2.41,0.07,3.62c0.01,0.37-0.16,0.6-0.51,0.71
	c-0.17,0.05-0.35,0.1-0.51,0.18c-0.19,0.09-0.26,0.24-0.12,0.46c1.55,0,3.11,0,4.67,0c-0.05-0.46-0.05-0.47-0.24-0.52
	c-0.11-0.03-0.22-0.03-0.34-0.05c-0.92-0.15-1-0.24-1.01-1.19c-0.01-0.86-0.04-1.73-0.05-2.59c0-0.2,0-0.41,0.05-0.61
	c0.18-0.78,0.43-0.88,1.11-0.5c0.06,0.03,0.12,0.07,0.18,0.09c0.61,0.26,1.14,0.02,1.35-0.61c0.21-0.64-0.23-1.29-0.92-1.39
	c-0.6-0.09-0.99,0.25-1.34,0.66c-0.14,0.16-0.27,0.33-0.4,0.49c-0.04-0.02-0.08-0.03-0.12-0.05c0-0.47,0-0.93,0-1.41
	c-0.34-0.06-0.61-0.1-0.8,0.16C48.22,80.14,47.54,80.56,46.71,80.75z M39.25,102.85c1.57,0,3.09,0,4.59,0
	c0.14-0.36,0.01-0.5-0.3-0.56c-0.31-0.05-0.61-0.13-0.94-0.21c-0.06-2.45,0.14-4.86-0.03-7.3c-0.24,0.02-0.48-0.04-0.58,0.06
	c-0.72,0.64-1.56,1-2.51,1.12c-0.07,0.01-0.16,0.17-0.16,0.25c0,0.09,0.08,0.21,0.16,0.26c0.09,0.06,0.22,0.05,0.33,0.08
	c0.74,0.14,0.82,0.23,0.82,0.99c0.01,1.02,0.01,2.05,0.01,3.07c0,0.34-0.02,0.68-0.04,1.02c-0.02,0.31-0.16,0.51-0.49,0.54
	c-0.29,0.03-0.57,0.09-0.87,0.15c-0.02,0.13-0.04,0.22-0.03,0.31C39.19,102.69,39.22,102.75,39.25,102.85z M79.03,75.84
	c-3.06,0-6.09,0-9.14,0c0,0.57,0,1.1,0,1.66c3.07,0,6.08,0,9.14,0C79.03,76.93,79.03,76.4,79.03,75.84z M79.04,80.62
	c-3.07,0-6.09,0-9.15,0c0,0.57,0,1.1,0,1.62c0.89,0.15,8.65,0.11,9.15-0.05C79.04,81.68,79.04,81.17,79.04,80.62z M69.88,87.39
	c3.06,0,6.09,0,9.15,0c0-0.56,0-1.09,0-1.61c-0.85-0.14-8.64-0.1-9.19,0.05c0,0.32,0,0.66,0,1C69.85,87,69.87,87.17,69.88,87.39z
	 M42.85,92.1c0.01-0.61-0.53-1.12-1.21-1.14c-0.68-0.02-1.17,0.47-1.16,1.14c0.01,0.67,0.56,1.26,1.18,1.25
	C42.31,93.35,42.85,92.79,42.85,92.1z"/>
<path class="st1" d="M81.46,73.44c-8.5,0-16.92,0-25.38,0c0-0.61,0-1.13,0-1.69c9.02,0,18.02,0,27.11,0c0,0.31,0,0.6,0,0.88
	c0,9.56,0,19.11,0,28.67c0,1.05,0.02,1.07,1.05,1.45c0.11,0.04,0.19,0.14,0.31,0.23c-0.52,0.18-3.71,0.21-4.48,0.04
	c0.11-0.11,0.18-0.21,0.28-0.26c0.2-0.1,0.43-0.14,0.63-0.24c0.32-0.17,0.54-0.42,0.48-0.82c-0.02-0.13,0-0.27,0-0.41
	c0-8.96,0-17.93,0-26.89C81.46,74.11,81.46,73.82,81.46,73.44z"/>
<path class="st1" d="M33.27,84.33c0.92-2.55,2.01-5.03,2.88-7.56c-0.33-0.21-0.61-0.35-0.84-0.54c-0.06-0.05-0.01-0.25-0.01-0.42
	c0.86,0,1.66,0,2.5,0c0.12,0.27,0.11,0.52-0.17,0.64c-0.5,0.22-0.65,0.66-0.82,1.11c-1.26,3.17-2.53,6.34-3.79,9.51
	c-0.04,0.1-0.11,0.2-0.17,0.31c-0.27,0-0.54,0-0.84,0c-0.63-1.44-1.25-2.87-1.94-4.45c-0.8,1.56-1.54,2.99-2.3,4.45
	c-0.25,0-0.52,0-0.83,0c-0.04-0.08-0.11-0.17-0.15-0.27c-1.31-3.07-2.62-6.15-3.95-9.22c-0.24-0.55-0.39-1.17-1-1.5
	c-0.12-0.06-0.13-0.34-0.21-0.58c1.38,0,2.67,0,3.95,0c0.11,0.33-0.04,0.51-0.29,0.63c-0.38,0.18-0.38,0.43-0.23,0.78
	c0.78,1.84,1.55,3.69,2.32,5.54c0.26,0.62,0.53,1.24,0.86,2.03c0.48-0.98,0.9-1.8,1.29-2.63c0.06-0.12,0.01-0.31-0.04-0.45
	c-0.64-1.53-1.31-3.05-1.94-4.59c-0.23-0.55-0.73-0.63-1.22-0.81c0-0.15,0-0.3,0-0.5c1.49,0,2.96,0,4.44,0
	c0.11,0.44,0.11,0.44-0.68,0.71c-0.09,0.49,0.3,1.65,0.98,2.85c0.37-0.81,0.74-1.56,1.06-2.33c0.14-0.34,0.08-0.41-0.43-0.59
	c-0.3-0.11-0.57-0.21-0.36-0.64c0.1-0.01,0.21-0.04,0.32-0.04c0.95,0,1.9,0,2.84,0c0.15,0.37,0.09,0.57-0.22,0.67
	c-0.15,0.05-0.3,0.1-0.45,0.15c-0.34,0.1-0.61,0.3-0.77,0.62c-0.49,0.97-0.99,1.95-1.47,2.93c-0.06,0.13-0.08,0.32-0.03,0.45
	c0.51,1.22,1.04,2.42,1.57,3.63C33.15,84.25,33.19,84.27,33.27,84.33z"/>
<path class="st1" d="M53.61,101.87c0.53,0.07,0.94,0.11,1.34,0.17c0.56,0.08,0.59,0.14,0.4,0.85c-1.88-0.05-3.79-0.28-5.66,0.09
	c-0.23-0.61-0.23-0.65,0.23-0.81c1.53-0.52,1.24-0.45,1.22-1.83c-0.03-2.21-0.1-4.41-0.16-6.62c-0.01-0.3-0.02-0.59-0.06-0.89
	c-0.06-0.55-0.18-0.68-0.74-0.82c-0.26-0.07-0.53-0.12-0.8-0.18c-0.04-0.01-0.08-0.04-0.15-0.09c0-0.17,0-0.37,0-0.6
	c0.27,0,0.52,0,0.76,0c1.52,0,3.04-0.01,4.57,0.01c0.82,0.01,1.64-0.01,2.44,0.12c1.52,0.25,2.6,1.56,2.64,3.05
	c0.05,1.67-0.98,3.1-2.52,3.46c-0.82,0.19-1.63,0.16-2.41-0.16c-0.49-0.2-0.51-0.25-0.45-0.94c0.22,0,0.44,0.01,0.66,0
	c1.15-0.04,1.87-0.72,1.95-1.86c0.05-0.6,0.01-1.18-0.26-1.73c-0.44-0.89-1.98-1.42-2.84-0.97c-0.24,0.13-0.27,0.35-0.26,0.58
	c0.01,0.75,0.03,1.5,0.03,2.25c0.02,1.96,0.03,3.91,0.05,5.87C53.62,101.13,53.61,101.47,53.61,101.87z"/>
<path class="st1" d="M28.6,94.17c-0.74,0.04-0.73,0.04-1-0.61c-0.1-0.23-0.19-0.46-0.32-0.68c-0.57-0.96-1.69-1.34-2.72-0.95
	c-1.12,0.43-1.41,1.68-0.57,2.54c0.19,0.19,0.42,0.35,0.66,0.47c0.43,0.2,0.88,0.36,1.33,0.53c0.55,0.22,1.11,0.4,1.64,0.65
	c1.63,0.79,2.29,2.15,1.95,3.93c-0.3,1.55-1.65,2.72-3.34,2.95c-1.35,0.19-2.62-0.08-3.88-0.5c-0.23-0.08-0.43-0.18-0.43-0.46
	c-0.01-0.77,0-1.54,0-2.31c0.71-0.22,0.73-0.21,1.04,0.48c0.1,0.23,0.21,0.46,0.33,0.67c0.8,1.32,2.58,1.74,3.89,0.92
	c1.17-0.73,1.19-2.2,0-2.9c-0.48-0.29-1.03-0.47-1.56-0.69c-0.63-0.26-1.28-0.48-1.89-0.77c-1.44-0.69-2.22-2.15-1.99-3.62
	c0.24-1.52,1.37-2.61,2.98-2.85c1.15-0.17,2.27-0.03,3.36,0.35c0.17,0.06,0.39,0.23,0.41,0.37c0.1,0.76,0.14,1.53,0.19,2.3
	C28.68,94.06,28.62,94.12,28.6,94.17z"/>
<path class="st1" d="M73.76,91.03c0,1.73,0,3.44,0,5.27c0.26-0.19,0.4-0.29,0.54-0.39c1.19-0.85,2.85-0.96,3.99-0.25
	c1.21,0.75,1.85,2.24,1.64,3.72c-0.29,2.07-1.95,3.81-4.43,3.62c-0.65-0.05-1.24-0.26-1.81-0.56c-0.24-0.12-0.48-0.26-0.7-0.39
	c-0.52,0.21-0.41,1.07-1.21,1.06c0-0.53,0-1.04,0-1.55c0.01-2.66,0.01-5.32,0.03-7.99c0-0.52-0.11-0.88-0.68-1.01
	c-0.14-0.03-0.32-0.2-0.35-0.34c-0.07-0.27,0.21-0.3,0.39-0.39c0.49-0.23,1-0.44,1.48-0.69C72.97,90.97,73.28,90.88,73.76,91.03z
	 M73.8,98.96c0.02,0,0.04,0,0.05,0c0,0.61-0.01,1.22,0,1.84c0.01,0.58,0.32,0.97,0.81,1.25c0.96,0.54,2.22,0.14,2.71-0.9
	c0.47-1,0.55-2.05,0.19-3.11c-0.53-1.57-1.89-2.1-3.36-1.34c-0.27,0.14-0.42,0.31-0.41,0.63C73.81,97.87,73.8,98.41,73.8,98.96z"/>
<path class="st1" d="M62.96,75.98c0.99-0.2,1.98-0.4,3.08-0.62c0.13,3.58-0.03,7.09,0.09,10.66c0.28,0.05,0.55,0.07,0.8,0.15
	c0.13,0.04,0.22,0.16,0.34,0.25c-0.11,0.1-0.2,0.23-0.32,0.28c-0.16,0.07-0.36,0.05-0.54,0.09c-0.59,0.15-1.18,0.31-1.77,0.46
	c-0.11,0.03-0.22,0.04-0.38,0.07c-0.05-0.29-0.09-0.55-0.14-0.86c-0.15,0.05-0.29,0.08-0.41,0.15c-0.75,0.45-1.57,0.59-2.43,0.52
	c-1.16-0.08-2.05-0.65-2.59-1.65c-0.73-1.34-0.92-3.39,0.81-4.91c1.07-0.94,2.81-1.18,4.1-0.56c0.14,0.07,0.28,0.13,0.5,0.24
	c0.01-1.11,0.13-2.14-0.07-3.17c-0.08-0.39-0.29-0.59-0.69-0.61C63.02,76.47,62.84,76.34,62.96,75.98z M64.18,85.59
	c-0.04-1.19-0.03-2.46-0.16-3.72c-0.1-1.04-0.89-1.56-1.93-1.45c-0.75,0.07-1.17,0.55-1.44,1.19c-0.38,0.91-0.4,1.85-0.13,2.8
	C61,86.09,62.96,86.64,64.18,85.59z"/>
<path class="st1" d="M66.93,103.11c-0.03-0.49-0.06-0.88-0.09-1.38c-0.34,0.26-0.6,0.47-0.86,0.67c-0.6,0.45-1.26,0.72-2.02,0.71
	c-1.39-0.02-2.26-0.85-2.29-2.25c-0.02-0.89,0.01-1.77,0.01-2.66c0-0.32,0.01-0.64,0.01-0.95c-0.01-0.76-0.01-0.75-0.76-0.99
	c-0.14-0.04-0.3-0.14-0.36-0.26c-0.12-0.24,0.06-0.48,0.37-0.49c0.86-0.02,1.72-0.01,2.65-0.01c0.02,0.31,0.05,0.57,0.05,0.84
	c0,1.16-0.02,2.32-0.01,3.48c0,0.41,0.03,0.82,0.09,1.22c0.08,0.56,0.43,0.9,0.99,0.96c0.88,0.09,1.54-0.3,2.04-0.98
	c0.11-0.15,0.15-0.38,0.15-0.58c0.03-1.18,0.06-2.36,0.06-3.55c0-0.5-0.05-0.54-0.52-0.61c-0.13-0.02-0.27-0.01-0.41-0.04
	c-0.39-0.06-0.39-0.07-0.36-0.61c0.47-0.16,2.21-0.2,3.23-0.06c0.01,0.22,0.05,0.46,0.04,0.7c-0.01,1.64-0.02,3.27-0.04,4.91
	c0,0.56,0.03,0.6,0.62,0.61c0.11,0,0.25-0.04,0.33,0.01c0.1,0.06,0.19,0.18,0.22,0.29c0.02,0.08-0.07,0.25-0.14,0.27
	C68.99,102.63,68,102.86,66.93,103.11z"/>
<path class="st1" d="M41.4,79.59c2.26,0,3.78,1.19,4.09,3.19c0.36,2.34-1.13,4.41-3.66,4.5c-1.08,0.04-2.08-0.17-2.95-0.85
	c-1.24-0.96-1.74-2.58-1.27-4.17c0.43-1.45,1.71-2.51,3.23-2.65C41.07,79.6,41.3,79.6,41.4,79.59z M39.62,83.08
	c-0.03,0.01-0.06,0.01-0.09,0.02c0.12,0.83,0.21,1.66,0.39,2.48c0.12,0.55,0.54,0.88,1.08,1.03c0.94,0.26,1.76-0.1,2.08-1.04
	c0.45-1.35,0.43-2.73,0.08-4.1c-0.14-0.53-0.49-0.92-1.01-1.13c-1.11-0.45-2.19,0.2-2.41,1.46C39.66,82.21,39.65,82.65,39.62,83.08z
	"/>
<path class="st1" d="M37.99,100.52c0.2,0.12,0.36,0.22,0.55,0.34c-0.32,0.98-0.97,1.59-1.85,1.92c-1.53,0.59-3.01,0.41-4.34-0.53
	c-1.51-1.06-1.84-3.33-0.79-5.03c0.45-0.71,1.05-1.25,1.81-1.61c1.18-0.55,2.42-0.57,3.67-0.32c0.46,0.09,0.84,0.34,1.13,0.71
	c0.36,0.47,0.3,1.15-0.13,1.47c-0.41,0.31-1.04,0.23-1.41-0.22c-0.17-0.21-0.28-0.47-0.4-0.71c-0.31-0.63-0.69-0.83-1.38-0.69
	c-0.67,0.14-1.13,0.56-1.45,1.15c-0.68,1.25-0.32,3.18,0.72,4.15c0.88,0.82,2.59,0.9,3.42-0.17
	C37.67,100.85,37.8,100.73,37.99,100.52z"/>
<path class="st1" d="M57.43,87.03c-0.63,0-1.19-0.01-1.76,0c-0.66,0.01-1.32,0.05-1.97,0.07c-0.2,0.01-0.41,0.02-0.61-0.01
	c-0.07-0.01-0.17-0.1-0.18-0.17c-0.01-0.1,0.02-0.26,0.09-0.29c0.15-0.09,0.34-0.13,0.51-0.16c0.6-0.12,0.65-0.17,0.71-0.79
	c0.02-0.25,0.02-0.5,0.02-0.75c-0.02-2.27-0.03-4.54-0.05-6.82c0-0.09,0-0.18-0.01-0.27c-0.04-0.75-0.06-0.78-0.81-0.9
	c-0.09-0.01-0.18-0.03-0.26-0.05c-0.13-0.22-0.17-0.44,0.11-0.5c0.83-0.16,1.61-0.46,2.36-0.85c0.12-0.06,0.3-0.01,0.53-0.01
	c0,0.27,0,0.52,0,0.76c0.01,2.8,0.02,5.59,0.04,8.39c0,0.34,0,0.68,0.01,1.02c0.03,0.61,0.09,0.68,0.71,0.76
	c0.09,0.01,0.18,0.02,0.27,0.03C57.49,86.54,57.54,86.73,57.43,87.03z"/>
<path class="st1" d="M46.71,80.75c0.83-0.19,1.51-0.61,2.02-1.3c0.19-0.26,0.47-0.22,0.8-0.16c0,0.48,0,0.95,0,1.41
	c0.04,0.02,0.08,0.03,0.12,0.05c0.13-0.16,0.26-0.33,0.4-0.49c0.36-0.4,0.74-0.74,1.34-0.66c0.69,0.1,1.13,0.75,0.92,1.39
	c-0.21,0.63-0.74,0.87-1.35,0.61c-0.06-0.03-0.12-0.06-0.18-0.09c-0.69-0.38-0.93-0.27-1.11,0.5c-0.05,0.2-0.05,0.41-0.05,0.61
	c0.01,0.86,0.04,1.73,0.05,2.59c0.01,0.95,0.09,1.04,1.01,1.19c0.11,0.02,0.23,0.02,0.34,0.05c0.19,0.06,0.18,0.06,0.24,0.52
	c-1.56,0-3.12,0-4.67,0c-0.13-0.22-0.07-0.37,0.12-0.46c0.16-0.08,0.34-0.13,0.51-0.18c0.35-0.11,0.52-0.34,0.51-0.71
	c-0.03-1.21-0.05-2.41-0.07-3.62c0-0.37-0.16-0.6-0.52-0.69C46.89,81.27,46.65,81.19,46.71,80.75z"/>
<path class="st1" d="M39.25,102.85c-0.03-0.1-0.06-0.16-0.06-0.22c0-0.09,0.02-0.17,0.03-0.31c0.3-0.05,0.58-0.11,0.87-0.15
	c0.33-0.04,0.48-0.23,0.49-0.54c0.02-0.34,0.04-0.68,0.04-1.02c0-1.02,0-2.05-0.01-3.07c-0.01-0.76-0.08-0.84-0.82-0.99
	c-0.11-0.02-0.24-0.02-0.33-0.08c-0.08-0.05-0.16-0.17-0.16-0.26c0-0.09,0.09-0.24,0.16-0.25c0.95-0.13,1.79-0.48,2.51-1.12
	c0.11-0.09,0.34-0.04,0.58-0.06c0.17,2.44-0.03,4.85,0.03,7.3c0.34,0.08,0.64,0.16,0.94,0.21c0.31,0.05,0.44,0.2,0.3,0.56
	C42.33,102.85,40.82,102.85,39.25,102.85z"/>
<path class="st1" d="M79.03,75.84c0,0.56,0,1.09,0,1.66c-3.06,0-6.07,0-9.14,0c0-0.56,0-1.09,0-1.66
	C72.94,75.84,75.97,75.84,79.03,75.84z"/>
<path class="st1" d="M79.04,80.62c0,0.55,0,1.07,0,1.57c-0.5,0.15-8.25,0.19-9.15,0.05c0-0.52,0-1.05,0-1.62
	C72.95,80.62,75.98,80.62,79.04,80.62z"/>
<path class="st1" d="M69.88,87.39c-0.01-0.21-0.03-0.39-0.04-0.57c-0.01-0.34,0-0.67,0-1c0.55-0.15,8.33-0.19,9.19-0.05
	c0,0.52,0,1.05,0,1.61C75.97,87.39,72.95,87.39,69.88,87.39z"/>
<path class="st1" d="M42.85,92.1c-0.01,0.68-0.54,1.24-1.19,1.25c-0.62,0.01-1.18-0.58-1.18-1.25c-0.01-0.67,0.49-1.15,1.16-1.14
	C42.32,90.98,42.86,91.49,42.85,92.1z"/>
<path class="st0" d="M73.8,98.96c0-0.54,0.01-1.09,0-1.63c-0.01-0.32,0.14-0.49,0.41-0.63c1.47-0.77,2.83-0.24,3.36,1.34
	c0.36,1.06,0.28,2.11-0.19,3.11c-0.49,1.04-1.75,1.44-2.71,0.9c-0.49-0.28-0.8-0.67-0.81-1.25C73.84,100.18,73.8,99.57,73.8,98.96
	C73.78,98.96,73.82,98.96,73.8,98.96z"/>
<path class="st0" d="M64.18,85.59c-1.21,1.04-3.18,0.5-3.66-1.19c-0.27-0.95-0.25-1.89,0.13-2.8c0.27-0.64,0.69-1.11,1.44-1.19
	c1.04-0.1,1.83,0.41,1.93,1.45C64.14,83.13,64.13,84.4,64.18,85.59z"/>
<path class="st0" d="M39.62,83.08c-0.01-0.69,0.04-0.87,0.12-1.29c0.22-1.26,1.31-1.91,2.41-1.46c0.52,0.21,0.87,0.6,1.01,1.13
	c0.35,1.37,0.37,2.75-0.08,4.1c-0.32,0.94-1.14,1.3-2.08,1.04c-0.55-0.15-0.88-0.44-1.08-1.03C39.71,84.91,39.61,84.09,39.62,83.08
	C39.65,83.07,39.59,83.08,39.62,83.08z"/>
</svg>
