<?xml version="1.0" encoding="utf-8"?><!--Generator: Adobe Illustrator 25.2.1, SVG Export Plug-In . SVG Version: 6.00 Build 0)--><svg version="1.1" id="_x2018_лой_x5F_1" xmlns="http://www.w3.org/2000/svg" xmlns:xlink="http://www.w3.org/1999/xlink" x="0px" y="0px" viewBox="0 0 2916.23 1385.05" style="enable-background:new 0 0 2916.23 1385.05" xml:space="preserve"><style type="text/css">.st0{fill:#EBF3FA;}
	.st1{opacity:0.4;}
	.st2{fill:#C3DAFC;}
	.st3{fill:#D4E4F8;}
	.st4{fill:#9DC3F3;}
	.st5{fill:#E3F0FF;}
	.st6{fill:#FFFFFF;}
	.st7{fill:#A9C8ED;}
	.st8{fill:#2A4E96;}
	.st9{fill:#618DC1;}
	.st10{fill:#2B478B;}
	.st11{fill:#DD732C;}
	.st12{fill:#FFB27D;}
	.st13{fill:#B6C0D8;}
	.st14{fill:#DDE7FE;}
	.st15{fill:#209453;}
	.st16{fill:#909CAF;}
	.st17{fill:#207253;}
	.st18{fill:#ABB6C9;}
	.st19{fill:#2E3552;}
	.st20{fill:#717377;}
	.st21{fill:#C0D8FB;}
	.st22{fill:#DFEBFD;}
	.st23{fill:#B7D3F3;}
	.st24{fill:#F99746;}
	.st25{fill:#C15E1B;}
	.st26{fill:#FFC299;}
	.st27{fill:#ED975D;}
	.st28{fill:#2C3A64;}
	.st29{fill:#F8FCFF;}
	.st30{fill:#99B1FF;}
	.st31{opacity:0.5;}
	.st32{fill:#233862;}
	.st33{fill:#192E4F;}
	.st34{fill:#9398A0;}
	.st35{fill:#D2E0FF;}
	.st36{fill:#C1D4F7;}
	.st37{fill:#AEC3FF;}
	.st38{fill:#699DEE;}
	.st39{fill:#E9F3FE;}
	.st40{fill:#146033;}
	.st41{fill:#F1A34F;}
	.st42{opacity:0.4;fill:#D86713;}
	.st43{fill:#8AA8ED;}
	.st44{fill:#F9DDBF;}
	.st45{fill:#163560;}
	.st46{fill:#0E2C4F;}
	.st47{fill:#EAA16E;}
	.st48{fill:#77A4E5;}
	.st49{fill:#7F9EF4;}
	.st50{fill:#5D86E2;}
	.st51{fill:#ED823A;}
	.st52{fill:#FF9E55;}
	.st53{fill:#143660;}
	.st54{fill:#FFB07D;}
	.st55{fill:#184D8D;}
	.st56{fill:#F2CAA9;}
	.st57{fill:#082242;}
	.st58{fill:#05234F;}
	.st59{fill:#223962;}
	.st60{fill:#29498A;}
	.st61{fill:#E8925B;}</style><path class="st0" d="M2864.22,1285.76c-0.4,1.22-0.81,2.44-1.22,3.67c-3.54,10.39-7.44,20.94-11.71,31.65
	c-0.59,1.49-1.2,2.99-1.81,4.48c-5.19,12.75-10.92,25.73-17.22,38.94c0,0.01,0,0.01-0.01,0.02c-0.07,0.15-0.14,0.32-0.22,0.47
	l-2671.85,3.63c0.63-10.69-244.03-356.11,11.97-692.3C428.15,340.14,727.49,521.3,788.9,284.75c13.27-51.11,34.62-94.2,62.03-130.04
	c1.45-1.92,2.93-3.82,4.44-5.68c3.84-4.82,7.8-9.49,11.86-14.03c1.13-1.26,2.26-2.51,3.4-3.75c10.35-11.2,21.35-21.57,32.93-31.13
	c2.33-1.92,4.67-3.82,7.06-5.67h0.01C1052.86-16.85,1276.41-12.1,1436.1,54.08c212.08,87.88,600.24-64.87,931.92,46.75
	c5.5,1.84,10.98,3.76,16.44,5.77h0.01c11.49,4.19,22.89,8.71,34.21,13.6c24.66,10.62,46.21,22.69,65.04,35.97
	c2.68,1.89,5.3,3.81,7.87,5.74h0.02c229.77,173.35,25.5,536.84,144.18,593.05c74.46,35.27,184.39,114.46,231.94,243.03
	c0.6,1.63,1.2,3.27,1.78,4.92c0.65,1.83,1.28,3.67,1.9,5.51c0.56,1.66,1.11,3.33,1.63,4.99
	C2897.02,1088.09,2899.92,1178.55,2864.22,1285.76z"/><g class="st1"><g><rect x="1324.99" y="254.49" transform="matrix(-1 -1.224647e-16 1.224647e-16 -1 2856.6187 679.3663)" class="st2" width="206.63" height="170.38"/><rect x="1428.31" y="254.49" transform="matrix(-1 -1.224647e-16 1.224647e-16 -1 3063.2532 679.3663)" class="st3" width="206.63" height="170.38"/><polygon class="st4" points="1325.11,381.66 1357.86,381.66 1354.97,372.45 1357.86,365.87 1325.11,365.87 		"/><polygon class="st5" points="1428.31,307.22 1461.05,307.22 1458.17,298.01 1461.05,291.42 1428.31,291.42 		"/><polygon class="st4" points="1428.31,291.42 1395.57,291.42 1398.45,300.64 1395.57,307.22 1428.31,307.22 		"/><polygon class="st5" points="1634.95,383.49 1602.21,383.49 1605.09,392.71 1602.21,399.29 1634.95,399.29 		"/><rect x="1561.95" y="266.04" class="st6" width="59.46" height="23.13"/></g><g><rect x="960.08" y="254.49" transform="matrix(-1 -1.224647e-16 1.224647e-16 -1 2126.7893 679.3663)" class="st2" width="206.63" height="170.38"/><rect x="1063.39" y="254.49" transform="matrix(-1 -1.224647e-16 1.224647e-16 -1 2333.4231 679.3663)" class="st3" width="206.63" height="170.38"/><polygon class="st4" points="960.2,381.66 992.94,381.66 990.06,372.45 992.94,365.87 960.2,365.87 		"/><polygon class="st5" points="1063.39,307.22 1096.14,307.22 1093.25,298.01 1096.14,291.42 1063.39,291.42 		"/><polygon class="st4" points="1063.39,291.42 1030.65,291.42 1033.54,300.64 1030.65,307.22 1063.39,307.22 		"/><polygon class="st5" points="1270.03,383.49 1237.29,383.49 1240.17,392.71 1237.29,399.29 1270.03,399.29 		"/><rect x="1197.04" y="266.04" class="st6" width="59.46" height="23.13"/></g><g><rect x="826.42" y="424.87" class="st2" width="79.48" height="947.96"/><rect x="1697.77" y="424.87" class="st2" width="66.06" height="947.96"/><rect x="905.89" y="424.87" class="st2" width="857.94" height="24.67"/><rect x="905.89" y="874.18" class="st2" width="857.94" height="24.67"/><rect x="905.89" y="1251.02" class="st2" width="857.94" height="24.67"/><g><rect x="1339.3" y="698.03" transform="matrix(-1 -1.224647e-16 1.224647e-16 -1 2892.2366 1572.2101)" class="st7" width="213.63" height="176.15"/><rect x="1446.12" y="698.03" transform="matrix(-1 -1.224647e-16 1.224647e-16 -1 3105.8694 1572.2101)" class="st3" width="213.63" height="176.15"/><polygon class="st4" points="1339.43,829.51 1373.28,829.51 1370.3,819.98 1373.28,813.18 1339.43,813.18 			"/><polygon class="st5" points="1446.12,752.54 1479.97,752.54 1476.99,743.02 1479.97,736.21 1446.12,736.21 			"/><polygon class="st4" points="1446.12,736.21 1412.27,736.21 1415.25,745.74 1412.27,752.54 1446.12,752.54 			"/><polygon class="st5" points="1659.76,831.4 1625.9,831.4 1628.89,840.93 1625.9,847.73 1659.76,847.73 			"/><rect x="1584.29" y="709.97" class="st6" width="61.48" height="23.92"/></g><g><rect x="1065.14" y="698.03" transform="matrix(-1 -1.224647e-16 1.224647e-16 -1 2343.9158 1572.2101)" class="st2" width="213.63" height="176.15"/><rect x="1171.96" y="698.03" transform="matrix(-1 -1.224647e-16 1.224647e-16 -1 2557.5491 1572.2101)" class="st3" width="213.63" height="176.15"/><polygon class="st4" points="1065.27,829.51 1099.12,829.51 1096.14,819.98 1099.12,813.18 1065.27,813.18 			"/><polygon class="st5" points="1171.96,752.54 1205.81,752.54 1202.83,743.02 1205.81,736.21 1171.96,736.21 			"/><polygon class="st4" points="1171.96,736.21 1138.11,736.21 1141.09,745.74 1138.11,752.54 1171.96,752.54 			"/><polygon class="st5" points="1385.6,831.4 1351.74,831.4 1354.73,840.93 1351.74,847.73 1385.6,847.73 			"/><polygon class="st5" points="1385.6,733.89 1351.74,733.89 1354.73,743.41 1351.74,750.22 1385.6,750.22 			"/><rect x="1193.54" y="816.33" class="st6" width="100.2" height="38.98"/></g><g><rect x="1339.3" y="1098.2" transform="matrix(-1 -1.224647e-16 1.224647e-16 -1 2863.2493 2348.658)" class="st2" width="184.65" height="152.25"/><rect x="1431.62" y="1098.2" transform="matrix(-1 -1.224647e-16 1.224647e-16 -1 3047.8938 2348.658)" class="st3" width="184.65" height="152.25"/><polygon class="st4" points="1339.41,1211.84 1368.67,1211.84 1366.09,1203.61 1368.67,1197.73 1339.41,1197.73 			"/><polygon class="st5" points="1431.62,1145.32 1460.88,1145.32 1458.31,1137.09 1460.88,1131.2 1431.62,1131.2 			"/><polygon class="st4" points="1431.62,1131.2 1402.37,1131.2 1404.94,1139.44 1402.37,1145.32 1431.62,1145.32 			"/><polygon class="st5" points="1616.27,1213.48 1587.02,1213.48 1589.59,1221.71 1587.02,1227.59 1616.27,1227.59 			"/><rect x="1551.05" y="1108.53" class="st6" width="53.13" height="20.67"/></g><g><rect x="988.62" y="1074.3" transform="matrix(-1 -1.224647e-16 1.224647e-16 -1 2190.8691 2324.7556)" class="st2" width="213.63" height="176.15"/><rect x="1095.43" y="1074.3" transform="matrix(-1 -1.224647e-16 1.224647e-16 -1 2404.502 2324.7556)" class="st3" width="213.63" height="176.15"/><polygon class="st8" points="988.74,1205.78 1022.59,1205.78 1019.61,1196.26 1022.59,1189.45 988.74,1189.45 			"/><polygon class="st9" points="1095.43,1128.82 1129.29,1128.82 1126.3,1119.29 1129.29,1112.48 1095.43,1112.48 			"/><polygon class="st8" points="1095.43,1112.48 1061.58,1112.48 1064.56,1122.01 1061.58,1128.82 1095.43,1128.82 			"/><polygon class="st9" points="1309.07,1207.67 1275.22,1207.67 1278.2,1217.2 1275.22,1224 1309.07,1224 			"/><rect x="1233.6" y="1086.24" class="st6" width="61.48" height="23.92"/></g><g><rect x="1048.75" y="562.55" transform="matrix(-1 -1.224647e-16 1.224647e-16 -1 2260.8186 1259.7731)" class="st2" width="163.32" height="134.67"/><rect x="1130.41" y="562.55" transform="matrix(-1 -1.224647e-16 1.224647e-16 -1 2424.1401 1259.7731)" class="st3" width="163.32" height="134.67"/><polygon class="st4" points="1048.84,663.07 1074.72,663.07 1072.44,655.79 1074.72,650.58 1048.84,650.58 			"/><polygon class="st5" points="1130.41,604.23 1156.29,604.23 1154.01,596.95 1156.29,591.74 1130.41,591.74 			"/><polygon class="st4" points="1130.41,591.74 1104.53,591.74 1106.81,599.02 1104.53,604.23 1130.41,604.23 			"/><polygon class="st5" points="1293.73,664.51 1267.85,664.51 1270.13,671.8 1267.85,677 1293.73,677 			"/><rect x="1236.04" y="571.68" class="st6" width="47" height="18.28"/></g><g><rect x="1340.55" y="562.55" transform="matrix(-1 -1.224647e-16 1.224647e-16 -1 2844.4238 1259.7731)" class="st2" width="163.32" height="134.67"/><rect x="1422.21" y="562.55" transform="matrix(-1 -1.224647e-16 1.224647e-16 -1 3007.7454 1259.7731)" class="st3" width="163.32" height="134.67"/><polygon class="st4" points="1340.65,663.07 1366.53,663.07 1364.25,655.79 1366.53,650.58 1340.65,650.58 			"/><polygon class="st5" points="1422.21,604.23 1448.09,604.23 1445.81,596.95 1448.09,591.74 1422.21,591.74 			"/><polygon class="st4" points="1422.21,591.74 1396.33,591.74 1398.61,599.02 1396.33,604.23 1422.21,604.23 			"/><polygon class="st5" points="1585.54,664.51 1559.66,664.51 1561.94,671.8 1559.66,677 1585.54,677 			"/><rect x="1527.84" y="571.68" class="st6" width="47" height="18.28"/></g></g></g><g><g><path class="st10" d="M2648.56,1109.56l-4.06-1.2c10.74-36.49-8.75-74.48-43.43-84.69l-87.37-25.71
			c-17.98-5.29-28.08-24.99-22.52-43.91c17.99-61.14-14.66-124.8-72.78-141.9l1.26-4.28c60.36,17.76,94.27,83.88,75.59,147.38
			c-4.87,16.56,3.97,33.8,19.71,38.43l87.37,25.71C2639.25,1030.27,2660,1070.72,2648.56,1109.56z"/></g><g><path class="st10" d="M2639.74,1139.55l-4.06-1.2c10.74-36.49-8.75-74.48-43.43-84.69l-87.37-25.71
			c-17.98-5.29-28.08-24.99-22.52-43.9c17.99-61.14-14.66-124.8-72.78-141.91l1.26-4.28c60.36,17.76,94.27,83.88,75.59,147.38
			c-4.87,16.56,3.97,33.8,19.71,38.43l87.37,25.71C2630.43,1060.26,2651.17,1100.7,2639.74,1139.55z"/></g><g><polygon class="st11" points="2185.73,809.77 2156.58,809.77 2159.14,801.57 2156.58,795.71 2185.73,795.71 		"/><polygon class="st12" points="2093.85,743.49 2064.7,743.49 2067.27,735.29 2064.7,729.43 2093.85,729.43 		"/><polygon class="st11" points="2093.85,729.43 2123,729.43 2120.43,737.63 2123,743.49 2093.85,743.49 		"/><polygon class="st12" points="1909.88,811.4 1939.03,811.4 1936.47,819.6 1939.03,825.46 1909.88,825.46 		"/><rect x="1921.93" y="706.84" transform="matrix(-1 -1.224647e-16 1.224647e-16 -1 3896.804 1434.2677)" class="st6" width="52.94" height="20.6"/></g><g><path class="st10" d="M2192.44,284.06c-26.38,0-54.04-4.19-69.39-13.04c-24.42-14.09-55.4-8.12-55.71-8.06l-0.75-3.74
			c1.32-0.27,32.68-6.34,58.37,8.49c25.32,14.61,88.23,15.91,116.71,6.21c28.06-9.55,65.31-19.83,80.8-19.83v3.82
			c-15.06,0-51.8,10.17-79.57,19.63C2230.32,281.83,2211.72,284.06,2192.44,284.06z"/></g><rect x="2028.75" y="556.74" class="st10" width="12.07" height="78.7"/><rect x="2052.63" y="556.74" class="st10" width="12.07" height="78.7"/><g><path class="st10" d="M2192.44,275.59c-26.38,0-54.04-4.19-69.39-13.04c-24.42-14.09-55.4-8.12-55.71-8.06l-0.75-3.74
			c1.32-0.27,32.68-6.33,58.37,8.49c25.32,14.61,88.23,15.91,116.71,6.21c28.06-9.55,65.31-19.83,80.8-19.83v3.82
			c-15.06,0-51.8,10.17-79.57,19.63C2230.32,273.35,2211.72,275.59,2192.44,275.59z"/></g><g><path class="st10" d="M2446.51,735.62h-5.01v-3.82h5.01c23.2,0,42.08-18.88,42.08-42.08V254.17c0-23.2-18.88-42.08-42.08-42.08
			h-37.14v-3.82h37.14c25.31,0,45.9,20.59,45.9,45.89v435.56C2492.4,715.03,2471.82,735.62,2446.51,735.62z"/></g><g><path class="st10" d="M2441.5,698.74v-3.82c16.14,0,29.26-13.13,29.26-29.26V260.78c0-15.65-12.73-28.38-28.38-28.38h-29.44v-3.82
			h29.44c17.75,0,32.2,14.44,32.2,32.2v404.87C2474.58,683.9,2459.74,698.74,2441.5,698.74z"/></g><path class="st13" d="M2097.16,574.21h-104.23c-14.83,0-26.85-12.02-26.85-26.85V314.5c0-14.83,12.02-26.85,26.85-26.85h104.23
		c14.83,0,26.85,12.02,26.85,26.85v232.85C2124.01,562.19,2111.99,574.21,2097.16,574.21z"/><g><circle class="st14" cx="2009.37" cy="328.42" r="13.74"/><path class="st14" d="M1995.63,524.38c0-7.59,6.15-13.74,13.74-13.74c7.59,0,13.74,6.15,13.74,13.74
			c0,7.59-6.15,13.74-13.74,13.74C2001.78,538.13,1995.63,531.97,1995.63,524.38z"/><path class="st14" d="M2066.97,328.42c0-7.59,6.15-13.74,13.75-13.74s13.74,6.15,13.74,13.74c0,7.59-6.15,13.74-13.74,13.74
			S2066.97,336.02,2066.97,328.42z"/><path class="st14" d="M2066.97,524.38c0-7.59,6.15-13.74,13.75-13.74s13.74,6.15,13.74,13.74c0,7.59-6.15,13.74-13.74,13.74
			S2066.97,531.97,2066.97,524.38z"/></g><path class="st15" d="M2103.7,648.95c0,2.83-0.63,5.58-1.8,8.19h-107.94c-1.17-2.62-1.8-5.36-1.8-8.19
		c0-17.88,24.98-32.39,55.77-32.39C2078.72,616.57,2103.7,631.07,2103.7,648.95z"/><g><path class="st10" d="M2197.18,685.87v146.69c0,11.77-5.78,22.79-15.47,29.46l-44.74,30.85c-3.21,2.21-7.6,1.41-9.81-1.8l0,0
			c-2.21-3.21-1.41-7.6,1.8-9.81l44.74-30.85c5.86-4.05,9.37-10.71,9.37-17.85V685.87c0-15.87-12.86-28.73-28.73-28.73h-212.83
			c-15.87,0-28.73,12.86-28.73,28.73v145.85c0,7.52,3.81,14.39,10.19,18.38l49.98,31.25c3.3,2.06,4.3,6.41,2.24,9.71l0,0
			c-2.06,3.3-6.42,4.31-9.72,2.25l-49.99-31.24c-10.54-6.59-16.83-17.93-16.83-30.35V685.87c0-23.66,19.18-42.84,42.84-42.84h212.83
			C2178,643.03,2197.18,662.21,2197.18,685.87z"/></g><rect x="2040.77" y="199.45" class="st10" width="293.27" height="8.83"/><rect x="2040.77" y="224.17" class="st10" width="293.27" height="8.83"/><path class="st15" d="M2083.07,287.65h-87.45V226.3c0-24.93,20.21-45.15,45.15-45.15l0,0c24.93,0,45.15,20.21,45.15,45.15v58.5
		C2085.92,286.38,2084.64,287.65,2083.07,287.65z"/><path class="st13" d="M2393.52,181.15h-44.57c-20.97,0-37.96,17-37.96,37.96v795.46c0,20.97,17,37.96,37.96,37.96h44.57
		c20.97,0,37.96-17,37.96-37.96V219.12C2431.49,198.15,2414.49,181.15,2393.52,181.15z"/><circle class="st10" cx="2371.23" cy="223.49" r="7.01"/><path class="st16" d="M2422.95,885.19h-107.81c-10.25,0-18.55-8.3-18.55-18.55V322.48c0-10.25,8.31-18.55,18.55-18.55h107.81
		c10.25,0,18.55,8.31,18.55,18.55v544.16C2441.5,876.88,2433.2,885.19,2422.95,885.19z"/><path class="st16" d="M2449.93,1096.59h-135.39c-9.91,0-17.95-8.04-17.95-17.95v-61.93c0-9.91,8.04-17.95,17.95-17.95h117.44
		c9.91,0,17.95,8.04,17.95,17.95V1096.59z"/><g><ellipse transform="matrix(0.0227 -0.9997 0.9997 0.0227 1770.3125 2259.3267)" class="st15" cx="2040.77" cy="224.17" rx="26.69" ry="26.69"/><g><path class="st10" d="M2040.77,251.69c-15.17,0-27.52-12.34-27.52-27.52c0-15.17,12.34-27.52,27.52-27.52
				c15.17,0,27.52,12.34,27.52,27.52C2068.29,239.35,2055.95,251.69,2040.77,251.69z M2040.77,198.31
				c-14.26,0-25.86,11.6-25.86,25.86c0,14.26,11.6,25.86,25.86,25.86c14.26,0,25.86-11.6,25.86-25.86
				C2066.63,209.91,2055.03,198.31,2040.77,198.31z"/></g><ellipse transform="matrix(0.2298 -0.9732 0.9732 0.2298 1353.7242 2158.8474)" class="st17" cx="2040.77" cy="224.17" rx="16.29" ry="16.29"/></g></g><g><g><rect x="2649.57" y="978.01" transform="matrix(-0.9104 0.4137 -0.4137 -0.9104 5595.4868 838.7776)" class="st2" width="114.69" height="94.57"/><rect x="2701.78" y="954.29" transform="matrix(-0.9104 0.4137 -0.4137 -0.9104 5685.4077 771.8246)" class="st3" width="114.69" height="94.57"/><polygon class="st9" points="2699.46,1008.89 2716.01,1001.37 2712.43,997.38 2712.38,993.39 2695.83,1000.91 		"/><polygon class="st8" points="2695.83,1000.91 2679.29,1008.43 2682.86,1012.43 2682.92,1016.41 2699.46,1008.89 		"/><polygon class="st9" points="2821.4,999.98 2804.85,1007.5 2808.43,1011.5 2808.48,1015.49 2825.02,1007.97 		"/><rect x="2758.72" y="949.99" transform="matrix(0.9104 -0.4137 0.4137 0.9104 -147.0362 1233.887)" class="st6" width="33" height="12.84"/></g><path class="st10" d="M2864.22,1285.76c-0.4,1.22-0.81,2.44-1.22,3.67c-3.54,10.39-7.44,20.94-11.71,31.65
		c-0.59,1.49-1.2,2.99-1.81,4.48c-5.19,12.75-10.92,25.73-17.22,38.94h-140.4l-8.04-75.07l-0.39-3.67l-0.31-2.88l-19.98-186.29
		l-0.15-1.44l10.56-4.71l52.35-23.4l52.36-23.39l52.35-23.38l38.9-17.37c0.65,1.83,1.28,3.67,1.9,5.51
		c0.56,1.66,1.11,3.33,1.63,4.99C2897.02,1088.09,2899.92,1178.55,2864.22,1285.76z"/><path class="st13" d="M2864.22,1285.76c-0.4,1.22-0.81,2.44-1.22,3.67h-165.16l-0.36-3.67l-0.29-2.88l-18.04-182.56l8.33-3.73
		l185.56-83.19C2897.02,1088.09,2899.92,1178.55,2864.22,1285.76z"/><path class="st13" d="M2697.85,1289.42H1284.57c-53.25,0-96.41-43.17-96.41-96.41l0,0c0-53.25,43.17-96.41,96.41-96.41h1413.28
		c53.25,0,96.41,43.16,96.41,96.41l0,0C2794.26,1246.26,2751.1,1289.42,2697.85,1289.42z"/><path class="st13" d="M2794.26,1193c0,26.62-10.79,50.73-28.24,68.18c-17.44,17.44-41.55,28.24-68.17,28.24h-239.64
		c-5.14,0-9.3-4.16-9.3-9.3v-174.23c0-5.14,4.16-9.3,9.3-9.3h239.64C2751.1,1096.59,2794.26,1139.76,2794.26,1193z"/><path class="st18" d="M2864.22,1285.76c-0.4,1.22-0.81,2.44-1.22,3.67c-3.54,10.39-7.44,20.94-11.71,31.65
		c-0.59,1.49-1.2,2.99-1.81,4.48c-5.19,12.75-10.92,25.73-17.22,38.94c0,0.01,0,0.01-0.01,0.02l-152.97,0.07l-1404.37,0.65v-79.47
		H2864.22z"/><g><path class="st19" d="M1698.67,1182.6l-10.87-5.05c-0.9-0.43-1.49-1.32-1.51-2.31c-0.03-1.27-0.12-2.56-0.26-3.84
			c-0.25-2.39-0.68-4.72-1.3-6.96c-0.29-1.04,0.09-2.15,0.95-2.8l9.96-7.59c1.06-0.8,1.34-2.3,0.61-3.45l-6.13-9.68
			c-0.69-1.1-2.1-1.48-3.26-0.92l-10.35,5.08c-1,0.52-2.23,0.3-3.03-0.54c-3.38-3.52-7.32-6.49-11.65-8.79
			c-1.05-0.56-1.59-1.79-1.31-2.94l1.68-6.81c0.31-1.29-0.39-2.63-1.66-3.11l-10.69-3.86c-0.22-0.09-0.44-0.14-0.67-0.15
			c-1.06-0.11-2.12,0.47-2.57,1.48l-3.79,8.12l-0.91,1.99c-2.13-0.08-4.3,0-6.47,0.24c-2.93,0.32-5.77,0.9-8.47,1.72
			c-1.03,0.31-2.15-0.03-2.8-0.9l-6.1-8.03c-0.84-1.1-2.37-1.37-3.53-0.62l-7.4,4.67l-2.12,1.35c-1.16,0.73-1.59,2.23-0.98,3.45
			l4.24,8.66c0.5,1,0.32,2.21-0.47,2.97c-2.3,2.35-4.37,4.93-6.12,7.69c-0.18,0.23-0.31,0.46-0.45,0.69
			c-0.04,0.09-0.1,0.16-0.16,0.23c-0.63,0.85-1.7,1.22-2.73,0.96l-11.07-2.71c-0.12-0.03-0.25-0.04-0.37-0.07
			c-1.17-0.11-2.3,0.59-2.72,1.72l-3.87,10.66c-0.46,1.28,0.12,2.71,1.37,3.3l11.35,5.26c0.97,0.43,1.55,1.42,1.49,2.48
			c-0.1,2.33-0.03,4.7,0.23,7.1c0.14,1.28,0.33,2.53,0.57,3.77c0.19,1-0.21,2.03-1.02,2.64l-9.58,7.31
			c-1.05,0.79-1.33,2.28-0.61,3.41l6.08,9.57c0.74,1.15,2.22,1.59,3.47,0.98l8.19-4.02c1.11-0.54,2.41-0.26,3.19,0.67
			c3.05,3.68,6.65,6.86,10.67,9.44c0.97,0.59,1.43,1.75,1.15,2.85l-2.45,9.97c-0.32,1.34,0.42,2.71,1.7,3.19l10.62,3.86
			c1.27,0.46,2.7-0.14,3.25-1.36l0.22-0.47l4.39-9.44c0.47-1.01,1.49-1.6,2.61-1.53h0.01c2.67,0.17,5.39,0.13,8.14-0.17
			c1.47-0.15,2.9-0.39,4.33-0.68c0.99-0.21,2,0.16,2.61,0.97l6.2,8.15c0.85,1.12,2.41,1.4,3.59,0.66l9.52-6.05
			c0.27-0.18,0.49-0.4,0.68-0.63c0.59-0.78,0.72-1.85,0.29-2.76l-3.41-6.91c-0.41-0.84-0.33-1.85,0.18-2.62
			c0.14-0.2,0.31-0.38,0.49-0.55c4.71-3.94,8.57-8.76,11.38-14.21c0.47-0.93,1.46-1.46,2.48-1.4c0.15,0.01,0.3,0.03,0.45,0.08
			l8.95,2.19c1.31,0.32,2.63-0.38,3.11-1.65l0.09-0.25l3.79-10.38C1700.54,1184.62,1699.93,1183.19,1698.67,1182.6z
			 M1663.43,1186.03c-1.1,3.07-3.86,6.83-6.69,9.28c-0.66,0.56-1.32,1.06-1.94,1.45c-2.94,1.84-5.95,3.06-8.92,3.73
			c-16.99,3.77-32.85-10.49-29.9-28.6c0.3-1.81,0.78-3.67,1.47-5.54c1.33-3.59,5.05-8.24,8.27-10.28c0.34-0.22,0.69-0.43,1.03-0.64
			C1647.95,1143.01,1671.83,1162.56,1663.43,1186.03z"/></g><g><path class="st20" d="M1772.27,1229.4l-7.82-3.63c-0.65-0.31-1.06-0.96-1.09-1.67c-0.02-0.92-0.09-1.83-0.19-2.77
			c-0.19-1.72-0.49-3.39-0.93-4.99c-0.2-0.76,0.07-1.56,0.68-2.02l7.17-5.46c0.78-0.57,0.96-1.66,0.45-2.48l-4.41-6.96
			c-0.5-0.79-1.5-1.06-2.35-0.67l-7.44,3.66c-0.72,0.36-1.6,0.21-2.17-0.39c-2.44-2.52-5.27-4.66-8.39-6.32
			c-0.75-0.4-1.14-1.28-0.93-2.11l1.21-4.91c0.22-0.93-0.29-1.9-1.19-2.24l-7.69-2.78c-0.16-0.07-0.32-0.1-0.48-0.11
			c-0.77-0.08-1.53,0.34-1.85,1.06l-2.71,5.85l-0.66,1.42c-1.54-0.04-3.09,0.01-4.66,0.18c-2.1,0.23-4.15,0.65-6.09,1.24
			c-0.73,0.22-1.55-0.02-2.01-0.65l-4.39-5.77c-0.61-0.79-1.71-0.99-2.54-0.46l-5.32,3.37l-1.51,0.98c-0.83,0.53-1.14,1.6-0.71,2.48
			l3.05,6.22c0.36,0.72,0.23,1.59-0.33,2.14c-1.67,1.69-3.15,3.55-4.41,5.53c-0.12,0.16-0.22,0.33-0.33,0.5
			c-0.02,0.05-0.07,0.11-0.11,0.16c-0.45,0.6-1.23,0.87-1.96,0.68l-7.97-1.94c-0.09-0.03-0.19-0.04-0.27-0.06
			c-0.83-0.08-1.66,0.43-1.95,1.24l-2.79,7.66c-0.33,0.93,0.09,1.95,0.99,2.38l8.16,3.77c0.69,0.32,1.11,1.03,1.08,1.79
			c-0.08,1.67-0.02,3.38,0.16,5.11c0.1,0.91,0.23,1.82,0.41,2.71c0.13,0.72-0.14,1.46-0.73,1.9l-6.88,5.26
			c-0.77,0.57-0.96,1.65-0.45,2.46l4.38,6.88c0.52,0.83,1.59,1.14,2.48,0.7l5.9-2.89c0.79-0.39,1.72-0.19,2.29,0.48
			c2.18,2.64,4.78,4.93,7.67,6.78c0.69,0.43,1.02,1.26,0.82,2.06l-1.76,7.17c-0.23,0.97,0.3,1.95,1.23,2.29l7.64,2.78
			c0.91,0.34,1.93-0.09,2.33-0.96l0.16-0.34l3.16-6.79c0.33-0.72,1.08-1.15,1.88-1.1h0.01c1.91,0.13,3.86,0.1,5.85-0.12
			c1.05-0.11,2.08-0.29,3.12-0.48c0.71-0.15,1.45,0.11,1.89,0.69l4.46,5.87c0.61,0.8,1.73,1,2.58,0.46l6.86-4.35
			c0.19-0.12,0.35-0.29,0.48-0.45c0.43-0.56,0.52-1.34,0.21-1.99l-2.46-4.97c-0.29-0.61-0.24-1.34,0.13-1.89
			c0.1-0.14,0.21-0.29,0.35-0.39c3.39-2.83,6.16-6.3,8.19-10.23c0.34-0.67,1.05-1.04,1.79-1c0.1,0,0.21,0.02,0.32,0.04l6.44,1.58
			c0.93,0.23,1.89-0.27,2.23-1.19l0.07-0.17l2.72-7.47C1773.61,1230.85,1773.18,1229.82,1772.27,1229.4z M1746.93,1231.87
			c-0.79,2.21-2.79,4.92-4.82,6.67c-0.47,0.41-0.94,0.77-1.4,1.04c-2.12,1.33-4.27,2.21-6.41,2.69
			c-12.22,2.71-23.62-7.55-21.51-20.58c0.21-1.29,0.56-2.63,1.05-3.98c0.96-2.58,3.63-5.93,5.95-7.4c0.25-0.15,0.5-0.31,0.75-0.46
			C1735.79,1200.92,1752.96,1214.98,1746.93,1231.87z"/></g><g><path class="st20" d="M2115.74,1182.6l-10.87-5.05c-0.9-0.43-1.48-1.32-1.51-2.31c-0.03-1.27-0.11-2.56-0.25-3.84
			c-0.26-2.39-0.68-4.72-1.29-6.96c-0.29-1.04,0.08-2.15,0.94-2.8l9.96-7.59c1.08-0.8,1.35-2.3,0.61-3.45l-6.12-9.68
			c-0.7-1.1-2.1-1.48-3.26-0.92l-10.36,5.08c-1,0.52-2.22,0.3-3.02-0.54c-3.38-3.52-7.32-6.49-11.66-8.79
			c-1.04-0.56-1.59-1.79-1.31-2.94l1.69-6.81c0.3-1.29-0.4-2.63-1.66-3.11l-10.7-3.86c-0.22-0.09-0.43-0.14-0.66-0.15
			c-1.06-0.11-2.12,0.47-2.58,1.48l-3.78,8.12l-0.91,1.99c-2.13-0.08-4.3,0-6.47,0.24c-2.93,0.32-5.77,0.9-8.47,1.72
			c-1.03,0.31-2.15-0.03-2.8-0.9l-6.11-8.03c-0.83-1.1-2.37-1.37-3.52-0.62l-7.41,4.67l-2.11,1.35c-1.16,0.73-1.59,2.23-0.99,3.45
			l4.25,8.66c0.49,1,0.32,2.21-0.47,2.97c-2.32,2.35-4.38,4.93-6.12,7.69c-0.18,0.23-0.31,0.46-0.45,0.69
			c-0.04,0.09-0.11,0.16-0.16,0.23c-0.63,0.85-1.71,1.22-2.73,0.96l-11.07-2.71c-0.12-0.03-0.25-0.04-0.37-0.07
			c-1.17-0.11-2.3,0.59-2.72,1.72l-3.87,10.66c-0.47,1.28,0.12,2.71,1.37,3.3l11.35,5.26c0.96,0.43,1.55,1.42,1.49,2.48
			c-0.11,2.33-0.03,4.7,0.23,7.1c0.13,1.28,0.33,2.53,0.56,3.77c0.19,1-0.2,2.03-1.01,2.64l-9.58,7.31
			c-1.05,0.79-1.33,2.28-0.62,3.41l6.08,9.57c0.72,1.15,2.21,1.59,3.46,0.98l8.2-4.02c1.1-0.54,2.4-0.26,3.19,0.67
			c3.04,3.68,6.65,6.86,10.67,9.44c0.95,0.59,1.43,1.75,1.15,2.85l-2.45,9.97c-0.33,1.34,0.42,2.71,1.7,3.19l10.61,3.86
			c1.28,0.46,2.7-0.14,3.25-1.36l0.23-0.47l4.39-9.44c0.46-1.01,1.49-1.6,2.6-1.53h0.02c2.66,0.17,5.38,0.13,8.13-0.17
			c1.47-0.15,2.91-0.39,4.33-0.68c1-0.21,2.01,0.16,2.62,0.97l6.2,8.15c0.84,1.12,2.41,1.4,3.59,0.66l9.52-6.05
			c0.26-0.18,0.49-0.4,0.68-0.63c0.58-0.78,0.72-1.85,0.27-2.76l-3.4-6.91c-0.41-0.84-0.33-1.85,0.18-2.62
			c0.13-0.2,0.3-0.38,0.49-0.55c4.71-3.94,8.56-8.76,11.38-14.21c0.46-0.93,1.46-1.46,2.48-1.4c0.14,0.01,0.3,0.03,0.44,0.08
			l8.97,2.19c1.3,0.32,2.62-0.38,3.09-1.65l0.09-0.25l3.79-10.38C2117.61,1184.62,2117.01,1183.19,2115.74,1182.6z M2080.52,1186.03
			c-1.11,3.07-3.86,6.83-6.69,9.28c-0.66,0.56-1.32,1.06-1.94,1.45c-2.95,1.84-5.95,3.06-8.93,3.73
			c-16.99,3.77-32.84-10.49-29.9-28.6c0.31-1.81,0.79-3.67,1.48-5.54c1.33-3.59,5.04-8.24,8.26-10.28c0.35-0.22,0.69-0.43,1.04-0.64
			C2065.04,1143.01,2088.9,1162.56,2080.52,1186.03z"/></g><g><path class="st19" d="M2189.35,1229.4l-7.82-3.63c-0.65-0.31-1.08-0.96-1.09-1.67c-0.03-0.92-0.09-1.83-0.19-2.77
			c-0.19-1.72-0.49-3.39-0.93-4.99c-0.21-0.76,0.05-1.56,0.68-2.02l7.17-5.46c0.77-0.57,0.96-1.66,0.44-2.48l-4.4-6.96
			c-0.5-0.79-1.51-1.06-2.35-0.67l-7.45,3.66c-0.71,0.36-1.59,0.21-2.17-0.39c-2.43-2.52-5.27-4.66-8.38-6.32
			c-0.76-0.4-1.14-1.28-0.94-2.11l1.22-4.91c0.22-0.93-0.29-1.9-1.2-2.24l-7.69-2.78c-0.15-0.07-0.31-0.1-0.47-0.11
			c-0.77-0.08-1.52,0.34-1.85,1.06l-2.72,5.85l-0.66,1.42c-1.53-0.04-3.09,0.01-4.65,0.18c-2.11,0.23-4.15,0.65-6.09,1.24
			c-0.75,0.22-1.55-0.02-2.01-0.65l-4.4-5.77c-0.6-0.79-1.7-0.99-2.53-0.46l-5.32,3.37l-1.53,0.98c-0.83,0.53-1.14,1.6-0.7,2.48
			l3.05,6.22c0.36,0.72,0.23,1.59-0.34,2.14c-1.66,1.69-3.14,3.55-4.4,5.53c-0.13,0.16-0.22,0.33-0.33,0.5
			c-0.03,0.05-0.08,0.11-0.11,0.16c-0.46,0.6-1.23,0.87-1.97,0.68l-7.96-1.94c-0.09-0.03-0.19-0.04-0.28-0.06
			c-0.84-0.08-1.66,0.43-1.95,1.24l-2.79,7.66c-0.34,0.93,0.09,1.95,0.99,2.38l8.15,3.77c0.7,0.32,1.12,1.03,1.08,1.79
			c-0.08,1.67-0.02,3.38,0.16,5.11c0.1,0.91,0.24,1.82,0.42,2.71c0.13,0.72-0.15,1.46-0.74,1.9l-6.89,5.26
			c-0.76,0.57-0.96,1.65-0.44,2.46l4.37,6.88c0.53,0.83,1.59,1.14,2.49,0.7l5.89-2.89c0.79-0.39,1.73-0.19,2.29,0.48
			c2.19,2.64,4.78,4.93,7.68,6.78c0.68,0.43,1.02,1.26,0.82,2.06l-1.76,7.17c-0.24,0.97,0.3,1.95,1.22,2.29l7.64,2.78
			c0.92,0.34,1.94-0.09,2.34-0.96l0.17-0.34l3.15-6.79c0.34-0.72,1.08-1.15,1.88-1.1h0.01c1.92,0.13,3.87,0.1,5.86-0.12
			c1.05-0.11,2.08-0.29,3.12-0.48c0.71-0.15,1.44,0.11,1.88,0.69l4.47,5.87c0.6,0.8,1.73,1,2.58,0.46l6.85-4.35
			c0.2-0.12,0.36-0.29,0.49-0.45c0.42-0.56,0.52-1.34,0.2-1.99l-2.45-4.97c-0.3-0.61-0.24-1.34,0.12-1.89
			c0.1-0.14,0.22-0.29,0.36-0.39c3.38-2.83,6.16-6.3,8.19-10.23c0.33-0.67,1.04-1.04,1.78-1c0.11,0,0.21,0.02,0.32,0.04l6.45,1.58
			c0.93,0.23,1.89-0.27,2.23-1.19l0.07-0.17l2.71-7.47C2190.69,1230.85,2190.25,1229.82,2189.35,1229.4z M2164,1231.87
			c-0.79,2.21-2.78,4.92-4.81,6.67c-0.48,0.41-0.95,0.77-1.4,1.04c-2.12,1.33-4.28,2.21-6.42,2.69
			c-12.21,2.71-23.62-7.55-21.51-20.58c0.22-1.29,0.57-2.63,1.06-3.98c0.96-2.58,3.62-5.93,5.95-7.4c0.24-0.15,0.49-0.31,0.75-0.46
			C2152.88,1200.92,2170.04,1214.98,2164,1231.87z"/></g><g><path class="st19" d="M1881.8,1172.6l-11.81-2.08c-0.98-0.19-1.78-0.9-2.05-1.85c-0.36-1.23-0.78-2.45-1.24-3.65
			c-0.87-2.24-1.86-4.38-3.03-6.39c-0.55-0.94-0.47-2.1,0.2-2.95l7.69-9.89c0.82-1.05,0.7-2.57-0.3-3.49l-8.41-7.79
			c-0.96-0.88-2.4-0.89-3.38-0.06l-8.71,7.57c-0.82,0.75-2.06,0.85-3.05,0.24c-4.17-2.52-8.73-4.39-13.53-5.5
			c-1.15-0.27-1.99-1.33-2.01-2.51l-0.12-7.01c-0.03-1.34-1.05-2.46-2.39-2.59l-11.34-1c-0.23-0.02-0.45-0.02-0.68,0.02
			c-1.05,0.18-1.92,1.01-2.11,2.11l-1.57,8.81l-0.37,2.15c-2.07,0.47-4.16,1.11-6.2,1.89c-2.74,1.06-5.34,2.36-7.75,3.84
			c-0.92,0.56-2.09,0.52-2.93-0.15l-7.97-6.2c-1.09-0.84-2.64-0.72-3.57,0.3l-5.96,6.42l-1.7,1.84c-0.93,1.01-0.97,2.56-0.07,3.59
			l6.32,7.29c0.75,0.83,0.87,2.04,0.31,2.98c-1.63,2.86-2.96,5.88-3.95,9.01c-0.11,0.26-0.18,0.52-0.26,0.78
			c-0.01,0.1-0.05,0.18-0.09,0.26c-0.39,0.98-1.35,1.61-2.4,1.62l-11.4,0.22c-0.12-0.01-0.25,0.01-0.37,0.03
			c-1.16,0.2-2.07,1.16-2.2,2.36l-1.01,11.29c-0.12,1.36,0.81,2.59,2.17,2.83l12.31,2.18c1.04,0.17,1.85,0.98,2.07,2.01
			c0.49,2.28,1.17,4.55,2.04,6.81c0.46,1.2,0.97,2.36,1.51,3.5c0.44,0.92,0.33,2.02-0.3,2.82l-7.4,9.51
			c-0.81,1.04-0.69,2.54,0.29,3.46l8.33,7.69c1,0.93,2.53,0.97,3.59,0.07l6.89-5.99c0.93-0.8,2.26-0.87,3.26-0.18
			c3.88,2.79,8.19,4.93,12.73,6.4c1.08,0.33,1.83,1.33,1.84,2.47l0.2,10.27c0.02,1.37,1.09,2.5,2.46,2.63l11.25,1.02
			c1.35,0.12,2.57-0.82,2.8-2.14l0.1-0.52l1.82-10.24c0.19-1.1,1.03-1.94,2.13-2.15l0.01-0.01c2.62-0.5,5.23-1.24,7.82-2.24
			c1.38-0.53,2.71-1.12,4.02-1.77c0.9-0.46,1.97-0.35,2.78,0.26l8.09,6.3c1.1,0.87,2.69,0.74,3.63-0.29l7.66-8.29
			c0.22-0.24,0.37-0.52,0.49-0.78c0.37-0.9,0.22-1.99-0.44-2.75l-5.06-5.8c-0.62-0.71-0.8-1.71-0.5-2.58
			c0.09-0.23,0.2-0.45,0.34-0.66c3.53-5,6.04-10.65,7.36-16.65c0.21-1.02,1.03-1.79,2.03-1.99c0.14-0.03,0.3-0.04,0.45-0.05
			l9.23-0.17c1.34-0.02,2.44-1.05,2.57-2.39l0.02-0.26l1-11.01C1884.12,1174.08,1883.17,1172.85,1881.8,1172.6z M1848.63,1184.96
			c-0.29,3.24-2,7.58-4.09,10.68c-0.5,0.71-1.01,1.36-1.51,1.9c-2.37,2.54-4.96,4.49-7.67,5.89c-15.45,8-34.43-1.73-36.23-19.98
			c-0.17-1.83-0.18-3.75,0.01-5.74c0.36-3.8,2.76-9.25,5.37-12.05c0.27-0.31,0.55-0.59,0.83-0.89
			C1822.64,1147.32,1850.72,1160.11,1848.63,1184.96z"/></g><path class="st18" d="M2864.22,1285.76c-0.4,1.22-0.81,2.44-1.22,3.67c-3.54,10.39-7.44,20.94-11.71,31.65
		c-0.59,1.49-1.2,2.99-1.81,4.48c-5.19,12.75-10.92,25.73-17.22,38.94c0,0.01,0,0.01-0.01,0.02l-152.97,0.07v-78.82H2864.22z"/><g><path class="st10" d="M2697.85,1293.75H1284.58c-55.55,0-100.75-45.2-100.75-100.75c0-26.9,10.48-52.2,29.51-71.23
			c19.03-19.03,44.32-29.5,71.23-29.5h1413.27c55.55,0,100.74,45.19,100.74,100.74c0,26.9-10.48,52.21-29.5,71.24
			C2750.06,1283.27,2724.76,1293.75,2697.85,1293.75z M1284.58,1100.92c-24.6,0-47.72,9.58-65.12,26.97
			c-17.4,17.4-26.98,40.52-26.98,65.12c0,50.78,41.31,92.09,92.1,92.09h1413.27c24.6,0,47.72-9.58,65.12-26.97
			c17.39-17.4,26.97-40.53,26.97-65.13c0-50.78-41.31-92.08-92.08-92.08H1284.58z"/></g></g><g><path class="st21" d="M503.36,697.72h-93.61c-4.3,0-7.81-3.52-7.81-7.81v-90.35c0-4.3,3.52-7.81,7.81-7.81h93.61
		c4.3,0,7.81,3.52,7.81,7.81v90.35C511.17,694.2,507.66,697.72,503.36,697.72z"/><path class="st22" d="M499.31,693.13h-85.5c-3.93,0-7.14-3.21-7.14-7.14v-82.52c0-3.93,3.21-7.14,7.14-7.14h85.5
		c3.93,0,7.14,3.21,7.14,7.14v82.52C506.44,689.92,503.23,693.13,499.31,693.13z"/><g><g><circle class="st23" cx="456.56" cy="606.01" r="2.26"/><path class="st23" d="M472.55,609.2c0.61-1.09,1.98-1.49,3.08-0.88c1.09,0.61,1.49,1.98,0.88,3.08
				c-0.61,1.09-1.98,1.49-3.08,0.88C472.34,611.67,471.95,610.3,472.55,609.2z"/><path class="st23" d="M488.19,621.63c1.05-0.68,2.45-0.38,3.13,0.67c0.68,1.05,0.38,2.45-0.67,3.13
				c-1.05,0.68-2.45,0.38-3.13-0.67C486.84,623.71,487.14,622.31,488.19,621.63z"/><path class="st23" d="M495.94,640.87c1.25,0,2.26,1.01,2.26,2.26s-1.01,2.26-2.26,2.26c-1.25,0-2.26-1.01-2.26-2.26
				S494.69,640.87,495.94,640.87z"/><path class="st23" d="M491.99,663.19c0.88,0.88,0.88,2.32,0,3.2c-0.88,0.88-2.32,0.88-3.2,0c-0.88-0.88-0.88-2.32,0-3.2
				C489.67,662.31,491.1,662.31,491.99,663.19z"/><path class="st23" d="M477.78,677.43c0.88,0.88,0.88,2.32,0,3.2c-0.88,0.88-2.32,0.88-3.2,0c-0.88-0.88-0.88-2.32,0-3.2
				C475.46,676.55,476.89,676.55,477.78,677.43z"/><path class="st23" d="M454.29,684.78c0-1.25,1.01-2.26,2.26-2.26c1.25,0,2.26,1.01,2.26,2.26c0,1.25-1.01,2.26-2.26,2.26
				C455.31,687.04,454.29,686.03,454.29,684.78z"/></g><g><path class="st23" d="M440.49,609.2c-0.61-1.09-1.98-1.49-3.08-0.88c-1.09,0.61-1.49,1.98-0.88,3.08
				c0.61,1.09,1.98,1.49,3.08,0.88C440.7,611.67,441.1,610.3,440.49,609.2z"/><path class="st23" d="M424.85,621.63c-1.05-0.68-2.45-0.38-3.13,0.67c-0.68,1.05-0.38,2.45,0.67,3.13
				c1.05,0.68,2.45,0.38,3.13-0.67C426.2,623.71,425.9,622.31,424.85,621.63z"/><circle class="st23" cx="417.1" cy="643.13" r="2.26"/><path class="st23" d="M421.05,663.19c-0.88,0.88-0.88,2.32,0,3.2c0.88,0.88,2.32,0.88,3.2,0c0.88-0.88,0.88-2.32,0-3.2
				C423.37,662.31,421.94,662.31,421.05,663.19z"/><path class="st23" d="M435.26,677.43c-0.88,0.88-0.88,2.32,0,3.2c0.88,0.88,2.32,0.88,3.2,0c0.88-0.88,0.88-2.32,0-3.2
				C437.58,676.55,436.15,676.55,435.26,677.43z"/></g></g><g><circle class="st23" cx="458.21" cy="643.13" r="2.26"/><g><rect x="457.9" y="614.86" class="st23" width="0.62" height="28.27"/></g><g><rect x="455.89" y="636.28" transform="matrix(0.7866 -0.6175 0.6175 0.7866 -294.1418 423.3953)" class="st23" width="19.05" height="1.85"/></g></g></g><path class="st24" d="M1535.98,800.95l-1.5-2.64c-3.8-6.66-14.96-5.81-25.09-5.81h-65.3v29.35v125.32h270.14V807.06h-152.87
	C1550.2,807.06,1540.16,808.28,1535.98,800.95z"/><g><g><polygon class="st25" points="1415.17,911.45 1437.31,911.45 1435.36,905.22 1437.31,900.76 1415.17,900.76 		"/><polygon class="st12" points="1484.96,861.1 1507.11,861.1 1505.16,854.87 1507.11,850.42 1484.96,850.42 		"/><polygon class="st25" points="1484.96,850.42 1462.82,850.42 1464.77,856.65 1462.82,861.1 1484.96,861.1 		"/><polygon class="st12" points="1624.71,912.68 1602.57,912.68 1604.52,918.92 1602.57,923.37 1624.71,923.37 		"/></g><path class="st26" d="M1558.79,935.77c3.39-2.2,11.08-7.04,11.42-5.89c0.25,0.83-0.21,2.21-1.16,3.63
		c4.6-1.52,9.24-2.45,20.03,0.06c2.16,0.5,4.09,1.82,5.21,3.73c1.04,1.77,1.37,3.94-1.47,5.56c-5.68,3.24-3.99,1.23-11.9,5.96
		c-7.91,4.73-17.4,5.64-22.91,1.9l-7.52-1.55l-0.46-12.49C1550.04,936.68,1554.38,936.33,1558.79,935.77z"/><path class="st12" d="M1405.09,811.78c-20.73,12.9-42.19-4.63-42.19-4.63s8.22-21.05,3.08-48.81c-0.21-1.13,36.16,13.86,37.25,14.1
		c0.01,0,0.02,0,0.02,0s0.01,0.09,0.03,0.25c0.02,0.18,0.04,0.35,0.07,0.53c0.57,4.89,0.97,9.75,1.23,14.29
		C1405.39,801.07,1405.09,811.78,1405.09,811.78z"/><path class="st27" d="M1404.59,787.51c-16.51-1.49-29.21-10.75-33.42-15.97c-1.28-1.57,31.11,0.82,32.07,0.9c0.01,0,0.02,0,0.02,0
		s0.01,0.09,0.03,0.25c0.02,0.13,0.04,0.31,0.07,0.53C1403.93,778.12,1404.33,782.98,1404.59,787.51z"/><path class="st12" d="M1410.02,770.13c0,0-35.65,15.76-45.13-6.59c-9.47-22.35-20.46-35.38,1.91-46.38
		c22.36-11.01,30.43-4.37,35.41,2.33C1407.18,726.18,1419.05,765.46,1410.02,770.13z"/><path class="st8" d="M1367.36,769.65c-0.45,0.42-8.01,4.39-28.89-23.04c-3.28-4.31-6.83-14.28-2.97-24.41
		c3.86-10.13,22.24-20.97,38.04-27.15c7.42-2.9,14.48-2.34,19.89-0.92c6.66,1.74,10.58,8.73,8.69,15.35
		c-2.99,10.46-10.4,16.89-19.78,16.6c-6.29-0.19-5.89,12.64-5.77,15.7c0.12,3.06-0.1,5.66-8.01,4.39
		c-6.78-1.09-2.96,7.86-0.68,11.89c1.12,1.99,1.75,4.24,1.61,6.52C1369.39,766.36,1368.86,768.24,1367.36,769.65z"/><path class="st28" d="M1312.8,1365.08h-22.98c-4.82,0-10.17-4.82-11.51-13.65c-1.34-8.84-11.24-13.65-13.38-20.88
		c-2.14-7.23,8.84-17.4,8.84-17.4l1.84-2.36l1.91-2.46l18.2,4.28c0,0,0.45,4.33,0.73,9.85c0.19,3.99,0.3,8.59,0.07,12.63
		c-0.54,9.64,2.7,20.02,11.26,21.89C1316.34,1358.87,1312.8,1365.08,1312.8,1365.08z"/><path class="st28" d="M1472.76,1365.08h-60.91c-0.58-0.11-1.02-0.24-1.29-0.38c-4.07-2.04-2.79-17.61-2.3-22.42
		c0.09-0.89,0.16-1.41,0.16-1.41s21.42-17.13,24.36-4.01c0.09,0.41,0.2,0.81,0.32,1.21v0.01c3.72,12.27,20.34,17.85,29.94,19.4
		C1470.37,1358.67,1472.27,1362.95,1472.76,1365.08z"/><path class="st15" d="M1460.48,1013.85c0,0-3.25,40.58-7.08,89.36c-5.2,66.27-11.44,147.66-12.06,163.08
		c-1.07,26.78-5.36,69.61-5.36,69.61s-10.17,10.17-30.52,5.89c0,0-18.13-61.14-23.31-125.84c-0.08-1.06-0.16-2.13-0.24-3.2
		c-4.82-65.86-12.31-204.53-12.31-204.53L1460.48,1013.85z"/><path class="st29" d="M1451.45,1008.22c-8.59,0.52-99.18-2.91-99.2-7.97c-0.08-17.6-3.76-46.08-8.35-80.68
		c-0.84-6.45-1.5-12.85-1.99-19.17c-1.27-16.47-1.32-32.32-0.1-46.65c2.28-26.61,9.2-43.7,20.73-53.71c0,0,10.85,0.89,20.85,2.4
		c11.32,1.7,15.5,0.99,23.28-1.18l13.83,11.91c8.27,7.71,14.9,15.76,17.57,26.9C1438.06,840.07,1452.21,1008.17,1451.45,1008.22z"/><path class="st30" d="M1356.82,886.52c0,0,9.54,30.21,41.36,44.84c31.82,14.63,12.8-27.8,12.8-27.8L1356.82,886.52z"/><path class="st15" d="M1438.06,840.07l-24.74,5.75l-34.05,92.22c-4.89,13.24-16.16,21.42-30.28,21.42l-0.05,2.2l1.68,43.95
		l109.73,9.97c0,0,0.52-55-1.45-72.62C1455.99,916.88,1438.06,840.07,1438.06,840.07z"/><path class="st29" d="M1556.72,942.76c0.78-7.21-2.91-8.55-2.91-8.55s-72.93-16.15-79.1-18.36c-6.17-2.21-57.41-59.81-57.41-59.81
		s-19.57-23.87-36.52-19.42c-14.73,3.87-20.86,15-23.22,25.75c-2.81,12.8-11.63,16.87-0.73,24.15
		c24.47,16.34,87.74,57.71,99.43,61.63c26,8.73,96.95,4.37,96.95,4.37S1556.1,948.42,1556.72,942.76z"/><path class="st17" d="M1387.67,819.12c-5.76-5.35-25.14-19.06-25.14-19.06s0.78-1.3,1.92-2.44c1.12-1.12,2.46-1.93,2.46-1.93
		c2.47-0.52,21.56,13.84,27.92,19.5c7.66,6.82,28.9,28.22,28.9,28.22l-10.42,2.42C1413.31,845.83,1394.45,825.42,1387.67,819.12z"/><g><path class="st15" d="M1411.54,717.36c0,0-14.21,8-19.46,9.34c-1.56,0.4-24.79,6.24-24.79,6.24l-33.27,12.23
			c0,0-11.29-24.3,2.64-43.34l0-0.01c0.35-0.48,0.72-0.96,1.1-1.42c3.84-4.73,9.33-9.08,17.07-12.57
			C1394.07,670.13,1411.1,715.9,1411.54,717.36z"/><g><path class="st17" d="M1392.41,725.89l-6.34,2.03c-6.28-5.8-29.24-25.7-49.66-25.59c0.09-0.2,0.17-0.36,0.25-0.5l0-0.01
				c0.27-0.48,0.51-0.73,0.88-1.44c0.07,0,0.14,0.01,0.21,0.02C1364.18,701.91,1387.05,720.7,1392.41,725.89z"/></g><path class="st15" d="M1367.29,732.93c0,0-3.52,5.79-3.82,10.81c-0.29,5.01-22.08,11.91-24.07,9.68
			c-1.99-2.22-5.38-8.27-5.38-8.27L1367.29,732.93z"/><path class="st17" d="M1367.29,732.93c0,0,41.24-6.62,58.25-19.88c1.3-1.01,0.67-3.09-0.97-3.19c-2.95-0.18-7.89-0.09-15.87,1.05
			C1408.7,710.91,1396.18,725.76,1367.29,732.93z"/></g><path class="st17" d="M1448.36,1011.14c0,0,2.11,25.32-9.61,72.83c-8.59,34.86-56.6,131.98-56.6,131.98
		c-0.08-1.06-0.16-2.13-0.24-3.2c-4.82-65.86-12.31-204.53-12.31-204.53L1448.36,1011.14z"/><path class="st15" d="M1448.36,1011.14c0,0-61.36,154.49-99.91,223.56c-38.55,69.07-50.6,88.34-50.6,88.34s-22.09-8.83-24.09-14.86
		c0,0,14.74-133.34,40.56-165.85c14.59-18.37,31.72-73.49,32.53-92.76c0.8-19.28,2.95-65.45,2.95-65.45L1448.36,1011.14z"/></g><g class="st31"><path class="st2" d="M2368.02,100.83c5.5,1.84,10.98,3.76,16.44,5.77l-35.22-0.15h-0.01l-9.27-0.03h-0.01l-108.2-0.48l-9.29-0.03
		h-0.01l-108.21-0.48l-9.29-0.03h-0.01l-108.21-0.48l-9.29-0.03h-0.01l-108.21-0.48l-9.29-0.03h-0.01l-108.21-0.48l-9.29-0.03h-0.01
		l-108.2-0.48l-9.29-0.03h-0.01l-108.21-0.48l-9.31-0.04h-0.01l-108.2-0.47l-9.31-0.04h-0.01l-108.2-0.47l-9.31-0.04h-0.01
		l-108.18-0.47l-9.31-0.04h-0.01l-108.2-0.47l-9.31-0.04h-0.01l-108.2-0.47l-9.31-0.04h-0.01l-26.25-0.11
		c2.33-1.92,4.67-3.82,7.06-5.67h0.01l19.54,0.08h0.01l117.49,0.53h0.03l117.48,0.52h0.03l117.47,0.52h0.03l117.48,0.52h0.03
		l117.48,0.52h0.03l117.48,0.52h0.03l117.47,0.52h0.03l117.48,0.52h0.03l117.48,0.52h0.03l117.48,0.52h0.03l117.48,0.52h0.03
		l117.48,0.52L2368.02,100.83z"/><path class="st2" d="M2483.72,156.17c2.68,1.89,5.3,3.81,7.87,5.74l-1640.66-7.2c1.45-1.92,2.93-3.82,4.44-5.68l33.93,0.14
		l9.31,0.04l108.21,0.47l9.29,0.04l108.21,0.47h0.01l9.29,0.04l108.21,0.47h0.01l9.29,0.04l108.21,0.47h0.01l9.29,0.04h0.01
		l108.2,0.47h0.01l9.3,0.04h0.01l108.18,0.47h0.01l9.29,0.04h0.01l108.2,0.47h0.01l9.3,0.04h0.01l108.2,0.47h0.01l9.29,0.04h0.01
		l108.2,0.47h0.01l9.29,0.04h0.01l108.18,0.47h0.01l9.29,0.04h0.01l108.21,0.48h0.01l9.28,0.03h0.01l108.21,0.48h0.01l9.28,0.03
		h0.01l108.21,0.48h0.01l9.28,0.03h0.01L2483.72,156.17z"/><g><g><path class="st2" d="M898.64,149.22l-2.7,4.2l-6.63-4.26l-22.07-14.18c1.13-1.26,2.26-2.51,3.4-3.75l27.97,17.97L898.64,149.22z"/></g><g><rect x="969.32" y="73.14" transform="matrix(0.5405 -0.8413 0.8413 0.5405 342.0244 874.7015)" class="st2" width="4.99" height="102.17"/></g><g><rect x="1086.83" y="73.65" transform="matrix(0.5405 -0.8413 0.8413 0.5405 395.5844 973.8034)" class="st2" width="4.99" height="102.17"/></g><g><rect x="1204.34" y="74.17" transform="matrix(0.5405 -0.8413 0.8413 0.5405 449.1443 1072.9055)" class="st2" width="4.99" height="102.17"/></g><g><rect x="1321.85" y="74.69" transform="matrix(0.5405 -0.8413 0.8413 0.5405 502.7053 1172.0084)" class="st2" width="4.99" height="102.17"/></g><g><rect x="1439.35" y="75.2" transform="matrix(0.5405 -0.8413 0.8413 0.5405 556.2628 1271.1084)" class="st2" width="4.99" height="102.17"/></g><g><rect x="1556.86" y="75.72" transform="matrix(0.5405 -0.8413 0.8413 0.5405 609.8254 1370.2126)" class="st2" width="4.99" height="102.17"/></g><g><rect x="1674.37" y="76.23" transform="matrix(0.5405 -0.8413 0.8413 0.5405 663.3854 1469.3147)" class="st2" width="4.99" height="102.17"/></g><g><rect x="1791.88" y="76.75" transform="matrix(0.5405 -0.8413 0.8413 0.5405 716.9441 1568.4156)" class="st2" width="4.99" height="102.17"/></g><g><rect x="1909.39" y="77.27" transform="matrix(0.5405 -0.8413 0.8413 0.5405 770.4979 1667.5132)" class="st2" width="4.99" height="102.17"/></g><g><rect x="2026.9" y="77.78" transform="matrix(0.5405 -0.8413 0.8413 0.5405 824.0587 1766.6158)" class="st2" width="4.99" height="102.17"/></g><g><rect x="2144.41" y="78.3" transform="matrix(0.5405 -0.8413 0.8413 0.5405 877.6185 1865.7178)" class="st2" width="4.99" height="102.17"/></g><g><rect x="2261.92" y="78.82" transform="matrix(0.5405 -0.8413 0.8413 0.5405 931.1685 1964.8125)" class="st2" width="4.99" height="102.17"/></g><g><rect x="2379.43" y="79.33" transform="matrix(0.5405 -0.8413 0.8413 0.5405 984.7377 2063.9214)" class="st2" width="4.99" height="102.17"/></g></g></g><g id="P297LW_1_"><path class="st12" d="M2275.9,836.94c0,0-8.94,50.86-18.72,103.98c-10.62,57.75-22.24,118.18-24.43,118.94
		c-4.21,1.45-3.87-7.74-6.76-14.75c-2.32-5.64-9.39-53.92-7.07-84.04c0.56-7.35,2.45-97.96,15.02-108.66
		S2275.9,836.94,2275.9,836.94z"/><path class="st12" d="M2223.24,1031.62c0,0,2.18,8.32-0.98,16.47c-3.16,8.15-3.83,10.48,2.02,15.05s12.17,11,16.56,9.1
		c4.39-1.9,1.67-39.21,1.67-39.21L2223.24,1031.62z"/><path class="st8" d="M2235.39,1365.08c5.43-3.31,2.34-28.02,2.34-28.02s-25.28-20.23-28.76-4.74
		c-3.48,15.49-24.02,22.44-35.71,24.33c-8.07,1.31-10.57,5.78-11.35,8.42H2235.39z"/><path class="st8" d="M2347.66,1365.08c5.43-3.31,2.34-28.02,2.34-28.02s-25.28-20.23-28.76-4.74
		c-3.48,15.49-24.02,22.44-35.71,24.33c-8.07,1.31-10.57,5.78-11.35,8.42H2347.66z"/><path class="st15" d="M2312.52,1078.32c-9,38.02-20.33,81.44-24.76,105.92c-0.52,2.84-0.94,5.42-1.25,7.7
		c-0.31,2.29-0.52,4.29-0.61,5.95c-2.35,45.85-38.59,150.67-45.07,153.12c-10.03,3.78-25.82-4.26-34.09-6.89
		c-3.42-1.1-5.74-4.55-4.97-8.06c17.95-82.5,29.01-200.58,31.41-270.92c1.21-35.43,2.82-60.63,2.82-60.63s88.39-23.58,88.92,6.25
		C2325.12,1022.32,2319.53,1048.68,2312.52,1078.32z"/><path class="st17" d="M2312.52,1078.32c-9,38.02-20.33,81.44-24.76,105.92c-0.52,2.84-3.23,26.89-3.54,29.18l-15.47-175.81
		l21.94,2.02L2312.52,1078.32z"/><path class="st15" d="M2277.73,1021l31.19,325.82c0,0,23.09,7.49,43.94,1.72c0,0,12.12-178.14,10.98-221.68
		c-1.14-43.54,9.82-116.52-2.5-124.57C2349.02,994.24,2277.73,1021,2277.73,1021z"/><path class="st29" d="M2360.73,933.88c0.34,3.72,1.76,73.17,1.85,75.78c0.11,2.88-7.75,8.6-35.49,12.72
		c-9.95,1.48-21.68,2.49-35.17,2.65c-34.59,0.38-47.81-14.16-47.81-14.16c-2.36,0.04,2.63-16.87,3.43-126.65
		c-0.59,0-1.24,0.11-1.81-0.11c-12.26-4.76-23.67-14.71-23.67-14.71s13.89-38.6,27.03-58.26c3.2-4.8,11.83-8.56,23.32-11.02
		c3.02-0.65,6.24-1.21,9.61-1.67c15.66-2.14,34.59-2.21,52.12,0.33c3.05,0.43,6.06,0.94,9,1.55c12.98,2.63,24.67,6.86,32.96,12.89
		c12.21,8.88,21.31,54.32,21.31,54.32s-11.51,13.06-37.4,19.42C2358.65,913.11,2359.2,916.66,2360.73,933.88z"/><path class="st15" d="M2236.01,1004.51l10.56-131.53c0.61-7.57,7.1-13.3,14.69-12.96l71.93,2.82c5.92,0.23,10.7,4.94,11.01,10.86
		c0.88,17.28,4.18,50.83,16.54,60.19l6.52,95.22l-80.39,72.78c0,0-9.13-53.34-21.69-68.16
		C2258.15,1025.43,2236.01,1004.51,2236.01,1004.51z"/><g><path class="st15" d="M2343.15,800.33l-8.68,67.21l-9.02-1.43l8.7-67.33C2337.2,799.21,2340.21,799.72,2343.15,800.33z"/></g><g><path class="st15" d="M2282.03,798.45l-11.14,60.3l-0.93,5.06l-1-0.23l-7.93-1.78l11.39-61.68
			C2275.43,799.47,2278.66,798.91,2282.03,798.45z"/></g><path class="st12" d="M2397.42,939.22c0,0-5.4,16.41-74.82,39.11c0,0-0.79-18.54,3.43-21.02c13.05-7.66,44.14-30.52,45.21-34.54
		c0.71-2.67-6.37-22.86-15.33-43.16c16.46-1.83,27.06-3.31,39.19-9.81C2399.61,901.71,2405.83,924.05,2397.42,939.22z"/><path class="st12" d="M2314.69,958.19c0,0-5.79-4.43-10.24-5.08c-4.45-0.66-11.94-3.49-10.73-0.86c1.22,2.63,9.42,6.78,9.42,6.78
		L2314.69,958.19z"/><g><path class="st32" d="M2303.58,987.45l-22.62,2.76c-2.5,0.31-4.86-1.23-5.58-3.64l-15.48-51.33c-0.93-3.08,1.14-6.25,4.33-6.63
			l22.62-2.76c2.5-0.31,4.86,1.23,5.58,3.64l15.48,51.33C2308.84,983.89,2306.77,987.06,2303.58,987.45z"/><path class="st33" d="M2295.57,988.43l-22.62,2.76c-2.5,0.3-4.86-1.23-5.58-3.65l-15.48-51.33c-0.93-3.08,1.14-6.25,4.33-6.63
			l22.62-2.76c2.5-0.3,4.86,1.23,5.58,3.65l15.48,51.33C2300.83,984.87,2298.76,988.04,2295.57,988.43z"/><path class="st33" d="M2279.58,936.7L2279.58,936.7c-0.66,0.08-1.37-0.38-1.59-1.02l-15.16-45.03c-0.22-0.64,0.15-1.23,0.8-1.31
			l0,0c0.66-0.08,1.37,0.38,1.59,1.02l15.16,45.03C2280.6,936.03,2280.24,936.62,2279.58,936.7z"/></g><path class="st12" d="M2326.03,957.3c0,0-4.03,2.49-6.89,1.74c-2.37-0.62-4.45-0.85-7.18-2.71c-2.88-1.96-9.26,0.63-11.15,1.89
		c-5.28,3.52-23.08,3.38-23.08,6.89c0,3.52,7.75,13.4,17.13,16.33c9.38,2.93,27.75-3.13,27.75-3.13L2326.03,957.3z"/><path class="st12" d="M2326.25,797.17c0.38,10.45-8.88,15.54-22.76,13.55c-13.88-1.98-14.16-12.75-14.16-12.75l0.34-10.42
		l0.4-12.33l0.36-11.02l33.6,4.55c-0.11,0.83-0.08,2.78,0.04,5.32v0.01C2324.39,780.68,2325.34,791.34,2326.25,797.17z"/><path class="st27" d="M2324.09,774.07c0,0,0,0-0.01,0.01c-0.32,0.45-7.99,10.92-34.4,13.46l0.4-12.33l34.01-1.14H2324.09z"/><path class="st12" d="M2283.6,781.03c0,0,41.34,8.35,46.15-17.47c4.8-25.83,13.38-42.14-12.82-48.57
		c-26.19-6.42-33.17,2.47-36.87,10.7C2276.36,733.92,2272.97,778.19,2283.6,781.03z"/><path class="st32" d="M2327.85,769.29c0,0,14.38,3.24,15.74-22.93c0.52-10.08,3.03-45.45-25.75-44.24
		c-28.79,1.21-41.9,18.04-44.52,20.99c-19.65,22.17,28.16,5.67,34.52,10.82c6.36,5.15,0.3,13.63,7.58,16.67
		c7.27,3.03,13.03,3.03,11.82,9.7C2326.01,766.97,2327.85,769.29,2327.85,769.29z"/><path class="st15" d="M2269.46,723.63c0,0,15.4,5.36,20.8,5.75c1.61,0.12,25.5,1.76,25.5,1.76l34.9,6.16
		c0,0,6.81-25.91-10.26-42.19l-0.01-0.01c-0.43-0.41-0.87-0.81-1.33-1.21c-4.61-3.98-10.79-7.29-19.03-9.36
		C2278.31,674.06,2269.64,722.12,2269.46,723.63z"/><g><path class="st17" d="M2289.8,728.65l6.59,0.88c5.16-6.82,24.24-30.46,44.35-33.97c-0.12-0.18-0.23-0.33-0.34-0.45l-0.01-0.01
			c-0.35-0.42-0.63-0.63-1.13-1.26c-0.07,0.02-0.13,0.03-0.21,0.05C2313.34,700.06,2294.15,722.59,2289.8,728.65z"/></g><path class="st15" d="M2315.76,731.14c0,0,4.49,5.08,5.67,9.96c1.17,4.89,23.84,7.82,25.4,5.28c1.56-2.54,3.84-9.09,3.84-9.09
		L2315.76,731.14z"/><path class="st17" d="M2315.76,731.14c0,0-41.76,0.78-60.84-9.27c-1.45-0.77-1.21-2.93,0.39-3.32c2.87-0.7,7.75-1.48,15.81-1.78
		C2271.11,716.78,2286.06,729.19,2315.76,731.14z"/></g><rect x="163.85" y="1048.76" class="st34" width="446.27" height="324.6"/><g><polygon class="st13" points="666.65,681.03 605.79,681.03 605.79,1365.08 708.98,1365.08 708.98,1027.7 666.65,854.36 	"/><g><rect x="666.65" y="681.03" class="st35" width="337.34" height="173.34"/><rect x="708.98" y="1027.7" class="st35" width="337.34" height="337.39"/><polygon class="st36" points="1046.32,1027.7 708.98,1027.7 666.65,854.36 1003.99,854.36 		"/><g><g><g><polygon class="st37" points="714.55,888.79 705.73,888.79 702.36,876.23 711.18,876.23 					"/><polygon class="st37" points="734.61,888.79 725.79,888.79 722.42,876.23 731.24,876.23 					"/><polygon class="st37" points="754.68,888.79 745.86,888.79 742.49,876.23 751.31,876.23 					"/><polygon class="st37" points="774.74,888.79 765.92,888.79 762.55,876.23 771.37,876.23 					"/><polygon class="st37" points="794.81,888.79 785.99,888.79 782.62,876.23 791.44,876.23 					"/><polygon class="st37" points="814.88,888.79 806.06,888.79 802.68,876.23 811.5,876.23 					"/></g><g><polygon class="st37" points="720.85,912.24 712.03,912.24 708.65,899.68 717.47,899.68 					"/><polygon class="st37" points="740.91,912.24 732.09,912.24 728.72,899.68 737.54,899.68 					"/><polygon class="st37" points="760.98,912.24 752.16,912.24 748.78,899.68 757.6,899.68 					"/><polygon class="st37" points="781.04,912.24 772.22,912.24 768.85,899.68 777.67,899.68 					"/><polygon class="st37" points="801.11,912.24 792.29,912.24 788.91,899.68 797.73,899.68 					"/><polygon class="st37" points="821.17,912.24 812.35,912.24 808.98,899.68 817.8,899.68 					"/></g></g><g><g><polygon class="st37" points="727.37,936.53 718.55,936.53 715.18,923.96 724,923.96 					"/><polygon class="st37" points="747.43,936.53 738.61,936.53 735.24,923.96 744.06,923.96 					"/><polygon class="st37" points="767.5,936.53 758.68,936.53 755.31,923.96 764.13,923.96 					"/><polygon class="st37" points="787.56,936.53 778.74,936.53 775.37,923.96 784.19,923.96 					"/><polygon class="st37" points="807.63,936.53 798.81,936.53 795.44,923.96 804.26,923.96 					"/><polygon class="st37" points="827.69,936.53 818.88,936.53 815.5,923.96 824.32,923.96 					"/></g><g><polygon class="st37" points="733.67,959.97 724.85,959.97 721.47,947.41 730.29,947.41 					"/><polygon class="st37" points="753.73,959.97 744.91,959.97 741.54,947.41 750.36,947.41 					"/><polygon class="st37" points="773.8,959.97 764.98,959.97 761.6,947.41 770.42,947.41 					"/><polygon class="st37" points="793.86,959.97 785.04,959.97 781.67,947.41 790.49,947.41 					"/><polygon class="st37" points="813.93,959.97 805.11,959.97 801.73,947.41 810.55,947.41 					"/><polygon class="st37" points="833.99,959.97 825.17,959.97 821.8,947.41 830.62,947.41 					"/></g></g></g><g><g><g><polygon class="st37" points="854.19,888.79 845.37,888.79 842,876.23 850.82,876.23 					"/><polygon class="st37" points="874.26,888.79 865.44,888.79 862.06,876.23 870.88,876.23 					"/><polygon class="st37" points="894.32,888.79 885.5,888.79 882.13,876.23 890.95,876.23 					"/><polygon class="st37" points="914.39,888.79 905.57,888.79 902.19,876.23 911.01,876.23 					"/><polygon class="st37" points="934.45,888.79 925.63,888.79 922.26,876.23 931.08,876.23 					"/><polygon class="st37" points="954.52,888.79 945.7,888.79 942.32,876.23 951.14,876.23 					"/></g><g><polygon class="st37" points="860.49,912.24 851.67,912.24 848.3,899.68 857.12,899.68 					"/><polygon class="st37" points="880.55,912.24 871.73,912.24 868.36,899.68 877.18,899.68 					"/><polygon class="st37" points="900.62,912.24 891.8,912.24 888.43,899.68 897.25,899.68 					"/><polygon class="st37" points="920.68,912.24 911.86,912.24 908.49,899.68 917.31,899.68 					"/><polygon class="st37" points="940.75,912.24 931.93,912.24 928.56,899.68 937.38,899.68 					"/><polygon class="st37" points="960.81,912.24 951.99,912.24 948.62,899.68 957.44,899.68 					"/></g></g><g><g><polygon class="st37" points="867.01,936.53 858.19,936.53 854.82,923.96 863.64,923.96 					"/><polygon class="st37" points="887.08,936.53 878.26,936.53 874.88,923.96 883.7,923.96 					"/><polygon class="st37" points="907.14,936.53 898.32,936.53 894.95,923.96 903.77,923.96 					"/><polygon class="st37" points="927.21,936.53 918.39,936.53 915.01,923.96 923.83,923.96 					"/><polygon class="st37" points="947.27,936.53 938.45,936.53 935.08,923.96 943.9,923.96 					"/><polygon class="st37" points="967.34,936.53 958.52,936.53 955.14,923.96 963.96,923.96 					"/></g><g><polygon class="st37" points="873.31,959.97 864.49,959.97 861.11,947.41 869.93,947.41 					"/><polygon class="st37" points="893.37,959.97 884.55,959.97 881.18,947.41 890,947.41 					"/><polygon class="st37" points="913.44,959.97 904.62,959.97 901.25,947.41 910.07,947.41 					"/><polygon class="st37" points="933.5,959.97 924.68,959.97 921.31,947.41 930.13,947.41 					"/><polygon class="st37" points="953.57,959.97 944.75,959.97 941.38,947.41 950.2,947.41 					"/><polygon class="st37" points="973.63,959.97 964.81,959.97 961.44,947.41 970.26,947.41 					"/></g></g></g><rect x="692.54" y="736.38" class="st10" width="125.24" height="100.91"/><rect x="808.98" y="736.38" class="st38" width="8.95" height="100.91"/><g><path class="st37" d="M1034.39,1330.63H732.68v-124.07h301.71V1330.63z M734.65,1328.66h297.76v-120.13H734.65V1328.66z"/></g><path class="st6" d="M894.71,710.01c0,3.76-2.14,6.81-4.78,6.81c-2.64,0-4.78-3.05-4.78-6.81c0-3.76,2.14-6.81,4.78-6.81
			C892.57,703.2,894.71,706.24,894.71,710.01z"/><path class="st15" d="M917.07,710.01c0,3.76-2.14,6.81-4.78,6.81c-2.64,0-4.78-3.05-4.78-6.81c0-3.76,2.14-6.81,4.78-6.81
			C914.93,703.2,917.07,706.24,917.07,710.01z"/><path class="st38" d="M939.43,710.01c0,3.76-2.14,6.81-4.78,6.81c-2.64,0-4.78-3.05-4.78-6.81c0-3.76,2.14-6.81,4.78-6.81
			C937.29,703.2,939.43,706.24,939.43,710.01z"/><path class="st6" d="M961.8,710.01c0,3.76-2.14,6.81-4.78,6.81c-2.64,0-4.78-3.05-4.78-6.81c0-3.76,2.14-6.81,4.78-6.81
			C959.66,703.2,961.8,706.24,961.8,710.01z"/><path class="st15" d="M984.16,710.01c0,3.76-2.14,6.81-4.78,6.81c-2.64,0-4.78-3.05-4.78-6.81c0-3.76,2.14-6.81,4.78-6.81
			C982.02,703.2,984.16,706.24,984.16,710.01z"/><g><path class="st37" d="M985.14,818.81h-99.05V735.4h99.05V818.81z M888.06,816.84h95.11v-79.47h-95.11V816.84z"/></g><rect x="726.87" y="747.17" class="st39" width="15.29" height="2.83"/><g><rect x="697.17" y="747.17" class="st39" width="24.1" height="2.83"/><rect x="697.17" y="754.7" class="st39" width="36.46" height="2.83"/><rect x="738.55" y="754.7" class="st39" width="24.18" height="2.83"/><rect x="745.46" y="747.17" class="st39" width="26.4" height="2.83"/></g><g><rect x="697.17" y="767.7" class="st39" width="24.1" height="2.83"/><rect x="697.17" y="775.23" class="st39" width="36.46" height="2.83"/><rect x="738.55" y="775.23" class="st39" width="24.18" height="2.83"/><rect x="726.87" y="767.7" class="st39" width="15.29" height="2.83"/><rect x="745.46" y="767.7" class="st39" width="26.4" height="2.83"/></g><g><rect x="697.17" y="790.31" class="st39" width="24.1" height="2.83"/><rect x="697.17" y="797.84" class="st39" width="36.46" height="2.83"/><rect x="738.55" y="797.84" class="st39" width="24.18" height="2.83"/><rect x="726.87" y="790.31" class="st39" width="15.29" height="2.83"/><rect x="745.46" y="790.31" class="st39" width="26.4" height="2.83"/></g><g><rect x="697.17" y="812.08" class="st39" width="24.1" height="2.83"/><rect x="697.17" y="819.62" class="st39" width="36.46" height="2.83"/><rect x="738.55" y="819.62" class="st39" width="24.18" height="2.83"/><rect x="726.87" y="812.08" class="st39" width="15.29" height="2.83"/><rect x="745.46" y="812.08" class="st39" width="26.4" height="2.83"/></g></g></g><rect x="152.05" y="1048.76" class="st35" width="556.94" height="19.82"/><g><g><g><path class="st40" d="M279.96,912.59l-10.69,127.13c0,0-1.12,7.71,4.61,7.72c9.43,0.02,46.91,0,46.91,0s-7.09-1.6-7.01-5.21
				c0.1-4.26,12.5-130.84,12.5-130.84L279.96,912.59z"/><path class="st15" d="M323.83,1045.14c-1.85,0.01-37.66,0.12-46.84,0c-4-0.05-4.7-3.56-4.73-5.83c-0.02-1.09,0.12-1.89,0.12-1.89
				l0.28-3.3l0.71-8.42l0.63-7.44l0.8-9.56l0.68-8.07l7.6-90.34l46.32-1.2c0,0-5.22,52.98-8.91,91.54c-0.41,4.3-0.8,8.42-1.17,12.26
				c-0.12,1.23-0.23,2.43-0.34,3.6c-0.34,3.65-0.66,7-0.93,9.96c-0.14,1.56-0.28,3.01-0.4,4.34c-0.47,5.2-0.75,8.52-0.75,9.15
				c0,0.37,0.03,0.71,0.09,1.03C317.75,1045,323.14,1045.14,323.83,1045.14z"/><polygon class="st15" points="167.46,843.41 193.51,948.02 197.07,962.35 209.2,1011.08 434.57,1011.08 389.86,843.41 			"/><polygon class="st40" points="167.46,843.41 163.85,844.61 204.41,1014.72 209.2,1011.08 			"/><polygon class="st17" points="204.41,1014.72 428.38,1014.72 434.57,1011.08 209.2,1011.08 			"/><rect x="283.06" y="1045.19" transform="matrix(-1 -1.224647e-16 1.224647e-16 -1 614.6132 2092.6794)" class="st41" width="48.49" height="2.3"/><polygon class="st41" points="423.65,980.18 387.08,845.62 167.1,845.62 167.1,843.41 389.86,843.41 426.3,979.88 			"/><polygon class="st17" points="319.23,1014.72 318.98,1016.48 273.37,1025.69 274,1018.25 274.29,1014.72 			"/><path class="st42" d="M323.83,1045.14c-1.85,0.01-37.66,0.12-46.84,0c-4-0.05-4.7-3.56-4.73-5.83l45.39-8.54
				c-0.47,5.2-0.75,8.52-0.75,9.15c0,0.37,0.03,0.71,0.09,1.03C317.75,1045,323.14,1045.14,323.83,1045.14z"/><polygon class="st17" points="308.2,977.13 209.2,1011.08 197.07,962.35 			"/><polygon class="st37" points="167.46,843.41 389.86,843.41 425.94,978.16 199.86,978.16 			"/></g><polygon class="st43" points="415.45,972.32 207.22,972.32 183.64,878.38 181.83,871.18 180.29,865.03 176.67,850.62 
			381.9,850.62 385.87,865.03 387.57,871.18 389.55,878.38 		"/><g><polygon class="st44" points="361.87,857.19 352.51,857.32 352.3,856.51 361.66,856.38 			"/><polygon class="st44" points="359.8,859.44 353.07,859.53 352.86,858.72 359.6,858.62 			"/><polygon class="st44" points="367.54,859.33 360.81,859.42 360.6,858.61 367.33,858.51 			"/><polygon class="st44" points="373.13,859.25 368.96,859.31 368.75,858.49 372.93,858.43 			"/><polygon class="st44" points="369.38,857.09 363.61,857.17 363.4,856.35 369.18,856.27 			"/><polygon class="st44" points="377.27,856.98 371.5,857.06 371.29,856.24 377.07,856.16 			"/></g><g><polygon class="st44" points="386.85,963.96 377.48,964.1 377.27,963.28 386.64,963.15 			"/><polygon class="st44" points="384.78,966.21 378.05,966.3 377.84,965.49 384.57,965.39 			"/><polygon class="st44" points="392.51,966.1 385.78,966.19 385.57,965.38 392.3,965.29 			"/><polygon class="st44" points="398.11,966.02 393.94,966.08 393.73,965.26 397.9,965.21 			"/><polygon class="st44" points="394.36,963.86 388.58,963.94 388.37,963.13 394.15,963.04 			"/><polygon class="st44" points="402.25,963.75 396.47,963.83 396.26,963.02 402.04,962.93 			"/></g><g><g><polygon class="st44" points="215.58,863.4 193.64,863.34 193.2,861.5 215.15,861.55 				"/><polygon class="st44" points="210.59,868.38 194.81,868.34 194.38,866.5 210.16,866.54 				"/><polygon class="st44" points="228.72,868.42 212.94,868.38 212.51,866.54 228.29,866.58 				"/><polygon class="st44" points="241.84,868.45 232.06,868.43 231.62,866.59 241.41,866.61 				"/><polygon class="st44" points="233.2,863.44 219.66,863.41 219.22,861.56 232.76,861.6 				"/><polygon class="st44" points="251.69,863.49 238.15,863.45 237.72,861.61 251.26,861.64 				"/></g><g><g><polygon class="st44" points="216,879.62 197.46,879.58 197.02,877.74 215.56,877.78 					"/><polygon class="st44" points="229.72,879.66 219.36,879.63 218.93,877.79 229.29,877.82 					"/><polygon class="st44" points="250.29,879.71 234.42,879.67 233.98,877.83 249.86,877.87 					"/></g><g><polygon class="st44" points="220.55,884.48 198.6,884.42 198.16,882.58 220.11,882.64 					"/><polygon class="st44" points="215.55,889.46 199.77,889.42 199.34,887.58 215.12,887.62 					"/><polygon class="st44" points="233.68,889.5 217.9,889.46 217.47,887.62 233.25,887.66 					"/><polygon class="st44" points="246.8,889.54 237.02,889.51 236.59,887.67 246.37,887.69 					"/><polygon class="st44" points="238.16,884.52 224.62,884.49 224.18,882.65 237.73,882.68 					"/><polygon class="st44" points="256.66,884.57 243.11,884.53 242.68,882.69 256.22,882.72 					"/></g></g><g><g><polygon class="st45" points="221.43,902.7 202.89,902.66 202.46,900.81 221,900.86 					"/><polygon class="st45" points="235.15,902.74 224.8,902.71 224.36,900.87 234.72,900.89 					"/><polygon class="st45" points="255.73,902.79 239.85,902.75 239.42,900.91 255.29,900.94 					"/></g><g><polygon class="st45" points="225.98,907.56 204.03,907.5 203.6,905.66 225.55,905.71 					"/><polygon class="st45" points="220.99,912.54 205.21,912.5 204.77,910.66 220.55,910.69 					"/><polygon class="st45" points="239.12,912.58 223.34,912.54 222.9,910.7 238.68,910.74 					"/><polygon class="st45" points="252.23,912.61 242.45,912.59 242.02,910.75 251.8,910.77 					"/><polygon class="st45" points="243.59,907.6 230.05,907.57 229.62,905.72 243.16,905.76 					"/><polygon class="st45" points="262.09,907.64 248.55,907.61 248.11,905.77 261.65,905.8 					"/></g></g><g><g><polygon class="st44" points="226.63,924.78 208.09,924.74 207.65,922.89 226.19,922.94 					"/><polygon class="st44" points="240.35,924.81 229.99,924.79 229.56,922.95 239.91,922.97 					"/><polygon class="st44" points="260.92,924.86 245.05,924.83 244.61,922.98 260.49,923.02 					"/></g><g><polygon class="st44" points="231.18,929.63 209.23,929.58 208.79,927.74 230.74,927.79 					"/><polygon class="st44" points="226.18,934.62 210.4,934.58 209.97,932.73 225.75,932.77 					"/><polygon class="st44" points="244.31,934.66 228.53,934.62 228.1,932.78 243.88,932.82 					"/><polygon class="st44" points="257.43,934.69 247.65,934.67 247.22,932.82 257,932.85 					"/><polygon class="st44" points="248.79,929.68 235.25,929.64 234.81,927.8 248.35,927.83 					"/><polygon class="st44" points="267.28,929.72 253.74,929.69 253.31,927.85 266.85,927.88 					"/></g></g><g><g><polygon class="st45" points="231.96,947.45 213.42,947.41 212.99,945.57 231.53,945.61 					"/><polygon class="st45" points="245.68,947.49 235.33,947.46 234.9,945.62 245.25,945.64 					"/><polygon class="st45" points="266.26,947.54 250.38,947.5 249.95,945.66 265.83,945.7 					"/></g><g><polygon class="st45" points="236.51,952.31 214.56,952.25 214.13,950.41 236.08,950.46 					"/><polygon class="st45" points="231.52,957.29 215.74,957.25 215.31,955.41 231.09,955.45 					"/><polygon class="st45" points="249.65,957.33 233.87,957.29 233.44,955.45 249.22,955.49 					"/><polygon class="st45" points="262.77,957.37 252.99,957.34 252.55,955.5 262.33,955.52 					"/><polygon class="st45" points="254.12,952.35 240.58,952.32 240.15,950.47 253.69,950.51 					"/><polygon class="st45" points="272.62,952.4 259.08,952.36 258.65,950.52 272.19,950.55 					"/></g></g><g><polygon class="st15" points="311.87,864.94 289.92,864.88 289.48,863.04 311.43,863.09 				"/><polygon class="st15" points="306.87,869.92 291.09,869.88 290.66,868.04 306.44,868.08 				"/><polygon class="st15" points="325,869.96 309.22,869.92 308.79,868.08 324.57,868.12 				"/><polygon class="st15" points="338.12,869.99 328.34,869.97 327.91,868.13 337.69,868.15 				"/><polygon class="st15" points="329.48,864.98 315.94,864.95 315.5,863.1 329.05,863.14 				"/><polygon class="st15" points="347.98,865.03 334.44,864.99 334,863.15 347.54,863.18 				"/></g><g><g><polygon class="st15" points="312.28,881.16 293.74,881.12 293.31,879.28 311.85,879.32 					"/><polygon class="st15" points="326,881.2 315.65,881.17 315.21,879.33 325.57,879.36 					"/><polygon class="st15" points="346.58,881.25 330.7,881.21 330.27,879.37 346.14,879.41 					"/></g><g><polygon class="st15" points="316.83,886.02 294.88,885.96 294.45,884.12 316.4,884.18 					"/><polygon class="st15" points="311.84,891 296.06,890.96 295.62,889.12 311.4,889.16 					"/><polygon class="st15" points="329.97,891.04 314.19,891 313.75,889.16 329.53,889.2 					"/><polygon class="st15" points="343.08,891.08 333.3,891.05 332.87,889.21 342.65,889.23 					"/><polygon class="st15" points="334.44,886.06 320.9,886.03 320.47,884.19 334.01,884.22 					"/><polygon class="st15" points="352.94,886.09 339.4,886.09 338.96,884.25 352.5,884.25 					"/></g></g><g><g><polygon class="st44" points="317.71,904.24 299.17,904.2 298.74,902.35 317.28,902.4 					"/><polygon class="st44" points="331.43,904.28 321.08,904.25 320.64,902.41 331,902.43 					"/><polygon class="st44" points="352.01,904.33 336.13,904.29 335.7,902.45 351.57,902.48 					"/></g><g><polygon class="st44" points="322.26,909.1 300.31,909.04 299.88,907.2 321.83,907.25 					"/><polygon class="st44" points="317.27,914.08 301.49,914.04 301.05,912.2 316.84,912.23 					"/><polygon class="st44" points="335.4,914.12 319.62,914.08 319.18,912.24 334.96,912.28 					"/><polygon class="st44" points="348.52,914.15 338.73,914.13 338.3,912.29 348.08,912.31 					"/><polygon class="st44" points="339.87,909.14 326.33,909.11 325.9,907.26 339.44,907.3 					"/><polygon class="st44" points="358.37,909.18 344.83,909.15 344.4,907.31 357.94,907.34 					"/></g></g><g><g><polygon class="st44" points="322.91,926.32 304.37,926.28 303.93,924.43 322.47,924.48 					"/><polygon class="st44" points="336.63,926.35 326.28,926.33 325.84,924.49 336.2,924.51 					"/><polygon class="st44" points="357.2,926.4 341.33,926.37 340.89,924.52 356.77,924.56 					"/></g><g><polygon class="st44" points="327.46,931.17 305.51,931.12 305.08,929.28 327.02,929.33 					"/><polygon class="st44" points="322.47,936.15 306.68,936.12 306.25,934.27 322.03,934.31 					"/><polygon class="st44" points="340.59,936.2 324.81,936.16 324.38,934.32 340.16,934.36 					"/><polygon class="st44" points="353.71,936.23 343.93,936.21 343.5,934.36 353.28,934.39 					"/><polygon class="st44" points="345.07,931.22 331.53,931.18 331.09,929.34 344.64,929.37 					"/><polygon class="st44" points="363.57,931.26 350.03,931.23 349.59,929.39 363.13,929.42 					"/></g></g><g><g><polygon class="st44" points="328.25,948.99 309.71,948.95 309.27,947.11 327.81,947.15 					"/><polygon class="st44" points="341.97,949.03 331.61,949 331.18,947.16 341.53,947.18 					"/><polygon class="st44" points="362.54,949.08 346.66,949.04 346.23,947.2 362.11,947.24 					"/></g><g><polygon class="st44" points="332.79,953.85 310.85,953.79 310.41,951.95 332.36,952 					"/><polygon class="st44" points="327.8,958.83 312.02,958.79 311.59,956.95 327.37,956.99 					"/><polygon class="st44" points="345.93,958.87 330.15,958.83 329.72,956.99 345.5,957.03 					"/><polygon class="st44" points="359.05,958.9 349.27,958.88 348.83,957.04 358.62,957.06 					"/><polygon class="st44" points="350.41,953.89 336.87,953.86 336.43,952.01 349.97,952.05 					"/><polygon class="st44" points="368.9,953.94 355.36,953.9 354.93,952.06 368.47,952.09 					"/></g></g></g></g><g><path class="st46" d="M429.61,1334.97c0,0-2.01,31.27-8.06,31.71c-0.81,0.06-30.69-0.01-30.69-0.01l-38.15-0.3
			c0,0,0.27-9.19,11.42-11.11c11.16-1.92,29.84-9.71,36.62-24.44C407.91,1315.33,429.61,1334.97,429.61,1334.97z"/><path class="st45" d="M538.81,1077.76c1.46,1.23,40.31,43.33,37.14,75.66c-0.93,9.5-9.11,16.64-18.65,16.64h-47.33
			c0,0-48.29,8.63-49.44,19.07c-1.15,10.44-11.03,66.69-30.62,146.63c0,0-14.43,4.97-23.18,1.42c-11.57-4.69-13.25-9.67-13.25-9.67
			s11.67-179.01,20.89-191.6c9.22-12.6,104.15-50.05,134.89-53.78C579.98,1078.39,538.81,1077.76,538.81,1077.76z"/><path class="st12" d="M264.34,1033.11c0,0-27.46-6.39-34.48,0c-7.02,6.39-9.26,15.65-9.26,15.65h43.74V1033.11z"/><path class="st45" d="M362.75,1334.97c0,0-2.01,31.27-8.06,31.71c-0.8,0.06-30.69-0.01-30.69-0.01l-38.15-0.3
			c0,0,0.27-9.19,11.42-11.11c11.15-1.92,29.84-9.71,36.62-24.44C341.05,1315.33,362.75,1334.97,362.75,1334.97z"/><path class="st10" d="M574.7,1077.76c1.1,0.93,9.51,23.56,15.13,49.25c4.83,22.11-11.99,43.04-34.62,43.04h-110.1
			c0,0-48.29,8.63-49.44,19.07c-1.15,10.44-11.03,66.69-30.62,146.63c0,0-14.48,3.8-25.79-1.03c-6.01-2.57-10.76-8.73-10.76-8.73
			s11.78-177.49,20.99-190.09c9.22-12.6,104.15-50.05,134.89-53.78C515.13,1078.39,574.7,1077.76,574.7,1077.76z"/><path class="st12" d="M513.67,917.73l-17.03,16.34l-29.01,0.01c-0.03-2.33,0.06-12.06,0.17-20.88c0.01-0.52,0.02-1.04,0.02-1.55
			c0.02-1.96,0.05-3.85,0.07-5.57c0.06-4.86,0.11-8.38,0.11-8.38l7.46-5.1l16.57-11.34l8.96-6.12c0.01,0.15,0.74,8.16,0.85,9.33
			C503.83,905.23,513.67,917.73,513.67,917.73z"/><path class="st45" d="M471.5,914.78c0.55-0.23,31.94-14.31,35.61-13.1s8.25,12.42,8.25,12.42l-55.27,12.5
			C460.09,926.6,464.44,917.75,471.5,914.78z"/><path class="st8" d="M607.26,1008.84c-5.98-36.88-31.23-64.48-42.03-74.82c-7.25-10.91-49.87-19.92-49.87-19.92
			s-35.3,7.98-55.27,12.5c0,0-31.15,3.38-48.72,32.44c-10.86,17.97-41.98,59.07-62.42,60.35c-20.43,1.28-84.61,13.73-84.61,13.73
			v15.79l97.84,2.68c1.2,0.03,2.38-0.06,3.56-0.28c8.42-1.59,44.51-8.76,62.46-18.1c2.87,46.22,6.25,116.79,22.39,128
			c17.07,11.85,137.14,13.44,149.86-4.63c6.51-9.25-1.47-64-11.44-116.79C601.4,1033.89,609.77,1024.31,607.26,1008.84z"/><path class="st47" d="M496.35,890.93l-1.48,0.92c0,0-13.65,9.83-26.97,14.24c0.06-4.86,0.11-8.38,0.11-8.38l7.46-5.1
			L496.35,890.93z"/><path class="st12" d="M457.84,897.97c0,0,44.64,5.28,47.5-22.57c2.86-27.85,10.55-45.92-17.83-50.47
			c-28.38-4.55-35.02,5.51-38.23,14.57C446.06,848.57,446.3,895.88,457.84,897.97z"/><path class="st45" d="M450.46,836.65c0,0,8.43,30.21,14.53,27.69c6.1-2.52,11.68-4.58,12.48,4.85c0.8,9.43-6.01,21.77,13.87,19.75
			c19.88-2.02,38.59-57.75,31.43-66.31C502.09,797.95,421.75,807.2,450.46,836.65z"/></g><g><path class="st48" d="M418.84,1176.04h220.79c8.39,0,15.18-6.8,15.18-15.18v-9.87H418.84V1176.04z"/><path class="st15" d="M392.38,1176.04h167.04c6.2,0,11.23-5.03,11.23-11.23v-2.6c0-6.2-5.03-11.23-11.23-11.23H392.38
			c-6.2,0-11.23,5.03-11.23,11.23v2.6C381.16,1171.02,386.18,1176.04,392.38,1176.04z"/><g><polygon class="st10" points="531.45,1357.27 545.69,1357.27 549.69,1176.04 527.93,1176.04 			"/><polygon class="st10" points="469.55,1357.27 608.06,1357.27 608.06,1344.76 537.47,1338.39 469.55,1344.76 			"/><ellipse transform="matrix(0.7584 -0.6518 0.6518 0.7584 -735.9559 725.0866)" class="st10" cx="610.12" cy="1355.31" rx="11.39" ry="11.39"/><path class="st10" d="M483.01,1355.31c0-6.29-5.1-11.39-11.39-11.39c-6.29,0-11.39,5.1-11.39,11.39c0,6.29,5.1,11.39,11.39,11.39
				C477.91,1366.7,483.01,1361.6,483.01,1355.31z"/><path class="st10" d="M474.52,1187.93H603.1c6.57,0,11.89-5.32,11.89-11.89l0,0H462.63l0,0
				C462.63,1182.61,467.95,1187.93,474.52,1187.93z"/></g><path class="st15" d="M633.01,1176.04c5.99,0,10.84-4.85,10.84-10.84V998.32c0-31.27-20.45-56.62-45.67-56.62H494.92
			c-25.22,0-45.67,25.35-45.67,56.62v177.72H633.01z"/><path class="st17" d="M635.05,1176.04c10.92,0,19.77-8.85,19.77-19.77V998.32c0-31.27-20.45-56.62-45.67-56.62H505.89
			c-25.22,0-45.67,25.35-45.67,56.62v177.72H635.05z"/></g></g><g><rect x="2596.94" y="1244.8" transform="matrix(-1 -1.224647e-16 1.224647e-16 -1 5339.6196 2609.7791)" class="st49" width="145.74" height="120.17"/><rect x="2669.81" y="1244.8" transform="matrix(-1 -1.224647e-16 1.224647e-16 -1 5485.3618 2609.7791)" class="st37" width="145.74" height="120.17"/><polygon class="st50" points="2597.02,1334.5 2620.12,1334.5 2618.08,1328 2620.12,1323.36 2597.02,1323.36 	"/><polygon class="st49" points="2669.81,1281.99 2692.9,1281.99 2690.87,1275.49 2692.9,1270.85 2669.81,1270.85 	"/><polygon class="st50" points="2669.81,1270.85 2646.72,1270.85 2648.75,1277.35 2646.72,1281.99 2669.81,1281.99 	"/><polygon class="st49" points="2815.56,1335.79 2792.46,1335.79 2794.5,1342.29 2792.46,1346.93 2815.56,1346.93 	"/><rect x="2764.07" y="1252.95" class="st6" width="41.94" height="16.32"/></g><g><rect x="2399.44" y="1244.68" transform="matrix(-1 -1.224647e-16 1.224647e-16 -1 4944.9204 2609.7791)" class="st49" width="146.04" height="120.42"/><rect x="2472.46" y="1244.68" transform="matrix(-1 -1.224647e-16 1.224647e-16 -1 5090.9556 2609.7791)" class="st3" width="146.04" height="120.42"/><polygon class="st8" points="2399.53,1334.56 2422.67,1334.56 2420.63,1328.05 2422.67,1323.4 2399.53,1323.4 	"/><polygon class="st9" points="2472.46,1281.95 2495.6,1281.95 2493.56,1275.44 2495.6,1270.78 2472.46,1270.78 	"/><polygon class="st8" points="2472.46,1270.78 2449.32,1270.78 2451.36,1277.29 2449.32,1281.95 2472.46,1281.95 	"/><polygon class="st9" points="2618.5,1335.85 2595.36,1335.85 2597.4,1342.36 2595.36,1347.02 2618.5,1347.02 	"/><rect x="2566.91" y="1252.85" class="st6" width="42.02" height="16.35"/></g><g><rect x="2475.11" y="1131.9" transform="matrix(-1 -1.224647e-16 1.224647e-16 -1 5087.1479 2376.6951)" class="st51" width="136.92" height="112.9"/><rect x="2543.57" y="1131.9" transform="matrix(-1 -1.224647e-16 1.224647e-16 -1 5224.0698 2376.6951)" class="st52" width="136.92" height="112.9"/><polygon class="st11" points="2475.19,1216.17 2496.89,1216.17 2494.98,1210.06 2496.89,1205.7 2475.19,1205.7 	"/><polygon class="st12" points="2543.57,1166.84 2565.27,1166.84 2563.36,1160.73 2565.27,1156.37 2543.57,1156.37 	"/><polygon class="st11" points="2543.57,1156.37 2521.88,1156.37 2523.79,1162.47 2521.88,1166.84 2543.57,1166.84 	"/><polygon class="st12" points="2680.5,1217.38 2658.8,1217.38 2660.71,1223.48 2658.8,1227.85 2680.5,1227.85 	"/><rect x="2632.13" y="1139.55" class="st6" width="39.4" height="15.33"/></g><g><g><rect x="827.69" y="768.06" class="st37" width="6.08" height="6.09"/><rect x="843.5" y="768.06" class="st37" width="6.08" height="6.09"/><rect x="859.3" y="768.06" class="st37" width="6.09" height="6.09"/></g><g><rect x="827.69" y="781.62" class="st37" width="6.08" height="6.09"/><rect x="843.5" y="781.62" class="st37" width="6.08" height="6.09"/><rect x="859.3" y="781.62" class="st37" width="6.09" height="6.09"/></g><g><rect x="827.69" y="796.63" class="st37" width="6.08" height="6.08"/><rect x="843.5" y="796.63" class="st37" width="6.08" height="6.08"/><rect x="859.3" y="796.63" class="st37" width="6.09" height="6.08"/></g></g><path class="st19" d="M2900.91,1375.77H12.56c-2.13,0-3.87-1.74-3.87-3.87v-2.95c0-2.13,1.74-3.87,3.87-3.87h2888.36
	c2.13,0,3.87,1.74,3.87,3.87v2.95C2904.78,1374.03,2903.04,1375.77,2900.91,1375.77z"/><path class="st24" d="M2004.83,691.33l-1.5-2.64c-3.8-6.66-14.96-5.81-25.09-5.81h-65.3v29.35v125.32h270.14V697.44H2030.2
	C2019.04,697.44,2009,698.65,2004.83,691.33z"/><path class="st24" d="M1824.39,944.54l-1.5-2.64c-3.8-6.66-14.96-5.81-25.09-5.81h-65.3v29.35v125.32h270.14V950.65h-152.87
	C1838.61,950.65,1828.57,951.87,1824.39,944.54z"/><path class="st24" d="M2183.07,710.23"/><g><path class="st53" d="M1027.68,714.79c-12.72-6.6-22.92-2.45-22.92-2.45c-38.93-4.57-50.29,40.83-49.76,56.46
		c0.52,15.62,2.31,32.4-15.08,52.7c-50.22,58.63,54.96,61.21,54.96,61.21c0.89-46.84,57.04-29.75,54.58-25
		C1121.44,874.97,1056.62,729.8,1027.68,714.79z"/><path class="st54" d="M877.5,900.69c0,0-6.85-10.42-12.37-10.63c-5.52-0.2-15.74-3.07-14.92-1.02c0.82,2.04,7.15,2.25,7.77,3.47
		c0.61,1.23-9.4,3.07-12.26,3.27c-2.86,0.2-9.61,0-9.4,1.43c0.2,1.43,12.16,7.36,20.59,6.54c8.43-0.82,18.86,2.45,18.86,2.45
		L877.5,900.69z"/><path class="st15" d="M976.52,904.07c0,0-3.72,7.37-10.47,15.84c-8.14,10.19-20.68,21.96-36.43,24.29
		c-7.52,1.11-14.88-0.51-21.64-3.51c-0.02-0.01-0.02-0.01-0.02-0.01c-19.13-8.49-33.51-28.02-33.51-28.02
		c-3.37-9.2,2.15-15.43,2.15-15.43s38.63,8.69,42.31,6.85c3.68-1.84,26.3-52.02,30.37-60.37c8.66-17.76,22.4-22.86,22.4-22.86
		L976.52,904.07z"/><path class="st17" d="M966.04,919.9c-8.14,10.19-20.68,21.96-36.43,24.29c-7.52,1.11-14.88-0.51-21.64-3.51
		c0.75,0.1,19.85,2.46,27.47-11.17c7.77-13.9,16.17-35.97,27.71-28.61C968.12,904.07,967.9,911.96,966.04,919.9z"/><path class="st55" d="M1120.63,1321.02c0,0,11.79,10.76,9.49,18.4c-2.3,7.64-12.94,12.74-14.37,22.08s-7.19,14.44-12.36,14.44
		c-5.17,0-24.67,0-24.67,0s-3.81-6.57,5.39-8.55c9.2-1.98,12.67-12.96,12.09-23.15c-0.58-10.19,0.86-23.78,0.86-23.78l19.55-4.53
		L1120.63,1321.02z"/><path class="st55" d="M1020.87,1325.59c0,0,4.24,45.57-0.93,48.11l-66.22-0.14c0,0,0-7.64,10.64-9.34
		c10.64-1.7,29.32-7.93,32.48-21.8C999.99,1328.56,1020.87,1325.59,1020.87,1325.59z"/><path class="st15" d="M1071.81,873.33c0,0,0.99,13.91,0,30.61c-0.66,11.07-11.85,25.89-13.44,29.56
		c-3.99,9.2-8.48,10.69-8.48,10.69l-34.77,8.52l-12.23,2.99l-38.55-11.51c0,0-17.56-49.01-10.51-76.6
		c7.05-27.59,17.82-46.75,17.82-46.75s26.14-10.31,72.42-2.61L1071.81,873.33z"/><path class="st56" d="M1061.63,908.46c-0.66,11.07-1.67,21.37-3.26,25.04c-3.99,9.2-8.48,10.69-8.48,10.69l-34.77,8.52l-15.1-4.44
		c0,0,50.41-7.64,44.83-51.01L1061.63,908.46z"/><path class="st57" d="M966.79,951.63c0,0-19.09,59.43-20.32,79.66c-1.23,20.23,36.5,287.43,38.01,296.75
		c1.43,8.79,12.34,14.39,12.34,14.39s5.02,2.96,12.18,0.94c9.94-2.81,13.08-6.17,13.08-6.17s14.86-190.56,5.66-258.63
		c-9.2-68.07-9.3-126.94-9.3-126.94H966.79z"/><path class="st58" d="M1047.68,949.86c0,0,29.12,39.08,31.84,65.49c2.71,26.42,4.26,119.2,10.04,144.95
		c5.78,25.75,27.04,75.31,27.04,155.63c0,0-2.21,4.6-9.03,7.06c-2.18,0.78-5.1,1.54-7.94,2.2c-5.63,1.29-11.4-1.46-13.96-6.63
		c-14.37-28.93-60.14-122.23-62.48-141.6c-1.66-13.71-16.11-104.42-47.63-157.65c-7.57-12.78,4.64-63.6,4.64-63.6L1047.68,949.86z"/><path class="st59" d="M963.74,942.46c0,0,7.67,6.06,22.89,6.37c18.19,0.37,63.25-4.64,63.25-4.64s2,5.59,1.92,11.5
		c0,0-55.04,13.88-86.93,2.03C964.87,957.72,960.76,949.98,963.74,942.46z"/><g><path class="st6" d="M982.27,964.5c-4.58,0-8.3-4.21-8.3-9.39c0-5.18,3.72-9.39,8.3-9.39c4.58,0,8.3,4.21,8.3,9.39
			C990.57,960.28,986.85,964.5,982.27,964.5z M982.27,948.46c-3.06,0-5.55,2.98-5.55,6.64c0,3.66,2.49,6.64,5.55,6.64
			c3.06,0,5.55-2.98,5.55-6.64C987.82,951.44,985.33,948.46,982.27,948.46z"/></g><path class="st60" d="M1103.29,958.3l-44.7,38.92c-3.23,2.81-8.13,2.47-10.94-0.76l-57.03-65.49c-2.81-3.23-2.47-8.13,0.76-10.94
		l44.7-38.92c3.23-2.81,8.13-2.47,10.94,0.76l57.03,65.49C1106.86,950.59,1106.52,955.49,1103.29,958.3z"/><path class="st54" d="M1037.17,953.38c-0.64,0.17-23.74,2.88-23.75,7.66c0,5.52,6.77,12.92,13.16,12.57
		c2.59-0.14,14.51-11.1,14.51-11.1L1037.17,953.38z"/><path class="st54" d="M1025.3,815.7c-2.63-6.38-4.16-16.09-4.12-28.11l-1.75,0.34l-29.35,5.81c0,0,0.67,9.24,0.69,17.94
		c0,0.07,0,0.14,0,0.22c0.04,7.56-5.11,15.14,7.02,18.14C1001.54,830.97,1030.82,829.09,1025.3,815.7z"/><path class="st61" d="M990.09,793.75c0,0,0.67,9.24,0.69,17.94c16.42-0.46,25.11-15.45,28.66-23.75L990.09,793.75z"/><path class="st54" d="M984.6,801.98c0,0,38.86,0.64,38.89-23.57c0.03-24.21,5.06-40.43-19.75-41.86
		c-24.81-1.43-29.64,7.8-31.61,15.88C970.15,760.51,974.49,801.19,984.6,801.98z"/><path class="st53" d="M986.04,735.97c0,0,10.64,28.4,26.97,32.6c16.33,4.2,23.41-0.18,23.41-0.18s-12.53-9.95-15.12-27.32
		C1021.29,741.07,994.06,722.45,986.04,735.97z"/><path class="st53" d="M988.68,738.27c0,0-7.89,2.95-11.14,8.7c-3.18,5.63-5.88,13.08-5.25,22.22c0,0-8.02-19.3,0.99-30.22
		C982.83,727.4,988.68,738.27,988.68,738.27z"/><path class="st54" d="M1037.17,953.38c0,0-5.54-1.78-9.24-1.26c-3.7,0.52-6.44-0.07-6.44,0.96c0,1.04,4.78,1.52,5.79,2.02
		C1028.3,955.6,1037.17,953.38,1037.17,953.38z"/><path class="st15" d="M1044.08,818.22c0,0,27.59,1.93,38.16,27.64c10.57,25.71,30.64,68.86,30.64,76.12s-11.21,29.64-71.39,42.51
		c0,0-6.22-6.55-5.85-11.73c0,0,37.57-32.27,37.47-36.04c-0.19-7.13-6.16-16.55-39.15-49.55
		C1024.99,858.21,1044.08,818.22,1044.08,818.22z"/></g></svg>