<?xml version="1.0" encoding="utf-8"?><!--Generator: Adobe Illustrator 25.2.1, SVG Export Plug-In . SVG Version: 6.00 Build 0)--><svg version="1.1" id="_x2018_лой_x5F_1" xmlns="http://www.w3.org/2000/svg" xmlns:xlink="http://www.w3.org/1999/xlink" x="0px" y="0px" viewBox="0 0 2411.82 1732.84" style="enable-background:new 0 0 2411.82 1732.84" xml:space="preserve"><style type="text/css">.st0{fill:#E9F3FB;}
	.st1{fill:#0A2142;}
	.st2{fill:#F3FAFF;}
	.st3{fill:#2B478B;}
	.st4{fill:#07224F;}
	.st5{fill:#219653;}
	.st6{fill:#FFB27D;}
	.st7{fill:#1C4B8E;}
	.st8{fill:#217253;}
	.st9{fill:#172F51;}
	.st10{fill:#FCA56B;}
	.st11{fill:#163560;}
	.st12{fill:#1F4D84;}
	.st13{fill:#739AF0;}
	.st14{opacity:0.5;}
	.st15{fill:#B3CFF9;}
	.st16{fill:#233862;}
	.st17{fill:#C4C4C4;}
	.st18{fill:#E0E0E0;}
	.st19{fill:#EAEAEA;}
	.st20{fill:#182D4C;}
	.st21{fill:#F2CCAA;}
	.st22{fill:#FFFFFF;}
	.st23{fill:#E8945B;}
	.st24{fill:#ED975D;}
	.st25{fill:#99B1FF;}
	.st26{fill:#EBF3FA;}
	.st27{fill:#A8D29F;}
	.st28{font-family:&apos;Helvetica-Bold&apos;;}
	.st29{font-size:71px;}
	.st30{fill:#2F2D2C;}</style><path class="st0" d="M216.31,1723.56c0,0-406.19-346.83-97.41-675.55c328.75-349.98,37.49-799.27,483.75-980.55
	c482.48-195.99,606.61,149.2,808.6,96.2c402.87-105.72,913.87-53.66,828.85,459.86c-106.73,644.62,331.16,562.4,71.08,1102.2
	L216.31,1723.56z"/><g><g><rect x="812.92" y="503.06" class="st1" width="891.29" height="1218.86"/><rect x="850.9" y="535.95" class="st2" width="815.34" height="1152.38"/><path class="st3" d="M1089.54,503.06v41.52c0,22.93,18.57,41.52,41.48,41.52h222.81c22.91,0,41.48-18.59,41.48-41.52v-41.52
			H1089.54z"/></g><g><rect x="945.55" y="1525.21" class="st1" width="100.88" height="10.21"/><rect x="1069.79" y="1525.21" class="st1" width="100.88" height="10.21"/><rect x="945.55" y="1547.87" class="st1" width="139.9" height="10.21"/></g><g><rect x="1032.58" y="775" class="st4" width="438.04" height="5.65"/></g><g><g><g><path class="st1" d="M1584.68,964.18h-147.46V816.71h147.46V964.18z M1444.17,957.23h133.57V823.66h-133.57V957.23z"/></g><g><path class="st5" d="M1514.62,934.54c-3.09,0-6.04-1.38-8.03-3.78l-45.5-55.05c-3.67-4.44-3.04-11,1.39-14.67
					c4.43-3.67,11-3.04,14.67,1.39l36.09,43.66l65.28-109.57c2.95-4.94,9.34-6.56,14.28-3.62c4.94,2.95,6.56,9.34,3.62,14.28
					l-72.85,122.27c-1.73,2.91-4.77,4.79-8.15,5.05C1515.15,934.53,1514.88,934.54,1514.62,934.54z"/></g></g><g><g><g><rect x="995.83" y="838.48" class="st1" width="327.59" height="14.39"/></g><g><rect x="995.83" y="902.74" class="st1" width="301.91" height="14.39"/></g><g><rect x="1234.12" y="870.61" class="st1" width="89.3" height="14.39"/><rect x="995.83" y="870.61" class="st1" width="213.55" height="14.39"/></g></g><g><g><path class="st1" d="M922.5,851.34l-14.66,4.07l-3.02-11.63l21.87-6.98h10v82H922.5V851.34z"/></g><path class="st1" d="M946.06,913.63c0-2.86,2.32-5.18,5.18-5.18c2.86,0,5.18,2.32,5.18,5.18s-2.32,5.18-5.18,5.18
					C948.37,918.81,946.06,916.49,946.06,913.63z"/></g></g></g><g><g><g><path class="st1" d="M1585.83,1184.46h-147.46V1037h147.46V1184.46z M1445.31,1177.51h133.57v-133.57h-133.57V1177.51z"/></g><g><path class="st5" d="M1515.76,1154.82c-3.09,0-6.04-1.38-8.03-3.78l-45.5-55.05c-3.67-4.44-3.04-11,1.39-14.67
					c4.43-3.67,11-3.04,14.67,1.39l36.09,43.66l65.28-109.57c2.95-4.94,9.34-6.56,14.28-3.62c4.94,2.95,6.56,9.34,3.62,14.28
					l-72.85,122.27c-1.73,2.91-4.77,4.79-8.15,5.05C1516.29,1154.81,1516.02,1154.82,1515.76,1154.82z"/></g></g><g><g><g><path class="st1" d="M904.19,1127.89l27.84-23.68c11.09-9.36,15.13-14.55,15.13-21.83c0-7.97-5.66-12.59-13.05-12.59
						c-7.39,0-12.47,4.04-18.71,12.13l-10.05-7.85c7.74-10.86,15.36-16.98,29.8-16.98c15.82,0,26.68,9.7,26.68,24.37
						c0,12.71-6.81,19.52-21.02,31.3l-16.63,13.86h38.46v12.47h-58.44V1127.89z"/></g><path class="st1" d="M972.25,1133.95c0-2.84,2.3-5.14,5.14-5.14c2.84,0,5.14,2.3,5.14,5.14c0,2.84-2.3,5.14-5.14,5.14
					C974.55,1139.09,972.25,1136.79,972.25,1133.95z"/></g><g><g><g><rect x="998.54" y="1058.76" class="st1" width="344.24" height="14.39"/></g><g><rect x="998.54" y="1123.02" class="st1" width="317.25" height="14.39"/></g><g><rect x="1248.94" y="1090.89" class="st1" width="93.84" height="14.39"/><rect x="998.54" y="1090.89" class="st1" width="224.4" height="14.39"/></g></g></g></g></g><g><g><g><path class="st1" d="M1585.83,1406.37h-147.46v-147.46h147.46V1406.37z M1445.31,1399.42h133.57v-133.57h-133.57V1399.42z"/></g><g><path class="st5" d="M1515.76,1376.73c-3.09,0-6.04-1.38-8.03-3.78l-45.5-55.05c-3.67-4.43-3.04-11,1.39-14.67
					c4.43-3.67,11-3.04,14.67,1.39l36.09,43.66l65.28-109.57c2.95-4.94,9.34-6.56,14.28-3.62c4.94,2.94,6.56,9.34,3.62,14.28
					l-72.85,122.27c-1.73,2.91-4.77,4.8-8.15,5.06C1516.29,1376.72,1516.02,1376.73,1515.76,1376.73z"/></g></g><g><g><g><rect x="998.54" y="1280.67" class="st1" width="344.24" height="14.39"/></g><g><rect x="998.54" y="1344.93" class="st1" width="317.25" height="14.39"/></g><g><rect x="1248.94" y="1312.8" class="st1" width="93.84" height="14.39"/><rect x="998.54" y="1312.8" class="st1" width="224.4" height="14.39"/></g></g></g><g><g><path class="st1" d="M903.16,1346.33l9.72-9.04c5.65,6.67,11.98,10.4,20.8,10.4c7.8,0,13.68-4.75,13.68-12.21
					c0-7.8-7.12-12.21-18.2-12.21h-6.44l-2.26-8.7l21.36-22.72h-34.25v-12.09h52.33v10.4l-22.04,22.61
					c12.54,1.81,23.28,8.25,23.28,22.49c0,14.58-11.3,24.98-27.69,24.98C919.66,1360.23,909.83,1354.47,903.16,1346.33z"/></g><path class="st1" d="M965.13,1355.2c0-2.78,2.25-5.03,5.03-5.03c2.78,0,5.03,2.25,5.03,5.03s-2.25,5.03-5.03,5.03
				C967.38,1360.23,965.13,1357.98,965.13,1355.2z"/></g></g><g><g><path class="st1" d="M1318.59,1557.82c-29.58,0-55.35-21-61.27-49.94c-0.47-2.32,1.02-4.58,3.34-5.05
				c2.31-0.47,4.58,1.02,5.05,3.34c5.11,24.97,27.35,43.09,52.88,43.09c25.28,0,47.47-17.91,52.77-42.58
				c0.5-2.31,2.78-3.78,5.09-3.29c2.31,0.5,3.79,2.77,3.29,5.09C1373.59,1537.07,1347.88,1557.82,1318.59,1557.82z"/></g><g><path class="st1" d="M1261.4,1488.42c-0.27,0-0.54-0.02-0.82-0.08c-2.32-0.45-3.84-2.7-3.39-5.02
				c5.67-29.31,31.5-50.59,61.4-50.59c28.73,0,53.68,19.44,60.66,47.27c0.58,2.29-0.82,4.62-3.11,5.2c-2.29,0.57-4.62-0.82-5.2-3.11
				c-6.03-24.02-27.56-40.79-52.35-40.79c-25.81,0-48.09,18.36-52.99,43.65C1265.2,1487,1263.41,1488.42,1261.4,1488.42z"/></g><g><path class="st1" d="M1318.59,1584.19c-49.02,0-88.91-39.88-88.91-88.91c0-49.02,39.88-88.91,88.91-88.91
				s88.91,39.88,88.91,88.91C1407.5,1544.3,1367.61,1584.19,1318.59,1584.19z M1318.59,1418.55c-42.31,0-76.73,34.42-76.73,76.73
				c0,42.31,34.42,76.73,76.73,76.73c42.31,0,76.73-34.42,76.73-76.73C1395.32,1452.97,1360.9,1418.55,1318.59,1418.55z"/></g><g><rect x="1300.98" y="1484.14" class="st1" width="35.21" height="5.64"/><rect x="1300.98" y="1507.2" class="st1" width="35.21" height="5.64"/><rect x="1292.67" y="1495.28" class="st1" width="51.83" height="5.64"/></g></g></g><g><path class="st6" d="M741.78,1112.95c0,0,2.77-6.23,4.56-9.18c1.79-2.95,9.46-11.59,10.76-9.63c1.3,1.96,6.52,15.12,3.75,18.81
		c-2.77,3.69,0.18,10.1-13.6,13.99L741.78,1112.95z"/><path class="st1" d="M588.6,1073.62c0,0,70.56,58.9,98.08,53.45c21.51-4.26,54.53-15.59,54.53-15.59l6.6,16.89
		c0,0-29.61,40.17-60.48,40.43c-48.26,0.41-83.91-20.89-83.91-20.89L588.6,1073.62z"/><path class="st7" d="M464.85,1694.9c0,0,2.05,33.04,8.44,33.52c0.85,0.06,32.42,0.06,32.42,0.06l40.31-0.23
		c0,0-0.26-9.71-12.05-11.76c-11.78-2.05-31.5-10.33-38.64-25.9C487.83,1674.2,464.85,1694.9,464.85,1694.9z"/><path class="st5" d="M462.53,1697.19c0,0,12.25,4.1,21.82,4.1c10.67,0,20.37-2.91,20.37-2.91s2.31-22.31,15-71.46
		c6.66-25.76,16.16-58.89,29.68-100.05c37.39-113.76,48.75-180.31,49.79-186.61c0.06-0.33,0.08-0.5,0.08-0.5l-0.12-0.05
		l-114.94-50.47c0,0,14.21,156.78-3.92,216.96c-2.54,8.41-4.71,18.21-6.58,28.83C462.26,1600.41,462.53,1697.19,462.53,1697.19z"/><path class="st8" d="M519.71,1626.93c6.66-25.76,16.16-58.89,29.68-100.05c37.39-113.76,48.75-180.31,49.79-186.61
		c-0.01-0.19-0.02-0.36-0.04-0.55l-114.94-50.47c0,0,14.21,156.78-3.92,216.96C477.75,1514.62,519.71,1626.93,519.71,1626.93z"/><path class="st7" d="M554.62,1694.9c0,0,2.05,33.04,8.44,33.52c0.85,0.06,32.42,0.06,32.42,0.06l40.31-0.23
		c0,0-0.26-9.71-12.04-11.76c-11.78-2.05-31.5-10.33-38.64-25.9C577.6,1674.2,554.62,1694.9,554.62,1694.9z"/><path class="st5" d="M619.79,1292.95c0,0,1.49,101.6-16.09,226.34c-17.58,124.74-11.62,177.7-11.62,177.7s-12.08,3.91-16.95,4.31
		c-12.42,1.01-25.15-2.91-25.15-2.91s-25.16-124.79-17.95-187.23c7.21-62.44-34.45-214.25-34.45-214.25L619.79,1292.95z"/><path class="st6" d="M538.29,1055.19l22.44,14.71l20.44-5.78c3.74-5.33,4.72-15.6,4.78-24.5c0.05-8.83-0.8-16.32-0.8-16.32
		l-30.27-13.36l-11.29-4.98c0.03,0.18,0.88,9.27,1,10.6C546.68,1039.16,538.29,1055.19,538.29,1055.19z"/><path class="st9" d="M620.3,1321.19c-27.93,26.96-133.61,22.43-140.13-7.28c-6.5-29.71,7.1-252.89,54.81-266.91
		c9.9-2.91,62.82,14.2,62.82,14.2s8.3,21.72,13.75,49.38c1.06,5.38,4.14,62.42,6.45,115.77c1.08,24.95,1.99,49.11,2.45,66.8
		C620.88,1309.72,620.9,1320.6,620.3,1321.19z"/><path class="st10" d="M546.84,1015.99c6.14,10.38,27.69,19.47,39.1,23.63c0.05-8.83-0.8-16.32-0.8-16.32l-30.27-13.36
		C548.18,1009.86,544.1,1011.35,546.84,1015.99z"/><path class="st6" d="M596.56,1021.46c0,0-48.77,15.21-57.78-15.3c-9.01-30.52-21.37-49.11,9.39-60.11
		c30.76-11,40.27-1.15,45.76,8.3C599.41,963.8,609.01,1016.72,596.56,1021.46z"/><path class="st11" d="M592.01,951.41c0,0-3.11,35.51-10.46,33.97c-7.34-1.54-15.43-4.84-14.35,5.87
		c1.08,10.71-7.14,29.06-17.73,29.01c-22.71-0.09-47.39-58.38-41.17-69.43C526.24,918.94,617.94,912.5,592.01,951.41z"/><path class="st1" d="M584.83,1047.77c-0.63-0.26-36.31-16.27-40.48-14.89c-4.17,1.38-9.37,14.12-9.37,14.12l62.82,14.2
		C597.81,1061.2,592.86,1051.15,584.83,1047.77z"/><g><path class="st12" d="M806.96,1220.62l-200,188.3c-3.92,3.69-8.86,4.87-10.99,2.61l-6.75-7.17c-2.12-2.25-0.65-7.12,3.27-10.81
			l200-188.31c3.92-3.69,8.86-4.87,10.99-2.61l6.75,7.17C812.35,1212.06,810.88,1216.92,806.96,1220.62z"/><path class="st13" d="M694.72,1326.29l-87.77,82.63c-3.92,3.69-8.86,4.87-10.99,2.61l-6.75-7.17c-2.12-2.25-0.65-7.12,3.27-10.81
			l87.77-82.63L694.72,1326.29z"/><path class="st12" d="M760.99,1149.52c7.68,25.3,21.9,49,42.54,68.43c63.06,59.32,162.27,56.29,221.59-6.76
			c58.54-62.23,56.36-159.65-4.31-219.21c-0.8-0.8-1.63-1.59-2.46-2.37c-63.05-59.32-162.25-56.31-221.57,6.75
			C756.88,1038.77,745.18,1097.54,760.99,1149.52z M805.8,1004.84c34.52-36.7,83.71-51.32,129.9-43.32
			c26.92,4.66,52.81,16.99,74.19,37.1c58.08,54.64,60.86,146.01,6.22,204.09c-20.12,21.38-45.2,35.26-71.77,41.55
			c-45.63,10.8-95.62-0.79-132.32-35.32C753.94,1154.3,751.15,1062.93,805.8,1004.84z"/><g class="st14"><path class="st15" d="M1016.11,1202.71c-20.12,21.38-45.2,35.26-71.78,41.56c-45.62,10.79-95.62-0.8-132.32-35.33
				c-58.08-54.64-60.86-146.01-6.22-204.1c34.52-36.7,83.71-51.32,129.9-43.32c26.92,4.66,52.81,16.99,74.19,37.1
				C1067.96,1053.26,1070.75,1144.63,1016.11,1202.71z"/></g></g><path class="st1" d="M620.46,1293.15c-110.2-78.53-101.04-183.32-101.04-183.32c40.28,22.72,80.25,72.95,98.59,116.52
		C619.08,1251.31,619.99,1275.46,620.46,1293.15z"/><g><path class="st6" d="M729.23,1257.39c7.77-1.79,12.99-7.67,14.07-8.7c0,0,3.32,0.23-0.54,7.3c-0.32,0.59-1.04,2.11-1.58,3.19
			c-0.22,0.44,0.09,0.95,0.58,0.99c4.48,0.34,8.99-1.43,17.63,0.37c1.19,0.25,1.54,3.1,1.49,4.32c-0.08,2.06,0.07,4.37-2.32,7.53
			c-1.39,1.84-5.28,3.81-13.93,7.29c-3.3,1.33-12.72,0.33-21.55-2.71l-7.06-3.27l2.19-13.11l1.77,0.37
			C722.81,1261.54,726.29,1258.11,729.23,1257.39z"/><path class="st9" d="M553.62,1061.2c0,0-99.02,18.85,29.13,162.25c20.5,22.93,131.23,52.79,131.23,52.79s11.23-9.56,5.57-17.29
			c0,0-76.24-55.37-93.02-64.17c-7.55-3.96-29.29-88.37-41.59-108.7C572.64,1065.76,553.62,1061.2,553.62,1061.2z"/></g><path class="st6" d="M744.47,1114.69c0,0,3.24-6.19,3.87-9.46c0.63-3.26,4.71-12.79,6.39-14.46c0.67-0.67,2.89,0.2,3.15,3.08
		c0.11,1.26-0.5,3.54-1.59,6.26c-1.77,4.43-1.48,10.44-2.1,12.44C752.66,1117.55,744.47,1114.69,744.47,1114.69z"/></g><g><path class="st3" d="M1071.51,1681.72c0,1.68,0.1,3.35,0.31,4.98c0.63,5.22,2.25,10.13,4.65,14.56c1.88,3.45,4.25,6.59,7,9.35
		c7.4,7.39,17.6,11.96,28.89,11.96h574.53c22.56,0,40.86-18.29,40.86-40.85c0-11.29-4.57-21.5-11.97-28.89
		c-7.39-7.4-17.6-11.97-28.89-11.97h-574.53C1089.8,1640.85,1071.51,1659.14,1071.51,1681.72z"/><path class="st3" d="M1115.33,1633.46h196.99c3.45,0,6.27-2.82,6.27-6.27l0,0c0-3.45-2.82-6.27-6.27-6.27h-196.99
		c-3.45,0-6.27,2.82-6.27,6.27l0,0C1109.06,1630.64,1111.88,1633.46,1115.33,1633.46z"/><rect x="1126.21" y="1633.46" transform="matrix(-1 -1.224647e-16 1.224647e-16 -1 2273.7769 3274.323)" class="st16" width="21.35" height="7.4"/><path class="st16" d="M1076.47,1701.26c1.88,3.45,4.25,6.59,7,9.35c7.4,7.39,17.6,11.96,28.89,11.96h121.7v-21.31H1076.47z"/><path class="st5" d="M1803.8,1669.74v23.93c0,2.62-0.35,5.17-1.01,7.58c-3.32,12.28-14.54,21.31-27.87,21.31h-598.47
		c-13.33,0-24.55-9.03-27.87-21.31c-0.65-2.41-1.01-4.96-1.01-7.58v-23.93c0-15.96,12.92-28.89,28.88-28.89h598.47
		C1790.88,1640.86,1803.8,1653.79,1803.8,1669.74z"/><path class="st8" d="M1802.79,1701.26c-3.32,12.28-14.54,21.31-27.87,21.31h-598.47c-13.33,0-24.55-9.03-27.87-21.31H1802.79z"/><g><path class="st17" d="M1744.36,1681.86c0,12.69,4.61,24.03,11.88,31.54c0.17,0.17,0.32,0.33,0.49,0.5
			c5.62,5.6,12.75,8.95,20.5,8.95c12.12,0,42.14-18.28,60.75-30.42c9.27-6.05,15.71-10.58,15.71-10.58s-6.44-4.53-15.71-10.58
			c-18.61-12.15-48.64-30.43-60.75-30.43c-3.51,0-6.88,0.69-10.06,1.95c-5.34,2.15-10.1,5.95-13.85,10.93
			c-4.14,5.47-7.08,12.35-8.32,19.99c-0.01,0.09-0.03,0.18-0.03,0.27C1744.57,1676.53,1744.36,1679.16,1744.36,1681.86z"/><path class="st18" d="M1744.36,1681.86c0,12.69,4.61,24.03,11.88,31.54l92.11-31.69l-103.39-7.72
			C1744.57,1676.53,1744.36,1679.16,1744.36,1681.86z"/><path class="st19" d="M1753.32,1653.73l91.89,25.09l-78.04-36.03C1761.83,1644.95,1757.07,1648.75,1753.32,1653.73z"/><path class="st20" d="M1831.99,1681.86c0,4.88,2.5,9.04,6,10.58c9.27-6.05,15.71-10.58,15.71-10.58s-6.44-4.53-15.71-10.58
			C1834.49,1672.81,1831.99,1676.97,1831.99,1681.86z"/></g></g><g><path class="st11" d="M1994.96,934.96c-15.22-7.89-27.41-2.93-27.41-2.93c-46.57-5.47-60.15,48.84-59.52,67.52
		c0.62,18.68,2.76,38.75-18.03,63.03c-60.07,70.12,65.74,73.21,65.74,73.21c1.06-56.02,68.22-35.58,65.28-29.91
		C2107.1,1126.55,2029.57,952.91,1994.96,934.96z"/><path class="st6" d="M1815.33,1157.31c0,0-8.19-12.47-14.79-12.71c-6.6-0.24-18.82-3.67-17.84-1.22c0.98,2.44,8.56,2.69,9.29,4.16
		s-11.24,3.67-14.67,3.91c-3.42,0.24-11.49,0-11.24,1.71c0.24,1.71,14.54,8.8,24.62,7.82c10.09-0.98,22.55,2.93,22.55,2.93
		L1815.33,1157.31z"/><path class="st5" d="M1933.76,1161.34c0,0-4.45,8.81-12.53,18.94c-9.73,12.19-24.73,26.27-43.57,29.05c-9,1.33-17.8-0.61-25.89-4.2
		c-0.02-0.01-0.03-0.01-0.03-0.01c-22.88-10.16-40.08-33.51-40.08-33.51c-4.03-11,2.57-18.46,2.57-18.46s46.2,10.39,50.6,8.19
		c4.4-2.2,31.45-62.21,36.32-72.21c10.36-21.25,26.79-27.34,26.79-27.34L1933.76,1161.34z"/><path class="st8" d="M1921.24,1180.28c-9.73,12.19-24.73,26.27-43.57,29.05c-9,1.33-17.8-0.61-25.89-4.2
		c0.9,0.12,23.75,2.94,32.85-13.35c9.29-16.62,19.34-43.02,33.14-34.22C1923.72,1161.35,1923.46,1170.79,1921.24,1180.28z"/><path class="st7" d="M2106.12,1660.03c0,0,14.1,12.87,11.35,22.01c-2.75,9.14-15.47,15.24-17.19,26.41
		c-1.72,11.17-8.6,17.27-14.78,17.27c-6.19,0-29.51,0-29.51,0s-4.56-7.86,6.45-10.23c11-2.37,15.15-15.5,14.46-27.69
		c-0.69-12.19,1.03-28.44,1.03-28.44l23.38-5.42L2106.12,1660.03z"/><path class="st7" d="M1986.81,1665.5c0,0,5.07,54.5-1.12,57.55l-79.2-0.16c0,0,0-9.14,12.72-11.17
		c12.72-2.03,35.07-9.48,38.85-26.07C1961.84,1669.05,1986.81,1665.5,1986.81,1665.5z"/><path class="st5" d="M2047.73,1124.58c0,0,1.18,16.64,0,36.61c-0.79,13.24-14.17,30.97-16.07,35.35
		c-4.77,11-10.14,12.79-10.14,12.79l-41.59,10.19l-14.62,3.58l-46.11-13.77c0,0-21-58.62-12.57-91.62
		c8.43-33,21.32-55.92,21.32-55.92s31.26-12.34,86.62-3.12L2047.73,1124.58z"/><path class="st21" d="M2035.56,1166.59c-0.79,13.24-2,25.56-3.9,29.95c-4.77,11-10.14,12.79-10.14,12.79l-41.59,10.19l-18.06-5.31
		c0,0,60.29-9.14,53.61-61.01L2035.56,1166.59z"/><path class="st1" d="M1922.13,1218.23c0,0-22.84,71.08-24.3,95.28c-1.47,24.2,43.65,343.77,45.47,354.92
		c1.71,10.51,14.76,17.21,14.76,17.21s6,3.54,14.57,1.12c11.89-3.36,15.64-7.38,15.64-7.38s17.77-227.92,6.77-309.33
		c-11-81.42-11.13-151.82-11.13-151.82H1922.13z"/><path class="st4" d="M2018.88,1216.11c0,0,34.83,46.74,38.08,78.33c3.25,31.59,5.09,142.57,12.01,173.37
		c6.92,30.8,32.34,90.07,32.34,186.13c0,0-2.64,5.5-10.8,8.44c-2.61,0.94-6.1,1.85-9.5,2.63c-6.73,1.54-13.63-1.75-16.7-7.93
		c-17.18-34.6-71.92-146.19-74.73-169.36c-1.99-16.39-19.27-124.89-56.97-188.55c-9.05-15.28,5.55-76.07,5.55-76.07L2018.88,1216.11
		z"/><path class="st16" d="M1918.48,1207.26c0,0,9.17,7.25,27.38,7.62c21.75,0.44,75.65-5.55,75.65-5.55s2.39,6.69,2.3,13.76
		c0,0-65.83,16.6-103.97,2.42C1919.84,1225.51,1914.92,1216.25,1918.48,1207.26z"/><g><path class="st22" d="M1940.64,1233.62c-5.47,0-9.93-5.04-9.93-11.23c0-6.2,4.45-11.23,9.93-11.23c5.47,0,9.93,5.04,9.93,11.23
			C1950.57,1228.58,1946.12,1233.62,1940.64,1233.62z M1940.64,1214.44c-3.66,0-6.64,3.56-6.64,7.94c0,4.38,2.98,7.94,6.64,7.94
			c3.66,0,6.63-3.56,6.63-7.94C1947.28,1218,1944.3,1214.44,1940.64,1214.44z"/></g><path class="st3" d="M2085.39,1226.2l-53.46,46.55c-3.86,3.36-9.72,2.96-13.08-0.9l-68.21-78.33c-3.36-3.86-2.96-9.72,0.9-13.08
		l53.46-46.55c3.86-3.36,9.72-2.96,13.08,0.9l68.21,78.33C2089.66,1216.98,2089.25,1222.84,2085.39,1226.2z"/><path class="st6" d="M2006.3,1220.33c-0.76,0.2-28.4,3.45-28.4,9.16c0,6.6,8.1,15.45,15.74,15.03
		c3.09-0.17,17.35-13.28,17.35-13.28L2006.3,1220.33z"/><path class="st6" d="M1992.11,1055.65c-3.14-7.63-4.98-19.24-4.93-33.62l-2.09,0.41l-35.11,6.95c0,0,0.8,11.05,0.82,21.45
		c0,0.09,0,0.17,0,0.26c0.04,9.04-6.11,18.11,8.39,21.69C1963.69,1073.91,1998.72,1071.66,1992.11,1055.65z"/><path class="st23" d="M1949.99,1029.39c0,0,0.8,11.05,0.82,21.45c19.64-0.55,30.03-18.47,34.28-28.41L1949.99,1029.39z"/><path class="st6" d="M1943.43,1039.25c0,0,46.48,0.77,46.51-28.18c0.03-28.95,6.05-48.35-23.62-50.07
		c-29.67-1.71-35.45,9.33-37.81,18.99C1926.15,989.65,1931.34,1038.3,1943.43,1039.25z"/><path class="st11" d="M1945.15,960.29c0,0,12.73,33.97,32.26,38.99c19.53,5.02,28-0.21,28-0.21s-14.98-11.9-18.09-32.67
		C1987.32,966.39,1954.75,944.12,1945.15,960.29z"/><path class="st11" d="M1948.31,963.05c0,0-9.44,3.53-13.32,10.41c-3.8,6.73-7.03,15.64-6.28,26.58c0,0-9.59-23.09,1.19-36.15
		C1941.31,950.04,1948.31,963.05,1948.31,963.05z"/><path class="st6" d="M2006.3,1220.33c0,0-6.62-2.13-11.05-1.51c-4.43,0.62-7.7-0.09-7.7,1.15c0,1.24,5.71,1.82,6.93,2.41
		C1995.7,1222.98,2006.3,1220.33,2006.3,1220.33z"/><path class="st5" d="M2014.57,1058.67c0,0,32.99,2.31,45.64,33.06c12.65,30.74,36.64,82.36,36.64,91.05s-13.4,35.45-85.39,50.84
		c0,0-7.44-7.83-6.99-14.03c0,0,44.94-38.6,44.82-43.11c-0.23-8.53-7.37-19.8-46.82-59.26
		C1991.74,1106.49,2014.57,1058.67,2014.57,1058.67z"/></g><g><g><path class="st16" d="M897.93,144.68c0,0-26.47-4.48-43.25,8.2c-16.78,12.68-19.47,8.58-28.94,16.41
			c-9.47,7.83,0.22,17.15-5,22.38c-5.22,5.22-5.42,15.29,2.32,17.9c7.75,2.61,2.53,16.78,19.31,18.65
			c16.78,1.86,9.26,9.63,25.18,10.81c15.91,1.18,29.08,1.73,37.47,5.25c8.39,3.52,15.99-0.12,18.39-6.5
			c2.4-6.39,9.11,1.85,11.07-6.88c1.96-8.73-5.03-12.18-1.12-19.27C937.28,204.53,946.96,154.19,897.93,144.68z"/><path class="st6" d="M943.71,652.72c-1.83,2.12-2.05,4.49-1.12,7c0,0.01,0.01,0.02,0.02,0.03c1.72,4.65,7.33,9.82,13.84,14.97
			c0.83,0.66,1.57,1.26,2.22,1.82c0.17,0.15,0.34,0.29,0.5,0.44c0.13,0.11,0.26,0.23,0.38,0.34c6.08,5.52,3.81,6.81,14.74,18.03
			c12.46,12.78,20.97,12.95,23.39,11.76c2.04-1.01-2.17-7.81-6.84-15.45c-0.23-0.37-0.45-0.74-0.68-1.11
			c-0.62-1.02-1.24-2.05-1.86-3.07c-5.47-9.19-4.11-13.54-2.93-27.28c0.96-11.17,16.93-62.49,16.93-62.49l-23.73-3.91
			c0,0-6.85,40.83-14.67,47.16c-4.18,3.38-8.89,3.45-12.91,5.96c-0.28,0.17-0.56,0.35-0.84,0.54
			C947.87,649.01,945.55,650.59,943.71,652.72z"/><path class="st16" d="M943.71,652.72c-1.83,2.12-2.05,4.49-1.12,7c0,0.01,0.01,0.02,0.02,0.03c2.1,4.64,7.57,9.78,13.86,14.92
			c0.82,0.67,1.55,1.29,2.19,1.87c0.17,0.15,0.34,0.29,0.5,0.44c0.13,0.11,0.26,0.23,0.38,0.34c6.08,5.52,3.81,6.81,14.74,18.03
			c12.46,12.78,20.97,12.95,23.39,11.76c2.04-1.01-2.17-7.81-6.84-15.45c-2.41-0.86-13.63-5.33-22.16-16.09
			c-7.51-9.45-12.57-21.62-17.69-28.66c-0.28,0.17-0.56,0.35-0.84,0.54C947.87,649.01,945.55,650.59,943.71,652.72z"/><path class="st6" d="M1134.71,636.57c1.52,7.31,11.93,6.01,23.56,3.08c11.63-2.93,8.88,0.47,25.45-1.48
			c16.57-1.95,21.55-8.17,22.04-10.64c0.44-2.19-7.76-2.9-16.56-3.85c-1.11-0.12-2.22-0.25-3.33-0.37
			c-9.93-1.17-17.24-7.53-26.29-12.72c-8.57-4.92-21.45-25.12-21.45-25.12l-22.73,1.96c0,0,12.06,18.04,16.73,25.89
			c2.75,4.62,2.65,10.75,2.34,15.48C1134.32,631.37,1134.17,634,1134.71,636.57z"/><path class="st16" d="M1158.28,639.66c11.63-2.93,8.88,0.47,25.45-1.48c16.57-1.95,21.55-8.17,22.04-10.64
			c0.44-2.19-7.76-2.9-16.56-3.85l-0.08,0.17c0,0-9.89,7.12-23.69,7.55c-11.25,0.35-23.19-2.79-30.95-2.61
			c-0.16,2.57-0.31,5.2,0.23,7.78C1136.23,643.88,1146.65,642.58,1158.28,639.66z"/><path class="st8" d="M1046.54,491.79l-20.85,57.35l-27.22,74.88c0,0-7.53,0.78-14.75-1.24c-6.65-1.87-14.31-6.84-14.31-6.84
			s7.14-80.25,21.19-126.38c3.6-11.84,7.66-21.43,12.18-26.84C1024.87,436.22,1046.54,491.79,1046.54,491.79z"/><path class="st5" d="M1024.29,401.1c-13.96-4.39-53.64,1.65-93.48,9.75l-8.45-13.72L836.13,391c0,0-27,59.73-12.14,103.34
			c2.88,8.46,16.69,8.76,16.69,8.76c0,0,50.52,0.55,67.17,0.43c42.86-0.3,90.5-30.1,96.68-31.38c10.12-2.1,14.31,18.14,24.59,39.34
			c10.28,21.2,95.9,93.55,95.9,93.55s13.08,0.04,18.47-2.03c5.79-2.22,7.9-5.07,7.9-5.07S1055.77,411.01,1024.29,401.1z"/><path class="st6" d="M895.19,264.24c0.14,0.09-15.06,5.4-25.28,0.96c-9.61-4.17-16.98-19.88-16.84-19.89
			c4.36-0.23,9.12-4.08,12.63-29.11l1.86,0.65l31.29,11.01c0,0-2.19,10.03-3.59,19.58C894.08,255.45,893.47,263.12,895.19,264.24z"/><path class="st24" d="M898.84,227.85c0,0-1.33,7.03-3.19,17.08c-17.95-3.1-25.51-18.41-28.11-28.09L898.84,227.85z"/><path class="st6" d="M903.56,237.76c0,0-42.75-5.43-38.95-32c3.79-26.57,0.83-45.16,28.28-42.82
			c27.45,2.34,31.3,13.24,32.19,22.41C925.97,194.54,914.78,238.49,903.56,237.76z"/><path class="st16" d="M923.42,170.82c0,0-27.17,23.75-45.75,25.78c-18.58,2.03-25.66-3.89-25.66-3.89s10.9-9.18,17.39-23.91
			c1.91-4.34,6-7.34,10.72-7.78C893.38,159.78,918.55,159.08,923.42,170.82z"/><path class="st16" d="M906.31,168.83c0,0,9.21,8.78,12.13,15.32c2.82,6.31,3.76,21.44,1.59,27.47c0,0,14.05-27.81,5.89-41.21
			C917.28,156.19,906.31,168.83,906.31,168.83z"/><path class="st22" d="M931.59,326.89c-0.68,86.45,0.13,68.38-9.27,76.65c-2.26,1.99-8.66,3.21-17.09,3.83
			c-26.49,1.95-73.12-2.09-74.93-6.98c-6.23-16.91-1.95-22.2-7.24-48.12c-0.55-2.76-1.23-5.74-2.03-8.99
			c-4.38-17.79-8.56-23.83,6.33-52.57c13.5-26.03,27.57-47.18,28.85-46.43c36.25,21.18,39.04,3.14,39.04,3.14
			S931.93,284.72,931.59,326.89z"/><path class="st5" d="M1025.69,549.14l-27.22,74.88c0,0-7.53,0.78-14.75-1.24c-6.65-1.87-14.31-6.84-14.31-6.84
			s7.14-80.25,21.19-126.38L1025.69,549.14z"/><path class="st22" d="M895.26,247.43c0,0,37.19,6.04,41.67,22c4.47,15.96,30.81,109.81,30.81,109.81s-18.86,3.53-27.65-5.14
			c-8.79-8.66-30.93-80.73-30.93-80.73L895.26,247.43z"/><path class="st25" d="M905.23,407.38c-26.49,1.95-73.12-2.09-74.93-6.98c-6.23-16.91-1.95-22.2-7.24-48.12l12.53-36.09
			c0,0-1.83,40.1,10.07,50.57c11.88,10.46,48.55,20.01,54.36,28.78C902.82,399.75,904.68,403.98,905.23,407.38z"/><path class="st6" d="M874.74,390.73c0,0,26.11-6.01,30.35-3.72c4.24,2.29,14.61,10.67,15.92,13.6c1.31,2.93-9.41-2.17-12.89-3.07
			c-2.25-0.59-8.17,1.51-11.09,2.51c-12.31,4.2-19.89,2.14-19.89,2.14L874.74,390.73z"/><path class="st22" d="M856.2,244.28c0,0-35.1,2.41-47.13,19.45c-16.94,23.99-50.17,125.93-30.62,139.36
			c22.02,15.12,99.73,3.29,99.73,3.29s2.5-12.12-1.14-17.95c-3.64-5.83-62.25-14.87-64.97-17.55c-2.72-2.68,33.4-52.92,33.34-61.03
			C845.36,301.75,856.2,244.28,856.2,244.28z"/><path class="st6" d="M906.41,394.28c0,0,5.53,7.03,7.33,7.86c1.8,0.83,2.96,0.61,2.96,0.61l-3.74-6.62L906.41,394.28z"/><path class="st6" d="M905.09,387.01l15.98,7.62c0,0-0.67,1.11-2.63,1.04c-1.96-0.08-6.92-1.85-6.92-1.85L905.09,387.01z"/></g><g><g><polygon class="st16" points="910.33,413.55 1036.34,412.66 1073.59,318.13 947.77,319.02 			"/><polygon class="st16" points="1037.8,408.98 871.39,410.15 871.42,413.83 1036.34,412.66 			"/></g><path class="st26" d="M1004.2,365.75c0.93-3.32-1.01-5.99-4.32-5.97c-3.31,0.02-6.75,2.73-7.68,6.05s1.01,5.99,4.32,5.97
			C999.84,371.78,1003.27,369.07,1004.2,365.75z"/></g></g><path class="st27" d="M269.36,1722.27h91.96c4.93-4.18-3.41-13.67-12.12-14.31c-3.78-0.29-8.57,0.51-14.04,1.66
	c-1.27-16.81-8.49-92.37-35.73-89.33c-30.62,3.4,0,33.28,8.66,50.96c6.41,13.1,13.18,31.89,16.27,40.75
	c-2.49,0.54-5.06,1.07-7.69,1.55c-4.06-12.46-19.16-54.38-38.37-51.94c-22.55,2.86-13.49,19.67,2.5,29.64
	c11.73,7.34,26.12,17.77,32.97,22.8c-5.8,0.95-11.85,1.58-17.98,1.44C280.03,1715.13,272.34,1719.77,269.36,1722.27z"/><path class="st27" d="M2259.65,1722.05h-101.74c-5.45-4.62,3.77-15.13,13.41-15.83c4.19-0.32,9.48,0.56,15.53,1.84
	c1.4-18.6,9.4-102.19,39.53-98.83c33.88,3.76,0,36.81-9.58,56.38c-7.1,14.49-14.58,35.28-18,45.09c2.75,0.6,5.6,1.18,8.51,1.72
	c4.49-13.79,21.2-60.17,42.45-57.47c24.95,3.16,14.92,21.76-2.76,32.8c-12.97,8.12-28.9,19.65-36.47,25.23
	c6.41,1.05,13.11,1.75,19.9,1.59C2247.85,1714.16,2256.35,1719.29,2259.65,1722.05z"/><path class="st16" d="M2405.11,1729.51h-2290c-1.6,0-2.9-1.31-2.9-2.9v-1.78c0-1.6,1.31-2.9,2.9-2.9h2290c1.6,0,2.91,1.31,2.91,2.9
	v1.78C2408.02,1728.2,2406.71,1729.51,2405.11,1729.51z"/><text transform="matrix(1 0 0 1 1025.6884 743.9888)" class="st28 st29">AGREEMENT</text><rect x="2980.37" y="118.85" style="fill:none" width="2.7" height="0"/><g><g><path class="st30" d="M1431.24,1932.11c3.22,0,3.22-5,0-5C1428.02,1927.11,1428.01,1932.11,1431.24,1932.11L1431.24,1932.11z"/></g></g></svg>