<?xml version="1.0" encoding="utf-8"?><!--Generator: Adobe Illustrator 25.2.1, SVG Export Plug-In . SVG Version: 6.00 Build 0)--><svg version="1.1" id="_x2018_лой_x5F_1" xmlns="http://www.w3.org/2000/svg" xmlns:xlink="http://www.w3.org/1999/xlink" x="0px" y="0px" viewBox="0 0 2630.94 1650.6" style="enable-background:new 0 0 2630.94 1650.6" xml:space="preserve"><style type="text/css">.st0{fill:#E8F2FA;}
	.st1{opacity:0.8;}
	.st2{fill:#D7E5FF;}
	.st3{fill:#8298BF;}
	.st4{fill:#2C3A64;}
	.st5{fill:#37466D;}
	.st6{fill:#223456;}
	.st7{fill:#C9D9F2;}
	.st8{fill:#209453;}
	.st9{fill:#E9F3FE;}
	.st10{fill:#5B6782;}
	.st11{fill:#4B586D;}
	.st12{fill:#F99746;}
	.st13{fill:#D5E5FB;}
	.st14{fill:#C6DCF7;}
	.st15{fill:#EBF3FA;}
	.st16{fill:#207253;}
	.st17{fill:#FFB27D;}
	.st18{fill:#163560;}
	.st19{fill:#E4E8F4;}
	.st20{fill:#D2D4D8;}
	.st21{fill:#233862;}
	.st22{fill:#2A4E96;}
	.st23{fill:#FFFFFF;}
	.st24{fill:#F4A269;}
	.st25{fill:#193B72;}
	.st26{fill:#1F6D3E;}
	.st27{fill:#F3F6FF;}
	.st28{fill:#0E2644;}
	.st29{fill:#1C468A;}
	.st30{fill:#FCA56B;}
	.st31{fill:#2F539B;}
	.st32{fill:#2E3A61;}
	.st33{fill:#F3B484;}
	.st34{fill:#243B65;}
	.st35{fill:#27385F;}
	.st36{fill:#1B2840;}
	.st37{fill:#429253;}
	.st38{fill:#E19A69;}</style><path class="st0" d="M2499.56,1637.95c-149.31,0-2324.3,0.53-2325.56-3.36l-0.21-0.49c0,0-0.21-0.48-0.21-0.72
	c-0.83-1.95-335.12-548.75,184.57-929.41c203.34-148.94-12.72-247.26,148.97-413.07c185.83-190.54,388.63,20.24,595.26-66.16
	c36.51-15.25,73.15-39.8,109.82-77.47c20.64-21.18,43.27-39.71,67.49-55.7c3.71-2.46,7.46-4.87,11.25-7.2
	c14.5-8.94,29.54-17.03,45.03-24.3c10.4-4.88,21-9.39,31.8-13.53h0.01c17.13-6.58,34.73-12.26,52.71-17.06
	c25.53-6.82,51.81-11.9,78.61-15.33c11.69-1.51,23.48-2.69,35.35-3.58c230.89-17.25,490.72,79.81,624.81,221.67
	c27,28.57,149.75,176.38,52.99,379.55c-61.1,128.27,194.86,250.79,285.81,397.27C2729.3,1381.46,2501.66,1633.09,2499.56,1637.95z"/><g class="st1"><path class="st2" d="M1160.96,648.66c0,20.12-1.81,39.83-5.29,58.97c-8.36,45.92-26.29,88.5-51.67,125.61
		c-58.96,86.23-158.09,142.82-270.44,142.82c-133.64,0-248.59-80.06-299.46-194.85c-6.71-15.12-12.31-30.85-16.67-47.08
		c-7.37-27.24-11.29-55.9-11.29-85.46c0-23.91,2.56-47.23,7.43-69.67c0.05-0.26,0.11-0.51,0.16-0.77
		c13.6-62.06,44.81-117.51,88.13-160.88c12.28-12.31,25.54-23.65,39.67-33.89c6.73-4.88,13.67-9.52,20.77-13.88
		c49.81-30.65,108.46-48.33,171.25-48.33c8.33,0,16.58,0.31,24.74,0.93c11.53,0.85,22.88,2.3,34.04,4.33
		c46.97,8.51,90.43,27.05,128.12,53.31h0.02c23.48,16.35,44.72,35.68,63.15,57.49c9.68,11.45,18.6,23.57,26.65,36.29
		c5.01,7.92,9.7,16.05,14.05,24.42c10.44,20.09,18.83,41.4,24.95,63.66C1156.89,589.36,1160.96,618.55,1160.96,648.66z"/><g><path class="st3" d="M722.32,502.1c-13.07,20.69,5.45,56.62-33.74,46.82c-39.2-9.8-63.15-14.16-65.33,7.61
			c-2.19,21.79,29.4,21.79,29.4,44.65c0,22.86-14.16,30.43-35.93,19.57c-21.79-10.86-28.04-26.65-53.36-16.85
			c-25.31,9.8-40.01,3.27-45.73-16.33c-1.01-3.45-2.42-6.24-4.07-8.57c0.05-0.26,0.11-0.51,0.16-0.77
			c13.6-62.06,44.81-117.51,88.13-160.88c12.28-12.31,25.54-23.65,39.67-33.89c6.73-4.88,13.67-9.52,20.77-13.88
			c10.21,0.38,22.41,4.25,32.81,17.12c22.86,28.32,38.1,14.16,32.66,46.82c-5.45,32.66,3.27,37.02,21.77,35.93
			c18.5-1.09,40.29-1.09,42.46,13.07C794.18,496.66,735.38,481.41,722.32,502.1z"/><path class="st3" d="M724.61,653.3c0,0-19.76,22.97-36.79,9.78c-17.03-13.19-11.88-21.45-36.82-13.18
			c-24.94,8.27-35.91-5.44-48.69,4.95c-12.78,10.39-2.41,11.69-11.25,33.72c-8.84,22.03-27.11,25.56-12.99,47.56
			c14.12,21.99,40.39,10.68,54.23,22.31c13.84,11.63,9.32,23.02,26.6,27.75c17.27,4.74,33.78-12.09,34.12,8.77
			c0.34,20.86-6.33,41.24,15.15,60.64c21.47,19.4,17.45,23.78,39.53,33.23c22.08,9.45,48.47,0.93,45.12-12.34
			c-3.35-13.27-31.8-15.94-32.37-30.92c-0.56-14.98,14.57-13.73,8.51-32.99c-6.07-19.27,10.87-29.66,5.15-42.11
			c-5.72-12.46-38.35-16.72-34.55-29.27c3.8-12.55,33.31-1.91,34.93-28.44c1.61-26.53-16.31-35.98-13.67-61.86
			C763.45,625.01,727.63,637.4,724.61,653.3z"/><path class="st3" d="M1160.96,648.66c0,20.12-1.81,39.83-5.29,58.97c-8.36,45.92-26.29,88.5-51.67,125.61
			c-8.66,2.84-17.49,2.78-26.18-0.7c-40.83-16.33-10.62-60.43,5.72-82.48c16.33-22.05-25.31-12.25-55.53-32.66
			c-30.21-20.41,3.27-75.13-27.76-66.14c-31.03,8.98-68.59,20.41-86.56-9.8c-17.96-30.21,16.33-35.11,0.82-60.43
			c-15.52-25.31,8.98-40.01,40.01-42.46c31.03-2.45,26.95-24.5,65.33-27.76c38.38-3.27,37.56,45.73,80.03,42.46
			c42.46-3.27,40.55,6.53,40.55,6.53c3.05-0.08,6.03,0.56,8.87,1.86C1156.89,589.36,1160.96,618.55,1160.96,648.66z"/><path class="st3" d="M1124.32,498c-35.31,17.18-49.48-29.54-79.67-15.5c-30.43,14.16-25.1-13.07-49.04-30.49
			c-23.96-17.41-71.86,14.16-69.69-13.07c2.17-27.21,38.1-19.6,45.73-41.37c7.63-21.77,42.46-16.33,42.46-16.33
			c1.98-0.75,4.1-1.24,6.34-1.44c0,0,0-0.02,0.02,0c23.48,16.35,44.72,35.68,63.15,57.49c9.68,11.45,18.6,23.57,26.65,36.29
			C1115.29,481.51,1119.98,489.64,1124.32,498z"/><path class="st3" d="M826.85,404.11c0,0,18.51-26.71-10.89-34.58c-29.4-7.88-28.85,2.43-51.72,0
			c-22.86-2.43-31.85,15.26-14.7,34.58c17.15,19.33,31.03,56.41,46.55,36.64C811.6,420.99,808.61,406.02,826.85,404.11z"/></g></g><path class="st4" d="M1227.54,1001.48l-50.15,596.27c0,0-5.25,36.14,21.63,36.21c44.21,0.11,220.03,0,220.03,0
	s-33.27-7.52-32.87-24.45c0.47-19.96,58.61-613.67,58.61-613.67L1227.54,1001.48z"/><path class="st5" d="M1435.6,1623.38c-8.69,0.03-178.91,0.31-221.96-0.24c-18.76-0.23-22.05-16.68-22.21-27.33
	c-0.08-5.1,0.57-8.88,0.57-8.88l1.3-15.5l3.32-39.5l2.94-34.9l3.77-44.84l3.18-37.85l35.63-423.69l217.26-5.64
	c0,0-24.49,248.47-41.81,429.33c-1.93,20.15-3.77,39.47-5.47,57.51c-0.55,5.76-1.08,11.39-1.6,16.87
	c-1.61,17.11-3.07,32.83-4.35,46.7c-0.67,7.31-1.29,14.11-1.86,20.33c-2.21,24.39-3.5,39.97-3.52,42.93
	c-0.01,1.73,0.14,3.33,0.42,4.83C1404.79,1622.52,1432.34,1623.38,1435.6,1623.38z"/><polygon class="st5" points="699.92,677.01 822.08,1167.67 838.8,1234.87 895.69,1463.4 1952.66,1463.4 1742.97,677.01 "/><polygon class="st4" points="699.92,677.01 682.99,682.65 873.19,1480.47 895.7,1463.4 "/><polygon class="st4" points="873.19,1480.47 1923.65,1480.47 1952.66,1463.4 895.7,1463.4 "/><rect x="1242.08" y="1623.38" transform="matrix(-1 -1.224647e-16 1.224647e-16 -1 2711.5989 3257.5713)" class="st6" width="227.44" height="10.81"/><polygon class="st4" points="1411.7,1480.47 1410.53,1488.73 1196.63,1531.94 1199.57,1497.04 1200.97,1480.47 "/><path class="st4" d="M1435.6,1623.38c-8.69,0.03-178.91,0.31-221.96-0.24c-18.76-0.23-22.05-16.68-22.21-27.33l212.89-40.05
	c-2.21,24.39-3.5,39.97-3.52,42.93c-0.01,1.73,0.14,3.33,0.42,4.83C1404.79,1622.52,1432.34,1623.38,1435.6,1623.38z"/><polygon class="st5" points="699.92,677.01 1742.97,677.01 1912.2,1309.02 857.26,1309.02 "/><polygon class="st7" points="1863.01,1281.63 886.4,1281.63 851.5,1142.61 838,1088.82 832.49,1066.88 796.63,924.01 794.77,916.57 
	775.81,841.05 767.32,807.26 760.09,778.44 743.13,710.87 1705.65,710.87 1724.28,778.44 1732.23,807.26 1741.54,841.05 
	1802.91,1063.66 1802.91,1063.67 1808.11,1082.53 1810.53,1091.29 1852.9,1244.98 "/><polygon class="st8" points="1724.28,778.44 760.09,778.44 743.13,710.86 1705.66,710.86 "/><g><path class="st9" d="M782.95,741.4c-1.16-4.67,1.68-8.45,6.34-8.45c4.67,0,9.39,3.78,10.55,8.45c1.16,4.67-1.68,8.45-6.34,8.45
		C788.84,749.85,784.11,746.07,782.95,741.4z"/><path class="st9" d="M811.02,741.4c-1.16-4.67,1.68-8.45,6.34-8.45c4.67,0,9.39,3.78,10.55,8.45c1.16,4.67-1.68,8.45-6.34,8.45
		C816.9,749.85,812.18,746.07,811.02,741.4z"/><path class="st9" d="M841.24,741.4c-1.16-4.67,1.68-8.45,6.34-8.45c4.67,0,9.39,3.78,10.55,8.45c1.16,4.67-1.68,8.45-6.34,8.45
		C847.13,749.85,842.4,746.07,841.24,741.4z"/></g><polygon class="st4" points="1253.54,1309.02 896.05,1465.25 857.26,1309.02 "/><g><g><path class="st10" d="M1735.81,294.53c-4.72,1.76-7.76,5.84-7.76,10.34v99.76c0,20.41,9.69,39.52,25.93,51.16l58.6,37.56
			c3.89,2.5,9.19,2.5,13.1,0l58.6-37.56c16.24-11.64,25.93-30.75,25.93-51.16v-99.49c0-4.63-3.24-8.79-8.14-10.48
			C1830.89,270.29,1802.35,269.63,1735.81,294.53L1735.81,294.53z"/><path class="st11" d="M1902.08,294.66c-34.65-11.86-59.2-18.09-82.94-18.5v219.06c2.3,0,4.59-0.62,6.55-1.87l58.6-37.56
			c16.24-11.64,25.93-30.75,25.93-51.16v-99.5C1910.22,300.51,1906.98,296.34,1902.08,294.66L1902.08,294.66z"/></g><g><polygon class="st12" points="1829.36,170.49 1852.37,173.51 1835.97,189.93 1840.21,212.75 1819.52,202.23 1799.13,213.31 
			1802.74,190.38 1785.9,174.41 1808.82,170.76 1818.81,149.82 		"/><polygon class="st12" points="1829.36,566.96 1852.37,569.99 1835.97,586.41 1840.21,609.23 1819.52,598.71 1799.13,609.79 
			1802.74,586.86 1785.9,570.89 1808.82,567.24 1818.81,546.3 		"/><polygon class="st12" points="1659.93,267.85 1682.93,270.87 1666.54,287.29 1670.77,310.11 1650.09,299.59 1629.69,310.67 
			1633.31,287.75 1616.47,271.77 1639.39,268.13 1649.37,247.18 		"/><polygon class="st12" points="2001.15,267.85 2024.15,270.87 2007.76,287.29 2011.99,310.11 1991.31,299.59 1970.91,310.67 
			1974.53,287.75 1957.69,271.77 1980.61,268.13 1990.59,247.18 		"/><polygon class="st12" points="1659.93,470.78 1682.93,473.8 1666.54,490.23 1670.77,513.04 1650.09,502.52 1629.69,513.6 
			1633.31,490.68 1616.47,474.71 1639.39,471.06 1649.37,450.11 		"/><polygon class="st12" points="2001.15,470.78 2024.15,473.8 2007.76,490.23 2011.99,513.04 1991.31,502.52 1970.91,513.6 
			1974.53,490.68 1957.69,474.71 1980.61,471.06 1990.59,450.11 		"/><polygon class="st12" points="1733.38,196.68 1756.39,199.71 1739.99,216.13 1744.23,238.95 1723.54,228.43 1703.15,239.51 
			1706.76,216.58 1689.92,200.61 1712.84,196.96 1722.83,176.01 		"/><polygon class="st12" points="1930.35,196.68 1953.36,199.71 1936.96,216.13 1941.19,238.95 1920.51,228.43 1900.12,239.51 
			1903.73,216.58 1886.89,200.61 1909.81,196.96 1919.8,176.01 		"/><polygon class="st12" points="1733.38,541.48 1756.39,544.51 1739.99,560.93 1744.23,583.75 1723.54,573.23 1703.15,584.31 
			1706.76,561.38 1689.92,545.41 1712.84,541.76 1722.83,520.82 		"/><polygon class="st12" points="1930.35,541.48 1953.36,544.51 1936.96,560.93 1941.19,583.75 1920.51,573.23 1900.12,584.31 
			1903.73,561.38 1886.89,545.41 1909.81,541.76 1919.8,520.82 		"/><polygon class="st12" points="1632.82,374.59 1655.82,377.62 1639.43,394.04 1643.66,416.85 1622.98,406.34 1602.58,417.41 
			1606.2,394.49 1589.36,378.52 1612.28,374.87 1622.26,353.92 		"/><polygon class="st12" points="2034.38,374.59 2057.39,377.62 2040.99,394.04 2045.22,416.85 2024.54,406.34 2004.15,417.41 
			2007.76,394.49 1990.92,378.52 2013.84,374.87 2023.83,353.92 		"/></g></g><g><g><g><g><g><path class="st13" d="M396.74,928.83c0.85,0.84,0.86,2.22,0.01,3.08c-0.85,0.85-2.22,0.86-3.08,0.01
						c-0.85-0.84-0.86-2.22-0.01-3.08C394.51,927.99,395.89,927.98,396.74,928.83z"/><path class="st13" d="M389.66,935.98c0.85,0.85,0.86,2.22,0.01,3.08c-0.85,0.85-2.22,0.86-3.07,0.01
						c-0.85-0.85-0.86-2.22-0.01-3.08C387.43,935.14,388.81,935.13,389.66,935.98z"/><path class="st13" d="M379.41,943.23c0.85-0.85,2.22-0.86,3.07-0.01c0.85,0.84,0.86,2.22,0.01,3.08
						c-0.85,0.85-2.22,0.86-3.08,0.01C378.57,945.46,378.56,944.09,379.41,943.23z"/></g><g><path class="st13" d="M375.31,950.46c0.85,0.84,0.86,2.22,0.01,3.08c-0.85,0.85-2.22,0.86-3.08,0.01
						c-0.85-0.84-0.86-2.22-0.01-3.07C373.08,949.62,374.46,949.62,375.31,950.46z"/><path class="st13" d="M368.23,957.61c0.85,0.85,0.86,2.22,0.01,3.08c-0.85,0.85-2.22,0.86-3.07,0.01
						c-0.85-0.85-0.86-2.22-0.01-3.08C366,956.77,367.38,956.76,368.23,957.61z"/><path class="st13" d="M357.98,964.87c0.85-0.85,2.22-0.86,3.07-0.01c0.85,0.85,0.86,2.22,0.01,3.08
						c-0.85,0.85-2.22,0.86-3.08,0.01C357.14,967.09,357.13,965.72,357.98,964.87z"/></g></g><g><g><path class="st13" d="M354.17,971.8c0.85,0.84,0.86,2.22,0.01,3.08c-0.85,0.85-2.22,0.86-3.08,0.01
						c-0.85-0.84-0.86-2.22-0.01-3.07C351.94,970.96,353.31,970.96,354.17,971.8z"/><path class="st13" d="M347.09,978.95c0.85,0.85,0.86,2.22,0.01,3.08c-0.85,0.85-2.22,0.86-3.07,0.01
						c-0.85-0.85-0.86-2.22-0.01-3.08C344.86,978.11,346.23,978.11,347.09,978.95z"/><path class="st13" d="M336.84,986.21c0.84-0.85,2.22-0.86,3.07-0.01c0.85,0.85,0.86,2.22,0.01,3.08
						c-0.84,0.85-2.22,0.86-3.07,0.01C336,988.44,335.99,987.06,336.84,986.21z"/></g><g><path class="st13" d="M332.74,993.43c0.85,0.84,0.86,2.22,0.01,3.08c-0.85,0.85-2.22,0.86-3.08,0.01
						c-0.85-0.85-0.86-2.22-0.01-3.08C330.51,992.6,331.88,992.59,332.74,993.43z"/><path class="st13" d="M325.65,1000.58c0.85,0.84,0.86,2.22,0.01,3.07c-0.85,0.85-2.22,0.86-3.07,0.01
						c-0.85-0.84-0.86-2.22-0.01-3.08C323.42,999.74,324.8,999.74,325.65,1000.58z"/><path class="st13" d="M315.41,1007.84c0.85-0.85,2.22-0.86,3.07-0.01c0.85,0.85,0.86,2.22,0.01,3.08
						c-0.85,0.85-2.22,0.86-3.08,0.01C314.57,1010.07,314.56,1008.69,315.41,1007.84z"/></g></g></g></g><g><g><ellipse transform="matrix(0.1626 -0.9867 0.9867 0.1626 -494.0401 1179.4579)" class="st14" cx="447.83" cy="880.78" rx="47.42" ry="47.42"/></g><g><path class="st15" d="M432.61,861.76c0-8.41,6.81-15.22,15.22-15.22c8.4,0,15.22,6.81,15.22,15.22c0,8.4-6.81,15.22-15.22,15.22
				C439.43,876.98,432.61,870.16,432.61,861.76z"/><path class="st15" d="M447.83,876.98c-14.71,0-26.63,11.92-26.63,26.63h53.27C474.47,888.9,462.54,876.98,447.83,876.98z"/></g></g><g><path class="st14" d="M276.16,1027.12l-1.76-4.35c-1.88-4.67-6.41-7.72-11.44-7.72h-32.42v20.57v87.81h134.09v-87.81h-75.88
			C283.21,1035.61,278.23,1032.25,276.16,1027.12z"/><g><path class="st15" d="M317.64,1064.53h-4.48c0.13-0.73,0.2-1.48,0.2-2.24v-1.53c0-7.06-5.75-12.81-12.81-12.81h-7.88
				c-7.06,0-12.81,5.75-12.81,12.81v1.53c0,0.76,0.07,1.51,0.2,2.24h-4.98c-2.6,0-4.71,2.11-4.71,4.72v20.56
				c0,11.64,9.43,21.07,21.07,21.07h12.44c10.94,0,19.8-8.86,19.8-19.8v-20.51C323.68,1067.23,320.98,1064.53,317.64,1064.53z
				 M298.53,1085.22v9.55c0,0.83-0.68,1.5-1.51,1.5s-1.51-0.68-1.51-1.5v-9.55c-3.11-0.69-5.44-3.46-5.44-6.78
				c0-3.84,3.11-6.95,6.95-6.95c3.84,0,6.95,3.11,6.95,6.95C303.98,1081.76,301.65,1084.53,298.53,1085.22z M308.24,1062.28
				c0,0.78-0.12,1.53-0.33,2.24h-22.58c-0.22-0.71-0.34-1.46-0.34-2.24v-1.53c0-4.24,3.45-7.69,7.69-7.69h7.88
				c4.24,0,7.69,3.45,7.69,7.69V1062.28z"/></g></g></g><path class="st12" d="M763.36,1319.96l-2.15-5.66c-5.43-14.3-21.39-12.48-35.89-12.48H631.9v63.02v269.04h386.42v-300.8H799.66
	C783.7,1333.08,769.34,1335.69,763.36,1319.96z"/><g><g><path class="st8" d="M2425.67,1635.33l-501.38-0.01c-69.9-80.33-67.01-178.13,28.37-266.94c17.12-15.94,47.01-33.1,71.14-38.86
			c44.48-10.61,94.92-13.05,95.31-13.26c0.15-0.06,56.07-7.84,72.02-27.25c49.55-60.26,62.29-68.89,62.29-68.89
			c50.51-9.87,93.59-12.77,125.53,5.09c0,0.01,0,0.01,0.01,0.02c29.59,16.57,49.62,50.97,57.12,114.2
			c1.42,11.95,2.4,24.94,2.9,39.03c1.83,51.31,11.9,96.95,17.88,135.6c0.01,0,0.01,0.01,0.01,0.01
			C2465.53,1570.06,2471.65,1612.63,2425.67,1635.33z"/></g><path class="st16" d="M2353.93,1289.32c-30.65,16.69-34.04,71.69-82,85.89c-47.97,14.21-129.39,12.91-175.58,63.01
		c-44.56,48.34-93.7-74.64-72.54-109.23c44.48-10.56,94.92-12.99,95.31-13.21c0.15-0.06,68.41-0.33,84.36-19.65
		c49.55-59.99,49.95-76.05,49.95-76.05c50.51-9.83,93.59-12.71,125.53,5.06c0,0.01,0,0.01,0.01,0.02
		C2414.15,1261.53,2384.58,1272.63,2353.93,1289.32z"/><path class="st16" d="M2456.85,1512.69c-70.34-87.8-214.84,31.89-252.23,28.52c-34.38-3.11,67.04-123.11,192.81-140.97
		c50.84-7.22,38.66-59.76,38.64-61.38c1.42,11.9,2.4,24.83,2.9,38.86C2440.81,1428.78,2450.88,1474.22,2456.85,1512.69z"/><g><g><path class="st17" d="M2064.56,1560.48c-4.92,9.48-6.03,26.92-7.49,32.84c-1.46,5.91-27.24,26.02-29.45,25.01
				c-5.64-2.54-0.25-12.37,3.19-19.55c0.14-0.29,0.27-0.58,0.41-0.86c3.4-7.24,0.48-23.39,2.23-31.73c1.76-8.34-6.7-30.8-6.7-30.8
				l14.24-17.99c0,0,10.01,19.04,17.17,22.51c1.26,0.62,2.44,1.36,3.49,2.22C2066.5,1546.14,2068.6,1552.68,2064.56,1560.48z"/><path class="st18" d="M2255.41,1082.1c-13.73,1.15-26.54,7.32-36.49,16.85c-6.29,6.03-13.27,14.27-17.58,24.11
				c-9.39,21.44-6.16,46.38-11.53,60.07c-5.37,13.69-8.59,16.07,0,22.27c8.59,6.2,10.03,12.1-0.24,18.67
				c-10.27,6.57-17.85,27.04,10.8,28.82c28.65,1.78,84.18-8.62,91.32-13.92c7.14-5.29,26.64-13.17,35.98-27.35
				c18.69-28.33,3.8-47.37-10.63-52.17C2295.05,1152.15,2303.14,1078.1,2255.41,1082.1z"/><path class="st19" d="M2217.79,1200.79c0,0-28.4,64.12-34.32,69.7c-5.92,5.58-33.63,16.47-31.14,25.81
				c2.49,9.34,23.35,18.37,32.07,16.19c8.72-2.18,30.82-39.85,30.82-39.85L2217.79,1200.79z"/><path class="st20" d="M2154.65,1301.91c0,0,1.54-11.03,28.45-14.59c14.94-1.97,39.93-43.64,39.93-43.64l-24.99,65.69
				l-24.22,10.47L2154.65,1301.91z"/><path class="st21" d="M2165.58,1322.64c0,0-140.19-9.81-159.4,12.44c-15.24,17.65,12.51,210.51,12.51,210.51
				s38.15,1.11,41.15-8.99c0,0-7.12-93.63-1.16-109.82c5.96-16.19,2.19-38.6,2.19-38.6s74.64,11.18,98.32,5.51
				C2182.89,1388.01,2165.58,1322.64,2165.58,1322.64z"/><path class="st17" d="M2014.5,1616.04c-9.87,4.07-21.97,16.68-26.9,20.26c-4.93,3.58-37.6,2.3-38.64,0.11
				c-2.77-5.8,8.65-9.93,15.91-13.27c0.11-0.05,0.21-0.1,0.32-0.15l0.02-0.02c7.18-3.61,15.21-17.48,21.84-22.64
				c6.72-5.24,14.75-27.85,14.75-27.85l22.48-4.56c0,0-4.63,21.01-1.4,28.27c0.3,0.69,0.56,1.38,0.77,2.08
				C2025.72,1605.01,2023.45,1612.34,2014.5,1616.04z"/><path class="st22" d="M2227.21,1329.49c0,0-152.96,15.54-166.4,31.15c-13.44,15.61-66.29,218.62-66.29,218.62
				s15.61,8.7,29.8,0.57c0,0,40.47-68.87,58.38-90.49c17.9-21.62,24.27-78.09,33.82-84.16c2.56-1.63,92.55,8.49,125.56-16.84
				C2275.08,1363.01,2227.21,1329.49,2227.21,1329.49z"/><path class="st23" d="M2293.89,1329.76c-3.93,7.54-8.21,14.61-12.77,20.98c-11.45,15.96-24.71,27.44-39.07,30.42
				c-20.87,4.33-90.82-36.27-87.28-58.67c1.92-12.19,40.8-34.1,47.07-42.95c6.26-8.84,10.04-53.18,13.38-71.28
				c2.49-13.47,10.84-14.87,21.28-18.45c44.33-15.19,75.89,0.88,75.89,0.88C2332.68,1202.11,2321.4,1277.15,2293.89,1329.76z"/><path class="st18" d="M2291.76,1144.55c0,0,2.38-10.87,3.33-22.48c0.68-8.29-11.91-35.31-31.46-34.19c0,0-8.74,1.7-16.5,8.08
				c-6.17,5.07-14.79,15.58-1.66,40.95l3.6,8.65L2291.76,1144.55z"/><g><path class="st17" d="M2252.13,1188.23c0.64,4.63,4.76,7.27,13.94,6.68c9.3-0.6,22.49-6.23,21.4-10.53
					c-0.96-3.76-5.11-12.58-6.79-35.01l-1.69,0.47l-28.41,7.98c0,0,1.37,9.03,2.06,17.59
					C2253.23,1182.59,2251.81,1185.88,2252.13,1188.23z"/><path class="st24" d="M2250.58,1157.82c0,0,1.37,9.03,2.06,17.59c16.12-1.72,23.49-17.13,26.35-25.57L2250.58,1157.82z"/><path class="st17" d="M2249.98,1170.96c0,0,37.18-9.35,31-32.41s-5.54-39.8-29.54-34.81c-24,4.99-26.23,15.02-26.04,23.22
					C2225.58,1135.16,2240.15,1172.79,2249.98,1170.96z"/><path class="st18" d="M2234.43,1107.71c0,0,12.48,23.79,36.03,26.35c13.78,1.5,17.56,10.58,17.56,10.58s-4.13-25.96-11.06-41.84
					C2276.95,1102.8,2238.61,1092.78,2234.43,1107.71z"/><path class="st18" d="M2238.68,1110.86c0,0-8.14,8.31-10.65,14.16c-3.72,8.67,3.53,26.95,6.53,30.89c0,0-17.3-29.35-11.52-42.06
					C2229.17,1100.37,2238.68,1110.86,2238.68,1110.86z"/></g><path class="st17" d="M2125.29,1324.94c0,0-7.4,7.84-8.3,8.26c-4.9,2.29-11.08,0.96-14.07,1.71c-2.99,0.75-2.47-1.11-0.27-2.62
				c2.2-1.51,7.63-0.92,5.41-1.47c-2.22-0.55-14.18-2.78-18.69-1.58c-7.13,1.91-12.76-0.33-13.21-1.06s16.29-8.91,21.07-8.63
				c4.78,0.28,18.53-0.38,18.53-0.38L2125.29,1324.94z"/><path class="st17" d="M2324.97,1205.16c0,0,4.45,109.04-8.37,124.33c-12.43,14.82-65.52,4.76-88.46-0.22
				c-1.11-0.24-3.46-0.01-5.12,1.48c-1.79,1.61-2.57-10.91-2.57-10.91s69.25-10.13,73.9-11.45c6.69-1.89,2.03-76.98,2.03-76.98
				L2324.97,1205.16z"/><path class="st17" d="M2225.85,1327.8c0,0-6.21,6.29-8.57,9.5c-2.36,3.21-18.86,9.03-19.23,7.31c-0.37-1.72,7.38-6.96,8.09-8.91
				s9.16-11.76,14.31-12.88C2225.6,1321.71,2225.85,1327.8,2225.85,1327.8z"/><path class="st17" d="M2220.45,1319.83c0,0-25.44,5.88-29.76,7.65c-4.32,1.76-13.48,14.73-9.84,16.67
				c2.29,1.23,12.33-4.07,17.43-5.18c5.1-1.1,19.54,1.4,26.15-11.65C2225.16,1325.85,2220.45,1319.83,2220.45,1319.83z"/><path class="st22" d="M2014.5,1616.04c-9.87,4.07-21.97,16.68-26.9,20.26c-4.93,3.58-37.6,2.3-38.64,0.11
				c-2.77-5.8,8.65-9.93,15.91-13.27c0.11-0.05,0.21-0.1,0.32-0.15l0.02-0.02l1.02-0.33c0,0,14.09,5.03,25.8,0
				c9.14-3.92,22.69-18.46,31.62-24.37C2025.72,1605.01,2023.45,1612.34,2014.5,1616.04z"/><path class="st25" d="M2064.56,1560.48c-4.92,9.48-6.03,26.92-7.49,32.84c-1.46,5.91-27.24,26.02-29.45,25.01
				c-5.64-2.54-0.25-12.37,3.19-19.55c2.03-0.12,4.71-0.83,7.87-2.93c6.44-4.29,17.37-20.49,18.35-30.06
				c0.8-7.79,0.3-18.96,4.62-23.66C2066.5,1546.14,2068.6,1552.68,2064.56,1560.48z"/><g><g><polygon class="st8" points="2187.64,1347.44 2076.81,1347.44 2043.47,1264.53 2154.13,1264.53 					"/><polygon class="st26" points="2075.51,1344.21 2221.86,1344.21 2221.86,1347.44 2076.81,1347.44 					"/></g><path class="st23" d="M2104.79,1305.98c-0.83-2.92,0.85-5.28,3.76-5.28c2.91,0,5.95,2.36,6.79,5.28
					c0.84,2.91-0.85,5.28-3.76,5.28S2105.62,1308.9,2104.79,1305.98z"/></g><path class="st20" d="M2293.89,1329.76c-3.93,7.54-8.21,14.61-12.77,20.98c-35.52-1.33-44.09-15.68-44.09-15.68L2293.89,1329.76z
				"/><path class="st19" d="M2238.7,1316.2c0,0,40.55-9.31,45.59-18.02c5.04-8.72,12.09-66.77,12.09-66.77l16.92,21.69l-3.42,51.04
				c0,0-19.3,19.1-20.55,18.4C2288.08,1321.83,2238.7,1316.2,2238.7,1316.2z"/><path class="st23" d="M2312.4,1190.7c0,0,9.61,4.83,13.32,11.61c7.05,12.88,14.58,112.69-5.46,129.18
				c-20.03,16.49-78.18,13.2-85.02,1.53c0,0-0.48-10.95,3.45-16.83c0,0,52.34-6.92,54.68-10.21c2.33-3.3-1.69-74.01,0.78-80.43
				C2296.63,1219.13,2312.4,1190.7,2312.4,1190.7z"/></g></g><path class="st8" d="M2321.1,1330.41c0,0-15.11,14.16-78.33,16.19c-49.44,1.59-101.51,21.52-125.84,55.75
		c-6.78,9.55-11.47,25.27-13.27,35.86c-3.3,19.46,120,49.71,121.98,46.89c1.98-2.82,81.21-70.89,81.21-70.89L2321.1,1330.41z"/></g><g><path class="st27" d="M1749.4,940.02c0,0,61.49,63.75,64.39,87.74c2.91,23.99-29.45,61.45-29.45,61.45L1749.4,940.02z"/><path class="st28" d="M1721.62,1600.71c0,0-2.17,33.81-8.71,34.29c-0.87,0.06-33.19-0.01-33.19-0.01l-41.25-0.33
		c0,0,0.29-9.94,12.35-12.01c12.06-2.08,32.26-10.51,39.6-26.43C1698.15,1579.46,1721.62,1600.71,1721.62,1600.71z"/><path class="st28" d="M1813.5,1600.9c0,0-2.17,33.82-8.71,34.29c-0.87,0.06-33.19-0.01-33.19-0.01l-41.25-0.33
		c0,0,0.29-9.94,12.35-12.01c12.06-2.08,32.26-10.5,39.6-26.43C1790.03,1579.66,1813.5,1600.9,1813.5,1600.9z"/><path class="st18" d="M1676.72,1237.14c0,0,10.64,69.03,50.62,191.61c39.98,122.58,45.35,175.63,45.35,175.63l43.18-1.12
		c0,0,0.66-133.87-17.75-195.5c-18.41-61.64-3.52-222.07-3.52-222.07L1676.72,1237.14z"/><path class="st29" d="M1655.82,1189.17c0,0-1.75,103.98,15.96,231.69c17.71,127.71,11.5,181.89,11.5,181.89l43.09,1.53
		c0,0,26.03-127.67,18.78-191.58c-7.24-63.92,35.74-219.21,35.74-219.21L1655.82,1189.17z"/><path class="st17" d="M1739.76,946.01l-22.99,15l-33.17-6.26c0.46-2.68,2.68-13.77,4.7-23.82c0.12-0.59,0.24-1.19,0.36-1.77
		c1.73-8.55,3.22-15.9,3.22-15.9l31.02-13.61l11.57-5.07c-0.03,0.18-0.92,9.49-1.04,10.85
		C1731.2,929.59,1739.76,946.01,1739.76,946.01z"/><path class="st19" d="M1692.14,938.31c0.64-0.27,39.98-11.79,44.25-10.37c4.27,1.42,6.78,9.69,6.78,9.69l-64.33,14.4
		C1678.83,952.03,1683.92,941.75,1692.14,938.31z"/><path class="st23" d="M1797.42,1202.31c-6.73,30.38-117.64,33.75-146.16,6.09c-3.25-3.15-3.37-17.79-2.1-37.51
		c2.48-38.54,10.31-96.51,10.68-126.13c0.18-14.31,2.17-28.93,4.82-42.21c5.63-28.31,14.18-50.51,14.18-50.51
		s54.2-17.39,64.33-14.39C1791.96,952.09,1804.15,1171.93,1797.42,1202.31z"/><path class="st19" d="M1649.16,1170.89c2.48-38.54,10.31-96.51,10.68-126.13c0.18-14.31,2.17-28.93,4.82-42.21l32.6-5.68
		C1697.25,996.86,1728.83,1127.05,1649.16,1170.89z"/><path class="st17" d="M1666.92,1117.2c0,0,2.21,5.31-2.46,8.87s-7.71,9.32-6.65,13.54c1.06,4.22,11.28,11.13,14.83,10.03
		c3.55-1.1,10.78-6.65,10.01-8.87c-0.77-2.23,4.9-19.52-3.73-26.21C1670.27,1107.88,1666.92,1117.2,1666.92,1117.2z"/><path class="st23" d="M1703.73,944.29c0,0-31.79,5.88-57.19,43.14c-25.4,37.26-42.12,64.97-37.49,78.42
		c4.63,13.46,47.05,60.19,54.38,60.21c7.33,0.02,19.17-5.29,19.86-17.28c0,0-29.84-44.93-23.92-51.64
		c2.53-2.87,38.93-32.29,44.09-18.95C1712,1060.26,1703.73,944.29,1703.73,944.29z"/><path class="st30" d="M1731.09,905.87c-6.83,11.51-32.21,21.43-42.79,25.07c0.12-0.59,0.24-1.19,0.36-1.77
		c1.73-8.55,3.22-15.9,3.22-15.9l31.02-13.61C1729.75,899.59,1733.91,901.13,1731.09,905.87z"/><path class="st17" d="M1680.2,911.36c0,0,49.88,15.68,59.17-15.54c9.29-31.22,21.98-50.21-9.48-61.55
		c-31.46-11.33-41.22-1.27-46.85,8.4C1677.41,852.34,1667.46,906.48,1680.2,911.36z"/><path class="st18" d="M1685.01,839.67c0,0,3.1,36.36,10.62,34.79c7.52-1.56,14.34-2.72,13.22,8.24
		c-1.12,10.95-11.58,23.58,11.59,25.57c23.16,1.99,56.6-57.68,50.26-69.01C1752.4,806.59,1658.56,799.8,1685.01,839.67z"/></g><g><g><g><g><g><g><path class="st13" d="M2087.5,745.27c-0.93,0.92-0.94,2.42-0.02,3.35s2.42,0.94,3.35,0.02c0.93-0.92,0.94-2.42,0.02-3.35
							C2089.93,744.35,2088.43,744.35,2087.5,745.27z"/><path class="st13" d="M2095.21,753.05c-0.93,0.92-0.94,2.42-0.02,3.35c0.92,0.93,2.42,0.94,3.35,0.02
							c0.93-0.92,0.94-2.42,0.02-3.35C2097.64,752.13,2096.14,752.13,2095.21,753.05z"/><path class="st13" d="M2106.37,760.95c-0.92-0.93-2.42-0.94-3.35-0.02c-0.93,0.92-0.94,2.42-0.02,3.35s2.42,0.94,3.35,0.02
							C2107.28,763.38,2107.29,761.88,2106.37,760.95z"/></g><g><path class="st13" d="M2110.83,768.82c-0.93,0.92-0.94,2.42-0.02,3.35c0.92,0.93,2.42,0.94,3.35,0.02
							c0.93-0.92,0.94-2.42,0.02-3.35C2113.26,767.9,2111.76,767.9,2110.83,768.82z"/><path class="st13" d="M2118.54,776.6c-0.93,0.92-0.94,2.42-0.02,3.35c0.92,0.93,2.42,0.94,3.35,0.02
							c0.93-0.92,0.94-2.42,0.02-3.35C2120.97,775.69,2119.47,775.68,2118.54,776.6z"/><path class="st13" d="M2129.7,784.5c-0.92-0.93-2.42-0.94-3.35-0.02c-0.93,0.92-0.94,2.42-0.02,3.35s2.42,0.94,3.35,0.02
							C2130.61,786.93,2130.62,785.43,2129.7,784.5z"/></g></g><g><g><path class="st13" d="M2133.85,792.05c-0.93,0.92-0.94,2.42-0.02,3.35c0.92,0.93,2.42,0.94,3.35,0.02
							c0.93-0.92,0.94-2.42,0.02-3.35C2136.28,791.14,2134.78,791.13,2133.85,792.05z"/><path class="st13" d="M2141.56,799.83c-0.93,0.92-0.94,2.42-0.02,3.35c0.92,0.93,2.42,0.94,3.35,0.02
							c0.93-0.92,0.94-2.42,0.02-3.35C2143.99,798.92,2142.49,798.91,2141.56,799.83z"/><path class="st13" d="M2152.72,807.73c-0.92-0.93-2.42-0.94-3.35-0.02c-0.93,0.92-0.94,2.42-0.02,3.35
							c0.92,0.93,2.42,0.94,3.35,0.02C2153.63,810.16,2153.64,808.66,2152.72,807.73z"/></g><g><path class="st13" d="M2157.18,815.6c-0.93,0.92-0.94,2.42-0.02,3.35c0.92,0.93,2.42,0.94,3.35,0.02
							c0.93-0.92,0.94-2.42,0.02-3.35C2159.61,814.69,2158.11,814.68,2157.18,815.6z"/><path class="st13" d="M2164.89,823.38c-0.93,0.92-0.94,2.42-0.02,3.35c0.92,0.93,2.42,0.94,3.35,0.02
							c0.93-0.92,0.94-2.42,0.02-3.35S2165.82,822.46,2164.89,823.38z"/><path class="st13" d="M2176.05,831.28c-0.92-0.93-2.42-0.94-3.35-0.02c-0.93,0.92-0.94,2.42-0.02,3.35
							c0.92,0.93,2.42,0.94,3.35,0.02C2176.96,833.71,2176.97,832.21,2176.05,831.28z"/></g></g></g></g><g><g><g><g><path class="st13" d="M1993.71,769.29c-1.27-0.29-2.54,0.5-2.84,1.78c-0.29,1.27,0.5,2.54,1.78,2.84
							c1.27,0.29,2.54-0.5,2.84-1.78C1995.77,770.85,1994.98,769.58,1993.71,769.29z"/><path class="st13" d="M1991.25,779.96c-1.27-0.29-2.55,0.5-2.84,1.78c-0.29,1.27,0.5,2.54,1.78,2.84
							c1.27,0.29,2.54-0.5,2.84-1.78C1993.32,781.53,1992.52,780.26,1991.25,779.96z"/><path class="st13" d="M1990.53,793.62c0.29-1.27-0.5-2.54-1.78-2.84c-1.27-0.29-2.54,0.5-2.84,1.78
							c-0.29,1.27,0.5,2.54,1.78,2.84C1988.97,795.69,1990.24,794.89,1990.53,793.62z"/></g><g><path class="st13" d="M1986.27,801.59c-1.27-0.29-2.54,0.5-2.84,1.78c-0.29,1.27,0.5,2.54,1.78,2.84
							c1.27,0.29,2.54-0.5,2.84-1.78C1988.34,803.16,1987.54,801.89,1986.27,801.59z"/><path class="st13" d="M1983.81,812.27c-1.27-0.29-2.54,0.5-2.84,1.78c-0.29,1.27,0.5,2.54,1.78,2.84
							c1.27,0.29,2.55-0.5,2.84-1.78C1985.88,813.83,1985.09,812.56,1983.81,812.27z"/><path class="st13" d="M1983.1,825.92c0.29-1.27-0.5-2.54-1.78-2.84c-1.27-0.29-2.54,0.5-2.84,1.78
							c-0.29,1.27,0.5,2.54,1.78,2.84C1981.53,827.99,1982.8,827.2,1983.1,825.92z"/></g></g><g><g><path class="st13" d="M1978.93,833.47c-1.27-0.29-2.55,0.5-2.84,1.78c-0.29,1.27,0.5,2.54,1.78,2.84
							c1.27,0.29,2.54-0.5,2.84-1.78C1981,835.03,1980.21,833.76,1978.93,833.47z"/><path class="st13" d="M1976.47,844.14c-1.27-0.29-2.54,0.5-2.84,1.78c-0.29,1.27,0.5,2.54,1.78,2.84
							c1.27,0.29,2.55-0.5,2.84-1.78C1978.54,845.71,1977.75,844.44,1976.47,844.14z"/><path class="st13" d="M1975.76,857.79c0.29-1.27-0.5-2.54-1.78-2.84c-1.27-0.29-2.54,0.5-2.84,1.78
							c-0.29,1.27,0.5,2.54,1.78,2.84C1974.2,859.86,1975.47,859.07,1975.76,857.79z"/></g><g><path class="st13" d="M1971.5,865.77c-1.27-0.29-2.54,0.5-2.84,1.78c-0.29,1.27,0.5,2.54,1.78,2.84
							c1.27,0.29,2.55-0.5,2.84-1.78C1973.56,867.34,1972.77,866.07,1971.5,865.77z"/><path class="st13" d="M1969.04,876.45c-1.27-0.29-2.54,0.5-2.84,1.78c-0.29,1.27,0.5,2.54,1.78,2.84
							c1.27,0.29,2.54-0.5,2.84-1.78C1971.11,878.01,1970.31,876.74,1969.04,876.45z"/><path class="st13" d="M1968.32,890.1c0.29-1.27-0.5-2.54-1.78-2.84c-1.27-0.29-2.54,0.5-2.84,1.78
							c-0.29,1.27,0.5,2.54,1.78,2.84C1966.76,892.17,1968.03,891.37,1968.32,890.1z"/></g></g></g></g><g><g><path class="st14" d="M2083.5,692.96c0-28.51-23.11-51.62-51.62-51.62c-28.51,0-51.62,23.11-51.62,51.62
					c0,28.51,23.11,51.62,51.62,51.62C2060.39,744.58,2083.5,721.47,2083.5,692.96z"/></g><g><path class="st15" d="M2048.44,672.25c0-9.15-7.42-16.57-16.57-16.57c-9.15,0-16.57,7.42-16.57,16.57
					c0,9.15,7.42,16.57,16.57,16.57C2041.03,688.82,2048.44,681.4,2048.44,672.25z"/><path class="st15" d="M2031.88,688.82c16.01,0,28.99,12.98,28.99,29h-57.99C2002.88,701.8,2015.86,688.82,2031.88,688.82z"/></g></g><g><path class="st14" d="M2157.69,852.27l-1.91-4.74c-2.05-5.08-6.98-8.41-12.46-8.41h-35.29v22.39v95.6h145.99v-95.6h-82.61
				C2165.37,861.52,2159.95,857.86,2157.69,852.27z"/><g><path class="st15" d="M2202.85,893h-4.88c0.14-0.79,0.22-1.61,0.22-2.44v-1.67c0-7.69-6.26-13.95-13.95-13.95h-8.57
					c-7.69,0-13.95,6.26-13.95,13.95v1.67c0,0.83,0.08,1.65,0.22,2.44h-5.42c-2.83,0-5.13,2.3-5.13,5.13v22.38
					c0,12.67,10.27,22.94,22.94,22.94h13.54c11.91,0,21.55-9.65,21.55-21.55v-22.33C2209.43,895.94,2206.49,893,2202.85,893z
					 M2182.05,915.53v10.4c0,0.9-0.74,1.64-1.64,1.64c-0.9,0-1.64-0.74-1.64-1.64v-10.4c-3.39-0.75-5.93-3.77-5.93-7.39
					c0-4.18,3.39-7.57,7.57-7.57c4.18,0,7.57,3.39,7.57,7.57C2187.98,911.76,2185.44,914.78,2182.05,915.53z M2192.62,890.56
					c0,0.85-0.13,1.67-0.36,2.44h-24.58c-0.24-0.77-0.37-1.59-0.37-2.44v-1.67c0-4.62,3.75-8.37,8.37-8.37h8.57
					c4.62,0,8.37,3.75,8.37,8.37V890.56z"/></g></g></g><path class="st14" d="M1910.79,963.38c0,26.37,44.65,74.49,44.65,74.49s44.64-48.12,44.64-74.49c0-26.35-19.98-47.72-44.64-47.72
		S1910.79,937.03,1910.79,963.38z M1929.53,958.54c0-14.3,11.59-25.91,25.91-25.91c14.3,0,25.91,11.6,25.91,25.91
		c0,14.31-11.6,25.91-25.91,25.91C1941.12,984.45,1929.53,972.86,1929.53,958.54z"/></g><path class="st21" d="M2619.21,1641.71H14.69c-1.7,0-3.08-1.39-3.08-3.08v-1.36c0-1.7,1.39-3.08,3.08-3.08h2604.52
	c1.7,0,3.08,1.39,3.08,3.08v1.36C2622.29,1640.33,2620.9,1641.71,2619.21,1641.71z"/><g><path class="st8" d="M879.43,944.61c-1.1-4.55,0.89-8.13,5.11-8.13c4.2-0.01,7.88,3.51,9,8.11c1.1,4.55-0.87,8.13-5.11,8.13
		C884.19,952.73,880.55,949.21,879.43,944.61z M889.96,944.59c-0.69-2.85-2.62-5-4.7-5c-2.09,0-2.94,2.09-2.24,5.01
		c0.7,2.87,2.59,5,4.7,5C889.83,949.6,890.66,947.49,889.96,944.59z"/><path class="st31" d="M818.46,826.6l-2.6,0.68l-1.41-2.83l4.23-1.35l2.38,0l3.83,15.82l-3.45,0.01L818.46,826.6z"/><path class="st31" d="M830.84,831.05c-1.1-4.55,0.89-8.13,5.11-8.13c4.2-0.01,7.88,3.51,9,8.11c1.1,4.55-0.87,8.12-5.11,8.13
		C835.59,839.16,831.95,835.64,830.84,831.05z M841.36,831.03c-0.69-2.85-2.62-5-4.7-5c-2.09,0-2.94,2.09-2.24,5.01
		c0.69,2.87,2.59,5,4.7,5C841.23,836.03,842.06,833.92,841.36,831.03z"/><path class="st31" d="M905.18,1049.55c-1.1-4.55,0.89-8.13,5.11-8.13c4.2-0.01,7.88,3.51,9,8.11c1.1,4.55-0.87,8.13-5.11,8.13
		S906.3,1054.15,905.18,1049.55z M915.71,1049.53c-0.69-2.85-2.62-5-4.7-5c-2.09,0-2.94,2.09-2.24,5.01c0.7,2.87,2.6,5,4.7,5
		C915.58,1054.54,916.41,1052.42,915.71,1049.53z"/><path class="st31" d="M836.35,900.49l-2.6,0.68l-1.41-2.83l4.23-1.35l2.38,0l3.83,15.82l-3.45,0L836.35,900.49z"/><path class="st31" d="M848.73,904.94c-1.1-4.55,0.89-8.13,5.11-8.13c4.2-0.01,7.88,3.51,9,8.11c1.1,4.55-0.87,8.12-5.11,8.13
		C853.48,913.05,849.84,909.54,848.73,904.94z M859.25,904.92c-0.69-2.85-2.62-5-4.7-5c-2.09,0-2.94,2.09-2.24,5.01
		c0.7,2.87,2.59,5,4.7,5C859.12,909.93,859.95,907.81,859.25,904.92z"/><path class="st8" d="M846.66,863.32l-2.6,0.68l-1.41-2.83l4.23-1.35l2.38,0l3.83,15.82l-3.45,0.01L846.66,863.32z"/><path class="st8" d="M859.03,867.77c-1.1-4.55,0.89-8.13,5.11-8.13c4.2-0.01,7.88,3.51,9,8.11c1.1,4.55-0.87,8.12-5.11,8.13
		C863.79,875.88,860.15,872.37,859.03,867.77z M869.56,867.75c-0.69-2.85-2.62-5-4.7-5c-2.09,0-2.94,2.09-2.24,5.01
		c0.7,2.87,2.6,5,4.7,5C869.43,872.75,870.26,870.64,869.56,867.75z"/><path class="st31" d="M845.97,940.2l-2.6,0.68l-1.41-2.83l4.23-1.35l2.38,0l3.83,15.82l-3.45,0L845.97,940.2z"/><path class="st31" d="M858.34,944.65c-1.1-4.55,0.89-8.13,5.11-8.13c4.2-0.01,7.88,3.51,9,8.11c1.1,4.55-0.87,8.12-5.11,8.13
		C863.1,952.76,859.46,949.25,858.34,944.65z M868.87,944.63c-0.69-2.85-2.62-5-4.7-5c-2.09,0-2.94,2.09-2.24,5.01
		c0.7,2.87,2.59,5,4.7,5C868.74,949.63,869.57,947.52,868.87,944.63z"/><path class="st8" d="M890.67,831.03c-1.1-4.55,0.89-8.13,5.11-8.13c4.2-0.01,7.88,3.51,9,8.11c1.1,4.55-0.87,8.13-5.11,8.13
		C895.43,839.14,891.79,835.63,890.67,831.03z M901.2,831.01c-0.69-2.85-2.62-5-4.7-5c-2.09,0-2.94,2.09-2.24,5.01
		c0.7,2.87,2.6,5,4.7,5C901.07,836.02,901.9,833.9,901.2,831.01z"/><path class="st31" d="M857.2,826.62l-2.6,0.68l-1.41-2.83l4.23-1.35l2.38,0l3.83,15.81l-3.45,0.01L857.2,826.62z"/><path class="st31" d="M869.58,831.06c-1.1-4.55,0.89-8.13,5.11-8.13c4.2-0.01,7.88,3.51,9,8.11c1.1,4.55-0.87,8.12-5.11,8.13
		C874.34,839.18,870.69,835.66,869.58,831.06z M880.1,831.05c-0.69-2.85-2.62-5-4.7-5c-2.09,0-2.94,2.09-2.24,5.01
		c0.7,2.87,2.6,5,4.7,5C879.98,836.05,880.8,833.94,880.1,831.05z"/><path class="st8" d="M897.8,1021.32c-1.1-4.55,0.89-8.13,5.11-8.13c4.2-0.01,7.88,3.51,9,8.11c1.1,4.55-0.87,8.13-5.11,8.13
		C902.56,1029.43,898.92,1025.92,897.8,1021.32z M908.33,1021.3c-0.69-2.85-2.62-5-4.7-5c-2.09,0-2.94,2.09-2.24,5.01
		c0.7,2.87,2.59,5,4.7,5C908.2,1026.3,909.03,1024.19,908.33,1021.3z"/><path class="st31" d="M854.72,977.2l-2.6,0.68l-1.41-2.83l4.23-1.35l2.38,0l3.83,15.82l-3.45,0.01L854.72,977.2z"/><path class="st31" d="M867.1,981.64c-1.1-4.55,0.89-8.13,5.11-8.13c4.2-0.01,7.88,3.51,9,8.11c1.1,4.55-0.87,8.12-5.11,8.13
		C871.85,989.76,868.21,986.24,867.1,981.64z M877.62,981.63c-0.69-2.85-2.62-5-4.7-5c-2.09,0-2.94,2.09-2.24,5.01
		c0.7,2.87,2.6,5,4.7,5C877.49,986.63,878.32,984.52,877.62,981.63z"/><path class="st31" d="M888.19,981.61c-1.1-4.55,0.89-8.13,5.11-8.13c4.2-0.01,7.88,3.51,9,8.11c1.1,4.55-0.87,8.13-5.11,8.13
		C892.95,989.72,889.3,986.21,888.19,981.61z M898.71,981.59c-0.69-2.85-2.62-5-4.7-5c-2.09,0-2.94,2.09-2.24,5.01
		c0.7,2.87,2.6,5,4.7,5C898.59,986.59,899.41,984.48,898.71,981.59z"/><path class="st31" d="M910.9,977.1l-2.6,0.68l-1.41-2.83l4.23-1.35l2.38,0l3.83,15.82l-3.45,0.01L910.9,977.1z"/><path class="st31" d="M864.34,1016.91l-2.6,0.68l-1.41-2.83l4.23-1.35l2.38,0l3.83,15.82l-3.45,0.01L864.34,1016.91z"/><path class="st31" d="M876.71,1021.35c-1.1-4.55,0.89-8.13,5.11-8.13c4.2-0.01,7.88,3.51,9,8.11c1.1,4.55-0.87,8.13-5.11,8.13
		S877.82,1025.95,876.71,1021.35z M887.24,1021.33c-0.69-2.85-2.62-5-4.7-5c-2.09,0-2.94,2.09-2.24,5.01c0.7,2.87,2.59,5,4.7,5
		C887.11,1026.34,887.94,1024.23,887.24,1021.33z"/><path class="st31" d="M916.46,1109.36c-1.1-4.55,0.89-8.13,5.11-8.13c4.2-0.01,7.88,3.51,9,8.11c1.1,4.55-0.87,8.12-5.11,8.13
		C921.21,1117.48,917.57,1113.96,916.46,1109.36z M926.98,1109.35c-0.69-2.85-2.62-5-4.7-5c-2.09,0-2.94,2.09-2.24,5.01
		c0.7,2.87,2.59,5,4.7,5C926.85,1114.35,927.68,1112.24,926.98,1109.35z"/><path class="st31" d="M939.17,1104.86l-2.6,0.68l-1.41-2.83l4.23-1.35l2.38,0l3.83,15.82l-3.45,0.01L939.17,1104.86z"/><path class="st31" d="M882.99,1104.95l-2.6,0.68l-1.41-2.83l4.23-1.35l2.38,0l3.83,15.82l-3.45,0.01L882.99,1104.95z"/><path class="st31" d="M895.36,1109.4c-1.1-4.55,0.89-8.12,5.11-8.13c4.2-0.01,7.88,3.51,9,8.11c1.1,4.55-0.87,8.12-5.11,8.13
		C900.12,1117.51,896.48,1114,895.36,1109.4z M905.89,1109.38c-0.69-2.85-2.62-5-4.7-5c-2.09,0-2.94,2.09-2.24,5.01
		c0.7,2.87,2.6,5,4.7,5C905.76,1114.39,906.59,1112.27,905.89,1109.38z"/><path class="st8" d="M951.54,1109.3c-1.1-4.55,0.89-8.12,5.11-8.13c4.2-0.01,7.88,3.51,9,8.11c1.1,4.55-0.87,8.12-5.11,8.13
		C956.3,1117.42,952.66,1113.9,951.54,1109.3z M962.07,1109.29c-0.69-2.85-2.62-5-4.7-5c-2.09,0-2.94,2.09-2.24,5.01
		c0.7,2.87,2.6,5,4.7,5C961.94,1114.29,962.77,1112.18,962.07,1109.29z"/><path class="st8" d="M972.64,1109.27c-1.1-4.55,0.89-8.13,5.11-8.13c4.2-0.01,7.88,3.51,9,8.11c1.1,4.55-0.87,8.12-5.11,8.13
		C977.39,1117.38,973.75,1113.87,972.64,1109.27z M983.16,1109.25c-0.69-2.85-2.62-5-4.7-5c-2.09,0-2.94,2.09-2.24,5.01
		c0.7,2.87,2.59,5,4.7,5C983.03,1114.26,983.86,1112.14,983.16,1109.25z"/><path class="st31" d="M890.39,1137.69c-1.1-4.55,0.89-8.13,5.11-8.13c4.2-0.01,7.88,3.51,9,8.11c1.1,4.55-0.87,8.13-5.11,8.13
		C895.15,1145.8,891.51,1142.28,890.39,1137.69z M900.92,1137.67c-0.69-2.85-2.62-5-4.7-5c-2.09,0-2.94,2.09-2.24,5.01
		c0.7,2.87,2.59,5,4.7,5C900.79,1142.67,901.62,1140.56,900.92,1137.67z"/><path class="st31" d="M913.11,1133.18l-2.6,0.68l-1.41-2.83l4.23-1.35l2.38,0l3.83,15.82l-3.45,0L913.11,1133.18z"/><path class="st31" d="M925.48,1137.63c-1.1-4.55,0.89-8.12,5.11-8.13c4.2-0.01,7.88,3.51,9,8.11c1.1,4.55-0.87,8.12-5.11,8.13
		C930.24,1145.74,926.59,1142.22,925.48,1137.63z M936,1137.61c-0.69-2.85-2.62-5-4.7-5c-2.09,0-2.94,2.09-2.24,5.01
		c0.7,2.87,2.59,5,4.7,5C935.88,1142.61,936.71,1140.5,936,1137.61z"/><path class="st31" d="M946.57,1137.59c-1.1-4.55,0.89-8.13,5.11-8.13c4.2-0.01,7.88,3.51,9,8.11c1.1,4.55-0.87,8.13-5.11,8.13
		C951.33,1145.71,947.69,1142.19,946.57,1137.59z M957.1,1137.57c-0.69-2.85-2.62-5-4.7-5c-2.09,0-2.94,2.09-2.24,5.01
		c0.69,2.87,2.59,5,4.7,5C956.97,1142.58,957.8,1140.47,957.1,1137.57z"/><path class="st31" d="M1577.28,1104.86l-2.6,0.68l-1.41-2.83l4.23-1.35l2.38,0l3.83,15.82l-3.45,0.01L1577.28,1104.86z"/><path class="st31" d="M1526.1,1104.95l-2.6,0.68l-1.41-2.83l4.23-1.35l2.38,0l3.83,15.82l-3.45,0.01L1526.1,1104.95z"/><path class="st8" d="M1589.66,1109.3c-1.1-4.55,0.89-8.12,5.11-8.13c4.2-0.01,7.88,3.51,9,8.11c1.1,4.55-0.87,8.12-5.11,8.13
		C1594.41,1117.42,1590.77,1113.9,1589.66,1109.3z M1600.18,1109.29c-0.69-2.85-2.62-5-4.7-5c-2.09,0-2.94,2.09-2.24,5.01
		c0.7,2.87,2.59,5,4.7,5C1600.05,1114.29,1600.88,1112.18,1600.18,1109.29z"/><path class="st8" d="M1610.75,1109.27c-1.1-4.55,0.89-8.13,5.11-8.13c4.2-0.01,7.88,3.51,9,8.11c1.1,4.55-0.87,8.12-5.11,8.13
		C1615.51,1117.38,1611.86,1113.87,1610.75,1109.27z M1621.27,1109.25c-0.69-2.85-2.62-5-4.7-5c-2.09,0-2.94,2.09-2.24,5.01
		c0.7,2.87,2.59,5,4.7,5C1621.15,1114.26,1621.98,1112.14,1621.27,1109.25z"/><path class="st31" d="M1470.22,1137.69c-1.1-4.55,0.89-8.13,5.11-8.13c4.2-0.01,7.88,3.51,9,8.11c1.1,4.55-0.87,8.13-5.11,8.13
		S1471.33,1142.28,1470.22,1137.69z M1480.74,1137.67c-0.69-2.85-2.62-5-4.7-5c-2.09,0-2.94,2.09-2.24,5.01c0.7,2.87,2.59,5,4.7,5
		C1480.61,1142.67,1481.44,1140.56,1480.74,1137.67z"/><path class="st31" d="M1492.93,1133.18l-2.6,0.68l-1.41-2.83l4.23-1.35l2.38,0l3.83,15.82l-3.45,0L1492.93,1133.18z"/><path class="st31" d="M1505.3,1137.63c-1.1-4.55,0.89-8.12,5.11-8.13c4.2-0.01,7.88,3.51,9,8.11c1.1,4.55-0.87,8.12-5.11,8.13
		C1510.06,1145.74,1506.42,1142.22,1505.3,1137.63z M1515.83,1137.61c-0.69-2.85-2.62-5-4.7-5c-2.09,0-2.94,2.09-2.24,5.01
		c0.7,2.87,2.59,5,4.7,5C1515.7,1142.61,1516.53,1140.5,1515.83,1137.61z"/><path class="st31" d="M1526.4,1137.59c-1.1-4.55,0.89-8.13,5.11-8.13c4.2-0.01,7.88,3.51,9,8.11c1.1,4.55-0.87,8.13-5.11,8.13
		S1527.51,1142.19,1526.4,1137.59z M1536.92,1137.57c-0.69-2.85-2.62-5-4.7-5c-2.09,0-2.94,2.09-2.24,5.01c0.7,2.87,2.59,5,4.7,5
		C1536.79,1142.58,1537.62,1140.47,1536.92,1137.57z"/><path class="st8" d="M943.24,1211.81c-1.1-4.55,0.89-8.12,5.11-8.13c4.2-0.01,7.88,3.51,9,8.11c1.1,4.55-0.87,8.12-5.11,8.13
		C948,1219.93,944.36,1216.41,943.24,1211.81z M953.77,1211.79c-0.69-2.85-2.62-5-4.7-5c-2.09,0-2.94,2.09-2.24,5.01
		c0.7,2.87,2.59,5,4.7,5C953.64,1216.8,954.47,1214.69,953.77,1211.79z"/><path class="st8" d="M965.96,1207.31l-2.6,0.68l-1.41-2.83l4.23-1.35l2.38,0l3.83,15.82l-3.45,0.01L965.96,1207.31z"/><path class="st31" d="M900.16,1167.69l-2.6,0.68l-1.41-2.83l4.23-1.35l2.38,0l3.83,15.82l-3.45,0.01L900.16,1167.69z"/><path class="st31" d="M912.54,1172.14c-1.1-4.55,0.89-8.13,5.11-8.13c4.2-0.01,7.88,3.51,9,8.11c1.1,4.55-0.87,8.13-5.11,8.13
		C917.29,1180.25,913.65,1176.74,912.54,1172.14z M923.06,1172.12c-0.69-2.85-2.62-5-4.7-5c-2.09,0-2.94,2.09-2.24,5.01
		c0.7,2.87,2.59,5,4.7,5C922.93,1177.13,923.76,1175.01,923.06,1172.12z"/><path class="st31" d="M933.63,1172.1c-1.1-4.55,0.89-8.12,5.11-8.13c4.2-0.01,7.88,3.51,9,8.11c1.1,4.55-0.87,8.12-5.11,8.13
		C938.39,1180.22,934.74,1176.7,933.63,1172.1z M944.15,1172.08c-0.69-2.85-2.62-5-4.7-5c-2.09,0-2.94,2.09-2.24,5.01
		c0.7,2.87,2.6,5,4.7,5C944.03,1177.09,944.85,1174.98,944.15,1172.08z"/><path class="st31" d="M956.34,1167.6l-2.6,0.68l-1.41-2.83l4.23-1.35l2.38,0l3.83,15.82l-3.45,0.01L956.34,1167.6z"/><path class="st31" d="M1517.61,1167.69l-2.6,0.68l-1.41-2.83l4.23-1.35l2.38,0l3.83,15.82l-3.45,0.01L1517.61,1167.69z"/><path class="st31" d="M1529.98,1172.14c-1.1-4.55,0.89-8.13,5.11-8.13c4.2-0.01,7.88,3.51,9,8.11c1.1,4.55-0.87,8.13-5.11,8.13
		S1531.1,1176.74,1529.98,1172.14z M1540.51,1172.12c-0.69-2.85-2.62-5-4.7-5c-2.09,0-2.94,2.09-2.24,5.01c0.7,2.87,2.59,5,4.7,5
		C1540.38,1177.13,1541.21,1175.01,1540.51,1172.12z"/><path class="st31" d="M1551.08,1172.1c-1.1-4.55,0.89-8.12,5.11-8.13c4.2-0.01,7.88,3.51,9,8.11c1.1,4.55-0.87,8.12-5.11,8.13
		C1555.83,1180.22,1552.19,1176.7,1551.08,1172.1z M1561.6,1172.08c-0.69-2.85-2.62-5-4.7-5c-2.09,0-2.94,2.09-2.24,5.01
		c0.7,2.87,2.59,5,4.7,5C1561.47,1177.09,1562.3,1174.98,1561.6,1172.08z"/><path class="st31" d="M1573.79,1167.6l-2.6,0.68l-1.41-2.83l4.23-1.35l2.38,0l3.83,15.82l-3.45,0.01L1573.79,1167.6z"/><path class="st31" d="M909.78,1207.4l-2.6,0.68l-1.41-2.83l4.23-1.35l2.38,0l3.83,15.82l-3.45,0.01L909.78,1207.4z"/><path class="st31" d="M922.15,1211.85c-1.1-4.55,0.89-8.13,5.11-8.13c4.2-0.01,7.88,3.51,9,8.11c1.1,4.55-0.87,8.13-5.11,8.13
		C926.91,1219.96,923.27,1216.45,922.15,1211.85z M932.68,1211.83c-0.69-2.85-2.62-5-4.7-5c-2.09,0-2.94,2.09-2.24,5.01
		c0.69,2.87,2.59,5,4.7,5C932.55,1216.83,933.38,1214.72,932.68,1211.83z"/><path class="st31" d="M978.33,1211.75c-1.1-4.55,0.89-8.13,5.11-8.13c4.2-0.01,7.88,3.51,9,8.11c1.1,4.55-0.87,8.12-5.11,8.13
		C983.09,1219.87,979.45,1216.35,978.33,1211.75z M988.86,1211.74c-0.69-2.85-2.62-5-4.7-5c-2.09,0-2.94,2.09-2.24,5.01
		c0.7,2.87,2.59,5,4.7,5C988.73,1216.74,989.56,1214.63,988.86,1211.74z"/><path class="st31" d="M999.42,1211.72c-1.1-4.55,0.89-8.12,5.11-8.13c4.2-0.01,7.88,3.51,9,8.11c1.1,4.55-0.87,8.12-5.11,8.13
		C1004.18,1219.83,1000.54,1216.32,999.42,1211.72z M1009.95,1211.7c-0.69-2.85-2.62-5-4.7-5c-2.09,0-2.94,2.09-2.24,5.01
		c0.7,2.87,2.59,5,4.7,5C1009.82,1216.7,1010.65,1214.59,1009.95,1211.7z"/><path class="st8" d="M951.38,1239.85c-1.1-4.55,0.89-8.13,5.11-8.13c4.2-0.01,7.88,3.51,9,8.11c1.1,4.55-0.87,8.12-5.11,8.13
		C956.13,1247.96,952.49,1244.45,951.38,1239.85z M961.9,1239.83c-0.69-2.85-2.62-5-4.7-5c-2.09,0-2.94,2.09-2.24,5.01
		c0.7,2.87,2.59,5,4.7,5C961.77,1244.83,962.6,1242.72,961.9,1239.83z"/><path class="st8" d="M974.09,1235.34l-2.6,0.68l-1.41-2.83l4.23-1.35l2.38,0l3.83,15.82l-3.45,0.01L974.09,1235.34z"/><path class="st31" d="M930.29,1239.88c-1.1-4.55,0.89-8.13,5.11-8.13c4.2-0.01,7.88,3.51,9,8.11c1.1,4.55-0.87,8.13-5.11,8.13
		C935.04,1248,931.4,1244.48,930.29,1239.88z M940.81,1239.87c-0.69-2.85-2.62-5-4.7-5c-2.09,0-2.94,2.09-2.24,5.01
		c0.7,2.87,2.59,5,4.7,5C940.68,1244.87,941.51,1242.76,940.81,1239.87z"/><path class="st31" d="M986.46,1239.79c-1.1-4.55,0.89-8.13,5.11-8.13c4.2-0.01,7.88,3.51,9,8.11c1.1,4.55-0.87,8.13-5.11,8.13
		C991.22,1247.9,987.58,1244.39,986.46,1239.79z M996.99,1239.77c-0.69-2.85-2.62-5-4.7-5c-2.09,0-2.94,2.09-2.24,5.01
		c0.7,2.87,2.6,5,4.7,5C996.86,1244.78,997.69,1242.67,996.99,1239.77z"/><path class="st31" d="M1007.56,1239.75c-1.1-4.55,0.89-8.12,5.11-8.13c4.2-0.01,7.88,3.51,9,8.11c1.1,4.55-0.87,8.12-5.11,8.13
		C1012.31,1247.87,1008.67,1244.35,1007.56,1239.75z M1018.08,1239.74c-0.69-2.85-2.62-5-4.7-5c-2.09,0-2.94,2.09-2.24,5.01
		c0.7,2.87,2.59,5,4.7,5C1017.95,1244.74,1018.78,1242.63,1018.08,1239.74z"/><path class="st8" d="M1080.13,1239.85c-1.1-4.55,0.89-8.13,5.11-8.13c4.2-0.01,7.88,3.51,9,8.11c1.1,4.55-0.87,8.12-5.11,8.13
		C1084.89,1247.96,1081.25,1244.45,1080.13,1239.85z M1090.66,1239.83c-0.69-2.85-2.62-5-4.7-5c-2.09,0-2.94,2.09-2.24,5.01
		c0.7,2.87,2.59,5,4.7,5C1090.53,1244.83,1091.36,1242.72,1090.66,1239.83z"/><path class="st8" d="M1102.84,1235.34l-2.6,0.68l-1.41-2.83l4.23-1.35l2.38,0l3.83,15.82l-3.45,0.01L1102.84,1235.34z"/><path class="st31" d="M1059.04,1239.88c-1.1-4.55,0.89-8.13,5.11-8.13c4.2-0.01,7.88,3.51,9,8.11c1.1,4.55-0.87,8.13-5.11,8.13
		S1060.15,1244.48,1059.04,1239.88z M1069.56,1239.87c-0.69-2.85-2.62-5-4.7-5c-2.09,0-2.94,2.09-2.24,5.01c0.7,2.87,2.6,5,4.7,5
		C1069.44,1244.87,1070.26,1242.76,1069.56,1239.87z"/><path class="st31" d="M1115.22,1239.79c-1.1-4.55,0.89-8.13,5.11-8.13c4.2-0.01,7.88,3.51,9,8.11c1.1,4.55-0.87,8.13-5.11,8.13
		C1119.98,1247.9,1116.33,1244.39,1115.22,1239.79z M1125.74,1239.77c-0.69-2.85-2.62-5-4.7-5c-2.09,0-2.94,2.09-2.24,5.01
		c0.7,2.87,2.6,5,4.7,5C1125.62,1244.78,1126.44,1242.67,1125.74,1239.77z"/><path class="st31" d="M1136.31,1239.75c-1.1-4.55,0.89-8.12,5.11-8.13c4.2-0.01,7.88,3.51,9,8.11c1.1,4.55-0.87,8.12-5.11,8.13
		C1141.07,1247.87,1137.43,1244.35,1136.31,1239.75z M1146.84,1239.74c-0.69-2.85-2.62-5-4.7-5c-2.09,0-2.94,2.09-2.24,5.01
		c0.7,2.87,2.59,5,4.7,5C1146.71,1244.74,1147.54,1242.63,1146.84,1239.74z"/><path class="st8" d="M1373.27,1239.85c-1.1-4.55,0.89-8.13,5.11-8.13c4.2-0.01,7.88,3.51,9,8.11c1.1,4.55-0.87,8.12-5.11,8.13
		C1378.02,1247.96,1374.38,1244.45,1373.27,1239.85z M1383.79,1239.83c-0.69-2.85-2.62-5-4.7-5c-2.09,0-2.94,2.09-2.24,5.01
		c0.7,2.87,2.59,5,4.7,5C1383.66,1244.83,1384.49,1242.72,1383.79,1239.83z"/><path class="st8" d="M1395.98,1235.34l-2.6,0.68l-1.41-2.83l4.23-1.35l2.38,0l3.83,15.82l-3.45,0.01L1395.98,1235.34z"/><path class="st31" d="M1352.17,1239.88c-1.1-4.55,0.89-8.13,5.11-8.13c4.2-0.01,7.88,3.51,9,8.11c1.1,4.55-0.87,8.13-5.11,8.13
		C1356.93,1248,1353.29,1244.48,1352.17,1239.88z M1362.7,1239.87c-0.69-2.85-2.62-5-4.7-5c-2.09,0-2.94,2.09-2.24,5.01
		c0.7,2.87,2.59,5,4.7,5S1363.4,1242.76,1362.7,1239.87z"/><path class="st31" d="M1408.35,1239.79c-1.1-4.55,0.89-8.13,5.11-8.13c4.2-0.01,7.88,3.51,9,8.11c1.1,4.55-0.87,8.13-5.11,8.13
		S1409.47,1244.39,1408.35,1239.79z M1418.88,1239.77c-0.69-2.85-2.62-5-4.7-5c-2.09,0-2.94,2.09-2.24,5.01c0.69,2.87,2.59,5,4.7,5
		C1418.75,1244.78,1419.58,1242.67,1418.88,1239.77z"/><path class="st31" d="M1429.44,1239.75c-1.1-4.55,0.89-8.12,5.11-8.13c4.2-0.01,7.88,3.51,9,8.11c1.1,4.55-0.87,8.12-5.11,8.13
		C1434.2,1247.87,1430.56,1244.35,1429.44,1239.75z M1439.97,1239.74c-0.69-2.85-2.62-5-4.7-5c-2.09,0-2.94,2.09-2.24,5.01
		c0.7,2.87,2.59,5,4.7,5C1439.84,1244.74,1440.67,1242.63,1439.97,1239.74z"/><path class="st8" d="M1502.02,1239.85c-1.1-4.55,0.89-8.13,5.11-8.13c4.2-0.01,7.88,3.51,9,8.11c1.1,4.55-0.87,8.12-5.11,8.13
		C1506.78,1247.96,1503.13,1244.45,1502.02,1239.85z M1512.54,1239.83c-0.69-2.85-2.62-5-4.7-5c-2.09,0-2.94,2.09-2.24,5.01
		c0.69,2.87,2.59,5,4.7,5C1512.42,1244.83,1513.25,1242.72,1512.54,1239.83z"/><path class="st8" d="M1524.73,1235.34l-2.6,0.68l-1.41-2.83l4.23-1.35l2.38,0l3.83,15.82l-3.45,0.01L1524.73,1235.34z"/><path class="st31" d="M1480.93,1239.88c-1.1-4.55,0.89-8.13,5.11-8.13c4.2-0.01,7.88,3.51,9,8.11c1.1,4.55-0.87,8.13-5.11,8.13
		S1482.04,1244.48,1480.93,1239.88z M1491.45,1239.87c-0.69-2.85-2.62-5-4.7-5c-2.09,0-2.94,2.09-2.24,5.01c0.7,2.87,2.6,5,4.7,5
		C1491.33,1244.87,1492.15,1242.76,1491.45,1239.87z"/><path class="st31" d="M1537.11,1239.79c-1.1-4.55,0.89-8.13,5.11-8.13c4.2-0.01,7.88,3.51,9,8.11c1.1,4.55-0.87,8.13-5.11,8.13
		C1541.86,1247.9,1538.22,1244.39,1537.11,1239.79z M1547.63,1239.77c-0.69-2.85-2.62-5-4.71-5c-2.09,0-2.94,2.09-2.24,5.01
		c0.7,2.87,2.59,5,4.7,5C1547.5,1244.78,1548.33,1242.67,1547.63,1239.77z"/><path class="st31" d="M1558.2,1239.75c-1.1-4.55,0.89-8.12,5.11-8.13c4.2-0.01,7.88,3.51,9,8.11c1.1,4.55-0.87,8.12-5.11,8.13
		C1562.96,1247.87,1559.31,1244.35,1558.2,1239.75z M1568.72,1239.74c-0.69-2.85-2.62-5-4.7-5c-2.09,0-2.94,2.09-2.24,5.01
		c0.7,2.87,2.59,5,4.7,5C1568.6,1244.74,1569.42,1242.63,1568.72,1239.74z"/><path class="st31" d="M1020.52,1211.68c-1.1-4.55,0.89-8.13,5.11-8.13c4.2-0.01,7.88,3.51,9,8.11c1.1,4.55-0.87,8.12-5.11,8.13
		C1025.27,1219.8,1021.63,1216.28,1020.52,1211.68z M1031.04,1211.66c-0.69-2.85-2.62-5-4.7-5c-2.09,0-2.94,2.09-2.24,5.01
		c0.7,2.87,2.6,5,4.7,5C1030.91,1216.67,1031.74,1214.56,1031.04,1211.66z"/><path class="st31" d="M1041.61,1211.65c-1.1-4.55,0.89-8.13,5.11-8.13c4.2-0.01,7.88,3.51,9,8.11c1.1,4.55-0.87,8.13-5.11,8.13
		C1046.37,1219.76,1042.72,1216.25,1041.61,1211.65z M1052.13,1211.63c-0.69-2.85-2.62-5-4.7-5c-2.09,0-2.94,2.09-2.24,5.01
		c0.7,2.87,2.6,5,4.7,5C1052.01,1216.63,1052.83,1214.52,1052.13,1211.63z"/><path class="st31" d="M1427.19,1211.68c-1.1-4.55,0.89-8.13,5.11-8.13c4.2-0.01,7.88,3.51,9,8.11c1.1,4.55-0.87,8.12-5.11,8.13
		C1431.95,1219.8,1428.31,1216.28,1427.19,1211.68z M1437.72,1211.66c-0.69-2.85-2.62-5-4.7-5c-2.09,0-2.94,2.09-2.24,5.01
		c0.7,2.87,2.59,5,4.7,5C1437.59,1216.67,1438.42,1214.56,1437.72,1211.66z"/><path class="st31" d="M1448.29,1211.65c-1.1-4.55,0.89-8.13,5.11-8.13c4.2-0.01,7.88,3.51,9,8.11c1.1,4.55-0.87,8.13-5.11,8.13
		C1453.04,1219.76,1449.4,1216.25,1448.29,1211.65z M1458.81,1211.63c-0.69-2.85-2.62-5-4.7-5c-2.09,0-2.94,2.09-2.24,5.01
		c0.7,2.87,2.59,5,4.7,5C1458.68,1216.63,1459.51,1214.52,1458.81,1211.63z"/></g><path class="st23" d="M1805.73,335.03l-0.47-1.23c-1.18-3.1-4.64-2.71-7.79-2.71h-20.28v13.68v58.41h83.89v-65.3h-47.47
	C1810.15,337.88,1807.03,338.44,1805.73,335.03z"/><path class="st31" d="M921.34,1016.67l-2.6,0.68l-1.41-2.83l4.23-1.35l2.38,0l3.83,15.82l-3.45,0.01L921.34,1016.67z"/><path class="st31" d="M933.72,1021.11c-1.1-4.55,0.89-8.13,5.11-8.13c4.2-0.01,7.88,3.51,9,8.11c1.1,4.55-0.87,8.12-5.11,8.13
	C938.48,1029.23,934.83,1025.71,933.72,1021.11z M944.24,1021.1c-0.69-2.85-2.62-5-4.7-5c-2.09,0-2.94,2.09-2.24,5.01
	c0.7,2.87,2.6,5,4.7,5C944.12,1026.1,944.94,1023.99,944.24,1021.1z"/><path class="st31" d="M954.81,1021.08c-1.1-4.55,0.89-8.13,5.11-8.13c4.2-0.01,7.88,3.51,9,8.11c1.1,4.55-0.87,8.13-5.11,8.13
	C959.57,1029.19,955.93,1025.68,954.81,1021.08z M965.34,1021.06c-0.69-2.85-2.62-5-4.7-5c-2.09,0-2.94,2.09-2.24,5.01
	c0.7,2.87,2.6,5,4.7,5C965.21,1026.07,966.04,1023.95,965.34,1021.06z"/><path class="st31" d="M977.52,1016.57l-2.6,0.68l-1.41-2.83l4.23-1.35l2.38,0l3.83,15.82l-3.45,0.01L977.52,1016.57z"/><path class="st31" d="M995.76,1104.97l-2.6,0.68l-1.41-2.83l4.23-1.35l2.38,0l3.83,15.82l-3.45,0.01L995.76,1104.97z"/><path class="st31" d="M1008.14,1109.42c-1.1-4.55,0.89-8.13,5.11-8.13c4.2-0.01,7.88,3.51,9,8.11c1.1,4.55-0.87,8.12-5.11,8.13
	S1009.25,1114.02,1008.14,1109.42z M1018.66,1109.4c-0.69-2.85-2.62-5-4.7-5c-2.09,0-2.94,2.09-2.24,5.01c0.7,2.87,2.6,5,4.7,5
	C1018.53,1114.4,1019.36,1112.29,1018.66,1109.4z"/><path class="st31" d="M1029.23,1109.38c-1.1-4.55,0.89-8.13,5.11-8.13c4.2-0.01,7.88,3.51,9,8.11c1.1,4.55-0.87,8.13-5.11,8.13
	S1030.34,1113.98,1029.23,1109.38z M1039.75,1109.36c-0.69-2.85-2.62-5-4.7-5c-2.09,0-2.94,2.09-2.24,5.01c0.7,2.87,2.6,5,4.7,5
	C1039.62,1114.37,1040.45,1112.26,1039.75,1109.36z"/><path class="st31" d="M1051.94,1104.88l-2.6,0.68l-1.41-2.83l4.23-1.35l2.38,0l3.83,15.82l-3.45,0.01L1051.94,1104.88z"/><path class="st31" d="M1086.23,1109.44c-1.1-4.55,0.89-8.13,5.11-8.13c4.2-0.01,7.88,3.51,9,8.11c1.1,4.55-0.87,8.12-5.11,8.13
	C1090.99,1117.55,1087.34,1114.04,1086.23,1109.44z M1096.75,1109.42c-0.69-2.85-2.62-5-4.7-5c-2.09,0-2.94,2.09-2.24,5.01
	c0.7,2.87,2.59,5,4.7,5C1096.63,1114.42,1097.46,1112.31,1096.75,1109.42z"/><path class="st31" d="M1108.94,1104.93l-2.6,0.68l-1.41-2.83l4.23-1.35l2.38,0l3.83,15.82l-3.45,0.01L1108.94,1104.93z"/><path class="st31" d="M1065.14,1109.47c-1.1-4.55,0.89-8.12,5.11-8.13c4.2-0.01,7.88,3.51,9,8.11c1.1,4.55-0.87,8.12-5.11,8.13
	C1069.89,1117.59,1066.25,1114.07,1065.14,1109.47z M1075.66,1109.45c-0.69-2.85-2.62-5-4.7-5c-2.09,0-2.94,2.09-2.24,5.01
	c0.7,2.87,2.6,5,4.7,5C1075.53,1114.46,1076.36,1112.35,1075.66,1109.45z"/><path class="st8" d="M1121.32,1109.38c-1.1-4.55,0.89-8.12,5.11-8.13c4.2-0.01,7.88,3.51,9,8.11c1.1,4.55-0.87,8.12-5.11,8.13
	C1126.07,1117.49,1122.43,1113.98,1121.32,1109.38z M1131.84,1109.36c-0.69-2.85-2.62-5-4.7-5c-2.09,0-2.94,2.09-2.24,5.01
	c0.7,2.87,2.6,5,4.7,5C1131.71,1114.36,1132.54,1112.25,1131.84,1109.36z"/><path class="st8" d="M1142.41,1109.34c-1.1-4.55,0.89-8.13,5.11-8.13c4.2-0.01,7.88,3.51,9,8.11c1.1,4.55-0.87,8.12-5.11,8.13
	C1147.17,1117.46,1143.52,1113.94,1142.41,1109.34z M1152.93,1109.32c-0.69-2.85-2.62-5-4.7-5c-2.09,0-2.94,2.09-2.24,5.01
	c0.7,2.87,2.59,5,4.7,5C1152.81,1114.33,1153.63,1112.22,1152.93,1109.32z"/><path class="st31" d="M1165.53,1105.05l-2.6,0.68l-1.41-2.83l4.23-1.35l2.38,0l3.83,15.82l-3.45,0.01L1165.53,1105.05z"/><path class="st31" d="M1177.91,1109.49c-1.1-4.55,0.89-8.13,5.11-8.13c4.2-0.01,7.88,3.51,9,8.11c1.1,4.55-0.87,8.12-5.11,8.13
	S1179.02,1114.09,1177.91,1109.49z M1188.43,1109.47c-0.69-2.85-2.62-5-4.7-5c-2.09,0-2.94,2.09-2.24,5.01c0.7,2.87,2.6,5,4.7,5
	C1188.31,1114.48,1189.13,1112.37,1188.43,1109.47z"/><path class="st31" d="M1199,1109.46c-1.1-4.55,0.89-8.13,5.11-8.13c4.2-0.01,7.88,3.51,9,8.11c1.1,4.55-0.87,8.13-5.11,8.13
	S1200.12,1114.05,1199,1109.46z M1209.53,1109.44c-0.69-2.85-2.62-5-4.7-5c-2.09,0-2.94,2.09-2.24,5.01c0.7,2.87,2.6,5,4.7,5
	C1209.4,1114.44,1210.23,1112.33,1209.53,1109.44z"/><polygon class="st31" points="1221.71,1104.95 1219.11,1105.63 1217.7,1102.8 1221.93,1101.45 1224.31,1101.44 1228.14,1117.26 
	1224.7,1117.27 "/><path class="st31" d="M1255.1,1109.44c-1.1-4.55,0.89-8.13,5.11-8.13c4.2-0.01,7.88,3.51,9,8.11c1.1,4.55-0.87,8.12-5.11,8.13
	C1259.86,1117.55,1256.21,1114.04,1255.1,1109.44z M1265.62,1109.42c-0.69-2.85-2.62-5-4.7-5c-2.09,0-2.94,2.09-2.24,5.01
	c0.7,2.87,2.59,5,4.7,5C1265.5,1114.42,1266.32,1112.31,1265.62,1109.42z"/><path class="st31" d="M1277.81,1104.93l-2.6,0.68l-1.41-2.83l4.23-1.35l2.38,0l3.83,15.82l-3.45,0.01L1277.81,1104.93z"/><path class="st31" d="M1234.01,1109.47c-1.1-4.55,0.89-8.12,5.11-8.13c4.2-0.01,7.88,3.51,9,8.11c1.1,4.55-0.87,8.12-5.11,8.13
	C1238.76,1117.59,1235.12,1114.07,1234.01,1109.47z M1244.53,1109.45c-0.69-2.85-2.62-5-4.7-5c-2.09,0-2.94,2.09-2.24,5.01
	c0.7,2.87,2.6,5,4.7,5C1244.4,1114.46,1245.23,1112.35,1244.53,1109.45z"/><path class="st8" d="M1290.19,1109.38c-1.1-4.55,0.89-8.12,5.11-8.13c4.2-0.01,7.88,3.51,9,8.11c1.1,4.55-0.87,8.12-5.11,8.13
	C1294.94,1117.49,1291.3,1113.98,1290.19,1109.38z M1300.71,1109.36c-0.69-2.85-2.62-5-4.7-5c-2.09,0-2.94,2.09-2.24,5.01
	c0.7,2.87,2.6,5,4.7,5C1300.58,1114.36,1301.41,1112.25,1300.71,1109.36z"/><path class="st8" d="M1311.28,1109.34c-1.1-4.55,0.89-8.13,5.11-8.13c4.2-0.01,7.88,3.51,9,8.11c1.1,4.55-0.87,8.12-5.11,8.13
	C1316.03,1117.46,1312.39,1113.94,1311.28,1109.34z M1321.8,1109.32c-0.69-2.85-2.62-5-4.7-5c-2.09,0-2.94,2.09-2.24,5.01
	c0.7,2.87,2.59,5,4.7,5C1321.68,1114.33,1322.5,1112.22,1321.8,1109.32z"/><path class="st31" d="M1334.4,1105.05l-2.6,0.68l-1.41-2.83l4.23-1.35l2.38,0l3.83,15.82l-3.45,0.01L1334.4,1105.05z"/><path class="st31" d="M1346.78,1109.49c-1.1-4.55,0.89-8.13,5.11-8.13c4.2-0.01,7.88,3.51,9,8.11c1.1,4.55-0.87,8.12-5.11,8.13
	S1347.89,1114.09,1346.78,1109.49z M1357.3,1109.47c-0.69-2.85-2.62-5-4.7-5c-2.09,0-2.94,2.09-2.24,5.01c0.7,2.87,2.6,5,4.7,5
	C1357.17,1114.48,1358,1112.37,1357.3,1109.47z"/><path class="st31" d="M1367.87,1109.46c-1.1-4.55,0.89-8.13,5.11-8.13c4.2-0.01,7.88,3.51,9,8.11c1.1,4.55-0.87,8.13-5.11,8.13
	S1368.98,1114.05,1367.87,1109.46z M1378.39,1109.44c-0.69-2.85-2.62-5-4.7-5c-2.09,0-2.94,2.09-2.24,5.01c0.7,2.87,2.6,5,4.7,5
	C1378.27,1114.44,1379.1,1112.33,1378.39,1109.44z"/><polygon class="st31" points="1390.58,1104.95 1387.98,1105.63 1386.57,1102.8 1390.8,1101.45 1393.18,1101.44 1397.01,1117.26 
	1393.56,1117.27 "/><path class="st31" d="M1427.72,1109.44c-1.1-4.55,0.89-8.13,5.11-8.13c4.2-0.01,7.88,3.51,9,8.11c1.1,4.55-0.87,8.12-5.11,8.13
	C1432.48,1117.55,1428.83,1114.04,1427.72,1109.44z M1438.25,1109.42c-0.69-2.85-2.62-5-4.7-5c-2.09,0-2.94,2.09-2.24,5.01
	c0.7,2.87,2.59,5,4.7,5C1438.12,1114.42,1438.95,1112.31,1438.25,1109.42z"/><path class="st31" d="M1450.43,1104.93l-2.6,0.68l-1.41-2.83l4.23-1.35l2.38,0l3.83,15.82l-3.45,0.01L1450.43,1104.93z"/><path class="st31" d="M1406.63,1109.47c-1.1-4.55,0.89-8.12,5.11-8.13c4.2-0.01,7.88,3.51,9,8.11c1.1,4.55-0.87,8.12-5.11,8.13
	C1411.38,1117.59,1407.74,1114.07,1406.63,1109.47z M1417.15,1109.45c-0.69-2.85-2.62-5-4.7-5c-2.09,0-2.94,2.09-2.24,5.01
	c0.7,2.87,2.6,5,4.7,5C1417.03,1114.46,1417.85,1112.35,1417.15,1109.45z"/><path class="st8" d="M960.9,1138.51c-1.1-4.55,0.89-8.12,5.11-8.13c4.2-0.01,7.88,3.51,9,8.11c1.1,4.55-0.87,8.12-5.11,8.13
	C965.66,1146.63,962.01,1143.11,960.9,1138.51z M971.42,1138.5c-0.69-2.85-2.62-5-4.7-5c-2.09,0-2.94,2.09-2.24,5.01
	c0.7,2.87,2.6,5,4.7,5C971.3,1143.5,972.13,1141.39,971.42,1138.5z"/><path class="st8" d="M981.99,1138.48c-1.1-4.55,0.89-8.13,5.11-8.13c4.2-0.01,7.88,3.51,9,8.11c1.1,4.55-0.87,8.12-5.11,8.13
	C986.75,1146.6,983.11,1143.08,981.99,1138.48z M992.52,1138.46c-0.69-2.85-2.62-5-4.7-5c-2.09,0-2.94,2.09-2.24,5.01
	c0.7,2.87,2.59,5,4.7,5C992.39,1143.47,993.22,1141.36,992.52,1138.46z"/><path class="st31" d="M1005.12,1134.18l-2.6,0.68l-1.41-2.83l4.23-1.35l2.38,0l3.83,15.82l-3.45,0.01L1005.12,1134.18z"/><path class="st31" d="M1017.49,1138.63c-1.1-4.55,0.89-8.13,5.11-8.13c4.2-0.01,7.88,3.51,9,8.11c1.1,4.55-0.87,8.12-5.11,8.13
	C1022.25,1146.74,1018.61,1143.23,1017.49,1138.63z M1028.02,1138.61c-0.69-2.85-2.62-5-4.7-5c-2.09,0-2.94,2.09-2.24,5.01
	c0.7,2.87,2.6,5,4.7,5C1027.89,1143.62,1028.72,1141.5,1028.02,1138.61z"/><path class="st31" d="M1038.59,1138.59c-1.1-4.55,0.89-8.13,5.11-8.13c4.2-0.01,7.88,3.51,9,8.11c1.1,4.55-0.87,8.13-5.11,8.13
	C1043.34,1146.71,1039.7,1143.19,1038.59,1138.59z M1049.11,1138.57c-0.69-2.85-2.62-5-4.7-5c-2.09,0-2.94,2.09-2.24,5.01
	c0.7,2.87,2.6,5,4.7,5C1048.98,1143.58,1049.81,1141.47,1049.11,1138.57z"/><path class="st31" d="M1061.3,1134.09l-2.6,0.68l-1.41-2.83l4.23-1.35l2.38,0l3.83,15.82l-3.45,0.01L1061.3,1134.09z"/><path class="st31" d="M1095.59,1138.65c-1.1-4.55,0.89-8.13,5.11-8.13c4.2-0.01,7.88,3.51,9,8.11c1.1,4.55-0.87,8.12-5.11,8.13
	C1100.34,1146.76,1096.7,1143.25,1095.59,1138.65z M1106.11,1138.63c-0.69-2.85-2.62-5-4.7-5c-2.09,0-2.94,2.09-2.24,5.01
	c0.7,2.87,2.59,5,4.7,5C1105.98,1143.64,1106.81,1141.52,1106.11,1138.63z"/><path class="st31" d="M1118.3,1134.14l-2.6,0.68l-1.41-2.83l4.23-1.35l2.38,0l3.83,15.82l-3.45,0.01L1118.3,1134.14z"/><path class="st31" d="M1074.5,1138.68c-1.1-4.55,0.89-8.12,5.11-8.13c4.2-0.01,7.88,3.51,9,8.11c1.1,4.55-0.87,8.12-5.11,8.13
	C1079.25,1146.8,1075.61,1143.28,1074.5,1138.68z M1085.02,1138.67c-0.69-2.85-2.62-5-4.7-5c-2.09,0-2.94,2.09-2.24,5.01
	c0.7,2.87,2.6,5,4.7,5C1084.89,1143.67,1085.72,1141.56,1085.02,1138.67z"/><path class="st8" d="M1130.68,1138.59c-1.1-4.55,0.89-8.12,5.11-8.13c4.2-0.01,7.88,3.51,9,8.11c1.1,4.55-0.87,8.12-5.11,8.13
	C1135.43,1146.71,1131.79,1143.19,1130.68,1138.59z M1141.2,1138.57c-0.69-2.85-2.62-5-4.7-5c-2.09,0-2.94,2.09-2.24,5.01
	c0.7,2.87,2.6,5,4.7,5C1141.07,1143.58,1141.9,1141.46,1141.2,1138.57z"/><path class="st8" d="M1151.77,1138.55c-1.1-4.55,0.89-8.13,5.11-8.13c4.2-0.01,7.88,3.51,9,8.11c1.1,4.55-0.87,8.12-5.11,8.13
	C1156.52,1146.67,1152.88,1143.15,1151.77,1138.55z M1162.29,1138.54c-0.69-2.85-2.62-5-4.7-5c-2.09,0-2.94,2.09-2.24,5.01
	c0.7,2.87,2.59,5,4.7,5C1162.16,1143.54,1162.99,1141.43,1162.29,1138.54z"/><path class="st31" d="M1174.89,1134.26l-2.6,0.68l-1.41-2.83l4.23-1.35l2.38,0l3.83,15.82l-3.45,0.01L1174.89,1134.26z"/><path class="st31" d="M1187.27,1138.7c-1.1-4.55,0.89-8.13,5.11-8.13c4.2-0.01,7.88,3.51,9,8.11c1.1,4.55-0.87,8.12-5.11,8.13
	C1192.02,1146.82,1188.38,1143.3,1187.27,1138.7z M1197.79,1138.68c-0.69-2.85-2.62-5-4.7-5c-2.09,0-2.94,2.09-2.24,5.01
	c0.7,2.87,2.6,5,4.7,5C1197.66,1143.69,1198.49,1141.58,1197.79,1138.68z"/><path class="st31" d="M1208.36,1138.67c-1.1-4.55,0.89-8.13,5.11-8.13c4.2-0.01,7.88,3.51,9,8.11c1.1,4.55-0.87,8.13-5.11,8.13
	C1213.12,1146.78,1209.47,1143.26,1208.36,1138.67z M1218.88,1138.65c-0.69-2.85-2.62-5-4.7-5c-2.09,0-2.94,2.09-2.24,5.01
	c0.7,2.87,2.6,5,4.7,5C1218.76,1143.65,1219.58,1141.54,1218.88,1138.65z"/><polygon class="st31" points="1231.07,1134.16 1228.47,1134.84 1227.06,1132.01 1231.29,1130.66 1233.67,1130.66 1237.5,1146.47 
	1234.05,1146.48 "/><path class="st31" d="M1264.46,1138.65c-1.1-4.55,0.89-8.13,5.11-8.13c4.2-0.01,7.88,3.51,9,8.11c1.1,4.55-0.87,8.12-5.11,8.13
	C1269.21,1146.76,1265.57,1143.25,1264.46,1138.65z M1274.98,1138.63c-0.69-2.85-2.62-5-4.7-5c-2.09,0-2.94,2.09-2.24,5.01
	c0.7,2.87,2.59,5,4.7,5C1274.85,1143.64,1275.68,1141.52,1274.98,1138.63z"/><path class="st31" d="M1287.17,1134.14l-2.6,0.68l-1.41-2.83l4.23-1.35l2.38,0l3.83,15.82l-3.45,0.01L1287.17,1134.14z"/><path class="st31" d="M1243.36,1138.68c-1.1-4.55,0.89-8.12,5.11-8.13c4.2-0.01,7.88,3.51,9,8.11c1.1,4.55-0.87,8.12-5.11,8.13
	C1248.12,1146.8,1244.48,1143.28,1243.36,1138.68z M1253.89,1138.67c-0.69-2.85-2.62-5-4.7-5c-2.09,0-2.94,2.09-2.24,5.01
	c0.7,2.87,2.6,5,4.7,5C1253.76,1143.67,1254.59,1141.56,1253.89,1138.67z"/><path class="st8" d="M1299.54,1138.59c-1.1-4.55,0.89-8.12,5.11-8.13c4.2-0.01,7.88,3.51,9,8.11c1.1,4.55-0.87,8.12-5.11,8.13
	C1304.3,1146.71,1300.66,1143.19,1299.54,1138.59z M1310.07,1138.57c-0.69-2.85-2.62-5-4.7-5c-2.09,0-2.94,2.09-2.24,5.01
	c0.7,2.87,2.6,5,4.7,5C1309.94,1143.58,1310.77,1141.46,1310.07,1138.57z"/><path class="st8" d="M1320.64,1138.55c-1.1-4.55,0.89-8.13,5.11-8.13c4.2-0.01,7.88,3.51,9,8.11c1.1,4.55-0.87,8.12-5.11,8.13
	C1325.39,1146.67,1321.75,1143.15,1320.64,1138.55z M1331.16,1138.54c-0.69-2.85-2.62-5-4.7-5c-2.09,0-2.94,2.09-2.24,5.01
	c0.7,2.87,2.59,5,4.7,5C1331.03,1143.54,1331.86,1141.43,1331.16,1138.54z"/><path class="st31" d="M1343.76,1134.26l-2.6,0.68l-1.41-2.83l4.23-1.35l2.38,0l3.83,15.82l-3.45,0.01L1343.76,1134.26z"/><path class="st31" d="M1356.14,1138.7c-1.1-4.55,0.89-8.13,5.11-8.13c4.2-0.01,7.88,3.51,9,8.11c1.1,4.55-0.87,8.12-5.11,8.13
	C1360.89,1146.82,1357.25,1143.3,1356.14,1138.7z M1366.66,1138.68c-0.69-2.85-2.62-5-4.7-5c-2.09,0-2.94,2.09-2.24,5.01
	c0.7,2.87,2.6,5,4.7,5C1366.53,1143.69,1367.36,1141.58,1366.66,1138.68z"/><path class="st31" d="M1377.23,1138.67c-1.1-4.55,0.89-8.13,5.11-8.13c4.2-0.01,7.88,3.51,9,8.11c1.1,4.55-0.87,8.13-5.11,8.13
	C1381.98,1146.78,1378.34,1143.26,1377.23,1138.67z M1387.75,1138.65c-0.69-2.85-2.62-5-4.7-5c-2.09,0-2.94,2.09-2.24,5.01
	c0.7,2.87,2.6,5,4.7,5C1387.63,1143.65,1388.45,1141.54,1387.75,1138.65z"/><polygon class="st31" points="1399.94,1134.16 1397.34,1134.84 1395.93,1132.01 1400.16,1130.66 1402.54,1130.66 1406.37,1146.47 
	1402.92,1146.48 "/><path class="st31" d="M1437.08,1138.65c-1.1-4.55,0.89-8.13,5.11-8.13c4.2-0.01,7.88,3.51,9,8.11c1.1,4.55-0.87,8.12-5.11,8.13
	C1441.84,1146.76,1438.19,1143.25,1437.08,1138.65z M1447.6,1138.63c-0.69-2.85-2.62-5-4.7-5c-2.09,0-2.94,2.09-2.24,5.01
	c0.7,2.87,2.59,5,4.7,5C1447.48,1143.64,1448.3,1141.52,1447.6,1138.63z"/><path class="st31" d="M1459.79,1134.14l-2.6,0.68l-1.41-2.83l4.23-1.35l2.38,0l3.83,15.82l-3.45,0.01L1459.79,1134.14z"/><path class="st31" d="M1415.99,1138.68c-1.1-4.55,0.89-8.12,5.11-8.13c4.2-0.01,7.88,3.51,9,8.11c1.1,4.55-0.87,8.12-5.11,8.13
	C1420.74,1146.8,1417.1,1143.28,1415.99,1138.68z M1426.51,1138.67c-0.69-2.85-2.62-5-4.7-5c-2.09,0-2.94,2.09-2.24,5.01
	c0.7,2.87,2.6,5,4.7,5C1426.38,1143.67,1427.21,1141.56,1426.51,1138.67z"/><path class="st8" d="M1462.81,1109.38c-1.1-4.55,0.89-8.12,5.11-8.13c4.2-0.01,7.88,3.51,9,8.11c1.1,4.55-0.87,8.12-5.11,8.13
	C1467.56,1117.49,1463.92,1113.98,1462.81,1109.38z M1473.33,1109.36c-0.69-2.85-2.62-5-4.7-5c-2.09,0-2.94,2.09-2.24,5.01
	c0.7,2.87,2.6,5,4.7,5C1473.2,1114.36,1474.03,1112.25,1473.33,1109.36z"/><path class="st8" d="M1483.9,1109.34c-1.1-4.55,0.89-8.13,5.11-8.13c4.2-0.01,7.88,3.51,9,8.11c1.1,4.55-0.87,8.12-5.11,8.13
	C1488.66,1117.46,1485.01,1113.94,1483.9,1109.34z M1494.42,1109.32c-0.69-2.85-2.62-5-4.7-5c-2.09,0-2.94,2.09-2.24,5.01
	c0.7,2.87,2.59,5,4.7,5C1494.3,1114.33,1495.13,1112.22,1494.42,1109.32z"/><path class="st31" d="M1507.03,1105.05l-2.6,0.68l-1.41-2.83l4.23-1.35l2.38,0l3.83,15.82l-3.45,0.01L1507.03,1105.05z"/><path class="st31" d="M1540.49,1109.46c-1.1-4.55,0.89-8.13,5.11-8.13c4.2-0.01,7.88,3.51,9,8.11c1.1,4.55-0.87,8.13-5.11,8.13
	C1545.25,1117.57,1541.61,1114.05,1540.49,1109.46z M1551.02,1109.44c-0.69-2.85-2.62-5-4.7-5c-2.09,0-2.94,2.09-2.24,5.01
	c0.7,2.87,2.6,5,4.7,5C1550.89,1114.44,1551.72,1112.33,1551.02,1109.44z"/><polygon class="st31" points="1563.2,1104.95 1560.6,1105.63 1559.19,1102.8 1563.42,1101.45 1565.8,1101.44 1569.63,1117.26 
	1566.19,1117.27 "/><path class="st23" d="M1157.11,840.81l-2.84-7.47c-7.16-18.85-28.2-16.46-47.32-16.46H983.81l20.86,81.01l84.61,349.76l513.95,0.77
	L1493.22,858.1h-288.27C1183.91,858.1,1164.98,861.55,1157.11,840.81z"/><g><g><g><path class="st32" d="M671,1023.41c0,0,2.51-27.35-28.05-27.35c0,0,9.26,2.51,14.05,7.54c0,0-19.49-11.44-40.7,6.14
				c-21.21,17.58-8.03,61.68-14.48,70.05c-6.45,8.37-31.57,10.05-28.5,37.12c3.07,27.07,79.72,60.98,74.8,83.38
				c0,0,30.04-44.16,8.56-64.31c0,0,10.47,9.86,11.54,21.58c0,0,2.84-22.89-11.72-30.21c-12.89-6.48-23.45-30.17-22.33-34.4
				C635.27,1088.72,671,1023.41,671,1023.41z"/></g><g><path class="st33" d="M640.91,1154.73c0,0,22.83,94.45,45.24,113.34c13.47,11.35,50.01,37.49,50.01,37.49l-18.36,0.48
				c0,0-50.34-13.29-62.78-27.92c-12.44-14.62-46.49-87.9-46.49-87.9L640.91,1154.73z"/></g><g><path class="st34" d="M426.33,1320.67c0.2,0.36,0.42,0.73,0.63,1.11c5,8.68,16.46,29.96,29.08,53.25
				c5.97,11.05,12.22,22.55,18.15,33.37c10.22,18.67,19.52,35.31,24.94,44.09c5.52,8.94,9.58,15.22,11.22,17.73
				c0.01,0.01,0.01,0.01,0.01,0.01c0.49,0.77,0.6,1.68,0.54,2.59c-0.57,7.88-0.41,15.71,0.36,23.42
				c7.61,75.75,58.7,116.35,58.7,116.35l15.19,2.24c0,0-21.49-79.63-27.83-124.65c-1.07-7.63-1.54-13.81-1.16-17.85
				c1.12-11.73-0.96-28.95-4.9-48.72c-7.01-35.13-19.88-78.25-31.06-112.77c-0.71-2.2-22.07-79.47-22.07-79.47
				c-17.93,15.67-83.31,22.13-83.31,22.13S403.73,1280.48,426.33,1320.67z"/></g><g><path class="st35" d="M617.03,1634.05h-63.39c0,0-1.52-9.66,1.79-16.99c3.17-7.03,7.69-7.26,0.58-18.28
				c4.03,4.15,16.98,5.86,26.14,4.63c1.12,1.82,7.24,14.03,10.99,16.73C597.28,1623.11,615.75,1622.05,617.03,1634.05z"/></g><g><path class="st36" d="M426.33,1320.67c0.2,0.36,0.42,0.73,0.63,1.11c5,8.68,32.02,58.59,44.64,81.87
				c-14.63-60.18-4.45-120.36-4.45-120.36L426.33,1320.67z"/></g><g><path class="st32" d="M662.35,1019.57c0.42-1.66-36.21,16.55-38.06,18.61c-17.17,19.05-12.28,43.91-2.45,44.15
				c6.3,0.15,5.08,10.63,5.08,10.63l70.21-29.7C697.13,1063.25,688.68,1013.96,662.35,1019.57z"/></g><g><path class="st16" d="M638.76,1140.55c0,0,10.68,21.34,9.35,38.67c0,0-12.88,20.34-46.3,25.49
				C601.81,1204.7,630.54,1140.53,638.76,1140.55z"/></g><g><path class="st34" d="M475.75,1258.24l0.21-11.86c-23.62,2.98-81.45-28.23-81.45-28.23s-24.71,16.44-28.09,63.38
				c-1.65,22.91-12.1,119.8-13.25,148.73c-0.42,10.49-0.56,17.97-0.61,20.96c0.01,0.01,0,0.02,0,0.03c-0.01,0.91-0.44,1.72-1,2.44
				c-4.89,6.21-9.13,12.79-12.8,19.62c-36.04,67.06-17.2,158.19-17.2,158.19l8.37-2.13c0,0,30.48-94.46,50.4-135.33
				c3.38-6.93,6.45-12.32,9.02-15.44c7.49-9.1,15.39-24.54,23.17-43.14C427.24,1400.32,475.75,1258.24,475.75,1258.24z"/></g><g><path class="st35" d="M371.98,1634.05h-63.39c0,0-1.52-9.66,1.79-16.99c3.17-7.03,8.14-10.23,6.95-18.74
				c4.03,4.15,10.59,8.79,19.76,7.56c1.12,1.82,7.25,11.56,11,14.26C352.23,1623.11,370.7,1622.05,371.98,1634.05z"/></g><g><path class="st37" d="M597.53,1218.32c-8.51,1.45,1.39,8.22-10.32,9.49c-16.67,1.82-33.88,3.06-42.89,6.66
				c-3.29,1.31-5.49,2.93-6.17,5c-3.91,11.75-28.66,31.94-28.66,31.94c-110.38-5.02-117.49-54.22-117.49-54.22
				c71.64-69.58,132.58-107.5,182.95-112.19c12.26-1.14,28.78,0.39,36.54,3.84c17.62,7.84,27.27,31.71,27.27,31.71
				S629.88,1212.8,597.53,1218.32z"/></g><g><path class="st16" d="M587.21,1227.81c-16.67,1.82-33.88,3.06-42.89,6.66c-3.68-55.05,22.29-96.46,22.29-96.46
				S583.56,1206.98,587.21,1227.81z"/></g><g><path class="st33" d="M601.59,1128.69c0,0-41.92-2.29-49.36,24.03c-7.45,26.32,13.97,131.36,18.59,142.2
				c8.41,19.74,50.78,78.53,50.78,78.53l13.58-7.04c0,0-27.28-86.06-33.37-94.58C592.25,1258.46,614.14,1140.14,601.59,1128.69z"/></g><g><path class="st33" d="M635.18,1366.41c0,0,3.5,3.05,6.32,6.49c2.82,3.44,0.34,4.69,8.44,20.29c0,0-0.41,2.17-2.17,1.77
				c-1.76-0.39-7.87-6.44-11-6.01c0,0-2.24,1.84-2.48,7.96c-0.23,5.72-0.25,18.37-1.24,20.75c-1,2.38-8.27-9.96-11.85-18.88
				c-3.14-7.82-0.08-34.2-0.08-34.2L635.18,1366.41z"/></g><g><path class="st37" d="M543.96,1187.91c0.11,0.62,39.67,7.28,64.41-5.28c0,0,20.67-64.75-8.87-61.65
				c-29.54,3.1-47.03,12.4-47.77,26.54C550.98,1161.66,543.96,1187.91,543.96,1187.91z"/></g><g><path class="st33" d="M610.54,1113.38c0.43,5.24,1.1,11.38,7.95,18.44c5.25,5.41,12.85,9.63,18.18,4.3
				c2.72-2.72,6.39-6.77,8.25-9.97c4.61-7.92,10.1-16.02,10.1-16.02l-23.72-20.79l-1.42-1.24c-6.21,10.85-12.32,16.07-17.67,20.05
				C610.6,1109.37,610.38,1111.37,610.54,1113.38z"/></g><g><path class="st38" d="M655.03,1110.14c0,0-5.48,8.08-10.09,16.01c-14.75-9.09-14.76-27.35-13.63-36.8L655.03,1110.14z"/></g><g><path class="st33" d="M655.68,1120.56c0,0-35.8-19.92-23.05-42.03s16.72-39.57,40.11-27.78c23.4,11.79,22.94,22.76,20.47,31.17
				C690.76,1090.34,665.33,1125.17,655.68,1120.56z"/></g><g><path class="st32" d="M699.27,1069.03c-1.64-9.82-6.62-10.75-10.1-10.1c-13.22-21.87-34.82-13.33-34.82-13.33
				c-11.54,14.48-28.22,16.95-28.22,16.95s4.15,7.73,21.27,12.52c5.23,1.46,11.16,0.58,16.89-1.35c-11.88,6.62-24.3,9.16-24.3,9.16
				c22.56,2.07,44.02-18.56,46.25-20.77c1.04,3.2,2.87,9.89,1.77,14.78c-1.49,6.65-7.39,18.69-3.78,20.25
				C684.22,1097.14,701.73,1083.75,699.27,1069.03z"/></g><g><path class="st33" d="M746.23,1305.51c0,0-9.99,7.49-2.46,12.39c7.53,4.9,20.97,6.22,21.03,3.01
				C764.98,1310.12,759.6,1302.45,746.23,1305.51z"/></g></g></g></svg>