<?xml version="1.0" encoding="utf-8"?><!--Generator: Adobe Illustrator 25.2.1, SVG Export Plug-In . SVG Version: 6.00 Build 0)--><svg version="1.1" id="Layer_1" xmlns="http://www.w3.org/2000/svg" xmlns:xlink="http://www.w3.org/1999/xlink" x="0px" y="0px" viewBox="0 0 2701.74 1442.94" style="enable-background:new 0 0 2701.74 1442.94" xml:space="preserve"><style type="text/css">.st0{fill:#E5F1FA;}
	.st1{fill:#82B479;}
	.st2{fill:#A8D29F;}
	.st3{fill:#699DEE;}
	.st4{fill:#AFCDFB;}
	.st5{fill:#FFFFFF;}
	.st6{fill:#2A3967;}
	.st7{fill:#455B87;}
	.st8{fill:#344670;}
	.st9{fill:#1E3459;}
	.st10{fill:#E9F3FE;}
	.st11{fill:#00964B;}
	.st12{fill:#233862;}
	.st13{fill:#1F3B68;}
	.st14{fill:#182842;}
	.st15{fill:#FFB27D;}
	.st16{fill:#163560;}
	.st17{fill:#007451;}
	.st18{fill:#06944B;}
	.st19{fill:#C0D8F9;}
	.st20{fill:#D4E3F4;}
	.st21{clip-path:url(#SVGID_2_);}
	.st22{fill:#E49963;}
	.st23{fill:#A8D2A0;}
	.st24{fill:#D68D5D;}
	.st25{fill:#2B478B;}
	.st26{fill:#E7F1FD;}
	.st27{fill:#D86713;}
	.st28{fill:#4A75CB;}
	.st29{fill:#C65447;}
	.st30{opacity:0.4;fill:#FFFFFF;}
	.st31{fill:#283250;}</style><g><path class="st0" d="M432.48,1427.42c0,0-290.98,53.44-383.6-148.73C-71.29,1016.42,175.6,817.55,364.95,854.6
		c412.6,80.74,313.25-809.95,975.42-628.17c186.19,51.11,689.27-252.53,829.57,234.34c33.36,115.77,151.57,128.52,323.17,201.98
		c335.83,143.77,182.28,767.1-57.69,769.55S432.48,1427.42,432.48,1427.42z"/><g><g><g><rect x="1875.47" y="792.31" transform="matrix(-1 -1.224647e-16 1.224647e-16 -1 3922.311 2223.2202)" class="st1" width="171.37" height="638.59"/><rect x="1795.45" y="792.31" transform="matrix(-1 -1.224647e-16 1.224647e-16 -1 3716.834 2223.2202)" class="st2" width="125.92" height="638.59"/></g></g><circle class="st1" cx="1860.53" cy="1363.25" r="28.11"/><g><g><rect x="2126.86" y="792.31" transform="matrix(-1 -1.224647e-16 1.224647e-16 -1 4425.085 2223.2202)" class="st3" width="171.37" height="638.59"/><rect x="2046.84" y="792.31" transform="matrix(-1 -1.224647e-16 1.224647e-16 -1 4219.6079 2223.2202)" class="st4" width="125.92" height="638.59"/></g></g><circle class="st3" cx="2111.92" cy="1363.25" r="28.11"/><rect x="2083.81" y="857.31" class="st5" width="56.22" height="335.18"/><g><g><rect x="2375.3" y="792.31" transform="matrix(-1 -1.224647e-16 1.224647e-16 -1 4921.9663 2223.2202)" class="st6" width="171.37" height="638.59"/><rect x="2295.28" y="792.31" transform="matrix(-1 -1.224647e-16 1.224647e-16 -1 4716.4893 2223.2202)" class="st7" width="125.92" height="638.59"/></g></g><circle class="st6" cx="2360.36" cy="1363.25" r="28.11"/><rect x="2332.25" y="857.31" class="st5" width="56.22" height="335.18"/><rect x="1830.31" y="861.59" class="st5" width="56.22" height="335.18"/></g><g><path class="st6" d="M1464.08,668.57L1524.5,1387c0,0,6.33,43.55-26.06,43.63c-53.26,0.13-265.1,0-265.1,0s40.09-9.07,39.6-29.46
			c-0.57-24.04-70.62-739.39-70.62-739.39L1464.08,668.57z"/><path class="st8" d="M1216.15,1417.6c10.48,0.03,212.81,0.67,264.68,0c22.6-0.28,26.57-20.1,26.76-32.92
			c0.09-6.15-0.69-10.69-0.69-10.69l-1.57-18.67l-4.01-47.59l-3.54-42.05l-4.55-54.03l-3.83-45.61l-42.93-510.5l-261.76-6.79
			c0,0,29.5,299.37,50.37,517.29c2.33,24.28,4.55,47.56,6.6,69.29c0.67,6.94,1.3,13.72,1.92,20.33c1.93,20.62,3.7,39.55,5.24,56.27
			c0.81,8.81,1.56,17,2.24,24.5c2.66,29.39,4.22,48.16,4.24,51.72c0.01,2.08-0.17,4.02-0.51,5.82
			C1250.52,1416.85,1220.08,1417.6,1216.15,1417.6z"/><polygon class="st8" points="843.05,277.63 2099.78,277.63 1952.61,868.81 1932.46,949.77 1863.91,1225.13 590.4,1225.13 		"/><polygon class="st6" points="2099.79,277.63 2120.18,284.43 1891.03,1245.7 1863.91,1225.13 		"/><polygon class="st6" points="1891.03,1245.7 625.35,1245.7 590.4,1225.13 1863.91,1225.13 		"/><rect x="1172.52" y="1417.88" class="st9" width="274.04" height="13.02"/><polygon class="st6" points="1242.18,1245.69 1243.6,1255.65 1501.32,1307.71 1497.78,1265.66 1496.09,1245.69 		"/><path class="st6" d="M1216.15,1417.6c10.48,0.03,212.81,0.67,264.68,0c22.6-0.28,26.57-20.1,26.76-32.92l-256.5-48.26
			c2.66,29.39,4.22,48.16,4.24,51.72c0.01,2.08-0.17,4.02-0.51,5.82C1250.52,1416.85,1220.08,1417.6,1216.15,1417.6z"/><polygon class="st6" points="1321.03,1038.99 1863.91,1225.13 1910.27,1038.88 		"/><polygon class="st8" points="843.06,277.63 2099.79,277.63 1910.38,1038.88 639.15,1039.12 		"/></g><polygon class="st10" points="698.42,1006.12 1875.1,1006.12 2008.36,475.27 2018.57,434.56 2027.29,399.84 2047.73,318.42 
		888.01,318.42 865.56,399.84 855.99,434.56 844.77,475.27 	"/><polygon class="st11" points="888.01,318.42 2047.73,318.42 2027.29,399.84 865.56,399.84 	"/><g><path class="st10" d="M1992.11,345.04c5.62,0,9.04,4.56,7.64,10.18c-1.4,5.62-7.09,10.18-12.72,10.18
			c-5.62,0-9.04-4.56-7.64-10.18C1980.8,349.59,1986.49,345.04,1992.11,345.04z"/><path class="st10" d="M1958.29,345.04c5.62,0,9.04,4.56,7.64,10.18c-1.4,5.62-7.09,10.18-12.72,10.18
			c-5.62,0-9.04-4.56-7.64-10.18C1946.98,349.59,1952.67,345.04,1958.29,345.04z"/><path class="st10" d="M1909.16,355.21c1.4-5.62,7.09-10.18,12.72-10.18c5.62,0,9.04,4.56,7.64,10.18
			c-1.4,5.62-7.09,10.18-12.72,10.18S1907.76,360.83,1909.16,355.21z"/></g><g id="man_1_"><g><path class="st12" d="M273.63,1357.71c0,0-14.98,13.88-12.06,23.75c2.92,9.86,16.44,16.44,18.27,28.5
				c1.83,12.06,9.13,18.63,15.71,18.63c6.58,0,31.35,0,31.35,0s4.84-8.48-6.85-11.04c-11.69-2.56-16.1-16.72-15.37-29.88
				c0.73-13.15-1.1-30.69-1.1-30.69l-24.84-5.84L273.63,1357.71z"/><path class="st12" d="M545.19,1428.56h-83.25c-0.72-0.15-1.27-0.31-1.62-0.49c-5.55-2.77-3.82-24-3.15-30.58
				c0.13-1.22,0.22-1.94,0.22-1.94s29.23-23.38,33.25-5.47c0.12,0.56,0.27,1.11,0.43,1.65c5.05,16.75,27.74,24.36,40.85,26.48
				C541.92,1419.84,544.52,1425.64,545.19,1428.56z"/><path class="st13" d="M528.45,949.27c0,0-4.44,55.38-9.66,121.95c-7.09,90.43-15.62,201.51-16.46,222.55
				c-1.46,36.54-7.31,94.99-7.31,94.99s-13.87,13.89-41.65,8.03c0,0-24.75-83.44-31.82-171.72c-0.11-1.45-0.22-2.9-0.33-4.36
				c-6.58-89.87-16.8-279.12-16.8-279.12L528.45,949.27z"/><path class="st14" d="M528.45,949.27c0,0-4.44,55.38-9.66,121.95l-97.24,153.85c-0.11-1.45-0.22-2.9-0.33-4.36
				c-6.58-89.87-16.8-279.12-16.8-279.12L528.45,949.27z"/><path class="st13" d="M508.18,955.85c0,0-80.01,200.57-132.61,294.82c-52.61,94.25-69.05,120.56-69.05,120.56
				s-30.14-12.06-32.88-20.28c0,0,20.12-181.96,55.35-226.32c19.91-25.06,43.29-100.28,44.39-126.59c1.1-26.3,7.12-78.36,7.12-78.36
				L508.18,955.85z"/></g><path class="st15" d="M589.09,900.48l4.57,9.12c0,0,23.25,3.25,16.85,27.49c0,0-3.45,9.97-9.86,6.82
			c-6.41-3.16-3.25-2.89-12.45-7.14c-9.19-4.25-14.51-12.41-12.45-19.89l-1.47-7.93L589.09,900.48z"/><path class="st15" d="M467.14,646.26c3.56-21,3.67-33.45,3.67-33.45l-40.59-32.71c1.51,44.98-27.32,66.61-27.32,66.61
			s54.09,26.63,85.36,16.77C488.26,663.47,480.56,653.63,467.14,646.26z"/><path class="st15" d="M480.37,612.06c0,0-51.64,8.58-56.49-23.66c-4.85-32.24-14.78-52.85,17.99-59.69
			c32.77-6.84,41.04,4.5,45.27,14.86C491.38,553.94,493.68,609,480.37,612.06z"/><path class="st16" d="M424.22,590.63c0,0,1.04-43.19,48.1-50.12c32.23-4.75,12.71-31.68,9.03-35.94c0,0-24.64,4.7-49.85,10.24
			C378.56,526.41,418.63,584.2,424.22,590.63z"/><path class="st17" d="M583.67,913.15c6.9-7.08,12.03-16.31,12.03-16.31s-58.68-72.9-63.44-80.46
			c-4.77-7.56-40.4-128.82-40.4-128.82l-90.11-18.26c0,0,75.22,155.18,87.68,174.1c20.59,31.26,82.19,77.79,82.19,77.79
			S578.24,918.71,583.67,913.15z"/><path class="st18" d="M531.9,953.89c-0.94,0.78-2.03,1.25-3.29,1.25c-11.74-0.16-45.98,6.36-74.95,3.39
			c-24.42-2.34-46.04-9.58-69.25-19.98c-3.08-1.38-10.18-5.17-10.02-8.61c0.1-3.77,0.48-9.24,0.95-16.13
			c1.64-23.96,4.51-65.17,1.71-112.72c-0.5-8.85-0.77-17.63-0.8-26.28c-0.24-64.44,12.32-121.43,37.99-140.61
			c2.19-1.57,15.88,5.33,28.25,11.43c11.43,5.64,19.42,5.51,30.22,3.32l14.24,10.3c13.15,12.21,27.56,28.81,33.82,54.01
			c5.33,21.45,8.45,60.12,10.18,100.2c0.78,18.16,1.41,36.48,1.57,53.86v0.62c0.15,1.72,0.15,3.6,0.15,5.33
			C533.31,917.88,532.68,953.26,531.9,953.89z"/><path class="st17" d="M375.35,913.79c1.64-23.96,4.51-65.17,1.71-112.72c-0.5-8.85-0.77-17.63-0.8-26.28
			c10.69-25.95,19.44-44.76,19.44-44.76h26.96C422.66,730.04,442.42,865.04,375.35,913.79z"/><g><path class="st15" d="M322.9,922.19l-5.12,8.82c0,0,10.03,21.23-13.76,29.16c0,0-10.23,2.58-11.11-4.51
				c-0.88-7.09,0.63-4.3-0.85-14.32c-1.49-10.02,2.43-18.94,9.81-21.32l5.83-5.58L322.9,922.19z"/><path class="st18" d="M309.33,924.6c9.71,1.89,20.23,1.13,20.23,1.13s28.82-89.03,32.53-97.16
				c3.71-8.13,85.61-104.39,85.61-104.39l-34.12-85.38c0,0-88.58,147.96-97.57,168.75c-14.86,34.36-20.02,111.38-20.02,111.38
				S301.7,923.11,309.33,924.6z"/></g></g><g><polygon class="st4" points="1343.43,886.15 794.1,886.15 981.9,126.41 1531.23,126.41 		"/><polygon class="st19" points="1261.38,838.75 712.05,838.75 899.84,79.01 1449.17,79.01 		"/><polygon class="st20" points="1172.47,784.58 623.14,784.58 810.93,24.83 1360.26,24.83 		"/><polygon class="st3" points="1437.98,126.41 1264.18,834.21 807.5,838.75 1277.97,849.1 		"/><polygon class="st3" points="1346.74,79.01 1181.62,780.03 724.94,784.58 1189.37,796.05 		"/><polygon class="st10" points="943.61,288.12 789.98,288.12 838.07,95.14 991.7,95.14 		"/><polygon class="st4" points="1294.34,121.8 1019.08,121.8 1025.85,95.14 1301.11,95.14 		"/><polygon class="st4" points="1281.92,176.54 1006.67,176.54 1013.44,149.87 1288.69,149.87 		"/><polygon class="st4" points="1268.94,231.28 993.69,231.28 1000.46,204.61 1275.71,204.61 		"/><polygon class="st4" points="1253.7,286.02 978.45,286.02 985.22,259.35 1260.48,259.35 		"/><polygon class="st4" points="1253.7,343.01 749.83,343.01 756.6,316.35 1260.48,316.35 		"/><polygon class="st4" points="1240.25,400.01 736.38,400.01 743.15,373.35 1247.03,373.35 		"/><polygon class="st4" points="1221.63,464.19 717.75,464.19 724.53,437.53 1228.4,437.53 		"/><polygon class="st4" points="1204.7,519.61 700.82,519.61 707.6,492.95 1211.47,492.95 		"/><g><defs><polygon id="SVGID_1_" points="943.61,288.12 789.98,288.12 838.07,95.14 991.7,95.14 				"/></defs><clipPath id="SVGID_2_"><use xlink:href="#SVGID_1_" style="overflow:visible"/></clipPath><g class="st21"><path class="st22" d="M957.02,307.32c0,0,9.01-4.11,12.53-2.85c3.52,1.26,13.06,5.37,12.84,9.5c-0.22,4.13-15.52,8.7-25.75,3.7
					C946.41,312.66,957.02,307.32,957.02,307.32z"/><path class="st23" d="M959.69,318.63c-0.16,0.51-0.37,0.99-0.64,1.43c-3.03,4.88-52.97,5.13-58.67,1.03
					c-2.55-1.83-3.33-27.1-3.41-54.47c-0.1-33.84,0.87-70.91,0.87-70.91s19.54,9.07,20.49,20.23c0.95,11.16-7.26,78.23-1.56,82.33
					c5.71,4.1,32.03,4.63,40.81,7.21C957.58,305.47,961.31,313.51,959.69,318.63z"/><path class="st16" d="M909.17,118.76c-3.42-3.56-9-3.89-12.59-4.14c1.04-0.83,2.89-0.94,2.89-0.94
					c-2.17-0.62-7.39,0.94-7.39,0.94s-17.45-11.99-29.28,11.43c0,0,1.73-1.66,4.05-3.5c-6.83,13.47-4.54,35.48,10.72,41.32
					C887.49,167.66,944.19,155.23,909.17,118.76z"/><path class="st22" d="M898.6,201.3c0.1,0.06-10.56,3.95-17.8,0.92c-6.81-2.84-10.24-12.6-10.14-12.6
					c3.07-0.21,4.46-4.2,6.69-21.88l1.32,0.44l22.15,7.45c0,0-1.44,7.09-2.33,13.83C897.73,195.12,897.38,200.53,898.6,201.3z"/><path class="st24" d="M900.82,175.63c0,0-1.44,7.09-2.33,13.83c-12.68-2.01-17.9-14.49-19.82-21.28L900.82,175.63z"/><path class="st16" d="M876.64,165.4c0,0-5.3-11.4-5.73-20.61c-0.31-6.58,6.06-29.99,29.57-23.45c0,0,6.87,1.59,12.84,6.85
					c4.75,4.19,11.27,12.74,0.18,32.46l-3.09,6.74L876.64,165.4z"/><path class="st22" d="M904.24,182.56c0,0-30.16-3.41-27.75-22.16c2.41-18.75,0.14-31.82,19.5-30.44
					c19.36,1.38,22.18,9.02,22.89,15.47C919.6,151.89,912.15,182.97,904.24,182.56z"/><path class="st1" d="M906.22,225.03c-0.25-2.2,4.46-3.23,5.32-1.18c1.61,3.83,1.43,8.38,1.79,12.07
					c1.03,10.53-3.14,24.22-3.14,24.22L906.22,225.03z"/><path class="st16" d="M919.33,134.9c-3.91-6.23-7.59-5.46-9.78-4.03c-5.24-10.56-27.63,0.83-27.63,0.83
					c-3.76,13.19-14.46,19.64-14.46,19.64s5.05,4.1,18.12,2.49c10.29-1.27,19.35-14.5,22.74-20.08c1.58,1.82,4.88,5.99,5.55,9.74
					c0.88,4.97,0.28,14.89,3.19,14.92C917.07,158.41,925.22,144.26,919.33,134.9z"/><path class="st5" d="M899.02,170.33c0,0,0.25,2.45,6.23,2.86c0,0,5.01,0.34,5.2-2.3C910.45,170.89,905.86,168.4,899.02,170.33z"/><path class="st1" d="M959.69,318.63c-0.16,0.51-0.37,0.99-0.64,1.43c-3.03,4.88-52.97,5.13-58.67,1.03
					c-2.55-1.83-3.37-33.23,3.65-60.31c1.67,16.22-1.39,48.66,7.1,51.3C920.77,315.09,947.06,315.15,959.69,318.63z"/><path class="st23" d="M911.87,261.64c-19.82,57.23-10.79,67.58-17.87,72.54c-0.04,0.02-5.94,1.71-5.98,1.74
					c-7.35,4.87-6.61-2.09-28.55,4.22c-10.45,3.01-23.86,7.05-35.38,8.97c-4.34,0.72-8.4,1.15-11.93,1.1
					c-6.77-0.08-11.6-1.89-12.64-6.61c-3.02-13.71,24.14-45.55,21.55-70.02c-0.02-0.21-0.04-0.42-0.06-0.63
					c-0.14-2.13,0.09-4.52,0.64-7.11c2.77-13.1,13.63-31.27,24.42-46.57c11.92-16.89,23.75-30.3,24.57-29.66
					c23.29,18.24,27.18,6.09,27.18,6.09S918.63,242.12,911.87,261.64z"/><path class="st1" d="M890.13,335.36C890.09,335.38,890.17,335.33,890.13,335.36c-7.35,4.87-8.73-1.52-30.66,4.78
					c-10.45,3.01-23.86,7.05-35.38,8.97c-5.79,0.25-10.11,0.58-11.93,1.1c-6.77-0.08-11.6-1.89-12.64-6.61
					c-3.02-13.71,24.14-45.55,21.55-70.02c-0.02-0.21-0.04-0.42-0.06-0.63c-0.18-2.41,0.06-4.76,0.64-7.11
					c2.5-9.91,11.31-19.86,21.75-34.67c4.84,6.65,47.83,5.24,30.29,62.47C868.32,311.18,889.31,321.1,890.13,335.36z"/><path class="st22" d="M887.7,338.08c0,0,9.57-1,13.59,1.28c4.02,2.28,11.95,7.79,10.85,10.04c-1.09,2.26-11.32,2.21-15.26-0.7
					c-3.94-2.91-7.47-0.33-12.44-2.73C879.47,343.57,887.7,338.08,887.7,338.08z"/><path class="st23" d="M870.66,189.62c0,0-34.29-3.98-42.57,11.74c-8.28,15.72-13.91,74.01-7.21,92.63
					c6.7,18.62,54.61,48.83,60.15,50.5c5.54,1.68,10.21-6.59,10.1-7.57c-0.11-0.97-47.84-51.07-47.02-55.52
					C844.92,276.95,870.66,189.62,870.66,189.62z"/></g></g></g><g><polygon class="st22" points="2016.21,1338.52 2003.96,1390.11 1985.61,1390.01 1984.94,1338.52 		"/><polygon class="st22" points="1861.88,1340.72 1827.03,1390.11 1813.45,1372.67 1834.42,1333.93 		"/><path class="st16" d="M1952.49,660.63c6.33-3.6,13.92-3.99,19.23-3.68c-1.37-1.41-4.06-1.93-4.06-1.93
			c3.29-0.49,10.64,2.78,10.64,2.78c45.79-17.65,52.99,49.78,52.03,65.45c-0.96,15.66,15.39,20.78,39.21,33.12
			c45.46,23.55,49.45,55.08,49.45,55.08c-0.35,0.21-0.72,0.45-1.12,0.72c-2.26-3.82-6.9-11-10.81-12.08
			c0.15,0.35,4.63,9.88,6.3,15.34c-13.41,10.2-38.5,32.81-55.98,48.83c0.08-3.13-0.05-7.58-1.19-9.93l-2.16,13.01
			c-9.36,8.6-15.81,14.65-15.81,14.65c1.16-12.66-57.25-79.46-87.72-99.47c-7.42-10.92-10.05-30.21-10.25-31.73
			c1.28,15.3,3.9,23.88,6.24,28.71C1920.68,755.76,1935.7,670.17,1952.49,660.63z"/><path class="st22" d="M1952.3,783.53c-0.15,0.07,14.71,7.79,25.89,4.73c10.52-2.87,17.39-16.51,17.25-16.54
			c-4.45-0.88-5.74-7-5.64-33.31l-2.01,0.4l-33.86,6.7c0,0,0.77,10.66,0.79,20.69C1954.74,774.63,1954.23,782.63,1952.3,783.53z"/><path class="st24" d="M1953.93,745.51c0,0,0.77,10.66,0.79,20.69c18.95-0.53,28.96-17.82,33.06-27.4L1953.93,745.51z"/><path class="st16" d="M1991.28,735.12c0,0,9.93-15.69,12.31-29.1c1.7-9.58-3.18-45.08-38.85-39.96c0,0-10.36,1.02-20.1,7.6
			c-7.75,5.23-18.92,16.52-6.43,47.5l3.25,10.46L1991.28,735.12z"/><path class="st25" d="M1818.98,1359.13l17.95,0.55l19.43,0.6c0,0,44.87-49.96,70.04-130.05c0.59-1.86,1.21-3.74,1.86-5.65
			c13.77-40.17,42.33-90.58,57.38-136.22c2.4-7.27,4.55-14.11,6.48-20.59c0.62-2.07,1.22-4.11,1.79-6.12
			c11.09-38.53,14.3-63.83,17.26-90.86l-108.67,0.87C1902.5,971.67,1884.96,1156.25,1818.98,1359.13z"/><path class="st26" d="M1917.71,909.23c0.27,51.71-7.59,73.89-7.59,73.89s46.53,23.64,101.82,6.24c0.65-0.21,41.59-8.42,41.59-8.42
			c-0.93-2.09-12.22-37.87-13.12-39.78c-11.68-25.07-13.28-37.23-14.66-44.94c-2.57-14.39-2.62-29.28-1.34-43.32
			c3.37-37.17,13.41-68.03,13.41-68.03c-15.07-3.43-29.18-9.45-44.86-15.33c-3.61,4.49-14.63,9.19-24.2,8.98
			c-11.01-0.24-14.59-4.96-14.01-10.11c-11.74,6.53-21.1,12.7-21.1,12.7c-9.98,17.33-30.21,34.16-31.67,60.74
			C1901.6,848.38,1917.7,907.78,1917.71,909.23z"/><path class="st3" d="M1854.62,832.41c15.95-18.63,57.28-59.05,99.93-64.01l-36.8,71.7c0,0-2.07,12.29-12.97,19.45
			c-26.7,17.54-60.64,25.3-60.64,25.3s-22.99-10.03-54.41-33.05c-9.86-7.23-27.19-34.79-27.19-34.79l4.67-15.64
			c0,0,29.42,16.45,39.93,21.2c5.99,2.7,19.78,9.16,29.5,13.72C1842.83,839.18,1850.18,837.59,1854.62,832.41z"/><path class="st22" d="M1947.6,755.02c0,0,44.83,0.74,44.86-27.18c0.03-27.92,5.84-46.63-22.78-48.29
			c-28.62-1.65-34.19,9-36.47,18.31C1930.93,707.18,1935.94,754.1,1947.6,755.02z"/><path class="st16" d="M1949.26,678.86c0,0,12.27,32.76,31.11,37.6c18.84,4.84,27.01-0.2,27.01-0.2s-14.45-11.48-17.45-31.51
			C1989.93,684.75,1958.52,663.27,1949.26,678.86z"/><path class="st16" d="M1952.3,681.52c0,0-9.17,7.31-11.4,14.42c-2.23,7.11-3.24,21.75-7.51,21.25c0,0-9.25-22.27,1.14-34.86
			C1945.56,668.98,1952.3,681.52,1952.3,681.52z"/><path class="st22" d="M1767.22,801.36c0,0-6.32-22.78-31.36-19.56c-2.87,0.9-11.27,4.25-5.9,13.24
			c3.96,6.63,5.67,3.21,11.89,12.11c6.22,8.9,12.98,10.91,20.69,9.85L1767.22,801.36z"/><path class="st22" d="M2004.57,1387.23c0,0-1.48,10.22,2.34,21.15c0,0,3,13.68-10.47,13.94c-13.47,0.25-16.78-1.02-15.25-9.41
			c1.53-8.39,4.43-22.9,4.43-22.9L2004.57,1387.23z"/><path class="st27" d="M1979.91,1428.16c0,0,0.29,0.18,0.85,0.45h26.38c0.51-0.27,0.75-0.45,0.75-0.45
			c1.52-6.87-0.97-19.78-0.97-19.78c-15.26,13.98-24.81-0.35-24.81-0.35C1979.62,1414,1979.91,1428.16,1979.91,1428.16z"/><path class="st22" d="M1780.98,1414.28c0,0,24.84-27.57,32.47-41.61l18.47,9.46l-41.29,38.78l-9.66-1.27L1780.98,1414.28z"/><path class="st27" d="M1765.57,1428.61h33.99c3.28-2.45,6.33-8.11,10.13-15.71c2.02-4.05,6.58-6.29,11.25-7.52v22.96h7.05
			l6.68-24.41c4.39-8.08,0.35-15.41-2.75-21.8c-3.6-0.01-13.28,2.46-31.63,23.13c-6.04,6.79-12.7,9.22-19.31,9.01
			c-0.09,0.06-0.19,0.11-0.27,0.14C1769.64,1419.4,1766.47,1425.58,1765.57,1428.61z"/><path class="st3" d="M1954.75,768.4c0,0-25.94,64.07-26.7,77.04c-0.76,12.97-3.05,212.04-3.05,212.04s1.53,9.15-16.02,5.34
			c-17.54-3.81-22.12-7.63-22.12-7.63s16.78-122.8,12.2-165.51c-4.58-42.71,35.09-112.38,35.09-112.38L1954.75,768.4z"/><path class="st12" d="M1836.93,1359.68l19.43,0.6c0,0,44.87-49.96,70.04-130.05c0.59-1.86,1.21-3.74,1.86-5.65
			c13.77-40.17,42.33-90.58,57.38-136.22c2.4-7.27,4.55-14.11,6.48-20.59c0.62-2.07,1.22-4.11,1.79-6.12l-16-12.14
			c0,0-48.04,77.8-62.92,151.01C1902.06,1264.13,1850.32,1340.65,1836.93,1359.68z"/><path class="st25" d="M1976.23,1207.35c-0.27,35.6,1.53,117.46,6.16,151.35h17.21c9.51,0,14.26-0.14,14.26-0.14
			c11.63-58.92,19.91-107.67,25.93-149.69c4.94-34.48,9.34-64.03,12.71-89.48c3.4-25.61,5.77-47.05,6.61-65.16
			c0.13-2.85,0.23-5.63,0.28-8.32c0.05-2.71,0.07-5.34,0.05-7.89l-93.89-9.15C1966.74,1091.25,1976.38,1186.66,1976.23,1207.35z"/><path class="st12" d="M1999.6,1358.7c9.51,0,14.26-0.14,14.26-0.14c11.63-58.92,19.91-107.67,25.93-149.69
			c4.94-34.48,9.34-64.03,12.71-89.48c3.4-25.61,5.77-47.05,6.61-65.16l-34.45,20.27c0,0,21.99,7.76,13.6,66.49
			C2029.87,1199.72,2011.28,1350.38,1999.6,1358.7z"/><path class="st3" d="M1995.17,1053.66c0,0,6.61,23.9,29.49,20.85c22.88-3.05,55.42-16.78,55.42-16.78s-9.78-30.9-21.94-71.49
			c-14.72-49.14-32.94-112.49-41.53-152.45c-2.41-11.2-4.06-20.55-4.67-27.24l-18.98-36.83c0,0-28.3,63.53-29.83,79.54
			C1961.61,865.27,1995.17,1053.66,1995.17,1053.66z"/><path class="st28" d="M1996.18,882.81c1.02,25.93,7.12,76.27,61.53,103.22c0.14,0.07,0.29,0.15,0.43,0.21
			c-14.72-49.14-32.94-112.49-41.53-152.45C2006.62,848.72,1995.63,868.53,1996.18,882.81z"/><g><rect x="1703.63" y="665.86" transform="matrix(0.7071 -0.7071 0.7071 0.7071 -2.4147 1422.3821)" class="st25" width="24.27" height="96.5"/><path class="st29" d="M2117.26,1109.62l-5.99,5.99c-11.78,11.78-30.87,11.78-42.65,0l-333.91-333.91
				c-11.78-11.78-11.78-30.87,0-42.65l5.99-5.99c11.78-11.78,30.87-11.78,42.65,0l333.91,333.91
				C2129.03,1078.75,2129.03,1097.84,2117.26,1109.62z"/><path class="st29" d="M1277.55,275.9c-111.45,111.45-111.45,292.14,0,403.59c111.45,111.45,292.14,111.45,403.59,0
				c111.45-111.45,111.45-292.14,0-403.59C1569.69,164.45,1389,164.45,1277.55,275.9z M1658.91,657.26
				c-99.17,99.17-259.96,99.17-359.13,0c-99.17-99.17-99.17-259.96,0-359.13c99.17-99.17,259.96-99.17,359.13,0
				C1758.08,397.3,1758.08,558.09,1658.91,657.26z"/></g><path class="st22" d="M2018.02,846.86l-25.06-77.16c0.07,0.03,31.64,9.4,47.53,17.42c0,0,9.93,12.8,16.07,42.33
			c0,0,6.49,70.9-8,96.83c0,0-45.76,9.15-118.99-16.02v-16.78c0,0,80.09,4.2,96.48,6.1L2018.02,846.86z"/><path class="st3" d="M1992.96,769.71c0,0,46.45,3.27,57.63,28.19c11.19,24.92,14.75,107.8,0.51,132.21c0,0-19.6,5.58-54.27-0.9
			c-0.42-0.08-0.85-0.16-1.28-0.24c0,0-11.06-27.08-1.14-32.42c0,0,29.24,1.53,26.19-8.14
			C2017.54,878.74,1992.96,769.71,1992.96,769.71z"/><path class="st22" d="M1937.78,897.95c0,0-6.38-7.73-7.74-15.63c-1.36-7.89-5.58-13.75-16.6-15.2c-11.01-1.45-15.75-1.6-15.72,1.5
			c0.03,3.1,9,24.78,24.8,37.72C1938.33,919.29,1937.78,897.95,1937.78,897.95z"/></g><g><path class="st30" d="M1591.8,248.18l-340.1,340.1c5.55,11.23,11.9,22,18.99,32.22l353.33-353.33
			C1613.8,260.09,1603.03,253.73,1591.8,248.18z"/><path class="st30" d="M1568.47,238.09c-27.69-10.36-57.66-16.03-88.96-16.03c-140.25,0-253.94,113.69-253.94,253.94
			c0,31.3,5.68,61.27,16.03,88.96L1568.47,238.09z"/><path class="st30" d="M1367.03,703.71c33.91,16.78,72.09,26.23,112.49,26.23c140.25,0,253.94-113.69,253.94-253.94
			c0-40.4-9.45-78.58-26.23-112.49L1367.03,703.71z"/></g><path class="st31" d="M63.48,1433.21h2577.4c1.27,0,2.3-1.03,2.3-2.3l0,0c0-1.26-1.03-2.3-2.3-2.3H63.48c-1.26,0-2.3,1.03-2.3,2.3
		l0,0C61.18,1432.17,62.22,1433.21,63.48,1433.21z"/></g></svg>