<svg width="19" height="19" viewBox="0 0 64 46" fill="none" xmlns="http://www.w3.org/2000/svg"><path d="M18.7678 17.6485L13.3648 12.2454C14.4114 10.9526 15.0415 9.30991 15.0415 7.52077C15.0415 3.37406 11.6674 0 7.52074 0C3.37403 0 0 3.37403 0 7.52074C0 11.6674 3.37406 15.0415 7.52077 15.0415C9.30991 15.0415 10.9526 14.4114 12.2454 13.3648L17.6485 18.7678C17.8028 18.9222 18.0055 18.9998 18.2082 18.9998C18.4109 18.9998 18.6135 18.9222 18.7679 18.7678C19.0774 18.4583 19.0774 17.958 18.7678 17.6485ZM7.52077 13.4582C4.24646 13.4582 1.58333 10.795 1.58333 7.52074C1.58333 4.24642 4.24646 1.58329 7.52077 1.58329C10.7951 1.58329 13.4582 4.24642 13.4582 7.52074C13.4582 10.795 10.795 13.4582 7.52077 13.4582Z" fill="#111E44"/></svg>