<?xml version="1.0" encoding="utf-8"?><!--Generator: Adobe Illustrator 25.2.1, SVG Export Plug-In . SVG Version: 6.00 Build 0)--><svg version="1.1" id="_x2014_лой_x5F_1" xmlns="http://www.w3.org/2000/svg" xmlns:xlink="http://www.w3.org/1999/xlink" x="0px" y="0px" viewBox="0 0 2938.01 1553.96" style="enable-background:new 0 0 2938.01 1553.96" xml:space="preserve"><style type="text/css">.st0{fill:#E5F1FA;}
	.st1{fill:#DFEBFD;}
	.st2{fill:#BED7FB;}
	.st3{fill:#9EC3F6;}
	.st4{fill:#CDE0FB;}
	.st5{fill:#FFFFFF;}
	.st6{opacity:0.8;fill:#193660;}
	.st7{fill:#002352;}
	.st8{fill:#193660;}
	.st9{fill:#031F3D;}
	.st10{fill:#E9F3FE;}
	.st11{fill:#AFCDFB;}
	.st12{fill:#2B478B;}
	.st13{fill:#233862;}
	.st14{fill:#C65447;}
	.st15{fill:#FFB27D;}
	.st16{fill:#E2915A;}
	.st17{fill:#00984B;}
	.st18{fill:#ADCBF9;}
	.st19{fill:#FCECDB;}
	.st20{fill:#699DEE;}
	.st21{fill:#548EE2;}
	.st22{fill:#F4D2B8;}
	.st23{fill:#568CDB;}
	.st24{fill:#B5453C;}
	.st25{fill:#F99746;}
	.st26{fill:#ED7D2B;}
	.st27{fill:#ED975D;}
	.st28{fill:#EBF3FF;}
	.st29{fill:#2E3552;}
	.st30{fill:#C8DBF4;}
	.st31{fill:#D4E4F8;}
	.st32{fill:#9FC1F4;}
	.st33{fill:#456AA3;}
	.st34{fill:#A0C0EF;}
	.st35{fill:#476BA7;}
	.st36{fill:#365DA2;}
	.st37{fill:#AD7041;}
	.st38{fill:#AA443E;}
	.st39{fill:#D9935C;}
	.st40{fill:#067C3B;}
	.st41{fill:#CB8757;}
	.st42{fill:#E49963;}
	.st43{fill:#031B35;}
	.st44{fill:#D68D5D;}
	.st45{fill:#163560;}
	.st46{fill:#1C468A;}
	.st47{opacity:0.5;}
	.st48{fill:#202F4E;}</style><g><path class="st0" d="M195.25,1545.53c0,0-337.47-362.34-57.07-754.62c248.79-348.06,538.86-324.27,751.67-183.02
		c90.64,60.16,351.97,7.41,574.39-346.75C1767.57-221.85,2819,71.08,2627.29,814.16c-92.77,359.6,282.35,372.67,91.21,732.13
		L195.25,1545.53z"/><g><rect x="296.12" y="1121.72" transform="matrix(0.7358 -0.6772 0.6772 0.7358 -748.4163 649.6693)" class="st1" width="324.59" height="324.59"/><rect x="208.35" y="1155.96" transform="matrix(0.7358 -0.6772 0.6772 0.7358 -707.0244 565.0375)" class="st2" width="324.59" height="65.37"/></g><g><polygon class="st3" points="1165.43,113.85 1329.19,137.22 1220.52,63.14 1214.99,86.89 1175.16,94.1 		"/><polygon class="st4" points="1329.19,137.22 1192.91,66.95 1059.34,60.23 		"/><polygon class="st4" points="1220.52,63.14 1329.19,137.22 1245.06,21.45 		"/></g><g><path class="st5" d="M2081.2,436.93L2040,466.49l-41.41-29.24c9.18-12.91,24.33-21.45,41.41-21.45
			C2056.97,415.8,2072.02,424.13,2081.2,436.93z"/><g><path class="st5" d="M2040,343.77c-41.41,0-78.01,20.6-100.21,52.08l26.15,18.35c16.43-23.26,43.54-38.42,74.06-38.42
				c30.31,0,57.2,14.94,73.63,37.88l26.04-18.68C2117.37,363.94,2080.98,343.77,2040,343.77z"/></g><g><path class="st5" d="M2040,206.85c-87.61,0-165.09,43.54-212.04,110.13l26.15,18.35c41.19-58.27,109.17-96.47,185.9-96.47
				c76.09,0,143.64,37.56,184.94,95.08l25.93-18.68C2203.81,249.65,2126.87,206.85,2040,206.85z"/></g><g><path class="st5" d="M2040,281.77c-62.32,0-117.6,30.84-151.22,78.12l26.14,18.36c27.85-38.95,73.53-64.46,125.07-64.46
				c51.12,0,96.47,25.08,124.43,63.5l25.93-18.57C2156.64,312.07,2101.79,281.77,2040,281.77z"/></g></g><path class="st6" d="M1192.57,616.29l-37.76-0.87c12.13,15.73,14.86,30.21,7.3,42.47c-7.55,12.51-25.63,22.78-52.62,30.58
		c20.43-54.36,30.71-111.69,30.71-170.5c0-127.2-49.49-251.7-142.89-344.84C906.89,82.73,784.69,30.25,652.46,30.25
		c-74.25,0-145.99,16.46-211.24,47.92c-0.02,0.01-0.04,0.02-0.06,0.03c-20.98-6.4-41.41-11.65-61.12-15.64
		c-99.51-20.19-170.13-6.24-198.82,39.3c-27.3,43.31-12.44,108.5,41.73,184.54c-0.01,0.01-0.01,0.02-0.02,0.04
		c-12.1,22.36-23.75,48.89-32.32,74.29C88.83,366.8,34.35,384.71,14.54,417.15c-23.03,37.77,8.42,88.45,109.09,137.73
		c13.87,6.81,28.73,13.5,44.33,20.18c12.06,105.96,60.33,208.67,139.54,287.88c44.82,44.7,96.95,79.86,155.02,104.5
		c177.9,75.04,389.97,39.91,534.78-104.5c43.58-43.58,78.13-94.35,102.52-150.56c49.65-10.28,82.34-26.37,95.34-47.67
		C1204.21,649.97,1203.09,633.63,1192.57,616.29z M1076.05,696.16c-33.06,5.94-74.29,9.41-122.46,9.91
		c-74.74,0.91-160.58-4.99-251.04-16.91c7.61-16.57,15.07-33.6,22.35-51.01c28.07,9.39,55.31,16.83,81.29,22.1
		c29.76,6.04,56.93,9.02,81.17,9.02c56.83,0,97.54-16.41,117.65-48.33c3.31-5.26,6.01-10.83,8.09-16.72h-28.97
		c-0.48,0.88-0.99,1.75-1.52,2.6c-14.94,23.71-48.31,35.96-95.18,35.95c-22.42,0-47.93-2.8-75.98-8.49
		c-24.44-4.96-50.08-11.92-76.51-20.7c6.98-17.45,13.76-35.24,20.31-53.29c17.66-48.69,32.78-96.95,45-143.3
		c99.1,14.61,202.64,15.05,302.1,7.55c6.29,30.51,9.47,61.74,9.47,93.45C1111.83,579.77,1099.82,639.7,1076.05,696.16z
		 M472.51,937.95c-14.09-5.11-21.24-25.33-24.76-41.4c-5.56-25.39-6.57-61.05-2.91-103.12c1.85-21.28,4.82-43.9,8.83-67.57
		c57.75,15.39,114.94,35.18,170.63,59.04c-12.54,21.63-25.23,41.68-37.91,59.86c-24.16,34.64-47.79,61.36-68.34,77.28
		C505.05,932.13,486.6,943.06,472.51,937.95z M637.05,762.26c-58.29-25.12-118.22-45.88-178.74-61.9
		c2.13-10.98,4.47-22.16,7.01-33.51c16.83,3.83,33.9,7.53,51.18,11.1c50.58,10.34,101.03,19.13,150.42,26.23
		C657.15,724.43,647.16,743.83,637.05,762.26z M527.65,659.63c-19.54-4.02-38.8-8.22-57.73-12.58
		c8.91-37.08,19.86-75.73,32.63-115.11c66.42,40.83,133.98,74.05,197.93,97.62c-8.02,19.16-16.27,37.84-24.68,55.91
		C627.23,678.5,577.52,669.86,527.65,659.63z M365.42,159.17c36.92,75.64,108.08,137.97,184.65,179.31
		c-18.55,40.42-36.22,83.56-52.47,128.36c-3.03,8.35-5.97,16.69-8.85,25.01c-97.04-63.16-179.19-135.64-233.09-205.79
		c-0.01-0.01-0.01-0.02-0.02-0.03C284.08,237.51,321.14,194.67,365.42,159.17z M780.35,89.18c14.09,5.11,21.24,25.33,24.76,41.4
		c5.56,25.39,6.57,61.05,2.91,103.12c-4.01,46.05-13.23,98.36-26.95,154.06c-67.48-11.61-134.92-30.75-197.01-60.89
		c26.46-55.19,54.44-104.4,82.42-144.51c24.16-34.64,47.79-61.36,68.34-77.28c10.72-8.31,25.14-17.2,37.77-17.2
		C775.27,87.88,777.88,88.28,780.35,89.18z M774.64,412.85c-11.91,44.82-26.58,91.5-43.68,138.63
		c-6.59,18.17-13.41,36.05-20.43,53.58c-64.21-23.58-132.37-57.3-199.37-98.95c3.46-10.12,7.04-20.28,10.73-30.46
		c15.88-43.79,33.12-85.93,51.19-125.4C636.33,380.9,704.83,400.69,774.64,412.85z M977.24,193.08
		c59.58,59.58,99.11,131.15,119.1,205.98c-105.9,7.74-202.94,5.31-289.68-7.24c13.77-56.24,23.03-109.15,27.1-155.88
		c4.49-51.61,3.94-112.73-16.98-147.13C877.39,112.09,931.53,147.23,977.24,193.08z M652.46,58.48c31.83,0,63.13,3.2,93.73,9.56
		c-36.09,15.71-72.94,59.44-100.91,99.53c-28.63,41.04-57.21,91.26-84.21,147.47c-72.87-39.59-141.69-100.29-174.59-171.79
		C463.29,88.62,555.67,58.48,652.46,58.48z M203.62,115.98c14.94-23.71,48.31-35.95,95.18-35.95c22.42,0,47.93,2.8,75.98,8.49
		c10.65,2.16,21.52,4.69,32.58,7.61c0.01,0,0.02,0,0.03,0.01c-66.91,38.7-125.85,94.7-169.73,164.91c-0.01,0.01-0.02,0.02-0.02,0.04
		C196.23,199.6,183.78,147.46,203.62,115.98z M241.87,311.45c0-0.01,0.01-0.02,0.01-0.02c56.75,70.93,140.39,143.44,238.13,206.33
		c-13.86,42.18-25.68,83.63-35.22,123.35c-81.03-19.6-175.21-47.33-249.59-78.8c-6.17-61.68,0.55-124.11,19.07-183.01
		C221.45,356.46,230.99,332.92,241.87,311.45z M146.16,540.27c-87.79-42.84-127.91-84.2-109.95-113.54
		c14.49-23.77,67.23-39.87,147.97-45.81c-16.27,54.93-21.93,112.04-18.57,168.52C158.91,546.46,152.48,543.36,146.16,540.27z
		 M440.17,661c-2.5,11.17-4.81,22.18-6.93,33.01c-5.63-1.37-11.27-2.7-16.91-3.99c-95.3-21.69-166.81-26.1-199.96-26.85
		c-8.21-24.73-14.25-50.03-18.07-75.85C263.22,612.3,336.3,636.25,440.17,661z M225.96,689.38c35.36,1.42,100.9,6.78,184.63,25.83
		c5.99,1.36,11.98,2.79,17.96,4.25c-4.31,25.13-7.49,49.15-9.45,71.72c-3.72,42.77-3.98,92.08,7.95,127.3
		c-36.31-20.44-69.61-45.73-99.49-75.61C283.02,798.34,248.74,746.19,225.96,689.38z M513.14,955.98
		c33.99-17.81,68.14-58.73,94.44-96.43c13.56-19.44,27.12-40.96,40.5-64.19c77.16,34.94,151.35,77.87,221.04,127.88
		C754.24,984.63,624.88,991.58,513.14,955.98z M977.24,842.89c-25.39,25.47-53.36,47.6-83.57,66.24
		c-73.21-53.5-151.42-99.3-232.91-136.37c11.2-20.53,22.24-42.21,33.02-64.84c74.59,9.89,146.3,15.82,211.76,17.35
		c17.09,0.49,33.68,0.49,49.78,0.37c41.73-0.49,78.87-2.97,110.7-7.43C1043.73,764.38,1013.89,806.23,977.24,842.89z"/><g><g><path class="st7" d="M959.82,692.41l-67.45,801.98c0,0-7.07,48.61,29.09,48.7c59.46,0.14,295.93,0,295.93,0
				s-44.75-10.12-44.21-32.89c0.64-26.84,78.83-825.38,78.83-825.38L959.82,692.41z"/><path class="st8" d="M1236.58,1528.54c-11.69,0.03-237.56,0.74-295.46,0c-25.23-0.31-29.66-22.44-29.87-36.75
				c-0.1-6.86,0.77-11.94,0.77-11.94l1.75-20.84l4.47-53.13l3.95-46.94l5.07-60.32l4.27-50.91l47.92-569.86l292.21-7.58
				c0,0-32.93,334.18-56.23,577.44c-2.6,27.1-5.07,53.09-7.36,77.35c-0.74,7.75-1.45,15.32-2.15,22.69
				c-2.16,23.02-4.13,44.15-5.85,62.81c-0.91,9.84-1.74,18.97-2.5,27.35c-2.97,32.8-4.71,53.75-4.74,57.74
				c-0.01,2.32,0.19,4.48,0.57,6.49C1198.22,1527.7,1232.19,1528.54,1236.58,1528.54z"/><polygon class="st8" points="250.19,256.01 414.48,915.93 436.97,1006.31 513.49,1313.69 1935.1,1313.69 1653.06,256.01 			"/><polygon class="st7" points="250.18,256.01 227.42,263.59 483.22,1336.65 513.5,1313.69 			"/><polygon class="st7" points="483.22,1336.65 1896.08,1336.65 1935.1,1313.69 513.5,1313.69 			"/><rect x="979.38" y="1528.86" transform="matrix(-1 -1.224647e-16 1.224647e-16 -1 2264.6582 3072.2563)" class="st9" width="305.9" height="14.54"/><polygon class="st7" points="1866.23,1118.79 1635.56,269.99 247.91,269.99 247.91,256.01 1653.06,256.01 1882.96,1116.91 			"/><polygon class="st7" points="1207.52,1336.64 1205.94,1347.76 918.25,1405.88 922.2,1358.94 924.08,1336.64 			"/><path class="st7" d="M1236.58,1528.54c-11.69,0.03-237.56,0.74-295.46,0c-25.23-0.31-29.66-22.44-29.87-36.75l286.33-53.87
				c-2.97,32.8-4.71,53.75-4.74,57.74c-0.01,2.32,0.19,4.48,0.57,6.49C1198.22,1527.7,1232.19,1528.54,1236.58,1528.54z"/><polygon class="st8" points="1131.98,1099.57 507.5,1313.69 430.97,1006.31 			"/><polygon class="st8" points="250.18,256.01 1653.06,256.01 1880.68,1106.05 454.58,1106.05 			"/></g><path class="st7" d="M1261.98,1213.51c-4.05-20.85-24.24-37.75-45.08-37.75c-20.85,0-34.46,16.9-30.41,37.75
			s24.24,37.75,45.08,37.75C1252.42,1251.25,1266.04,1234.35,1261.98,1213.51z"/><polygon class="st10" points="1814.52,1069.22 501,1069.22 352.24,476.63 340.85,431.19 331.11,392.43 323.33,361.4 308.3,301.54 
			1602.88,301.54 1603.79,304.83 1619.37,361.4 1627.93,392.43 1638.62,431.19 1651.15,476.63 		"/><polygon class="st10" points="1814.52,1071.24 501,1071.24 352.24,478.66 340.85,433.22 331.11,394.45 323.33,363.42 
			308.3,303.56 1602.88,303.56 1603.79,306.86 1619.37,363.42 1627.93,394.45 1638.62,433.22 1651.15,478.66 		"/><polygon class="st11" points="1619.37,361.4 323.33,361.4 308.3,301.54 1602.39,301.54 1603.79,304.83 		"/><g><path class="st10" d="M344.31,331.47c-1.56-6.27,2.25-11.36,8.53-11.36s12.63,5.09,14.19,11.36c1.56,6.27-2.25,11.36-8.53,11.36
				S345.88,337.74,344.31,331.47z"/><ellipse transform="matrix(0.662 -0.7495 0.7495 0.662 -115.4546 406.9359)" class="st10" cx="393.42" cy="331.47" rx="10.03" ry="12.87"/><path class="st10" d="M422.71,331.47c-1.56-6.27,2.25-11.36,8.53-11.36s12.63,5.09,14.19,11.36c1.56,6.27-2.25,11.36-8.53,11.36
				C430.63,342.83,424.28,337.74,422.71,331.47z"/></g><g><path class="st12" d="M910.17,1071.24H780.29c-1.25-10.15-2.34-20.88-3.33-32.07c-1.74-20.08-3.08-41.67-4.06-64.14
				c-0.24-5.18-0.44-10.41-0.63-15.67c-0.25-6.7-0.46-13.48-0.66-20.29c-0.32-11.57-0.57-23.27-0.75-35.04
				c-0.01-0.01-0.01-0.03-0.01-0.04c-0.23-15.01-0.34-30.12-0.37-45.17c0-0.01,0-0.01,0-0.01c-0.01-3.76-0.01-7.51-0.01-11.26v-0.01
				c0-3.53,0.01-7.04,0.02-10.55c0.11-32.4,0.6-64.18,1.29-93.73c1.49-65.38,3.92-119.86,5.21-146.05v-0.01
				c0.52-10.75,0.86-16.73,0.86-16.73c0.01,0,0.02,0.01,0.03,0.01c0.29,0.04,2.26,0.41,5.36,1.15c2.27,0.55,5.16,1.31,8.44,2.32
				h0.01c2.96,0.89,6.24,2,9.68,3.3c0.01,0,0.02,0,0.03,0.01c5.85,2.25,12.16,5.13,18.09,8.74c0.09,0.05,0.18,0.09,0.27,0.14
				c9.7,6.02,18.46,14,22.45,24.54c3.43,8.95,11.45,57.06,21.15,120.96c0.27,1.82,0.54,3.66,0.83,5.51
				c5.13,33.93,10.67,72,16.24,110.88c5.9,41.2,11.79,83.27,17.21,122.26C902.29,1013.72,906.58,1044.88,910.17,1071.24z"/><path class="st13" d="M873.8,1071.24H722.62c-2.9-12.47-5.61-24.5-8.02-35.79c-6.64-31.1-11.01-56.59-10.77-70.28
				c0.11-6.42,2.54-11.44,6.7-15.3c2.85-2.65,6.52-4.75,10.83-6.39c12.75-4.84,31.08-5.64,50.26-4.41
				c6.52,0.41,13.13,1.04,19.65,1.83c35.93,4.36,69.29,13.25,69.29,13.25s2.23,9.02,4.87,24.79c1.98,11.83,4.19,27.47,5.83,45.94
				c0.95,10.73,1.72,22.42,2.15,34.88C873.52,1063.5,873.65,1067.34,873.8,1071.24z"/><path class="st14" d="M803.98,965.35l-1.51,10.92l-7.32,53.03l-1.25,9.05l-4.54,32.88H631.82c-1.22-21.73-2.35-42.9-2.57-61.36
				c-0.02-2.05-0.03-4.05-0.03-6.02c0-27.8,2.44-48.41,10.41-53.61c9.03-5.9,38.99-4.28,70.89-0.37c3.18,0.38,6.38,0.8,9.59,1.23
				c18.59,2.5,37.2,5.59,52.16,8.25c7.76,1.38,14.54,2.65,19.82,3.66C799.53,964.44,803.98,965.35,803.98,965.35z"/><path class="st5" d="M629.22,607.81c0,0,86.55-55.97,148.64-27.34c9.89,4.56,21.18,17.29,29.26,26.19
				c22.44,24.73,66.29,417.52,66.29,417.52s-124.47,42.16-244.18-14.31V607.81z"/><path class="st12" d="M782.78,579.04c0,0,87.62,35.91,99.49,63.5c11.87,27.59,50.44,197.03,50.44,216.9
				c0,19.87-67.16,4.44-77.97-27.6c-8.98-26.61-39.26-108.36-55.23-160.06L782.78,579.04z"/><g><path class="st15" d="M764.58,606.41c-19.13,3.75-47.23-0.25-67.8-13.81c9.29-22.18,13.1-39.7,14.45-51.04
					c0.08-0.6,0.14-1.19,0.2-1.75c0.61-5.88,0.52-9.86,0.24-11.69h49.45c0,0,13.52,6.18,13.52,10.45c0,2.28,0.02,4.47,0.06,6.56
					c0.1,5.69,0.33,10.65,0.62,14.92c0.94,13.88,2.53,20.41,2.53,20.41S783.9,602.62,764.58,606.41z"/><path class="st16" d="M775.32,560.05c-37.47,7.24-59.22-13.23-64.09-18.49c-0.69-0.75-1.05-1.2-1.05-1.2
					c0.4-0.2,0.81-0.38,1.25-0.55c13.95-5.65,45.6-1.16,63.27,5.32C774.8,550.82,775.03,555.78,775.32,560.05z"/><path class="st15" d="M698.99,519.99c6.69,36.03,53.19,34.85,73.28,32.58c5.65-0.63,9.21-1.35,9.21-1.35
					c6.38-1.7,9.93-11.75,11.59-24.9c3.28-26.03-0.86-64.25-5.26-74.02c-6.62-14.71-19.09-30.61-65.91-19.14
					C675.07,444.65,690.4,473.82,698.99,519.99z"/><path class="st13" d="M789.56,432.21c-6.4-8.86-19.97-19.69-32.29-26.35c-26.48-14.32-60.36,0.45-60.5,0.51
					c-38.24,16.81-48.23,46.07-27.96,91.65c21.44,48.2,41.86,42.77,41.86,42.77s-4.33-2.7-3.94-17.72c0.02-0.85,0.06-1.57,0.1-2.18
					c0.2-3.08-0.89-6.17-3.19-8.22c-4.75-4.24-7.07-17.06-3.09-20.63c4.8-4.31,11.54,0.92,13.7,4.95c1.88,2.84,5.25,3.84,8.39,1.85
					c11.9-7.52,4.17-22.58,15.54-31.78c11.37-9.21,34.45-1.48,51.52-8.81C812.03,449.92,794.38,438.88,789.56,432.21z"/></g><path class="st12" d="M795.7,1071.24H607.24c1.35-39.08,3.08-85.74,4.9-132.98c0.46-12.25,0.95-24.55,1.43-36.75
				c0.22-5.17,0.41-10.31,0.61-15.45c4.16-104.91,8.3-199.65,9.17-204.76c1.98-11.54,3.85-21.38,5.87-29.91
				c5.92-24.85,13.28-38.48,29.32-50.2c1.56-1.19,14.4-7.65,25.7-13.29c9.24-4.58,17.45-8.59,17.7-8.7v-0.01h0.01
				c1.87,0.91,3.93,3.51,6.1,7.37c2.17,3.86,4.46,9,6.8,15c8.61,22.13,17.92,55.99,24.38,81.28c0.01,0.03,0.02,0.06,0.02,0.08
				c0.01,0.02,0.01,0.03,0.01,0.05c0,0.01,0,0.01,0,0.01c4.16,16.33,7.15,29.04,8,32.7c1.45,6.16,3.35,18.07,5.6,34.21v0.04
				c3.04,22.01,6.68,51.88,10.53,85.78v0.01c0.4,3.49,0.79,7.01,1.19,10.56c0.45,4.06,0.92,8.17,1.38,12.32v0.01
				c0.15,1.33,0.29,2.67,0.43,4.01v0.01c1.48,13.42,2.98,27.26,4.46,41.35c0,0.01,0,0.03,0.01,0.04
				c1.27,11.61,18.88,20.02,20.1,31.85c0.09,0.86,0.18,2.6,0.29,5.02c0.23,5,0.5,12.94,0.83,22.12c0.14,4.08,0.28,8.42,0.44,12.84
				c0.69,19.67,1.54,41.22,2.5,51.59c0.05,0.49,0.09,1.11,0.12,1.87c0.11,2.07,0.2,5.12,0.28,8.94
				C795.6,1046.38,795.68,1058,795.7,1071.24z"/><path class="st13" d="M667.14,723.6c-0.06,0.24-3,106.09,76.62,118.94c79.62,12.86,26.72,16.26,26.72,16.26
				s-149.81-6.37-152.28-10.32C615.73,844.52,667.14,723.6,667.14,723.6z"/><path class="st13" d="M734.41,887.98c0,0-1.49,1.06-4.36,2.91c-0.05,0.02-0.1,0.06-0.15,0.09
				c-12.15,7.75-48.2,28.89-100.69,43.06c-5.51,1.49-11.21,2.91-17.07,4.21c0.46-12.24,0.95-24.54,1.42-36.74
				c-6.93-0.54-13.57-1.42-19.73-2.73c0.21-1.61,0.43-3.22,0.63-4.84c6.68-2.74,13.31-5.38,19.71-7.88
				c5.21-2.04,10.26-3.98,15.03-5.78c21.56-8.19,37.54-13.74,37.54-13.74l63.82,20.22L734.41,887.98z"/><path class="st12" d="M751.31,886.21c0,0-8.2,2.05-21.25,4.68c-0.05,0-0.09,0.01-0.14,0.03c-24.07,4.84-64.55,11.62-100.7,11.25
				c-5.33-0.06-10.57-0.27-15.65-0.66c-6.93-0.54-13.57-1.42-19.73-2.73c-13.21-2.79-24.28-7.51-31.52-14.89
				c-53.78-54.77,29.35-251.36,46.82-270.49c20.4-22.33,57.64-30.17,78.21-32.86c0.86-0.11,1.68-0.22,2.48-0.32
				c7.23-0.86,11.87-1.04,12.13-1.05c0.01,0,0.01,0,0.01,0s-1.61,5.18-4.31,13.98c-1.05,3.4-2.27,7.35-3.6,11.75
				c-12.63,41.36-37,122.65-47.74,168.5c-3.94,16.78-6.04,28.8-5.08,32.39c4.19,15.66,47.64,23.71,75.17,27.27
				c11.48,1.48,20.2,2.19,22.14,2.33c0.14,0,0.27,0.01,0.41,0.03l1.59,6.53l3.81,15.66l3.75,15.38L751.31,886.21z"/><polygon class="st7" points="901.29,980.44 716.6,972.66 754.07,742.5 938.76,750.28 			"/><path class="st15" d="M738.94,835.44c0,0,35.95-2.51,37.75,5.87c4.2,19.53-30.91,35.57-42.28,34.48
				C723.04,874.69,730.67,834.13,738.94,835.44z"/><path class="st15" d="M928.66,797.02c0,0-34.4-10.75-38.09-3.02c-8.61,18.03,21.84,41.76,33.16,43.32
				C935.05,838.89,937.01,797.66,928.66,797.02z"/><path class="st13" d="M705.69,567.63c0,0-15.12,7.21-22.71,18.09c0,0,56.54,98.16,56.28,97.24
				C739.01,682.04,720.16,580.2,705.69,567.63z"/><path class="st13" d="M776.11,569.01c4.98,1.88,14.53,11.66,16.68,17.07l6.72,85.69c0,0-14.35-62.89-21.65-91.32
				C776,573.24,776.34,571.04,776.11,569.01z"/><path class="st17" d="M815.29,745.08c0,0,1.46-6.39,9.87-5.64c8.41,0.74,55.64,3.06,55.64,3.06s9.11-0.15,8.26,5.69
				L815.29,745.08z"/><path class="st5" d="M761.12,528.12c0,0,6.13,5.59,16.02,3.86c5.87-1.03,9.15-8.65,9.15-8.65S775.02,521.3,761.12,528.12z"/></g><g><g><polygon class="st5" points="1636.25,599.75 1499.83,600.25 1455.59,430.89 1592.01,430.38 				"/><g><polygon class="st18" points="1558.18,452.64 1500.98,452.85 1500.32,450.34 1557.53,450.13 					"/><polygon class="st18" points="1567.31,459.6 1495.5,459.86 1494.84,457.36 1566.66,457.09 					"/><g><polygon class="st18" points="1587.06,494.07 1493.78,494.41 1493.12,491.9 1586.41,491.56 						"/><polygon class="st18" points="1589.22,502.32 1495.93,502.67 1495.28,500.16 1588.56,499.82 						"/><polygon class="st18" points="1591.37,510.58 1498.09,510.93 1497.44,508.42 1590.72,508.08 						"/><polygon class="st18" points="1593.53,518.84 1500.25,519.18 1499.59,516.68 1592.88,516.33 						"/><polygon class="st18" points="1595.69,527.1 1502.4,527.44 1501.75,524.94 1595.03,524.59 						"/></g><g><polygon class="st18" points="1600.94,547.19 1507.65,547.54 1507,545.03 1600.28,544.69 						"/><polygon class="st18" points="1603.09,555.45 1509.81,555.8 1509.16,553.29 1602.44,552.94 						"/><polygon class="st18" points="1605.25,563.71 1511.97,564.05 1511.31,561.55 1604.6,561.2 						"/><polygon class="st18" points="1607.41,571.97 1514.12,572.31 1513.47,569.8 1606.75,569.46 						"/><polygon class="st18" points="1609.56,580.22 1516.28,580.57 1515.63,578.06 1608.91,577.72 						"/></g></g></g><g><polygon class="st5" points="1691.23,810.2 1554.8,810.71 1510.57,641.34 1646.99,640.84 				"/><g><polygon class="st18" points="1613.15,663.09 1555.95,663.3 1555.29,660.8 1612.5,660.58 					"/><polygon class="st18" points="1622.28,670.05 1550.47,670.32 1549.81,667.81 1621.63,667.55 					"/><g><polygon class="st18" points="1642.03,704.52 1548.75,704.86 1548.09,702.36 1641.38,702.01 						"/><polygon class="st18" points="1644.19,712.78 1550.91,713.12 1550.25,710.62 1643.53,710.27 						"/><polygon class="st18" points="1646.35,721.04 1553.06,721.38 1552.41,718.87 1645.69,718.53 						"/><polygon class="st18" points="1648.5,729.29 1555.22,729.64 1554.56,727.13 1647.85,726.79 						"/><polygon class="st18" points="1650.66,737.55 1557.38,737.9 1556.72,735.39 1650,735.05 						"/></g><g><polygon class="st18" points="1655.91,757.65 1562.62,757.99 1561.97,755.49 1655.25,755.14 						"/><polygon class="st18" points="1658.07,765.91 1564.78,766.25 1564.13,763.74 1657.41,763.4 						"/><polygon class="st18" points="1660.22,774.16 1566.94,774.51 1566.28,772 1659.57,771.66 						"/><polygon class="st18" points="1662.38,782.42 1569.1,782.77 1568.44,780.26 1661.72,779.92 						"/><polygon class="st18" points="1664.54,790.68 1571.25,791.02 1570.6,788.52 1663.88,788.17 						"/></g></g></g><g><polygon class="st5" points="1746.57,1022.07 1610.15,1022.58 1565.91,853.21 1702.33,852.71 				"/><g><polygon class="st18" points="1668.49,874.96 1611.29,875.17 1610.64,872.67 1667.84,872.45 					"/><polygon class="st18" points="1677.63,881.92 1605.81,882.19 1605.15,879.68 1676.97,879.42 					"/><g><polygon class="st18" points="1697.37,916.39 1604.09,916.73 1603.43,914.23 1696.72,913.89 						"/><polygon class="st18" points="1699.53,924.65 1606.25,924.99 1605.59,922.49 1698.88,922.14 						"/><polygon class="st18" points="1701.69,932.91 1608.4,933.25 1607.75,930.74 1701.03,930.4 						"/><polygon class="st18" points="1703.84,941.16 1610.56,941.51 1609.91,939 1703.19,938.66 						"/><polygon class="st18" points="1706,949.42 1612.72,949.77 1612.06,947.26 1705.35,946.92 						"/></g><g><polygon class="st18" points="1711.25,969.52 1617.97,969.86 1617.31,967.36 1710.6,967.01 						"/><polygon class="st18" points="1713.41,977.78 1620.12,978.12 1619.47,975.61 1712.75,975.27 						"/><polygon class="st18" points="1715.56,986.03 1622.28,986.38 1621.63,983.87 1714.91,983.53 						"/><polygon class="st18" points="1717.72,994.29 1624.44,994.64 1623.78,992.13 1717.07,991.79 						"/><polygon class="st18" points="1719.88,1002.55 1626.59,1002.89 1625.94,1000.39 1719.22,1000.04 						"/></g></g></g><g><g><polygon class="st5" points="1567.19,1023.5 1090.05,1025.26 952.73,499.53 1014.89,432.6 1412.46,431.14 					"/><polygon class="st18" points="1281.03,519.98 1112.87,520.6 1110.94,513.23 1279.1,512.61 					"/><polygon class="st18" points="1307.88,540.45 1096.75,541.23 1094.83,533.86 1305.95,533.08 					"/><g><polygon class="st18" points="1365.93,641.77 1091.7,642.79 1089.77,635.42 1364,634.41 						"/><polygon class="st18" points="1372.27,666.05 1098.04,667.06 1096.12,659.7 1370.34,658.68 						"/><polygon class="st18" points="1378.61,690.33 1104.38,691.34 1102.46,683.97 1376.68,682.96 						"/><polygon class="st18" points="1384.95,714.6 1110.72,715.61 1108.8,708.25 1383.03,707.24 						"/><polygon class="st18" points="1391.29,738.88 1117.06,739.89 1115.14,732.52 1389.37,731.51 						"/></g><g><polygon class="st18" points="1406.72,797.95 1132.49,798.97 1130.57,791.6 1404.8,790.59 						"/><polygon class="st18" points="1413.06,822.23 1138.83,823.24 1136.91,815.87 1411.14,814.86 						"/><polygon class="st18" points="1419.4,846.51 1145.18,847.52 1143.25,840.15 1417.48,839.14 						"/><polygon class="st18" points="1425.74,870.78 1151.52,871.79 1149.59,864.43 1423.82,863.41 						"/><polygon class="st18" points="1432.09,895.06 1157.86,896.07 1155.93,888.7 1430.16,887.69 						"/></g></g><polygon class="st18" points="952.73,499.53 1032.29,499.24 1014.89,432.6 				"/></g></g></g><g><g><g><path class="st19" d="M2101.96,1435.81h-388.44v-137.19h389.68c30.3,0,54.86,24.56,54.86,54.86v26.24
					C2158.06,1410.7,2132.94,1435.81,2101.96,1435.81z"/><path class="st20" d="M2489.61,1355.07v20.64c0,11.03-2.96,21.36-8.15,30.23c-10.41,17.86-29.78,29.87-51.96,29.87h-727.88
					c-4.82,0-8.72-3.9-8.72-8.71v-3.09c0-4.81,3.9-8.71,8.72-8.71h443.71c2.37-2.89,4.46-6.02,6.23-9.36
					c4.16-7.83,6.5-16.75,6.5-26.23v-26.24c0-4.83-0.62-9.51-1.8-13.96c-1.99-7.55-5.54-14.47-10.29-20.37h-444.35
					c-4.82,0-8.72-3.9-8.72-8.72v-3.08c0-4.82,3.9-8.72,8.72-8.72h731.54c25.78,0,47.52,17.28,54.27,40.89
					C2488.85,1344.46,2489.61,1349.67,2489.61,1355.07z"/><path class="st21" d="M2487.43,1339.51h-331.17c-1.99-7.55-5.54-14.47-10.29-20.37h-444.35c-4.82,0-8.72-3.9-8.72-8.72v-3.08
					c0-4.82,3.9-8.72,8.72-8.72h731.54C2458.94,1298.62,2480.68,1315.9,2487.43,1339.51z"/></g><polygon class="st22" points="1713.52,1367.22 1767.42,1369.52 1713.52,1370.91 			"/><polygon class="st22" points="1713.52,1388.74 1841.74,1391.05 1713.52,1392.44 			"/></g><g><g><g><path class="st12" d="M1806.16,1542.23h413.5v-106.71H1802.8c-28.54,0-51.68,23.14-51.68,51.68v0
						C1751.13,1517.59,1775.77,1542.23,1806.16,1542.23z"/><path class="st19" d="M2195.93,1542.23h470.6v-106.71h-471.8c-29.02,0-52.54,23.52-52.54,52.54v0.43
						C2142.19,1518.18,2166.25,1542.23,2195.93,1542.23z"/><path class="st12" d="M2110.77,1542.23h572.1c4.41,0,7.98-3.57,7.98-7.98l0,0c0-4.41-3.57-7.98-7.98-7.98h-572.1
						c-4.41,0-7.98,3.57-7.98,7.98l0,0C2102.79,1538.66,2106.36,1542.23,2110.77,1542.23z"/><path class="st12" d="M2110.77,1451.48h572.1c4.41,0,7.98-3.57,7.98-7.98l0,0c0-4.41-3.57-7.98-7.98-7.98h-572.1
						c-4.41,0-7.98,3.57-7.98,7.98l0,0C2102.79,1447.91,2106.36,1451.48,2110.77,1451.48z"/></g><polygon class="st22" points="2666.53,1488.88 2602.96,1490.67 2666.53,1491.75 				"/><polygon class="st22" points="2666.53,1464.32 2515.29,1466.11 2666.53,1467.19 				"/></g><g><path class="st20" d="M2516.85,1465.76c0,0,6.48,4.58,8.63,12.12c0.38,1.32,0.62,2.73,0.67,4.22c0.36,10.01,0,32.67,0,32.67
					l19.13-11.33l19.08,11.33v-30.71c0-5.81-1.64-11.46-4.68-15.16c-1.47-1.79-3.26-3.14-5.29-3.14H2516.85z"/><path class="st23" d="M2516.85,1465.76c0,0,6.48,4.58,8.63,12.12l38.35,0.45c0,0-1.5-10.79-9.42-12.57H2516.85z"/></g></g><g><g><g><path class="st19" d="M2147.8,1298.91h422.48v-156.78h-423.87c-33.83,0-61.26,27.43-61.26,61.26v32.87
						C2085.15,1270.86,2113.2,1298.91,2147.8,1298.91z"/><path class="st24" d="M2095.09,1202.96v33.74c0.1,14.41,8.08,26.91,19.8,33.6c5.77,3.28,12.44,5.16,19.53,5.16h458.8
						c5.38,0,9.74,4.36,9.74,9.74v3.98c0,5.38-4.36,9.74-9.74,9.74h-792.59c-22.74,0-42.84-11.3-54.98-28.61
						c-7.65-10.9-12.15-24.18-12.15-38.52v-26.62c0-9.82,2.25-19.12,6.26-27.41c10.19-21.08,31.78-35.62,56.77-35.62h796.69
						c5.38,0,9.74,4.35,9.74,9.73v3.98c0,5.38-4.36,9.74-9.74,9.74h-460.21c-11,0-20.95,4.68-27.91,12.17
						C2098.95,1184.39,2095.15,1193.22,2095.09,1202.96z"/></g><polygon class="st22" points="2570.28,1220.52 2511.46,1223.16 2570.28,1224.74 				"/><polygon class="st22" points="2570.28,1184.44 2430.35,1187.07 2570.28,1188.66 				"/></g><g><path class="st25" d="M2431.79,1186.55c0,0,9.23,4.97,12.29,13.14c0.54,1.43,0.89,2.96,0.96,4.57c0.51,10.86,0,35.43,0,35.43
					l27.26-12.29l27.19,12.29v-33.3c0-6.3-2.33-12.42-6.67-16.43c-2.1-1.94-4.65-3.41-7.53-3.41H2431.79z"/><path class="st26" d="M2431.79,1186.55c0,0,9.23,4.97,12.29,13.14l54.64,0.49c0,0-2.14-11.7-13.42-13.63H2431.79z"/></g></g></g><g><g><path class="st13" d="M2155.15,1084c24.18,42.09,54.6,58.33,54.6,58.33h126.54C2336.28,1142.33,2136.7,1051.89,2155.15,1084z"/><g><path class="st15" d="M2252.33,1409.64c3.3,3.78,3.72,8,2.09,12.51c0,0.02-0.01,0.04-0.03,0.06
					c-3.02,8.34-12.99,17.65-24.57,26.95c-1.48,1.19-2.8,2.28-3.94,3.29c-0.3,0.26-0.6,0.53-0.88,0.79
					c-0.23,0.2-0.46,0.42-0.68,0.61c-10.8,9.96-6.74,12.24-26.14,32.44c-22.12,23.02-37.36,23.43-41.69,21.34
					c-3.67-1.79,3.78-14,12.04-27.72c0.4-0.66,0.79-1.33,1.2-2c1.1-1.82,2.19-3.68,3.28-5.51c9.67-16.52,7.19-24.26,4.89-48.84
					c-1.86-19.97-31.07-111.58-31.07-111.58l42.4-7.3c0,0,12.77,72.95,26.84,84.18c7.52,5.99,15.94,6.06,23.17,10.5
					c0.51,0.31,1.01,0.62,1.5,0.95C2244.84,1403.04,2249.02,1405.85,2252.33,1409.64z"/><path class="st13" d="M2252.33,1409.64c3.3,3.78,3.72,8,2.09,12.51c0,0.02-0.01,0.04-0.03,0.06
					c-3.7,8.33-13.42,17.6-24.61,26.87c-1.46,1.21-2.75,2.33-3.9,3.37c-0.3,0.26-0.6,0.53-0.88,0.79c-0.23,0.2-0.46,0.42-0.68,0.61
					c-10.8,9.96-6.74,12.24-26.14,32.44c-22.12,23.02-37.36,23.43-41.69,21.34c-3.67-1.79,3.78-14,12.04-27.72
					c4.31-1.58,24.31-9.7,39.44-29.06c13.32-17,22.21-38.84,31.28-51.49c0.51,0.31,1.01,0.62,1.5,0.95
					C2244.84,1403.04,2249.02,1405.85,2252.33,1409.64z"/><path class="st15" d="M1910.46,1383.16c-2.62,13.09-21.27,10.9-42.11,5.81s-15.89,0.96-45.55-2.32
					c-29.66-3.28-38.65-14.34-39.55-18.75c-0.81-3.91,13.85-5.29,29.57-7.1c1.98-0.22,3.96-0.47,5.95-0.71
					c17.75-2.23,30.75-13.68,46.87-23.09c15.27-8.91,38.06-45.21,38.06-45.21l40.68,3.22c0,0-21.35,32.42-29.6,46.52
					c-4.86,8.29-4.6,19.25-3.99,27.72C1911.09,1373.85,1911.39,1378.55,1910.46,1383.16z"/><path class="st13" d="M1868.35,1388.97c-20.84-5.09-15.89,0.96-45.55-2.32c-29.66-3.28-38.65-14.34-39.55-18.75
					c-0.81-3.91,13.85-5.29,29.57-7.1l0.15,0.3c0,0,17.79,12.61,42.48,13.2c20.12,0.49,41.44-5.28,55.34-5.05
					c0.32,4.6,0.62,9.31-0.31,13.92C1907.84,1396.25,1889.19,1394.06,1868.35,1388.97z"/><path class="st13" d="M2066.35,1123.05l38.03,102.33l49.65,133.61c0,0,13.47,1.3,26.38-2.41c11.88-3.43,25.51-12.42,25.51-12.42
					s-13.79-143.46-39.5-225.81c-6.59-21.14-13.98-38.24-22.13-47.86C2104.42,1023.37,2066.35,1123.05,2066.35,1123.05z"/><path class="st12" d="M2105.02,960.54c24.91-8.04,95.97,2.28,167.35,16.25l14.95-24.65l154.17-12.04
					c0,0,50.88,112.82,23.02,184.71c-4.09,10.57-12.23,17.34-26.09,17.57c0,0.01-2.25-0.01-2.25,0c0,0-91.76-0.05-121.56-0.05
					c-76.67,0-162.27-52.71-173.34-54.92c-18.12-3.62-25.37,32.62-43.5,70.68c-18.12,38.06-170.36,168.55-170.36,168.55
					s-23.4,0.23-33.06-3.39c-10.39-3.9-14.2-8.96-14.2-8.96S2048.84,978.66,2105.02,960.54z"/><path class="st13" d="M2288.22,739.82c54.9,30.23,166.28,92.9,166.86,92.49c0,0,40.94,15.43,64.16,0
					c38.71-25.71,59.47-94.89-11.32-154.43c-35.3-29.69-60.39-36.92-64.2-84.34c-2.07-25.72-37.23-110.62-95.65-102.76
					c-4.88,0.66-34.93,2.06-54.68,12.43C2243.05,529.64,2205.91,728.12,2288.22,739.82z"/><path class="st15" d="M2334.23,714.09c-0.24,0.16,27.01,9.46,45.24,1.39c17.14-7.58,30.13-35.78,29.88-35.8
					c-7.8-0.36-16.36-7.18-22.96-51.92l-3.32,1.19l-55.84,20.09c0,0,4.05,17.92,6.66,34.97
					C2336.1,698.35,2337.28,712.07,2334.23,714.09z"/><path class="st27" d="M2327.23,649.05c0,0,4.05,17.92,6.66,34.97c32.07-5.77,44.66-37.73,49.17-55.07L2327.23,649.05z"/><path class="st15" d="M2318.92,666.83c0,0,76.39-10.25,69.28-57.73c-7.12-47.48-2.05-80.77-51.13-76.24
					c-49.08,4.54-55.82,24.07-57.29,40.5C2278.29,589.79,2298.86,668.28,2318.92,666.83z"/><path class="st13" d="M2282.56,547.34c0,0,48.9,42.14,82.17,45.54c33.26,3.4,45.86-7.28,45.86-7.28s-19.61-16.28-31.41-42.55
					c-3.48-7.74-10.82-13.06-19.28-13.79C2336.14,527.21,2291.11,526.28,2282.56,547.34z"/><path class="st13" d="M2313.13,543.57c0,0-16.36,15.82-21.51,27.55c-4.97,11.32-6.46,38.4-2.5,49.16
					c0,0-25.49-49.57-11.06-73.65C2293.35,521.09,2313.13,543.57,2313.13,543.57z"/><path class="st5" d="M2269.9,826.63c2.31,154.64,0.63,122.33,17.55,137c4.08,3.53,15.54,5.64,30.62,6.63
					c47.42,3.15,130.77-4.66,133.94-13.43c10.94-30.32,3.22-39.74,12.34-86.16c0.95-4.94,2.13-10.28,3.51-16.1
					c7.61-31.88,15.01-42.73-11.98-93.95c-24.48-46.4-49.91-84.06-52.2-82.7c-64.58,38.34-69.79,6.11-69.79,6.11
					S2268.77,751.2,2269.9,826.63z"/><path class="st12" d="M2104.38,1225.38l49.65,133.61c0,0,13.47,1.3,26.38-2.41c11.88-3.43,25.51-12.42,25.51-12.42
					s-13.79-143.46-39.5-225.81L2104.38,1225.38z"/><path class="st5" d="M2333.9,684.03c0,0-66.45,11.27-74.26,39.88s-53.73,196.82-53.73,196.82s33.78,6.07,49.39-9.54
					c15.61-15.61,54.3-144.79,54.3-144.79L2333.9,684.03z"/><path class="st28" d="M2318.07,970.27c47.42,3.15,130.77-4.66,133.94-13.43c10.94-30.32,3.22-39.74,12.34-86.16l-22.87-64.4
					c0,0,3.78,71.72-17.37,90.58c-21.13,18.86-86.59,36.41-96.88,52.17C2322.28,956.59,2319.02,964.18,2318.07,970.27z"/><path class="st15" d="M2372.4,940.1c0,0-46.78-10.42-54.33-6.26c-7.55,4.15-26,19.27-28.31,24.53
					c-2.31,5.26,16.8-3.99,23.02-5.66c4.03-1.08,14.63,2.6,19.87,4.35c22.08,7.36,35.61,3.57,35.61,3.57L2372.4,940.1z"/><path class="st5" d="M2403.73,677.89c0,0,62.82,3.87,84.56,34.2c30.61,42.69,91.33,224.64,56.53,248.91
					c-39.19,27.33-178.37,7.15-178.37,7.15s-4.63-21.65,1.81-32.12c6.44-10.47,111.16-27.39,116-32.22
					c4.83-4.83-60.41-94.25-60.41-108.75C2423.85,780.55,2403.73,677.89,2403.73,677.89z"/><path class="st15" d="M2315.8,946.86c0,0-9.8,12.64-13.01,14.15c-3.21,1.51-5.29,1.13-5.29,1.13l6.61-11.89L2315.8,946.86z"/><path class="st15" d="M2318.07,933.84l-28.5,13.84c0,0,1.21,1.98,4.72,1.82c3.51-0.16,12.36-3.4,12.36-3.4L2318.07,933.84z"/></g><g><g><polygon class="st17" points="2302.79,980.38 2077.36,980.38 2009.54,811.75 2234.63,811.75 					"/><polygon class="st17" points="2074.71,973.81 2372.4,973.81 2372.4,980.38 2077.36,980.38 					"/></g><path class="st5" d="M2134.26,896.06c-1.7-5.93,1.73-10.73,7.66-10.73s12.11,4.81,13.81,10.73c1.7,5.93-1.73,10.73-7.66,10.73
					C2142.15,906.8,2135.96,901.99,2134.26,896.06z"/></g></g></g><g><g><path class="st11" d="M254.2,1046.61l-4.8,3.33c-5.12,3.55-12.18,2.27-15.74-2.85l-27.92-40.28c-3.55-5.12-2.27-12.19,2.85-15.74
				l6.88-4.77c1-0.7,2.38-0.45,3.08,0.56c0.7,1,0.45,2.38-0.56,3.08l-6.88,4.77c-3.12,2.16-3.9,6.46-1.74,9.58l27.92,40.28
				c2.16,3.12,6.46,3.9,9.58,1.74l4.8-3.33c3.12-2.16,3.9-6.46,1.74-9.58l-18.54-26.74c-0.7-1-0.45-2.38,0.56-3.08
				c1-0.7,2.38-0.45,3.08,0.56l18.54,26.74C260.61,1036,259.33,1043.06,254.2,1046.61z"/></g><g><path class="st11" d="M284.81,1086.34l-8.61,5.97c-7.99,5.54-19.32,3.08-25.25-5.48l-41.98-60.56c-0.7-1-0.45-2.38,0.56-3.08
				c1-0.7,2.38-0.45,3.08,0.56l41.98,60.56c4.54,6.56,13.11,8.52,19.09,4.37l8.61-5.97c5.99-4.15,7.16-12.86,2.61-19.41
				l-47.81-68.99c-4.54-6.56-13.11-8.51-19.1-4.37c-1,0.7-2.38,0.45-3.08-0.56c-0.7-1-0.45-2.38,0.56-3.08
				c7.99-5.54,19.32-3.08,25.25,5.48l47.81,68.99C294.48,1069.33,292.8,1080.8,284.81,1086.34z"/></g></g><g><g><path class="st11" d="M342.56,1402.66l1.04,8.53c1.11,9.11-5.41,17.42-14.51,18.52l-71.58,8.69
				c-9.11,1.11-17.42-5.41-18.52-14.51l-1.48-12.22c-0.22-1.79,1.05-3.41,2.84-3.62c1.78-0.22,3.41,1.05,3.62,2.84l1.48,12.22
				c0.67,5.54,5.73,9.51,11.27,8.83l71.58-8.69c5.54-0.67,9.51-5.73,8.83-11.27l-1.04-8.53c-0.67-5.54-5.73-9.51-11.27-8.83
				l-47.52,5.77c-1.79,0.22-3.41-1.06-3.62-2.84c-0.22-1.79,1.06-3.41,2.84-3.62l47.52-5.77
				C333.14,1387.04,341.45,1393.55,342.56,1402.66z"/></g><g><path class="st11" d="M415.26,1390.1l1.86,15.29c1.72,14.2-9.25,27.25-24.47,29.1l-107.62,13.06c-1.79,0.22-3.41-1.06-3.62-2.84
				c-0.22-1.79,1.06-3.41,2.84-3.62l107.62-13.06c11.65-1.41,20.08-11.22,18.79-21.85l-1.86-15.29
				c-1.29-10.64-11.82-18.14-23.47-16.72l-122.59,14.88c-11.65,1.41-20.08,11.22-18.79,21.85c0.22,1.79-1.06,3.41-2.84,3.62
				c-1.79,0.22-3.41-1.05-3.62-2.84c-1.72-14.2,9.25-27.25,24.47-29.1l122.59-14.88C399.76,1365.85,413.54,1375.9,415.26,1390.1z"/></g></g><ellipse transform="matrix(0.2298 -0.9732 0.9732 0.2298 831.7869 1830.3727)" class="st17" cx="1572.28" cy="389.68" rx="9.92" ry="9.92"/><path class="st29" d="M2912.59,1549.17H18.95c-1.81,0-3.29-1.48-3.29-3.29v-1.12c0-1.81,1.48-3.29,3.29-3.29h2893.64
		c1.81,0,3.29,1.48,3.29,3.29v1.12C2915.88,1547.7,2914.4,1549.17,2912.59,1549.17z"/></g><g><path class="st0" d="M5467.32,562.44c-102.93-87.8-227.02-617.31-652.12-341.53c-219.63,142.49-589.97-122.32-896.5-30.86
		c-281.51,84-308.65,360.75-281.41,450.93c55.02,182.16-116.2,209.27-275.04,287.54c-249.15,122.77-65.94,554.22,169.44,556.29
		c235.38,2.06,1661.35-4.11,1661.35-4.11s341.94,0.86,484.13-187.86C5830.19,1089.76,5733.19,789.23,5467.32,562.44z"/><g><g><path class="st30" d="M5134.72,1312.58c0,0-26.46-30.87-1.63-50.47c0,0,18.13-10.98,32.92-10.09c0,0-20.95,35.13-14.17,38.63
				c6.78,3.49,20.52-40.83,20.52-40.83s41.26-4,54.54,2.38c0,0-35.28,28.87-27.85,30.59c7.43,1.72,45.53-26.62,45.53-26.62
				s38.41,6.54,36.36,29.96s-15.28,30.66-21.1,30.04s-39.84-13.61-40.58-8.84s19.74,20.34,34.08,21.07c0,0-27.08,29.86-45.07,21.24
				c-18-8.62-19.53-22.28-30.75-27.4c-11.22-5.12-20.79-5.11-16.16,0.11c4.63,5.23,24.93,10.3,31.35,21.65
				c6.42,11.35,12.17,19-6.45,16.2c-18.62-2.8-48.88-16.43-50.21-32.03C5134.72,1312.58,5134.72,1312.58,5134.72,1312.58z"/><g><path class="st30" d="M5262.07,1286.77c0,0-104.31-4.02-127.35,25.81c0,0-5.09,15.26-20.77,29.15l-2.44,6.66
					c0,0,18.08-19.06,24.54-20.21C5136.04,1328.18,5125.93,1291.22,5262.07,1286.77z"/><path class="st30" d="M5113.94,1341.73c0,0-22.39,16.56-23.95,46.14l4.06,0.36c0,0,7.15-30.59,20.08-42.55
					C5127.06,1333.72,5113.94,1341.73,5113.94,1341.73z"/></g></g><g><path class="st30" d="M5042.22,1273.76c0,0,42.08-23.57,22.45-55.55c0,0-15.71-19.64-32.55-24.69c0,0,8.98,47.7,0,48.82
				c-8.98,1.12-6.17-53.87-6.17-53.87s-44.33-21.32-61.72-19.64c0,0,27.5,46.57,18.52,45.45c-8.98-1.12-39.84-48.26-39.84-48.26
				s-45.45-8.42-52.75,18.52c-7.29,26.93,4.49,40.4,11.22,42.09c6.73,1.68,49.94,1.12,48.82,6.73c-1.12,5.61-30.3,14.59-46.57,9.54
				c0,0,17.96,44.33,41.52,42.09c23.57-2.25,30.86-16.83,45.45-17.96c14.59-1.12,25.25,2.81,17.96,6.73
				c-7.29,3.93-31.98,1.29-43.77,11.3c-11.78,10.02-21.32,16.19,0.56,20.68c21.88,4.49,61.16,1.68,69.02-15.15
				C5042.22,1273.76,5042.22,1273.76,5042.22,1273.76z"/><g><path class="st30" d="M4910.91,1192.96c0,0,117.84,38.16,131.31,80.8c0,0-0.56,19.08,11.22,40.96v8.42
					c0,0-12.35-28.62-19.08-32.55C5034.36,1290.6,5060.73,1253.56,4910.91,1192.96z"/><path class="st30" d="M5053.44,1314.73c0,0,18.17,27.6,7.81,61.19l-4.68-1.25c0,0,4.54-37-4.97-55.61
					C5042.1,1300.44,5053.44,1314.73,5053.44,1314.73z"/></g></g><g><path class="st31" d="M5109.17,1241.26c0,0-55.48-31.07-29.59-73.23c0,0,20.71-25.89,42.9-32.55c0,0-11.83,62.87,0,64.35
				c11.84,1.48,8.14-71.01,8.14-71.01s58.44-28.11,81.37-25.89c0,0-36.24,61.39-24.41,59.91c11.84-1.48,52.52-63.61,52.52-63.61
				s59.92-11.09,69.53,24.41c9.62,35.5-5.92,53.26-14.79,55.48s-65.83,1.48-64.35,8.88c1.48,7.4,39.94,19.23,61.39,12.58
				c0,0-23.67,58.43-54.74,55.48c-31.07-2.96-40.68-22.19-59.91-23.67s-33.29,3.7-23.67,8.88c9.62,5.18,42.16,1.7,57.7,14.9
				c15.53,13.21,28.11,21.34-0.74,27.26c-28.85,5.92-80.62,2.22-90.98-19.97C5109.17,1241.26,5109.17,1241.26,5109.17,1241.26z"/><g><path class="st31" d="M5282.26,1134.75c0,0-155.33,50.3-173.08,106.51c0,0,0.74,25.15-14.79,54v11.1c0,0,16.27-37.72,25.15-42.9
					C5119.52,1263.45,5084.76,1214.63,5282.26,1134.75z"/><path class="st31" d="M5094.38,1295.26c0,0-23.96,36.38-10.3,80.66l6.16-1.66c0,0-5.98-48.77,6.55-73.3
					C5109.32,1276.43,5094.38,1295.26,5094.38,1295.26z"/></g></g><path class="st31" d="M5107.3,1471.94c60.02,0,108.67-48.65,108.67-108.67h-217.34
			C4998.63,1423.29,5047.28,1471.94,5107.3,1471.94z"/><path class="st31" d="M5217.47,1477.47h-220.34l0,0c0-7.4,6-13.41,13.41-13.41h193.53
			C5211.47,1464.06,5217.47,1470.06,5217.47,1477.47L5217.47,1477.47z"/><rect x="4995.06" y="1363.27" class="st32" width="223.38" height="3.33"/></g><g><g><path class="st6" d="M4840.87,798.31l-36.83-0.85c11.83,15.34,14.49,29.46,7.12,41.42c-7.37,12.2-25,22.22-51.32,29.83
				c19.92-53.01,29.95-108.92,29.95-166.28c0-64.24-12.56-126.55-37.43-185.12c-23.91-56.63-58.2-107.59-101.92-151.18
				c-43.71-43.71-94.55-78.01-151.18-102.04c-58.69-24.76-120.99-37.31-185.11-37.31c-64.24,0-126.55,12.56-185.24,37.31
				c-7,3.02-14.01,6.16-20.77,9.42c-0.02,0.01-0.04,0.02-0.06,0.03c-20.46-6.24-40.38-11.36-59.61-15.25
				c-97.05-19.69-165.92-6.08-193.9,38.33c-26.62,42.24-12.13,105.82,40.7,179.97c-0.01,0.01-0.01,0.02-0.02,0.04
				c-7.12,13.16-13.52,26.69-19.44,40.69c-4.47,10.51-8.45,21.01-12.08,31.76c-99.26,5.92-152.39,23.39-171.71,55.02
				c-22.46,36.83,8.21,86.26,106.38,134.32c13.52,6.64,28.01,13.16,43.23,19.68c5.07,44.56,16.54,87.91,34.17,129.45
				c23.91,56.63,58.2,107.59,101.92,151.3c43.71,43.59,94.55,77.89,151.18,101.92c58.69,24.75,121,37.31,185.24,37.31
				c64.12,0,126.43-12.56,185.11-37.31c56.63-24.03,107.47-58.32,151.18-101.92c42.5-42.51,76.2-92.01,99.98-146.84
				c48.42-10.02,80.3-25.72,92.98-46.49C4852.22,831.15,4851.13,815.21,4840.87,798.31z M4727.24,876.19
				c-32.24,5.8-72.45,9.18-119.42,9.66c-72.89,0.89-156.6-4.87-244.82-16.49c7.42-16.16,14.7-32.76,21.8-49.75
				c27.38,9.16,53.94,16.41,79.28,21.55c29.03,5.89,55.52,8.8,79.16,8.8c55.42,0,95.13-16,114.74-47.13
				c3.23-5.13,5.86-10.56,7.89-16.31h-28.25c-0.47,0.86-0.96,1.71-1.49,2.54c-14.57,23.12-47.12,35.07-92.82,35.06
				c-21.86,0-46.75-2.73-74.09-8.28c-23.84-4.84-48.84-11.63-74.61-20.18c6.8-17.02,13.42-34.36,19.8-51.98
				c17.22-47.48,31.96-94.55,43.89-139.75c54.35,8.01,112.69,12.04,174.68,12.04c38.59,0,78.61-1.56,119.94-4.67
				c6.14,29.75,9.24,60.21,9.24,91.13C4762.13,762.68,4750.42,821.13,4727.24,876.19z M4138.64,1111.99
				c-13.74-4.98-20.72-24.7-24.15-40.37c-5.42-24.76-6.4-59.53-2.84-100.57c1.8-20.75,4.71-42.82,8.61-65.9
				c56.32,15.01,112.09,34.32,166.4,57.58c-12.23,21.09-24.6,40.65-36.97,58.38c-23.57,33.78-46.61,59.84-66.64,75.37
				C4170.38,1106.31,4152.39,1116.98,4138.64,1111.99z M4299.11,940.66c-56.84-24.5-115.29-44.74-174.32-60.37
				c2.08-10.71,4.36-21.61,6.84-32.68c16.41,3.73,33.06,7.34,49.92,10.82c49.32,10.09,98.53,18.65,146.7,25.58
				C4318.71,903.76,4308.97,922.68,4299.11,940.66z M4192.42,840.57c-19.06-3.92-37.84-8.02-56.3-12.27
				c8.69-36.16,19.36-73.85,31.83-112.26c64.78,39.82,130.66,72.21,193.03,95.2c-7.83,18.68-15.86,36.9-24.07,54.53
				C4289.53,858.97,4241.06,850.54,4192.42,840.57z M4034.21,352.51c4.13,8.45,9.83,18.94,17.51,30.81
				c32.75,50.61,76,87.3,106.52,109.16c17.52,12.56,36.22,24.19,56.05,34.89c-18.09,39.42-35.32,81.49-51.17,125.18
				c-2.95,8.15-5.83,16.28-8.63,24.39c-94.63-61.6-174.76-132.28-227.32-200.69c-0.01-0.01-0.01-0.02-0.02-0.03
				c13.16-22.45,28.25-43.69,45.14-63.6c7-8.21,14.25-16.18,21.86-23.91c1.09-1.09,2.05-2.05,3.14-3.14
				C4009.04,373.82,4021.36,362.8,4034.21,352.51z M4438.86,284.24c13.74,4.98,20.72,24.7,24.15,40.37
				c5.42,24.76,6.4,59.53,2.84,100.57c-3.91,44.91-12.9,95.93-26.29,150.24c-16.17-2.78-31.96-5.93-47.33-9.46
				c-53.13-12.22-101.56-28.93-144.8-49.92c25.81-53.82,53.1-101.82,80.38-140.93c23.57-33.78,46.61-59.84,66.64-75.37
				c10.45-8.1,24.52-16.77,36.84-16.77C4433.9,282.98,4436.45,283.37,4438.86,284.24z M4384.85,590.12
				c15.74,3.65,31.91,6.9,48.44,9.78c-11.62,43.71-25.92,89.23-42.59,135.19c-6.43,17.72-13.08,35.16-19.92,52.25
				c-62.62-22.99-129.09-55.88-194.43-96.5c3.38-9.87,6.86-19.78,10.46-29.7c15.49-42.7,32.3-83.8,49.92-122.29
				C4281.14,560.38,4330.67,577.54,4384.85,590.12z M4630.87,385.57c41.18,41.18,73.54,89.12,96.12,142.49
				c8.05,19.07,14.73,38.55,20.03,58.39c-103.27,7.55-197.91,5.18-282.51-7.06c13.42-54.85,22.46-106.45,26.43-152.02
				c4.38-50.33,3.84-109.94-16.56-143.49c4.73,1.82,9.44,3.71,14.12,5.7C4541.88,312.15,4589.82,344.39,4630.87,385.57z
				 M4314.14,254.31c31.04,0,61.56,3.12,91.4,9.32c-35.2,15.32-71.13,57.96-98.41,97.07c-27.92,40.02-55.8,89-82.12,143.82
				c-17.76-9.65-34.57-20.08-50.35-31.28c-52.36-37.15-83.73-76.05-100.82-102.14c-9.08-13.85-15.2-25.65-19.09-34.12
				c18.38-13.07,37.7-24.75,57.91-34.94c0.01,0,0.01,0,0.02,0.01c8.23-4.15,16.62-8.04,25.13-11.68c0.62-0.26,1.23-0.53,1.85-0.79
				c0.14-0.06,0.29-0.12,0.43-0.18c1.82-0.77,3.64-1.51,5.47-2.25c0.49-0.19,0.99-0.39,1.47-0.58
				C4200.03,265.18,4256.3,254.31,4314.14,254.31z M3876.42,310.39c14.57-23.12,47.12-35.06,92.82-35.06
				c21.86,0,46.75,2.73,74.1,8.28c10.38,2.1,20.99,4.58,31.78,7.42c0.01,0,0.02,0,0.03,0.01c-35.49,20.52-68.08,45.64-97.42,75.09
				c-6.16,6.04-12.08,12.32-17.87,18.84c-7.24,7.97-14.13,16.3-20.77,24.75c-10.63,13.52-20.41,27.65-29.46,42.14
				c-0.01,0.01-0.01,0.02-0.02,0.04C3869.21,391.93,3857.06,341.09,3876.42,310.39z M3901.16,528.06
				c3.99-9.18,8.09-18.23,12.56-27.05c0-0.01,0.01-0.02,0.01-0.02c55.34,69.17,136.92,139.89,232.23,201.22
				c-13.51,41.13-25.05,81.56-34.35,120.29c-69.34-16.78-133.6-35.76-189.92-56.08c-11.83-4.23-23.31-8.57-34.29-12.92
				c-6.52-2.54-12.92-5.19-19.2-7.85c-0.97-9.66-1.69-19.44-1.93-29.22c-0.12-4.71-0.24-9.3-0.24-14.01
				c0-5.43,0.12-10.99,0.24-16.42c1.57-40.69,8.45-80.42,20.53-118.82c2.05-6.52,4.23-12.92,6.64-19.32
				C3895.85,541.22,3898.39,534.58,3901.16,528.06z M3820.38,724.16c-85.61-41.78-124.74-82.11-107.23-110.73
				c14.13-23.19,65.57-38.88,144.3-44.68c-9.66,32.6-15.58,66.29-17.87,100.47c-0.72,10.14-1.09,20.29-1.21,30.55v2.66
				c0,10.26,0.36,20.53,0.97,30.67C3832.82,730.2,3826.54,727.18,3820.38,724.16z M3885.34,775.48
				c11.59,4.35,23.43,8.69,35.62,12.92c56.06,19.43,118.91,37.48,186.14,53.5c-2.44,10.89-4.69,21.63-6.76,32.19
				c-5.49-1.33-10.99-2.64-16.49-3.89c-92.94-21.15-162.68-25.46-195.01-26.19c-8.01-24.12-13.9-48.79-17.62-73.98
				C3875.93,771.86,3880.63,773.67,3885.34,775.48z M3901.16,876.8c-1.02-2.43-2.02-4.87-3-7.32c39.31,1.6,104.65,8.07,181.04,25.52
				c5.53,1.26,11.05,2.58,16.57,3.93c-4.2,24.51-7.3,47.94-9.22,69.95c-3.63,41.71-3.88,89.8,7.75,124.14
				c-35.41-19.93-67.88-44.59-97.02-73.74C3956.11,978.11,3923.74,930.17,3901.16,876.8z M4488.51,1115.28
				c-55.3,23.43-113.87,35.26-174.37,35.26c-46.6,0-92.13-7.03-135.87-20.97c33.15-17.37,66.45-57.27,92.1-94.04
				c13.23-18.96,26.45-39.95,39.5-62.6c75.24,34.08,147.6,75.94,215.56,124.71C4513.44,1104.06,4501.12,1109.95,4488.51,1115.28z
				 M4630.87,1019.28c-24.76,24.84-52.04,46.42-81.5,64.6c-71.39-52.18-147.67-96.84-227.14-133
				c10.93-20.02,21.69-41.16,32.21-63.24c72.74,9.64,142.67,15.42,206.52,16.92c16.67,0.48,32.84,0.48,48.54,0.36
				c40.69-0.48,76.92-2.9,107.95-7.25C4695.72,942.73,4666.62,983.54,4630.87,1019.28z"/><g><polygon class="st33" points="4211.06,198.47 4098.52,217.58 4172.13,164.49 4176.38,180.77 4203.98,185.02 				"/><polygon class="st18" points="4098.52,217.58 4191.24,166.61 4283.26,159.54 				"/><polygon class="st18" points="4172.13,164.49 4098.52,217.58 4154.44,136.18 				"/></g><g><polygon class="st33" points="3716.88,473.01 3823.4,514.04 3761.77,447.42 3754.38,462.53 3726.49,461.23 				"/><polygon class="st18" points="3823.4,514.04 3742.62,445.71 3653.83,420.54 				"/><polygon class="st18" points="3761.77,447.42 3823.4,514.04 3784.73,423.18 				"/></g></g><g><polygon class="st8" points="4075.1,1478.89 4878.51,1478.89 5147.79,398.89 4344.37,398.89 			"/><polygon class="st5" points="4109.38,1444.37 4861.44,1444.37 5113.5,433.41 4361.44,433.41 			"/><g><g><path class="st34" d="M4374.78,899.37h498.2c6.17,0,12.49-5.05,14.03-11.23l1.05-4.21c1.54-6.17-2.25-11.23-8.43-11.23h-498.19
						c-6.18,0-12.49,5.05-14.03,11.23l-1.05,4.21C4364.82,894.31,4368.61,899.37,4374.78,899.37z"/><path class="st34" d="M4419.11,721.6h498.19c6.18,0,12.49-5.05,14.03-11.23l1.05-4.21c1.54-6.17-2.25-11.23-8.43-11.23h-498.2
						c-6.17,0-12.49,5.05-14.03,11.23l-1.05,4.21C4409.14,716.54,4412.93,721.6,4419.11,721.6z"/><path class="st34" d="M4403.71,783.35h498.2c6.18,0,12.49-5.05,14.03-11.23l1.05-4.21c1.54-6.18-2.25-11.23-8.43-11.23h-498.2
						c-6.17,0-12.49,5.05-14.03,11.23l-1.05,4.21C4393.74,778.3,4397.54,783.35,4403.71,783.35z"/><path class="st34" d="M4389.25,841.36h498.2c6.17,0,12.49-5.05,14.03-11.23l1.05-4.21c1.54-6.17-2.25-11.23-8.43-11.23h-498.2
						c-6.18,0-12.49,5.05-14.03,11.23l-1.05,4.21C4379.28,836.3,4383.07,841.36,4389.25,841.36z"/><path class="st34" d="M4345.31,1017.59h498.19c6.18,0,12.49-5.05,14.03-11.23l1.05-4.21c1.54-6.18-2.25-11.23-8.43-11.23
						h-498.19c-6.18,0-12.49,5.05-14.03,11.23l-1.05,4.21C4335.34,1012.54,4339.13,1017.59,4345.31,1017.59z"/><path class="st34" d="M4359.77,959.58h498.2c6.17,0,12.49-5.05,14.03-11.23l1.05-4.21c1.54-6.18-2.25-11.23-8.43-11.23h-498.2
						c-6.18,0-12.49,5.05-14.03,11.23l-1.05,4.21C4349.8,954.53,4353.6,959.58,4359.77,959.58z"/></g><path class="st34" d="M4301.96,1199.88h121c7.33,0,14.83-6,16.66-13.33l0,0c1.83-7.33-2.68-13.33-10.01-13.33h-121
					c-7.33,0-14.83,6-16.66,13.33l0,0C4290.12,1193.88,4294.63,1199.88,4301.96,1199.88z"/><path class="st34" d="M4672.65,1199.88h121c7.33,0,14.83-6,16.66-13.33l0,0c1.83-7.33-2.67-13.33-10.01-13.33h-121
					c-7.33,0-14.83,6-16.66,13.33l0,0C4660.81,1193.88,4665.32,1199.88,4672.65,1199.88z"/></g><g><path class="st35" d="M4406.05,1343.38h-176.46c-4.65,0-8.62-1.81-11.19-5.09c-2.67-3.42-3.48-7.96-2.27-12.8l12.72-51.02
					c2.41-9.68,12.25-17.55,21.94-17.55h176.46c4.65,0,8.62,1.81,11.19,5.09c2.67,3.42,3.48,7.96,2.27,12.8l-12.72,51.02
					C4425.58,1335.51,4415.74,1343.38,4406.05,1343.38z M4250.79,1258.34c-9.07,0-18.3,7.39-20.56,16.47l-12.72,51.02
					c-1.1,4.41-0.38,8.52,2.01,11.59c2.29,2.93,5.86,4.54,10.07,4.54h176.46c9.07,0,18.3-7.39,20.56-16.47l12.72-51.02
					c1.1-4.41,0.38-8.52-2.01-11.59c-2.29-2.93-5.86-4.54-10.07-4.54H4250.79z"/></g><g><path class="st35" d="M4777.37,1343.38h-176.46c-4.65,0-8.62-1.81-11.19-5.09c-2.67-3.42-3.48-7.96-2.27-12.8l12.72-51.02
					c2.41-9.68,12.25-17.55,21.94-17.55h176.46c4.65,0,8.62,1.81,11.19,5.09c2.67,3.42,3.47,7.96,2.27,12.8l-12.72,51.02
					C4796.89,1335.51,4787.05,1343.38,4777.37,1343.38z M4622.11,1258.34c-9.07,0-18.3,7.39-20.56,16.47l-12.72,51.02
					c-1.1,4.41-0.38,8.52,2.01,11.59c2.29,2.93,5.86,4.54,10.07,4.54h176.46c9.07,0,18.3-7.39,20.56-16.47l12.72-51.02
					c1.1-4.41,0.38-8.52-2.01-11.59c-2.29-2.93-5.86-4.54-10.07-4.54H4622.11z"/></g><g><path class="st8" d="M4455.37,536.7c5.99-18.28,24.68-33.25,44.43-33.25c12.12,0,17.42,4.59,21.46,10.47l-11.64,9.74
					c-3.48-4.5-6.83-7.16-14.18-7.16c-10.84,0-21.6,9-25.27,20.21c-3.62,11.02,1,20.21,12.02,20.21c7.35,0,12.81-2.94,19.37-7.53
					l5.84,9.64c-8.93,7.07-17.55,10.93-29.95,10.93C4458.51,569.95,4449.25,555.34,4455.37,536.7z"/><path class="st8" d="M4521.32,536.7c6-18.28,25.33-33.25,45.17-33.25s29.22,14.79,23.17,33.25c-6,18.28-25.33,33.25-45.17,33.25
					C4524.65,569.95,4515.26,555.16,4521.32,536.7z M4574.86,536.7c3.62-11.02-1.46-20.21-12.84-20.21s-22.24,9-25.92,20.21
					c-3.62,11.02,1.46,20.21,12.84,20.21S4571.19,547.9,4574.86,536.7z"/><path class="st8" d="M4612.79,504.55h13.04l17.14,39.59l12.99-39.59h13.96l-21.09,64.29h-12.03l-17.73-40.87l-13.41,40.87
					h-13.96L4612.79,504.55z"/><path class="st8" d="M4696.04,517.59h-19.56l4.28-13.04h53.27l-4.28,13.04h-19.56l-16.81,51.25h-14.14L4696.04,517.59z"/><path class="st8" d="M4744.87,504.55h29.39c8.17,0,13.76,2.3,16.6,6.52c2.41,3.58,2.68,8.63,0.63,14.88
					c-3.41,10.38-11.15,16.9-20.32,19.93l8.17,22.96h-16.53l-7.21-20.57h-10.93l-6.75,20.57h-14.14L4744.87,504.55z M4763.1,535.78
					c6.89,0,12.04-3.67,13.88-9.28c1.99-6.06-1.21-9.18-8.1-9.18h-14.05l-6.05,18.46H4763.1z"/><path class="st8" d="M4833.47,504.09h13.04l6.31,64.75h-14.79l-1.15-14.42h-27.19l-10.61,14.42h-14.42L4833.47,504.09z
					 M4835.94,541.93l-1.7-20.85l-15.38,20.85H4835.94z"/><path class="st8" d="M4866.32,536.7c6-18.28,24.68-33.25,44.43-33.25c12.12,0,17.41,4.59,21.46,10.47l-11.64,9.74
					c-3.48-4.5-6.83-7.16-14.18-7.16c-10.84,0-21.6,9-25.27,20.21c-3.62,11.02,1,20.21,12.02,20.21c7.35,0,12.81-2.94,19.37-7.53
					l5.84,9.64c-8.93,7.07-17.55,10.93-29.95,10.93C4869.46,569.95,4860.2,555.34,4866.32,536.7z"/><path class="st8" d="M4958.19,517.59h-19.56l4.28-13.04h53.27l-4.28,13.04h-19.56l-16.81,51.25h-14.15L4958.19,517.59z"/></g><path class="st36" d="M4815.58,1250.15c-26.8,11.08-53.43,23.19-79.81,36.3c1.04-2.96,1.98-5.92,2.81-8.88
				c0.67-2.38-2.54-3.96-4.53-1.34c-0.88,1.16-1.81,2.26-2.8,3.32c0.67-2.13-1.84-3.32-4-1.76c-0.14,0.1-0.27,0.22-0.41,0.33
				c1.04-2.86-3.41-3.29-5.07-0.52l-2.48,4.14c-2.09,2.5-4.99,4.4-7.99,5.33c-0.62-1.36-1.03-2.83-1.18-4.44
				c-0.11-1.22-0.99-1.88-2.06-1.89c-0.05-1.46-1.36-2.32-3.3-1.45c-2.35,1.05-4.42,2.63-6.08,4.48c-1.32-2.47-5.56-0.7-7.84,1.67
				c0.06-0.13,0.13-0.27,0.19-0.4c1.07-2.29-0.92-4.91-3.6-2.6c-4.78,4.12-8.25,9.29-9.87,14.46c-1.57,1.75-3.25,3.43-5.05,4.97
				c-0.88,0.75-4.97,4.55-5.91,4.21c-0.89-0.31-0.42-2.66-0.02-4.32c0.15-0.2,0.29-0.41,0.44-0.61c3.4-4.73,19.8-27.02,8.24-26.82
				c-1.22,0.02-2.47,0.82-3.21,1.96c-4.22,6.5-7.48,13.35-9.46,20.17c-0.38,1.31-0.91,3-1.34,4.77c-0.33,0.45-0.67,0.9-1.01,1.35
				c-4.59,6.01-10.93,14.69-18.37,17.66c-0.69-9.42,4.07-20.57,7.66-30.45c1.55-4.26,3.17-8.52,4.84-12.78
				c0.49-0.1,1.04-0.36,1.6-0.83c8.03-6.76,11.31-16.79,7.67-23.53c-1.05-1.94-4.25-0.17-5.17,1.89
				c-5.53,12.41-10.56,24.87-15.04,37.36c-3.97,11.07-8.48,22.78-6.83,33c0.17,1.08,1.43,1.48,2.61,1.22
				c8.48-1.85,15.87-9.39,21.81-16.92c0.43,0.97,1.16,1.7,2.32,2.05c3.95,1.17,9.33-3.22,13.21-6.89c0.08,1.29,0.31,2.53,0.69,3.73
				c0.42,1.29,1.76,1.58,3.33,0.96c3.66-1.47,7.09-3.82,9.98-6.67c3.83-1.18,7.19-4.33,9.99-8.01c1.77-1.55,3.4-3.18,4.92-4.91
				c0.33,0.95,0.77,1.82,1.37,2.51c1.44,1.65,5.08,0.16,7.4-0.9c2.23-1.02,4.28-2.39,6.1-4.01c1.43-0.11,2.85-0.51,4.2-1.14
				c0.25,0.4,0.58,0.76,0.99,1.04c1.46,0.97,3.15,0.58,4.85-0.46c-0.38,1.08-0.77,2.15-1.18,3.23c-3.84,1.94-7.69,3.9-11.52,5.88
				c-2.53,1.31-3.12,5.18-0.29,4.97c3.52-0.27,7.05-0.54,10.57-0.81c1.6-0.12,2.86-1.13,3.54-2.67c0.62-1.41,1.22-2.82,1.79-4.23
				c27.56-13.81,55.4-26.53,83.42-38.12C4820.34,1253.28,4819.15,1248.68,4815.58,1250.15z M4692.77,1290.7
				c-0.24,0.74-0.53,1.48-0.87,2.2c-0.24,0.5-0.5,0.99-0.79,1.47C4691.52,1293.14,4692.07,1291.9,4692.77,1290.7z M4685.01,1297.31
				c-0.29,1.48-0.64,2.95-0.09,4.01c-0.84,0.64-1.73,1.23-2.64,1.75c-0.18-1.57-0.07-3.24,0.3-4.93c1.22-1.44,2.37-2.93,3.44-4.45
				C4685.58,1294.95,4685.24,1296.18,4685.01,1297.31z"/><g><path class="st36" d="M4322.38,1233.73c-9.49,17.63-14.81,35.73-22.52,53.58c-3.76,8.7-8.17,17.38-13.93,25.59
					c-4,5.72-12.73,18.15-20.12,15.46c-1.84-0.67-2.36-2.25-1.75-4.4c0.13-0.47,0.29-0.96,0.46-1.45c0.93,0.56,2.38,0.33,3.83-0.45
					c2.38-1.28,4.41-3.81,5.46-6.07c1.11-2.4,0.93-4.9-1-5.96c-1.7-0.94-4.23-0.1-6.02,1.69c-1.98,1.99-2.88,4.53-3.86,6.83
					c-1.19,2.81-2.78,5.86-2.61,8.58c0.27,4.07,4.66,5.52,8.96,4.57c5.22-1.15,9.85-5.7,13.36-9.85c4.14-4.9,7.78-10.11,10.94-15.43
					c6.43-10.82,10.99-22.08,15.27-33.22c4.96-12.9,9.59-25.89,16.42-38.57C4326.39,1232.54,4323.5,1231.65,4322.38,1233.73z
					 M4271.01,1313.8c0.32,1.25-0.88,2.88-1.87,4.03c-0.36,0.42-0.67,0.78-1.12,1.11c-0.25,0.19-0.52,0.35-0.8,0.48
					c-0.11,0.02-0.19,0.04-0.25,0.06c-0.2-0.39-0.57-0.55-1-0.56c0.42-0.93,0.85-1.86,1.27-2.74
					C4267.86,1314.87,4270.33,1311.19,4271.01,1313.8z"/><path class="st36" d="M4385.92,1288.82c-1.94,1.02-4.01,2.18-6.02,2.5c-0.49,0.08-1.03,0.1-1.54,0.04
					c1.43-1.43,2.76-3.1,2.98-4.67c0.36-2.55-2.46-3.15-4.85-1.83c-2.13,1.17-3.5,3.55-3.65,5.51c-0.05,0.68,0.06,1.29,0.29,1.82
					c-2.06,1.48-5.6,3.52-7.78,3.12c2.77-1.91,5.25-4.33,7.16-7.07c0.36-0.52,0.38-1.24,0.1-1.61c-1.21-1.58-3.64-1.69-6.02-0.46
					c-2.56,1.32-4.18,3.88-5.17,6.22c-0.34,0.79-0.57,1.56-0.66,2.28c-2.53,1.15-5.18,1.77-7.64,1.73c0-0.02,0-0.03,0-0.05
					c0.8-0.74,1.59-1.5,2.36-2.27c1.16-1.16,0.47-2.34-0.61-2.48c-2.42-0.32-4.22,1.75-4.91,3.85c-3.75,3.33-7.83,6.31-12.12,8.78
					c-1.08,0.62-2.53,1.87-3.24,1.08c1.76-1.3,3.41-2.76,4.92-4.35c2.91-3.07,5.8-8.56,2.35-10.46c-0.61-0.34-1.79-0.29-2.45,0.59
					c-1.52,2.01-3.03,4.02-4.54,6.04c-1.32,1.76-2.69,3.5-3.5,5.42c-0.26,0.61-0.42,1.26-0.49,1.9c-1.55,0.97-3.17,1.8-4.81,2.48
					c-0.13,0.06-0.27,0.11-0.41,0.17c0.89-0.71,1.79-1.43,2.67-2.15c2.5-2.04,4.78-4.43,4.91-7.27c0.12-2.65-1.58-4.51-3.17-6.09
					c-0.43-0.43-1.46-0.22-2.08,0.26c-4.84,3.69-8.8,8.63-10.78,13.84c-0.63,1.66-0.86,3.38-0.15,4.53
					c-4.32,3.29-8.68,6.51-13.1,9.64c-0.47,0.33-1.6,1.37-2.06,1.22c-0.43-0.14-0.25-1.14-0.25-1.6c0-1.21,0.07-2.45,0.21-3.7
					c0.31-2.72,1.01-5.51,2.02-8.29c0.88-2.42,2.01-4.82,3.36-7.16c0.51,0.23,1.2,0.19,1.85-0.34c3.31-2.71,4.97-6.25,4.65-9.57
					c-0.11-1.16-1.98-0.99-2.85,0c-8.22,9.34-13.12,20.92-12.68,30.98c0.1,2.22,1.1,4.09,4.08,2.85c1.36-0.57,2.63-1.6,3.86-2.47
					c1.61-1.15,3.22-2.31,4.82-3.48c3.01-2.2,6.01-4.43,8.97-6.71c1.66,0.05,3.6-0.57,5.31-1.19c2.08-0.76,4.14-1.75,6.12-2.93
					c0.58,1.04,1.63,1.69,3.22,1.53c1.61-0.16,3.86-1.8,5.37-2.71c1.79-1.08,3.55-2.22,5.27-3.45c1.67-1.19,3.28-2.45,4.85-3.77
					c0.36,0.5,0.99,0.65,2.07,0.68c1.45,0.04,3-0.14,4.53-0.49c1.65-0.38,3.29-0.97,4.89-1.72c0.22,0.21,0.48,0.4,0.8,0.55
					c1.81,0.87,4.31,0.47,6.62-0.41c2.16-0.82,4.29-2.02,6.22-3.5c0.55,0.25,1.17,0.41,1.82,0.49c3.1,0.34,6.49-1.31,9.65-2.97
					C4388.81,1290.53,4388.1,1287.67,4385.92,1288.82z M4321.36,1303.78c1.64-3.18,4-6.09,6.87-8.53c1.22,1.36,2.33,3.21,0.67,5.37
					c-0.93,1.2-2.38,2.2-3.56,3.14c-1.36,1.08-2.72,2.16-4.09,3.23c-0.36,0.28-0.72,0.55-1.08,0.83
					C4319.7,1306.88,4320.84,1304.78,4321.36,1303.78z M4339.9,1295.08c-0.38,1.69-2.42,3.97-3.55,5.08
					c-0.22,0.21-0.44,0.42-0.67,0.63C4336.92,1298.85,4338.43,1296.95,4339.9,1295.08z M4368.74,1288.54
					c-1.22,1.5-2.65,2.83-4.21,3.95C4365.39,1290.59,4367.4,1288.43,4368.74,1288.54z M4376.66,1288.45
					c0.2-0.33,1.14-1.38,0.99-0.66c-0.08,0.38-0.79,1.12-1.34,1.66C4376.34,1289.11,4376.47,1288.76,4376.66,1288.45z"/></g><path class="st17" d="M4818.92,476.24c0-0.8-0.51-1.5-1.26-1.78c-13.18-4.93-22.75-19.58-22.75-36.89
				c0-21.36,14.55-38.67,32.49-38.67h-195.74c-17.94,0-32.49,17.31-32.49,38.67c0,21.36,14.55,38.67,32.49,38.67H4818.92
				L4818.92,476.24z"/><path class="st17" d="M4731.8,330.24c-26.51,0-48,21.49-48,48c0,26.51,21.49,48,48,48s48-21.49,48-48
				C4779.8,351.73,4758.31,330.24,4731.8,330.24z M4731.8,398.24c-11.05,0-20-8.95-20-20c0-11.05,8.95-20,20-20s20,8.95,20,20
				C4751.8,389.28,4742.85,398.24,4731.8,398.24z"/></g><g><path class="st37" d="M4857.52,1472.06c-0.33,3.54-2.29,5.81-5.4,7.17c-0.01,0.01-0.03,0.02-0.05,0.02
				c-5.75,2.52-15.4,1.95-25.82,0.54c-1.33-0.18-2.54-0.32-3.61-0.42c-0.28-0.03-0.57-0.05-0.84-0.07
				c-0.22-0.02-0.44-0.03-0.65-0.05c-10.38-0.68-9.57,2.51-29.4,2.42c-22.61-0.12-30.25-7.73-31.29-10.98
				c-0.87-2.75,9.03-4.89,20.1-7.35c0.53-0.12,1.07-0.24,1.61-0.36c1.47-0.33,2.96-0.67,4.43-1c13.19-3.09,26.26-7,30.58-19.68
				c4.58-13.44,3.5-53.34,3.5-53.34h40.04c0,0-10.51,44.07-9.41,56.77c0.6,6.78,3.84,8.71,5.09,14.59c0.09,0.41,0.17,0.82,0.25,1.24
				C4857.25,1465,4857.85,1468.52,4857.52,1472.06z"/><g><path class="st12" d="M4904.11,1040.89c-3.38,18.97-8.2,38.57-12.39,58.96c-6.73,32.78-11.8,67.61-6.61,105.11
					c0.67,4.83,1.03,10.15,1.11,15.88c1.01,66.28-28.61,186.4-28.61,186.4s-8.04,3.47-21.52,2.8c-6.94-0.34-17.59-4.82-17.59-4.82
					s-2.8-74.47-2.97-174.63c-0.12-72.6-14.38-168.19-17.25-224.36c-1.74-33.99,2.04-79.28,2.04-79.28s59.03-47.47,80.24-23.18
					C4901.5,927.78,4916.75,969.92,4904.11,1040.89z"/></g><path class="st8" d="M4885.12,1204.96c0.67,4.83,1.03,10.15,1.11,15.88c-44.21-64.05-53.99-203.74-53.99-203.74l48.56,23.57
				c0,0,5.33,26.19,10.93,59.18C4885,1132.63,4879.92,1167.46,4885.12,1204.96z"/><path class="st37" d="M4985.27,1471.77c-0.33,3.52-2.29,5.79-5.4,7.15c-0.01,0.01-0.03,0.02-0.05,0.01
				c-5.75,2.51-15.4,1.94-25.82,0.53c-1.33-0.18-2.54-0.32-3.61-0.42c-0.28-0.03-0.57-0.05-0.84-0.07
				c-0.22-0.02-0.44-0.03-0.65-0.05c-10.38-0.68-9.57,2.5-29.4,2.4c-22.61-0.13-30.25-7.72-31.29-10.95
				c-0.87-2.75,9.03-4.87,20.09-7.32c0.53-0.12,1.07-0.24,1.61-0.36c1.47-0.32,2.96-0.67,4.43-1c13.19-3.08,26.26-6.97,30.57-19.6
				c4.58-13.4-1.98-52.54-1.98-52.54l37.09-3.08c0,0-2.29,44.6-1.18,57.26c0.6,6.76,4.04,10.48,5.3,16.33
				c0.09,0.41,0.17,0.82,0.25,1.23C4985,1464.73,4985.6,1468.24,4985.27,1471.77z"/><path class="st12" d="M4980.01,1410.63c0,0-9.54,4.51-16.4,5.88s-21.13-1.31-21.13-1.31c-2.57-28.84-8.55-73.94-20.16-124.83
				c-13.23-57.94-32.91-126.41-60.35-191.24c-5.86-13.85-30.03-79.39-34.13-95.93c-12.4-49.98,0.05-44.59,0.05-44.59l108.39-12.72
				c0,0,13.35,6.86,19.51,77.44c1.84,21.13,2.07,112.39,4.84,129.69c2.63,16.38,5.7,30,9.31,38.86
				C4990.08,1241.29,4980.01,1410.63,4980.01,1410.63z"/><path class="st7" d="M4985.24,1471.91c-0.33,3.6-2.3,5.91-5.42,7.29c-0.01,0.01-0.03,0.02-0.04,0.02
				c-6.1,2.2-15.63,1.73-25.88,0.49c-1.34-0.16-2.55-0.28-3.65-0.36c-0.28-0.03-0.57-0.05-0.84-0.07c-0.22-0.03-0.44-0.04-0.65-0.05
				c-8.33-0.56-9.47,1.41-19.81,2.17h-16.39c-17.51-1.42-23.74-7.93-24.68-10.87c-0.87-2.79,9.06-4.96,20.16-7.46
				c2.92,1.46,16.89,7.87,34.25,6.15c15.27-1.48,30.86-7.69,41.81-9.23c0.09,0.42,0.17,0.84,0.25,1.26
				C4984.97,1464.73,4985.57,1468.31,4985.24,1471.91z"/><path class="st7" d="M4857.49,1472.14c-0.34,3.67-2.31,6.04-5.43,7.46c-0.01,0.01-0.03,0.01-0.05,0.01
				c-6.09,2.27-15.59,1.81-25.82,0.58c-1.33-0.16-2.54-0.28-3.64-0.36c-0.29-0.03-0.57-0.05-0.84-0.07
				c-0.21-0.02-0.44-0.02-0.64-0.05c-6.51-0.42-8.62,0.72-14.19,1.62h-27.63c-13.16-2.22-18.09-7.67-18.9-10.33
				c-0.86-2.85,9.05-5.09,20.13-7.68c2.91,1.49,16.84,7.98,34.17,6.19c15.24-1.55,30.81-7.93,41.75-9.54
				c0.08,0.43,0.17,0.86,0.24,1.28C4857.23,1464.82,4857.82,1468.47,4857.49,1472.14z"/><path class="st37" d="M5033.65,946.32l6.91,11.19c3.59,4.12,4.55,6.42,7.39,7.82c6.86,3.38,19.53,12.04,20.48,30.24
				c0,0-0.22,10.3-7.12,6.96c-6.9-3.34-3.89-3.03-13.7-7.52c-9.81-4.5-13.45-18.8-14.31-23.67l-8.01-10.51L5033.65,946.32z"/><path class="st38" d="M4814.16,621.32c-3.66-29.9,5.68-77.75,65.36-70.1c59.68,7.65,78.49,66.3,66.45,92.37
				c-12.04,26.08,17.33,32.37,26.54,60.41c7.92,24.09,10.68,54,23.49,67.43c41.31,43.28-39.66,109.84-88.48,95.8
				c-88.92-25.56-100.37-29.38-97.21-99.24c1.62-35.8,29.47-49.66,11.78-60.02C4779.37,682.95,4822.44,688.98,4814.16,621.32z"/><path class="st39" d="M4914.92,902.12c12.18,30.95,16.81,58.42,16.81,58.42l-132.1,1.64c0,0,1.85-106.25-4.24-143.85
				c-6.09-37.6,36.71-120.25,36.71-120.25c0.78,0,5.84-0.93,14.78-1.47c1.53-4.25,2.5-8.58,3.1-12.71c1.3-8.79,0.9-16.7,0.48-21.09
				c-0.23-2.29-0.45-3.62-0.45-3.62l43.16-13.14l1.25-0.38c0.53,11.74,1.19,20.92,1.9,28.11c2.06,20.96,4.52,24.91,5.29,25.65
				c11.14,1.64,23.49,4.05,36.98,7.5C4938.59,706.94,4902.74,871.17,4914.92,902.12z"/><path class="st17" d="M5000.67,869.94c-6.62-45.65-31.14-139.4-47.62-154.73c-14.57-13.56-45.99-14.8-45.99-14.8c0,0,0,0,0,0l0,0
				c-6.53,10.22-28.87,35.62-56.59,31.05c-14.96-2.47-18-29.37-18.33-32.97l0.1-0.4c0,0-0.05,0.01-0.13,0.02c0,0,0-0.02,0-0.02
				c-0.11,0.02-0.21,0.04-0.32,0.07c-4.37,0.65-39.13,6.3-49.44,24.06c-15.23,26.21-31.82,104.86-48.11,103.7
				c-7.48-0.54-82.75-28.83-82.75-28.83s-12.54,11.75-10.14,26.16c0,0,37.16,24.89,68.59,40.77c4.36,2.2,8.6,4.23,12.62,5.99
				c11.33,4.97,20.88,7.86,26.09,6.62c1.5-0.35,3.08-1.03,4.73-1.99c6.81-3.94,14.77-12.59,22.41-22.45
				c5.07-6.56,9.99-13.64,14.34-20.24c0.09-0.14,0.18-0.28,0.27-0.42c1.86,25.01,3.73,52.22,1.8,73.54
				c-1.47,16.22-2.55,51.35,0.24,60.43c5.8,18.92,48.45,23.92,88.25,21.94c18.76-0.93,32.02-2,41.67-4.23
				c14-3.21,20.39-8.84,25-19.95c4.39-10.58-15.92-60.26-17.85-81.99c-1.76-19.71,1.26-35.75,6.23-51.51
				c14.05,32.45,28.35,55.66,30.22,60.69c3.94,10.59,63.93,77.54,63.93,77.54s4.85-0.99,8.7-3.51c3.97-2.59,5.95-6.03,5.95-6.03
				C5033.93,933.32,5000.67,869.94,5000.67,869.94z"/><path class="st40" d="M4947.34,963.26c-4.6,11.11-11,16.74-25,19.95c-18.71-3.6-31.05-38.02-37.4-54.97
				c-7.32-19.52,30.82-119.91,41.34-118.99c7.83,0.68,9.18,13.96,9.44,20.5c-5.06,15.92-8.01,31.6-6.23,51.51
				C4931.42,903.01,4951.73,952.68,4947.34,963.26z"/><path class="st39" d="M4652.01,804.97c0,0-6.42-15.74-13.49-16.38c-7.07-0.64-29.55-4.18-31.15-0.96
				c-1.61,3.21,0,14.77,4.82,18.95c4.82,4.17,34.69,10.92,34.69,10.92L4652.01,804.97z"/><path class="st40" d="M4790.12,831.95c-4.35,6.6-9.27,13.69-14.34,20.24c-7.27,8.95-15.3,17.61-22.41,22.45
				c-1.65,0.96-3.23,1.63-4.73,1.99c-5.21,1.23-14.76-1.65-26.09-6.62c6.74,0.5,13.37,0.26,19.88-0.3
				c11.4-0.97,14.72-13.32,32.74-31.83C4785.95,826.81,4789.22,828.51,4790.12,831.95z"/><path class="st41" d="M4894.4,648.01c0,0-16.75,30.2-44.41,35.9c1.3-8.79,0.9-16.7,0.48-21.09c-0.23-2.29-0.45-3.62-0.45-3.62
				l43.16-13.14L4894.4,648.01z"/><path class="st39" d="M4838.42,662.23c0,0,53.16,10.67,59.29-22.53c6.14-33.21,17.13-54.19-16.55-62.41
				c-33.68-8.22-42.63,3.23-47.38,13.81C4829.05,601.68,4824.75,658.59,4838.42,662.23z"/><path class="st38" d="M4908.01,579.49c-9-10.12-22.24-25.15-22.24-25.15s-26.43-8.84-52.65,17c-11.3,11.13-9.59,33.02-3.54,45.72
				c0,0,9.29-27.21,26.21-33.15c3.77-1.32,7.34-3.52,10.62-6.14c2.06,5.17,6.21,12.49,14.54,21.6
				c17.48,19.11,14.08,57.76,14.08,57.76S4923.73,597.17,4908.01,579.49z"/><path class="st5" d="M4854.98,645.89c0,0-1.42,3.94-11.43,2.15c0,0-8.4-1.5-7.63-5.92
				C4835.93,642.12,4844.5,639.9,4854.98,645.89z"/></g><g><path class="st42" d="M4338.75,1462.13l19.4-0.26c0,0-29.17-32.38-38.13-48.86l-24.63-45.49l-32.25,7.97l40.93,58
				L4338.75,1462.13z"/><path class="st43" d="M4156.74,576.83c-7.44-4.23-16.35-4.69-22.58-4.32c1.61-1.66,4.76-2.26,4.76-2.26
				c-3.87-0.57-12.49,3.26-12.49,3.26c-53.78-20.72-62.23,58.46-61.1,76.86c1.12,18.39-18.07,24.4-46.05,38.89
				c-53.38,27.66-58.07,64.69-58.07,64.69c0.42,0.24,0.85,0.52,1.31,0.84c2.65-4.49,8.1-12.91,12.7-14.18
				c-0.17,0.41-5.43,11.6-7.4,18.01c15.75,11.98,45.21,38.52,65.74,57.34c-0.09-3.68,0.06-8.9,1.4-11.66l2.54,15.28
				c10.99,10.1,18.56,17.21,18.56,17.21c-1.36-14.87,67.23-93.31,103.02-116.81c8.71-12.82,11.81-35.48,12.04-37.26
				c-1.5,17.96-4.58,28.04-7.32,33.71C4194.1,688.54,4176.46,588.03,4156.74,576.83z"/><path class="st42" d="M4156.96,721.15c0.18,0.08-17.28,9.15-30.41,5.55c-12.35-3.37-20.42-19.38-20.25-19.42
				c5.23-1.04,6.74-8.23,6.63-39.12l2.36,0.47l39.76,7.87c0,0-0.9,12.51-0.93,24.3C4154.09,710.7,4154.69,720.09,4156.96,721.15z"/><path class="st17" d="M4112,589.8c0,0,19.61-20.88,44.24-1.07C4156.24,588.73,4141.9,586.25,4112,589.8z"/><path class="st44" d="M4155.05,676.51c0,0-0.9,12.51-0.93,24.3c-22.25-0.63-34.01-20.92-38.83-32.17L4155.05,676.51z"/><path class="st43" d="M4111.19,664.3c0,0-11.66-18.42-14.46-34.18c-2-11.25,3.73-52.94,45.62-46.93c0,0,12.17,1.2,23.6,8.92
				c9.1,6.14,22.22,19.41,7.55,55.78l-3.81,12.29L4111.19,664.3z"/><path class="st12" d="M4313.53,1397.11l-21.08,0.65l-22.81,0.7c0,0-52.69-58.67-82.25-152.72c-0.69-2.18-1.42-4.4-2.19-6.64
				c-16.18-47.17-49.71-106.37-67.38-159.96c-2.81-8.54-5.34-16.57-7.6-24.17c-0.73-2.44-1.43-4.83-2.1-7.18
				c-13.02-45.25-16.79-74.96-20.27-106.71l112.85,0.9C4200.68,941.97,4236.05,1158.85,4313.53,1397.11z"/><path class="st5" d="M4197.58,868.76c1.5,60.71,8.91,86.78,8.91,86.78s-54.64,27.76-119.58,7.33
				c-0.76-0.24,4.21-250.86,22.63-257.77c4.24,5.27,16.86,10.4,28.09,10.15c12.94-0.29,17.13-5.82,16.46-11.87
				C4167.88,711.05,4195.44,781.84,4197.58,868.76z"/><path class="st42" d="M4162.48,687.67c0,0-52.64,0.87-52.68-31.92c-0.04-32.79-6.85-54.76,26.75-56.7
				c33.61-1.94,40.15,10.56,42.83,21.51C4182.06,631.49,4176.17,686.6,4162.48,687.67z"/><path class="st43" d="M4177.82,602.31c-8.12-9.85-14.27-7.71-17.71-4.75c-11.38-17-47.33,7.58-47.33,7.58
				c-17.69,16.85-20.49,37.01-20.49,37.01s9.59,5.93,31.71,0.24c17.41-4.48,30.04-29.25,34.63-39.61
				c3.13,2.78,9.74,9.21,11.72,15.51c2.62,8.35,3.8,25.54,8.81,24.96C4179.17,643.25,4190.02,617.11,4177.82,602.31z"/><path class="st42" d="M4374.31,742.09c0,0,7.42-26.75,36.82-22.97c3.37,1.06,13.23,4.99,6.93,15.54
				c-4.65,7.78-6.66,3.77-13.97,14.22c-7.31,10.46-15.24,12.82-24.3,11.57L4374.31,742.09z"/><path class="st42" d="M4123.04,1460.26c-1.79-9.85-5.2-26.89-5.2-26.89l0.79-60.46h-36.72l13.74,57.87
				c0.28,2.69,1.03,13.11-2.82,24.16c0,0-3.53,16.07,12.3,16.37C4120.95,1471.6,4124.83,1470.11,4123.04,1460.26z"/><path class="st7" d="M4092.83,1454.94c0,0-3.14,16.96-1.34,25.02c0,0,4.64,0,16.13,0c10.9,0,17.11,0,17.11,0
				s0.14-18.41-2.77-25.43C4121.96,1454.53,4110.75,1471.36,4092.83,1454.94z"/><path class="st7" d="M4358.47,1462.04c-0.11-0.04-0.22-0.1-0.32-0.17c-7.77,0.24-15.58-2.61-22.67-10.58
				c-21.55-24.28-33.67-26.99-37.89-26.98c-3.64,7.5-7.65,15.92-2.49,25.42l7.72,30.24h8.32l0.08-28.55
				c5.48,1.44,10.83,4.07,13.21,8.83c5.82,11.64,9.86,19.71,15.27,19.71c3.05,0,37.4,0,37.4,0S4376.39,1470.1,4358.47,1462.04z"/><path class="st8" d="M4374.31,742.09c0,0-34.55,19.32-46.9,24.89c-7.04,3.18-23.23,10.76-34.64,16.12
				c-7.26,3.41-15.89,1.54-21.1-4.55c-18.73-21.88-67.27-69.34-117.36-75.16l0.06,0.12l-0.29-0.12c0,0,30.46,75.24,31.35,90.47
				c0.9,15.23,3.58,249.01,3.58,249.01s-1.79,10.75,18.81,6.27c20.6-4.48,25.98-8.96,25.98-8.96s-19.71-144.21-14.33-194.37
				c1.06-9.89,0.1-21-2.13-32.48c30.51,18.56,66.62,26.81,66.62,26.81s26.99-11.77,63.89-38.81c11.58-8.49,31.93-40.86,31.93-40.86
				L4374.31,742.09z"/><path class="st8" d="M4292.45,1397.76l-22.81,0.7c0,0-52.69-58.67-82.25-152.72c-0.69-2.18-1.42-4.4-2.19-6.64
				c-16.18-47.17-49.71-106.37-67.38-159.96c-2.81-8.54-5.34-16.57-7.6-24.17c-0.73-2.44-1.43-4.83-2.1-7.18l18.79-14.26
				c0,0,56.42,91.36,73.89,177.34C4215.96,1285.54,4276.72,1375.41,4292.45,1397.76z"/><path class="st45" d="M4232.55,831.84l-1.11,3.41l-59.06-19.2c0,0-0.78-0.91-0.37-2.1c0.45-1.32,1.48-1.3,1.48-1.3
				L4232.55,831.84z"/><path class="st12" d="M4128.86,1218.86c0.32,41.81-1.79,137.94-7.24,177.74h-20.21c-11.17,0-16.74-0.16-16.74-0.16
				c-13.66-69.19-23.38-126.45-30.45-175.78c-5.8-40.49-10.96-75.2-14.93-105.08c-4-30.07-6.77-55.25-7.77-76.52
				c-0.15-3.35-0.27-6.61-0.33-9.77c-0.06-3.18-0.08-6.27-0.05-9.27l110.26-10.75C4140.01,1082.53,4128.68,1194.56,4128.86,1218.86z
				"/><path class="st8" d="M4101.41,1396.6c-11.17,0-16.74-0.16-16.74-0.16c-13.66-69.19-23.38-126.45-30.45-175.78
				c-5.8-40.49-10.96-75.2-14.93-105.08c-4-30.07-6.77-55.25-7.77-76.52l40.46,23.8c0,0-25.82,9.11-15.97,78.08
				C4065.86,1209.91,4087.7,1386.84,4101.41,1396.6z"/><path class="st8" d="M4106.62,1038.38c0,0-7.77,28.06-34.64,24.48c-26.87-3.58-65.08-19.71-65.08-19.71s11.48-36.28,25.76-83.95
				c17.29-57.71,38.69-132.11,48.77-179.03c2.83-13.15,4.77-24.13,5.48-32l22.62-43.07c0,0,32.91,74.42,34.7,93.23
				C4146.03,817.14,4106.62,1038.38,4106.62,1038.38z"/><path class="st7" d="M4105.43,837.74c-1.2,30.45-8.37,89.57-72.26,121.22c-0.17,0.08-0.34,0.17-0.51,0.24
				c17.29-57.71,38.69-132.11,48.77-179.03C4093.17,797.7,4106.08,820.97,4105.43,837.74z"/><path class="st42" d="M4221.04,821.08c-0.03,3.65-10.56,29.1-29.12,44.3c-3.59,2.94-6.47,4.37-8.76,4.77
				c-30.21,10.34-56.42,15.71-77.71,18.32v-33.7c26.29-1.68,58.68-3.44,72.01-4.16c2.19-3.49,4.77-8.44,5.63-13.44
				c1.59-9.27,6.56-16.14,19.49-17.85C4215.52,817.62,4221.08,817.44,4221.04,821.08z"/><g><path class="st45" d="M4399.63,710.48l59.73,38.84c0.75,0.49,1.3,2.2,1.04,3.06l-28.74,97.26c-0.4,1.36-1.79,1.59-2.92,0.74
					l-57.94-43.39c-0.67-0.51-1.17-1.06-0.94-1.87l26.39-93.1C4396.62,710.7,4398.48,709.73,4399.63,710.48z"/><path class="st46" d="M4397.53,709.08l60.25,39.22c0.75,0.49,1.1,1.42,0.84,2.28l-28.74,97.26c-0.4,1.36-2.04,1.9-3.17,1.05
					l-57.9-43.39c-0.67-0.51-0.97-1.37-0.74-2.19l26.39-93.1C4394.83,708.91,4396.38,708.33,4397.53,709.08z"/><polygon class="st5" points="4397.17,713.35 4455.61,750.63 4429.08,836.25 4373.99,796.39 				"/><path class="st45" d="M4392.65,817.89c0-1.32,1.07-2.39,2.39-2.39c1.32,0,2.39,1.07,2.39,2.39c0,1.32-1.07,2.39-2.39,2.39
					C4393.72,820.28,4392.65,819.21,4392.65,817.89z"/><g><polygon class="st5" points="4416.96,822.92 4388.77,803.22 4408.21,724.53 4436.4,744.23 					"/><g><g class="st47"><g><path class="st20" d="M4422.58,777.11l-18.67-13.05c-0.23-0.16-0.32-0.69-0.21-1.17l0.08-0.33c0.12-0.48,0.4-0.74,0.64-0.58
									l18.67,13.05c0.23,0.16,0.32,0.69,0.2,1.17l-0.08,0.33C4423.1,777.01,4422.82,777.27,4422.58,777.11z"/><path class="st20" d="M4426,763.27l-18.67-13.05c-0.23-0.16-0.32-0.69-0.21-1.17l0.08-0.33c0.12-0.48,0.4-0.74,0.64-0.58
									l18.67,13.05c0.23,0.16,0.32,0.69,0.21,1.17l-0.08,0.33C4426.52,763.17,4426.23,763.43,4426,763.27z"/><path class="st20" d="M4424.81,768.08l-18.67-13.05c-0.23-0.16-0.32-0.69-0.21-1.17l0.08-0.33c0.12-0.48,0.4-0.74,0.64-0.58
									l18.67,13.05c0.23,0.16,0.32,0.69,0.2,1.17l-0.08,0.33C4425.33,767.98,4425.05,768.24,4424.81,768.08z"/><path class="st20" d="M4423.7,772.59l-18.67-13.05c-0.23-0.16-0.32-0.69-0.21-1.17l0.08-0.33c0.12-0.48,0.41-0.74,0.64-0.58
									l18.67,13.05c0.23,0.16,0.32,0.69,0.21,1.17l-0.08,0.33C4424.22,772.49,4423.93,772.75,4423.7,772.59z"/><path class="st20" d="M4420.31,786.31l-18.67-13.05c-0.23-0.16-0.32-0.69-0.21-1.17l0.08-0.33
									c0.12-0.48,0.41-0.74,0.64-0.58l18.67,13.05c0.23,0.16,0.32,0.69,0.21,1.17l-0.08,0.33
									C4420.83,786.21,4420.54,786.47,4420.31,786.31z"/><path class="st20" d="M4421.43,781.79l-18.67-13.05c-0.23-0.16-0.32-0.69-0.21-1.17l0.08-0.33
									c0.12-0.48,0.41-0.74,0.64-0.58l18.67,13.05c0.23,0.16,0.32,0.69,0.21,1.17l-0.08,0.33
									C4421.95,781.69,4421.66,781.96,4421.43,781.79z"/></g><path class="st20" d="M4416.73,800.44l-4.54-3.17c-0.27-0.19-0.38-0.82-0.24-1.39l0,0c0.14-0.57,0.48-0.88,0.76-0.69
								l4.54,3.17c0.27,0.19,0.38,0.82,0.24,1.39l0,0C4417.34,800.33,4417,800.64,4416.73,800.44z"/><path class="st20" d="M4402.83,790.73l-4.54-3.17c-0.27-0.19-0.38-0.82-0.24-1.39l0,0c0.14-0.57,0.48-0.88,0.76-0.69
								l4.54,3.17c0.27,0.19,0.38,0.82,0.24,1.39l0,0C4403.45,790.62,4403.11,790.93,4402.83,790.73z"/></g><g><path class="st35" d="M4415.58,812.64c-0.08,0-0.17-0.03-0.24-0.08l-6.61-4.62c-0.36-0.25-0.51-1.07-0.33-1.81l0.98-3.97
								c0.15-0.59,0.46-0.98,0.79-0.98c0.08,0,0.17,0.03,0.24,0.08l6.61,4.62c0.36,0.25,0.51,1.07,0.33,1.81l-0.98,3.97
								C4416.22,812.24,4415.9,812.64,4415.58,812.64z M4410.16,801.25c-0.28,0-0.57,0.38-0.71,0.92l-0.98,3.97
								c-0.17,0.7-0.04,1.49,0.29,1.73l6.61,4.62c0.06,0.04,0.13,0.06,0.19,0.06c0.28,0,0.57-0.38,0.71-0.92l0.98-3.97
								c0.17-0.7,0.04-1.49-0.29-1.73l-6.61-4.62C4410.3,801.27,4410.23,801.25,4410.16,801.25z"/></g><g><path class="st35" d="M4401.66,802.91c-0.08,0-0.17-0.03-0.24-0.08l-6.61-4.62c-0.36-0.25-0.51-1.07-0.33-1.81l0.98-3.97
								c0.15-0.59,0.46-0.98,0.79-0.98c0.08,0,0.17,0.03,0.24,0.08l6.61,4.62c0.36,0.25,0.51,1.07,0.33,1.81l-0.98,3.97
								C4402.3,802.51,4401.99,802.91,4401.66,802.91z M4396.25,791.52c-0.28,0-0.57,0.38-0.71,0.92l-0.98,3.97
								c-0.17,0.7-0.04,1.49,0.29,1.72l6.61,4.62c0.06,0.04,0.13,0.06,0.2,0.06c0.28,0,0.57-0.38,0.71-0.92l0.98-3.97
								c0.17-0.7,0.04-1.49-0.29-1.73l-6.61-4.62C4396.38,791.54,4396.31,791.52,4396.25,791.52z"/></g><g><path class="st35" d="M4410.27,735.4c0.35-1.42,1.16-2.23,1.9-1.71c0.45,0.32,0.62,0.85,0.73,1.47l-0.5,0.54
								c-0.1-0.48-0.21-0.8-0.48-0.99c-0.41-0.28-0.87,0.21-1.09,1.08c-0.21,0.86-0.1,1.77,0.31,2.06c0.28,0.19,0.5,0.08,0.78-0.14
								l0.15,0.99c-0.38,0.38-0.73,0.49-1.2,0.16C4410.16,738.35,4409.91,736.85,4410.27,735.4z"/><path class="st35" d="M4412.74,737.12c0.35-1.42,1.18-2.21,1.92-1.69c0.74,0.52,0.99,2.04,0.64,3.48
								c-0.35,1.42-1.18,2.21-1.92,1.69C4412.64,740.08,4412.39,738.56,4412.74,737.12z M4414.75,738.53
								c0.21-0.86,0.09-1.78-0.34-2.08c-0.43-0.3-0.9,0.19-1.11,1.07c-0.21,0.86-0.09,1.78,0.34,2.08
								C4414.06,739.89,4414.53,739.4,4414.75,738.53z"/><path class="st35" d="M4416.39,736.74l0.49,0.34l0.37,3.87l0.76-3.08l0.52,0.37l-1.24,5l-0.45-0.32l-0.38-4l-0.79,3.18
								l-0.52-0.37L4416.39,736.74z"/><path class="st35" d="M4419.42,740.05l-0.73-0.51l0.25-1.02l2,1.4l-0.25,1.02l-0.73-0.51l-0.99,3.99l-0.53-0.37
								L4419.42,740.05z"/><path class="st35" d="M4421.34,740.2l1.1,0.77c0.31,0.21,0.5,0.56,0.58,1c0.07,0.37,0.04,0.82-0.08,1.3
								c-0.2,0.81-0.53,1.17-0.9,1.19l0.15,2.2l-0.62-0.43l-0.13-1.97l-0.41-0.29l-0.4,1.6l-0.53-0.37L4421.34,740.2z
								 M4421.81,743.38c0.26,0.18,0.48,0,0.58-0.44c0.12-0.47,0.02-0.83-0.24-1.01l-0.53-0.37l-0.35,1.44L4421.81,743.38z"/><path class="st35" d="M4424.67,742.48l0.49,0.34l-0.21,5.76l-0.55-0.39l0.06-1.28l-1.02-0.71l-0.5,0.97l-0.54-0.38
								L4424.67,742.48z M4424.5,745.82l0.08-1.85l-0.72,1.4L4424.5,745.82z"/><path class="st35" d="M4425.67,746.16c0.35-1.42,1.16-2.23,1.9-1.71c0.45,0.32,0.62,0.85,0.73,1.47l-0.5,0.54
								c-0.1-0.48-0.21-0.8-0.48-0.99c-0.41-0.28-0.87,0.21-1.09,1.08c-0.21,0.86-0.1,1.77,0.31,2.06c0.28,0.19,0.5,0.08,0.78-0.14
								l0.15,0.99c-0.38,0.38-0.73,0.48-1.2,0.16C4425.56,749.12,4425.31,747.61,4425.67,746.16z"/><path class="st35" d="M4429.25,746.92l-0.73-0.51l0.25-1.02l2,1.4l-0.25,1.02l-0.73-0.51l-0.99,3.99l-0.53-0.37
								L4429.25,746.92z"/></g><path class="st36" d="M4417.74,805.74c-1.08,0.26-2.16,0.6-3.24,1.05c0.06-0.23,0.12-0.46,0.17-0.69
							c0.04-0.19-0.07-0.41-0.16-0.23c-0.04,0.08-0.08,0.15-0.13,0.21c0.04-0.17-0.05-0.33-0.14-0.26c-0.01,0-0.01,0.01-0.02,0.02
							c0.06-0.22-0.1-0.37-0.19-0.18l-0.12,0.29c-0.1,0.16-0.22,0.25-0.34,0.25c-0.01-0.13-0.02-0.27-0.01-0.42
							c0-0.11-0.02-0.19-0.06-0.22c0.01-0.13-0.03-0.24-0.11-0.21c-0.1,0.03-0.18,0.11-0.26,0.23c-0.03-0.25-0.2-0.21-0.31-0.06
							c0-0.01,0.01-0.02,0.01-0.03c0.06-0.17,0-0.45-0.12-0.32c-0.21,0.23-0.37,0.59-0.47,0.99c-0.07,0.11-0.15,0.21-0.22,0.3
							c-0.04,0.04-0.22,0.26-0.25,0.21c-0.03-0.05,0-0.24,0.03-0.37c0.01-0.01,0.01-0.03,0.02-0.04c0.16-0.32,0.93-1.82,0.49-2.1
							c-0.05-0.03-0.1,0.01-0.13,0.09c-0.2,0.45-0.37,0.96-0.49,1.5c-0.02,0.1-0.06,0.24-0.08,0.38c-0.02,0.03-0.03,0.06-0.05,0.09
							c-0.21,0.4-0.51,0.98-0.81,1.04c0.04-0.83,0.29-1.67,0.5-2.43c0.09-0.33,0.18-0.65,0.27-0.98c0.02,0,0.04,0,0.07-0.03
							c0.35-0.37,0.54-1.15,0.45-1.83c-0.03-0.2-0.16-0.13-0.21,0.03c-0.29,0.93-0.57,1.87-0.82,2.84
							c-0.23,0.85-0.48,1.75-0.48,2.67c0,0.1,0.04,0.17,0.09,0.17c0.33,0.06,0.66-0.4,0.94-0.89c0.01,0.1,0.03,0.18,0.07,0.24
							c0.14,0.2,0.37-0.03,0.54-0.25c-0.01,0.11-0.01,0.23,0,0.34c0.01,0.12,0.05,0.18,0.12,0.17c0.15-0.03,0.29-0.14,0.42-0.32
							c0.15,0,0.3-0.19,0.43-0.43c0.08-0.09,0.15-0.19,0.22-0.3c0.01,0.09,0.02,0.18,0.03,0.25c0.04,0.18,0.19,0.15,0.28,0.12
							c0.09-0.03,0.18-0.09,0.26-0.19c0.05,0.03,0.11,0.03,0.17,0.01c0.01,0.04,0.02,0.08,0.03,0.12c0.05,0.12,0.11,0.13,0.18,0.09
							c-0.02,0.08-0.04,0.17-0.07,0.25c-0.16,0.07-0.31,0.14-0.47,0.21c-0.1,0.05-0.15,0.37-0.05,0.42c0.13,0.07,0.27,0.14,0.4,0.21
							c0.06,0.03,0.12-0.02,0.15-0.14c0.03-0.11,0.06-0.21,0.1-0.32c1.13-0.47,2.26-0.84,3.39-1.11
							C4417.9,806.14,4417.89,805.71,4417.74,805.74z M4412.86,806.03c-0.01,0.06-0.03,0.11-0.05,0.17
							c-0.01,0.04-0.03,0.07-0.04,0.11C4412.79,806.21,4412.82,806.11,4412.86,806.03z M4412.52,806.4
							c-0.02,0.12-0.04,0.24-0.03,0.35c-0.04,0.03-0.07,0.06-0.11,0.08c0-0.14,0.02-0.28,0.05-0.42c0.06-0.09,0.11-0.19,0.16-0.29
							C4412.56,806.21,4412.54,806.3,4412.52,806.4z"/><g><path class="st36" d="M4399.48,791.48c-0.48,1.28-0.8,2.7-1.22,4.04c-0.2,0.65-0.43,1.29-0.7,1.85
								c-0.19,0.39-0.6,1.24-0.86,0.81c-0.06-0.11-0.07-0.26-0.03-0.43c0.01-0.04,0.02-0.08,0.03-0.11
								c0.03,0.07,0.09,0.09,0.15,0.06c0.1-0.05,0.19-0.21,0.25-0.38c0.06-0.18,0.07-0.4,0-0.54c-0.06-0.13-0.16-0.12-0.24-0.01
								c-0.09,0.12-0.14,0.32-0.19,0.49c-0.06,0.21-0.15,0.43-0.16,0.67c-0.02,0.36,0.14,0.6,0.3,0.63c0.2,0.04,0.41-0.23,0.57-0.5
								c0.19-0.31,0.36-0.67,0.52-1.05c0.32-0.77,0.56-1.62,0.8-2.47c0.27-0.98,0.54-1.99,0.88-2.9
								C4399.64,791.48,4399.54,791.33,4399.48,791.48z M4397,797.06c0,0.12-0.05,0.23-0.1,0.3c-0.02,0.03-0.03,0.05-0.05,0.07
								c-0.01,0.01-0.02,0.02-0.03,0.02c0,0-0.01,0-0.01,0c0-0.04-0.02-0.06-0.03-0.07c0.02-0.07,0.04-0.14,0.07-0.2
								C4396.88,797.07,4396.99,796.81,4397,797.06z"/><path class="st36" d="M4401.48,797.91c-0.08,0.04-0.17,0.08-0.24,0.06c-0.02-0.01-0.04-0.02-0.06-0.04
								c0.06-0.09,0.12-0.2,0.14-0.33c0.03-0.21-0.07-0.34-0.17-0.28c-0.09,0.04-0.16,0.21-0.17,0.38c-0.01,0.06-0.01,0.11,0,0.17
								c-0.09,0.07-0.23,0.16-0.31,0.07c0.12-0.09,0.23-0.24,0.32-0.42c0.02-0.04,0.02-0.1,0.01-0.14c-0.03-0.17-0.12-0.24-0.22-0.2
								c-0.1,0.05-0.18,0.23-0.24,0.4c-0.02,0.06-0.03,0.12-0.04,0.18c-0.1,0.03-0.21,0.02-0.3-0.05c0,0,0,0,0,0
								c0.04-0.04,0.07-0.09,0.1-0.13c0.05-0.07,0.03-0.19-0.01-0.23c-0.09-0.09-0.17,0.04-0.21,0.2c-0.16,0.19-0.34,0.34-0.52,0.44
								c-0.04,0.03-0.11,0.1-0.13,0.01c0.07-0.07,0.15-0.15,0.21-0.25c0.13-0.19,0.28-0.59,0.16-0.84c-0.02-0.04-0.06-0.07-0.1-0.01
								c-0.07,0.13-0.14,0.27-0.21,0.4c-0.06,0.12-0.12,0.23-0.17,0.38c-0.01,0.05-0.02,0.1-0.03,0.15
								c-0.06,0.04-0.13,0.07-0.2,0.09c-0.01,0-0.01,0-0.02,0c0.04-0.04,0.08-0.08,0.12-0.12c0.11-0.11,0.21-0.26,0.23-0.5
								c0.02-0.23-0.03-0.43-0.08-0.61c-0.01-0.05-0.05-0.06-0.08-0.03c-0.21,0.19-0.39,0.52-0.5,0.91
								c-0.04,0.13-0.06,0.27-0.04,0.39c-0.18,0.17-0.37,0.34-0.56,0.49c-0.02,0.02-0.07,0.08-0.09,0.05c-0.01-0.02,0-0.11,0-0.15
								c0.01-0.11,0.02-0.21,0.03-0.31c0.03-0.23,0.08-0.45,0.13-0.66c0.05-0.19,0.11-0.36,0.18-0.53c0.02,0.03,0.04,0.05,0.07,0.02
								c0.14-0.15,0.23-0.41,0.24-0.71c0-0.1-0.07-0.14-0.11-0.07c-0.37,0.59-0.64,1.46-0.69,2.34c-0.01,0.19,0.01,0.38,0.13,0.35
								c0.06-0.01,0.11-0.07,0.16-0.11c0.07-0.06,0.14-0.12,0.21-0.17c0.13-0.11,0.26-0.23,0.38-0.34c0.06,0.05,0.14,0.04,0.21,0.04
								c0.08-0.01,0.17-0.04,0.25-0.09c0.01,0.1,0.05,0.19,0.11,0.22c0.06,0.03,0.16-0.05,0.22-0.09c0.07-0.05,0.15-0.1,0.22-0.16
								c0.07-0.06,0.14-0.13,0.21-0.2c0.01,0.05,0.03,0.08,0.07,0.11c0.05,0.04,0.11,0.07,0.17,0.08c0.06,0.01,0.13,0,0.2-0.02
								c0.01,0.02,0.02,0.05,0.03,0.07c0.06,0.12,0.16,0.15,0.25,0.14c0.09-0.01,0.17-0.06,0.26-0.14c0.02,0.04,0.04,0.07,0.06,0.09
								c0.11,0.11,0.25,0.06,0.38,0C4401.58,798.13,4401.57,797.86,4401.48,797.91z M4398.96,797.51c0.08-0.23,0.19-0.42,0.32-0.56
								c0.04,0.15,0.07,0.34-0.01,0.48c-0.04,0.08-0.1,0.13-0.15,0.18c-0.06,0.06-0.12,0.12-0.18,0.17
								c-0.02,0.01-0.03,0.03-0.05,0.04C4398.87,797.73,4398.93,797.58,4398.96,797.51z M4399.71,797.24
								c-0.03,0.14-0.12,0.28-0.17,0.35c-0.01,0.01-0.02,0.02-0.03,0.04C4399.58,797.49,4399.65,797.36,4399.71,797.24z
								 M4400.84,797.43c-0.06,0.1-0.12,0.18-0.19,0.23C4400.7,797.52,4400.79,797.39,4400.84,797.43z M4401.14,797.63
								c0.01-0.02,0.05-0.09,0.04-0.03c-0.01,0.03-0.04,0.08-0.06,0.11C4401.12,797.68,4401.13,797.65,4401.14,797.63z"/></g></g></g></g><polygon class="st45" points="4236.79,835.13 4232.55,831.84 4231.44,835.25 			"/><path class="st8" d="M4109.54,705.1c0,0-54.87,3.66-68.01,32.92c-13.14,29.26-17.32,126.59-0.6,155.26c0,0,23.02,6.56,63.73-1.06
				c0.5-0.09,1-0.19,1.5-0.29c0,0,12.99-31.8,1.34-38.07c0,0-34.34,1.79-30.75-9.55C4080.35,832.96,4109.54,705.1,4109.54,705.1z"/></g></g><path class="st48" d="M5753.88,1483.63H3239.16c-1.64,0-2.98-1.34-2.98-2.99l0,0c0-1.64,1.34-2.99,2.98-2.99h2514.72
		c1.64,0,2.98,1.35,2.98,2.99l0,0C5756.87,1482.28,5755.52,1483.63,5753.88,1483.63z"/></g></svg>