<?xml version="1.0" encoding="utf-8"?><!--Generator: Adobe Illustrator 25.2.1, SVG Export Plug-In . SVG Version: 6.00 Build 0)--><svg version="1.1" id="_x2014_лой_x5F_1" xmlns="http://www.w3.org/2000/svg" xmlns:xlink="http://www.w3.org/1999/xlink" x="0px" y="0px" viewBox="0 0 2902.19 1449.68" style="enable-background:new 0 0 2902.19 1449.68" xml:space="preserve"><style type="text/css">.st0{fill:#E5F1FA;}
	.st1{fill:#D7E7F4;}
	.st2{fill:#CCD9E5;}
	.st3{fill:#C8DBF4;}
	.st4{fill:#D4E4F8;}
	.st5{fill:#9FC1F4;}
	.st6{fill:#CDE0FB;}
	.st7{fill:#BED7FB;}
	.st8{fill:#DFEBFD;}
	.st9{fill:#3F6993;}
	.st10{fill:#06944B;}
	.st11{fill:#087A54;}
	.st12{fill:#007451;}
	.st13{fill:#233862;}
	.st14{fill:#FFB27D;}
	.st15{fill:#2B478B;}
	.st16{fill:#ED975D;}
	.st17{fill:#FFFFFF;}
	.st18{fill:#EBF3FF;}
	.st19{fill:#163560;}
	.st20{fill:#193660;}
	.st21{fill:#1C468A;}
	.st22{fill:#2C3A64;}
	.st23{fill:#3D5E99;}
	.st24{fill:#2A2B2D;}
	.st25{fill:#FFF806;}
	.st26{fill:#95C0F4;}
	.st27{fill:#739AF0;}
	.st28{fill:#D6E8FC;}
	.st29{fill:#2E3552;}
	.st30{fill:#063663;}
	.st31{fill:#FFAD73;}
	.st32{fill:#00984B;}
	.st33{fill:#004C92;}
	.st34{fill:#F9C9A4;}
	.st35{fill:#012244;}
	.st36{fill:#002352;}
	.st37{fill:#1C3965;}
	.st38{fill:#21488F;}
	.st39{fill:#F58E4E;}
	.st40{fill:#82B479;}
	.st41{fill:#A8D29F;}
	.st42{fill:#699DEE;}
	.st43{fill:#AFCDFB;}
	.st44{fill:#2A3967;}
	.st45{fill:#455B87;}
	.st46{fill:#344670;}
	.st47{fill:#1E3459;}
	.st48{fill:#E9F3FE;}
	.st49{fill:#00964B;}
	.st50{fill:#1F3B68;}
	.st51{fill:#182842;}
	.st52{fill:#C0D8F9;}
	.st53{fill:#D4E3F4;}
	.st54{clip-path:url(#SVGID_2_);}
	.st55{fill:#E49963;}
	.st56{fill:#A8D2A0;}
	.st57{fill:#D68D5D;}
	.st58{fill:#E7F1FD;}
	.st59{fill:#D86713;}
	.st60{fill:#4A75CB;}
	.st61{fill:#C65447;}
	.st62{opacity:0.4;fill:#FFFFFF;}
	.st63{fill:#283250;}</style><g><path class="st0" d="M264.1,1444.63c0,0-501.45-623.91-107.74-1006.34c586.02-569.21,984.85,239.73,1210.59-95.05
		c373.41-553.79,1595.03-411.67,1221.27,276.97c-196.09,361.29,459.98,307.3,192.52,825.13L264.1,1444.63z"/><g><path class="st1" d="M1942.26,668.52l18.1-42.41l0.43-1.01c2.17-5.18,0.14-11.14-4.72-13.87l-33.57-18.87
			c-0.56-0.31-1.07-0.66-1.55-1.04c-3.28-2.73-4.8-7.18-3.56-11.34c6.97-24.63,8.99-50.34,5.87-75.73c-0.11-1.05-0.07-2.1,0.08-3.09
			c0.63-3.78,3.28-7.07,6.95-8.49l30.08-11.31c3.95-1.52,6.62-5.19,7.04-9.22c0.09-1.23,0.04-2.55-0.29-3.85l-11.77-45.59
			c-1.43-5.6-7.01-9.24-12.77-8.24l-42.15,7.15c-4.16,0.69-8.32-1.05-10.73-4.53c-3.54-4.95-7.24-9.76-11.26-14.44
			c-7.54-8.78-15.69-16.67-24.34-23.71l-0.04-0.04c-3.61-2.94-5.03-7.7-3.58-12.11l13.57-41.24l0.66-2.08
			c1.79-5.28-0.82-11.17-6.03-13.38l-43.35-18.52c-5.29-2.22-11.45-0.17-14.26,4.85l-21.01,37.35c-2.33,4.16-7.06,6.36-11.67,5.43
			c-19.59-3.61-39.63-4.23-59.4-1.7c-5.04,0.59-9.81-2.29-11.62-7.07l-13.49-35.62c-2.07-5.42-7.81-8.33-13.34-6.89l-45.79,11.79
			c-5.41,1.41-8.83,6.73-7.89,12.18l8.34,49.56c0.73,4.2-1.02,8.44-4.47,10.96c-4.26,3.08-8.42,6.37-12.47,9.86
			c-7.66,6.58-14.65,13.6-20.98,20.98c-2.85,3.38-7.44,4.74-11.63,3.3l-49.55-16.36c-5.48-1.77-11.33,0.89-13.59,6.13l-18.61,43.49
			c-1.94,4.61-0.48,9.99,3.39,12.99c0.4,0.3,0.84,0.64,1.33,0.87l41.43,23.33c3.86,2.15,6.1,6.34,5.62,10.72
			c-0.03,0.38-0.06,0.77-0.16,1.15c-0.24,1.14-0.48,2.21-0.61,3.4c-2.56,13.43-3.64,27.17-3.28,40.9c0.2,4.58-2.68,8.78-7.05,10.38
			l-37.62,14.27c-5.34,2-8.29,7.77-6.85,13.3l2.6,10.14l9.17,35.37c1.4,5.56,6.86,9.07,12.54,8.15l41.52-7.04
			c4.43-0.79,8.8,1.36,11.06,5.25c5.89,10.2,12.88,20.09,20.89,29.41c5.94,6.91,12.35,13.36,19.03,19.2l-2.86,8.65l-11.66,35.5
			c-1.49,4.38,0.04,9.18,3.59,11.88c0.73,0.6,1.55,1.05,2.45,1.42l43.6,18.74c5.18,2.17,11.14,0.07,13.91-4.76l14.31-25.55
			c2.42-4.31,7.58-6.51,12.35-5.22c19.8,5.37,40.26,7.57,60.59,6.51c4.82-0.26,9.17,2.55,10.74,6.96l17.04,45.03
			c1.94,5.02,7.31,7.83,12.55,6.48l46.27-11.99c5.49-1.41,8.95-6.76,7.97-12.25l-8.69-51.56c-0.79-4.43,1.25-8.85,5.11-11.23
			c8.24-5.07,16.15-10.93,23.77-17.48c4.1-3.52,8.01-7.18,11.74-10.96c2.93-2.95,7.27-4.02,11.24-2.75l47.51,15.66
			C1934,676.49,1939.93,673.84,1942.26,668.52z M1818.75,469.57c21.4,31.38,24.02,66.89,12.25,94.13
			c-41.42,95.42-169.9,86.88-199.02-11.47c-7.14-25.27-4.11-53.44,14.12-80.88C1688.8,407.81,1777.8,409.62,1818.75,469.57z"/></g><g><path class="st2" d="M1352.61,1248.38l41.57-71.28l0.98-1.7c5.01-8.71,2.73-19.74-5.3-25.67l-55.4-40.96
			c-0.92-0.68-1.76-1.41-2.51-2.2c-5.21-5.57-6.93-13.81-3.79-20.92c17.85-42.19,27.14-87.38,27.25-133.16
			c0.03-1.9,0.33-3.74,0.83-5.47c1.97-6.58,7.4-11.82,14.23-13.54l55.92-13.41c7.35-1.82,12.91-7.74,14.56-14.81
			c0.44-2.17,0.63-4.52,0.34-6.91l-10.77-83.57c-1.3-10.27-10.38-17.96-20.84-17.47l-76.43,3.33c-7.53,0.31-14.54-3.72-18.04-10.42
			c-5.18-9.58-10.68-18.94-16.78-28.13c-11.44-17.26-24.16-33.08-37.94-47.5l-0.05-0.08c-5.76-6.03-7.22-14.78-3.66-22.3
			l33.25-70.21l1.63-3.55c4.36-8.98,1.02-20.01-7.74-25.1l-72.85-42.52c-8.9-5.11-20.28-2.84-26.4,5.43l-45.61,61.65
			c-5.06,6.87-13.95,9.72-21.93,7.04c-33.97-10.76-69.42-16.32-105.09-16.21c-9.07-0.08-16.92-6.24-19.06-15.14l-16.04-66.24
			c-2.47-10.08-12.01-16.53-22.15-15.2l-83.92,10.76c-9.92,1.3-17.17,9.98-16.71,19.87l3.79,89.84c0.36,7.61-3.69,14.75-10.37,18.48
			c-8.25,4.53-16.36,9.44-24.34,14.73c-15.06,9.99-29.04,20.9-41.9,32.59c-5.81,5.38-14.27,6.76-21.38,3.28l-84.34-40.05
			c-9.33-4.36-20.31-0.94-25.48,7.87l-42.71,73.09c-4.46,7.76-3.08,17.63,3.14,23.82c0.65,0.62,1.35,1.33,2.16,1.85l68.38,50.63
			c6.38,4.67,9.42,12.62,7.59,20.28c-0.14,0.68-0.27,1.35-0.55,2c-0.68,1.98-1.34,3.82-1.83,5.9c-7.53,23.28-12.5,47.43-14.91,71.88
			c-0.67,8.18-6.7,14.99-14.83,16.87l-69.96,16.97c-9.92,2.36-16.44,11.96-15.12,22.09l2.36,18.59l8.43,64.84
			c1.25,10.19,10.17,17.63,20.46,17.25l75.29-3.28c8.05-0.41,15.32,4.37,18.47,11.78c8.19,19.42,18.41,38.54,30.55,56.85
			c9.01,13.59,18.95,26.46,29.51,38.32l-7,14.72L721,1254.46c-3.62,7.44-1.96,16.3,3.74,21.9c1.16,1.22,2.51,2.2,4.03,3.07
			l73.25,42.95c8.71,5.01,19.77,2.6,25.75-5.35l31.09-42.18c5.25-7.11,14.9-9.88,23.1-6.53c33.96,13.93,69.81,22.39,106.13,25.02
			c8.61,0.62,15.72,6.57,17.52,14.75l20.25,83.73c2.33,9.35,11.23,15.52,20.85,14.3l84.82-11.01c10.05-1.27,17.39-10.01,16.87-19.98
			l-3.97-93.47c-0.41-8.05,4.18-15.43,11.56-18.8c15.76-7.17,31.11-15.82,46.09-25.76c8.06-5.34,15.82-10.96,23.28-16.85
			c5.86-4.59,13.8-5.52,20.57-2.39l80.87,38.37C1336.17,1260.69,1347.28,1257.3,1352.61,1248.38z M1177.53,867.7
			c10.41,20.29,17.72,43.33,21.18,69.05c0.8,5.45,1.03,11.62,0.98,18.1c-0.58,27.93-8.98,61.74-21.33,82.7
			c-94.74,160.21-320.96,116.5-350.8-64.58c-0.45-2.98-0.91-5.96-1.28-9c-3.64-28.29,5.32-71.85,19.55-96.52
			c7.48-12.93,15.83-24.56,24.76-34.94C960.51,729.18,1118.13,752.16,1177.53,867.7z"/></g><g><g><path class="st3" d="M2562.96,1272.78c0,0-26.46-30.87-1.63-50.47c0,0,18.13-10.98,32.92-10.09c0,0-20.95,35.13-14.17,38.63
				c6.78,3.49,20.52-40.83,20.52-40.83s41.26-4,54.54,2.38c0,0-35.28,28.87-27.85,30.59c7.43,1.72,45.53-26.62,45.53-26.62
				s38.41,6.54,36.36,29.96s-15.28,30.66-21.1,30.04s-39.84-13.61-40.58-8.84s19.74,20.34,34.08,21.07c0,0-27.08,29.86-45.07,21.24
				c-18-8.62-19.53-22.28-30.75-27.4c-11.22-5.12-20.79-5.11-16.16,0.11c4.63,5.23,24.93,10.3,31.35,21.65
				c6.42,11.35,12.17,19-6.45,16.2c-18.62-2.8-48.88-16.43-50.21-32.03C2562.96,1272.78,2562.96,1272.78,2562.96,1272.78z"/><g><path class="st3" d="M2690.31,1246.97c0,0-104.31-4.02-127.35,25.81c0,0-5.09,15.26-20.77,29.15l-2.44,6.66
					c0,0,18.08-19.06,24.54-20.21C2564.29,1288.38,2554.17,1251.42,2690.31,1246.97z"/><path class="st3" d="M2542.19,1301.93c0,0-22.39,16.56-23.95,46.14l4.06,0.36c0,0,7.15-30.59,20.08-42.55
					C2555.31,1293.92,2542.19,1301.93,2542.19,1301.93z"/></g></g><g><path class="st3" d="M2470.46,1233.96c0,0,42.08-23.57,22.45-55.55c0,0-15.71-19.64-32.55-24.69c0,0,8.98,47.7,0,48.82
				c-8.98,1.12-6.17-53.87-6.17-53.87s-44.33-21.32-61.72-19.64c0,0,27.5,46.57,18.52,45.45c-8.98-1.12-39.84-48.26-39.84-48.26
				s-45.45-8.42-52.75,18.52c-7.29,26.93,4.49,40.4,11.22,42.09c6.73,1.68,49.94,1.12,48.82,6.73c-1.12,5.61-30.3,14.59-46.57,9.54
				c0,0,17.96,44.33,41.52,42.09c23.57-2.25,30.86-16.83,45.45-17.96c14.59-1.12,25.25,2.81,17.96,6.73
				c-7.29,3.93-31.98,1.29-43.77,11.3c-11.78,10.02-21.32,16.19,0.56,20.68c21.88,4.49,61.16,1.68,69.02-15.15
				S2470.46,1233.96,2470.46,1233.96z"/><g><path class="st3" d="M2339.15,1153.16c0,0,117.84,38.16,131.31,80.8c0,0-0.56,19.08,11.22,40.96v8.42
					c0,0-12.35-28.62-19.08-32.55C2462.6,1250.8,2488.97,1213.76,2339.15,1153.16z"/><path class="st3" d="M2481.68,1274.93c0,0,18.17,27.6,7.81,61.19l-4.68-1.25c0,0,4.54-37-4.97-55.61
					C2470.34,1260.64,2481.68,1274.93,2481.68,1274.93z"/></g></g><g><path class="st4" d="M2537.41,1201.46c0,0-55.48-31.07-29.59-73.23c0,0,20.71-25.89,42.9-32.55c0,0-11.83,62.87,0,64.35
				c11.84,1.48,8.14-71.01,8.14-71.01s58.44-28.11,81.37-25.89c0,0-36.24,61.39-24.41,59.91c11.84-1.48,52.52-63.61,52.52-63.61
				s59.92-11.09,69.53,24.41c9.62,35.5-5.92,53.26-14.79,55.48s-65.83,1.48-64.35,8.88c1.48,7.4,39.94,19.23,61.39,12.58
				c0,0-23.67,58.43-54.74,55.48c-31.07-2.96-40.68-22.19-59.91-23.67s-33.29,3.7-23.67,8.88c9.62,5.18,42.16,1.7,57.7,14.9
				c15.53,13.21,28.11,21.34-0.74,27.26c-28.85,5.92-80.62,2.22-90.98-19.97C2537.41,1201.46,2537.41,1201.46,2537.41,1201.46z"/><g><path class="st4" d="M2710.5,1094.95c0,0-155.33,50.3-173.08,106.51c0,0,0.74,25.15-14.79,54v11.1c0,0,16.27-37.72,25.15-42.9
					C2547.77,1223.65,2513,1174.83,2710.5,1094.95z"/><path class="st4" d="M2522.62,1255.46c0,0-23.96,36.38-10.3,80.66l6.16-1.66c0,0-5.98-48.77,6.55-73.3
					C2537.57,1236.63,2522.62,1255.46,2522.62,1255.46z"/></g></g><path class="st4" d="M2535.54,1432.14c60.02,0,108.67-48.65,108.67-108.67h-217.34
			C2426.87,1383.49,2475.53,1432.14,2535.54,1432.14z"/><path class="st4" d="M2645.71,1437.67h-220.34l0,0c0-7.4,6-13.41,13.41-13.41h193.53
			C2639.71,1424.26,2645.71,1430.26,2645.71,1437.67L2645.71,1437.67z"/><rect x="2423.3" y="1323.47" class="st5" width="223.38" height="3.33"/></g><g><path class="st6" d="M2455.01,547.15l20.68,72.28c0.3,1.06,0.41,2.14,0.34,3.19c-0.25,3.8-2.85,7.21-6.72,8.32l-125.53,35.92
			c-3.89,1.11-7.91-0.43-10.12-3.55c-0.6-0.84-1.07-1.79-1.37-2.84l-20.67-72.25c-1.42-4.94,1.44-10.09,6.37-11.5l125.53-35.92
			C2448.44,539.39,2453.58,542.22,2455.01,547.15z"/><g><path class="st7" d="M2476.03,622.62c-0.25,3.8-2.85,7.21-6.72,8.32l-125.53,35.92c-3.89,1.11-7.91-0.43-10.12-3.55l63.93-58.25
				L2476.03,622.62z"/><path class="st8" d="M2455.01,547.15l-56.2,69.78l-86.14-25.02l-1.06-3.7c-1.42-4.94,1.44-10.09,6.37-11.5l125.53-35.92
				C2448.44,539.39,2453.58,542.22,2455.01,547.15z"/></g></g><g><g><path class="st9" d="M1459.61,1439.73h-0.36c-2.11,0-3.8-1.74-3.76-3.84l5.7-246.83l16.78-1.96l-14.3,248.81
				C1463.54,1438.05,1461.77,1439.73,1459.61,1439.73z"/></g><g><path class="st9" d="M1361.86,1439.73h-0.36c-2.11,0-3.8-1.74-3.76-3.84l5.7-246.83l16.78-1.96l-14.31,248.81
				C1365.79,1438.05,1364.01,1439.73,1361.86,1439.73z"/></g><g><path class="st9" d="M1631.61,1439.73h0.36c2.11,0,3.8-1.74,3.76-3.84l-5.7-246.83l-16.78-1.96l14.3,248.81
				C1627.68,1438.05,1629.46,1439.73,1631.61,1439.73z"/></g><path class="st10" d="M1350.74,1173.75V1004.6c0-29.76,24.13-53.89,53.89-53.89h121.86c29.76,0,53.89,24.13,53.89,53.89v175.61
			L1350.74,1173.75z"/><path class="st11" d="M1602.22,1200.45h-235.29c-8.94,0-16.18-7.24-16.18-16.18v-10.52h251.47V1200.45z"/><path class="st12" d="M1630.41,1200.45H1452.4c-6.61,0-11.96-5.36-11.96-11.96v-2.77c0-6.61,5.36-11.96,11.96-11.96h178.01
			c6.61,0,11.96,5.36,11.96,11.96v2.77C1642.38,1195.09,1637.02,1200.45,1630.41,1200.45z"/></g><g><path class="st13" d="M1623.5,1131.6c-17.46,30.38-39.42,42.11-39.42,42.11h-91.35C1492.74,1173.71,1636.82,1108.42,1623.5,1131.6
			z"/><g><path class="st14" d="M1553.34,1366.69c-2.38,2.73-2.68,5.78-1.51,9.03c0,0.01,0.01,0.03,0.02,0.04
				c2.18,6.02,9.38,12.74,17.74,19.46c1.07,0.86,2.02,1.65,2.85,2.37c0.22,0.19,0.44,0.38,0.64,0.57c0.17,0.15,0.33,0.3,0.49,0.44
				c7.8,7.19,4.86,8.83,18.87,23.42c15.97,16.62,26.97,16.92,30.1,15.4c2.65-1.29-2.73-10.1-8.69-20.01
				c-0.29-0.48-0.57-0.96-0.87-1.44c-0.79-1.32-1.58-2.65-2.37-3.98c-6.98-11.92-5.19-17.52-3.53-35.26
				c1.34-14.42,22.43-80.55,22.43-80.55l-30.61-5.27c0,0-9.22,52.66-19.37,60.77c-5.43,4.32-11.51,4.38-16.73,7.58
				c-0.37,0.22-0.73,0.45-1.09,0.69C1558.75,1361.93,1555.73,1363.96,1553.34,1366.69z"/><path class="st13" d="M1553.34,1366.69c-2.38,2.73-2.68,5.78-1.51,9.03c0,0.01,0.01,0.03,0.02,0.04
				c2.67,6.01,9.68,12.7,17.77,19.4c1.06,0.88,1.99,1.68,2.82,2.43c0.22,0.19,0.44,0.38,0.64,0.57c0.17,0.15,0.33,0.3,0.49,0.44
				c7.8,7.19,4.86,8.83,18.87,23.42c15.97,16.62,26.97,16.92,30.1,15.4c2.65-1.29-2.73-10.1-8.69-20.01
				c-3.11-1.14-17.55-7.01-28.47-20.98c-9.62-12.27-16.03-28.04-22.58-37.17c-0.37,0.22-0.73,0.45-1.09,0.69
				C1558.75,1361.93,1555.73,1363.96,1553.34,1366.69z"/><path class="st14" d="M1800.15,1347.57c1.89,9.45,15.36,7.87,30.4,4.2c15.05-3.68,11.47,0.69,32.88-1.68
				c21.41-2.37,27.9-10.35,28.55-13.54c0.58-2.83-10-3.82-21.35-5.13c-1.43-0.16-2.86-0.34-4.29-0.51
				c-12.81-1.61-22.2-9.88-33.84-16.67c-11.02-6.43-27.48-32.64-27.48-32.64l-29.37,2.33c0,0,15.41,23.41,21.37,33.58
				c3.51,5.99,3.32,13.9,2.88,20.01C1799.69,1340.85,1799.48,1344.25,1800.15,1347.57z"/><path class="st13" d="M1830.55,1351.77c15.05-3.68,11.47,0.69,32.88-1.68c21.41-2.37,27.9-10.35,28.55-13.54
				c0.58-2.83-10-3.82-21.35-5.13l-0.11,0.22c0,0-12.84,9.11-30.67,9.53c-14.53,0.35-29.92-3.81-39.95-3.65
				c-0.23,3.32-0.44,6.72,0.23,10.05C1802.04,1357.02,1815.51,1355.45,1830.55,1351.77z"/><path class="st13" d="M1687.6,1159.79l-27.45,73.87l-35.84,96.46c0,0-9.73,0.94-19.04-1.74c-8.58-2.48-18.42-8.96-18.42-8.96
				s9.95-103.57,28.52-163.02c4.76-15.26,10.09-27.6,15.97-34.55C1660.13,1087.83,1687.6,1159.79,1687.6,1159.79z"/><path class="st15" d="M1659.69,1042.47c-17.99-5.8-69.28,1.65-120.81,11.73l-10.79-17.8l-111.3-8.69
				c0,0-36.73,81.45-16.62,133.35c2.96,7.63,8.83,12.52,18.84,12.68c0,0,1.62,0,1.63,0c0,0,66.24-0.04,87.76-0.04
				c55.35,0,117.14-38.05,125.14-39.65c13.08-2.62,18.32,23.55,31.4,51.03c13.08,27.48,122.99,121.68,122.99,121.68
				s16.89,0.17,23.87-2.45c7.5-2.81,10.25-6.47,10.25-6.47S1700.25,1055.56,1659.69,1042.47z"/><path class="st13" d="M1523.71,712.32c-14.26-7.49-35.95-8.5-39.48-8.97c-42.18-5.67-67.56,55.62-69.05,74.19
				c-2.75,34.23-20.86,39.45-46.35,60.88c-51.1,42.98-36.12,92.93-8.17,111.49c16.77,11.13,46.32,0,46.32,0
				c0.42,0.29,80.82-44.95,120.46-66.77C1586.85,874.68,1560.04,731.4,1523.71,712.32z"/><path class="st14" d="M1494.22,864.56c0.17,0.11-19.5,6.83-32.66,1c-12.38-5.47-21.75-25.83-21.57-25.84
				c5.63-0.26,11.81-5.18,16.57-37.48l2.4,0.86l40.31,14.5c0,0-2.92,12.93-4.81,25.25C1492.87,853.19,1492.01,863.09,1494.22,864.56
				z"/><path class="st16" d="M1499.27,817.6c0,0-2.92,12.93-4.81,25.25c-23.15-4.17-32.24-27.24-35.5-39.75L1499.27,817.6z"/><path class="st14" d="M1505.27,830.44c0,0-55.15-7.4-50.01-41.68c5.14-34.27,1.48-58.31,36.91-55.04
				c35.43,3.28,40.3,17.38,41.36,29.24C1534.6,774.82,1519.75,831.48,1505.27,830.44z"/><path class="st13" d="M1531.52,744.17c0,0-35.3,30.42-59.32,32.88c-24.01,2.45-33.11-5.26-33.11-5.26s14.16-11.75,22.67-30.72
				c2.51-5.59,7.81-9.43,13.92-9.95C1492.84,729.64,1525.34,728.97,1531.52,744.17z"/><path class="st13" d="M1509.45,741.45c0,0,11.81,11.42,15.53,19.89c3.59,8.17,4.67,27.72,1.81,35.49c0,0,18.4-35.78,7.98-53.17
				C1523.73,725.22,1509.45,741.45,1509.45,741.45z"/><path class="st17" d="M1540.66,945.8c-1.67,111.64-0.46,88.31-12.67,98.91c-2.94,2.55-11.22,4.07-22.1,4.79
				c-34.23,2.27-94.41-3.37-96.7-9.69c-7.9-21.89-2.32-28.69-8.91-62.2c-0.69-3.56-1.54-7.42-2.53-11.62
				c-5.49-23.02-10.84-30.85,8.65-67.83c17.67-33.5,36.03-60.68,37.68-59.7c46.62,27.68,50.38,4.41,50.38,4.41
				S1541.47,891.34,1540.66,945.8z"/><path class="st15" d="M1660.15,1233.67l-35.84,96.46c0,0-9.73,0.94-19.04-1.74c-8.58-2.48-18.42-8.96-18.42-8.96
				s9.95-103.57,28.52-163.02L1660.15,1233.67z"/><path class="st17" d="M1494.46,842.85c0,0,47.98,8.13,53.61,28.79c5.63,20.66,38.79,142.09,38.79,142.09s-24.39,4.38-35.66-6.89
				c-11.27-11.27-39.2-104.53-39.2-104.53L1494.46,842.85z"/><path class="st18" d="M1505.88,1049.49c-34.23,2.27-94.41-3.37-96.7-9.69c-7.9-21.89-2.32-28.69-8.91-62.2l16.51-46.49
				c0,0-2.73,51.77,12.54,65.39c15.25,13.62,62.51,26.29,69.94,37.67C1502.84,1039.62,1505.2,1045.1,1505.88,1049.49z"/><path class="st14" d="M1466.66,1027.72c0,0,33.77-7.52,39.22-4.52c5.45,3,18.77,13.91,20.44,17.71
				c1.67,3.8-12.13-2.88-16.62-4.09c-2.91-0.78-10.56,1.88-14.35,3.14c-15.94,5.31-25.71,2.58-25.71,2.58L1466.66,1027.72z"/><path class="st17" d="M1444.04,838.42c0,0-45.35,2.79-61.05,24.69c-22.1,30.82-65.94,162.18-40.81,179.69
				c28.29,19.73,128.77,5.16,128.77,5.16s3.34-15.63-1.31-23.19c-4.65-7.56-80.25-19.77-83.74-23.26
				c-3.49-3.49,43.62-68.04,43.62-78.51C1429.52,912.54,1444.04,838.42,1444.04,838.42z"/><path class="st14" d="M1507.52,1032.6c0,0,7.08,9.13,9.4,10.22c2.32,1.09,3.82,0.82,3.82,0.82l-4.77-8.58L1507.52,1032.6z"/><path class="st14" d="M1505.88,1023.2l20.57,9.99c0,0-0.88,1.43-3.41,1.32c-2.53-0.12-8.92-2.45-8.92-2.45L1505.88,1023.2z"/></g><g><g><polygon class="st10" points="1516.91,1058.8 1679.66,1058.8 1728.62,937.05 1566.12,937.05 				"/><polygon class="st12" points="1681.57,1054.05 1466.66,1054.05 1466.66,1058.8 1679.66,1058.8 				"/></g><path class="st17" d="M1638.58,995.93c1.23-4.28-1.25-7.75-5.53-7.75c-4.28,0-8.74,3.47-9.97,7.75
				c-1.23,4.28,1.25,9.75,5.53,9.75S1637.35,1000.2,1638.58,995.93z"/></g></g><g><path class="st10" d="M764.25,1194.66h-0.52c-6.05,0-10.95-4.9-10.95-10.95v-231.2c0-6.05,4.9-10.95,10.95-10.95h0.52
			c6.05,0,10.95,4.9,10.95,10.95v231.2C775.2,1189.75,770.29,1194.66,764.25,1194.66z"/><g><path class="st9" d="M763.89,1439.73h-0.36c-2.11,0-3.8-1.74-3.76-3.84l5.7-246.83l16.78-1.96l-14.31,248.81
				C767.82,1438.05,766.04,1439.73,763.89,1439.73z"/></g><g><path class="st9" d="M1033.64,1439.73h0.36c2.11,0,3.8-1.74,3.76-3.84l-5.7-246.83l-16.78-1.96l14.31,248.81
				C1029.72,1438.05,1031.49,1439.73,1033.64,1439.73z"/></g><path class="st10" d="M1032.44,1173.75h-28.2H854.44H752.77v10.52c0,8.94,7.24,16.18,16.18,16.18h85.48h149.81h28.2
			c6.61,0,11.96-5.36,11.96-11.96v-2.77C1044.41,1179.1,1039.05,1173.75,1032.44,1173.75z"/><path class="st19" d="M1172.46,1386.96c0,0-4.12,51.18,5.04,51.86c1.22,0.09,46.48,0.09,46.48,0.09l57.78-0.33
			c0,0-0.38-13.92-17.27-16.87c-16.89-2.94-50.32-17.16-60.55-39.48C1193.18,1358.75,1172.46,1386.96,1172.46,1386.96z"/><path class="st20" d="M824.85,1106.58c0,0,1.92,50.3,10.79,67.16h204.35c0,0,49.1,5.08,53.58,8.39
			c5.65,4.18-19.67,45.62,75.23,207.59l46.48-1.18c0,0-48.61-262.67-57.24-269.32c-12.92-9.94-164.1-44.56-189.98-45.31
			C942.18,1073.15,824.85,1106.58,824.85,1106.58z"/><path class="st14" d="M939.42,808.56c15.77,9.77,16.66,29.22,16.66,29.22c-38.46,9.95-94.43-32.75-94.43-32.75
			s24.76-16.63,33.93-53.19c0.46-1.84,0.89-3.74,1.26-5.67c1.2-6.16,1.95-12.82,2.08-20.01l17.67,15.83l29.38,26.32
			c0,0-0.67,10.92-4.34,29.71C940.99,801.29,940.26,804.81,939.42,808.56z"/><path class="st15" d="M961.15,1010.47c-1.31,8.58,1.35,15.49,2.62,21.87c0.5,2.44,0.79,4.8,0.58,7.15
			c-2.1,23.74,6.36,26.75,3.71,34.41c0,0-9.04,5.29-25.6,11.56c-7.2,2.72-15.83,5.64-25.76,8.38c-0.52,0.14-1.04,0.28-1.57,0.43
			c-38.45,10.39-78.87,12.61-90.29,12.31c-21.81-0.58-26.22-55.88-18.12-125.52c12.61-108.49,29.65-161.09,74.57-199.1
			c2.83-2.39,0.92,5.75,16.02,13.03c13.95,6.71,30.78,8.29,43.84,5.39l10.27,10.53c20.4,32.23,22.54,70.48,20.81,102.37
			C970.04,953.61,964.94,985.77,961.15,1010.47z"/><path class="st16" d="M945.97,768.3c0,0,1.56-1.65-2.11,17.14c-32.54-9.41-43.14-25.99-47.49-36.99
			c-1.24-3.11,12.1-4.76,20.22-6.48L945.97,768.3z"/><path class="st14" d="M961.1,768.4c0,0-62.79,8.99-67.79-30.2c-5-39.19-16.47-64.42,23.41-71.82c39.88-7.4,49.59,6.56,54.44,19.24
			C976.01,698.29,977.3,765.05,961.1,768.4z"/><g><rect x="1216.96" y="930.85" transform="matrix(-0.9544 -0.2985 0.2985 -0.9544 2085.7925 2312.0593)" class="st21" width="5.03" height="131.75"/><rect x="1064" y="1051.36" transform="matrix(-0.9999 -0.0104 0.0104 -0.9999 2255.2412 2122.7002)" class="st21" width="138.26" height="8.27"/></g><path class="st22" d="M873.29,667.17c-0.5-0.59-1.67-1.07-4.28-1.23c0,0,2.1-1.29,4.89-1.33c0.57-3.62,2.56-10.03,8.81-11.54
			c0,0-3.37,1.76-3.84,5.62c7.29-7.37,22.83-12.66,65.72-8.93c56.52,4.91,37.6,40.97,30.24,45.23c-7.36,4.26-25.69-7.72-39.34-6.75
			c-13.65,0.98-16.4,20.67-21.05,23.34c-4.65,2.67-2.79-2.1-9.03-4.98c-6.24-2.88-6.92,7.49-5.16,14.25
			c1.76,6.76-6.92,15.59-6.92,15.59s0,0-8.62-9.43c-8.62-9.43-16.5-49.16-12.48-57.58C872.57,668.68,872.92,667.93,873.29,667.17z"/><path class="st20" d="M968.06,1073.91c0,0-9.04,5.29-25.6,11.56c-71.64-52.27-71.25-176-71.64-178.11l89.98,79.23l2.97,45.75
			c0.5,2.44,0.79,4.8,0.58,7.15C962.25,1063.23,970.71,1066.25,968.06,1073.91z"/><g><path class="st14" d="M1097.77,1015.7c0,0,5.76,0.94,11.84-1.92c6.08-2.85,27.05-11.86,30.99-10.63
				c3.94,1.23,16.8,8.49,19.83,9.87c3.03,1.38,8.38,8.46,8.38,8.46c-2.22,2.24-10.03-2.9-13.52-2.8
				c-3.49,0.1-29.26,14.18-36.92,14.48c-7.66,0.31-19.6-1.26-19.6-1.26L1097.77,1015.7z"/><path class="st14" d="M1144.48,1016.83c0.07,0.42,9.42,10.84,16.55,7.54l-7.81-7.72L1144.48,1016.83z"/><path class="st14" d="M1109.6,1013.78c0,0,8.39-7.77,11.17-11.5c0,0,1.67,0.77,1.74,2.18c0.11,2.36-2.2,6.7-2.2,6.7
				L1109.6,1013.78z"/></g><path class="st15" d="M944.56,829.17c-46.12-28.09-100.55,20.98-77.66,69.89c26.54,56.71,70.71,125.87,105.81,129.96
			c25.02,2.91,96.52,12.08,126.8,6.43c0,0,14.67,0.72,6.71-22.9c0,0-97.85-27.27-114.1-48.42c-8.71-11.34-23.55-34.28-46.5-134.29
			C945.54,829.43,944.92,829.39,944.56,829.17z"/></g><g><g><path class="st23" d="M2184.51,1439.73h0.5c2.91,0,5.25-2.4,5.19-5.31l-7.87-340.99l-23.17-2.7l19.76,343.72
				C2179.08,1437.41,2181.54,1439.73,2184.51,1439.73z"/></g><g><g><path class="st23" d="M1045.09,1439.73h-0.49c-2.91,0-5.25-2.4-5.19-5.31l7.87-340.99l23.17-2.7l-19.76,343.72
					C1050.52,1437.41,1048.07,1439.73,1045.09,1439.73z"/></g><path class="st24" d="M2204.7,1099.7H1021.95c-8.61,0-15.59-6.98-15.59-15.58v-9.98c0-8.61,6.98-15.59,15.59-15.59H2204.7
				c8.61,0,15.58,6.98,15.58,15.59v9.98C2220.28,1092.72,2213.31,1099.7,2204.7,1099.7z"/></g></g><g><path class="st25" d="M2009.85,227.88c0,28.56,10.12,54.75,26.96,75.2c14.57,17.68,22.66,39.81,22.66,62.71v33.03
			c0,21,17.18,38.18,38.18,38.18h61.1c21,0,38.18-17.18,38.18-38.18v-33.09c0-22.95,8.21-45.06,22.77-62.8
			c16.91-20.6,27.01-47,26.84-75.77c-0.38-65.27-53.07-117.63-118.34-117.63c-7.25,0-14.35,0.66-21.25,1.91
			c-1.53,0.28-3.04,0.58-4.55,0.92C2049.44,124.12,2009.85,171.38,2009.85,227.88z"/><path class="st26" d="M2158.52,436.99l-0.13,1.02l-1.68,12.87l-0.44,3.39v0.03l-0.45,3.41l-1.67,12.86l-0.44,3.39l-0.01,0.03
			l-0.44,3.42l-0.25,1.88c-0.85,6.53-8.31,11.51-17.24,11.51h-20.11c-2.13,0-4.16-0.28-6.05-0.8h-0.01
			c-1.7-0.47-3.27-1.13-4.68-1.95l-0.11-0.06c-1.14-0.67-2.17-1.45-3.04-2.32c-1.8-1.78-2.99-3.91-3.33-6.26l-0.71-4.99l-0.45-3.14
			v-0.01l-0.01-0.07v-0.01l-0.44-3.07l-1.71-11.93l-0.45-3.13l-0.01-0.07l-0.44-3.09l-1.85-12.92H2158.52z"/><g><path class="st27" d="M2150.54,436.99h-0.14h-11.23c-18.34,5.3-36.53,10.54-44.95,12.92l0.44,3.09l0.01,0.07l0.45,3.13
				c6.83-1.89,23.21-6.58,63.26-18.19l0.13-1.02H2150.54z"/><path class="st27" d="M2097.28,471.2L2097.28,471.2l0.01,0.07v0.01l0.45,3.14c7.89-2.22,24.18-6.89,58.09-16.72l0.45-3.41v-0.03
				l0.44-3.39c-21.43,6.2-47.37,13.7-59.88,17.25L2097.28,471.2z"/><path class="st27" d="M2104.82,488l0.11,0.06c1.41,0.82,2.98,1.48,4.68,1.95h0.01c9.3-2.67,23.11-6.65,43.64-12.6l0.44-3.42
				l0.01-0.03l0.44-3.39c-18.34,5.31-39.38,11.39-52.37,15.1C2102.66,486.54,2103.68,487.32,2104.82,488z"/></g><g><rect x="2091.47" y="284.51" transform="matrix(0.986 -0.167 0.167 0.986 -30.9273 354.8502)" class="st17" width="5.35" height="153.56"/></g><g><rect x="2084.92" y="359.81" transform="matrix(0.18 -0.9837 0.9837 0.18 1415.2367 2422.6311)" class="st17" width="151.49" height="5.35"/></g><g><path class="st17" d="M2142.31,313.05c-0.69,0-1.45-0.09-2.31-0.28c-1.43-0.33-2.34-1.32-2.62-2.87
				c-0.61-3.34,2.01-9.48,5.7-14.68c-1.92-3.36-4.49-6.14-7.18-6.95c-3.97-1.21-10.07,2.46-14.32,7.15c0.78,1.1,1.48,2.25,2.09,3.4
				c2.17,4.11,3.74,9.36,1.6,11.79c-0.79,0.9-2.41,1.72-5.62,0.51c-4.01-1.51-5.45-4.91-3.96-9.32c0.73-2.16,2.08-4.41,3.8-6.5
				c-3.29-4.29-7.68-7.55-12.01-7c-2.31,0.29-4.3,1.1-5.95,2.24c2.77,5.15,3.41,11.69,1.49,15.2c-1.31,2.39-3.6,3.15-6.44,2.14
				c-2.04-0.73-3.11-3.54-2.72-7.16c0.4-3.71,2.25-7.77,5.55-10.59c-0.86-1.34-1.89-2.53-3.08-3.45
				c-7.46-5.79-13.63,0.42-13.89,0.69l-1.16-1.13c0.07-0.08,7.46-7.51,16.05-0.84c1.3,1.01,2.43,2.3,3.37,3.75
				c1.83-1.25,4.02-2.13,6.58-2.45c4.85-0.61,9.7,2.81,13.29,7.37c4.62-5.02,11.2-8.73,15.79-7.34c2.9,0.88,5.64,3.68,7.73,7.13
				c1.95-2.53,4.12-4.73,6.23-6.12c3.38-2.24,5.58-1.73,6.83-0.9c1.29,0.84,2.38,1.98,3.28,3.28c1.02-0.81,2.08-1.5,3.14-2.02
				c3.92-1.95,7.51-1.81,10.13,0.4l-1.05,1.24c-2.82-2.39-6.45-1.14-8.36-0.19c-1.05,0.52-2.07,1.19-3.01,1.95
				c2.61,4.7,3.11,10.83,1.62,13.8c-0.94,1.87-2.62,2.52-4.58,1.8c-3.54-1.3-4.4-3.73-4.5-5.55c-0.19-3.47,2.21-7.43,5.36-10.34
				c-0.81-1.21-1.79-2.26-2.92-3c-1.53-1.01-3.59-0.07-5.05,0.9c-2.11,1.39-4.31,3.69-6.26,6.29c2.43,4.62,3.69,10.01,2.77,13.48
				C2147.28,310.54,2145.99,313.05,2142.31,313.05z M2143.92,296.81c-3.21,4.68-5.46,9.97-4.95,12.8c0.16,0.9,0.61,1.4,1.39,1.58
				c3.17,0.72,5.12-0.21,5.8-2.75C2146.94,305.49,2145.92,300.89,2143.92,296.81z M2120.5,296.69c-1.48,1.85-2.65,3.8-3.27,5.63
				c-1.23,3.62-0.22,6.07,2.99,7.28c1.29,0.49,3.01,0.87,3.83-0.06c1.27-1.44,0.53-5.54-1.82-9.96
				C2121.72,298.6,2121.14,297.63,2120.5,296.69z M2100.24,291.56c-2.83,2.52-4.42,6.08-4.77,9.34c-0.3,2.76,0.38,5.01,1.65,5.46
				c2.06,0.73,3.57,0.27,4.47-1.39C2103.24,301.96,2102.64,296.18,2100.24,291.56z M2160.02,292.59c-2.81,2.7-4.73,6.17-4.58,8.84
				c0.11,1.94,1.26,3.32,3.44,4.12c1.2,0.44,2.01,0.12,2.58-1C2162.72,302.06,2162.18,296.73,2160.02,292.59z"/></g></g><g><rect x="722.21" y="532.54" class="st28" width="19.75" height="72.66"/><path class="st28" d="M739.49,525.34h-13.91c-1.36,0-2.47-1.11-2.47-2.47l0,0c0-1.36,1.11-2.47,2.47-2.47h13.91
			c1.36,0,2.47,1.11,2.47,2.47l0,0C741.96,524.23,740.85,525.34,739.49,525.34z"/><rect x="688.16" y="475.48" class="st28" width="19.75" height="129.72"/><path class="st28" d="M704.99,470.09h-13.91c-1.36,0-2.47-1.11-2.47-2.47l0,0c0-1.36,1.11-2.47,2.47-2.47h13.91
			c1.36,0,2.47,1.11,2.47,2.47l0,0C707.46,468.98,706.35,470.09,704.99,470.09z"/><rect x="655.52" y="385.14" class="st28" width="19.75" height="220.05"/><path class="st28" d="M672.36,379.14h-13.91c-1.36,0-2.47-1.11-2.47-2.47l0,0c0-1.36,1.11-2.47,2.47-2.47h13.91
			c1.36,0,2.47,1.11,2.47,2.47l0,0C674.83,378.03,673.71,379.14,672.36,379.14z"/><rect x="622.03" y="425.07" class="st28" width="19.75" height="180.13"/><path class="st28" d="M638.87,420.25h-13.91c-1.36,0-2.47-1.11-2.47-2.47l0,0c0-1.36,1.11-2.47,2.47-2.47h13.91
			c1.36,0,2.47,1.11,2.47,2.47l0,0C641.34,419.14,640.22,420.25,638.87,420.25z"/><rect x="589.4" y="325.11" class="st28" width="19.75" height="280.09"/><path class="st28" d="M606.23,319.75h-13.91c-1.36,0-2.47-1.11-2.47-2.47l0,0c0-1.36,1.11-2.47,2.47-2.47h13.91
			c1.36,0,2.47,1.11,2.47,2.47l0,0C608.7,318.64,607.59,319.75,606.23,319.75z"/><rect x="557.63" y="368.85" class="st28" width="19.75" height="236.35"/><path class="st28" d="M574.46,363.83h-13.91c-1.36,0-2.47-1.11-2.47-2.47l0,0c0-1.36,1.11-2.47,2.47-2.47h13.91
			c1.36,0,2.47,1.11,2.47,2.47l0,0C576.93,362.72,575.82,363.83,574.46,363.83z"/></g><g><g><polygon class="st15" points="2029.03,1058.56 1866.28,1058.56 1817.32,936.81 1979.82,936.81 			"/><polygon class="st15" points="1864.37,1053.81 2079.28,1053.81 2079.28,1058.56 1866.28,1058.56 			"/></g><path class="st17" d="M1907.36,997.68c-1.23-4.28,1.25-7.75,5.53-7.75s8.74,3.47,9.97,7.75c1.23,4.28-1.25,7.75-5.53,7.75
			S1908.59,1001.96,1907.36,997.68z"/></g><path class="st29" d="M2901.17,1439.81v1.18c0,1.88-1.44,3.43-3.19,3.43H92.67c-1.75,0-3.19-1.55-3.19-3.43v-1.18
		c0-1.88,1.44-3.43,3.19-3.43h2805.32C2899.74,1436.38,2901.17,1437.93,2901.17,1439.81z"/><g><path class="st30" d="M2189.41,554.77c-17.03-8.83-30.67-3.28-30.67-3.28c-52.09-6.12-67.29,54.63-66.58,75.54
			c0.7,20.9,3.09,43.36-20.17,70.51c-67.2,78.44,73.54,81.9,73.54,81.9c1.19-62.67,76.32-39.81,73.03-33.46
			C2314.86,769.1,2228.13,574.85,2189.41,554.77z"/><path class="st31" d="M1988.46,803.51c0,0-9.16-13.95-16.54-14.22c-7.38-0.27-21.06-4.1-19.96-1.37s9.57,3.01,10.39,4.65
			s-12.58,4.1-16.41,4.38c-3.83,0.27-12.85,0-12.58,1.91c0.27,1.91,16.26,9.84,27.55,8.75c11.28-1.09,25.23,3.28,25.23,3.28
			L1988.46,803.51z"/><path class="st32" d="M2120.95,808.02c0,0-4.98,9.86-14.01,21.19c-10.89,13.64-27.67,29.39-48.75,32.49
			c-10.07,1.48-19.91-0.68-28.96-4.7c-0.02-0.01-0.03-0.01-0.03-0.01c-25.59-11.36-44.84-37.49-44.84-37.49
			c-4.51-12.3,2.87-20.65,2.87-20.65s51.68,11.62,56.61,9.16c4.92-2.46,35.18-69.6,40.63-80.78c11.59-23.77,29.97-30.59,29.97-30.59
			L2120.95,808.02z"/><path class="st12" d="M2106.94,829.21c-10.89,13.64-27.67,29.39-48.75,32.49c-10.07,1.48-19.91-0.68-28.96-4.7
			c1,0.13,26.56,3.29,36.75-14.94c10.39-18.6,21.63-48.13,37.07-38.29C2109.72,808.03,2109.43,818.59,2106.94,829.21z"/><path class="st33" d="M2313.77,1365.91c0,0,15.77,14.39,12.69,24.62c-3.08,10.23-17.31,17.04-19.23,29.54s-9.62,19.32-16.54,19.32
			c-6.92,0-33.01,0-33.01,0s-5.1-8.79,7.21-11.45c12.31-2.65,16.95-17.34,16.18-30.97c-0.77-13.63,1.15-31.81,1.15-31.81l26.16-6.06
			L2313.77,1365.91z"/><path class="st33" d="M2180.29,1372.02c0,0,5.67,60.97-1.25,64.38l-88.61-0.18c0,0,0-10.23,14.23-12.5
			c14.23-2.27,39.23-10.6,43.46-29.16C2152.36,1376,2180.29,1372.02,2180.29,1372.02z"/><path class="st32" d="M2248.45,766.9c0,0,1.32,18.61,0,40.95c-0.88,14.81-15.86,34.64-17.98,39.55
			c-5.33,12.31-11.35,14.31-11.35,14.31l-46.52,11.4l-16.36,4l-51.58-15.41c0,0-23.5-65.58-14.06-102.5
			c9.43-36.92,23.85-62.55,23.85-62.55s34.97-13.8,96.9-3.49L2248.45,766.9z"/><path class="st34" d="M2234.84,813.9c-0.88,14.81-2.24,28.6-4.37,33.5c-5.33,12.31-11.35,14.31-11.35,14.31l-46.52,11.4
			l-20.21-5.94c0,0,67.45-10.22,59.98-68.25L2234.84,813.9z"/><path class="st35" d="M2107.94,871.66c0,0-25.55,79.51-27.19,106.59c-1.64,27.07,48.83,384.58,50.86,397.06
			c1.91,11.76,16.51,19.25,16.51,19.25s6.72,3.96,16.3,1.26c13.3-3.75,17.5-8.25,17.5-8.25s19.88-254.97,7.58-346.05
			c-12.3-91.08-12.45-169.85-12.45-169.85H2107.94z"/><path class="st36" d="M2216.17,869.29c0,0,38.97,52.28,42.6,87.63c3.63,35.34,5.7,159.49,13.44,193.95
			c7.74,34.46,36.18,100.76,36.18,208.23c0,0-2.96,6.16-12.08,9.44c-2.92,1.05-6.83,2.07-10.62,2.94
			c-7.53,1.73-15.25-1.95-18.68-8.87c-19.22-38.71-80.46-163.55-83.6-189.46c-2.22-18.34-21.56-139.71-63.73-210.93
			c-10.13-17.1,6.21-85.1,6.21-85.1L2216.17,869.29z"/><path class="st37" d="M2103.86,859.39c0,0,10.26,8.11,30.63,8.52c24.33,0.49,84.63-6.2,84.63-6.2s2.68,7.49,2.57,15.39
			c0,0-73.65,18.58-116.32,2.71C2105.38,879.81,2099.87,869.45,2103.86,859.39z"/><g><path class="st17" d="M2128.65,888.88c-6.12,0-11.1-5.64-11.1-12.57c0-6.93,4.98-12.57,11.1-12.57c6.12,0,11.1,5.64,11.1,12.57
				C2139.75,883.24,2134.77,888.88,2128.65,888.88z M2128.65,867.43c-4.09,0-7.42,3.99-7.42,8.89c0,4.9,3.33,8.89,7.42,8.89
				c4.09,0,7.42-3.99,7.42-8.89C2136.07,871.41,2132.74,867.43,2128.65,867.43z"/></g><path class="st38" d="M2290.58,880.59l-59.8,52.07c-4.32,3.76-10.87,3.31-14.64-1.01l-76.31-87.63
			c-3.76-4.32-3.31-10.87,1.01-14.64l59.8-52.07c4.32-3.76,10.87-3.31,14.64,1.01l76.31,87.63
			C2295.35,870.27,2294.9,876.82,2290.58,880.59z"/><path class="st31" d="M2202.1,874.01c-0.85,0.23-31.77,3.86-31.77,10.25c-0.01,7.39,9.06,17.28,17.6,16.82
			c3.46-0.19,19.41-14.86,19.41-14.86L2202.1,874.01z"/><path class="st31" d="M2186.23,689.78c-3.52-8.53-5.57-21.53-5.51-37.61l-2.34,0.46l-39.27,7.78c0,0,0.89,12.36,0.92,24
			c0,0.1,0,0.19,0,0.29c0.05,10.11-6.83,20.26,9.39,24.27C2154.43,710.21,2193.62,707.7,2186.23,689.78z"/><path class="st39" d="M2139.11,660.41c0,0,0.89,12.36,0.92,24c21.98-0.62,33.59-20.67,38.35-31.78L2139.11,660.41z"/><path class="st31" d="M2131.77,671.44c0,0,52,0.86,52.03-31.53c0.04-32.39,6.77-54.09-26.43-56.01
			c-33.2-1.92-39.66,10.44-42.3,21.24C2112.43,615.95,2118.24,670.38,2131.77,671.44z"/><path class="st30" d="M2133.69,583.11c0,0,14.24,38,36.08,43.62c21.85,5.62,31.32-0.24,31.32-0.24s-16.76-13.31-20.24-36.55
			C2180.87,589.93,2144.43,565.02,2133.69,583.11z"/><path class="st30" d="M2137.22,586.19c0,0-10.56,3.95-14.9,11.64c-4.25,7.53-7.87,17.5-7.03,29.73c0,0-10.72-25.83,1.33-40.44
			C2129.4,571.64,2137.22,586.19,2137.22,586.19z"/><path class="st31" d="M2202.1,874.01c0,0-7.41-2.38-12.36-1.69c-4.95,0.69-8.62-0.1-8.62,1.29s6.39,2.03,7.75,2.7
			C2190.24,876.98,2202.1,874.01,2202.1,874.01z"/><path class="st32" d="M2211.35,693.17c0,0,36.91,2.59,51.06,36.98c14.15,34.39,40.99,92.14,40.99,101.85
			c0,9.71-15,39.66-95.53,56.88c0,0-8.33-8.76-7.82-15.69c0,0,50.27-43.18,50.14-48.23c-0.26-9.55-8.24-22.15-52.38-66.3
			C2185.81,746.67,2211.35,693.17,2211.35,693.17z"/></g></g><g><path class="st0" d="M3566.65,1097.49c0,0-290.98,53.44-383.6-148.73c-120.17-262.28,126.72-461.15,316.07-424.1
		c412.6,80.74,313.25-809.95,975.42-628.17c186.19,51.11,689.27-252.53,829.57,234.34c33.36,115.77,151.57,128.52,323.17,201.98
		c335.83,143.77,182.28,767.1-57.69,769.55S3566.65,1097.49,3566.65,1097.49z"/><g><g><g><rect x="5009.64" y="462.38" transform="matrix(-1 -1.224647e-16 1.224647e-16 -1 10190.6484 1563.356)" class="st40" width="171.37" height="638.59"/><rect x="4929.62" y="462.38" transform="matrix(-1 -1.224647e-16 1.224647e-16 -1 9985.1709 1563.356)" class="st41" width="125.92" height="638.59"/></g></g><circle class="st40" cx="4994.7" cy="1033.32" r="28.11"/><g><g><rect x="5261.02" y="462.38" transform="matrix(-1 -1.224647e-16 1.224647e-16 -1 10693.4219 1563.356)" class="st42" width="171.37" height="638.59"/><rect x="5181.01" y="462.38" transform="matrix(-1 -1.224647e-16 1.224647e-16 -1 10487.9453 1563.356)" class="st43" width="125.92" height="638.59"/></g></g><circle class="st42" cx="5246.09" cy="1033.32" r="28.11"/><rect x="5217.98" y="527.37" class="st17" width="56.22" height="335.18"/><g><g><rect x="5509.47" y="462.38" transform="matrix(-1 -1.224647e-16 1.224647e-16 -1 11190.3037 1563.356)" class="st44" width="171.37" height="638.59"/><rect x="5429.45" y="462.38" transform="matrix(-1 -1.224647e-16 1.224647e-16 -1 10984.8262 1563.356)" class="st45" width="125.92" height="638.59"/></g></g><circle class="st44" cx="5494.53" cy="1033.32" r="28.11"/><rect x="5466.42" y="527.37" class="st17" width="56.22" height="335.18"/><rect x="4964.48" y="531.66" class="st17" width="56.22" height="335.18"/></g><g><path class="st44" d="M4598.25,338.64l60.42,718.43c0,0,6.33,43.55-26.06,43.63c-53.26,0.13-265.1,0-265.1,0
			s40.09-9.07,39.6-29.46c-0.57-24.04-70.62-739.39-70.62-739.39L4598.25,338.64z"/><path class="st46" d="M4350.31,1087.66c10.48,0.03,212.81,0.67,264.68,0c22.6-0.28,26.57-20.1,26.76-32.92
			c0.09-6.15-0.69-10.69-0.69-10.69l-1.57-18.67l-4-47.59l-3.54-42.05l-4.55-54.03l-3.83-45.61l-42.93-510.5l-261.76-6.79
			c0,0,29.5,299.37,50.37,517.29c2.33,24.28,4.55,47.56,6.6,69.29c0.67,6.94,1.3,13.72,1.92,20.33c1.93,20.62,3.7,39.55,5.24,56.27
			c0.81,8.81,1.56,17,2.24,24.5c2.66,29.39,4.22,48.16,4.24,51.72c0.01,2.08-0.17,4.02-0.51,5.82
			C4384.69,1086.91,4354.25,1087.66,4350.31,1087.66z"/><polygon class="st46" points="3977.22,-52.3 5233.95,-52.3 5086.78,538.88 5066.62,619.84 4998.08,895.2 3724.57,895.2 		"/><polygon class="st44" points="5233.96,-52.3 5254.35,-45.51 5025.19,915.76 4998.07,895.2 		"/><polygon class="st44" points="5025.19,915.76 3759.52,915.76 3724.57,895.2 4998.07,895.2 		"/><rect x="4306.69" y="1087.95" class="st47" width="274.04" height="13.02"/><polygon class="st44" points="4376.35,915.76 4377.77,925.71 4635.49,977.78 4631.95,935.73 4630.26,915.76 		"/><path class="st44" d="M4350.31,1087.66c10.48,0.03,212.81,0.67,264.68,0c22.6-0.28,26.57-20.1,26.76-32.92l-256.5-48.26
			c2.66,29.39,4.22,48.16,4.24,51.72c0.01,2.08-0.17,4.02-0.51,5.82C4384.69,1086.91,4354.25,1087.66,4350.31,1087.66z"/><polygon class="st44" points="4455.2,709.06 4998.08,895.2 5044.44,708.95 		"/><polygon class="st46" points="3977.22,-52.3 5233.96,-52.3 5044.55,708.95 3773.32,709.19 		"/></g><polygon class="st48" points="3832.59,676.19 5009.27,676.19 5142.53,145.34 5152.74,104.63 5161.46,69.9 5181.9,-11.51 
		4022.17,-11.51 3999.73,69.9 3990.16,104.63 3978.94,145.34 	"/><polygon class="st49" points="4022.17,-11.51 5181.9,-11.51 5161.46,69.91 3999.73,69.91 	"/><g><path class="st48" d="M5126.28,15.1c5.62,0,9.04,4.56,7.64,10.18c-1.4,5.62-7.09,10.18-12.72,10.18c-5.62,0-9.04-4.56-7.64-10.18
			C5114.97,19.66,5120.66,15.1,5126.28,15.1z"/><path class="st48" d="M5092.46,15.1c5.62,0,9.04,4.56,7.64,10.18c-1.4,5.62-7.09,10.18-12.72,10.18s-9.04-4.56-7.64-10.18
			C5081.15,19.66,5086.84,15.1,5092.46,15.1z"/><path class="st48" d="M5043.33,25.28c1.4-5.62,7.09-10.18,12.72-10.18c5.62,0,9.04,4.56,7.64,10.18
			c-1.4,5.62-7.09,10.18-12.72,10.18S5041.93,30.9,5043.33,25.28z"/></g><g id="man_1_"><g><path class="st13" d="M3407.8,1027.78c0,0-14.98,13.88-12.06,23.75c2.92,9.86,16.44,16.44,18.27,28.5s9.13,18.63,15.71,18.63
				c6.58,0,31.35,0,31.35,0s4.84-8.48-6.85-11.04c-11.69-2.56-16.1-16.72-15.37-29.88c0.73-13.15-1.1-30.69-1.1-30.69l-24.84-5.84
				L3407.8,1027.78z"/><path class="st13" d="M3679.36,1098.63h-83.25c-0.72-0.15-1.27-0.31-1.62-0.49c-5.55-2.77-3.82-24-3.15-30.58
				c0.13-1.22,0.22-1.94,0.22-1.94s29.23-23.38,33.25-5.47c0.12,0.56,0.27,1.11,0.43,1.65c5.05,16.75,27.74,24.36,40.85,26.48
				C3676.08,1089.9,3678.68,1095.71,3679.36,1098.63z"/><path class="st50" d="M3662.61,619.34c0,0-4.44,55.38-9.66,121.95c-7.09,90.43-15.62,201.51-16.46,222.55
				c-1.46,36.54-7.31,94.99-7.31,94.99s-13.88,13.89-41.65,8.03c0,0-24.75-83.44-31.82-171.72c-0.11-1.45-0.22-2.9-0.33-4.36
				c-6.58-89.87-16.8-279.12-16.8-279.12L3662.61,619.34z"/><path class="st51" d="M3662.61,619.34c0,0-4.44,55.38-9.66,121.95l-97.24,153.85c-0.11-1.45-0.22-2.9-0.33-4.36
				c-6.58-89.87-16.8-279.12-16.8-279.12L3662.61,619.34z"/><path class="st50" d="M3642.34,625.92c0,0-80.01,200.57-132.61,294.82c-52.61,94.25-69.05,120.56-69.05,120.56
				s-30.14-12.06-32.88-20.28c0,0,20.12-181.96,55.35-226.32c19.91-25.06,43.29-100.28,44.39-126.59c1.1-26.3,7.12-78.36,7.12-78.36
				L3642.34,625.92z"/></g><path class="st14" d="M3723.25,570.55l4.57,9.12c0,0,23.25,3.25,16.85,27.49c0,0-3.45,9.97-9.86,6.82
			c-6.41-3.16-3.25-2.89-12.45-7.14c-9.19-4.25-14.51-12.41-12.45-19.89l-1.47-7.93L3723.25,570.55z"/><path class="st14" d="M3601.31,316.33c3.56-21,3.67-33.45,3.67-33.45l-40.59-32.71c1.51,44.98-27.32,66.61-27.32,66.61
			s54.09,26.63,85.36,16.77C3622.43,333.54,3614.73,323.7,3601.31,316.33z"/><path class="st14" d="M3614.54,282.13c0,0-51.64,8.58-56.49-23.66c-4.85-32.24-14.78-52.85,17.99-59.69
			c32.77-6.84,41.04,4.5,45.27,14.86C3625.55,224.01,3627.85,279.07,3614.54,282.13z"/><path class="st19" d="M3558.39,260.69c0,0,1.04-43.19,48.1-50.12c32.23-4.75,12.71-31.68,9.03-35.94c0,0-24.64,4.7-49.85,10.24
			C3512.73,196.48,3552.8,254.27,3558.39,260.69z"/><path class="st12" d="M3717.84,583.22c6.9-7.08,12.03-16.31,12.03-16.31s-58.67-72.9-63.44-80.46
			c-4.77-7.56-40.4-128.82-40.4-128.82l-90.11-18.26c0,0,75.22,155.18,87.68,174.1c20.59,31.26,82.19,77.79,82.19,77.79
			S3712.41,588.78,3717.84,583.22z"/><path class="st10" d="M3666.06,623.96c-0.94,0.78-2.03,1.25-3.29,1.25c-11.74-0.16-45.98,6.36-74.95,3.39
			c-24.42-2.34-46.04-9.58-69.25-19.98c-3.08-1.38-10.18-5.17-10.02-8.61c0.1-3.77,0.48-9.24,0.95-16.13
			c1.64-23.96,4.51-65.17,1.71-112.72c-0.5-8.85-0.77-17.63-0.8-26.28c-0.24-64.44,12.32-121.43,37.99-140.61
			c2.19-1.57,15.88,5.33,28.25,11.43c11.43,5.64,19.42,5.51,30.22,3.32l14.24,10.3c13.15,12.21,27.56,28.81,33.82,54.01
			c5.33,21.45,8.45,60.12,10.18,100.2c0.78,18.16,1.41,36.48,1.57,53.86V538c0.15,1.72,0.15,3.6,0.15,5.33
			C3667.48,587.94,3666.85,623.33,3666.06,623.96z"/><path class="st12" d="M3509.51,583.86c1.64-23.96,4.51-65.17,1.71-112.72c-0.5-8.85-0.77-17.63-0.8-26.28
			c10.7-25.95,19.44-44.76,19.44-44.76h26.96C3556.83,400.1,3576.59,535.1,3509.51,583.86z"/><g><path class="st14" d="M3457.07,592.25l-5.12,8.82c0,0,10.03,21.23-13.76,29.16c0,0-10.23,2.58-11.11-4.51
				c-0.88-7.09,0.63-4.3-0.85-14.32c-1.49-10.02,2.43-18.94,9.81-21.32l5.83-5.58L3457.07,592.25z"/><path class="st10" d="M3443.5,594.66c9.71,1.89,20.23,1.13,20.23,1.13s28.82-89.03,32.53-97.16
				c3.71-8.13,85.61-104.39,85.61-104.39l-34.12-85.38c0,0-88.58,147.96-97.57,168.75c-14.86,34.36-20.02,111.38-20.02,111.38
				S3435.87,593.18,3443.5,594.66z"/></g></g><g><polygon class="st43" points="4477.6,556.22 3928.27,556.22 4116.06,-203.52 4665.4,-203.52 		"/><polygon class="st52" points="4395.55,508.82 3846.22,508.82 4034.01,-250.93 4583.34,-250.93 		"/><polygon class="st53" points="4306.64,454.64 3757.31,454.64 3945.1,-305.1 4494.43,-305.1 		"/><polygon class="st42" points="4572.15,-203.52 4398.35,504.28 3941.66,508.82 4412.14,519.17 		"/><polygon class="st42" points="4480.91,-250.93 4315.79,450.1 3859.1,454.64 4323.54,466.12 		"/><polygon class="st48" points="4077.78,-41.81 3924.15,-41.81 3972.24,-234.8 4125.87,-234.8 		"/><polygon class="st43" points="4428.5,-208.13 4153.25,-208.13 4160.02,-234.8 4435.28,-234.8 		"/><polygon class="st43" points="4416.09,-153.39 4140.83,-153.39 4147.61,-180.06 4422.86,-180.06 		"/><polygon class="st43" points="4403.11,-98.66 4127.86,-98.66 4134.63,-125.32 4409.88,-125.32 		"/><polygon class="st43" points="4387.87,-43.92 4112.62,-43.92 4119.39,-70.58 4394.64,-70.58 		"/><polygon class="st43" points="4387.87,13.08 3884,13.08 3890.77,-13.58 4394.64,-13.58 		"/><polygon class="st43" points="4374.42,70.08 3870.54,70.08 3877.32,43.41 4381.19,43.41 		"/><polygon class="st43" points="4355.8,134.26 3851.92,134.26 3858.69,107.6 4362.57,107.6 		"/><polygon class="st43" points="4338.87,189.68 3834.99,189.68 3841.76,163.02 4345.64,163.02 		"/><g><defs><polygon id="SVGID_1_" points="4077.78,-41.81 3924.15,-41.81 3972.24,-234.8 4125.87,-234.8 				"/></defs><clipPath id="SVGID_2_"><use xlink:href="#SVGID_1_" style="overflow:visible"/></clipPath><g class="st54"><path class="st55" d="M4091.19-22.61c0,0,9.01-4.11,12.53-2.85c3.52,1.26,13.06,5.37,12.84,9.5c-0.22,4.13-15.52,8.7-25.75,3.7
					C4080.58-17.27,4091.19-22.61,4091.19-22.61z"/><path class="st56" d="M4093.86-11.3c-0.16,0.51-0.37,0.99-0.64,1.43c-3.03,4.88-52.97,5.13-58.67,1.03
					c-2.55-1.83-3.33-27.1-3.41-54.47c-0.1-33.84,0.87-70.91,0.87-70.91s19.54,9.07,20.49,20.23c0.95,11.16-7.26,78.23-1.56,82.33
					c5.71,4.1,32.03,4.63,40.81,7.21C4091.75-24.46,4095.48-16.43,4093.86-11.3z"/><path class="st19" d="M4043.34-211.17c-3.42-3.56-9-3.89-12.59-4.14c1.04-0.83,2.89-0.94,2.89-0.94
					c-2.17-0.62-7.39,0.94-7.39,0.94s-17.45-11.99-29.28,11.43c0,0,1.73-1.66,4.05-3.5c-6.83,13.47-4.54,35.48,10.72,41.32
					C4021.66-162.27,4078.36-174.7,4043.34-211.17z"/><path class="st55" d="M4032.77-128.63c0.1,0.06-10.56,3.95-17.8,0.92c-6.81-2.84-10.24-12.6-10.14-12.6
					c3.07-0.21,4.46-4.2,6.69-21.88l1.32,0.44l22.15,7.45c0,0-1.44,7.09-2.33,13.83C4031.9-134.82,4031.55-129.41,4032.77-128.63z"/><path class="st57" d="M4034.99-154.3c0,0-1.44,7.09-2.33,13.83c-12.68-2.01-17.9-14.49-19.82-21.27L4034.99-154.3z"/><path class="st19" d="M4010.81-164.53c0,0-5.3-11.4-5.73-20.61c-0.31-6.58,6.06-29.99,29.57-23.45c0,0,6.87,1.59,12.84,6.85
					c4.75,4.19,11.27,12.74,0.18,32.46l-3.09,6.74L4010.81-164.53z"/><path class="st55" d="M4038.41-147.37c0,0-30.16-3.41-27.75-22.16c2.41-18.75,0.14-31.82,19.5-30.44
					c19.36,1.38,22.18,9.02,22.89,15.47C4053.76-178.04,4046.32-146.96,4038.41-147.37z"/><path class="st40" d="M4040.39-104.9c-0.25-2.2,4.46-3.23,5.32-1.18c1.61,3.83,1.43,8.38,1.79,12.07
					c1.03,10.53-3.14,24.22-3.14,24.22L4040.39-104.9z"/><path class="st19" d="M4053.5-195.03c-3.92-6.23-7.59-5.46-9.78-4.03c-5.25-10.56-27.63,0.83-27.63,0.83
					c-3.76,13.19-14.46,19.64-14.46,19.64s5.05,4.1,18.12,2.49c10.29-1.27,19.35-14.5,22.74-20.08c1.58,1.82,4.88,5.99,5.55,9.74
					c0.88,4.97,0.28,14.89,3.19,14.92C4051.24-171.53,4059.38-185.67,4053.5-195.03z"/><path class="st17" d="M4033.19-159.6c0,0,0.25,2.45,6.23,2.86c0,0,5.01,0.34,5.2-2.3
					C4044.62-159.05,4040.03-161.53,4033.19-159.6z"/><path class="st40" d="M4093.86-11.3c-0.16,0.51-0.37,0.99-0.64,1.43c-3.03,4.88-52.97,5.13-58.67,1.03
					c-2.55-1.83-3.37-33.23,3.65-60.31c1.67,16.22-1.39,48.66,7.1,51.3C4054.94-14.84,4081.22-14.78,4093.86-11.3z"/><path class="st56" d="M4046.04-68.29c-19.82,57.23-10.79,67.58-17.87,72.54c-0.04,0.02-5.94,1.71-5.98,1.74
					c-7.35,4.87-6.61-2.09-28.55,4.22c-10.45,3.01-23.86,7.04-35.38,8.97c-4.34,0.72-8.4,1.15-11.93,1.1
					c-6.77-0.08-11.6-1.89-12.64-6.61c-3.02-13.71,24.14-45.55,21.55-70.02c-0.02-0.21-0.04-0.42-0.06-0.63
					c-0.14-2.13,0.09-4.52,0.64-7.11c2.77-13.1,13.63-31.27,24.42-46.57c11.92-16.89,23.75-30.3,24.57-29.66
					c23.29,18.24,27.18,6.09,27.18,6.09S4052.8-87.81,4046.04-68.29z"/><path class="st40" d="M4024.3,5.43C4024.26,5.45,4024.34,5.4,4024.3,5.43c-7.35,4.87-8.73-1.52-30.66,4.78
					c-10.45,3.01-23.86,7.04-35.38,8.97c-5.79,0.25-10.11,0.58-11.93,1.1c-6.77-0.08-11.6-1.89-12.64-6.61
					c-3.02-13.71,24.14-45.55,21.55-70.02c-0.02-0.21-0.04-0.42-0.06-0.63c-0.18-2.41,0.06-4.76,0.64-7.11
					c2.5-9.91,11.31-19.86,21.75-34.67c4.84,6.65,47.83,5.24,30.29,62.47C4002.49-18.75,4023.48-8.84,4024.3,5.43z"/><path class="st55" d="M4021.86,8.15c0,0,9.57-1,13.59,1.28s11.95,7.79,10.85,10.04c-1.09,2.26-11.32,2.21-15.26-0.7
					c-3.94-2.91-7.47-0.33-12.44-2.73C4013.63,13.64,4021.86,8.15,4021.86,8.15z"/><path class="st56" d="M4004.83-140.32c0,0-34.29-3.98-42.57,11.74c-8.28,15.72-13.91,74.01-7.21,92.63
					c6.7,18.62,54.61,48.83,60.15,50.5c5.54,1.68,10.21-6.59,10.1-7.57c-0.11-0.97-47.84-51.07-47.02-55.52
					C3979.09-52.98,4004.83-140.32,4004.83-140.32z"/></g></g></g><g><polygon class="st55" points="5150.38,1008.59 5138.13,1060.18 5119.78,1060.07 5119.11,1008.59 		"/><polygon class="st55" points="4996.05,1010.79 4961.2,1060.18 4947.62,1042.74 4968.59,1004 		"/><path class="st19" d="M5086.66,330.7c6.33-3.6,13.92-3.99,19.23-3.68c-1.37-1.41-4.06-1.93-4.06-1.93
			c3.29-0.49,10.64,2.78,10.64,2.78c45.79-17.64,52.99,49.78,52.03,65.45c-0.96,15.66,15.39,20.78,39.21,33.12
			c45.46,23.55,49.45,55.08,49.45,55.08c-0.35,0.21-0.72,0.45-1.12,0.72c-2.26-3.82-6.9-11-10.81-12.08
			c0.15,0.35,4.63,9.88,6.3,15.34c-13.41,10.2-38.5,32.81-55.98,48.83c0.08-3.13-0.05-7.58-1.19-9.93l-2.16,13.01
			c-9.36,8.6-15.81,14.65-15.81,14.65c1.16-12.66-57.25-79.46-87.72-99.47c-7.42-10.92-10.05-30.21-10.25-31.73
			c1.28,15.3,3.9,23.88,6.24,28.71C5054.85,425.83,5069.87,340.24,5086.66,330.7z"/><path class="st55" d="M5086.47,453.59c-0.15,0.07,14.71,7.79,25.89,4.73c10.52-2.87,17.39-16.51,17.25-16.54
			c-4.45-0.88-5.74-7-5.64-33.31l-2.01,0.4l-33.86,6.7c0,0,0.77,10.66,0.79,20.69C5088.91,444.7,5088.4,452.69,5086.47,453.59z"/><path class="st57" d="M5088.1,415.58c0,0,0.77,10.66,0.79,20.69c18.95-0.53,28.96-17.82,33.06-27.4L5088.1,415.58z"/><path class="st19" d="M5125.45,405.19c0,0,9.93-15.69,12.31-29.1c1.7-9.58-3.18-45.08-38.85-39.96c0,0-10.36,1.02-20.1,7.6
			c-7.75,5.23-18.92,16.52-6.43,47.5l3.25,10.46L5125.45,405.19z"/><path class="st15" d="M4953.15,1029.2l17.95,0.55l19.43,0.6c0,0,44.87-49.96,70.04-130.05c0.59-1.86,1.21-3.74,1.86-5.65
			c13.77-40.17,42.33-90.58,57.38-136.22c2.4-7.27,4.55-14.11,6.48-20.59c0.62-2.07,1.22-4.11,1.79-6.12
			c11.09-38.53,14.3-63.83,17.26-90.86l-108.67,0.87C5036.67,641.74,5019.12,826.31,4953.15,1029.2z"/><path class="st58" d="M5051.88,579.29c0.27,51.71-7.59,73.9-7.59,73.9s46.53,23.64,101.82,6.24c0.65-0.21,41.59-8.42,41.59-8.42
			c-0.93-2.09-12.22-37.87-13.12-39.78c-11.68-25.07-13.28-37.23-14.66-44.94c-2.57-14.39-2.62-29.28-1.34-43.32
			c3.37-37.17,13.41-68.03,13.41-68.03c-15.07-3.43-29.18-9.45-44.86-15.33c-3.61,4.49-14.63,9.19-24.2,8.98
			c-11.01-0.24-14.59-4.96-14.01-10.11c-11.74,6.53-21.1,12.7-21.1,12.7c-9.98,17.33-30.21,34.16-31.67,60.74
			C5035.77,518.45,5051.87,577.85,5051.88,579.29z"/><path class="st42" d="M4988.79,502.47c15.95-18.63,57.28-59.05,99.93-64.01l-36.8,71.7c0,0-2.07,12.29-12.97,19.45
			c-26.7,17.54-60.64,25.3-60.64,25.3s-22.99-10.03-54.41-33.05c-9.86-7.23-27.19-34.79-27.19-34.79l4.67-15.64
			c0,0,29.42,16.45,39.93,21.2c5.99,2.7,19.78,9.16,29.5,13.72C4977,509.25,4984.35,507.66,4988.79,502.47z"/><path class="st55" d="M5081.77,425.08c0,0,44.83,0.74,44.86-27.18c0.03-27.92,5.84-46.63-22.78-48.29s-34.19,9-36.47,18.31
			C5065.1,377.25,5070.11,424.17,5081.77,425.08z"/><path class="st19" d="M5083.43,348.93c0,0,12.27,32.76,31.11,37.6c18.84,4.84,27.01-0.2,27.01-0.2s-14.45-11.48-17.45-31.51
			C5124.1,354.82,5092.69,333.34,5083.43,348.93z"/><path class="st19" d="M5086.47,351.59c0,0-9.17,7.31-11.4,14.42c-2.23,7.11-3.24,21.75-7.51,21.25c0,0-9.25-22.27,1.15-34.86
			C5079.73,339.05,5086.47,351.59,5086.47,351.59z"/><path class="st55" d="M4901.39,471.43c0,0-6.32-22.78-31.36-19.56c-2.87,0.9-11.27,4.25-5.9,13.24
			c3.96,6.63,5.67,3.21,11.89,12.11c6.22,8.9,12.98,10.92,20.69,9.85L4901.39,471.43z"/><path class="st55" d="M5138.74,1057.3c0,0-1.48,10.22,2.34,21.15c0,0,3,13.68-10.47,13.94c-13.47,0.25-16.78-1.02-15.25-9.41
			c1.53-8.39,4.43-22.9,4.43-22.9L5138.74,1057.3z"/><path class="st59" d="M5114.08,1098.22c0,0,0.29,0.18,0.85,0.45h26.38c0.51-0.27,0.75-0.45,0.75-0.45
			c1.52-6.87-0.97-19.78-0.97-19.78c-15.26,13.98-24.81-0.35-24.81-0.35C5113.79,1084.07,5114.08,1098.22,5114.08,1098.22z"/><path class="st55" d="M4915.15,1084.34c0,0,24.84-27.57,32.47-41.61l18.47,9.46l-41.29,38.78l-9.66-1.27L4915.15,1084.34z"/><path class="st59" d="M4899.73,1098.67h34c3.28-2.45,6.33-8.11,10.13-15.71c2.02-4.05,6.58-6.29,11.25-7.52v22.96h7.05l6.68-24.41
			c4.39-8.08,0.35-15.41-2.75-21.8c-3.6-0.01-13.28,2.46-31.63,23.13c-6.04,6.79-12.7,9.22-19.31,9.01
			c-0.09,0.06-0.19,0.11-0.27,0.14C4903.81,1089.46,4900.64,1095.65,4899.73,1098.67z"/><path class="st42" d="M5088.91,438.47c0,0-25.94,64.07-26.7,77.04c-0.76,12.97-3.05,212.04-3.05,212.04s1.53,9.15-16.02,5.34
			c-17.54-3.81-22.12-7.63-22.12-7.63s16.78-122.8,12.2-165.51c-4.58-42.71,35.09-112.38,35.09-112.38L5088.91,438.47z"/><path class="st13" d="M4971.1,1029.75l19.43,0.6c0,0,44.87-49.96,70.04-130.05c0.59-1.86,1.21-3.74,1.86-5.65
			c13.77-40.17,42.33-90.58,57.38-136.22c2.4-7.27,4.55-14.11,6.48-20.59c0.62-2.07,1.22-4.11,1.79-6.12l-16-12.14
			c0,0-48.04,77.8-62.92,151.01C5036.23,934.2,4984.49,1010.72,4971.1,1029.75z"/><path class="st15" d="M5110.4,877.42c-0.27,35.6,1.53,117.46,6.16,151.35h17.21c9.51,0,14.26-0.14,14.26-0.14
			c11.63-58.92,19.91-107.67,25.93-149.69c4.94-34.48,9.34-64.03,12.71-89.48c3.4-25.61,5.77-47.05,6.61-65.16
			c0.13-2.85,0.23-5.63,0.28-8.32c0.05-2.71,0.07-5.34,0.05-7.89l-93.89-9.15C5100.9,761.32,5110.55,856.73,5110.4,877.42z"/><path class="st13" d="M5133.77,1028.77c9.51,0,14.26-0.14,14.26-0.14c11.63-58.92,19.91-107.67,25.93-149.69
			c4.94-34.48,9.34-64.03,12.71-89.48c3.4-25.61,5.77-47.05,6.61-65.16l-34.45,20.27c0,0,21.99,7.76,13.6,66.49
			C5164.04,869.79,5145.45,1020.45,5133.77,1028.77z"/><path class="st42" d="M5129.34,723.73c0,0,6.61,23.9,29.49,20.85c22.88-3.05,55.42-16.78,55.42-16.78s-9.78-30.9-21.94-71.49
			c-14.72-49.14-32.94-112.49-41.53-152.45c-2.41-11.2-4.06-20.55-4.67-27.24l-18.98-36.83c0,0-28.3,63.53-29.83,79.54
			C5095.78,535.34,5129.34,723.73,5129.34,723.73z"/><path class="st60" d="M5130.35,552.88c1.02,25.93,7.12,76.27,61.53,103.22c0.14,0.07,0.29,0.15,0.43,0.21
			c-14.72-49.14-32.94-112.49-41.53-152.45C5140.79,518.78,5129.79,538.6,5130.35,552.88z"/><g><rect x="4837.8" y="335.92" transform="matrix(0.7071 -0.7071 0.7071 0.7071 1148.8594 3541.9392)" class="st15" width="24.27" height="96.5"/><path class="st61" d="M5251.43,779.69l-5.99,5.99c-11.78,11.78-30.87,11.78-42.65,0l-333.91-333.91
				c-11.78-11.78-11.78-30.87,0-42.65l5.99-5.99c11.78-11.78,30.87-11.78,42.65,0l333.91,333.91
				C5263.2,748.82,5263.2,767.91,5251.43,779.69z"/><path class="st61" d="M4411.72-54.03c-111.45,111.45-111.45,292.14,0,403.59c111.45,111.45,292.14,111.45,403.59,0
				c111.45-111.45,111.45-292.14,0-403.59C4703.86-165.48,4523.17-165.48,4411.72-54.03z M4793.08,327.33
				c-99.17,99.17-259.96,99.17-359.13,0s-99.17-259.96,0-359.13c99.17-99.17,259.96-99.17,359.13,0S4892.25,228.15,4793.08,327.33z"/></g><path class="st55" d="M5152.18,516.93l-25.06-77.16c0.07,0.03,31.65,9.4,47.53,17.42c0,0,9.93,12.8,16.07,42.33
			c0,0,6.49,70.9-8,96.83c0,0-45.76,9.15-118.98-16.02v-16.78c0,0,80.09,4.2,96.48,6.1L5152.18,516.93z"/><path class="st42" d="M5127.13,439.77c0,0,46.45,3.27,57.63,28.19c11.19,24.92,14.75,107.8,0.51,132.21c0,0-19.6,5.58-54.27-0.9
			c-0.42-0.08-0.85-0.16-1.28-0.24c0,0-11.06-27.08-1.14-32.42c0,0,29.24,1.53,26.19-8.14
			C5151.71,548.81,5127.13,439.77,5127.13,439.77z"/><path class="st55" d="M5071.95,568.02c0,0-6.38-7.73-7.74-15.63c-1.36-7.89-5.58-13.75-16.6-15.2c-11.01-1.45-15.75-1.6-15.72,1.5
			s9,24.78,24.8,37.72C5072.5,589.36,5071.95,568.02,5071.95,568.02z"/></g><g><path class="st62" d="M4725.97-81.75l-340.1,340.1c5.55,11.23,11.9,22,18.99,32.22l353.33-353.33
			C4747.97-69.85,4737.2-76.2,4725.97-81.75z"/><path class="st62" d="M4702.64-91.84c-27.69-10.36-57.66-16.03-88.96-16.03c-140.25,0-253.94,113.69-253.94,253.94
			c0,31.3,5.68,61.27,16.03,88.96L4702.64-91.84z"/><path class="st62" d="M4501.2,373.78c33.91,16.78,72.09,26.23,112.49,26.23c140.25,0,253.94-113.69,253.94-253.94
			c0-40.4-9.45-78.58-26.23-112.49L4501.2,373.78z"/></g><path class="st63" d="M3197.65,1103.27h2577.4c1.27,0,2.3-1.03,2.3-2.3l0,0c0-1.26-1.03-2.3-2.3-2.3h-2577.4
		c-1.26,0-2.3,1.03-2.3,2.3l0,0C3195.35,1102.24,3196.39,1103.27,3197.65,1103.27z"/></g></svg>