<?xml version="1.0" encoding="utf-8"?><!--Generator: Adobe Illustrator 25.2.1, SVG Export Plug-In . SVG Version: 6.00 Build 0)--><svg version="1.1" id="_x3C_Layer_x3E_" xmlns="http://www.w3.org/2000/svg" xmlns:xlink="http://www.w3.org/1999/xlink" x="0px" y="0px" viewBox="0 0 2486.89 1389.39" style="enable-background:new 0 0 2486.89 1389.39" xml:space="preserve"><style type="text/css">.st0{fill:#E6F2FB;}
	.st1{opacity:0.4;}
	.st2{fill:#8C9DF4;}
	.st3{fill:#505ABA;}
	.st4{fill:#FFFFFF;}
	.st5{fill:#AEC3FF;}
	.st6{fill:#F99746;}
	.st7{fill:#BDD1F9;}
	.st8{fill:#35488B;}
	.st9{fill:#2C3A64;}
	.st10{fill:#DDE7FE;}
	.st11{fill:#6C7AFF;}
	.st12{fill:#8FADEF;}
	.st13{fill:#F77D48;}
	.st14{fill:#FF8C64;}
	.st15{fill:#2A3967;}
	.st16{fill:#344670;}
	.st17{fill:#1E3459;}
	.st18{fill:#C5D8F4;}
	.st19{fill:#FF912B;}
	.st20{fill:#FFB27D;}
	.st21{fill:#1F3B68;}
	.st22{fill:#233862;}
	.st23{fill:#182842;}
	.st24{fill:#007451;}
	.st25{fill:#00964B;}
	.st26{fill:#ED985F;}
	.st27{fill:#0B3563;}
	.st28{fill:#0D458E;}
	.st29{fill:#ED975D;}
	.st30{fill:#D1D3D7;}
	.st31{opacity:0.5;}
	.st32{fill:#E2E7F4;}
	.st33{fill:#113C68;}
	.st34{fill:#2A4E96;}
	.st35{fill:#15447C;}
	.st36{fill:#FCA56B;}
	.st37{fill:#163560;}
	.st38{fill:#1F4D84;}
	.st39{fill:#739AF0;}
	.st40{fill:#B3CFF9;}</style><g><g><path class="st0" d="M2370.33,1377.89c-133.64,0-2139.89,0.48-2141.02-3.01l-0.19-0.44c0,0-0.19-0.43-0.19-0.65
			c-0.74-1.74-386.33-157.05-132.16-504.46C229.98,687.27-7.82,408.52,275.3,162.56c443.67-385.43,867.07,89.31,1046.54,0
			c150.85-75.07,393.27-182.64,639.34-86.18c67.61,26.51,214.03,159.46,92.44,383.05c-60.75,111.72,208.83,124.69,307.45,243.39
			C2575.83,961.32,2450.24,1377.89,2370.33,1377.89z"/></g><g class="st1"><g><g><path class="st2" d="M319.52,706.84h86.33c7.6,0,13.76-6.16,13.76-13.76V329.72c0-7.6-6.16-13.76-13.76-13.76h-86.33
					c-7.6,0-13.76,6.16-13.76,13.76v363.36C305.76,700.68,311.92,706.84,319.52,706.84z"/></g><g><path class="st3" d="M389.37,622.53c0-14.74-11.95-26.68-26.68-26.68S336,607.8,336,622.53c0,14.74,11.95,26.68,26.68,26.68
					S389.37,637.27,389.37,622.53z"/></g><g><path class="st4" d="M362.68,652.2c-16.27,0-29.51-13.24-29.51-29.51c0-16.27,13.24-29.51,29.51-29.51
					c16.27,0,29.51,13.24,29.51,29.51C392.19,638.96,378.96,652.2,362.68,652.2z M362.68,598.83c-13.16,0-23.86,10.7-23.86,23.86
					c0,13.16,10.7,23.86,23.86,23.86c13.16,0,23.86-10.7,23.86-23.86C386.54,609.53,375.84,598.83,362.68,598.83z"/></g><g><path class="st5" d="M334.41,553.56h56.51c2.81,0,5.08-2.28,5.08-5.08V338.93c0-2.81-2.28-5.08-5.08-5.08h-56.51
					c-2.81,0-5.08,2.28-5.08,5.08v209.54C329.33,551.28,331.61,553.56,334.41,553.56z"/></g><g><path class="st6" d="M341.19,350.61h41.6c2.23,0,4.05-1.81,4.05-4.05v-0.72c0-2.24-1.81-4.05-4.05-4.05h-41.6
					c-2.23,0-4.05,1.81-4.05,4.05v0.72C337.15,348.8,338.96,350.61,341.19,350.61z"/></g><g><g><path class="st3" d="M371.19,482.22v45.29c0,1.22,0.99,2.2,2.2,2.2l0,0c1.22,0,2.2-0.99,2.2-2.2v-45.29
						c0-1.22-0.99-2.2-2.2-2.2l0,0C372.17,480.01,371.19,481,371.19,482.22z"/></g><g><path class="st3" d="M371.19,419.91v45.29c0,1.22,0.99,2.2,2.2,2.2l0,0c1.22,0,2.2-0.99,2.2-2.2v-45.29
						c0-1.22-0.99-2.2-2.2-2.2l0,0C372.17,417.71,371.19,418.7,371.19,419.91z"/></g><g><path class="st3" d="M345.92,482.22v45.29c0,1.22,0.99,2.2,2.2,2.2l0,0c1.22,0,2.2-0.99,2.2-2.2v-45.29
						c0-1.22-0.99-2.2-2.2-2.2l0,0C346.91,480.01,345.92,481,345.92,482.22z"/></g><g><path class="st3" d="M345.92,419.91v45.29c0,1.22,0.99,2.2,2.2,2.2l0,0c1.22,0,2.2-0.99,2.2-2.2v-45.29
						c0-1.22-0.99-2.2-2.2-2.2l0,0C346.91,417.71,345.92,418.7,345.92,419.91z"/></g><g><path class="st3" d="M359.07,469.43v58.07c0,1.22,0.99,2.2,2.2,2.2l0,0c1.22,0,2.2-0.99,2.2-2.2v-58.07
						c0-1.22-0.99-2.2-2.2-2.2l0,0C360.06,467.23,359.07,468.22,359.07,469.43z"/></g><g><path class="st3" d="M359.07,391.11v58.07c0,1.22,0.99,2.2,2.2,2.2l0,0c1.22,0,2.2-0.99,2.2-2.2v-58.07
						c0-1.22-0.99-2.2-2.2-2.2l0,0C360.06,388.9,359.07,389.89,359.07,391.11z"/></g></g></g><g><g><path class="st2" d="M461.5,706.84h86.34c7.6,0,13.76-6.16,13.76-13.76V329.72c0-7.6-6.16-13.76-13.76-13.76H461.5
					c-7.6,0-13.76,6.16-13.76,13.76v363.36C447.74,700.68,453.9,706.84,461.5,706.84z"/></g><g><path class="st3" d="M531.35,622.53c0-14.74-11.95-26.68-26.68-26.68c-14.74,0-26.68,11.95-26.68,26.68
					c0,14.74,11.95,26.68,26.68,26.68C519.4,649.22,531.35,637.27,531.35,622.53z"/></g><g><path class="st4" d="M504.67,652.2c-16.27,0-29.51-13.24-29.51-29.51c0-16.27,13.24-29.51,29.51-29.51
					c16.27,0,29.51,13.24,29.51,29.51C534.17,638.96,520.94,652.2,504.67,652.2z M504.67,598.83c-13.16,0-23.86,10.7-23.86,23.86
					c0,13.16,10.7,23.86,23.86,23.86c13.15,0,23.86-10.7,23.86-23.86C528.52,609.53,517.82,598.83,504.67,598.83z"/></g><g><path class="st5" d="M476.4,553.56h56.51c2.81,0,5.08-2.28,5.08-5.08V338.93c0-2.81-2.28-5.08-5.08-5.08H476.4
					c-2.81,0-5.08,2.28-5.08,5.08v209.54C471.31,551.28,473.59,553.56,476.4,553.56z"/></g><g><path class="st6" d="M483.17,350.61h41.6c2.24,0,4.05-1.81,4.05-4.05v-0.72c0-2.24-1.81-4.05-4.05-4.05h-41.6
					c-2.24,0-4.05,1.81-4.05,4.05v0.72C479.13,348.8,480.94,350.61,483.17,350.61z"/></g><g><g><path class="st3" d="M513.17,482.22v45.29c0,1.22,0.99,2.2,2.2,2.2l0,0c1.22,0,2.2-0.99,2.2-2.2v-45.29
						c0-1.22-0.99-2.2-2.2-2.2l0,0C514.15,480.01,513.17,481,513.17,482.22z"/></g><g><path class="st3" d="M513.17,419.91v45.29c0,1.22,0.99,2.2,2.2,2.2l0,0c1.22,0,2.2-0.99,2.2-2.2v-45.29
						c0-1.22-0.99-2.2-2.2-2.2l0,0C514.15,417.71,513.17,418.7,513.17,419.91z"/></g><g><path class="st3" d="M487.9,482.22v45.29c0,1.22,0.99,2.2,2.2,2.2l0,0c1.22,0,2.2-0.99,2.2-2.2v-45.29c0-1.22-0.99-2.2-2.2-2.2
						l0,0C488.89,480.01,487.9,481,487.9,482.22z"/></g><g><path class="st3" d="M487.9,419.91v45.29c0,1.22,0.99,2.2,2.2,2.2l0,0c1.22,0,2.2-0.99,2.2-2.2v-45.29c0-1.22-0.99-2.2-2.2-2.2
						l0,0C488.89,417.71,487.9,418.7,487.9,419.91z"/></g><g><path class="st3" d="M501.05,469.43v58.07c0,1.22,0.99,2.2,2.2,2.2l0,0c1.22,0,2.2-0.99,2.2-2.2v-58.07
						c0-1.22-0.99-2.2-2.2-2.2l0,0C502.04,467.23,501.05,468.22,501.05,469.43z"/></g><g><path class="st3" d="M501.05,391.11v58.07c0,1.22,0.99,2.2,2.2,2.2l0,0c1.22,0,2.2-0.99,2.2-2.2v-58.07
						c0-1.22-0.99-2.2-2.2-2.2l0,0C502.04,388.9,501.05,389.89,501.05,391.11z"/></g></g></g><g><g><path class="st2" d="M606.19,706.84h86.34c7.6,0,13.76-6.16,13.76-13.76V329.72c0-7.6-6.16-13.76-13.76-13.76h-86.34
					c-7.6,0-13.76,6.16-13.76,13.76v363.36C592.43,700.68,598.59,706.84,606.19,706.84z"/></g><g><path class="st3" d="M676.04,622.53c0-14.74-11.95-26.68-26.68-26.68c-14.74,0-26.68,11.95-26.68,26.68
					c0,14.74,11.95,26.68,26.68,26.68C664.09,649.22,676.04,637.27,676.04,622.53z"/></g><g><path class="st4" d="M649.36,652.2c-16.27,0-29.51-13.24-29.51-29.51c0-16.27,13.24-29.51,29.51-29.51s29.51,13.24,29.51,29.51
					C678.87,638.96,665.63,652.2,649.36,652.2z M649.36,598.83c-13.16,0-23.86,10.7-23.86,23.86c0,13.16,10.7,23.86,23.86,23.86
					c13.16,0,23.86-10.7,23.86-23.86C673.22,609.53,662.51,598.83,649.36,598.83z"/></g><g><path class="st5" d="M621.09,553.56h56.51c2.81,0,5.08-2.28,5.08-5.08V338.93c0-2.81-2.28-5.08-5.08-5.08h-56.51
					c-2.81,0-5.08,2.28-5.08,5.08v209.54C616.01,551.28,618.28,553.56,621.09,553.56z"/></g><g><path class="st6" d="M627.87,350.61h41.6c2.23,0,4.05-1.81,4.05-4.05v-0.72c0-2.24-1.81-4.05-4.05-4.05h-41.6
					c-2.24,0-4.05,1.81-4.05,4.05v0.72C623.82,348.8,625.63,350.61,627.87,350.61z"/></g><g><g><path class="st3" d="M657.86,482.22v45.29c0,1.22,0.99,2.2,2.2,2.2l0,0c1.22,0,2.2-0.99,2.2-2.2v-45.29
						c0-1.22-0.99-2.2-2.2-2.2l0,0C658.85,480.01,657.86,481,657.86,482.22z"/></g><g><path class="st3" d="M657.86,419.91v45.29c0,1.22,0.99,2.2,2.2,2.2l0,0c1.22,0,2.2-0.99,2.2-2.2v-45.29
						c0-1.22-0.99-2.2-2.2-2.2l0,0C658.85,417.71,657.86,418.7,657.86,419.91z"/></g><g><path class="st3" d="M632.6,482.22v45.29c0,1.22,0.99,2.2,2.2,2.2l0,0c1.22,0,2.2-0.99,2.2-2.2v-45.29c0-1.22-0.99-2.2-2.2-2.2
						l0,0C633.58,480.01,632.6,481,632.6,482.22z"/></g><g><path class="st3" d="M632.6,419.91v45.29c0,1.22,0.99,2.2,2.2,2.2l0,0c1.22,0,2.2-0.99,2.2-2.2v-45.29c0-1.22-0.99-2.2-2.2-2.2
						l0,0C633.58,417.71,632.6,418.7,632.6,419.91z"/></g><g><path class="st3" d="M645.74,469.43v58.07c0,1.22,0.99,2.2,2.2,2.2l0,0c1.22,0,2.2-0.99,2.2-2.2v-58.07
						c0-1.22-0.99-2.2-2.2-2.2l0,0C646.73,467.23,645.74,468.22,645.74,469.43z"/></g><g><path class="st3" d="M645.74,391.11v58.07c0,1.22,0.99,2.2,2.2,2.2l0,0c1.22,0,2.2-0.99,2.2-2.2v-58.07
						c0-1.22-0.99-2.2-2.2-2.2l0,0C646.73,388.9,645.74,389.89,645.74,391.11z"/></g></g></g><g><g><path class="st2" d="M755.2,706.84h86.34c7.6,0,13.75-6.16,13.75-13.76V329.72c0-7.6-6.16-13.76-13.75-13.76H755.2
					c-7.6,0-13.76,6.16-13.76,13.76v363.36C741.44,700.68,747.6,706.84,755.2,706.84z"/></g><g><path class="st5" d="M770.1,553.56h56.51c2.81,0,5.08-2.28,5.08-5.08V338.93c0-2.81-2.28-5.08-5.08-5.08H770.1
					c-2.81,0-5.08,2.28-5.08,5.08v209.54C765.01,551.28,767.29,553.56,770.1,553.56z"/></g><g><path class="st6" d="M776.87,350.61h41.6c2.24,0,4.05-1.81,4.05-4.05v-0.72c0-2.24-1.81-4.05-4.05-4.05h-41.6
					c-2.24,0-4.05,1.81-4.05,4.05v0.72C772.83,348.8,774.64,350.61,776.87,350.61z"/></g></g><g><g><path class="st2" d="M899,706.84h86.33c7.6,0,13.76-6.16,13.76-13.76V329.72c0-7.6-6.16-13.76-13.76-13.76H899
					c-7.6,0-13.76,6.16-13.76,13.76v363.36C885.24,700.68,891.4,706.84,899,706.84z"/></g><g><path class="st5" d="M913.9,553.56h56.51c2.81,0,5.08-2.28,5.08-5.08V338.93c0-2.81-2.27-5.08-5.08-5.08H913.9
					c-2.81,0-5.08,2.28-5.08,5.08v209.54C908.82,551.28,911.09,553.56,913.9,553.56z"/></g><g><path class="st6" d="M920.68,350.61h41.6c2.23,0,4.05-1.81,4.05-4.05v-0.72c0-2.24-1.81-4.05-4.05-4.05h-41.6
					c-2.24,0-4.05,1.81-4.05,4.05v0.72C916.63,348.8,918.44,350.61,920.68,350.61z"/></g></g><g><g><path class="st2" d="M319.52,1148.94h86.33c7.6,0,13.76-6.16,13.76-13.76V771.83c0-7.6-6.16-13.75-13.76-13.75h-86.33
					c-7.6,0-13.76,6.16-13.76,13.75v363.36C305.76,1142.78,311.92,1148.94,319.52,1148.94z"/></g><g><circle class="st3" cx="362.68" cy="1064.64" r="26.68"/></g><g><path class="st4" d="M362.68,1094.3c-16.27,0-29.51-13.24-29.51-29.51c0-16.27,13.24-29.51,29.51-29.51
					c16.27,0,29.51,13.24,29.51,29.51C392.19,1081.07,378.96,1094.3,362.68,1094.3z M362.68,1040.94
					c-13.16,0-23.86,10.7-23.86,23.86c0,13.16,10.7,23.86,23.86,23.86c13.16,0,23.86-10.7,23.86-23.86
					C386.54,1051.64,375.84,1040.94,362.68,1040.94z"/></g><g><path class="st5" d="M334.41,995.67h56.51c2.81,0,5.08-2.28,5.08-5.08V781.04c0-2.81-2.28-5.08-5.08-5.08h-56.51
					c-2.81,0-5.08,2.28-5.08,5.08v209.54C329.33,993.39,331.61,995.67,334.41,995.67z"/></g><g><path class="st6" d="M341.19,792.72h41.6c2.23,0,4.05-1.81,4.05-4.05v-0.72c0-2.24-1.81-4.05-4.05-4.05h-41.6
					c-2.23,0-4.05,1.81-4.05,4.05v0.72C337.15,790.91,338.96,792.72,341.19,792.72z"/></g><g><g><path class="st3" d="M371.19,924.32v45.29c0,1.22,0.99,2.2,2.2,2.2l0,0c1.22,0,2.2-0.99,2.2-2.2v-45.29
						c0-1.22-0.99-2.2-2.2-2.2l0,0C372.17,922.12,371.19,923.11,371.19,924.32z"/></g><g><path class="st3" d="M371.19,862.02v45.29c0,1.22,0.99,2.2,2.2,2.2l0,0c1.22,0,2.2-0.99,2.2-2.2v-45.29
						c0-1.22-0.99-2.2-2.2-2.2l0,0C372.17,859.82,371.19,860.8,371.19,862.02z"/></g><g><path class="st3" d="M345.92,924.32v45.29c0,1.22,0.99,2.2,2.2,2.2l0,0c1.22,0,2.2-0.99,2.2-2.2v-45.29
						c0-1.22-0.99-2.2-2.2-2.2l0,0C346.91,922.12,345.92,923.11,345.92,924.32z"/></g><g><path class="st3" d="M345.92,862.02v45.29c0,1.22,0.99,2.2,2.2,2.2l0,0c1.22,0,2.2-0.99,2.2-2.2v-45.29
						c0-1.22-0.99-2.2-2.2-2.2l0,0C346.91,859.82,345.92,860.8,345.92,862.02z"/></g><g><path class="st3" d="M359.07,911.54v58.07c0,1.22,0.99,2.2,2.2,2.2l0,0c1.22,0,2.2-0.99,2.2-2.2v-58.07
						c0-1.22-0.99-2.2-2.2-2.2l0,0C360.06,909.34,359.07,910.33,359.07,911.54z"/></g><g><path class="st3" d="M359.07,833.21v58.07c0,1.22,0.99,2.2,2.2,2.2l0,0c1.22,0,2.2-0.99,2.2-2.2v-58.07
						c0-1.22-0.99-2.2-2.2-2.2l0,0C360.06,831.01,359.07,832,359.07,833.21z"/></g></g></g><g><g><path class="st2" d="M461.5,1148.94h86.34c7.6,0,13.76-6.16,13.76-13.76V771.83c0-7.6-6.16-13.75-13.76-13.75H461.5
					c-7.6,0-13.76,6.16-13.76,13.75v363.36C447.74,1142.78,453.9,1148.94,461.5,1148.94z"/></g><g><path class="st3" d="M531.35,1064.64c0-14.74-11.95-26.68-26.68-26.68c-14.74,0-26.68,11.95-26.68,26.68
					c0,14.74,11.95,26.68,26.68,26.68C519.4,1091.32,531.35,1079.38,531.35,1064.64z"/></g><g><path class="st4" d="M504.67,1094.3c-16.27,0-29.51-13.24-29.51-29.51c0-16.27,13.24-29.51,29.51-29.51
					c16.27,0,29.51,13.24,29.51,29.51C534.17,1081.07,520.94,1094.3,504.67,1094.3z M504.67,1040.94
					c-13.16,0-23.86,10.7-23.86,23.86c0,13.16,10.7,23.86,23.86,23.86c13.15,0,23.86-10.7,23.86-23.86
					C528.52,1051.64,517.82,1040.94,504.67,1040.94z"/></g><g><path class="st5" d="M476.4,995.67h56.51c2.81,0,5.08-2.28,5.08-5.08V781.04c0-2.81-2.28-5.08-5.08-5.08H476.4
					c-2.81,0-5.08,2.28-5.08,5.08v209.54C471.31,993.39,473.59,995.67,476.4,995.67z"/></g><g><path class="st6" d="M483.17,792.72h41.6c2.24,0,4.05-1.81,4.05-4.05v-0.72c0-2.24-1.81-4.05-4.05-4.05h-41.6
					c-2.24,0-4.05,1.81-4.05,4.05v0.72C479.13,790.91,480.94,792.72,483.17,792.72z"/></g><g><g><path class="st3" d="M513.17,924.32v45.29c0,1.22,0.99,2.2,2.2,2.2l0,0c1.22,0,2.2-0.99,2.2-2.2v-45.29
						c0-1.22-0.99-2.2-2.2-2.2l0,0C514.15,922.12,513.17,923.11,513.17,924.32z"/></g><g><path class="st3" d="M513.17,862.02v45.29c0,1.22,0.99,2.2,2.2,2.2l0,0c1.22,0,2.2-0.99,2.2-2.2v-45.29
						c0-1.22-0.99-2.2-2.2-2.2l0,0C514.15,859.82,513.17,860.8,513.17,862.02z"/></g><g><path class="st3" d="M487.9,924.32v45.29c0,1.22,0.99,2.2,2.2,2.2l0,0c1.22,0,2.2-0.99,2.2-2.2v-45.29c0-1.22-0.99-2.2-2.2-2.2
						l0,0C488.89,922.12,487.9,923.11,487.9,924.32z"/></g><g><path class="st3" d="M487.9,862.02v45.29c0,1.22,0.99,2.2,2.2,2.2l0,0c1.22,0,2.2-0.99,2.2-2.2v-45.29c0-1.22-0.99-2.2-2.2-2.2
						l0,0C488.89,859.82,487.9,860.8,487.9,862.02z"/></g><g><path class="st3" d="M501.05,911.54v58.07c0,1.22,0.99,2.2,2.2,2.2l0,0c1.22,0,2.2-0.99,2.2-2.2v-58.07
						c0-1.22-0.99-2.2-2.2-2.2l0,0C502.04,909.34,501.05,910.33,501.05,911.54z"/></g><g><path class="st3" d="M501.05,833.21v58.07c0,1.22,0.99,2.2,2.2,2.2l0,0c1.22,0,2.2-0.99,2.2-2.2v-58.07
						c0-1.22-0.99-2.2-2.2-2.2l0,0C502.04,831.01,501.05,832,501.05,833.21z"/></g></g></g><g><g><path class="st2" d="M606.19,1148.94h86.34c7.6,0,13.76-6.16,13.76-13.76V771.83c0-7.6-6.16-13.75-13.76-13.75h-86.34
					c-7.6,0-13.76,6.16-13.76,13.75v363.36C592.43,1142.78,598.59,1148.94,606.19,1148.94z"/></g></g><g><g><path class="st2" d="M755.2,1148.94h86.34c7.6,0,13.75-6.16,13.75-13.76V771.83c0-7.6-6.16-13.75-13.75-13.75H755.2
					c-7.6,0-13.76,6.16-13.76,13.75v363.36C741.44,1142.78,747.6,1148.94,755.2,1148.94z"/></g></g><g><g><path class="st2" d="M899,1148.94h86.33c7.6,0,13.76-6.16,13.76-13.76V771.83c0-7.6-6.16-13.75-13.76-13.75H899
					c-7.6,0-13.76,6.16-13.76,13.75v363.36C885.24,1142.78,891.4,1148.94,899,1148.94z"/></g></g><g><path class="st7" d="M275.3,1377.91L275.3,1377.91c-7.56,0-13.69-6.13-13.69-13.69V275.51c0-7.56,6.13-13.69,13.69-13.69l0,0
				c7.56,0,13.69,6.13,13.69,13.69v1088.71C288.99,1371.79,282.86,1377.91,275.3,1377.91z"/></g><g><rect x="261.62" y="706.88" transform="matrix(-1 -1.224647e-16 1.224647e-16 -1 1314.0748 1424.7631)" class="st7" width="790.84" height="10.99"/></g><g><rect x="261.62" y="1148.77" transform="matrix(-1 -1.224647e-16 1.224647e-16 -1 1363.1803 2308.5288)" class="st7" width="839.94" height="10.99"/></g></g><g><g><rect x="2214.67" y="968.26" transform="matrix(-1 -1.224647e-16 1.224647e-16 -1 4494.0005 2145.1411)" class="st8" width="64.67" height="208.62"/></g><g><rect x="2058.72" y="968.26" transform="matrix(-1 -1.224647e-16 1.224647e-16 -1 4273.3833 2145.1411)" class="st9" width="155.95" height="208.62"/></g><g><path class="st10" d="M2257.79,994.32c0-5.96-4.83-10.79-10.79-10.79c-5.96,0-10.79,4.83-10.79,10.79
				c0,5.96,4.83,10.79,10.79,10.79C2252.96,1005.11,2257.79,1000.28,2257.79,994.32z"/></g><g><path class="st11" d="M2254.63,994.32c0-4.22-3.42-7.63-7.63-7.63c-4.21,0-7.63,3.42-7.63,7.63c0,4.21,3.42,7.63,7.63,7.63
				C2251.22,1001.95,2254.63,998.53,2254.63,994.32z"/></g><g><rect x="2231.55" y="1020.32" transform="matrix(-1 -1.224647e-16 1.224647e-16 -1 4493.5264 2095.5864)" class="st12" width="30.42" height="54.95"/></g></g><g><g><rect x="2094.03" y="968.26" transform="matrix(-1 -1.224647e-16 1.224647e-16 -1 4252.7231 2145.1411)" class="st8" width="64.67" height="208.62"/></g><g><rect x="1938.08" y="968.26" transform="matrix(-1 -1.224647e-16 1.224647e-16 -1 4032.1062 2145.1411)" class="st9" width="155.95" height="208.62"/></g><g><path class="st10" d="M2137.16,994.32c0-5.96-4.83-10.79-10.79-10.79c-5.96,0-10.79,4.83-10.79,10.79
				c0,5.96,4.83,10.79,10.79,10.79C2132.32,1005.11,2137.16,1000.28,2137.16,994.32z"/></g><g><path class="st11" d="M2133.99,994.32c0-4.22-3.42-7.63-7.63-7.63c-4.21,0-7.63,3.42-7.63,7.63c0,4.21,3.42,7.63,7.63,7.63
				C2130.58,1001.95,2133.99,998.53,2133.99,994.32z"/></g><g><rect x="2110.92" y="1020.32" transform="matrix(-1 -1.224647e-16 1.224647e-16 -1 4252.2485 2095.5864)" class="st12" width="30.42" height="54.95"/></g></g><g><g><rect x="1983.72" y="968.26" transform="matrix(-1 -1.224647e-16 1.224647e-16 -1 4032.1072 2145.1411)" class="st8" width="64.67" height="208.62"/></g><g><rect x="1827.77" y="968.26" transform="matrix(-1 -1.224647e-16 1.224647e-16 -1 3811.491 2145.1411)" class="st9" width="155.95" height="208.62"/></g><g><path class="st10" d="M2026.85,994.32c0-5.96-4.83-10.79-10.79-10.79c-5.96,0-10.79,4.83-10.79,10.79
				c0,5.96,4.83,10.79,10.79,10.79C2022.02,1005.11,2026.85,1000.28,2026.85,994.32z"/></g><g><path class="st11" d="M2023.69,994.32c0-4.22-3.42-7.63-7.63-7.63c-4.21,0-7.63,3.42-7.63,7.63c0,4.21,3.42,7.63,7.63,7.63
				C2020.27,1001.95,2023.69,998.53,2023.69,994.32z"/></g><g><rect x="2000.61" y="1020.32" transform="matrix(-1 -1.224647e-16 1.224647e-16 -1 4031.6316 2095.5864)" class="st12" width="30.42" height="54.95"/></g></g><g><g><rect x="1818.06" y="1104.12" transform="matrix(-1 -1.224647e-16 1.224647e-16 -1 4001.478 2478.1821)" class="st13" width="365.37" height="269.95"/></g><g><rect x="2013.85" y="1104.12" transform="matrix(-1 -1.224647e-16 1.224647e-16 -1 4317.3901 2478.1821)" class="st14" width="289.69" height="269.95"/></g><g><path class="st9" d="M2137.69,1148.19h75.04c4.65,0,8.45-3.8,8.45-8.45v-1.09c0-4.65-3.8-8.45-8.45-8.45h-75.04
				c-4.65,0-8.45,3.8-8.45,8.45v1.09C2129.24,1144.38,2133.04,1148.19,2137.69,1148.19z"/></g></g><g><g><path class="st15" d="M1267.7,751.31l-49.41,587.5c0,0-5.18,35.61,21.31,35.68c43.55,0.1,216.79,0,216.79,0
				s-32.78-7.41-32.38-24.09c0.47-19.66,57.75-604.64,57.75-604.64L1267.7,751.31z"/></g><g><path class="st16" d="M1472.69,1363.8c-8.57,0.03-176.28,0.31-218.69-0.24c-18.48-0.23-21.73-16.44-21.88-26.92
				c-0.08-5.03,0.56-8.75,0.56-8.75l1.29-15.27l3.28-38.92l2.89-34.38l3.72-44.18l3.13-37.29l35.11-417.46l214.06-5.55
				c0,0-24.12,244.81-41.19,423.01c-1.91,19.85-3.72,38.89-5.39,56.66c-0.54,5.67-1.06,11.22-1.57,16.62
				c-1.58,16.86-3.03,32.34-4.29,46.01c-0.66,7.21-1.28,13.9-1.83,20.03c-2.18,24.03-3.45,39.38-3.47,42.3
				c-0.01,1.7,0.14,3.28,0.42,4.76C1442.33,1362.95,1469.48,1363.8,1472.69,1363.8z"/></g><g><polygon class="st16" points="747.85,431.36 868.2,914.8 884.68,981.01 940.74,1206.17 1982.15,1206.17 1775.54,431.36 			"/></g><g><polygon class="st15" points="747.85,431.36 731.17,436.92 918.56,1222.99 940.74,1206.18 			"/></g><g><polygon class="st15" points="918.56,1222.99 1953.56,1222.99 1982.14,1206.18 940.74,1206.18 			"/></g><g><rect x="1282.02" y="1363.8" transform="matrix(-1 -1.224647e-16 1.224647e-16 -1 2788.1384 2738.2512)" class="st17" width="224.09" height="10.65"/></g><g><polygon class="st15" points="1449.15,1222.99 1447.99,1231.13 1237.24,1273.71 1240.14,1239.32 1241.51,1222.99 			"/></g><g><path class="st15" d="M1472.69,1363.8c-8.57,0.03-176.28,0.31-218.69-0.24c-18.48-0.23-21.73-16.44-21.88-26.92l209.75-39.46
				c-2.18,24.03-3.45,39.38-3.47,42.3c-0.01,1.7,0.14,3.28,0.42,4.76C1442.33,1362.95,1469.48,1363.8,1472.69,1363.8z"/></g><g><polygon class="st16" points="747.85,431.36 1775.54,431.36 1942.28,1054.07 902.87,1054.07 			"/></g><g><polygon class="st18" points="1893.81,1027.08 931.58,1027.08 897.19,890.1 883.89,837.1 878.47,815.49 843.12,674.72 
				841.3,667.39 822.61,592.98 814.25,559.69 807.13,531.29 801.31,508.13 790.41,464.72 1738.78,464.72 1750.74,508.13 
				1757.13,531.29 1764.95,559.69 1774.13,592.98 1834.6,812.32 1834.6,812.33 1839.72,830.92 1842.11,839.54 1883.85,990.97 			"/></g></g><path class="st19" d="M784.79,1066.74l-2.15-5.66c-5.43-14.3-21.39-12.48-35.89-12.48h-93.41v63.02v269.04h386.42v-300.8H821.08
		C805.13,1079.86,790.77,1082.47,784.79,1066.74z"/><g><g><g><path class="st9" d="M690.47,765.89c0,0,2.51-27.35-28.05-27.35c0,0,9.26,2.51,14.05,7.54c0,0-19.49-11.44-40.7,6.14
					c-21.21,17.58-8.03,61.68-14.48,70.05c-6.45,8.37-31.57,10.05-28.5,37.12c3.07,27.07,79.72,60.98,74.8,83.38
					c0,0,30.04-44.16,8.56-64.31c0,0,10.47,9.86,11.54,21.59c0,0,2.84-22.89-11.72-30.21c-12.89-6.48-23.45-30.17-22.33-34.4
					C654.75,831.2,690.47,765.89,690.47,765.89z"/></g><g><path class="st20" d="M660.39,897.21c0,0,22.83,94.45,45.24,113.34c13.47,11.35,50.01,37.49,50.01,37.49l-18.36,0.48
					c0,0-50.34-13.29-62.78-27.92c-12.44-14.62-46.49-87.9-46.49-87.9L660.39,897.21z"/></g><g><path class="st21" d="M445.81,1063.15c0.2,0.36,0.42,0.73,0.63,1.11c5,8.68,16.46,29.96,29.08,53.25
					c5.97,11.05,12.22,22.55,18.15,33.37c10.22,18.67,19.52,35.31,24.94,44.09c5.52,8.94,9.58,15.22,11.22,17.73
					c0.01,0.01,0.01,0.01,0.01,0.01c0.49,0.77,0.6,1.68,0.54,2.59c-0.57,7.88-0.41,15.71,0.36,23.42
					c7.61,75.75,58.7,116.35,58.7,116.35l15.19,2.24c0,0-21.49-79.63-27.83-124.65c-1.07-7.63-1.54-13.81-1.16-17.85
					c1.12-11.73-0.96-28.95-4.9-48.72c-7.01-35.13-19.88-78.25-31.06-112.77c-0.71-2.2-22.07-79.47-22.07-79.47
					C499.68,989.53,434.29,996,434.29,996S423.21,1022.96,445.81,1063.15z"/></g><g><path class="st22" d="M636.5,1376.53h-63.39c0,0-1.52-9.66,1.79-16.99c3.17-7.03,7.69-7.26,0.58-18.28
					c4.03,4.15,16.98,5.86,26.14,4.63c1.12,1.82,7.24,14.03,10.99,16.73C616.75,1365.59,635.23,1364.53,636.5,1376.53z"/></g><g><path class="st23" d="M445.81,1063.15c0.2,0.36,0.42,0.73,0.63,1.11c5,8.68,32.02,58.59,44.64,81.87
					c-14.63-60.18-4.45-120.36-4.45-120.36L445.81,1063.15z"/></g><g><path class="st9" d="M681.83,762.04c0.42-1.67-36.21,16.55-38.06,18.61c-17.17,19.05-12.28,43.91-2.45,44.15
					c6.3,0.15,5.08,10.63,5.08,10.63l70.21-29.7C716.61,805.73,708.15,756.43,681.83,762.04z"/></g><g><path class="st24" d="M658.23,883.03c0,0,10.68,21.34,9.35,38.67c0,0-12.88,20.34-46.3,25.49
					C621.28,947.18,650.01,883.01,658.23,883.03z"/></g><g><path class="st21" d="M495.23,1000.72l0.21-11.86c-23.62,2.98-81.45-28.23-81.45-28.23s-24.71,16.44-28.09,63.38
					c-1.65,22.91-12.1,119.8-13.25,148.73c-0.42,10.49-0.56,17.97-0.61,20.96c0.01,0.01,0,0.02,0,0.03c-0.01,0.91-0.44,1.72-1,2.44
					c-4.89,6.21-9.13,12.79-12.8,19.62c-36.04,67.06-17.2,158.19-17.2,158.19l8.37-2.13c0,0,30.48-94.46,50.4-135.33
					c3.38-6.93,6.45-12.32,9.02-15.44c7.49-9.1,15.39-24.54,23.17-43.14C446.71,1142.8,495.23,1000.72,495.23,1000.72z"/></g><g><path class="st22" d="M391.45,1376.53h-63.39c0,0-1.52-9.66,1.79-16.99c3.17-7.03,8.14-10.23,6.95-18.74
					c4.03,4.15,10.59,8.79,19.76,7.56c1.12,1.82,7.25,11.56,11,14.26C371.7,1365.59,390.17,1364.53,391.45,1376.53z"/></g><g><path class="st25" d="M617,960.79c-8.51,1.45,1.39,8.22-10.32,9.49c-16.67,1.82-33.88,3.06-42.89,6.66
					c-3.29,1.31-5.49,2.93-6.17,5c-3.91,11.75-28.66,31.94-28.66,31.94c-110.38-5.02-117.49-54.22-117.49-54.22
					c71.64-69.58,132.58-107.5,182.95-112.19c12.26-1.14,28.78,0.39,36.54,3.84c17.62,7.84,27.27,31.71,27.27,31.71
					S649.36,955.27,617,960.79z"/></g><g><path class="st24" d="M606.68,970.29c-16.67,1.82-33.88,3.06-42.89,6.66c-3.68-55.05,22.29-96.46,22.29-96.46
					S603.03,949.45,606.68,970.29z"/></g><g><path class="st20" d="M621.07,871.17c0,0-41.92-2.29-49.36,24.03c-7.45,26.32,13.97,131.36,18.59,142.2
					c8.41,19.74,50.78,78.53,50.78,78.53l13.58-7.04c0,0-27.28-86.06-33.37-94.58C611.72,1000.94,633.61,882.62,621.07,871.17z"/></g><g><path class="st20" d="M654.66,1108.89c0,0,3.5,3.05,6.32,6.49c2.82,3.44,0.34,4.69,8.44,20.29c0,0-0.41,2.17-2.17,1.77
					c-1.76-0.39-7.87-6.44-11-6.01c0,0-2.24,1.84-2.48,7.96c-0.23,5.72-0.25,18.37-1.24,20.74c-1,2.38-8.27-9.96-11.85-18.88
					c-3.14-7.82-0.08-34.2-0.08-34.2L654.66,1108.89z"/></g><g><path class="st25" d="M563.43,930.39c0.11,0.62,39.67,7.28,64.41-5.28c0,0,20.67-64.75-8.87-61.65
					c-29.54,3.1-47.03,12.4-47.77,26.54C570.46,904.14,563.43,930.39,563.43,930.39z"/></g><g><path class="st20" d="M630.02,855.85c0.43,5.24,1.1,11.38,7.95,18.44c5.25,5.41,12.85,9.63,18.18,4.3
					c2.72-2.72,6.39-6.77,8.25-9.97c4.61-7.92,10.1-16.02,10.1-16.02l-23.72-20.79l-1.42-1.24c-6.21,10.85-12.32,16.07-17.67,20.05
					C630.07,851.84,629.85,853.84,630.02,855.85z"/></g><g><path class="st26" d="M674.5,852.62c0,0-5.48,8.08-10.09,16.01c-14.75-9.09-14.76-27.35-13.63-36.8L674.5,852.62z"/></g><g><path class="st20" d="M675.16,863.03c0,0-35.8-19.92-23.05-42.03c12.75-22.11,16.72-39.57,40.11-27.78
					c23.4,11.79,22.94,22.76,20.47,31.17C710.23,832.81,684.8,867.65,675.16,863.03z"/></g><g><path class="st9" d="M718.74,811.51c-1.64-9.82-6.62-10.75-10.1-10.1c-13.22-21.87-34.82-13.33-34.82-13.33
					c-11.54,14.48-28.22,16.95-28.22,16.95s4.15,7.73,21.27,12.52c5.23,1.46,11.16,0.58,16.89-1.35c-11.88,6.62-24.3,9.16-24.3,9.16
					c22.56,2.07,44.02-18.56,46.25-20.77c1.04,3.2,2.87,9.89,1.77,14.78c-1.49,6.65-7.39,18.69-3.78,20.25
					C703.7,839.61,721.2,826.23,718.74,811.51z"/></g><g><path class="st20" d="M765.7,1047.99c0,0-9.99,7.49-2.46,12.39c7.53,4.9,20.97,6.22,21.03,3.01
					C784.46,1052.6,779.08,1044.93,765.7,1047.99z"/></g></g></g><g><path class="st22" d="M2452.45,1381.26H121.3c-1.52,0-2.76-1.24-2.76-2.76v-1.21c0-1.52,1.24-2.76,2.76-2.76h2331.15
			c1.52,0,2.76,1.24,2.76,2.76v1.21C2455.21,1380.02,2453.97,1381.26,2452.45,1381.26z"/></g><g><path class="st6" d="M1004.95,630.27l-8.88-13.1c-9.52-14.05-25.67-23.25-40.82-23.25h-97.62l16.94,61.94l67.21,245.78
			c3.01,11.02,13.02,18.66,24.44,18.66h351.26c16.72,0,28.85-15.9,24.44-32.02l-63.56-232.42h-228.51
			C1033.2,655.86,1015.42,645.73,1004.95,630.27z"/></g><g><g><g><path class="st20" d="M1015.08,556.54c-1.53,1.75-1.73,3.71-0.97,5.81c0,0.01,0.01,0.02,0.01,0.03c1.4,3.87,6.03,8.2,11.4,12.52
					c0.69,0.56,1.3,1.06,1.83,1.53c0.14,0.12,0.28,0.24,0.41,0.37c0.11,0.1,0.21,0.19,0.32,0.29c5.01,4.62,3.12,5.68,12.13,15.06
					c10.27,10.69,17.34,10.88,19.35,9.91c1.7-0.83-1.75-6.5-5.58-12.87c-0.19-0.31-0.37-0.62-0.56-0.93
					c-0.51-0.85-1.02-1.71-1.52-2.56c-4.49-7.67-3.33-11.26-2.26-22.67c0.87-9.27,14.44-51.79,14.44-51.79l-19.68-3.4
					c0,0-5.94,33.86-12.47,39.07c-3.49,2.78-7.4,2.81-10.76,4.87c-0.24,0.14-0.47,0.29-0.7,0.44
					C1018.56,553.48,1016.62,554.78,1015.08,556.54z"/></g><g><path class="st22" d="M1015.08,556.54c-1.53,1.75-1.73,3.71-0.97,5.81c0,0.01,0.01,0.02,0.01,0.03
					c1.71,3.87,6.22,8.17,11.42,12.48c0.68,0.56,1.28,1.08,1.81,1.57c0.14,0.12,0.28,0.24,0.41,0.37c0.11,0.1,0.21,0.19,0.32,0.29
					c5.01,4.62,3.12,5.68,12.13,15.06c10.27,10.69,17.34,10.88,19.35,9.91c1.7-0.83-1.75-6.5-5.58-12.87
					c-2-0.73-11.28-4.51-18.3-13.5c-5.96-7.61-10-17.3-14.05-23.25c-0.45-0.08-0.71-0.13-1.16-0.22
					C1018.56,553.48,1016.62,554.78,1015.08,556.54z"/></g><g><path class="st20" d="M1173.77,544.3c1.21,6.08,9.87,5.07,19.55,2.7c9.67-2.36,7.38,0.45,21.14-1.07
					c13.77-1.52,17.94-6.65,18.36-8.7c0.38-1.82-6.43-2.46-13.72-3.3c-0.92-0.1-1.84-0.22-2.76-0.33
					c-8.24-1.04-14.27-6.36-21.75-10.72c-7.09-4.14-17.66-20.99-17.66-20.99l-18.88,1.49c0,0,9.9,15.05,13.73,21.6
					c2.25,3.85,2.13,8.94,1.85,12.87C1173.48,539.98,1173.34,542.17,1173.77,544.3z"/></g><g><path class="st22" d="M1193.32,547.01c9.67-2.36,7.38,0.45,21.14-1.07c13.77-1.52,17.94-6.65,18.36-8.7
					c0.38-1.82-6.43-2.46-13.72-3.3l-0.07,0.14c0,0-8.26,5.85-19.72,6.12c-9.34,0.22-19.24-2.45-25.69-2.35
					c-0.15,2.14-0.29,4.32,0.14,6.46C1174.99,550.38,1183.65,549.37,1193.32,547.01z"/></g><g><path class="st27" d="M1101.45,423.54l-17.67,47.49l-23.07,62.01c0,0-6.25,0.6-12.24-1.12c-5.51-1.6-11.84-5.77-11.84-5.77
					s6.42-66.59,18.37-104.81c3.06-9.81,6.49-17.75,10.28-22.21C1083.8,377.27,1101.45,423.54,1101.45,423.54z"/></g><g><path class="st28" d="M1083.53,348.1c-10.05-3.24-36.26-0.06-64.7,5.07c-7.86,1.42-15.78-2.17-19.91-9l0,0l-71.56-5.61
					c0,0-23.63,52.36-10.72,85.73c1.9,4.9,6.07,7.97,12.5,8.07c0,0,0,0,0,0c0,0,43.24,0.07,57.07,0.08
					c35.59,0.01,75.33-24.44,80.47-25.47c8.41-1.68,11.77,15.15,20.18,32.82c8.41,17.67,79.05,78.26,79.05,78.26
					s10.86,0.11,15.35-1.57c4.82-1.81,6.59-4.16,6.59-4.16S1109.61,356.52,1083.53,348.1z"/></g><g><path class="st22" d="M991.39,134.02c-5.31-3.17-10.49-3.65-13.67-3.56c-2.21,0.06-4.42-0.08-6.6-0.4
					c-27.31-4.01-43.77,35.65-44.74,47.64c-1.78,22.01-13.42,25.36-29.81,39.14c-32.87,27.62-23.25,59.74-5.28,71.68
					c10.78,7.16,29.78,0.01,29.78,0.01c0.27,0.19,51.98-28.88,77.47-42.9C1036.74,240.2,1006.73,143.17,991.39,134.02z"/></g><g><path class="st20" d="M977.18,233.67c0.11,0.07-12.54,4.39-21,0.64c-7.96-3.52-13.98-16.61-13.86-16.62
					c3.62-0.17,7.6-3.33,10.66-24.1l1.54,0.55l25.92,9.34c0,0-1.88,8.32-3.1,16.23C976.31,226.36,975.76,232.73,977.18,233.67z"/></g><g><path class="st29" d="M980.43,203.48c0,0-1.04,4.49-2.55,12.87c-14.89-2.68-21.27-14.15-23.37-22.2L980.43,203.48z"/></g><g><path class="st20" d="M984.29,211.74c0,0-35.46-4.77-32.15-26.81c3.31-22.04,0.97-37.49,23.75-35.38
					c22.78,2.12,25.9,11.18,26.59,18.81C1003.16,175.98,993.6,212.41,984.29,211.74z"/></g><g><path class="st22" d="M1001.19,156.28c0,0-22.71,19.56-38.15,21.13c-15.44,1.57-21.29-3.39-21.29-3.39s9.1-7.55,14.58-19.75
					c1.62-3.59,5.03-6.06,8.95-6.4C976.32,146.92,997.22,146.5,1001.19,156.28z"/></g><g><path class="st22" d="M987,154.52c0,0,7.59,7.35,9.98,12.79c2.31,5.26,2.99,17.83,1.15,22.82c0,0,11.84-23,5.15-34.18
					C996.18,144.09,987,154.52,987,154.52z"/></g><g><path class="st28" d="M1083.78,471.03l-23.07,62.01c0,0-6.25,0.6-12.24-1.12c-5.51-1.6-11.84-5.77-11.84-5.77
					s6.42-66.59,18.37-104.81L1083.78,471.03z"/></g><g><path class="st30" d="M977.34,219.71c0,0,30.84,5.24,34.46,18.52c3.62,13.28,15.51,93.9,15.51,93.9s-8.7,8.49-15.94,1.24
					c-7.24-7.25-22.77-75.43-22.77-75.43L977.34,219.71z"/></g><g><path class="st4" d="M1007.02,285.92c-1.1,71.78-0.31,56.78-8.17,63.59c-1.89,1.64-7.21,2.61-14.21,3.07
					c-22.01,1.45-60.7-2.19-62.17-6.25c-5.07-14.08-1.49-18.45-5.71-40c-0.44-2.29-0.99-4.77-1.63-7.47
					c-3.53-14.8-6.96-19.84,5.58-43.61c11.37-21.53,23.18-39.01,24.24-38.38c29.97,17.81,32.39,2.85,32.39,2.85
					S1007.55,250.91,1007.02,285.92z"/></g><g><path class="st30" d="M984.64,352.58c-22.01,1.45-60.7-2.19-62.17-6.25c-5.07-14.08-1.49-18.45-5.71-40l10.63-29.89
					c0,0-1.77,33.29,8.05,42.05c9.8,8.76,40.19,16.92,44.96,24.23C982.68,346.23,984.2,349.76,984.64,352.58z"/></g><g><path class="st20" d="M959.42,338.57c0,0,21.72-4.83,25.22-2.9c3.5,1.93,12.06,8.95,13.13,11.39c1.07,2.44-7.8-1.86-10.68-2.63
					c-1.87-0.5-6.79,1.21-9.23,2.02c-10.25,3.41-16.53,1.65-16.53,1.65L959.42,338.57z"/></g><g><path class="st4" d="M944.92,216.85c0,0-29.16,1.79-39.26,15.86c-14.21,19.81-42.43,104.26-26.28,115.53
					c18.19,12.69,82.79,3.35,82.79,3.35s2.15-10.05-0.84-14.91c-2.99-4.86-51.59-12.73-53.84-14.97
					c-2.24-2.24,28.06-43.74,28.06-50.47C935.57,264.51,944.92,216.85,944.92,216.85z"/></g><g><path class="st20" d="M985.69,341.72c0,0,4.55,5.87,6.04,6.57c1.49,0.7,2.46,0.53,2.46,0.53l-3.06-5.52L985.69,341.72z"/></g><g><path class="st20" d="M984.64,335.67l13.23,6.43c0,0-0.56,0.92-2.19,0.85c-1.63-0.07-5.74-1.58-5.74-1.58L984.64,335.67z"/></g></g><g><polygon class="st22" points="1097.6,350.82 959.42,350.77 959.42,353.82 1096.37,353.86 			"/></g><g><polygon class="st22" points="991.73,353.83 1096.37,353.86 1127.87,275.6 1023.39,275.56 			"/></g><g><path class="st4" d="M1069.97,314.72c0.79-2.75-0.8-4.98-3.55-4.98c-2.75,0-5.62,2.23-6.41,4.98c-0.79,2.75,0.8,4.98,3.55,4.98
				C1066.31,319.7,1069.18,317.47,1069.97,314.72z"/></g></g><g class="st31"><polygon class="st2" points="1586.12,612.62 1557.17,575.64 1555.81,573.9 1554.18,573.6 1420.6,549.02 1375.64,793.35 
			1548.82,825.21 1587.27,616.2 1587.58,614.49 		"/></g><g><g><polygon class="st2" points="1499.23,536.81 1499.29,538.55 1507.53,750.9 1331.58,757.73 1321.96,509.48 1457.68,504.22 
				1459.33,504.16 1461.05,505.56 1497.38,535.3 			"/></g></g><g><g><path class="st22" d="M1383.49,597.62l-293.63,16.36c-0.59,0.03-1.05,0.54-1.01,1.13l21.43,384.5c0.03,0.59,0.54,1.05,1.13,1.01
				l293.21-16.34c0.59-0.03,1.05-0.54,1.01-1.13l-21.45-384.92C1384.16,597.88,1383.85,597.6,1383.49,597.62z"/></g><g><path class="st4" d="M1382.95,972.15l-248.71,15.61c-7.46,0.47-13.89-5.2-14.36-12.66l-21.21-337.95
				c-0.47-7.46,5.2-13.89,12.66-14.36l248.71-15.61c7.46-0.47,13.89,5.2,14.36,12.66l21.21,337.95
				C1396.08,965.25,1390.41,971.68,1382.95,972.15z"/></g><g><g><path class="st7" d="M1284.79,662.92l-156.46,9.82c-0.08,0-0.15-0.06-0.15-0.14l-0.25-3.91c-0.01-0.08,0.05-0.15,0.13-0.15
					l156.46-9.82c0.08,0,0.15,0.06,0.15,0.14l0.25,3.91C1284.93,662.85,1284.87,662.92,1284.79,662.92z"/></g><g><path class="st7" d="M1286.9,696.51l-156.46,9.82c-0.08,0.01-0.15-0.06-0.15-0.13l-0.25-3.91c-0.01-0.08,0.06-0.15,0.14-0.15
					l156.46-9.82c0.08,0,0.15,0.06,0.15,0.14l0.25,3.91C1287.04,696.44,1286.98,696.51,1286.9,696.51z"/></g><g><path class="st7" d="M1345.62,675.97l-216.24,13.57c-0.08,0-0.15-0.06-0.15-0.14l-0.25-3.91c0-0.08,0.06-0.15,0.14-0.15
					l216.23-13.57c0.08-0.01,0.15,0.06,0.15,0.13l0.25,3.91C1345.76,675.89,1345.7,675.96,1345.62,675.97z"/></g><g><path class="st7" d="M1249.09,803.3l-106.45,6.68c-0.07,0-0.12-0.05-0.13-0.11l-0.25-3.96c0-0.07,0.05-0.12,0.11-0.13
					l106.45-6.68c0.07,0,0.12,0.05,0.13,0.11l0.25,3.96C1249.2,803.24,1249.16,803.3,1249.09,803.3z"/></g><g><path class="st7" d="M1288.72,783.96l-147.14,9.23c-0.07,0-0.12-0.05-0.13-0.11l-0.25-3.96c0-0.07,0.05-0.12,0.11-0.13
					l147.14-9.23c0.07,0,0.12,0.05,0.13,0.11l0.25,3.96C1288.84,783.89,1288.79,783.95,1288.72,783.96z"/></g><g><path class="st7" d="M1299.57,818.91l-156.46,9.82c-0.08,0.01-0.15-0.06-0.15-0.13l-0.25-3.91c0-0.08,0.06-0.15,0.14-0.15
					l156.46-9.82c0.08,0,0.15,0.06,0.15,0.14l0.25,3.91C1299.71,818.83,1299.65,818.9,1299.57,818.91z"/></g><g><path class="st7" d="M1318.12,834.6l-173.97,10.92c-0.07,0-0.13-0.05-0.14-0.12l-0.25-3.94c0-0.07,0.05-0.13,0.12-0.14
					l173.97-10.92c0.07,0,0.13,0.05,0.14,0.12l0.25,3.94C1318.25,834.54,1318.19,834.6,1318.12,834.6z"/></g><g><path class="st7" d="M1258.92,867.93l-111.97,7.03c-0.07,0-0.12-0.05-0.13-0.12l-0.25-3.95c0-0.07,0.05-0.13,0.12-0.13
					l111.97-7.03c0.07,0,0.13,0.05,0.13,0.12l0.25,3.95C1259.03,867.87,1258.98,867.92,1258.92,867.93z"/></g><g><path class="st7" d="M1261.02,901.52l-111.97,7.03c-0.07,0-0.13-0.05-0.13-0.11l-0.25-3.95c-0.01-0.07,0.05-0.13,0.11-0.13
					l111.97-7.03c0.07,0,0.13,0.05,0.13,0.12l0.25,3.95C1261.14,901.46,1261.09,901.51,1261.02,901.52z"/></g><g><path class="st7" d="M1302.76,882.04L1148,891.75c-0.07,0-0.13-0.05-0.13-0.12l-0.25-3.95c0-0.07,0.05-0.12,0.12-0.13
					l154.76-9.71c0.07,0,0.12,0.05,0.13,0.11l0.25,3.95C1302.88,881.98,1302.83,882.03,1302.76,882.04z"/></g></g><g><path class="st14" d="M1303.49,580.87l-136.93,7.63c-9.03,0.5-15.97,7.71-15.5,16.09l1.15,20.69c0.11,1.94,1.89,3.41,3.97,3.3
				l162.07-9.03c2.09-0.12,3.69-1.78,3.58-3.72l-1.15-20.69C1320.22,586.75,1312.52,580.36,1303.49,580.87z"/></g></g><g><g><path class="st20" d="M1550.89,747.06c0,0-2.85-6.4-4.69-9.43c-1.84-3.03-9.72-11.91-11.06-9.9c-1.34,2.01-6.7,15.54-3.85,19.33
				c2.85,3.79-0.19,10.38,13.98,14.37L1550.89,747.06z"/></g><g><path class="st32" d="M1708.31,706.64c0,0-72.51,60.53-100.79,54.93c-22.11-4.38-57.06-15.47-57.06-15.47s-9.23,8.78-6.62,19.29
				c0,0,44.53,41.9,76.26,42.17c49.59,0.42,72.98-24.58,72.98-24.58L1708.31,706.64z"/></g><g><path class="st33" d="M1835.49,1345.11c0,0-2.11,33.96-8.68,34.45c-0.87,0.06-33.32,0.06-33.32,0.06l-41.42-0.24
				c0,0,0.27-9.98,12.38-12.09c12.11-2.11,32.37-10.62,39.71-26.62C1811.87,1323.84,1835.49,1345.11,1835.49,1345.11z"/></g><g><path class="st34" d="M1837.87,1347.47c0,0-12.59,4.21-22.42,4.21c-10.97,0-20.93-2.99-20.93-2.99s-2.37-22.93-15.42-73.44
				c-6.84-26.47-16.61-60.52-30.5-102.82c-38.42-116.91-50.1-185.3-51.17-191.77c-0.06-0.34-0.08-0.51-0.08-0.51l0.12-0.06
				l118.12-51.86c0,0-14.6,161.12,4.03,222.97c2.61,8.64,4.84,18.72,6.76,29.63C1838.14,1248.01,1837.87,1347.47,1837.87,1347.47z"/></g><g><path class="st22" d="M1779.1,1275.26c-6.84-26.47-16.61-60.52-30.5-102.82c-38.42-116.91-50.1-185.3-51.17-191.77
				c0.01-0.19,0.02-0.38,0.04-0.57l118.12-51.86c0,0-14.6,161.12,4.03,222.97C1822.23,1159.85,1779.1,1275.26,1779.1,1275.26z"/></g><g><path class="st35" d="M1743.23,1345.11c0,0-2.11,33.96-8.68,34.45c-0.87,0.06-33.32,0.06-33.32,0.06l-41.42-0.24
				c0,0,0.27-9.98,12.38-12.09c12.11-2.11,32.37-10.62,39.71-26.62C1719.61,1323.84,1743.23,1345.11,1743.23,1345.11z"/></g><g><path class="st34" d="M1676.26,932.03c0,0-1.54,104.41,16.53,232.61c18.06,128.2,11.94,182.61,11.94,182.61
				s12.41,4.02,17.42,4.43c12.76,1.04,25.85-2.99,25.85-2.99s25.86-128.24,18.44-192.41c-7.41-64.17,35.41-220.18,35.41-220.18
				L1676.26,932.03z"/></g><g><path class="st20" d="M1760.01,687.7l-23.06,15.12l-21-5.94c-3.84-5.48-4.85-16.03-4.91-25.18c-0.06-9.08,0.82-16.77,0.82-16.77
				l31.11-13.73l11.61-5.12c-0.03,0.18-0.9,9.53-1.03,10.9C1751.39,671.23,1760.01,687.7,1760.01,687.7z"/></g><g><path class="st4" d="M1675.73,961.06c28.7,27.71,137.31,23.05,144.01-7.48c6.68-30.53-7.3-259.89-56.32-274.29
				c-10.17-2.99-64.56,14.59-64.56,14.59s-8.53,22.32-14.13,50.75c-1.08,5.53-4.26,64.14-6.63,118.98
				c-1.11,25.64-2.04,50.47-2.52,68.64C1675.13,949.27,1675.11,960.45,1675.73,961.06z"/></g><g><path class="st36" d="M1751.23,647.41c-6.31,10.67-28.45,20.01-40.19,24.29c-0.06-9.08,0.82-16.77,0.82-16.77l31.11-13.73
				C1749.85,641.11,1754.04,642.65,1751.23,647.41z"/></g><g><path class="st20" d="M1700.13,653.04c0,0,50.12,15.63,59.38-15.73c9.26-31.36,21.96-50.47-9.65-61.78
				c-31.61-11.31-41.39-1.18-47.02,8.53C1697.2,593.78,1687.33,648.16,1700.13,653.04z"/></g><g><path class="st37" d="M1704.81,581.04c0,0,3.2,36.5,10.74,34.91c7.55-1.59,15.86-4.97,14.75,6.03
				c-1.11,11,7.34,29.86,18.22,29.82c23.34-0.1,48.71-59.99,42.31-71.35C1772.4,547.68,1678.16,541.06,1704.81,581.04z"/></g><g><path class="st32" d="M1712.18,680.07c0.65-0.27,37.31-16.72,41.6-15.3c4.29,1.42,9.63,14.51,9.63,14.51l-64.56,14.6
				C1698.85,693.88,1703.93,683.55,1712.18,680.07z"/></g><g><g><path class="st38" d="M1483.91,857.7l205.54,193.52c4.03,3.79,9.11,5,11.29,2.69l6.94-7.37c2.18-2.32,0.67-7.31-3.36-11.11
					l-205.54-193.52c-4.03-3.79-9.11-5-11.29-2.69l-6.94,7.37C1478.37,848.91,1479.88,853.91,1483.91,857.7z"/></g><g><path class="st39" d="M1599.25,966.3l90.19,84.92c4.03,3.79,9.11,5,11.29,2.69l6.94-7.37c2.18-2.32,0.67-7.31-3.36-11.11
					l-90.19-84.92L1599.25,966.3z"/></g><g><path class="st38" d="M1494.36,627.24c-60.96-64.8-162.91-67.9-227.7-6.93c-0.86,0.8-1.7,1.61-2.53,2.44
					c-62.35,61.21-64.59,161.32-4.43,225.27c60.96,64.79,162.92,67.91,227.73,6.95c21.22-19.96,35.83-44.32,43.72-70.32
					C1547.4,731.22,1535.37,670.82,1494.36,627.24z M1478.71,845.7c-37.71,35.49-89.09,47.4-135.98,36.3
					c-27.3-6.47-53.08-20.73-73.75-42.7c-56.15-59.69-53.3-153.59,6.39-209.74c21.97-20.67,48.58-33.34,76.24-38.13
					c47.47-8.22,98.02,6.81,133.5,44.52C1541.26,695.65,1538.4,789.55,1478.71,845.7z"/></g><g class="st31"><g><path class="st40" d="M1268.97,839.3c20.67,21.97,46.46,36.24,73.76,42.71c46.89,11.09,98.27-0.82,135.98-36.31
						c59.68-56.15,62.55-150.06,6.39-209.75c-35.48-37.71-86.03-52.74-133.5-44.52c-27.66,4.78-54.27,17.46-76.24,38.12
						C1215.68,685.71,1212.82,779.61,1268.97,839.3z"/></g></g></g><g><path class="st32" d="M1675.57,932.24c113.25-80.7,103.84-188.39,103.84-188.39c-41.39,23.35-82.47,74.97-101.31,119.75
				C1676.98,889.24,1676.05,914.07,1675.57,932.24z"/></g><g><g><path class="st20" d="M1563.79,895.49c-7.99-1.84-13.35-7.88-14.46-8.94c0,0-3.41,0.23,0.56,7.5c0.33,0.61,1.07,2.17,1.62,3.27
					c0.23,0.45-0.09,0.98-0.59,1.01c-4.61,0.35-9.24-1.47-18.12,0.38c-1.23,0.26-1.58,3.19-1.53,4.44c0.08,2.12-0.07,4.49,2.39,7.73
					c1.43,1.89,5.42,3.92,14.31,7.5c3.39,1.36,13.07,0.33,22.14-2.78l7.25-3.36l-2.25-13.48l-1.82,0.38
					C1570.39,899.76,1566.81,896.23,1563.79,895.49z"/></g><g><path class="st4" d="M1744.26,693.88c0,0,101.76,19.38-29.94,166.74c-21.06,23.57-134.86,54.25-134.86,54.25
					s-11.54-9.82-5.72-17.77c0,0,78.35-56.9,95.59-65.94c7.76-4.07,30.1-90.81,42.74-111.7
					C1724.71,698.56,1744.26,693.88,1744.26,693.88z"/></g></g><g><path class="st20" d="M1548.13,748.85c0,0-3.33-6.36-3.98-9.72c-0.65-3.36-4.84-13.14-6.57-14.87c-0.69-0.69-2.97,0.2-3.24,3.17
				c-0.12,1.29,0.52,3.64,1.63,6.44c1.82,4.55,1.52,10.73,2.15,12.79C1539.71,751.79,1548.13,748.85,1548.13,748.85z"/></g></g></g></svg>