<?xml version="1.0" encoding="utf-8"?><!--Generator: Adobe Illustrator 25.2.1, SVG Export Plug-In . SVG Version: 6.00 Build 0)--><svg version="1.1" id="_x2014_лой_x5F_2" xmlns="http://www.w3.org/2000/svg" xmlns:xlink="http://www.w3.org/1999/xlink" x="0px" y="0px" viewBox="0 0 4235.52 1669.75" style="enable-background:new 0 0 4235.52 1669.75" xml:space="preserve"><style type="text/css">.st0{fill:#E6F2FB;}
	.st1{fill:#A6C7F9;}
	.st2{fill:#699DEE;}
	.st3{fill:#D2E4FF;}
	.st4{fill:#B77446;}
	.st5{fill:#365DA4;}
	.st6{fill:#285493;}
	.st7{fill:#AA443E;}
	.st8{fill:#D9935C;}
	.st9{fill:#FFFFFF;}
	.st10{fill:#D8D8D8;}
	.st11{fill:#A86337;}
	.st12{fill:#CC7C46;}
	.st13{fill:#4A75CB;}
	.st14{fill:#D86713;}
	.st15{fill:#F1A34F;}
	.st16{fill:#C95C12;}
	.st17{fill:#163560;}
	.st18{fill:#00964B;}
	.st19{fill:#007451;}
	.st20{fill:#C65447;}
	.st21{fill:#E49963;}
	.st22{fill:#D68D5D;}
	.st23{fill:#FFD5AB;}
	.st24{fill:#E57970;}
	.st25{fill:#8CB3ED;}
	.st26{fill:#82B378;}
	.st27{fill:#A8D29F;}
	.st28{fill:#FFB973;}
	.st29{fill:#EBF2F9;}
	.st30{fill:#91B6ED;}
	.st31{fill:#283250;}
	.st32{fill:#00622E;}
	.st33{fill:#FC9F38;}
	.st34{opacity:0.4;fill:#E65F00;}
	.st35{fill:#A9C2FF;}
	.st36{fill:#83A7F2;}
	.st37{fill:#FDDBBA;}
	.st38{fill:#0B3563;}
	.st39{fill:#032C52;}
	.st40{fill:#FFAE73;}
	.st41{fill:#25468F;}
	.st42{fill:#214D9A;}
	.st43{fill:#F59D64;}
	.st44{fill:#6CA3EA;}</style><path class="st0" d="M3277.91,1629.18c0,0,395.74,70.47,521.71-196.14c163.44-345.9-172.34-608.17-429.87-559.3
	C2808.6,980.21,2815.63-592.44,2055.13,301.99c-201.19,236.63-472.38-187.78-800.7,336.03c-76.73,122.41-545.67-114.19-779.05-17.31
	c-456.74,189.6-247.9,1011.66,78.46,1014.89C880.21,1638.83,3277.91,1629.18,3277.91,1629.18z"/><g><g><rect x="1712.16" y="408.28" class="st1" width="508.3" height="1226.91"/><rect x="1711.69" y="408.28" class="st2" width="90.62" height="1226.91"/><rect x="1824.49" y="408.28" class="st3" width="508.3" height="1226.91"/><rect x="2221.66" y="408.28" class="st1" width="94.31" height="1226.91"/></g><g><path class="st4" d="M1325.3,1622.4c-0.84,10.4-15.53,10.41-32.19,8.35c-16.65-2.06-66.92-5.27-68.03-8.62
			c-0.99-2.97,10.27-5.37,22.32-8.21c1.51-0.35,3.04-0.72,4.56-1.09c13.59-3.35,25.32-10.7,34.31-22.21
			c10.12-12.97,19.38-72.04,19.38-72.04l36.47,6.8c0,0-21.23,50.63-23.41,67.23c-0.98,7.45,4.32,12.42,5.56,18.94
			C1324.94,1615.11,1325.6,1618.73,1325.3,1622.4z"/><path class="st5" d="M1325.3,1622.4c-0.84,10.4-15.53,10.41-32.18,8.35c-11.41-1.41-12.94,0.14-20.28,1.31h-29.28
			c-12.74-2.2-17.63-7.36-18.47-9.93c-0.99-2.96,10.27-5.37,22.32-8.21l0.14,0.22c0,0,14.97,8.18,34.2,6.39
			c15.68-1.46,31.71-7.88,42.53-8.97C1324.94,1615.11,1325.6,1618.73,1325.3,1622.4z"/><g><path class="st5" d="M1292.69,1561.11c0,0,9.55,6.32,18.54,7.95c13.47,2.45,19.73-0.27,19.73-0.27s64.8-162.71,61.11-217.69
				c-0.09-1.32-0.14-2.73-0.16-4.21c-0.11-9.54,1.27-22.25,3.63-36.89c0.87-5.36,1.88-10.98,3-16.8c2.6-13.56,5.81-28.18,9.35-43.09
				c1.55-6.57,3.18-13.19,4.83-19.8c16.29-65.06,36.2-129.17,36.2-129.17s-116.94-38.2-123.56-2.5
				c-2.54,13.7-10.99,68.53-7.19,152.36c3.07,67.48,1.09,120.12-4.74,181.21C1308.29,1485.87,1299.52,1532.01,1292.69,1561.11z"/></g><path class="st6" d="M1391.9,1346.89c-0.11-9.54,1.27-22.25,3.63-36.89c0.87-5.36,1.88-10.98,3-16.8
			c2.6-13.56,5.81-28.18,9.35-43.09c1.55-6.57,3.18-13.19,4.83-19.8c-2.31-19.85-4.17-33.47-4.17-33.47
			S1359.98,1262.79,1391.9,1346.89z"/><path class="st4" d="M1472.83,1622.4c-0.84,10.4-15.53,10.41-32.19,8.35c-16.65-2.06-66.92-5.27-68.03-8.62
			c-0.99-2.97,10.27-5.37,22.32-8.21c1.52-0.35,3.04-0.72,4.56-1.09c13.58-3.35,22.64-13.43,34.31-22.21
			c11.05-8.31,3.32-48.63,3.32-48.63l34.3-12.25c0,0-5.17,40.56-5.17,62.88c0,7.51,4.32,12.42,5.56,18.94
			C1472.47,1615.11,1473.13,1618.73,1472.83,1622.4z"/><path class="st5" d="M1472.83,1622.4c-0.84,10.4-15.53,10.41-32.18,8.35c-11.41-1.41-12.94,0.14-20.28,1.31h-29.28
			c-12.74-2.2-17.63-7.36-18.47-9.93c-0.99-2.96,10.27-5.37,22.32-8.21l0.14,0.22c0,0,14.97,8.18,34.2,6.39
			c15.68-1.46,31.71-7.88,42.53-8.97C1472.47,1615.11,1473.13,1618.73,1472.83,1622.4z"/><path class="st5" d="M1378.46,1088.41c0,0,38.05,189.62,44.47,292.83c6.43,103.21,14.45,188.65,14.45,188.65s8.3,2.99,17.83,2.45
			c10.06-0.57,18.03-3.67,18.03-3.67s37.71-155.28,25.22-217.43c-12.49-62.15-2.09-119.48,3.91-171.04
			c8.6-73.92-24.48-108.28-47.57-131.7C1431.44,1024.79,1378.46,1088.41,1378.46,1088.41z"/><path class="st7" d="M1351.5,741.1c-3.78-30.87,5.86-80.27,67.48-72.38c61.62,7.89,81.04,68.45,68.61,95.38
			c-12.43,26.93,17.89,33.42,27.41,62.37c8.18,24.87,11.03,55.76,24.26,69.62c42.66,44.69-40.95,113.41-91.36,98.92
			c-91.81-26.39-103.63-30.33-100.37-102.47c1.67-36.96,30.42-51.28,12.17-61.97C1315.59,804.74,1360.05,810.96,1351.5,741.1z"/><path class="st8" d="M1370.15,840.24l18.23,27.34l36.72-1.81l16.96-43.85c0,0-5.23-0.99-7.67-55.67l-45.83,13.98
			c0,0,2.44,14.26-0.81,29.77C1385.49,820.84,1380.53,832.4,1370.15,840.24z"/><path class="st8" d="M1365.04,820.96c2.36,0,45.54-14.44,107.19,10.67c0,0-29.27,167.45-16.7,199.41
			c12.57,31.96,17.35,60.32,17.35,60.32l-136.39,1.69c0,0,1.91-109.69-4.38-148.52C1325.83,905.71,1365.04,820.96,1365.04,820.96z"/><path class="st9" d="M1472.14,1017.97c-0.81-3.23-1.36-6.09-1.57-8.47c-1.8-20.21,1.26-36.69,6.33-52.86
			c0.01-0.02,0.02-0.03,0.02-0.05c0.08-0.25,0.16-0.51,0.25-0.77c0.14-0.42,0.31-1.08,0.51-1.92c0.01-0.02,0.01-0.04,0.02-0.07
			c0.2-0.77,0.41-1.69,0.65-2.74c0.07-0.34,0.16-0.71,0.24-1.11c3.51-15.72,11.21-55.21,13.25-60.59c0.67-1.78,1.44-4.85,2.09-8.62
			c2.06-11.89,2.96-30.8-3.97-38.71c-9.65-11-42.79-18.9-42.79-18.9c-6.74,10.56-29.55,36.38-58.18,31.66
			c-16.55-2.74-19.11-34.94-19.11-34.94c-17.79,2.45-22.33,5.15-22.33,5.15s-42.63,26.6-102.87,111.31
			c-1.91,2.69-6.46,2.38-17.58,0.23c-14.16-2.76-43.06-2.4-86.67-8.8c0,0-1.5,1.09-1.91,5.85c-0.9,10.53-1.95,13.64-1.95,13.64
			s28.71,13.54,59.25,23.2c10.8,3.43,22.1,6.63,32.88,9.04c10.04,2.25,19.63,3.81,27.96,4.2c0,0,34.8-13.37,68.52-50.53
			c1.97,31.19,6.32,71.47,3.65,100.89c-1.53,16.75-12.98,73.1-10.11,82.48c5.99,19.53,52,20.55,93.09,18.5
			c0.9-0.04,1.79-0.09,2.69-0.15c6.37-0.37,12.62-0.92,18.46-1.58c11.01-1.23,20.55-2.83,26.76-4.26
			c8.02-1.84,18.09-4.47,26.28-8.43c6.28-3.03,11.44-6.83,13.72-11.63C1495.76,1087.75,1476.72,1041.45,1472.14,1017.97z"/><path class="st10" d="M1382.63,1072.08c7.78,26.4,12.31,48.13,31.86,62.82c6.37-0.37,12.62-0.92,18.46-1.58
			c11.01-1.23,20.55-2.83,26.76-4.26c8.02-1.84,18.09-4.48,26.28-8.43c6.28-3.03,11.44-6.83,13.72-11.63
			c-3.95-21.26-22.99-67.56-27.57-91.04c-0.45-2.29-0.76-4.35-0.91-6.16c-1.7-21.04,1.03-38.31,5.67-55.17
			c0.01-0.02,0.02-0.03,0.02-0.05c0.25-0.9,0.51-1.79,0.76-2.69c0.01-0.02,0.01-0.04,0.02-0.07c0.16-0.58,0.38-1.52,0.65-2.74
			c0.07-0.34,0.16-0.71,0.24-1.11c3.14-14.89,11.34-61.64,13.43-67.74c0.66-1.93,1.4-5.23,2.05-9.31l-16.42-15.8
			c0,0-94.22,40.23-114.98,95.73C1341.91,1008.36,1371.45,1034.21,1382.63,1072.08z"/><path class="st10" d="M1195.81,970.47c20.86,6.61,43.55,12.41,60.84,13.24c0,0,35.27-13.54,69.2-51.27
			c1.43-6.41,2.81-17.17-4.96-14.06c-10.89,4.35-51.18,56.08-66.42,57.16C1243.56,976.32,1212.55,972.64,1195.81,970.47z"/><path class="st9" d="M1270.23,955.74c0,0,46.44,23.33,86.71,32.98c11.59,2.78,22.75,4.74,32.27,5.19c0,0,44.22-12.68,76.35-59.61
			c59.42-86.79,14.55-99.06,14.55-99.06s-42.64,26.6-102.87,111.31c-2.11,2.96-7.4,2.29-21.1-0.47c-14.63-2.96-43.76-2.6-83.97-8.51
			c0,0-0.68,1.49-1.09,6.26C1270.17,954.36,1270.23,955.74,1270.23,955.74z"/><path class="st11" d="M1227.09,936.58c-14.02-2.73-43.82-2.95-86.72-9.16c-3.34-1.06-7.12-2.46-10.64-4.22
			c-9.19-4.6-33.7-7.66-38.91-2.76c-5.21,4.9,5.52,24.82,27.88,25.43c7.84,0.21,13.71,0.81,18.04,1.48
			c2.36,1.1,29.87,13.87,59.07,23.12c10.8,3.43,22.1,6.63,32.88,9.04C1233.02,960.27,1230.03,945.27,1227.09,936.58z"/><path class="st12" d="M1387.75,810.02c18.95-1.53,46.65-43.76,46.65-43.76l-45.83,13.98
			C1388.56,780.24,1390.99,794.5,1387.75,810.02z"/><path class="st8" d="M1376.55,783.34c0,0,54.88,11.02,61.22-23.26c6.34-34.28,17.69-55.95-17.08-64.44
			c-34.77-8.49-44.02,3.33-48.92,14.26C1366.87,720.83,1362.44,779.59,1376.55,783.34z"/><path class="st7" d="M1403.37,687.08c0,0-0.96,11.63,17.09,31.36c18.05,19.73,13.75,54.91,13.75,54.91s30.42-57.18,14.19-75.44
			C1432.17,679.66,1403.37,687.08,1403.37,687.08z"/><path class="st7" d="M1425.44,671.95c0,0-27.29-9.13-54.36,17.55c-11.66,11.49-9.9,34.09-3.65,47.2c0,0,9.6-28.1,27.06-34.22
			C1411.95,696.35,1425.44,671.95,1425.44,671.95z"/><polygon class="st1" points="1209.17,858.59 1092.3,861.22 1119.12,1023.59 1237.43,1027.42 		"/><path class="st4" d="M1356.94,988.73c-8.84-17.48-5.38-32.76-0.8-42.64c-14.63-2.96-43.96-4.24-84.17-10.14c0,0,0,0.03-0.01,0.07
			c-4.33-1.15-10.74-3.12-16.47-5.99c-9.81-4.91-35.98-8.18-41.54-2.94c-5.56,5.23,5.89,26.49,29.76,27.15
			c13.23,0.36,21.23,1.73,25.74,2.87C1273.41,958.93,1318.48,979.51,1356.94,988.73z"/></g><g><rect x="283.14" y="1054.63" class="st13" width="280.14" height="280.14"/><rect x="369.52" y="1054.63" class="st2" width="280.14" height="280.14"/></g><g><rect x="521.83" y="1334.77" class="st14" width="300.67" height="300.67"/><rect x="614.54" y="1334.77" class="st15" width="300.67" height="300.67"/><polygon class="st16" points="614.54,1334.77 521.83,1390.97 521.83,1334.77 		"/></g><g><path class="st4" d="M3026.99,1623.84c-0.85,10.54-100.39,3.12-101.51-0.27c-1-3,10.41-5.44,22.61-8.32
			c1.54-0.36,3.08-0.73,4.62-1.11c13.76-3.39,25.65-10.83,34.75-22.49c10.25-13.14,19.63-72.97,19.63-72.97l36.95,6.89
			c0,0-21.51,51.28-23.71,68.1c-0.99,7.55,4.38,12.58,5.63,19.19C3026.63,1616.46,3027.3,1620.13,3026.99,1623.84z"/><path class="st5" d="M3027,1623.84c-0.35,4.31-3.03,6.85-7.24,8.22h-27.48c-4.84-0.49-7.71-0.37-10.23,0h-44.4
			c-8.09-2.57-11.47-6.39-12.16-8.49c-1-3,10.41-5.44,22.61-8.32l0.14,0.23c0,0,15.16,8.28,34.65,6.47
			c15.87-1.48,32.11-7.98,43.07-9.08C3026.63,1616.46,3027.3,1620.13,3027,1623.84z"/><g><path class="st5" d="M2993.96,1561.77c0,0,9.68,6.4,18.78,8.06c13.65,2.48,19.98-0.27,19.98-0.27s65.64-164.81,61.89-220.5
				c-0.09-1.34-0.14-2.76-0.16-4.27c-0.11-9.66,1.28-22.54,3.68-37.36c0.88-5.43,1.9-11.12,3.04-17.01
				c2.63-13.73,5.89-28.54,9.47-43.65c1.57-6.65,3.22-13.36,4.89-20.06c16.5-65.9,36.67-130.83,36.67-130.83
				s-118.45-38.69-125.15-2.53c-2.57,13.88-11.13,69.41-7.28,154.32c3.11,68.35,1.1,121.67-4.81,183.55
				C3009.77,1485.55,3000.88,1532.29,2993.96,1561.77z"/></g><path class="st6" d="M3094.46,1344.78c-0.11-9.66,1.28-22.54,3.68-37.36c0.88-5.43,1.9-11.12,3.04-17.01
			c2.63-13.73,5.89-28.54,9.47-43.65c1.57-6.65,3.22-13.36,4.89-20.06c-2.34-20.11-4.23-33.9-4.23-33.9
			S3062.12,1259.6,3094.46,1344.78z"/><path class="st4" d="M3176.43,1623.84c-0.85,10.54-100.39,3.12-101.51-0.27c-1-3,10.41-5.44,22.61-8.32
			c1.54-0.36,3.08-0.73,4.62-1.11c13.76-3.39,22.93-13.6,34.75-22.49c11.19-8.42,3.36-49.26,3.36-49.26l34.74-12.41
			c0,0-5.24,41.08-5.24,63.69c0,7.61,4.38,12.58,5.63,19.19C3176.06,1616.46,3176.73,1620.13,3176.43,1623.84z"/><path class="st5" d="M3176.43,1623.84c-0.35,4.31-3.03,6.85-7.24,8.22h-27.48c-4.84-0.49-7.7-0.37-10.23,0h-44.39
			c-8.1-2.57-11.48-6.39-12.17-8.49c-1-3,10.41-5.44,22.61-8.32l0.15,0.23c0,0,15.16,8.28,34.64,6.47
			c15.88-1.48,32.12-7.98,43.07-9.08C3176.06,1616.46,3176.74,1620.13,3176.43,1623.84z"/><path class="st5" d="M3080.84,1082.97c0,0,38.54,192.07,45.05,296.6c6.51,104.54,14.64,191.08,14.64,191.08s8.41,3.03,18.06,2.48
			c10.19-0.58,18.27-3.72,18.27-3.72s38.2-157.28,25.54-220.23c-12.65-62.96-2.11-121.03,3.96-173.24
			c8.71-74.87-24.79-109.68-48.18-133.4C3134.5,1018.52,3080.84,1082.97,3080.84,1082.97z"/><path class="st17" d="M3053.53,731.18c-3.83-31.27,5.94-81.31,68.35-73.31c62.41,8,82.08,69.33,69.49,96.6
			c-12.59,27.27,18.12,33.85,27.76,63.18c8.28,25.2,11.17,56.48,24.57,70.52c43.21,45.26-41.48,114.87-92.53,100.19
			c-92.99-26.73-104.97-30.72-101.67-103.79c1.69-37.43,30.82-51.94,12.32-62.77C3017.16,795.64,3062.2,801.94,3053.53,731.18z"/><path class="st11" d="M3091.03,770.82c0,0,7.1,41.29-18.6,60.78l18.5,27.71l37.15-1.82l17.16-44.41c0,0-5.27-1.03-7.78-56.4
			L3091.03,770.82z"/><path class="st4" d="M3078.91,773.97c0,0,55.59,11.16,62.01-23.56c6.42-34.73,17.92-56.67-17.3-65.27
			c-35.22-8.6-44.59,3.38-49.55,14.45C3069.1,710.65,3064.61,770.17,3078.91,773.97z"/><path class="st11" d="M3067.25,812.06c2.39,0,46.12-14.63,108.57,10.8c0,0-29.65,169.61-16.91,201.98
			c12.74,32.37,17.58,61.1,17.58,61.1l-138.15,1.71c0,0,1.93-111.11-4.44-150.43C3027.53,897.91,3067.25,812.06,3067.25,812.06z"/><path class="st9" d="M3175.73,1011.62c-0.82-3.27-1.37-6.17-1.59-8.58c-1.82-20.47,1.27-37.16,6.41-53.54
			c0.01-0.02,0.02-0.03,0.02-0.05c0.08-0.26,0.17-0.52,0.25-0.78c0.14-0.43,0.31-1.09,0.52-1.94c0.01-0.02,0.01-0.04,0.02-0.07
			c0.2-0.78,0.41-1.71,0.66-2.78c0.07-0.35,0.16-0.72,0.24-1.12c3.56-15.92,11.36-55.92,13.42-61.37c0.68-1.8,1.46-4.91,2.12-8.73
			c2.08-12.04,3-31.2-4.02-39.21c-9.78-11.14-44.32-19.4-44.32-19.4c-6.82,10.69-28.94,37.11-57.94,32.33
			c-16.77-2.77-19.35-35.39-19.35-35.39c-18.01,2.48-22.62,5.22-22.62,5.22s-43.18,26.95-104.2,112.74
			c-1.94,2.73-6.54,2.42-17.81,0.23c-14.34-2.8-43.62-2.43-87.79-8.92c0,0-1.52,1.1-1.93,5.93c-0.91,10.66-1.98,13.82-1.98,13.82
			s29.08,13.71,60.02,23.5c10.94,3.47,22.38,6.72,33.3,9.16c10.17,2.28,19.88,3.85,28.32,4.25c0,0,35.25-13.54,69.41-51.18
			c1.99,31.59,6.4,72.4,3.69,102.19c-1.55,16.96-13.15,74.04-10.24,83.54c6.07,19.78,52.67,20.81,94.29,18.74
			c0.91-0.04,1.81-0.09,2.72-0.15c6.45-0.37,12.79-0.93,18.7-1.6c11.15-1.25,20.82-2.87,27.1-4.32c8.12-1.86,18.32-4.53,26.62-8.54
			c6.36-3.07,11.59-6.91,13.9-11.78C3199.65,1082.3,3180.37,1035.4,3175.73,1011.62z"/><path class="st17" d="M3106.08,676.47c0,0-0.98,11.78,17.31,31.76c18.28,19.99,13.92,55.62,13.92,55.62s30.81-57.92,14.37-76.41
			C3135.24,668.95,3106.08,676.47,3106.08,676.47z"/><path class="st17" d="M3128.43,661.14c0,0-27.64-9.25-55.06,17.78c-11.81,11.64-10.03,34.53-3.7,47.81c0,0,9.72-28.46,27.41-34.66
			C3114.76,685.85,3128.43,661.14,3128.43,661.14z"/><path class="st10" d="M3085.07,1066.43c7.88,26.74,12.46,48.75,32.27,63.63c6.45-0.37,12.79-0.93,18.7-1.6
			c11.15-1.25,20.82-2.87,27.1-4.32c8.12-1.86,18.32-4.53,26.62-8.54c6.36-3.07,11.59-6.91,13.9-11.78
			c-4-21.53-23.28-68.43-27.92-92.22c-0.45-2.32-0.77-4.41-0.92-6.24c-1.72-21.31,1.04-38.81,5.74-55.88
			c0.01-0.02,0.02-0.03,0.02-0.05c0.26-0.91,0.51-1.81,0.77-2.72c0.01-0.02,0.01-0.04,0.02-0.07c0.17-0.59,0.39-1.54,0.66-2.78
			c0.08-0.35,0.16-0.72,0.24-1.12c3.18-15.09,11.49-62.43,13.61-68.61c0.67-1.95-0.91-10.72-0.25-14.84l-14.3-10.59
			c0,0-95.43,40.75-116.46,96.96C3043.82,1001.89,3073.74,1028.07,3085.07,1066.43z"/><path class="st10" d="M2895.84,963.51c21.12,6.7,44.11,12.57,61.62,13.41c0,0,35.72-13.71,70.09-51.93
			c1.45-6.49,2.85-17.39-5.02-14.24c-11.03,4.41-51.83,56.8-67.28,57.9C2944.2,969.43,2912.79,965.7,2895.84,963.51z"/><path class="st9" d="M2971.21,948.59c0,0,47.04,23.63,87.83,33.41c11.74,2.81,23.04,4.81,32.69,5.26c0,0,45.95-12.07,77.34-60.38
			c56.25-86.58,14.74-100.34,14.74-100.34s-43.19,26.95-104.2,112.75c-2.13,3-7.49,2.32-21.37-0.48
			c-14.82-2.99-44.33-2.64-85.05-8.62c0,0-0.69,1.51-1.1,6.34C2971.16,947.19,2971.21,948.59,2971.21,948.59z"/><path class="st11" d="M2927.52,929.18c-14.2-2.77-44.39-2.98-87.84-9.28c-3.38-1.07-7.22-2.49-10.78-4.27
			c-9.31-4.66-34.14-7.76-39.41-2.79c-5.28,4.96,5.59,25.14,28.24,25.76c7.94,0.22,13.89,0.82,18.28,1.5
			c2.39,1.12,30.26,14.05,59.83,23.42c10.94,3.47,22.38,6.72,33.3,9.16C2933.52,953.17,2930.49,937.98,2927.52,929.18z"/><path class="st4" d="M3059.04,982c-8.95-17.71-5.45-33.18-0.81-43.19c-14.82-2.99-44.53-4.29-85.26-10.27c0,0,0,0.03-0.01,0.07
			c-4.39-1.16-10.88-3.16-16.69-6.06c-9.94-4.97-36.44-8.28-42.08-2.98s5.96,26.84,30.15,27.5c13.4,0.37,21.5,1.75,26.07,2.91
			C2974.44,951.82,3020.09,972.66,3059.04,982z"/></g><g><path class="st18" d="M2715.29,955.91c0,0-28.97,13.47-60,23.29c-11.04,3.42-22.3,6.62-33.34,9.13
			c-10.12,2.29-19.77,3.89-28.28,4.11c0,0-0.69-0.22-2.07-0.92c-7.82-3.42-38.39-17.8-68.05-50.46c-2.3-2.74-4.83-5.48-7.13-8.45
			c-1.84-2.06-3.68-22.38-5.06-43.61c-0.23-0.23-0.23-0.23-0.23-0.23c-1.61-24.88-2.76-51.37-2.76-51.37s40,10.74,97.48,107.55
			c1.61,2.74,6.44,2.28,17.7,0.23c14.48-2.74,43.68-2.51,87.82-8.91c0,0,1.61,1.14,2.07,5.94
			C2714.14,952.71,2715.29,955.91,2715.29,955.91z"/><path class="st19" d="M2591.6,991.52c-7.82-3.42-38.39-17.8-68.05-50.46c-2.3-2.74-4.83-5.48-7.13-8.45
			c-1.84-2.06-3.68-22.38-5.06-43.61C2516.89,894.48,2581.26,956.6,2591.6,991.52z"/><path class="st17" d="M2447.04,668.62c0,0-3.66-7.45-21.96-5.41c-18.3,2.04-49.95,5.4-50.22,105.06
			c-0.03,10.92-65.85,110.44,8.38,204.15l52.99-134.04L2447.04,668.62z"/><path class="st20" d="M2452.32,669.92c0,0-19.52-6.54-29.8,3.15c-10.27,9.69-4.45,22.52-4.45,22.52L2452.32,669.92z"/><path class="st17" d="M2513.97,708.11c0,0-0.36-42.75-69.64-37.82c-11.77,0.84-22.45,7.53-27.83,17.97
			c-7.79,15.12-11.19,41.75,13.99,84.44L2513.97,708.11z"/><path class="st21" d="M2426.27,833.63l15.61,60.6l45.1,2.19l22.45-33.41c-20.99-15.8-23.95-43.49-23.65-59.92
			c0-0.16,0.01-0.32,0.01-0.48c0.18-7.74,1.07-12.86,1.07-12.86l-32-9.68l-24.37-7.37c2.24,18.47,2.09,31.79,1.08,41.18
			C2429.97,828.56,2426.27,833.63,2426.27,833.63z"/><path class="st21" d="M2380.75,1147.02l163.65-0.21c0,0-20.36-108.97-9.06-144.68c11.3-35.72-0.55-87.9-0.55-87.9
			c-16.44-38.78-20.63-75.08-27.94-76.98c-4.02-1.05-7.26-3.2-11.19-3.98c-64.29-12.76-116.55,10.47-116.55,10.47
			c-14.43,35.99,16.47,63.02,17.97,144.29C2398.54,1067.9,2380.75,1147.02,2380.75,1147.02z"/><path class="st18" d="M2554.13,1154.55c0,0-124.61,25.58-195.88-0.91c-3.91-1.59,11.04-55.03,21.38-91.56
			c5.06-18.04,8.97-31.96,8.74-33.79c-2.53-49.77-12.41-92.25-17.01-125.12c-1.38-8.68-2.3-16.44-2.53-23.75v-3.65
			c-0.23-11.87,1.38-21.46,5.52-29.46c7.82-14.38,49.89-14.62,49.89-14.62c4.14,4.8,26.9,20.55,54.03,20.32
			c27.36-0.23,13.83-19.43,13.83-19.43c1.15,0.23,2.95,0.48,3.87,0.71c13.56,2.97,22.76,9.36,22.76,9.36
			c21.84,23.75,28.97,142.03,28.51,145.9C2546.31,1002.94,2554.13,1154.55,2554.13,1154.55z"/><path class="st22" d="M2431.56,813.88c19.38-10.29,49.37-10.79,54.22-10.8c0.44,0,0.67,0,0.67,0s-0.23-0.17-0.66-0.48
			c-3.2-2.35-17.59-12.87-30.93-22.54l-24.37-7.37C2432.73,791.16,2432.58,804.48,2431.56,813.88z"/><path class="st21" d="M2497.82,803.97c0,0-68.75,3.12-70.05-39.43c-1.3-42.55-11.04-70.81,32.8-74.6
			c43.84-3.79,52.87,12.19,56.78,26.29C2521.26,730.32,2515.67,802.06,2497.82,803.97z"/><path class="st17" d="M2490.86,706.74c0,0,29.44,20.12,24.73,43.44c0,0,14.58-7.62,13.21-29.85
			c-1.38-22.24-22.74-37.53-41.54-38.69c-18.8-1.16-32.96,0.35-32.96,0.35L2490.86,706.74z"/><path class="st17" d="M2496.03,699.35c12.2,6.42-38.23,11.82-41.31,32.23c-3.08,20.41-27.13,28.22-27.13,28.22
			S2397.1,647.31,2496.03,699.35z"/><path class="st19" d="M2535.97,978.51c0,0-54.95,73.29-156.33,83.57c5.06-18.04,8.97-31.96,8.74-33.79
			c-2.53-49.77-12.41-92.25-17.01-125.12c-1.38-8.68-2.3-16.44-2.53-23.75v-3.65c11.72,2.29,29.89,14.38,37.7,16.21
			C2467,906.14,2535.97,978.51,2535.97,978.51z"/><path class="st18" d="M2597.3,961.32c0,0-47.04,23.47-87.83,33.18c-11.74,2.79-23.04,4.77-32.69,5.22c0,0-43.86-13.4-77.34-59.97
			c-64.66-89.95-14.74-99.65-14.74-99.65s43.19,26.76,104.2,111.97c2.13,2.98,7.49,2.31,21.37-0.48
			c14.82-2.97,44.32-2.62,85.05-8.56c0,0,0.69,1.5,1.1,6.3C2597.35,959.93,2597.3,961.32,2597.3,961.32z"/><path class="st11" d="M2715.32,955.87c0,0-29.08,13.62-60.02,23.34c-10.94,3.45-22.38,6.67-33.3,9.09
			c-4.38-19.36-1.36-34.45,1.62-43.19c14.34-2.78,45-2.96,89.16-9.4L2715.32,955.87z"/><path class="st11" d="M2701.76,938.44c0,0,11.17-2.16,20.48-6.78c9.31-4.62,34.14-7.71,39.41-2.77
			c5.28,4.93-5.59,24.96-28.24,25.58c-22.65,0.62-29.17,4.32-29.17,4.32L2701.76,938.44z"/><path class="st4" d="M2598.39,962.55c0,0-48.13,22.24-88.91,31.95c8.95-17.59,5.45-32.96,0.81-42.9
			c14.82-2.97,44.53-4.26,85.26-10.2c0,0,0.48,3.15,0.89,7.94C2597.35,959.93,2598.39,962.55,2598.39,962.55z"/><path class="st7" d="M2093.57,1148.61v-1.59h-170.82c-21.15,0-38.16,16.67-38.16,36.99c0,18.51,13.8,33.67,32,36.5v414.47h642.32
			v-486.38H2093.57z"/><g><g><rect x="2613.67" y="893.11" class="st14" width="102.61" height="101.91"/><rect x="2645.31" y="893.11" class="st15" width="102.61" height="101.91"/><polygon class="st16" points="2645.31,893.11 2613.67,912.16 2613.67,893.11 				"/></g><g><polygon class="st23" points="2662.57,915.16 2628.07,915.16 2629.52,911.16 2628.07,906.83 2662.25,906.83 2660.15,911.32 				
					"/><polygon class="st16" points="2645.32,906.83 2645.32,915.16 2628.07,915.16 2629.52,911.16 2628.07,906.83 				"/></g><g><polygon class="st23" points="2662.57,976.7 2628.07,976.7 2629.52,972.69 2628.07,968.37 2662.25,968.37 2660.15,972.85 				
					"/><polygon class="st16" points="2645.32,968.37 2645.32,976.7 2628.07,976.7 2629.52,972.69 2628.07,968.37 				"/></g></g><path class="st4" d="M2590.37,942.68c0,0,11.93-2.3,21.87-7.24c9.94-4.94,36.44-8.23,42.08-2.96c5.63,5.27-5.96,26.65-30.15,27.31
			s-31.14,4.61-31.14,4.61L2590.37,942.68z"/><rect x="2094.76" y="1148.61" class="st20" width="642.32" height="486.38"/><path class="st24" d="M2831.78,1147.02h-909.03c-21.15,0-38.16,16.67-38.16,36.99c0,20.55,17.01,36.99,38.16,36.99h909.03
			c23.45,0,42.53-16.67,42.53-36.99C2874.31,1163.69,2855.23,1147.02,2831.78,1147.02z"/></g><g><rect x="1841.3" y="930.51" class="st25" width="115.29" height="102.45"/><rect x="1862.37" y="930.51" class="st1" width="115.29" height="102.45"/></g><g><rect x="1989.3" y="915.11" class="st25" width="145.26" height="117.85"/><rect x="2015.84" y="915.11" class="st1" width="145.26" height="117.85"/></g><g><path class="st26" d="M2035.54,1354.3c0,0-47.83,35.56-57.15,33.41c-9.33-2.16,34.95-38.39,34.95-38.39
			c-16.66-8.01-68.46-2.99-68.46-2.99s-17.25,55.63-25.76,51.25c-8.51-4.39,17.79-48.48,17.79-48.48
			c-18.56-1.12-41.32,12.66-41.32,12.66c-31.16,24.61,2.05,63.35,2.05,63.35s-6.39,19.15-26.07,36.59c0,0-28.1,20.78-30.05,57.92
			l5.1,0.46c0,0,8.17-34.93,23.01-51.19c0.56-0.57,1.3-1.34,2.19-2.24c2.38-2.21,4.04-3.86,5.17-5.09
			c7.32-7.03,17.44-16,22.32-16.87c0,0-0.24-0.89-0.21-2.45c0.07,0.78,0.14,1.59,0.21,2.45c1.67,19.58,39.65,36.68,63.02,40.2
			c23.37,3.52,16.14-6.09,8.09-20.33c-8.05-14.24-33.53-20.62-39.35-27.18c-5.81-6.56,6.21-6.58,20.29-0.14
			c14.08,6.43,16.01,23.58,38.6,34.39c22.59,10.82,56.57-26.66,56.57-26.66c-18-0.91-43.71-20.46-42.78-26.44
			c0.93-5.98,43.63,10.32,50.93,11.1c7.3,0.78,23.91-8.3,26.48-37.7C2083.74,1362.5,2035.54,1354.3,2035.54,1354.3z"/><g><path class="st27" d="M1781.54,1376.38c0,0,52.82-29.58,28.17-69.73c0,0-19.72-24.65-40.85-30.99c0,0,11.27,59.87,0,61.27
				c-11.27,1.41-7.75-67.61-7.75-67.61s-55.64-26.76-77.47-24.65c0,0,34.51,58.46,23.24,57.05c-11.27-1.41-50.01-60.57-50.01-60.57
				s-57.05-10.56-66.2,23.24c-9.16,33.81,5.63,50.71,14.09,52.82c8.45,2.11,62.68,1.41,61.27,8.45
				c-1.41,7.04-38.03,18.31-58.46,11.97c0,0,22.54,55.64,52.12,52.82c29.58-2.82,38.74-21.13,57.05-22.54
				c18.31-1.41,31.69,3.52,22.54,8.45c-9.16,4.93-40.15,1.62-54.94,14.19c-14.79,12.57-26.76,20.32,0.7,25.96
				c27.47,5.63,76.77,2.11,86.63-19.02C1781.54,1376.38,1781.54,1376.38,1781.54,1376.38z"/><path class="st26" d="M1795.63,1427.8c-14.79-27.47-14.09-51.41-14.09-51.41c-16.9-53.53-164.81-101.42-164.81-101.42
				c188.05,76.07,154.95,122.55,154.95,122.55c5.07,2.96,12.67,17.06,17.94,27.87c0.75,1.84,1.94,4.38,3.7,7.83
				c0.72,1.57,1.3,2.86,1.69,3.75c9.68,24.23,4.55,66.06,4.55,66.06l5.87,1.58C1818.44,1462.44,1795.63,1427.8,1795.63,1427.8z"/></g><g><path class="st27" d="M1865.58,1335.59c0,0-69.63-38.99-37.14-91.91c0,0,26-32.49,53.85-40.85c0,0-14.85,78.91,0,80.77
				c14.85,1.86,10.21-89.13,10.21-89.13s73.34-35.28,102.12-32.49c0,0-45.49,77.06-30.64,75.2c14.85-1.86,65.92-79.84,65.92-79.84
				s75.2-13.93,87.27,30.64c12.07,44.56-7.43,66.84-18.57,69.63c-11.14,2.79-82.63,1.86-80.77,11.14
				c1.86,9.28,50.13,24.14,77.06,15.78c0,0-29.71,73.34-68.7,69.63c-38.99-3.71-51.06-27.85-75.2-29.71
				c-24.14-1.86-41.78,4.64-29.71,11.14c12.07,6.5,52.92,2.13,72.42,18.7c19.5,16.58,35.28,26.79-0.93,34.21
				c-36.21,7.43-101.2,2.79-114.19-25.07C1865.58,1335.59,1865.58,1335.59,1865.58,1335.59z"/><path class="st26" d="M2082.83,1201.9c0,0-194.96,63.13-217.25,133.69c0,0,0.93,31.57-18.57,67.77c0,0-30.07,45.66-12.93,101.24
				l7.74-2.08c0,0-6.76-55.15,6-87.08c0.52-1.18,1.28-2.86,2.22-4.92l0,0c2.33-4.56,3.9-7.92,4.89-10.34
				c6.95-14.26,16.97-32.84,23.65-36.73C1878.58,1363.44,1834.94,1302.16,2082.83,1201.9z"/></g><path class="st15" d="M1726.84,1488.73c0,75.33,61.07,136.39,136.39,136.39s136.39-61.07,136.39-136.39H1726.84z"/><path class="st28" d="M1896.8,1624.08c-5.55,0.69-11.2,1.04-16.95,1.04c-75.33,0-136.39-61.07-136.39-136.4h33.88
			C1777.35,1558.32,1829.46,1615.73,1896.8,1624.08z"/><path class="st15" d="M1984.68,1615.23h-242.9c-9.29,0-16.83,7.53-16.83,16.83h276.56
			C2001.51,1622.77,1993.98,1615.23,1984.68,1615.23z"/><rect x="1722.35" y="1488.73" class="st14" width="280.38" height="4.18"/></g><g><path class="st15" d="M611,1229.26l-27.11-101.38c-1.03-3.84-4.99-6.13-8.83-5.1l-168.64,45.11c-3.84,1.03-6.13,4.99-5.1,8.83
			l27.12,101.38c1.02,3.8,4.99,6.13,8.83,5.1l168.64-45.11C609.74,1237.06,612.01,1233.05,611,1229.26z"/><path class="st14" d="M583.88,1127.88c-1.03-3.84-4.99-6.13-8.83-5.1l-168.64,45.11c-3.84,1.03-6.13,4.99-5.1,8.83l104.84,26.27
			l78.51-72.17L583.88,1127.88z"/><path class="st14" d="M598.59,1224.58c-0.41-1.54-2.01-2.46-3.55-2.05l-31.63,8.46c-1.54,0.41-2.47,2.01-2.05,3.55
			c0.41,1.54,2.01,2.47,3.55,2.05l31.63-8.46C598.08,1227.72,599,1226.12,598.59,1224.58z"/></g><g><g><rect x="172.74" y="1334.77" class="st14" width="300.67" height="300.67"/><rect x="265.44" y="1334.77" class="st15" width="300.67" height="300.67"/><polygon class="st16" points="265.44,1334.77 172.74,1390.97 172.74,1334.77 			"/></g><g><polygon class="st23" points="323.33,1510.37 206.77,1510.37 211.67,1496.75 206.77,1482.04 322.24,1482.04 315.16,1497.3 			"/><polygon class="st16" points="265.05,1482.04 265.05,1510.37 206.77,1510.37 211.67,1496.75 206.77,1482.04 			"/></g></g><g><g><rect x="819.7" y="1459.16" class="st14" width="172.9" height="172.9"/><rect x="873.01" y="1459.16" class="st15" width="172.9" height="172.9"/><polygon class="st16" points="873.01,1459.16 819.7,1491.48 819.7,1459.16 			"/></g><rect x="941.49" y="1495.88" class="st13" width="136.17" height="136.16"/><rect x="983.47" y="1495.88" class="st2" width="136.17" height="136.16"/><rect x="996.48" y="1594.08" transform="matrix(0.9806 -0.1958 0.1958 0.9806 -294.9516 231.3164)" class="st29" width="51.53" height="26.19"/><g><polygon class="st29" points="1007.98,1530.59 958.78,1530.59 960.85,1524.85 958.78,1518.64 1007.52,1518.64 1004.53,1525.08 
							"/><polygon class="st1" points="983.38,1518.64 983.38,1530.59 958.78,1530.59 960.85,1524.85 958.78,1518.64 			"/></g><g><polygon class="st23" points="902.1,1496.56 843.96,1496.56 846.41,1489.77 843.96,1482.44 901.56,1482.44 898.03,1490.04 			"/><polygon class="st16" points="873.03,1482.44 873.03,1496.56 843.96,1496.56 846.41,1489.77 843.96,1482.44 			"/></g><g><polygon class="st23" points="902.1,1600.98 843.96,1600.98 846.41,1594.19 843.96,1586.85 901.56,1586.85 898.03,1594.46 			"/><polygon class="st16" points="873.03,1586.85 873.03,1600.98 843.96,1600.98 846.41,1594.19 843.96,1586.85 			"/></g></g><g><rect x="429.04" y="1397.23" class="st13" width="239.2" height="239.2"/><rect x="502.79" y="1397.23" class="st2" width="239.2" height="239.2"/><rect x="667.22" y="1417.06" transform="matrix(0.9806 -0.1958 0.1958 0.9806 -266.9327 164.1139)" class="st29" width="58.43" height="29.7"/><g><polygon class="st29" points="534.55,1435.11 469.72,1435.11 472.44,1427.54 469.72,1419.36 533.94,1419.36 530.01,1427.84 			
				"/><polygon class="st1" points="502.13,1419.36 502.13,1435.11 469.72,1435.11 472.44,1427.54 469.72,1419.36 			"/></g><g><polygon class="st29" points="534.55,1613.29 469.72,1613.29 472.44,1605.71 469.72,1597.53 533.94,1597.53 530.01,1606.02 			
				"/><polygon class="st1" points="502.13,1597.53 502.13,1613.29 469.72,1613.29 472.44,1605.71 469.72,1597.53 			"/></g></g><g><polygon class="st29" points="415.29,1133.6 323.16,1133.6 327.03,1122.84 323.16,1111.21 414.43,1111.21 408.83,1123.27 		"/><polygon class="st1" points="369.22,1111.21 369.22,1133.6 323.16,1133.6 327.03,1122.84 323.16,1111.21 		"/></g><rect x="1824.27" y="533.79" class="st30" width="478.33" height="16.82"/><rect x="1711.43" y="392.44" class="st2" width="621.44" height="16.82"/><rect x="1824.27" y="700.19" class="st30" width="478.33" height="16.82"/><rect x="1824.27" y="866.59" class="st30" width="478.33" height="16.82"/><rect x="1824.27" y="1032.99" class="st30" width="478.33" height="16.82"/><g><g><rect x="1840.78" y="564.41" class="st14" width="135.78" height="135.78"/><rect x="1882.65" y="564.41" class="st15" width="135.78" height="135.78"/><polygon class="st16" points="1882.65,564.41 1840.78,589.79 1840.78,564.41 			"/></g><g><rect x="1936.42" y="593.26" class="st13" width="106.93" height="106.93"/><rect x="1969.4" y="593.26" class="st2" width="106.93" height="106.93"/></g><rect x="1979.61" y="670.9" transform="matrix(0.9806 -0.1958 0.1958 0.9806 -94.6787 404.8543)" class="st29" width="40.46" height="20.56"/><g><polygon class="st29" points="1988.64,621.04 1950,621.04 1951.63,616.53 1950,611.65 1988.28,611.65 1985.93,616.71 			"/><polygon class="st1" points="1969.32,611.65 1969.32,621.04 1950,621.04 1951.63,616.53 1950,611.65 			"/></g><g><polygon class="st23" points="1905.5,593.53 1859.84,593.53 1861.76,588.2 1859.84,582.44 1905.07,582.44 1902.3,588.41 			"/><polygon class="st16" points="1882.67,582.44 1882.67,593.53 1859.84,593.53 1861.76,588.2 1859.84,582.44 			"/></g><g><polygon class="st23" points="1905.5,675.53 1859.84,675.53 1861.76,670.2 1859.84,664.43 1905.07,664.43 1902.3,670.41 			"/><polygon class="st16" points="1882.67,664.43 1882.67,675.53 1859.84,675.53 1861.76,670.2 1859.84,664.43 			"/></g></g><g><rect x="1906.73" y="427.11" class="st13" width="106.93" height="106.93"/><rect x="1939.7" y="427.11" class="st2" width="106.93" height="106.93"/><rect x="1949.92" y="504.22" transform="matrix(0.9806 -0.1958 0.1958 0.9806 -62.6104 395.8117)" class="st29" width="40.46" height="20.56"/><g><polygon class="st29" points="1958.94,454.36 1920.31,454.36 1921.93,449.85 1920.31,444.98 1958.58,444.98 1956.23,450.03 			
				"/><polygon class="st1" points="1939.62,444.98 1939.62,454.36 1920.31,454.36 1921.93,449.85 1920.31,444.98 			"/></g><g><rect x="2060.83" y="458.21" class="st14" width="75.56" height="75.56"/><rect x="2084.13" y="458.21" class="st15" width="75.56" height="75.56"/><polygon class="st16" points="2084.13,458.21 2060.83,472.34 2060.83,458.21 			"/><g><polygon class="st23" points="2096.84,474.56 2071.43,474.56 2072.5,471.59 2071.43,468.39 2096.6,468.39 2095.06,471.71 				
					"/><polygon class="st16" points="2084.14,468.39 2084.14,474.56 2071.43,474.56 2072.5,471.59 2071.43,468.39 				"/></g><g><polygon class="st23" points="2096.84,520.19 2071.43,520.19 2072.5,517.22 2071.43,514.02 2096.6,514.02 2095.06,517.34 				
					"/><polygon class="st16" points="2084.14,514.02 2084.14,520.19 2071.43,520.19 2072.5,517.22 2071.43,514.02 				"/></g></g></g><g><rect x="1842.06" y="777.81" class="st13" width="88.84" height="88.84"/><rect x="1869.45" y="777.81" class="st2" width="88.84" height="88.84"/><rect x="1877.94" y="841.88" transform="matrix(0.9806 -0.1959 0.1959 0.9806 -129.8613 387.5586)" class="st29" width="33.62" height="17.08"/><g><polygon class="st29" points="1885.44,800.46 1853.34,800.46 1854.69,796.71 1853.34,792.66 1885.14,792.66 1883.19,796.86 			
				"/><polygon class="st1" points="1869.39,792.66 1869.39,800.46 1853.34,800.46 1854.69,796.71 1853.34,792.66 			"/></g></g><g><rect x="1969.06" y="777.81" class="st13" width="88.84" height="88.84"/><rect x="1996.45" y="777.81" class="st2" width="88.84" height="88.84"/><rect x="2004.94" y="841.88" transform="matrix(0.9806 -0.1959 0.1959 0.9806 -127.4018 412.4317)" class="st29" width="33.62" height="17.08"/><g><polygon class="st29" points="2012.44,800.46 1980.34,800.46 1981.69,796.71 1980.34,792.66 2012.14,792.66 2010.19,796.86 			
				"/><polygon class="st1" points="1996.39,792.66 1996.39,800.46 1980.34,800.46 1981.69,796.71 1980.34,792.66 			"/></g></g><g><g><rect x="2089.42" y="635.4" class="st14" width="64.79" height="64.79"/><rect x="2109.4" y="635.4" class="st15" width="64.79" height="64.79"/><polygon class="st16" points="2109.4,635.4 2089.42,647.51 2089.42,635.4 			"/></g><g><g><rect x="2135.06" y="649.17" class="st13" width="51.02" height="51.02"/><rect x="2150.79" y="649.17" class="st2" width="51.02" height="51.02"/></g></g><rect x="2155.67" y="686.49" transform="matrix(0.9806 -0.1958 0.1958 0.9806 -93.4721 437.436)" class="st29" width="19.31" height="9.81"/><g><polygon class="st29" points="2159.97,662.7 2141.54,662.7 2142.31,660.55 2141.54,658.22 2159.8,658.22 2158.68,660.63 			"/><polygon class="st1" points="2150.76,658.22 2150.76,662.7 2141.54,662.7 2142.31,660.55 2141.54,658.22 			"/></g><g><polygon class="st23" points="2120.3,649.57 2098.51,649.57 2099.43,647.03 2098.51,644.28 2120.1,644.28 2118.77,647.13 			"/><polygon class="st16" points="2109.41,644.28 2109.41,649.57 2098.51,649.57 2099.43,647.03 2098.51,644.28 			"/></g><g><polygon class="st23" points="2120.3,688.7 2098.51,688.7 2099.43,686.15 2098.51,683.4 2120.1,683.4 2118.77,686.26 			"/><polygon class="st16" points="2109.41,683.4 2109.41,688.7 2098.51,688.7 2099.43,686.15 2098.51,683.4 			"/></g></g><polygon class="st2" points="2234.38,748.43 2207.08,866.97 2282.52,866.97 2309.82,748.43 	"/><polygon class="st9" points="2185.53,748.43 2158.23,866.97 2233.67,866.97 2260.97,748.43 	"/><g><path class="st15" d="M2206.35,811.87l0.04,51.5c0,1.93-1.58,3.54-3.54,3.54l-85.67,0.06c-1.95,0-3.54-1.61-3.54-3.54l-0.04-51.5
			c0-1.95,1.58-3.54,3.54-3.54l85.67-0.06C2204.76,808.33,2206.35,809.92,2206.35,811.87z"/><path class="st14" d="M2206.35,811.87l0,1.49l-46.36,24.29l-46.39-25.72c0-1.95,1.58-3.54,3.54-3.54l85.67-0.06
			C2204.76,808.33,2206.35,809.92,2206.35,811.87z"/><path class="st14" d="M2199.67,858.16l-16.07,0.01c-0.78,0-1.42,0.64-1.42,1.42c0,0.78,0.64,1.42,1.42,1.42l16.07-0.01
			c0.78,0,1.42-0.64,1.42-1.43C2201.1,858.8,2200.45,858.16,2199.67,858.16z"/></g><g><path class="st15" d="M2190.55,811.49c0-1.95-1.59-3.54-3.54-3.54l-85.67,0.06c-1.95,0-3.54,1.59-3.54,3.54l0.04,51.5
			c0,1.93,1.59,3.54,3.54,3.54l85.67-0.06c1.95,0,3.54-1.61,3.54-3.54L2190.55,811.49z"/><path class="st14" d="M2190.55,811.49l0,1.49l-46.36,24.29l-46.39-25.72c0-1.95,1.58-3.54,3.54-3.54l85.67-0.06
			C2188.96,807.95,2190.54,809.53,2190.55,811.49z"/><path class="st14" d="M2183.87,857.78l-16.07,0.01c-0.78,0-1.42,0.64-1.42,1.43c0,0.78,0.64,1.42,1.42,1.42l16.07-0.01
			c0.78,0,1.42-0.64,1.42-1.42C2185.29,858.42,2184.65,857.78,2183.87,857.78z"/></g><path class="st31" d="M4212.96,1637.35H22.46c-1.4,0-2.54-1.14-2.54-2.54v-0.95c0-1.4,1.14-2.54,2.54-2.54h4190.5
		c1.4,0,2.54,1.14,2.54,2.54v0.95C4215.5,1636.21,4214.36,1637.35,4212.96,1637.35z"/></g><rect x="3406.6" y="1138.96" transform="matrix(-1 -4.488733e-11 4.488733e-11 -1 7490.4712 2770.5337)" class="st2" width="677.27" height="492.62"/><rect x="3256.57" y="1137.96" transform="matrix(-1 -4.489932e-11 4.489932e-11 -1 7358.3638 2306)" class="st13" width="845.22" height="30.08"/><g><g><g><path class="st32" d="M3907.67,940.31l16.23,192.94c0,0,1.7,11.7-7,11.72c-14.3,0.03-71.2,0-71.2,0s10.77-2.43,10.64-7.91
				c-0.15-6.46-18.97-198.57-18.97-198.57L3907.67,940.31z"/><path class="st18" d="M3841.08,1141.47c2.81,0.01,57.15,0.18,71.08,0c6.07-0.08,7.14-5.4,7.19-8.84
				c0.02-1.65-0.18-2.87-0.18-2.87l-0.42-5.02l-1.08-12.78l-0.95-11.29l-1.22-14.51l-1.03-12.25l-11.53-137.1l-70.3-1.82
				c0,0,7.92,80.4,13.53,138.92c0.63,6.52,1.22,12.77,1.77,18.61c0.18,1.86,0.35,3.69,0.52,5.46c0.52,5.54,0.99,10.62,1.41,15.11
				c0.22,2.37,0.42,4.56,0.6,6.58c0.72,7.89,1.13,12.93,1.14,13.89c0,0.56-0.04,1.08-0.14,1.56
				C3850.31,1141.26,3842.14,1141.47,3841.08,1141.47z"/><polygon class="st18" points="4078.39,835.31 4038.86,994.08 4033.45,1015.83 4015.04,1089.78 3673.03,1089.78 3740.88,835.31 
							"/><polygon class="st32" points="4078.39,835.31 4083.87,837.14 4022.33,1095.3 4015.04,1089.78 			"/><polygon class="st19" points="4022.33,1095.3 3682.42,1095.3 3673.03,1089.78 4015.04,1089.78 			"/><rect x="3829.36" y="1141.54" class="st33" width="73.6" height="3.5"/><polygon class="st33" points="3689.6,1042.89 3745.09,838.68 4078.94,838.68 4078.94,835.31 3740.88,835.31 3685.57,1042.43 			
				"/><polygon class="st19" points="3848.07,1095.3 3848.45,1097.97 3917.67,1111.95 3916.72,1100.66 3916.26,1095.3 			"/><path class="st34" d="M3841.08,1141.47c2.81,0.01,57.15,0.18,71.08,0c6.07-0.08,7.14-5.4,7.19-8.84l-68.89-12.96
				c0.72,7.89,1.13,12.93,1.14,13.89c0,0.56-0.04,1.08-0.14,1.56C3850.31,1141.26,3842.14,1141.47,3841.08,1141.47z"/><polygon class="st19" points="3864.8,1038.26 4015.04,1089.78 4033.45,1015.83 			"/><polygon class="st35" points="4078.39,835.31 3740.88,835.31 3686.12,1039.82 4029.22,1039.82 			"/></g><polygon class="st36" points="3702.04,1030.96 4018.05,1030.96 4053.84,888.39 4056.58,877.46 4058.92,868.13 4064.41,846.27 
			3752.95,846.27 3746.93,868.13 3744.36,877.46 3741.34,888.39 		"/><g><polygon class="st37" points="3783.35,856.24 3797.56,856.44 3797.88,855.2 3783.67,855 			"/><polygon class="st37" points="3786.49,859.64 3796.71,859.79 3797.02,858.55 3786.81,858.41 			"/><polygon class="st37" points="3774.75,859.48 3784.97,859.62 3785.29,858.39 3775.07,858.24 			"/><polygon class="st37" points="3766.26,859.36 3772.59,859.45 3772.91,858.21 3766.58,858.12 			"/><polygon class="st37" points="3771.95,856.08 3780.72,856.2 3781.04,854.97 3772.27,854.84 			"/><polygon class="st37" points="3759.98,855.91 3768.74,856.03 3769.06,854.8 3760.29,854.67 			"/></g><g><polygon class="st37" points="3745.45,1018.28 3759.66,1018.48 3759.98,1017.24 3745.77,1017.04 			"/><polygon class="st37" points="3748.59,1021.68 3758.8,1021.83 3759.12,1020.59 3748.9,1020.45 			"/><polygon class="st37" points="3736.85,1021.52 3747.07,1021.66 3747.38,1020.43 3737.17,1020.28 			"/><polygon class="st37" points="3728.36,1021.4 3734.69,1021.49 3735.01,1020.25 3728.68,1020.16 			"/><polygon class="st37" points="3734.05,1018.12 3742.82,1018.24 3743.13,1017 3734.37,1016.88 			"/><polygon class="st37" points="3722.08,1017.95 3730.84,1018.07 3731.16,1016.84 3722.39,1016.71 			"/></g><g><g><polygon class="st37" points="4005.36,865.66 4038.67,865.57 4039.33,862.78 4006.02,862.86 				"/><polygon class="st37" points="4012.94,873.21 4036.89,873.16 4037.54,870.36 4013.6,870.42 				"/><polygon class="st37" points="3985.42,873.28 4009.37,873.22 4010.03,870.43 3986.08,870.48 				"/><polygon class="st37" points="3965.52,873.33 3980.36,873.29 3981.02,870.5 3966.18,870.53 				"/><polygon class="st37" points="3978.63,865.72 3999.18,865.67 3999.84,862.87 3979.29,862.92 				"/><polygon class="st37" points="3950.56,865.79 3971.11,865.74 3971.77,862.94 3951.22,862.99 				"/></g><g><g><polygon class="st37" points="4004.73,890.28 4032.87,890.21 4033.53,887.42 4005.39,887.49 					"/><polygon class="st37" points="3983.91,890.33 3999.63,890.3 4000.28,887.5 3984.57,887.54 					"/><polygon class="st37" points="3952.69,890.41 3976.78,890.35 3977.44,887.55 3953.34,887.61 					"/></g><g><polygon class="st37" points="3997.83,897.65 4031.14,897.57 4031.8,894.77 3998.49,894.85 					"/><polygon class="st37" points="4005.41,905.21 4029.36,905.15 4030.01,902.35 4006.06,902.41 					"/><polygon class="st37" points="3977.89,905.27 4001.84,905.22 4002.5,902.42 3978.55,902.48 					"/><polygon class="st37" points="3957.99,905.32 3972.83,905.29 3973.49,902.49 3958.64,902.53 					"/><polygon class="st37" points="3971.1,897.71 3991.65,897.66 3992.31,894.87 3971.76,894.92 					"/><polygon class="st37" points="3943.03,897.78 3963.58,897.73 3964.24,894.94 3943.69,894.99 					"/></g></g><g><g><polygon class="st38" points="3996.49,925.31 4024.63,925.24 4025.28,922.44 3997.15,922.51 					"/><polygon class="st38" points="3975.67,925.36 3991.38,925.32 3992.04,922.52 3976.32,922.56 					"/><polygon class="st38" points="3944.44,925.43 3968.54,925.37 3969.19,922.58 3945.1,922.64 					"/></g><g><polygon class="st38" points="3989.59,932.67 4022.9,932.59 4023.55,929.79 3990.24,929.88 					"/><polygon class="st38" points="3997.16,940.23 4021.11,940.17 4021.77,937.38 3997.82,937.43 					"/><polygon class="st38" points="3969.65,940.3 3993.6,940.24 3994.26,937.44 3970.31,937.5 					"/><polygon class="st38" points="3949.74,940.35 3964.59,940.31 3965.24,937.51 3950.4,937.55 					"/><polygon class="st38" points="3962.86,932.74 3983.41,932.69 3984.07,929.89 3963.52,929.94 					"/><polygon class="st38" points="3934.79,932.8 3955.34,932.75 3955.99,929.96 3935.44,930.01 					"/></g></g><g><g><polygon class="st37" points="3988.6,958.81 4016.74,958.74 4017.4,955.95 3989.26,956.01 					"/><polygon class="st37" points="3967.78,958.86 3983.49,958.82 3984.15,956.03 3968.44,956.07 					"/><polygon class="st37" points="3936.56,958.94 3960.65,958.88 3961.31,956.08 3937.21,956.14 					"/></g><g><polygon class="st37" points="3981.7,966.18 4015.01,966.09 4015.67,963.3 3982.36,963.38 					"/><polygon class="st37" points="3989.28,973.74 4013.22,973.68 4013.88,970.88 3989.93,970.94 					"/><polygon class="st37" points="3961.76,973.8 3985.71,973.74 3986.37,970.95 3962.42,971.01 					"/><polygon class="st37" points="3941.86,973.85 3956.7,973.81 3957.36,971.02 3942.51,971.06 					"/><polygon class="st37" points="3954.97,966.24 3975.52,966.19 3976.18,963.39 3955.63,963.44 					"/><polygon class="st37" points="3926.9,966.31 3947.45,966.26 3948.11,963.46 3927.56,963.51 					"/></g></g><g><g><polygon class="st38" points="3980.5,993.22 4008.64,993.15 4009.3,990.35 3981.16,990.42 					"/><polygon class="st38" points="3959.68,993.27 3975.4,993.23 3976.05,990.44 3960.34,990.47 					"/><polygon class="st38" points="3928.46,993.35 3952.55,993.29 3953.21,990.49 3929.11,990.55 					"/></g><g><polygon class="st38" points="3973.6,1000.59 4006.91,1000.5 4007.57,997.71 3974.26,997.79 					"/><polygon class="st38" points="3981.18,1008.14 4005.13,1008.09 4005.78,1005.29 3981.83,1005.35 					"/><polygon class="st38" points="3953.66,1008.21 3977.61,1008.15 3978.27,1005.36 3954.32,1005.42 					"/><polygon class="st38" points="3933.76,1008.26 3948.6,1008.22 3949.26,1005.43 3934.41,1005.46 					"/><polygon class="st38" points="3946.87,1000.65 3967.42,1000.6 3968.08,997.8 3947.53,997.86 					"/><polygon class="st38" points="3918.8,1000.72 3939.35,1000.67 3940.01,997.87 3919.46,997.92 					"/></g></g><g><polygon class="st18" points="3859.24,867.99 3892.55,867.91 3893.21,865.11 3859.9,865.2 				"/><polygon class="st18" points="3866.82,875.55 3890.77,875.49 3891.43,872.7 3867.48,872.76 				"/><polygon class="st18" points="3839.3,875.62 3863.25,875.56 3863.91,872.76 3839.96,872.82 				"/><polygon class="st18" points="3819.4,875.67 3834.24,875.63 3834.9,872.83 3820.06,872.87 				"/><polygon class="st18" points="3832.51,868.06 3853.06,868.01 3853.72,865.21 3833.17,865.26 				"/><polygon class="st18" points="3804.44,868.13 3824.99,868.08 3825.65,865.28 3805.1,865.33 				"/></g><g><g><polygon class="st18" points="3858.62,892.62 3886.75,892.55 3887.41,889.75 3859.27,889.82 					"/><polygon class="st18" points="3837.79,892.67 3853.51,892.63 3854.16,889.83 3838.45,889.87 					"/><polygon class="st18" points="3806.57,892.75 3830.66,892.69 3831.32,889.89 3807.22,889.95 					"/></g><g><polygon class="st18" points="3851.71,899.99 3885.02,899.9 3885.68,897.11 3852.37,897.19 					"/><polygon class="st18" points="3859.29,907.54 3883.24,907.49 3883.89,904.69 3859.95,904.75 					"/><polygon class="st18" points="3831.77,907.61 3855.72,907.55 3856.38,904.76 3832.43,904.82 					"/><polygon class="st18" points="3811.87,907.66 3826.71,907.62 3827.37,904.83 3812.52,904.86 					"/><polygon class="st18" points="3824.98,900.05 3845.53,900 3846.19,897.2 3825.64,897.25 					"/><polygon class="st18" points="3796.91,900.09 3817.46,900.09 3818.12,897.3 3797.57,897.3 					"/></g></g><g><g><polygon class="st37" points="3850.37,927.64 3878.51,927.57 3879.17,924.78 3851.03,924.85 					"/><polygon class="st37" points="3829.55,927.69 3845.26,927.65 3845.92,924.86 3830.21,924.9 					"/><polygon class="st37" points="3798.32,927.77 3822.42,927.71 3823.08,924.91 3798.98,924.97 					"/></g><g><polygon class="st37" points="3843.47,935.01 3876.78,934.93 3877.44,932.13 3844.13,932.21 					"/><polygon class="st37" points="3851.04,942.57 3874.99,942.51 3875.65,939.71 3851.7,939.77 					"/><polygon class="st37" points="3823.53,942.63 3847.48,942.58 3848.14,939.78 3824.19,939.84 					"/><polygon class="st37" points="3803.62,942.68 3818.47,942.65 3819.13,939.85 3804.28,939.89 					"/><polygon class="st37" points="3816.74,935.07 3837.29,935.02 3837.95,932.23 3817.4,932.28 					"/><polygon class="st37" points="3788.67,935.14 3809.22,935.09 3809.88,932.3 3789.33,932.35 					"/></g></g><g><g><polygon class="st37" points="3842.48,961.15 3870.62,961.08 3871.28,958.28 3843.14,958.35 					"/><polygon class="st37" points="3821.66,961.2 3837.38,961.16 3838.03,958.36 3822.32,958.4 					"/><polygon class="st37" points="3790.44,961.28 3814.53,961.22 3815.19,958.42 3791.09,958.48 					"/></g><g><polygon class="st37" points="3835.58,968.51 3868.89,968.43 3869.55,965.64 3836.24,965.72 					"/><polygon class="st37" points="3843.16,976.07 3867.11,976.01 3867.76,973.22 3843.82,973.28 					"/><polygon class="st37" points="3815.64,976.14 3839.59,976.08 3840.25,973.28 3816.3,973.34 					"/><polygon class="st37" points="3795.74,976.19 3810.58,976.15 3811.24,973.36 3796.39,973.39 					"/><polygon class="st37" points="3808.85,968.58 3829.4,968.53 3830.06,965.73 3809.51,965.78 					"/><polygon class="st37" points="3780.78,968.65 3801.33,968.6 3801.99,965.8 3781.44,965.85 					"/></g></g><g><g><polygon class="st37" points="3834.39,995.56 3862.52,995.49 3863.18,992.69 3835.04,992.76 					"/><polygon class="st37" points="3813.56,995.61 3829.28,995.57 3829.93,992.77 3814.22,992.81 					"/><polygon class="st37" points="3782.34,995.69 3806.43,995.63 3807.09,992.83 3782.99,992.89 					"/></g><g><polygon class="st37" points="3827.48,1002.92 3860.79,1002.84 3861.45,1000.05 3828.14,1000.13 					"/><polygon class="st37" points="3835.06,1010.48 3859.01,1010.42 3859.66,1007.63 3835.72,1007.69 					"/><polygon class="st37" points="3807.54,1010.55 3831.49,1010.49 3832.15,1007.69 3808.2,1007.75 					"/><polygon class="st37" points="3787.64,1010.6 3802.48,1010.56 3803.14,1007.77 3788.3,1007.8 					"/><polygon class="st37" points="3800.75,1002.99 3821.3,1002.94 3821.96,1000.14 3801.41,1000.19 					"/><polygon class="st37" points="3772.68,1003.06 3793.23,1003.01 3793.89,1000.21 3773.34,1000.26 					"/></g></g></g></g><g><path class="st39" d="M3680.55,1584.32c0,0,3.05,47.46,12.23,48.12c1.22,0.09,46.57-0.01,46.57-0.01l57.89-0.46
			c0,0-0.41-13.95-17.34-16.86c-16.93-2.91-45.28-14.74-55.58-37.09C3713.49,1554.51,3680.55,1584.32,3680.55,1584.32z"/><path class="st38" d="M3514.83,1190.97c-2.21,1.86-61.18,65.75-56.36,114.82c1.41,14.41,13.83,25.25,28.31,25.25h71.82
			c0,0,73.29,13.1,75.03,28.93c1.75,15.84,16.74,101.21,46.46,222.53c0,0,21.9,7.54,35.18,2.16c17.57-7.12,20.12-14.68,20.12-14.68
			s-17.71-271.66-31.7-290.78c-13.99-19.12-158.06-75.95-204.71-81.61C3452.35,1191.93,3514.83,1190.97,3514.83,1190.97z"/><path class="st40" d="M3931.37,1123.21c0,0,41.67-9.69,52.33,0c10.66,9.69,14.05,23.74,14.05,23.74h-66.39V1123.21z"/><path class="st38" d="M3782.02,1584.32c0,0,3.05,47.46,12.23,48.12c1.22,0.09,46.57-0.01,46.57-0.01l57.89-0.46
			c0,0-0.41-13.95-17.34-16.86c-16.93-2.91-45.28-14.74-55.58-37.09C3814.96,1554.51,3782.02,1584.32,3782.02,1584.32z"/><path class="st41" d="M3460.36,1190.97c-1.68,1.41-14.44,35.75-22.96,74.75c-7.34,33.56,18.19,65.32,52.55,65.32h167.08
			c0,0,73.29,13.1,75.04,28.93c1.75,15.84,16.74,101.21,46.46,222.53c0,0,21.98,5.77,39.14-1.57c9.13-3.9,16.32-13.25,16.32-13.25
			s-17.87-269.36-31.86-288.48c-13.99-19.12-158.06-75.95-204.71-81.61C3550.77,1191.93,3460.36,1190.97,3460.36,1190.97z"/><path class="st40" d="M3552.97,948.11l25.84,24.8l44.03,0.01c0.05-3.54-0.1-18.3-0.25-31.68c-0.01-0.79-0.03-1.57-0.03-2.35
			c-0.03-2.97-0.07-5.84-0.11-8.45c-0.09-7.37-0.16-12.71-0.16-12.71l-11.32-7.74l-25.15-17.22l-13.6-9.3
			c-0.01,0.23-1.13,12.39-1.3,14.16C3567.92,929.13,3552.97,948.11,3552.97,948.11z"/><path class="st38" d="M3616.98,943.63c-0.84-0.35-48.48-21.72-54.05-19.88c-5.57,1.84-12.51,18.85-12.51,18.85l83.88,18.96
			C3634.3,961.57,3627.7,948.15,3616.98,943.63z"/><path class="st42" d="M3410.95,1086.39c9.08-55.97,47.4-97.85,63.79-113.55c11.01-16.56,75.68-30.23,75.68-30.23
			s53.58,12.11,83.88,18.96c0,0,47.28,5.13,73.94,49.23c16.49,27.27,63.71,89.64,94.72,91.58c31.01,1.94,128.41,20.84,128.41,20.84
			v23.96l-148.49,4.07c-1.82,0.05-3.62-0.09-5.41-0.43c-12.78-2.41-67.55-13.3-94.79-27.47c-4.35,70.14-9.49,177.25-33.99,194.26
			c-25.91,17.99-208.13,20.4-227.42-7.02c-9.87-14.03,2.23-97.12,17.36-177.24C3419.84,1124.39,3407.14,1109.85,3410.95,1086.39z"/><path class="st43" d="M3579.27,907.45l2.24,1.39c0,0,20.72,14.92,40.94,21.61c-0.09-7.37-0.16-12.71-0.16-12.71l-11.32-7.74
			L3579.27,907.45z"/><path class="st40" d="M3637.71,918.12c0,0-67.74,8.01-72.08-34.25c-4.34-42.26-16.01-69.69,27.06-76.59
			c43.07-6.9,53.14,8.36,58.02,22.11C3655.59,843.15,3655.22,914.95,3637.71,918.12z"/><path class="st38" d="M3648.92,825.06c0,0-12.79,45.85-22.05,42.02c-9.26-3.82-17.72-6.96-18.94,7.36
			c-1.21,14.31,9.12,33.03-21.05,29.97c-30.17-3.06-58.57-87.65-47.7-100.63C3570.55,766.33,3692.49,780.36,3648.92,825.06z"/></g><g><path class="st44" d="M3696.89,1340.13h-342.94c-8.39,0-15.18-6.8-15.18-15.18v-22.84h358.12V1340.13z"/><path class="st18" d="M3742.86,1340.13h-265.12c-6.2,0-11.23-5.03-11.23-11.23v-15.57c0-6.2,5.03-11.23,11.23-11.23h265.12
			c6.2,0,11.23,5.03,11.23,11.23v15.57C3754.09,1335.1,3749.06,1340.13,3742.86,1340.13z"/><g><polygon class="st41" points="3526,1615.17 3504.39,1615.17 3498.32,1340.13 3531.34,1340.13 			"/><polygon class="st41" points="3619.93,1617.17 3409.73,1617.17 3409.73,1598.18 3516.87,1588.52 3619.93,1598.18 			"/><ellipse transform="matrix(0.6518 -0.7584 0.7584 0.6518 -37.9519 3145.7151)" class="st41" cx="3406.6" cy="1614.19" rx="17.29" ry="17.29"/><path class="st41" d="M3599.51,1614.19c0-9.55,7.74-17.29,17.29-17.29c9.55,0,17.29,7.74,17.29,17.29
				c0,9.55-7.74,17.29-17.29,17.29C3607.26,1631.48,3599.51,1623.74,3599.51,1614.19z"/><path class="st41" d="M3612.4,1358.17h-195.14c-9.97,0-18.04-8.08-18.04-18.04l0,0h231.22l0,0
				C3630.44,1350.1,3622.37,1358.17,3612.4,1358.17z"/></g><path class="st18" d="M3371.87,1340.13c-9.09,0-16.45-7.37-16.45-16.45v-253.26c0-47.46,31.03-85.93,69.3-85.93h156.72
			c38.27,0,69.3,38.47,69.3,85.93v269.71H3371.87z"/><path class="st19" d="M3368.78,1340.13c-16.57,0-30.01-13.43-30.01-30.01v-239.71c0-47.46,31.03-85.93,69.3-85.93h156.72
			c38.28,0,69.3,38.47,69.3,85.93v269.71H3368.78z"/></g></g></svg>