<?xml version="1.0" encoding="utf-8"?><!--Generator: Adobe Illustrator 25.2.1, SVG Export Plug-In . SVG Version: 6.00 Build 0)--><svg version="1.1" id="_x2018_лой_x5F_1" xmlns="http://www.w3.org/2000/svg" xmlns:xlink="http://www.w3.org/1999/xlink" x="0px" y="0px" viewBox="0 0 2685.59 1444.64" style="enable-background:new 0 0 2685.59 1444.64" xml:space="preserve"><style type="text/css">.st0{fill:#E8F2FA;}
	.st1{fill:#294172;}
	.st2{fill:#FFFFFF;}
	.st3{fill:#429253;}
	.st4{fill:#AEC3FF;}
	.st5{fill:#9CB8F7;}
	.st6{fill:#C5D7FF;}
	.st7{fill:#233862;}
	.st8{fill:#FFB27D;}
	.st9{fill:#ED985F;}
	.st10{fill:#2C3A64;}
	.st11{fill:#2B478B;}
	.st12{fill:#32892B;}
	.st13{fill:#243B65;}
	.st14{fill:#1B2840;}
	.st15{fill:#207253;}
	.st16{fill:#CADAFF;}
	.st17{fill:#6F89DD;}
	.st18{fill:#F78248;}
	.st19{fill:#2E3552;}
	.st20{fill:#F4F4F4;}
	.st21{fill:#082242;}
	.st22{fill:#F2F9FF;}
	.st23{fill:#29498A;}
	.st24{fill:#05234F;}
	.st25{fill:#209453;}
	.st26{fill:#FFB07D;}
	.st27{fill:#184D8D;}
	.st28{fill:#163051;}
	.st29{fill:#FCA36B;}
	.st30{fill:#143660;}
	.st31{fill:#1C4E83;}
	.st32{fill:#719BEF;}
	.st33{opacity:0.5;}
	.st34{fill:#B1CFF8;}
	.st35{fill:#223962;}
	.st36{fill:#C3C3C3;}
	.st37{fill:#DFDFDF;}
	.st38{fill:#E9E9E9;}
	.st39{fill:#172E4C;}
	.st40{fill:#F2CAA9;}
	.st41{fill:#E8925B;}
	.st42{fill:#ED955D;}
	.st43{fill:#97B2FF;}
	.st44{fill:#EAF2F9;}
	.st45{fill:#A7D09E;}</style><g><path class="st0" d="M174.09,1423.36c0,0-250.53-147.85-11.12-514.21c197.26-301.86-95.95-540.7,298.66-676.53
		c325.87-112.17,528.82,53.37,756.67-13.34S1589.26-51.2,1995.6,28.91s442.41,441.76,389.03,660.34
		c-53.37,218.58,292.51,377.9,150.7,734.12H174.09z"/><g><g><rect x="623.38" y="417.54" transform="matrix(0.9763 -0.2162 0.2162 0.9763 -159.5567 222.765)" class="st1" width="629.69" height="845.98"/><rect x="655.71" y="445.08" transform="matrix(0.9763 -0.2162 0.2162 0.9763 -158.4715 222.3971)" class="st2" width="562.75" height="780.61"/><path class="st3" d="M743.73,450.37l6.2,27.98c3.42,15.45,18.71,25.21,34.15,21.79l150.15-33.25
				c15.44-3.42,25.18-18.72,21.76-34.17l-6.2-27.98L743.73,450.37z"/></g><g><g><g><path class="st4" d="M824.41,817.8l-99.37,22.01l-22.01-99.37l99.37-22.01L824.41,817.8z M728.68,834.1l90.01-19.94
						l-19.93-90.01l-90.01,19.94L728.68,834.1z"/></g><g><path class="st4" d="M772.77,808.29c-2.08,0.46-4.28-0.03-5.97-1.35l-38.88-30.3c-3.13-2.44-3.69-6.96-1.25-10.09
						c2.44-3.13,6.96-3.69,10.09-1.25l30.84,24.03l27.64-83.58c1.25-3.77,5.31-5.81,9.09-4.57c3.77,1.25,5.82,5.31,4.57,9.08
						l-30.84,93.27c-0.73,2.22-2.5,3.94-4.74,4.62C773.12,808.2,772.95,808.25,772.77,808.29z"/></g></g><g><g><path class="st4" d="M858.82,973.18l-99.37,22.01l-22.01-99.37l99.37-22.01L858.82,973.18z M763.09,989.47l90.01-19.94
						l-19.93-90.01l-90.01,19.93L763.09,989.47z"/></g><g><path class="st4" d="M806.99,962.81c-2.08,0.46-4.28-0.03-5.97-1.35l-38.88-30.3c-3.13-2.44-3.69-6.96-1.25-10.09
						c2.44-3.13,6.96-3.69,10.09-1.25l30.83,24.03l27.64-83.58c1.25-3.77,5.31-5.82,9.09-4.57c3.77,1.25,5.82,5.31,4.57,9.09
						l-30.84,93.27c-0.73,2.22-2.5,3.94-4.74,4.62C807.35,962.72,807.17,962.77,806.99,962.81z"/></g></g><g><g><path class="st4" d="M892.52,1125.34l-99.37,22.01l-22.01-99.37l99.37-22.01L892.52,1125.34z M796.79,1141.63l90.01-19.94
						l-19.94-90.01l-90.01,19.94L796.79,1141.63z"/></g><g><path class="st4" d="M840.37,1113.5c-2.08,0.46-4.28-0.03-5.97-1.35l-38.88-30.3c-3.13-2.44-3.69-6.96-1.25-10.09
						c2.44-3.13,6.96-3.69,10.09-1.25l30.83,24.03l27.64-83.58c1.25-3.77,5.31-5.81,9.08-4.57c3.77,1.25,5.82,5.31,4.57,9.08
						l-30.84,93.27c-0.73,2.22-2.5,3.94-4.74,4.62C840.72,1113.42,840.54,1113.46,840.37,1113.5z"/></g></g><g><rect x="873.19" y="704.82" transform="matrix(0.9763 -0.2162 0.2162 0.9763 -130.4338 227.4537)" class="st4" width="202.05" height="9.93"/><rect x="882.78" y="748.13" transform="matrix(0.9763 -0.2162 0.2162 0.9763 -139.5703 230.5515)" class="st4" width="202.05" height="9.93"/><rect x="1025.45" y="709.96" transform="matrix(0.9763 -0.2162 0.2162 0.9763 -129.6679 244.7434)" class="st4" width="56.28" height="9.93"/><rect x="878.89" y="734.8" transform="matrix(0.9763 -0.2162 0.2162 0.9763 -137.6932 221.0731)" class="st4" width="125.04" height="9.93"/></g><g><g><path class="st4" d="M788.74,656.75l-99.37,22.01l-22.01-99.37l99.37-22.01L788.74,656.75z M693.01,673.04l90.01-19.94
						l-19.94-90.01l-90.01,19.93L693.01,673.04z"/></g><g><path class="st3" d="M737.1,647.24c-2.08,0.46-4.28-0.03-5.97-1.35l-38.88-30.3c-3.13-2.44-3.69-6.96-1.25-10.09
						c2.44-3.13,6.96-3.69,10.09-1.25l30.83,24.03l27.64-83.58c1.25-3.77,5.31-5.81,9.09-4.57c3.77,1.25,5.82,5.31,4.57,9.09
						l-30.84,93.27c-0.73,2.22-2.5,3.94-4.74,4.62C737.46,647.15,737.28,647.2,737.1,647.24z"/></g></g><g><rect x="837.52" y="543.77" transform="matrix(0.9763 -0.2162 0.2162 0.9763 -96.452 215.9297)" class="st4" width="202.05" height="9.93"/><rect x="847.11" y="587.08" transform="matrix(0.9763 -0.2162 0.2162 0.9763 -105.5898 219.0307)" class="st4" width="202.05" height="9.93"/><rect x="989.78" y="548.91" transform="matrix(0.9763 -0.2162 0.2162 0.9763 -95.6857 233.2196)" class="st4" width="56.28" height="9.93"/><rect x="843.23" y="573.75" transform="matrix(0.9763 -0.2162 0.2162 0.9763 -103.7113 209.5494)" class="st4" width="125.04" height="9.93"/></g><g><rect x="805.12" y="1195.31" transform="matrix(0.9763 -0.2162 0.2162 0.9763 -239.6258 207.5263)" class="st4" width="46.9" height="7.05"/><rect x="861.51" y="1182.82" transform="matrix(0.9763 -0.2162 0.2162 0.9763 -235.5911 219.4247)" class="st4" width="46.9" height="7.05"/><rect x="808.29" y="1208.62" transform="matrix(0.9763 -0.2162 0.2162 0.9763 -242.2252 210.5002)" class="st4" width="65.04" height="7.05"/></g></g></g><g><g><polygon class="st5" points="2045.22,549.61 2014.58,592.74 1873.39,791.45 1299.8,791.45 1213.75,640.38 1795.41,640.38 
				1891.43,505.24 1922.07,462.12 			"/></g><g><polygon class="st5" points="2100.38,653.7 2134.33,293.78 1805.64,444.29 			"/></g></g><g><rect x="1388.78" y="418.13" class="st6" width="85.16" height="124.48"/><rect x="1518.52" y="293.65" class="st4" width="85.16" height="248.96"/><rect x="1648.27" y="187.27" class="st3" width="85.16" height="355.34"/></g><g><path class="st7" d="M370.75,1422.9c0,0,0-11.8,1.68-15.73c1.68-3.92,7.85-19.91,7.85-19.91h24.11c0,0,4.49,14.58,4.77,19.34
			c0.28,4.77,0,16.29,0,16.29H370.75z"/><path class="st7" d="M523.83,1422.9c0,0,0-11.8-1.68-15.73c-1.68-3.92-7.85-19.91-7.85-19.91h-24.11c0,0-4.49,14.58-4.77,19.34
			c-0.28,4.77,0,16.29,0,16.29H523.83z"/><path class="st8" d="M427.24,760.39c0,0-0.85,26.28-4.21,38.06l-26.63,18.57l100.23,15l-23.9-33.03c0,0-7.22-35.24-3.43-48.28
			C473.08,737.68,427.24,760.39,427.24,760.39z"/><path class="st9" d="M427.09,764.02c0-0.01,7.93,19.08,22.85,18.66c14.93-0.42,18.33-17.3,18.33-17.3L427.09,764.02z"/><path class="st10" d="M418.18,748.57c0,0-4.82-24.07-8.19-31.36c-3.36-7.29-6.17-39.81,31.12-41.49c0,0,14.3,1.68,22.15-3.08
			c0,0,0,4.77-1.96,6.45c0,0,12.9-3.08,22.99,8.13c10.09,11.21-6.73,50.46-5.89,59.72L418.18,748.57z"/><path class="st8" d="M448.24,775.3c-10.82-0.19-30.73-14.59-30.73-32.43v-27.83c0-6.51,4.54-11.84,10.09-11.84h41.27
			c5.55,0,10.09,5.33,10.09,11.84v26.26C478.97,760,460.64,775.52,448.24,775.3z"/><path class="st10" d="M417.51,729.9c0,0,0.06-16.72,13.3-19.3c13.25-2.57,42.89,8.15,47.1-4.04c4.21-12.2-57.31-11.99-60.4-4.21
			C414.41,710.13,417.51,729.9,417.51,729.9z"/><path class="st11" d="M373.77,1014.12c0,0,4.22,128.82-2.09,202.31c-6.31,73.5,0.05,175.79,0.05,175.79s20.17,11.12,42.04,0
			c0,0,23.98-141.99,23.83-175.79c-0.16-35.99,26.1-196.7,26.1-196.7L373.77,1014.12z"/><path class="st11" d="M522.96,1392.22c0,0-20.17,11.13-42.04,0c0,0-23.98-141.99-23.83-175.78c0.07-15.2-4.58-52.65-9.97-90.84
			c-7.38-52.24-16.14-105.86-16.14-105.86l93.42-5.84c0,0-7.7,129.04-1.4,202.53C529.32,1289.94,522.96,1392.22,522.96,1392.22z"/><path class="st7" d="M457.1,1216.43c0.07-15.2-4.58-52.65-9.97-90.84c5.59-22.81,19.22-44.76,19.22-44.76
			C483.59,1129.2,457.1,1216.43,457.1,1216.43z"/><path class="st2" d="M605.96,920.86c-32.54-79.49-90.84-120.47-133.24-121.86c-9.3,12.36-15.98,15.22-24.48,18.59
			c-13.68-1.89-25.22-18.75-25.22-19.13c-14.92,1.53-82.17,9.08-127.9,119.82c-3.56,8.63-4.25,29.16,11.98,49.39
			c11.55,14.38,29.64,33.14,57.7,55.18c0,0,2.65-5.66,5.06-14.82c0,0-16.68-32.46-26.72-54.43c-4.88-10.7-10.58-22.94,26.06-47.91
			c0.91,27.88,5.39,60.92,1.82,90.77c-4.77,39.81,3.31,39.1,3.31,39.1s10.87,2.13,26.02,4.14c13.71,1.83,30.93,3.58,46.77,3.58
			c36.33,0,76.16-7.71,76.16-7.71c4.35,0.05,6.07-9.82,6.41-24.45c2.14,7.33,4.21,11.74,4.21,11.74
			c28.06-22.04,46.15-40.8,57.7-55.18C607.83,947.43,609.5,929.5,605.96,920.86z M555.56,953.59c-8.17,19.11-22.18,45.55-25.8,52.63
			c0.09-23.84-2.72-57.5-3.96-82.44c-0.41-8.22-0.84-15.85-1.29-22.96C546.75,918.72,567.17,926.43,555.56,953.59z"/><path class="st11" d="M424.42,792.04c0,0-6.83,2.21-8.09,7.26c0,0,20.23,18.01,31.91,18.29L424.42,792.04z"/><path class="st11" d="M448.24,817.58l23.04-26.47c0,0,7.15,3.14,7.08,8.29C478.36,799.4,458.15,818.28,448.24,817.58z"/><path class="st11" d="M444.09,815.63c0,0-17.59,151.81-11.46,170.32c3.15,9.53,7.37,17.77,10.73,23.52
			c2.41,4.14,8.4,4.13,10.79-0.02c4.67-8.11,10.77-19.84,10.77-25.8c0-9.65-13.34-168.15-13.34-168.15L444.09,815.63z"/><path class="st11" d="M439.48,808.19c0,0,10.63-1.07,17.1-0.41c1.28,0.13,2,1.54,1.37,2.66c-1.81,3.26-5.51,8.92-9.38,8.92
			C443.14,819.37,434.66,808.57,439.48,808.19z"/><path class="st2" d="M439.62,757.38c0,0,3.37,4.56,9.25,4.39c5.88-0.16,8.65-4.39,8.65-4.39S447.6,755.75,439.62,757.38z"/><path class="st8" d="M366.54,1009.63c0,0,13.02-11.74,21.31-6.17c8.76,5.89,12.68,14.59,7.75,15.19c-4.8,0.59-19.8-1.17-21.2,1.07
			c-1.4,2.24-7.68,6.53-9.59,3.12C362.9,1019.44,366.54,1009.63,366.54,1009.63z"/><path class="st8" d="M369.87,1008.03c-2.41,9.16-5.06,14.82-5.06,14.82c-28.06-22.04-46.15-40.8-57.7-55.18
			c8.71-0.65,21.41-3.76,36.04-14.07C353.19,975.57,369.87,1008.03,369.87,1008.03z"/><path class="st8" d="M532.17,1009.63c0,0-11.11-10.28-20.84-3.4c-5.43,3.84-9.26,13.99-4.49,13.15
			c4.77-0.84,16.09-1.89,17.49,0.35c1.4,2.24,6.53,5.55,9.59,3.12C537.64,1019.88,532.17,1009.63,532.17,1009.63z"/><path class="st8" d="M528.84,1008.03c2.41,9.16,5.06,14.82,5.06,14.82c28.06-22.04,46.15-40.8,57.7-55.18
			c-8.71-0.65-21.41-3.76-36.04-14.07C545.52,975.57,528.84,1008.03,528.84,1008.03z"/></g><g><g><path class="st11" d="M1586.05,1249.06l-18.98,9.9c-2.3,1.2-3.19,4.04-1.99,6.34l78.95,153.5c2.3,4.92,17.22,7.38,13.45-3.87
				l-65.08-163.87C1591.19,1248.75,1588.35,1247.86,1586.05,1249.06z"/></g><g><ellipse transform="matrix(0.7071 -0.7071 0.7071 0.7071 -282.8705 1277.7188)" class="st11" cx="1400.91" cy="980.31" rx="406.37" ry="406.37"/><ellipse transform="matrix(0.7071 -0.7071 0.7071 0.7071 -282.871 1277.7189)" class="st2" cx="1400.91" cy="980.31" rx="321.07" ry="321.07"/><ellipse transform="matrix(0.7071 -0.7071 0.7071 0.7071 -282.8705 1277.7188)" class="st11" cx="1400.91" cy="980.31" rx="249.98" ry="249.98"/><ellipse transform="matrix(0.7071 -0.7071 0.7071 0.7071 -282.8709 1277.7188)" class="st2" cx="1400.91" cy="980.31" rx="174.16" ry="174.16"/><path class="st11" d="M1505.17,980.92c0.33-57.58-46.07-104.53-103.65-104.86c-57.58-0.33-104.53,46.07-104.86,103.65
				c-0.33,57.58,46.07,104.53,103.65,104.86C1457.88,1084.91,1504.83,1038.5,1505.17,980.92z"/></g></g><g><g><path class="st12" d="M1827.63,1401.94c1.67,1.06,3.37,2.09,5.09,3.09c0.58,0.34,1.17,0.67,1.75,0.99
				c1.34,0.75,2.67,1.46,4.02,2.17c64.65,33.29,144.71,10.21,181.41-53.46c35.01-60.73,18.27-137.11-36.49-178.09
				c-4.37-3.27-8.97-6.31-13.82-9.1c-1.74-1-3.49-1.96-5.25-2.88c-1.71-0.89-3.44-1.75-5.17-2.56c-5.32-2.49-10.73-4.61-16.21-6.37
				c-8.13-2.62-16.41-4.44-24.72-5.48c-25.76-3.23-51.82,0.99-75.07,11.82c-24.66,11.48-46.16,30.4-60.78,55.76
				C1745.62,1281.69,1765.99,1362.82,1827.63,1401.94z"/></g><g><path class="st10" d="M2003,803.75c-0.42-1.68,36.51,16.69,38.38,18.77c17.32,19.21,12.38,44.28,2.47,44.52
				c-6.35,0.15-5.12,10.72-5.12,10.72l-70.8-29.95C1967.93,847.81,1976.46,798.1,2003,803.75z"/><path class="st10" d="M1994.29,807.63c0,0,17.55-31.69,55.16-13.79c19.88,9.46,21.46,51.56,29.33,58.75
				c17.62,16.1,24.9,22,21.81,49.3c-3.1,27.3-88.18,61.51-83.21,84.1c0,0-34.96-42.96-6.97-69.65
				c10.53-10.04,22.17-34.31,21.04-38.58C2030.31,873.49,1994.29,807.63,1994.29,807.63z"/><path class="st9" d="M2022.27,937.39c4.75-22.88,34.42-29.98,48.46-11.29c2.52,3.36,4.3,7.33,4.88,12.02
				c3.21,25.97-38.32,131.77-44.27,141.35c-10.83,17.44-74.58,77.22-74.58,77.22l-11.75-7.12c0,0,45.22-76.56,52.22-83.72
				C2005.32,1057.55,2013.24,980.83,2022.27,937.39z"/><path class="st9" d="M1961.22,1149.59c0,0-17.15-11.26-23.64-10.53c-6.49,0.73-25.28,6.13-25.51,8.89
				c-0.23,2.76,20.94,4.49,22.36,6c1.42,1.51,15.79,11.1,21,8.1C1960.64,1159.03,1961.22,1149.59,1961.22,1149.59z"/><path class="st13" d="M2080.84,1403.98l15.32-2.25c0,0,51.51-40.94,59.18-117.32c0.78-7.77,0.95-15.66,0.37-23.62
				c-0.07-0.92,0.03-1.83,0.54-2.61c0-0.01,0-0.01,0.02-0.02c1.65-2.53,5.75-8.86,11.31-17.87c5.48-8.87,14.85-25.64,25.16-44.46
				c18.57-33.9,40.2-74.43,47.62-87.34c23.63-41.15,12.24-68.82,12.24-68.82s-65.93-6.52-84-22.32l-6.51,10.03
				c0,0-14.29,63.24-13.61,63.54c-0.7,2.15-1.42,4.34-2.14,6.57c-11.27,34.8-24.24,78.29-31.31,113.71
				c-3.97,19.93-6.08,37.29-4.95,49.13c0.39,4.06-0.08,10.29-1.16,17.99C2102.52,1323.69,2080.84,1403.98,2080.84,1403.98z"/><path class="st7" d="M2048.7,1423.36h63.92c0,0,1.53-9.74-1.81-17.13c-3.2-7.09-7.76-7.32-0.58-18.43
				c-4.06,4.18-17.12,5.91-26.36,4.67c-1.13,1.83-7.3,14.15-11.08,16.87C2068.62,1412.33,2049.99,1411.26,2048.7,1423.36z"/><path class="st14" d="M2146.33,1097.48c5.58,30.79,18.77,82.04,46.4,98.35c18.57-33.9,40.2-74.43,47.62-87.34
				c23.63-41.15,12.24-68.82,12.24-68.82s-65.93-6.52-84-22.32l-6.51,10.03c0,0-14.29,63.24-13.61,63.54
				C2147.77,1093.06,2147.06,1095.25,2146.33,1097.48z"/><path class="st15" d="M2029.1,923.19c0,0-8.7,9.09-9.62,28.78c0,0,10.87,33.27,44.57,38.46
				C2064.05,990.43,2037.39,923.17,2029.1,923.19z"/><path class="st13" d="M2191.16,1044.42l-0.22-11.96c23.82,3,82.13-28.46,82.13-28.46s24.92,16.57,28.33,63.9
				c1.66,23.1,12.2,120.8,13.36,149.97c0.42,10.57,0.57,18.12,0.61,21.13c-0.01,0.01,0,0.02,0,0.03c0.01,0.92,0.45,1.73,1.01,2.46
				c4.93,6.26,9.2,12.9,12.91,19.78c36.34,67.62,17.34,159.51,17.34,159.51l-8.44-2.15c0,0-30.73-95.25-50.82-136.45
				c-3.41-6.99-6.51-12.42-9.1-15.57c-7.55-9.17-15.51-24.75-23.36-43.5c-14.84-35.44-29.24-82.21-39.51-118.42
				C2214.67,1104.84,2191.16,1044.42,2191.16,1044.42z"/><path class="st8" d="M2051.77,964.63c38.94-8.94,14.06-63.65,11.8-62.69c-5.39-1.1-17.24-10.57-27.84-29.07l-1.43,1.24
				l-23.92,20.97c0,0,5.53,8.16,10.18,16.14c3.63,6.25,6.72,12.41,6.23,14.53C2024.88,927.27,2041.39,967.02,2051.77,964.63z"/><path class="st9" d="M2010.39,895.09c0,0,5.53,8.15,10.18,16.14c14.87-9.17,14.88-27.57,13.74-37.11L2010.39,895.09z"/><path class="st8" d="M2009.73,905.59c0,0,36.1-20.09,23.25-42.38c-12.86-22.29-16.85-39.89-40.45-28.01
				c-23.59,11.88-23.13,22.95-20.65,31.43C1974.36,875.12,2000.01,910.24,2009.73,905.59z"/><path class="st10" d="M1965.78,853.63c1.65-9.9,6.68-10.84,10.19-10.18c13.33-22.05,35.12-13.44,35.12-13.44
				c11.63,14.6,28.45,17.09,28.45,17.09s-4.19,7.79-21.45,12.62c-5.27,1.47-11.26,0.58-17.03-1.36c11.98,6.68,24.5,9.23,24.5,9.23
				c-22.75,2.08-44.39-18.71-46.63-20.94c-1.05,3.22-2.89,9.97-1.79,14.9c1.5,6.7,7.45,18.84,3.81,20.42
				C1980.95,881.97,1963.3,868.47,1965.78,853.63z"/><path class="st7" d="M2295.8,1423.36h63.92c0,0,1.53-9.74-1.81-17.13c-3.2-7.09-8.21-10.31-7.01-18.9
				c-4.06,4.18-10.68,8.87-19.92,7.62c-1.13,1.84-7.31,11.66-11.09,14.38C2315.71,1412.33,2297.08,1411.26,2295.8,1423.36z"/><path class="st3" d="M2047.19,1008.01c8.22,2.87,19.77,4.44,31.58,5.72c16.81,1.83,34.16,3.09,43.25,6.71
				c3.32,1.32,5.53,2.96,6.23,5.04c3.94,11.85,21.3,30.13,21.3,30.13c111.3-5.07,123.52-51.62,123.52-51.62
				c-74.88-87.07-200.43-108.81-200.43-108.81s-22.92-6.7-27.33,9.76c-5.12,19.13-18.99,17.8-18.99,17.8
				S2022.99,999.57,2047.19,1008.01z"/><path class="st15" d="M2078.77,1013.73c16.81,1.83,34.16,3.09,43.25,6.71c3.71-55.51-22.48-97.26-22.48-97.26
				S2082.45,992.73,2078.77,1013.73z"/><path class="st8" d="M2061.47,912.45c0,0,42.12,4.16,45.5,31.53c3.38,27.37-40.38,138.85-46.65,148.95
				c-11.41,18.38-78.59,81.37-78.59,81.37l-12.38-7.5c0,0,47.66-80.68,55.03-88.23C2035.96,1066.72,2047.21,921.93,2061.47,912.45z"/><path class="st3" d="M2105.76,960.45c-0.11,0.62-38.88,12.66-63.82,0c0,0-5.34-57.56,24.44-54.44
				c29.78,3.12,47.42,12.5,48.17,26.76C2115.3,947.03,2105.76,960.45,2105.76,960.45z"/><path class="st8" d="M1985.55,1166.3c0,0-15.11-13.88-21.63-14.21c-6.52-0.33-25.94,1.98-26.61,4.67
				c-0.67,2.69,19.94,7.8,21.1,9.52c1.16,1.72,13.8,13.5,19.42,11.37C1983.46,1175.52,1985.55,1166.3,1985.55,1166.3z"/></g><g><g><path class="st2" d="M1879.26,1356.23c-3.15-0.25-6.04-1.89-7.87-4.5l-41.92-59.74c-3.38-4.81-2.21-11.45,2.6-14.83
					c4.81-3.38,11.45-2.21,14.83,2.6l33.24,47.37l75.32-106.35c3.4-4.8,10.04-5.93,14.84-2.53c4.8,3.4,5.93,10.04,2.53,14.84
					l-84.05,118.68c-2,2.82-5.25,4.5-8.71,4.49C1879.8,1356.26,1879.53,1356.25,1879.26,1356.23z"/></g></g></g><g><path class="st16" d="M1048.36,1118.54c-0.49,0.7-2.59,4.04,0.1,7.81c0.17,0.24,0.29,0.43,0.36,0.59
			c32.19,19.34,128.75,97.59,128.75,152.74v114.25H886.16v-114.3c0-55.5,97.87-134.99,129.36-153.29c0.01,0,0.01,0,0.01,0
			c1.01-1.41,1.34-2.77,1.34-3.94c0-2.35-1.34-4-1.34-4c-31.56-18.7-129.36-97.61-129.36-153.11V851.05h291.41v114.3
			C1177.57,1020.76,1080.01,1100.08,1048.36,1118.54z"/><path class="st17" d="M1139.81,927c-17.67,0.27-48.04,3.45-97.17,15.85c-33.64,8.49-91.64,2.09-122.32-2.3
			c-10.76-1.54-20.39,6.8-20.39,17.67v13.17c0,36.28,97.63,114.88,123.44,135.03c3.91,3.05,6.2,7.74,6.2,12.7v201.77
			c0,6.89-3.4,13.3-9.04,17.25c-20.3,14.21-54.52,55.79-54.52,55.79h129.39c0,0-34.7-40.13-54.17-55.03
			c-4.45-3.4-7.07-8.66-7.07-14.26v-205.59c0-4.93,2.24-9.6,6.09-12.68c25.31-20.27,120.8-99.16,120.8-135.42v-23.04
			C1161.06,936.24,1151.49,926.82,1139.81,927z"/><path class="st11" d="M1179.02,862.33H881.84c-8.13,0-14.71-6.59-14.71-14.71V832.9h327.16v14.17
			C1194.28,855.5,1187.45,862.33,1179.02,862.33z"/><path class="st11" d="M882.38,1393.93h297.19c8.13,0,14.71,6.59,14.71,14.71v14.71H867.12v-14.17
			C867.12,1400.77,873.95,1393.93,882.38,1393.93z"/></g><ellipse transform="matrix(0.5671 -0.8237 0.8237 0.5671 -199.667 1579.1322)" class="st2" cx="1402.34" cy="979.5" rx="33.91" ry="33.91"/><g><polygon class="st12" points="1744.24,910.92 1770.23,877.28 1854.94,858.62 1844.72,888.76 1865.24,911.98 1782.8,926.81 		"/><g><rect x="1422.21" y="930.3" transform="matrix(0.98 -0.1988 0.1988 0.98 -153.9202 340.2238)" class="st18" width="390.34" height="12.69"/></g><polygon class="st11" points="1395.56,983.04 1424.84,969.21 1427.36,981.65 		"/></g><path class="st19" d="M2660.63,1430.18H17.32c-1.68,0-3.05-1.37-3.05-3.05v-1.17c0-1.68,1.37-3.05,3.05-3.05h2643.31
		c1.68,0,3.05,1.37,3.05,3.05v1.17C2663.69,1428.8,2662.31,1430.18,2660.63,1430.18z"/></g><line class="st2" x1="5870.56" y1="1759.61" x2="2870.56" y2="1759.61"/><path class="st20" d="M3358.83,1615.09c0,0-406.19-346.83-97.41-675.55c328.75-349.98,37.49-799.27,483.75-980.55
	c482.48-195.99,606.61,149.2,808.6,96.2c402.86-105.72,913.87-53.66,828.85,459.86c-106.73,644.62,331.16,562.4,71.08,1102.2
	L3358.83,1615.09z"/><g><g><rect x="3955.45" y="394.59" class="st21" width="891.29" height="1218.86"/><rect x="3993.43" y="427.48" class="st22" width="815.34" height="1152.38"/><path class="st23" d="M4232.06,394.59v41.52c0,22.93,18.57,41.52,41.48,41.52h222.81c22.91,0,41.48-18.59,41.48-41.52v-41.52
			H4232.06z"/></g><g><rect x="4088.07" y="1416.74" class="st21" width="100.88" height="10.21"/><rect x="4212.31" y="1416.74" class="st21" width="100.88" height="10.21"/><rect x="4088.07" y="1439.4" class="st21" width="139.9" height="10.21"/></g><g><rect x="4175.11" y="666.53" class="st24" width="438.04" height="5.65"/></g><g><g><g><path class="st21" d="M4727.21,855.7h-147.46V708.24h147.46V855.7z M4586.69,848.76h133.57V715.19h-133.57V848.76z"/></g><g><path class="st25" d="M4657.14,826.06c-3.09,0-6.04-1.38-8.03-3.78l-45.5-55.05c-3.67-4.44-3.04-11,1.39-14.67
					c4.43-3.67,11-3.04,14.67,1.39l36.09,43.66l65.28-109.57c2.95-4.94,9.34-6.56,14.28-3.62c4.94,2.95,6.56,9.34,3.62,14.28
					l-72.85,122.27c-1.73,2.91-4.77,4.79-8.15,5.05C4657.67,826.05,4657.41,826.06,4657.14,826.06z"/></g></g><g><g><g><rect x="4138.36" y="730.01" class="st21" width="327.59" height="14.39"/></g><g><rect x="4138.36" y="794.27" class="st21" width="301.91" height="14.39"/></g><g><rect x="4376.65" y="762.14" class="st21" width="89.3" height="14.39"/><rect x="4138.36" y="762.14" class="st21" width="213.55" height="14.39"/></g></g><g><g><path class="st21" d="M4065.02,742.87l-14.66,4.07l-3.02-11.63l21.87-6.98h10v82h-14.19V742.87z"/></g><path class="st21" d="M4088.58,805.15c0-2.86,2.32-5.18,5.18-5.18c2.86,0,5.18,2.32,5.18,5.18c0,2.86-2.32,5.18-5.18,5.18
					C4090.9,810.33,4088.58,808.01,4088.58,805.15z"/></g></g></g><g><g><g><path class="st21" d="M4728.35,1075.99h-147.46V928.52h147.46V1075.99z M4587.83,1069.04h133.57V935.47h-133.57V1069.04z"/></g><g><path class="st25" d="M4658.28,1046.35c-3.09,0-6.04-1.38-8.03-3.78l-45.5-55.05c-3.67-4.44-3.04-11,1.39-14.67
					c4.43-3.67,11-3.04,14.67,1.39l36.09,43.66l65.28-109.57c2.95-4.94,9.34-6.56,14.28-3.62c4.94,2.95,6.56,9.34,3.62,14.28
					l-72.85,122.27c-1.73,2.91-4.77,4.79-8.15,5.05C4658.81,1046.34,4658.55,1046.35,4658.28,1046.35z"/></g></g><g><g><g><path class="st21" d="M4046.71,1019.41l27.83-23.68c11.09-9.36,15.13-14.55,15.13-21.83c0-7.97-5.66-12.59-13.05-12.59
						s-12.47,4.04-18.71,12.13l-10.05-7.85c7.74-10.86,15.36-16.98,29.8-16.98c15.82,0,26.68,9.7,26.68,24.37
						c0,12.71-6.81,19.52-21.02,31.3l-16.63,13.86h38.46v12.47h-58.44V1019.41z"/></g><path class="st21" d="M4114.77,1025.47c0-2.84,2.3-5.14,5.14-5.14s5.14,2.3,5.14,5.14c0,2.84-2.3,5.14-5.14,5.14
					S4114.77,1028.31,4114.77,1025.47z"/></g><g><g><g><rect x="4141.06" y="950.29" class="st21" width="344.24" height="14.39"/></g><g><rect x="4141.06" y="1014.55" class="st21" width="317.25" height="14.39"/></g><g><rect x="4391.47" y="982.42" class="st21" width="93.84" height="14.39"/><rect x="4141.06" y="982.42" class="st21" width="224.4" height="14.39"/></g></g></g></g></g><g><g><g><path class="st21" d="M4728.35,1297.9h-147.46v-147.46h147.46V1297.9z M4587.83,1290.95h133.57v-133.57h-133.57V1290.95z"/></g><g><path class="st25" d="M4658.28,1268.26c-3.09,0-6.04-1.38-8.03-3.78l-45.5-55.05c-3.67-4.43-3.04-11,1.39-14.67
					c4.43-3.67,11-3.04,14.67,1.39l36.09,43.66l65.28-109.57c2.95-4.94,9.34-6.56,14.28-3.62c4.94,2.94,6.56,9.34,3.62,14.28
					l-72.85,122.27c-1.73,2.91-4.77,4.8-8.15,5.06C4658.81,1268.25,4658.55,1268.26,4658.28,1268.26z"/></g></g><g><g><g><rect x="4141.06" y="1172.2" class="st21" width="344.24" height="14.39"/></g><g><rect x="4141.06" y="1236.46" class="st21" width="317.25" height="14.39"/></g><g><rect x="4391.47" y="1204.33" class="st21" width="93.84" height="14.39"/><rect x="4141.06" y="1204.33" class="st21" width="224.4" height="14.39"/></g></g></g><g><g><path class="st21" d="M4045.68,1237.86l9.72-9.04c5.65,6.67,11.98,10.4,20.8,10.4c7.8,0,13.68-4.75,13.68-12.21
					c0-7.8-7.12-12.21-18.2-12.21h-6.44l-2.26-8.7l21.36-22.72h-34.25v-12.09h52.33v10.4l-22.04,22.61
					c12.54,1.81,23.28,8.25,23.28,22.49c0,14.58-11.3,24.98-27.69,24.98C4062.19,1251.76,4052.35,1246,4045.68,1237.86z"/></g><path class="st21" d="M4107.65,1246.73c0-2.78,2.25-5.03,5.03-5.03s5.03,2.25,5.03,5.03s-2.25,5.03-5.03,5.03
				S4107.65,1249.51,4107.65,1246.73z"/></g></g><g><g><path class="st21" d="M4461.11,1449.35c-29.58,0-55.35-21-61.27-49.94c-0.47-2.32,1.02-4.58,3.34-5.05
				c2.31-0.47,4.58,1.02,5.05,3.34c5.11,24.97,27.35,43.09,52.88,43.09c25.28,0,47.47-17.91,52.77-42.58
				c0.5-2.31,2.78-3.78,5.09-3.29c2.31,0.5,3.79,2.77,3.29,5.09C4516.12,1428.59,4490.4,1449.35,4461.11,1449.35z"/></g><g><path class="st21" d="M4403.92,1379.95c-0.27,0-0.54-0.02-0.82-0.08c-2.32-0.45-3.84-2.7-3.39-5.02
				c5.67-29.31,31.5-50.59,61.4-50.59c28.73,0,53.68,19.44,60.66,47.27c0.58,2.29-0.82,4.62-3.11,5.2c-2.29,0.57-4.62-0.82-5.2-3.11
				c-6.03-24.02-27.56-40.79-52.35-40.79c-25.81,0-48.09,18.36-52.99,43.65C4407.72,1378.53,4405.93,1379.95,4403.92,1379.95z"/></g><g><path class="st21" d="M4461.11,1475.71c-49.02,0-88.91-39.88-88.91-88.91c0-49.02,39.88-88.91,88.91-88.91
				c49.02,0,88.91,39.88,88.91,88.91C4550.02,1435.83,4510.14,1475.71,4461.11,1475.71z M4461.11,1310.07
				c-42.31,0-76.73,34.42-76.73,76.73c0,42.31,34.42,76.73,76.73,76.73c42.31,0,76.73-34.42,76.73-76.73
				C4537.84,1344.5,4503.42,1310.07,4461.11,1310.07z"/></g><g><rect x="4443.5" y="1375.67" class="st21" width="35.21" height="5.64"/><rect x="4443.5" y="1398.73" class="st21" width="35.21" height="5.64"/><rect x="4435.2" y="1386.8" class="st21" width="51.83" height="5.64"/></g></g></g><g><path class="st26" d="M3884.3,1004.48c0,0,2.77-6.23,4.56-9.18c1.79-2.95,9.46-11.59,10.76-9.63c1.3,1.96,6.52,15.12,3.75,18.81
		c-2.77,3.69,0.18,10.1-13.6,13.99L3884.3,1004.48z"/><path class="st21" d="M3731.12,965.15c0,0,70.56,58.9,98.08,53.45c21.51-4.26,54.53-15.59,54.53-15.59l6.6,16.89
		c0,0-29.61,40.17-60.48,40.43c-48.26,0.41-83.91-20.89-83.91-20.89L3731.12,965.15z"/><path class="st27" d="M3607.37,1586.43c0,0,2.05,33.04,8.44,33.52c0.85,0.06,32.42,0.06,32.42,0.06l40.31-0.23
		c0,0-0.26-9.71-12.05-11.76c-11.78-2.05-31.5-10.33-38.64-25.9C3630.35,1565.72,3607.37,1586.43,3607.37,1586.43z"/><path class="st25" d="M3605.05,1588.72c0,0,12.25,4.1,21.82,4.1c10.67,0,20.37-2.91,20.37-2.91s2.31-22.31,15-71.46
		c6.66-25.76,16.16-58.89,29.68-100.05c37.39-113.76,48.75-180.31,49.79-186.61c0.06-0.33,0.08-0.5,0.08-0.5l-0.12-0.05
		l-114.94-50.47c0,0,14.21,156.78-3.92,216.96c-2.54,8.41-4.71,18.21-6.58,28.83C3604.78,1491.94,3605.05,1588.72,3605.05,1588.72z"/><path class="st15" d="M3662.24,1518.45c6.66-25.76,16.16-58.89,29.68-100.05c37.39-113.76,48.75-180.31,49.79-186.61
		c-0.01-0.19-0.02-0.36-0.04-0.55l-114.94-50.47c0,0,14.21,156.78-3.92,216.96C3620.27,1406.15,3662.24,1518.45,3662.24,1518.45z"/><path class="st27" d="M3697.15,1586.43c0,0,2.05,33.04,8.44,33.52c0.85,0.06,32.42,0.06,32.42,0.06l40.31-0.23
		c0,0-0.26-9.71-12.04-11.76c-11.78-2.05-31.5-10.33-38.64-25.9C3720.12,1565.72,3697.15,1586.43,3697.15,1586.43z"/><path class="st25" d="M3762.31,1184.47c0,0,1.49,101.6-16.09,226.34c-17.58,124.74-11.62,177.7-11.62,177.7s-12.08,3.91-16.95,4.31
		c-12.42,1.01-25.15-2.91-25.15-2.91s-25.16-124.79-17.95-187.23s-34.45-214.25-34.45-214.25L3762.31,1184.47z"/><path class="st26" d="M3680.81,946.72l22.44,14.71l20.44-5.78c3.74-5.33,4.72-15.6,4.78-24.5c0.05-8.83-0.8-16.32-0.8-16.32
		l-30.27-13.36l-11.29-4.98c0.03,0.18,0.88,9.27,1,10.6C3689.21,930.69,3680.81,946.72,3680.81,946.72z"/><path class="st28" d="M3762.83,1212.72c-27.93,26.96-133.61,22.43-140.13-7.28c-6.5-29.71,7.1-252.89,54.81-266.91
		c9.9-2.91,62.82,14.2,62.82,14.2s8.3,21.72,13.75,49.38c1.06,5.38,4.14,62.42,6.45,115.77c1.08,24.95,1.99,49.11,2.45,66.8
		C3763.41,1201.24,3763.43,1212.13,3762.83,1212.72z"/><path class="st29" d="M3689.36,907.52c6.14,10.38,27.69,19.47,39.1,23.63c0.05-8.83-0.8-16.32-0.8-16.32l-30.27-13.36
		C3690.7,901.38,3686.62,902.88,3689.36,907.52z"/><path class="st26" d="M3739.08,912.99c0,0-48.77,15.21-57.78-15.3c-9.01-30.52-21.37-49.11,9.39-60.11
		c30.76-11,40.27-1.15,45.76,8.3C3741.93,855.33,3751.53,908.25,3739.08,912.99z"/><path class="st30" d="M3734.53,842.93c0,0-3.11,35.51-10.46,33.97c-7.34-1.54-15.43-4.84-14.35,5.87
		c1.08,10.71-7.14,29.06-17.73,29.01c-22.71-0.09-47.39-58.38-41.17-69.43C3668.76,810.47,3760.46,804.03,3734.53,842.93z"/><path class="st21" d="M3727.36,939.3c-0.63-0.26-36.31-16.27-40.48-14.89c-4.17,1.38-9.37,14.12-9.37,14.12l62.82,14.2
		C3740.33,952.73,3735.38,942.68,3727.36,939.3z"/><g><path class="st31" d="M3949.48,1112.14l-200,188.3c-3.92,3.69-8.86,4.87-10.99,2.61l-6.75-7.17c-2.12-2.25-0.65-7.12,3.27-10.81
			l200-188.31c3.92-3.69,8.86-4.87,10.99-2.61l6.75,7.17C3954.87,1103.59,3953.4,1108.45,3949.48,1112.14z"/><path class="st32" d="M3837.25,1217.82l-87.77,82.63c-3.92,3.69-8.86,4.87-10.99,2.61l-6.75-7.17c-2.12-2.25-0.65-7.12,3.27-10.81
			l87.77-82.63L3837.25,1217.82z"/><path class="st31" d="M3903.51,1041.05c7.68,25.3,21.9,49,42.54,68.43c63.06,59.32,162.27,56.29,221.59-6.76
			c58.54-62.23,56.37-159.65-4.31-219.21c-0.8-0.8-1.63-1.59-2.46-2.37c-63.05-59.32-162.25-56.31-221.57,6.75
			C3899.4,930.29,3887.7,989.06,3903.51,1041.05z M3948.32,896.36c34.52-36.7,83.71-51.32,129.9-43.32
			c26.92,4.66,52.8,16.99,74.19,37.1c58.08,54.64,60.86,146.01,6.22,204.09c-20.12,21.38-45.2,35.26-71.77,41.55
			c-45.63,10.8-95.62-0.79-132.32-35.32C3896.46,1045.82,3893.67,954.45,3948.32,896.36z"/><g class="st33"><path class="st34" d="M4158.63,1094.23c-20.12,21.38-45.2,35.26-71.78,41.56c-45.62,10.79-95.62-0.8-132.32-35.33
				c-58.08-54.64-60.86-146.01-6.22-204.1c34.52-36.7,83.71-51.32,129.9-43.32c26.92,4.66,52.81,16.99,74.19,37.1
				C4210.48,944.78,4213.27,1036.16,4158.63,1094.23z"/></g></g><path class="st21" d="M3762.98,1184.68c-110.2-78.53-101.04-183.32-101.04-183.32c40.28,22.72,80.25,72.95,98.59,116.52
		C3761.61,1142.83,3762.52,1166.99,3762.98,1184.68z"/><g><path class="st26" d="M3871.75,1148.92c7.77-1.79,12.99-7.67,14.07-8.7c0,0,3.31,0.23-0.54,7.3c-0.32,0.59-1.04,2.11-1.58,3.19
			c-0.22,0.44,0.09,0.95,0.58,0.99c4.48,0.34,8.99-1.43,17.63,0.37c1.19,0.25,1.54,3.1,1.49,4.32c-0.08,2.06,0.07,4.37-2.32,7.53
			c-1.39,1.84-5.28,3.81-13.93,7.29c-3.29,1.33-12.72,0.33-21.55-2.71l-7.06-3.27l2.19-13.11l1.77,0.37
			C3865.33,1153.07,3868.81,1149.63,3871.75,1148.92z"/><path class="st28" d="M3696.14,952.73c0,0-99.02,18.85,29.13,162.25c20.5,22.93,131.23,52.79,131.23,52.79s11.23-9.56,5.57-17.29
			c0,0-76.24-55.37-93.02-64.17c-7.55-3.96-29.29-88.37-41.59-108.7C3715.16,957.29,3696.14,952.73,3696.14,952.73z"/></g><path class="st26" d="M3886.99,1006.22c0,0,3.24-6.19,3.87-9.46c0.63-3.26,4.71-12.79,6.39-14.46c0.67-0.67,2.89,0.2,3.15,3.08
		c0.11,1.26-0.5,3.54-1.59,6.26c-1.77,4.43-1.48,10.44-2.1,12.44C3895.18,1009.08,3886.99,1006.22,3886.99,1006.22z"/></g><g><path class="st23" d="M4214.03,1573.24c0,1.68,0.1,3.35,0.31,4.98c0.63,5.22,2.25,10.13,4.65,14.56c1.88,3.45,4.25,6.59,7,9.35
		c7.4,7.39,17.6,11.96,28.89,11.96h574.53c22.56,0,40.86-18.29,40.86-40.85c0-11.29-4.57-21.5-11.97-28.89
		c-7.39-7.4-17.6-11.97-28.89-11.97h-574.53C4232.32,1532.38,4214.03,1550.67,4214.03,1573.24z"/><path class="st23" d="M4257.86,1524.99h196.99c3.45,0,6.27-2.82,6.27-6.27l0,0c0-3.45-2.82-6.27-6.27-6.27h-196.99
		c-3.45,0-6.27,2.82-6.27,6.27l0,0C4251.59,1522.17,4254.41,1524.99,4257.86,1524.99z"/><rect x="4268.74" y="1524.99" transform="matrix(-1 -1.224647e-16 1.224647e-16 -1 8558.8232 3057.3762)" class="st35" width="21.35" height="7.4"/><path class="st35" d="M4218.99,1592.78c1.88,3.45,4.25,6.59,7,9.35c7.4,7.39,17.6,11.96,28.89,11.96h121.7v-21.31H4218.99z"/><path class="st25" d="M4946.32,1561.27v23.93c0,2.62-0.35,5.17-1.01,7.58c-3.32,12.28-14.54,21.31-27.87,21.31h-598.47
		c-13.33,0-24.55-9.03-27.87-21.31c-0.65-2.41-1.01-4.96-1.01-7.58v-23.93c0-15.96,12.92-28.89,28.88-28.89h598.47
		C4933.4,1532.38,4946.32,1545.32,4946.32,1561.27z"/><path class="st15" d="M4945.31,1592.78c-3.32,12.28-14.54,21.31-27.87,21.31h-598.47c-13.33,0-24.55-9.03-27.87-21.31H4945.31z"/><g><path class="st36" d="M4886.88,1573.39c0,12.69,4.61,24.03,11.88,31.54c0.17,0.17,0.32,0.33,0.49,0.5
			c5.62,5.6,12.75,8.95,20.5,8.95c12.11,0,42.14-18.28,60.75-30.42c9.27-6.05,15.71-10.58,15.71-10.58s-6.44-4.53-15.71-10.58
			c-18.61-12.15-48.64-30.43-60.75-30.43c-3.51,0-6.88,0.69-10.06,1.95c-5.35,2.15-10.1,5.95-13.85,10.93
			c-4.14,5.47-7.08,12.35-8.32,19.99c-0.01,0.09-0.03,0.18-0.03,0.27C4887.09,1568.05,4886.88,1570.69,4886.88,1573.39z"/><path class="st37" d="M4886.88,1573.39c0,12.69,4.61,24.03,11.88,31.54l92.11-31.69l-103.39-7.72
			C4887.09,1568.05,4886.88,1570.69,4886.88,1573.39z"/><path class="st38" d="M4895.84,1545.26l91.89,25.09l-78.04-36.03C4904.35,1536.48,4899.59,1540.28,4895.84,1545.26z"/><path class="st39" d="M4974.51,1573.39c0,4.88,2.5,9.04,6,10.58c9.27-6.05,15.71-10.58,15.71-10.58s-6.44-4.53-15.71-10.58
			C4977.01,1564.34,4974.51,1568.5,4974.51,1573.39z"/></g></g><g><path class="st30" d="M5137.48,826.48c-15.22-7.89-27.41-2.93-27.41-2.93c-46.57-5.47-60.15,48.84-59.52,67.52
		c0.62,18.68,2.76,38.75-18.03,63.03c-60.07,70.12,65.73,73.21,65.73,73.21c1.06-56.02,68.22-35.58,65.28-29.91
		C5249.62,1018.07,5172.09,844.44,5137.48,826.48z"/><path class="st26" d="M4957.86,1048.84c0,0-8.19-12.47-14.79-12.71c-6.6-0.24-18.82-3.67-17.84-1.22c0.98,2.44,8.56,2.69,9.29,4.16
		s-11.24,3.67-14.67,3.91c-3.42,0.24-11.49,0-11.24,1.71c0.24,1.71,14.54,8.8,24.62,7.82c10.09-0.98,22.55,2.93,22.55,2.93
		L4957.86,1048.84z"/><path class="st25" d="M5076.29,1052.87c0,0-4.45,8.81-12.53,18.94c-9.73,12.19-24.73,26.27-43.57,29.05
		c-9,1.33-17.8-0.61-25.89-4.2c-0.02-0.01-0.03-0.01-0.03-0.01c-22.88-10.16-40.08-33.51-40.08-33.51
		c-4.03-11,2.57-18.46,2.57-18.46s46.2,10.39,50.6,8.19c4.4-2.2,31.45-62.21,36.32-72.21c10.36-21.25,26.79-27.34,26.79-27.34
		L5076.29,1052.87z"/><path class="st15" d="M5063.76,1071.81c-9.73,12.19-24.73,26.27-43.57,29.05c-9,1.33-17.8-0.61-25.89-4.2
		c0.9,0.12,23.75,2.94,32.85-13.35c9.29-16.62,19.34-43.02,33.14-34.22C5066.25,1052.88,5065.98,1062.31,5063.76,1071.81z"/><path class="st27" d="M5248.65,1551.56c0,0,14.1,12.87,11.35,22.01c-2.75,9.14-15.47,15.24-17.19,26.41
		c-1.72,11.17-8.6,17.27-14.78,17.27c-6.19,0-29.51,0-29.51,0s-4.56-7.86,6.45-10.23c11-2.37,15.15-15.5,14.46-27.69
		c-0.69-12.19,1.03-28.44,1.03-28.44l23.38-5.42L5248.65,1551.56z"/><path class="st27" d="M5129.33,1557.02c0,0,5.07,54.5-1.12,57.55l-79.2-0.16c0,0,0-9.14,12.72-11.17
		c12.72-2.03,35.07-9.48,38.85-26.07C5104.36,1560.58,5129.33,1557.02,5129.33,1557.02z"/><path class="st25" d="M5190.26,1016.11c0,0,1.18,16.64,0,36.61c-0.79,13.24-14.17,30.97-16.07,35.35
		c-4.77,11-10.14,12.79-10.14,12.79l-41.59,10.19l-14.62,3.58l-46.11-13.77c0,0-21-58.62-12.57-91.62
		c8.43-33,21.32-55.92,21.32-55.92s31.26-12.34,86.62-3.12L5190.26,1016.11z"/><path class="st40" d="M5178.09,1058.12c-0.78,13.24-2,25.56-3.9,29.95c-4.77,11-10.14,12.79-10.14,12.79l-41.59,10.19l-18.06-5.31
		c0,0,60.29-9.14,53.61-61.01L5178.09,1058.12z"/><path class="st21" d="M5064.66,1109.76c0,0-22.84,71.08-24.3,95.28c-1.47,24.2,43.65,343.77,45.47,354.92
		c1.71,10.51,14.76,17.21,14.76,17.21s6,3.54,14.57,1.12c11.89-3.36,15.64-7.38,15.64-7.38s17.77-227.92,6.77-309.33
		c-11-81.42-11.13-151.82-11.13-151.82H5064.66z"/><path class="st24" d="M5161.4,1107.64c0,0,34.83,46.74,38.08,78.33c3.25,31.59,5.09,142.57,12.01,173.37
		c6.92,30.8,32.34,90.07,32.34,186.13c0,0-2.64,5.5-10.8,8.44c-2.61,0.94-6.1,1.85-9.5,2.63c-6.73,1.54-13.63-1.75-16.7-7.93
		c-17.18-34.6-71.92-146.19-74.73-169.36c-1.99-16.39-19.27-124.89-56.97-188.55c-9.05-15.28,5.55-76.07,5.55-76.07L5161.4,1107.64z
		"/><path class="st35" d="M5061.01,1098.78c0,0,9.17,7.25,27.38,7.62c21.75,0.44,75.65-5.55,75.65-5.55s2.4,6.69,2.3,13.76
		c0,0-65.83,16.6-103.97,2.42C5062.36,1117.04,5057.44,1107.78,5061.01,1098.78z"/><g><path class="st2" d="M5083.17,1125.15c-5.47,0-9.93-5.04-9.93-11.23c0-6.2,4.45-11.23,9.93-11.23c5.47,0,9.93,5.04,9.93,11.23
			C5093.09,1120.11,5088.64,1125.15,5083.17,1125.15z M5083.17,1105.97c-3.66,0-6.64,3.56-6.64,7.94c0,4.38,2.98,7.94,6.64,7.94
			c3.66,0,6.63-3.56,6.63-7.94C5089.8,1109.53,5086.83,1105.97,5083.17,1105.97z"/></g><path class="st23" d="M5227.91,1117.73l-53.46,46.55c-3.86,3.36-9.72,2.96-13.08-0.9l-68.21-78.33c-3.36-3.86-2.96-9.72,0.9-13.08
		l53.46-46.55c3.86-3.36,9.72-2.96,13.08,0.9l68.21,78.33C5232.18,1108.51,5231.78,1114.37,5227.91,1117.73z"/><path class="st26" d="M5148.83,1111.85c-0.76,0.2-28.4,3.45-28.4,9.16c0,6.6,8.1,15.45,15.74,15.03
		c3.09-0.17,17.35-13.28,17.35-13.28L5148.83,1111.85z"/><path class="st26" d="M5134.64,947.17c-3.14-7.63-4.98-19.24-4.93-33.62l-2.09,0.41l-35.11,6.95c0,0,0.8,11.05,0.82,21.46
		c0,0.09,0,0.17,0,0.26c0.04,9.04-6.11,18.11,8.39,21.69C5106.21,965.44,5141.24,963.19,5134.64,947.17z"/><path class="st41" d="M5092.52,920.92c0,0,0.8,11.05,0.82,21.46c19.64-0.55,30.03-18.47,34.28-28.41L5092.52,920.92z"/><path class="st26" d="M5085.96,930.77c0,0,46.48,0.77,46.51-28.18c0.03-28.95,6.05-48.35-23.62-50.07
		c-29.67-1.71-35.45,9.33-37.81,18.99C5068.67,881.17,5073.86,929.83,5085.96,930.77z"/><path class="st30" d="M5087.67,851.82c0,0,12.73,33.97,32.26,38.99c19.53,5.02,28-0.21,28-0.21s-14.98-11.9-18.09-32.67
		C5129.84,857.92,5097.27,835.65,5087.67,851.82z"/><path class="st30" d="M5090.83,854.57c0,0-9.44,3.53-13.32,10.41c-3.8,6.73-7.03,15.64-6.28,26.58c0,0-9.59-23.09,1.19-36.15
		C5083.84,841.57,5090.83,854.57,5090.83,854.57z"/><path class="st26" d="M5148.83,1111.85c0,0-6.62-2.13-11.05-1.51c-4.43,0.62-7.7-0.09-7.7,1.15c0,1.24,5.71,1.82,6.93,2.41
		C5138.22,1114.51,5148.83,1111.85,5148.83,1111.85z"/><path class="st25" d="M5157.09,950.2c0,0,32.99,2.31,45.64,33.06c12.65,30.74,36.64,82.36,36.64,91.05s-13.4,35.45-85.39,50.84
		c0,0-7.44-7.83-6.99-14.03c0,0,44.94-38.6,44.82-43.11c-0.23-8.53-7.37-19.8-46.82-59.26
		C5134.26,998.02,5157.09,950.2,5157.09,950.2z"/></g><g><g><path class="st35" d="M4040.45,36.21c0,0-26.47-4.48-43.25,8.2s-19.47,8.58-28.94,16.41c-9.47,7.83,0.22,17.15-5,22.38
			c-5.22,5.22-5.42,15.29,2.32,17.9c7.75,2.61,2.53,16.78,19.31,18.65c16.78,1.86,9.26,9.63,25.18,10.81
			c15.92,1.18,29.08,1.73,37.47,5.25c8.39,3.52,15.99-0.12,18.39-6.5c2.4-6.39,9.11,1.85,11.07-6.88
			c1.96-8.73-5.03-12.18-1.12-19.27C4079.81,96.06,4089.49,45.72,4040.45,36.21z"/><path class="st26" d="M4086.24,544.25c-1.83,2.12-2.05,4.49-1.12,7c0,0.01,0.01,0.02,0.02,0.03c1.72,4.65,7.33,9.82,13.84,14.97
			c0.83,0.66,1.57,1.26,2.22,1.82c0.17,0.15,0.34,0.29,0.5,0.44c0.13,0.11,0.26,0.23,0.38,0.34c6.08,5.52,3.81,6.81,14.74,18.03
			c12.46,12.78,20.97,12.95,23.39,11.76c2.04-1.01-2.17-7.81-6.84-15.45c-0.23-0.37-0.45-0.74-0.68-1.11
			c-0.62-1.02-1.24-2.05-1.86-3.07c-5.47-9.19-4.11-13.54-2.93-27.28c0.96-11.17,16.93-62.49,16.93-62.49l-23.73-3.91
			c0,0-6.85,40.83-14.67,47.16c-4.18,3.38-8.89,3.45-12.91,5.96c-0.28,0.17-0.56,0.35-0.84,0.54
			C4090.4,540.53,4088.07,542.12,4086.24,544.25z"/><path class="st35" d="M4086.24,544.25c-1.83,2.12-2.05,4.49-1.12,7c0,0.01,0.01,0.02,0.02,0.03c2.1,4.64,7.57,9.78,13.86,14.92
			c0.82,0.67,1.55,1.29,2.19,1.87c0.17,0.15,0.34,0.29,0.5,0.44c0.13,0.11,0.26,0.23,0.38,0.34c6.08,5.52,3.81,6.81,14.74,18.03
			c12.46,12.78,20.97,12.95,23.39,11.76c2.04-1.01-2.17-7.81-6.84-15.45c-2.41-0.86-13.63-5.33-22.16-16.09
			c-7.51-9.45-12.57-21.62-17.69-28.66c-0.28,0.17-0.56,0.35-0.84,0.54C4090.4,540.53,4088.07,542.12,4086.24,544.25z"/><path class="st26" d="M4277.23,528.1c1.52,7.31,11.93,6.01,23.56,3.08c11.63-2.93,8.88,0.47,25.45-1.48
			c16.57-1.95,21.55-8.17,22.04-10.64c0.44-2.19-7.76-2.9-16.56-3.85c-1.11-0.12-2.22-0.25-3.33-0.37
			c-9.93-1.17-17.24-7.53-26.29-12.72c-8.57-4.92-21.45-25.12-21.45-25.12l-22.73,1.96c0,0,12.06,18.04,16.73,25.89
			c2.75,4.62,2.65,10.75,2.34,15.48C4276.85,522.9,4276.7,525.53,4277.23,528.1z"/><path class="st35" d="M4300.8,531.18c11.63-2.93,8.88,0.47,25.45-1.48c16.57-1.95,21.55-8.17,22.04-10.64
			c0.44-2.19-7.76-2.9-16.56-3.85l-0.08,0.17c0,0-9.89,7.12-23.69,7.55c-11.25,0.35-23.18-2.79-30.95-2.61
			c-0.16,2.57-0.31,5.2,0.23,7.78C4278.75,535.41,4289.17,534.11,4300.8,531.18z"/><path class="st15" d="M4189.07,383.31l-20.85,57.35l-27.22,74.88c0,0-7.53,0.78-14.75-1.24c-6.65-1.87-14.31-6.84-14.31-6.84
			s7.14-80.25,21.19-126.38c3.6-11.84,7.66-21.43,12.18-26.84C4167.4,327.75,4189.07,383.31,4189.07,383.31z"/><path class="st25" d="M4166.81,292.63c-13.96-4.39-53.64,1.65-93.48,9.75l-8.45-13.72l-86.23-6.12c0,0-27,59.73-12.14,103.34
			c2.88,8.46,16.69,8.76,16.69,8.76c0,0,50.52,0.55,67.17,0.43c42.86-0.3,90.5-30.1,96.68-31.38c10.12-2.1,14.31,18.14,24.59,39.34
			c10.28,21.2,95.9,93.55,95.9,93.55s13.08,0.04,18.47-2.03c5.79-2.22,7.9-5.07,7.9-5.07S4198.29,302.53,4166.81,292.63z"/><path class="st26" d="M4037.71,155.77c0.14,0.09-15.06,5.4-25.28,0.96c-9.61-4.17-16.98-19.88-16.84-19.89
			c4.36-0.23,9.12-4.08,12.63-29.11l1.86,0.65l31.29,11.01c0,0-2.19,10.03-3.59,19.58C4036.61,146.97,4036,154.65,4037.71,155.77z"/><path class="st42" d="M4041.37,119.38c0,0-1.33,7.03-3.19,17.08c-17.95-3.1-25.51-18.41-28.11-28.09L4041.37,119.38z"/><path class="st26" d="M4046.09,129.29c0,0-42.75-5.43-38.95-32c3.79-26.57,0.83-45.16,28.28-42.82
			c27.45,2.34,31.3,13.24,32.19,22.41C4068.49,86.06,4057.3,130.02,4046.09,129.29z"/><path class="st35" d="M4065.94,62.35c0,0-27.17,23.75-45.75,25.78c-18.58,2.03-25.66-3.89-25.66-3.89s10.9-9.18,17.39-23.91
			c1.91-4.34,6-7.34,10.72-7.78C4035.91,51.31,4061.07,50.61,4065.94,62.35z"/><path class="st35" d="M4048.84,60.36c0,0,9.21,8.78,12.13,15.32c2.82,6.31,3.76,21.44,1.59,27.47c0,0,14.05-27.81,5.89-41.21
			C4059.8,47.72,4048.84,60.36,4048.84,60.36z"/><path class="st2" d="M4074.11,218.42c-0.68,86.45,0.13,68.38-9.27,76.65c-2.26,1.99-8.66,3.21-17.09,3.83
			c-26.49,1.95-73.12-2.09-74.93-6.98c-6.23-16.91-1.95-22.2-7.24-48.12c-0.55-2.76-1.23-5.74-2.03-8.99
			c-4.38-17.79-8.56-23.83,6.33-52.57c13.5-26.03,27.57-47.18,28.85-46.43c36.25,21.18,39.04,3.14,39.04,3.14
			S4074.45,176.25,4074.11,218.42z"/><path class="st25" d="M4168.21,440.66l-27.22,74.88c0,0-7.53,0.78-14.75-1.24c-6.65-1.87-14.31-6.84-14.31-6.84
			s7.14-80.25,21.19-126.38L4168.21,440.66z"/><path class="st2" d="M4037.78,138.96c0,0,37.19,6.04,41.67,22c4.47,15.96,30.81,109.81,30.81,109.81s-18.86,3.53-27.65-5.14
			c-8.79-8.66-30.93-80.73-30.93-80.73L4037.78,138.96z"/><path class="st43" d="M4047.76,298.9c-26.49,1.95-73.12-2.09-74.93-6.98c-6.23-16.91-1.95-22.2-7.24-48.12l12.53-36.09
			c0,0-1.83,40.1,10.07,50.56c11.88,10.46,48.55,20.01,54.36,28.78C4045.35,291.27,4047.2,295.5,4047.76,298.9z"/><path class="st26" d="M4017.27,282.26c0,0,26.11-6.01,30.35-3.72c4.24,2.29,14.61,10.67,15.92,13.6
			c1.31,2.93-9.41-2.17-12.89-3.07c-2.25-0.59-8.17,1.51-11.09,2.51c-12.31,4.2-19.89,2.14-19.89,2.14L4017.27,282.26z"/><path class="st2" d="M3998.72,135.8c0,0-35.1,2.41-47.13,19.45c-16.94,23.99-50.17,125.93-30.62,139.36
			c22.02,15.12,99.73,3.29,99.73,3.29s2.5-12.12-1.14-17.95c-3.64-5.83-62.25-14.87-64.97-17.55c-2.72-2.68,33.4-52.92,33.34-61.03
			S3998.72,135.8,3998.72,135.8z"/><path class="st26" d="M4048.93,285.81c0,0,5.53,7.03,7.33,7.86c1.8,0.83,2.96,0.61,2.96,0.61l-3.74-6.62L4048.93,285.81z"/><path class="st26" d="M4047.61,278.54l15.98,7.62c0,0-0.67,1.11-2.63,1.04c-1.96-0.08-6.92-1.85-6.92-1.85L4047.61,278.54z"/></g><g><g><polygon class="st35" points="4052.85,305.08 4178.87,304.19 4216.11,209.65 4090.29,210.54 			"/><polygon class="st35" points="4180.32,300.51 4013.91,301.68 4013.94,305.35 4178.87,304.19 			"/></g><path class="st44" d="M4146.72,257.28c0.93-3.32-1.01-5.99-4.32-5.97c-3.31,0.02-6.75,2.73-7.68,6.05
			c-0.93,3.32,1.01,5.99,4.32,5.97C4142.36,263.31,4145.8,260.6,4146.72,257.28z"/></g></g><path class="st45" d="M3411.89,1613.79h91.96c4.93-4.18-3.41-13.67-12.12-14.31c-3.78-0.29-8.57,0.51-14.04,1.66
	c-1.27-16.81-8.49-92.37-35.73-89.33c-30.62,3.4,0,33.28,8.66,50.96c6.41,13.1,13.18,31.89,16.27,40.75
	c-2.49,0.54-5.06,1.07-7.69,1.55c-4.06-12.46-19.16-54.38-38.37-51.94c-22.55,2.86-13.49,19.67,2.5,29.64
	c11.73,7.34,26.12,17.77,32.97,22.8c-5.8,0.95-11.85,1.58-17.98,1.44C3422.56,1606.65,3414.87,1611.3,3411.89,1613.79z"/><path class="st45" d="M5402.18,1613.58h-101.74c-5.45-4.62,3.77-15.13,13.41-15.83c4.19-0.32,9.48,0.56,15.53,1.84
	c1.4-18.6,9.4-102.19,39.53-98.83c33.88,3.76,0,36.81-9.58,56.38c-7.1,14.49-14.58,35.28-18,45.09c2.75,0.6,5.6,1.18,8.51,1.72
	c4.49-13.79,21.2-60.17,42.45-57.47c24.95,3.16,14.92,21.76-2.76,32.8c-12.97,8.12-28.9,19.65-36.47,25.23
	c6.41,1.05,13.11,1.75,19.9,1.59C5390.37,1605.68,5398.88,1610.82,5402.18,1613.58z"/><path class="st35" d="M5547.63,1621.04h-2290c-1.6,0-2.9-1.31-2.9-2.9v-1.78c0-1.6,1.31-2.9,2.9-2.9h2290c1.6,0,2.91,1.31,2.91,2.9
	v1.78C5550.54,1619.73,5549.23,1621.04,5547.63,1621.04z"/><text transform="matrix(1 0 0 1 4168.2114 635.5155)" style="font-family:'Helvetica-Bold';font-size:71px">AGREEMENT</text></svg>