<svg width="20" height="20" fill="none" xmlns="http://www.w3.org/2000/svg"><path d="M19.3 6.7a2 2 0 0 0-1-.4l-4.5-.7-2-4.1a2 2 0 0 0-3.5 0l-2 4.1-4.6.7A2 2 0 0 0 .6 9.6l3.3 3.2-.8 4.5a2 2 0 0 0 2.8 2l4.1-2 4 2a2 2 0 0 0 2.5-.4c.3-.4.5-1 .4-1.6l-.8-4.5 3.3-3.2a2 2 0 0 0 0-2.9Zm-.9 1.9L14.8 12c-.2.1-.2.3-.2.5l.9 5a.5.5 0 0 1-.8.5l-4.5-2.4a.5.5 0 0 0-.4 0l-4.5 2.4a.5.5 0 0 1-.8-.5l.9-5c0-.2 0-.4-.2-.5L1.6 8.6a.5.5 0 0 1 .3-1l5-.6c.2 0 .3-.2.4-.3L9.5 2c.1-.2.3-.3.5-.3s.4.1.5.3l2.2 4.6.4.3 5 .7c.4 0 .6.6.3.9Z" fill="#fff"/><path d="M15 19.6a2 2 0 0 1-1-.2l-4-2.2-4 2.2a2 2 0 0 1-2.5-.5 2 2 0 0 1-.4-1.6l.8-4.5L.6 9.6a2 2 0 0 1 1-3.3l4.6-.7 2-4.1a2 2 0 0 1 3.5 0l2 4.1 4.6.7a2 2 0 0 1 1.1 3.3l-3.3 3.2.8 4.5a2 2 0 0 1-2 2.3Zm-5-2.4 4 2.2a2 2 0 0 0 2.4-.5c.4-.4.6-1 .5-1.6l-.8-4.5 3.3-3.2a2 2 0 0 0-1-3.3l-4.6-.7-2-4.1a2 2 0 0 0-3.5 0l-2 4.1-4.6.7a2 2 0 0 0-1 3.3l3.2 3.2-.8 4.5a2 2 0 0 0 2.8 2l4.1-2.1Zm5 1h-.3l-4.5-2.4c-.1-.1-.3-.1-.4 0L5.3 18a.5.5 0 0 1-.7-.1.5.5 0 0 1 0-.4l.8-5c0-.2 0-.4-.2-.5L1.6 8.6a.5.5 0 0 1-.2-.6c.1-.2.3-.3.5-.3l5-.8c.2 0 .3 0 .4-.2L9.5 2c.1-.2.3-.3.5-.3s.4.1.5.3l2.2 4.6.4.2 5 .8c.2 0 .4.1.5.3 0 .2 0 .4-.2.6L14.8 12l-.2.5.9 5-.1.4-.4.2Zm-5-2.5h.2l4.5 2.4a.5.5 0 0 0 .7-.1v-.4l-.8-5c0-.2 0-.4.2-.5l3.6-3.6c.1 0 .2-.3.1-.5 0-.1-.2-.3-.4-.3l-5-.7a.5.5 0 0 1-.4-.3L10.4 2 10 2c-.2 0-.4 0-.4.2L7.3 6.7 7 7l-5 .7c-.2 0-.4.2-.4.3l.1.5 3.6 3.6c.2.1.2.3.2.5l-.9 5 .1.4a.5.5 0 0 0 .7 0l4.5-2.3h.2Z" fill="#fff"/></svg>