<svg xmlns="http://www.w3.org/2000/svg" viewBox="0 0 473.8 473.8">
    <defs/>
    <path d="M374.5 293.5a46.6 46.6 0 00-33.8-15.5 48.2 48.2 0 00-34.2 15.4L274.9 325l-7.7-4a127 127 0 01-10-5.3 343.5 343.5 0 01-82.2-75 202.6 202.6 0 01-27-42.6c8.2-7.5 15.8-15.3 23.2-22.8l8.4-8.5c21-21 21-48.2 0-69.2l-27.3-27.3c-3.1-3-6.3-6.3-9.3-9.5-6-6.2-12.3-12.6-18.8-18.6-9.7-9.6-21.3-14.7-33.5-14.7s-24 5.1-34 14.7l-.2.2-34 34.3A73.2 73.2 0 00.8 123.1c-2.4 29.2 6.2 56.4 12.8 74.2C29.8 241 54 281.5 90 325a470.6 470.6 0 00156.7 122.7c23 11 53.7 23.8 88 26l6.3.2c23 0 42.5-8.3 57.7-24.8 0-.2.3-.3.4-.5 5.2-6.3 11.2-12 17.5-18 4.3-4.2 8.7-8.5 13-13a49.9 49.9 0 0015-34.6 48 48 0 00-15.3-34.3l-55-55zm35.8 105.3c-.1 0-.1.1 0 0-4 4.2-8 8-12.2 12.2a263 263 0 00-19.3 20 48.2 48.2 0 01-37.6 16c-1.5 0-3.1 0-4.6-.2-29.7-1.9-57.3-13.5-78-23.4A444.2 444.2 0 01111 307.8c-34.1-41-57-79-72-119.9-9.3-24.9-12.7-44.3-11.2-62.6 1-11.7 5.5-21.4 13.8-29.7l34-34A22.7 22.7 0 0191 54.3c6.3 0 11.4 3.8 14.6 7l.3.3c6 5.7 11.9 11.6 18 18l9.5 9.6 27.3 27.3c10.6 10.6 10.6 20.4 0 31l-8.6 8.6a522 522 0 01-25.1 24.4l-.5.5c-8.6 8.6-7 17-5.2 22.7l.3 1a219.2 219.2 0 0032.3 52.6v.1a367 367 0 0088.9 80.8c4 2.6 8.3 4.7 12.3 6.7 3.6 1.8 7 3.5 9.9 5.3l1.2.7c3.4 1.7 6.6 2.5 9.9 2.5 8.3 0 13.5-5.2 15.2-6.9l34.2-34.2c3.4-3.4 8.8-7.5 15-7.5 6.3 0 11.4 4 14.5 7.3l.2.2 55 55.1c10.4 10.2 10.4 20.7.2 31.3zM256 112.7c26.3 4.4 50 16.8 69 35.8s31.4 42.8 35.9 69a13.4 13.4 0 0013.3 11.2c.8 0 1.5 0 2.3-.2a13.5 13.5 0 0011-15.6c-5.3-31.7-20.3-60.6-43.2-83.5s-51.8-37.9-83.5-43.3c-7.4-1.2-14.3 3.7-15.6 11s3.5 14.4 10.9 15.6zM473.3 209c-9-52.2-33.5-99.7-71.3-137.5S316.7 9.1 264.5.2a13.4 13.4 0 10-4.4 26.6c46.6 8 89 30 122.9 63.7a226.5 226.5 0 0163.7 123 13.4 13.4 0 0013.3 11.1c.8 0 1.5 0 2.3-.2a13.2 13.2 0 0011-15.4z"/>
</svg>
