<?xml version="1.0" encoding="utf-8"?>
<!-- Generator: Adobe Illustrator 25.2.1, SVG Export Plug-In . SVG Version: 6.00 Build 0)  -->
<svg version="1.1" id="Слой_3" xmlns="http://www.w3.org/2000/svg" xmlns:xlink="http://www.w3.org/1999/xlink" x="0px" y="0px"
	 viewBox="0 0 84.6 80.3" style="enable-background:new 0 0 84.6 80.3;" xml:space="preserve">
<style type="text/css">
	.st0{fill:#F5FAFD;}
	.st1{fill:#C7D9E9;}
	.st2{fill:#A8C8DC;}
</style>
<g>
	<path class="st0" d="M24.1,45.7c-5.7-1.8-11.4-3.6-17.1-5.4c-0.7-0.2-1.5-0.5-2.1-1c-0.9-0.8-1.1-1.8-0.3-2.7
		C5.2,35.8,6.1,35.3,7,35c5.5-2.2,11.1-4.3,16.6-6.4C39.3,22.5,55,16.4,70.7,10.3C72.4,9.7,74,9,75.6,8.4c2.5-1,4.7,0.5,4.9,3.1
		c0.1,1.4-0.3,2.7-0.6,4.1c-2.1,9.9-4.2,19.8-6.3,29.7c-1.7,7.7-3.3,15.5-5,23.2c-0.2,0.9-0.5,1.7-1.1,2.4c-0.9,1.1-2,1.5-3.3,1.2
		c-0.9-0.2-1.6-0.6-2.3-1.2c-5.7-4.2-11.4-8.3-17-12.5c-0.2,0-0.4-0.1-0.6-0.2c-3.3-2.4-6.6-4.9-9.9-7.3c-0.2-0.1-0.3-0.2-0.4-0.4
		c-0.1-0.3,0.1-0.4,0.3-0.6c2.2-1.9,4.3-3.8,6.4-5.7c1.8-1.7,3.7-3.3,5.5-5c1.8-1.6,3.5-3.2,5.3-4.7c1.8-1.6,3.5-3.1,5.3-4.7
		c1.9-1.7,3.7-3.4,5.6-5c1.4-1.2,2.7-2.4,4-3.6c0.1-0.1,0.1-0.1,0.2-0.2c0.2-0.2,0.4-0.5,0.2-0.8c-0.2-0.3-0.5-0.3-0.8-0.3
		c-0.6,0.1-1.2,0.3-1.8,0.7c-5.8,3.8-11.7,7.5-17.6,11.2c-6.4,4.1-12.9,8.2-19.3,12.3c-0.9,0.5-1.7,1.1-2.6,1.6
		C24.5,45.7,24.3,45.9,24.1,45.7z"/>
	<path class="st1" d="M24.1,45.7c0.8-0.3,1.5-0.8,2.2-1.3c6.3-4,12.6-8,18.9-12.1c6-3.8,12-7.6,17.9-11.4c0.9-0.6,1.7-1.2,2.8-1.3
		c0.4-0.1,0.8,0,1,0.3c0.2,0.3,0.1,0.7-0.2,1c-1,0.9-2,1.9-3.1,2.8c-1,0.9-2,1.8-3,2.7c-2.3,2.1-4.7,4.2-7,6.3
		c-1.4,1.2-2.7,2.5-4.1,3.7c-1.8,1.6-3.6,3.2-5.4,4.8c-0.9,0.8-1.8,1.6-2.7,2.5c-2.4,2.1-4.7,4.2-7.1,6.3c-0.2,0.1-0.3,0.3-0.3,0.5
		c0.2,1.1-0.1,2.2-0.1,3.4c-0.1,1.8-0.2,3.6-0.3,5.4c-0.1,1.9-0.2,3.8-0.3,5.7c-0.1,0.8-0.1,1.6-0.2,2.4c-0.1,1-0.1,1-1.1,0.9
		c-0.9,0-1.2-0.6-1.4-1.3c-0.7-2.3-1.3-4.5-2-6.8C27,55.3,25.5,50.5,24.1,45.7z"/>
	<path class="st2" d="M31.9,68.2c0.9,0,0.8,0,0.9-0.9c0.1-2.4,0.3-4.7,0.5-7.1c0.1-0.8,0-1.6,0.1-2.4c0.2-1.8,0.1-3.6,0.3-5.5
		c0.1-0.6,0-1.3,0.2-1.9c3.6,2.7,7.3,5.3,10.9,8c-0.3,0.3-0.7,0.6-1,0.9c-2.5,2.4-4.9,4.8-7.4,7.1c-1.1,1-2.2,2-3.8,1.9
		C32.3,68.3,32.1,68.4,31.9,68.2z"/>
</g>
</svg>
