<?xml version="1.0" encoding="utf-8"?>
<!-- Generator: Adobe Illustrator 25.2.1, SVG Export Plug-In . SVG Version: 6.00 Build 0)  -->
<svg version="1.1" id="Слой_1" xmlns="http://www.w3.org/2000/svg" xmlns:xlink="http://www.w3.org/1999/xlink" x="0px" y="0px"
	 viewBox="0 0 293 55" style="enable-background:new 0 0 293 55;" xml:space="preserve">
<style type="text/css">
	.st0{fill:#DB261D;}
	.st1{fill:#FFFFFF;}
</style>
<path class="st0" d="M286.85,55H6.15C2.75,55,0,52.25,0,48.85V6.15C0,2.75,2.75,0,6.15,0h280.69c3.4,0,6.15,2.75,6.15,6.15v42.69
	C293,52.25,290.25,55,286.85,55z"/>
<path class="st1" d="M21.94,27.44c0-1.92-0.02-3.83,0-5.75c0.02-1.78,1.26-2.57,2.86-1.76c3.71,1.88,7.4,3.79,11.08,5.74
	c1.6,0.85,1.63,2.55,0.04,3.41c-3.7,1.99-7.42,3.94-11.16,5.85c-1.49,0.76-2.78-0.06-2.81-1.74C21.92,31.28,21.94,29.36,21.94,27.44
	z"/>
</svg>
