<?xml version="1.0" encoding="UTF-8" standalone="no"?><svg xmlns:dc="http://purl.org/dc/elements/1.1/" xmlns:cc="http://creativecommons.org/ns#" xmlns:rdf="http://www.w3.org/1999/02/22-rdf-syntax-ns#" xmlns:svg="http://www.w3.org/2000/svg" xmlns="http://www.w3.org/2000/svg" xmlns:sodipodi="http://sodipodi.sourceforge.net/DTD/sodipodi-0.dtd" xmlns:inkscape="http://www.inkscape.org/namespaces/inkscape" version="1.1" id="svg2" xml:space="preserve" width="4000" height="2666.6667" viewBox="0 0 4000 2666.6667" sodipodi:docname="Dogovor.ai"><metadata id="metadata8"><rdf:RDF><cc:Work rdf:about=""><dc:format>image/svg+xml</dc:format><dc:type rdf:resource="http://purl.org/dc/dcmitype/StillImage"/></cc:Work></rdf:RDF></metadata><defs id="defs6"><clipPath clipPathUnits="userSpaceOnUse" id="clipPath20"><path d="M 0,2000 H 3000 V 0 H 0 Z" id="path18"/></clipPath><clipPath clipPathUnits="userSpaceOnUse" id="clipPath198"><path d="M 1038.53,908.689 H 1327.3 V 619.922 h -288.77 z" id="path196"/></clipPath></defs><sodipodi:namedview pagecolor="#ffffff" bordercolor="#666666" borderopacity="1" objecttolerance="10" gridtolerance="10" guidetolerance="10" inkscape:pageopacity="0" inkscape:pageshadow="2" inkscape:window-width="640" inkscape:window-height="480" id="namedview4"/><g id="g10" inkscape:groupmode="layer" inkscape:label="Dogovor" transform="matrix(1.3333333,0,0,-1.3333333,0,2666.6667)"><path d="M 0,0 H 3000 V 2000 H 0 Z" style="fill:#000;fill-opacity:0;fill-rule:nonzero;stroke:none" id="path12"/><g id="g14"><g id="g16" clip-path="url(#clipPath20)"><g id="g22" transform="translate(488.2744,144.5225)"><path d="m 0,0 c 0,0 -406.193,346.832 -97.411,675.55 328.753,349.977 37.49,799.274 483.754,980.553 482.476,195.988 606.614,-149.202 808.599,-96.197 402.866,105.72 913.874,53.664 828.848,-459.862 -106.733,-644.618 331.158,-562.4 71.084,-1102.195 z" style="fill:#f5f5f5;fill-opacity:1;fill-rule:nonzero;stroke:none" id="path24"/></g><path d="M 1976.18,146.167 H 1084.889 V 1365.023 H 1976.18 Z" style="fill:#012244;fill-opacity:1;fill-rule:nonzero;stroke:none" id="path26"/><path d="m 1938.202,179.752 h -815.335 v 1152.382 h 815.335 z" style="fill:#f1faff;fill-opacity:1;fill-rule:nonzero;stroke:none" id="path28"/><g id="g30" transform="translate(1361.5015,1365.0234)"><path d="m 0,0 v -41.519 c 0,-22.93 18.572,-41.519 41.481,-41.519 h 222.811 c 22.909,0 41.481,18.589 41.481,41.519 V 0 Z" style="fill:#214890;fill-opacity:1;fill-rule:nonzero;stroke:none" id="path32"/></g><path d="m 1318.388,332.661 h -100.875 v 10.21 h 100.875 z" style="fill:#012244;fill-opacity:1;fill-rule:nonzero;stroke:none" id="path34"/><path d="m 1442.627,332.661 h -100.875 v 10.21 h 100.875 z" style="fill:#012244;fill-opacity:1;fill-rule:nonzero;stroke:none" id="path36"/><path d="m 1357.415,310.004 h -139.902 v 10.21 h 139.902 z" style="fill:#012244;fill-opacity:1;fill-rule:nonzero;stroke:none" id="path38"/><path d="m 1742.592,1087.428 h -438.044 v 5.654 h 438.044 z" style="fill:#002352;fill-opacity:1;fill-rule:nonzero;stroke:none" id="path40"/><g id="g42" transform="translate(1849.7031,1044.4238)"><path d="M 0,0 H -133.57 V -133.57 H 0 m 6.946,-6.947 H -140.516 V 6.945 H 6.946 Z" style="fill:#012244;fill-opacity:1;fill-rule:nonzero;stroke:none" id="path44"/></g><g id="g46" transform="translate(1850.4805,1071.5669)"><path d="m 0,0 c 2.946,4.944 9.34,6.561 14.283,3.618 4.943,-2.946 6.563,-9.34 3.617,-14.283 l -72.848,-122.269 c -1.734,-2.91 -4.774,-4.795 -8.152,-5.055 -0.267,-0.021 -0.534,-0.031 -0.799,-0.031 -3.092,0 -6.041,1.376 -8.029,3.78 l -45.504,55.046 c -3.666,4.436 -3.043,11.002 1.392,14.668 4.433,3.666 11.001,3.044 14.667,-1.391 l 36.089,-43.656" style="fill:#00994b;fill-opacity:1;fill-rule:nonzero;stroke:none" id="path48"/></g><path d="m 1595.389,1015.217 h -327.592 v 14.387 h 327.592 z" style="fill:#012244;fill-opacity:1;fill-rule:nonzero;stroke:none" id="path50"/><path d="m 1569.703,950.957 h -301.906 v 14.387 h 301.906 z" style="fill:#012244;fill-opacity:1;fill-rule:nonzero;stroke:none" id="path52"/><path d="m 1595.389,983.087 h -89.301 v 14.388 h 89.301 z" style="fill:#012244;fill-opacity:1;fill-rule:nonzero;stroke:none" id="path54"/><path d="m 1481.344,983.087 h -213.547 v 14.388 h 213.547 z" style="fill:#012244;fill-opacity:1;fill-rule:nonzero;stroke:none" id="path56"/><g id="g58" transform="translate(1194.4609,1016.7437)"><path d="M 0,0 -14.656,-4.072 -17.68,7.561 4.187,14.54 H 14.191 V -67.465 H 0 Z" style="fill:#012244;fill-opacity:1;fill-rule:nonzero;stroke:none" id="path60"/></g><g id="g62" transform="translate(1218.0205,954.457)"><path d="m 0,0 c 0,2.86 2.318,5.18 5.179,5.18 2.86,0 5.179,-2.32 5.179,-5.18 0,-2.86 -2.319,-5.179 -5.179,-5.179 C 2.318,-5.179 0,-2.86 0,0" style="fill:#012244;fill-opacity:1;fill-rule:nonzero;stroke:none" id="path64"/></g><path d="m 1717.275,690.569 h 133.571 V 824.14 h -133.571 z m 140.517,-6.945 H 1710.33 v 147.462 h 147.462 z" style="fill:#012244;fill-opacity:1;fill-rule:nonzero;stroke:none" id="path66"/><g id="g68" transform="translate(1787.7236,713.2637)"><path d="m 0,0 c -3.092,0 -6.041,1.376 -8.028,3.779 l -45.504,55.047 c -3.666,4.436 -3.043,11.002 1.391,14.668 4.434,3.666 11.001,3.043 14.668,-1.391 L -1.385,28.446 63.899,138.02 c 2.947,4.944 9.34,6.561 14.284,3.618 4.943,-2.946 6.562,-9.34 3.617,-14.284 L 8.951,5.086 C 7.218,2.175 4.178,0.291 0.8,0.031 0.532,0.01 0.266,0 0,0" style="fill:#00994b;fill-opacity:1;fill-rule:nonzero;stroke:none" id="path70"/></g><g id="g72" transform="translate(1176.1504,740.1982)"><path d="m 0,0 27.835,23.678 c 11.088,9.355 15.131,14.552 15.131,21.829 0,7.97 -5.659,12.59 -13.051,12.59 -7.393,0 -12.475,-4.043 -18.712,-12.127 L 1.155,53.823 c 7.739,10.857 15.361,16.979 29.799,16.979 15.823,0 26.68,-9.702 26.68,-24.37 0,-12.705 -6.814,-19.521 -21.021,-31.301 L 19.981,1.271 h 38.461 v -12.475 l -58.442,0 z" style="fill:#012244;fill-opacity:1;fill-rule:nonzero;stroke:none" id="path74"/></g><g id="g76" transform="translate(1244.2109,734.1377)"><path d="m 0,0 c 0,2.84 2.303,5.143 5.143,5.143 2.84,0 5.142,-2.303 5.142,-5.143 0,-2.841 -2.302,-5.144 -5.142,-5.144 C 2.303,-5.144 0,-2.841 0,0" style="fill:#012244;fill-opacity:1;fill-rule:nonzero;stroke:none" id="path78"/></g><path d="m 1614.748,794.934 h -344.242 v 14.388 h 344.242 z" style="fill:#012244;fill-opacity:1;fill-rule:nonzero;stroke:none" id="path80"/><path d="m 1587.756,730.674 h -317.25 v 14.387 h 317.25 z" style="fill:#012244;fill-opacity:1;fill-rule:nonzero;stroke:none" id="path82"/><path d="m 1614.748,762.804 h -93.84 v 14.387 h 93.84 z" style="fill:#012244;fill-opacity:1;fill-rule:nonzero;stroke:none" id="path84"/><path d="m 1494.906,762.804 h -224.4 v 14.387 h 224.4 z" style="fill:#012244;fill-opacity:1;fill-rule:nonzero;stroke:none" id="path86"/><path d="m 1717.275,468.66 h 133.571 v 133.57 h -133.571 z m 140.517,-6.945 H 1710.33 v 147.462 h 147.462 z" style="fill:#012244;fill-opacity:1;fill-rule:nonzero;stroke:none" id="path88"/><g id="g90" transform="translate(1787.7236,491.3545)"><path d="m 0,0 c -3.092,0 -6.041,1.376 -8.028,3.779 l -45.504,55.047 c -3.666,4.435 -3.043,11.001 1.391,14.667 4.434,3.666 11.001,3.044 14.668,-1.391 L -1.385,28.446 63.899,138.02 c 2.947,4.943 9.34,6.56 14.284,3.617 4.943,-2.945 6.562,-9.339 3.617,-14.283 L 8.951,5.086 C 7.218,2.175 4.178,0.29 0.8,0.03 0.532,0.009 0.266,0 0,0" style="fill:#00994b;fill-opacity:1;fill-rule:nonzero;stroke:none" id="path92"/></g><path d="m 1614.748,573.024 h -344.242 v 14.387 h 344.242 z" style="fill:#012244;fill-opacity:1;fill-rule:nonzero;stroke:none" id="path94"/><path d="m 1587.756,508.764 h -317.25 v 14.388 h 317.25 z" style="fill:#012244;fill-opacity:1;fill-rule:nonzero;stroke:none" id="path96"/><path d="m 1614.748,540.895 h -93.84 v 14.387 h 93.84 z" style="fill:#012244;fill-opacity:1;fill-rule:nonzero;stroke:none" id="path98"/><path d="m 1494.906,540.895 h -224.4 v 14.387 h 224.4 z" style="fill:#012244;fill-opacity:1;fill-rule:nonzero;stroke:none" id="path100"/><g id="g102" transform="translate(1175.126,521.7529)"><path d="M 0,0 9.72,9.042 C 15.371,2.374 21.7,-1.356 30.516,-1.356 c 7.799,0 13.675,4.747 13.675,12.207 0,7.798 -7.12,12.206 -18.196,12.206 H 19.553 L 17.292,31.76 38.654,54.478 H 4.408 V 66.571 H 56.737 V 56.173 L 34.698,33.567 C 47.243,31.76 57.98,25.317 57.98,11.076 57.98,-3.503 46.679,-13.901 30.29,-13.901 16.501,-13.901 6.668,-8.138 0,0" style="fill:#012244;fill-opacity:1;fill-rule:nonzero;stroke:none" id="path104"/></g><g id="g106" transform="translate(1237.0903,512.8838)"><path d="m 0,0 c 0,2.779 2.253,5.032 5.032,5.032 2.78,0 5.033,-2.253 5.033,-5.032 0,-2.779 -2.253,-5.032 -5.033,-5.032 C 2.253,-5.032 0,-2.779 0,0" style="fill:#012244;fill-opacity:1;fill-rule:nonzero;stroke:none" id="path108"/></g><g id="g110" transform="translate(1590.5527,310.2627)"><path d="m 0,0 c -29.582,0 -55.352,21.004 -61.273,49.943 -0.475,2.318 1.02,4.581 3.338,5.055 2.313,0.471 4.58,-1.02 5.055,-3.338 C -47.77,26.69 -25.53,8.567 0,8.567 c 25.277,0 47.472,17.909 52.772,42.584 0.498,2.315 2.778,3.779 5.089,3.288 2.313,-0.497 3.785,-2.774 3.288,-5.088 C 55.006,20.755 29.289,0 0,0" style="fill:#012244;fill-opacity:1;fill-rule:nonzero;stroke:none" id="path112"/></g><g id="g114" transform="translate(1533.3623,379.6621)"><path d="m 0,0 c -0.271,0 -0.544,0.024 -0.819,0.078 -2.324,0.448 -3.841,2.696 -3.391,5.021 5.674,29.311 31.497,50.589 61.4,50.589 28.732,0 53.678,-19.438 60.664,-47.271 0.576,-2.295 -0.816,-4.622 -3.112,-5.198 -2.293,-0.573 -4.62,0.818 -5.198,3.113 C 103.516,30.348 81.987,47.119 57.19,47.119 31.382,47.119 9.097,28.762 4.2,3.469 3.804,1.422 2.01,0 0,0" style="fill:#012244;fill-opacity:1;fill-rule:nonzero;stroke:none" id="path116"/></g><g id="g118" transform="translate(1590.5527,449.5361)"><path d="m 0,0 c -42.31,0 -76.73,-34.421 -76.73,-76.729 0,-42.31 34.42,-76.731 76.73,-76.731 42.309,0 76.729,34.421 76.729,76.731 C 76.729,-34.421 42.309,0 0,0 m 0,-165.639 c -49.024,0 -88.908,39.885 -88.908,88.91 0,49.023 39.884,88.908 88.908,88.908 49.024,0 88.908,-39.885 88.908,-88.908 0,-49.025 -39.884,-88.91 -88.908,-88.91" style="fill:#012244;fill-opacity:1;fill-rule:nonzero;stroke:none" id="path120"/></g><path d="m 1608.16,378.308 h -35.215 v 5.636 h 35.215 z" style="fill:#012244;fill-opacity:1;fill-rule:nonzero;stroke:none" id="path122"/><path d="m 1608.16,355.242 h -35.215 v 5.637 h 35.215 z" style="fill:#012244;fill-opacity:1;fill-rule:nonzero;stroke:none" id="path124"/><path d="m 1616.469,367.17 h -51.832 v 5.637 h 51.832 z" style="fill:#012244;fill-opacity:1;fill-rule:nonzero;stroke:none" id="path126"/><g id="g128" transform="translate(1013.7461,755.1318)"><path d="m 0,0 c 0,0 2.77,6.229 4.563,9.178 1.793,2.95 9.456,11.591 10.76,9.634 C 16.627,16.855 21.844,3.687 19.073,0 16.301,-3.687 19.252,-10.102 5.468,-13.986 Z" style="fill:#ffae73;fill-opacity:1;fill-rule:nonzero;stroke:none" id="path130"/></g><g id="g132" transform="translate(860.5645,794.46)"><path d="m 0,0 c 0,0 70.562,-58.901 98.075,-53.448 21.514,4.263 54.534,15.586 54.534,15.586 l 6.603,-16.891 c 0,0 -29.611,-40.168 -60.484,-40.432 -48.257,-0.412 -83.911,20.894 -83.911,20.894 z" style="fill:#012244;fill-opacity:1;fill-rule:nonzero;stroke:none" id="path134"/></g><g id="g136" transform="translate(736.814,173.1846)"><path d="m 0,0 c 0,0 2.049,-33.044 8.441,-33.518 0.851,-0.062 32.425,-0.062 32.425,-0.062 l 40.305,0.233 c 0,0 -0.264,9.712 -12.046,11.765 -11.781,2.054 -31.5,10.333 -38.638,25.904 C 22.979,20.704 0,0 0,0" style="fill:#004c93;fill-opacity:1;fill-rule:nonzero;stroke:none" id="path138"/></g><g id="g140" transform="translate(734.4912,170.8896)"><path d="m 0,0 c 0,0 12.252,-4.099 21.818,-4.099 10.67,0 20.369,2.908 20.369,2.908 0,0 2.307,22.307 15.001,71.46 6.656,25.762 16.16,58.887 29.681,100.048 37.386,113.758 48.755,180.306 49.793,186.609 0.055,0.331 0.077,0.497 0.077,0.497 l -0.122,0.055 -114.938,50.466 c 0,0 14.205,-156.784 -3.919,-216.964 -2.539,-8.411 -4.713,-18.212 -6.578,-28.831 C -0.265,96.782 0,0 0,0" style="fill:#00994b;fill-opacity:1;fill-rule:nonzero;stroke:none" id="path142"/></g><g id="g144" transform="translate(791.6792,241.1582)"><path d="m 0,0 c 6.656,25.763 16.16,58.888 29.681,100.049 37.386,113.758 48.755,180.305 49.793,186.608 -0.012,0.189 -0.022,0.364 -0.045,0.552 l -114.938,50.467 c 0,0 14.205,-156.784 -3.919,-216.964 C -41.967,112.301 0,0 0,0" style="fill:#007451;fill-opacity:1;fill-rule:nonzero;stroke:none" id="path146"/></g><g id="g148" transform="translate(826.5874,173.1846)"><path d="m 0,0 c 0,0 2.049,-33.044 8.441,-33.518 0.851,-0.062 32.424,-0.062 32.424,-0.062 l 40.305,0.233 c 0,0 -0.263,9.712 -12.045,11.765 -11.781,2.054 -31.5,10.333 -38.638,25.904 C 22.979,20.704 0,0 0,0" style="fill:#004c93;fill-opacity:1;fill-rule:nonzero;stroke:none" id="path150"/></g><g id="g152" transform="translate(891.7534,575.1387)"><path d="m 0,0 c 0,0 1.493,-101.598 -16.085,-226.342 -17.579,-124.744 -11.62,-177.695 -11.62,-177.695 0,0 -12.077,-3.913 -16.951,-4.311 -12.418,-1.011 -25.15,2.911 -25.15,2.911 0,0 -25.16,124.791 -17.946,187.228 7.213,62.438 -34.454,214.25 -34.454,214.25 z" style="fill:#00994b;fill-opacity:1;fill-rule:nonzero;stroke:none" id="path154"/></g><g id="g156" transform="translate(810.2529,812.8916)"><path d="m 0,0 22.436,-14.712 20.437,5.779 c 3.735,5.329 4.724,15.602 4.779,24.502 0.055,8.833 -0.802,16.317 -0.802,16.317 L 16.58,45.245 5.285,50.223 C 5.317,50.047 6.164,40.95 6.285,39.62 8.394,16.03 0,0 0,0" style="fill:#ffae73;fill-opacity:1;fill-rule:nonzero;stroke:none" id="path158"/></g><g id="g160" transform="translate(892.2686,546.8945)"><path d="m 0,0 c -27.926,-26.964 -133.615,-22.428 -140.128,7.279 -6.502,29.707 7.104,252.888 54.807,266.908 9.899,2.911 62.821,-14.196 62.821,-14.196 0,0 8.304,-21.723 13.75,-49.381 1.057,-5.383 4.142,-62.417 6.451,-115.773 C -1.222,69.883 -0.311,45.726 0.155,28.04 0.58,11.473 0.601,0.59 0,0" style="fill:#0d3054;fill-opacity:1;fill-rule:nonzero;stroke:none" id="path162"/></g><g id="g164" transform="translate(818.8008,852.0937)"><path d="m 0,0 c 6.142,-10.383 27.688,-19.469 39.104,-23.633 0.055,8.833 -0.802,16.317 -0.802,16.317 L 8.032,6.043 C 1.341,6.132 -2.735,4.637 0,0" style="fill:#ffa05e;fill-opacity:1;fill-rule:nonzero;stroke:none" id="path166"/></g><g id="g168" transform="translate(868.5205,846.6201)"><path d="m 0,0 c 0,0 -48.772,-15.214 -57.78,15.305 -9.007,30.518 -21.368,49.109 9.391,60.114 30.759,11.004 40.274,1.152 45.758,-8.303 C 2.854,57.66 12.455,4.744 0,0" style="fill:#ffae73;fill-opacity:1;fill-rule:nonzero;stroke:none" id="path170"/></g><g id="g172" transform="translate(863.9746,916.6758)"><path d="m 0,0 c 0,0 -3.111,-35.514 -10.455,-33.973 -7.344,1.542 -15.429,4.84 -14.354,-5.865 1.076,-10.705 -7.142,-29.058 -17.732,-29.014 -22.714,0.094 -47.393,58.377 -41.175,69.43 C -65.774,32.468 25.931,38.903 0,0" style="fill:#063663;fill-opacity:1;fill-rule:nonzero;stroke:none" id="path174"/></g><g id="g176" transform="translate(856.7988,820.3115)"><path d="M 0,0 C -0.629,0.265 -36.308,16.27 -40.48,14.892 -44.653,13.515 -49.854,0.771 -49.854,0.771 L 12.971,-13.433 C 12.971,-13.433 8.026,-3.379 0,0" style="fill:#012244;fill-opacity:1;fill-rule:nonzero;stroke:none" id="path178"/></g><g id="g180" transform="translate(1078.9248,647.4678)"><path d="m 0,0 -200.003,-188.305 c -3.92,-3.691 -8.864,-4.867 -10.985,-2.613 l -6.752,7.171 c -2.122,2.253 -0.65,7.117 3.27,10.808 L -14.467,15.366 c 3.92,3.691 8.863,4.867 10.986,2.613 L 3.27,10.809 C 5.392,8.555 3.92,3.691 0,0" style="fill:#004e88;fill-opacity:1;fill-rule:nonzero;stroke:none" id="path182"/></g><g id="g184" transform="translate(966.6875,541.7949)"><path d="m 0,0 -87.766,-82.632 c -3.92,-3.691 -8.863,-4.867 -10.985,-2.613 l -6.751,7.171 c -2.123,2.253 -0.651,7.117 3.269,10.807 l 87.766,82.633 z" style="fill:#689bf7;fill-opacity:1;fill-rule:nonzero;stroke:none" id="path186"/></g><g id="g188" transform="translate(1077.7612,863.2461)"><path d="m 0,0 c 34.522,36.698 83.712,51.322 129.903,43.323 26.919,-4.658 52.805,-16.986 74.186,-37.104 58.079,-54.64 60.859,-146.01 6.219,-204.089 -20.118,-21.382 -45.202,-35.259 -71.769,-41.555 -45.63,-10.8 -95.622,0.791 -132.321,35.324 C -51.86,-149.46 -54.651,-58.09 0,0 m -44.807,-144.681 c 7.681,-25.303 21.898,-49.004 42.543,-68.428 63.056,-59.322 162.272,-56.289 221.593,6.756 58.54,62.233 56.364,159.646 -4.308,219.208 -0.802,0.802 -1.625,1.593 -2.46,2.374 C 149.515,74.549 50.311,71.539 -9.01,8.482 -48.916,-33.929 -60.617,-92.699 -44.807,-144.681" style="fill:#004e88;fill-opacity:1;fill-rule:nonzero;stroke:none" id="path190"/></g><g id="g192"><g id="g194"/><g id="g206"><g clip-path="url(#clipPath198)" opacity="0.5" id="g204"><g transform="translate(1288.0723,665.376)" id="g202"><path d="m 0,0 c -20.117,-21.382 -45.204,-35.261 -71.775,-41.56 -45.623,-10.793 -95.621,0.802 -132.322,35.331 -58.077,54.639 -60.863,146.014 -6.217,204.097 34.522,36.695 83.714,51.32 129.904,43.32 26.918,-4.656 52.811,-16.985 74.187,-37.096 C 51.854,149.452 54.64,58.077 0,0" style="fill:#acd0fd;fill-opacity:1;fill-rule:nonzero;stroke:none" id="path200"/></g></g></g></g><g id="g208" transform="translate(892.4238,574.9346)"><path d="M 0,0 C -110.203,78.528 -101.04,183.316 -101.04,183.316 -60.76,160.599 -20.792,110.368 -2.454,66.797 -1.377,41.843 -0.466,17.686 0,0" style="fill:#012244;fill-opacity:1;fill-rule:nonzero;stroke:none" id="path210"/></g><g id="g212" transform="translate(1001.1909,610.6953)"><path d="m 0,0 c 7.771,1.794 12.99,7.669 14.075,8.695 0,0 3.315,-0.226 -0.544,-7.296 -0.323,-0.591 -1.039,-2.11 -1.579,-3.185 -0.221,-0.44 0.086,-0.949 0.576,-0.986 4.485,-0.341 8.993,1.433 17.633,-0.369 1.192,-0.248 1.539,-3.103 1.493,-4.32 -0.078,-2.059 0.071,-4.368 -2.322,-7.526 -1.392,-1.836 -5.276,-3.813 -13.926,-7.293 -3.295,-1.326 -12.716,-0.326 -21.547,2.707 l -7.055,3.266 2.188,13.113 1.773,-0.372 C -6.421,-4.156 -2.935,-0.72 0,0" style="fill:#ffae73;fill-opacity:1;fill-rule:nonzero;stroke:none" id="path214"/></g><g id="g216" transform="translate(825.5854,806.8789)"><path d="m 0,0 c 0,0 -99.02,-18.854 29.133,-162.247 20.495,-22.933 131.229,-52.794 131.229,-52.794 0,0 11.231,9.556 5.569,17.294 0,0 -76.243,55.365 -93.018,64.168 -7.547,3.96 -29.289,88.368 -41.592,108.696 C 19.019,-4.554 0,0 0,0" style="fill:#0d3054;fill-opacity:1;fill-rule:nonzero;stroke:none" id="path218"/></g><g id="g220" transform="translate(1016.4307,753.3926)"><path d="m 0,0 c 0,0 3.239,6.19 3.872,9.455 0.632,3.265 4.71,12.787 6.39,14.464 0.673,0.672 2.89,-0.197 3.152,-3.083 C 13.528,19.58 12.912,17.297 11.823,14.573 10.052,10.143 10.344,4.133 9.728,2.129 8.194,-2.86 0,0 0,0" style="fill:#ffae73;fill-opacity:1;fill-rule:nonzero;stroke:none" id="path222"/></g><g id="g224" transform="translate(1343.4746,186.3682)"><path d="m 0,0 c 0,-1.682 0.1,-3.353 0.31,-4.979 0.63,-5.222 2.246,-10.135 4.647,-14.561 1.881,-3.452 4.249,-6.594 7.004,-9.349 7.402,-7.391 17.603,-11.961 28.889,-11.961 h 574.53 c 22.56,0 40.861,18.289 40.861,40.85 0,11.286 -4.569,21.498 -11.971,28.89 -7.392,7.401 -17.604,11.971 -28.89,11.971 H 40.85 C 18.29,40.861 0,22.571 0,0" style="fill:#214890;fill-opacity:1;fill-rule:nonzero;stroke:none" id="path226"/></g><g id="g228" transform="translate(1387.2969,234.6201)"><path d="m 0,0 h 196.986 c 3.449,0 6.27,2.821 6.27,6.27 0,3.448 -2.821,6.27 -6.27,6.27 H 0 C -3.448,12.54 -6.27,9.718 -6.27,6.27 -6.27,2.821 -3.448,0 0,0" style="fill:#214890;fill-opacity:1;fill-rule:nonzero;stroke:none" id="path230"/></g><path d="m 1398.177,227.225 h 21.352 v 7.396 h -21.352 z" style="fill:#1c3965;fill-opacity:1;fill-rule:nonzero;stroke:none" id="path232"/><g id="g234" transform="translate(1348.4316,166.8281)"><path d="M 0,0 C 1.881,-3.452 4.249,-6.594 7.004,-9.349 14.406,-16.74 24.607,-21.31 35.893,-21.31 H 157.59 V 0 Z" style="fill:#1c3965;fill-opacity:1;fill-rule:nonzero;stroke:none" id="path236"/></g><g id="g238" transform="translate(2075.7627,198.3398)"><path d="m 0,0 v -23.933 c 0,-2.622 -0.354,-5.167 -1.007,-7.579 -3.319,-12.281 -14.539,-21.309 -27.871,-21.309 h -598.474 c -13.332,0 -24.551,9.028 -27.871,21.309 -0.652,2.412 -1.006,4.957 -1.006,7.579 V 0 c 0,15.955 12.922,28.889 28.877,28.889 H -28.878 C -12.923,28.889 0,15.955 0,0" style="fill:#00994b;fill-opacity:1;fill-rule:nonzero;stroke:none" id="path240"/></g><g id="g242" transform="translate(2074.7559,166.8281)"><path d="m 0,0 c -3.319,-12.281 -14.539,-21.31 -27.871,-21.31 h -598.474 c -13.332,0 -24.551,9.029 -27.871,21.31 z" style="fill:#007451;fill-opacity:1;fill-rule:nonzero;stroke:none" id="path244"/></g><g id="g246" transform="translate(2016.3232,186.2246)"><path d="m 0,0 c 0,-12.691 4.614,-24.032 11.883,-31.545 0.166,-0.166 0.321,-0.332 0.487,-0.498 5.621,-5.599 12.746,-8.951 20.502,-8.951 12.115,0 42.145,18.278 60.755,30.416 C 102.899,-4.525 109.339,0 109.339,0 c 0,0 -6.44,4.525 -15.712,10.577 -18.61,12.15 -48.64,30.428 -60.755,30.428 -3.507,0 -6.882,-0.687 -10.057,-1.947 C 17.471,36.91 12.713,33.104 8.962,28.125 4.824,22.659 1.881,15.777 0.642,8.132 0.631,8.044 0.608,7.955 0.608,7.866 0.21,5.333 0,2.699 0,0" style="fill:#c4c4c4;fill-opacity:1;fill-rule:nonzero;stroke:none" id="path248"/></g><g id="g250" transform="translate(2016.3232,186.2246)"><path d="M 0,0 C 0,-12.691 4.614,-24.032 11.883,-31.545 L 103.994,0.144 0.608,7.866 C 0.21,5.333 0,2.699 0,0" style="fill:#e0e0e0;fill-opacity:1;fill-rule:nonzero;stroke:none" id="path252"/></g><g id="g254" transform="translate(2025.2852,214.3496)"><path d="M 0,0 91.891,-25.094 13.854,10.933 C 8.509,8.785 3.751,4.979 0,0" style="fill:#eaeaea;fill-opacity:1;fill-rule:nonzero;stroke:none" id="path256"/></g><g id="g258" transform="translate(2103.9531,186.2246)"><path d="M 0,0 C 0,-4.88 2.501,-9.04 5.997,-10.578 15.27,-4.525 21.709,0 21.709,0 21.709,0 15.27,4.525 5.997,10.577 2.501,9.051 0,4.891 0,0" style="fill:#102e4e;fill-opacity:1;fill-rule:nonzero;stroke:none" id="path260"/></g><g id="g262" transform="translate(2266.9229,933.127)"><path d="m 0,0 c -15.219,7.895 -27.413,2.933 -27.413,2.933 -46.566,5.468 -60.15,-48.837 -59.519,-67.524 0.623,-18.683 2.763,-38.755 -18.032,-63.029 -60.069,-70.12 65.735,-73.214 65.735,-73.214 1.064,56.024 68.222,35.582 65.279,29.906 C 112.14,-191.589 34.609,-17.956 0,0" style="fill:#063663;fill-opacity:1;fill-rule:nonzero;stroke:none" id="path264"/></g><g id="g266" transform="translate(2087.2979,710.7754)"><path d="m 0,0 c 0,0 -8.188,12.466 -14.789,12.711 -6.6,0.244 -18.821,3.666 -17.844,1.222 0.978,-2.445 8.556,-2.689 9.289,-4.156 0.734,-1.466 -11.244,-3.667 -14.667,-3.911 -3.422,-0.244 -11.488,0 -11.243,-1.711 0.244,-1.711 14.538,-8.8 24.624,-7.822 10.086,0.978 22.552,-2.934 22.552,-2.934 z" style="fill:#ffae73;fill-opacity:1;fill-rule:nonzero;stroke:none" id="path268"/></g><g id="g270" transform="translate(2205.7285,706.7422)"><path d="M 0,0 C 0,0 -4.451,-8.814 -12.525,-18.941 -22.257,-31.13 -37.26,-45.209 -56.1,-47.988 c -8.997,-1.327 -17.796,0.608 -25.885,4.201 -0.022,0.008 -0.03,0.008 -0.03,0.008 -22.879,10.156 -40.083,33.512 -40.083,33.512 -4.033,10.999 2.567,18.457 2.567,18.457 0,0 46.199,-10.39 50.599,-8.19 4.4,2.199 31.452,62.212 36.324,72.207 10.356,21.246 26.793,27.34 26.793,27.34 z" style="fill:#00994b;fill-opacity:1;fill-rule:nonzero;stroke:none" id="path272"/></g><g id="g274" transform="translate(2193.2031,687.8008)"><path d="m 0,0 c -9.731,-12.188 -24.734,-26.268 -43.574,-29.047 -8.997,-1.327 -17.797,0.609 -25.886,4.201 0.896,-0.117 23.745,-2.94 32.853,13.355 9.291,16.624 19.337,43.023 33.138,34.223 C 2.485,18.934 2.222,9.496 0,0" style="fill:#007451;fill-opacity:1;fill-rule:nonzero;stroke:none" id="path276"/></g><g id="g278" transform="translate(2378.0879,208.0498)"><path d="m 0,0 c 0,0 14.097,-12.865 11.346,-22.006 -2.75,-9.14 -15.473,-15.235 -17.192,-26.407 -1.718,-11.172 -8.595,-17.266 -14.784,-17.266 h -29.506 c 0,0 -4.555,7.862 6.447,10.232 11.002,2.37 15.151,15.498 14.463,27.686 -0.688,12.188 1.032,28.438 1.032,28.438 l 23.381,5.417 z" style="fill:#004c93;fill-opacity:1;fill-rule:nonzero;stroke:none" id="path280"/></g><g id="g282" transform="translate(2258.7715,202.5879)"><path d="m 0,0 c 0,0 5.07,-54.5 -1.118,-57.547 l -79.204,0.162 c 0,0 0,9.141 12.721,11.172 12.722,2.032 35.071,9.48 38.853,26.069 C -24.966,-3.555 0,0 0,0" style="fill:#004c93;fill-opacity:1;fill-rule:nonzero;stroke:none" id="path284"/></g><g id="g286" transform="translate(2319.6992,743.502)"><path d="m 0,0 c 0,0 1.18,-16.64 0,-36.608 -0.785,-13.236 -14.175,-30.966 -16.074,-35.351 -4.767,-11 -10.142,-12.789 -10.142,-12.789 l -41.586,-10.193 -14.622,-3.579 -46.111,13.772 c 0,0 -21.002,58.621 -12.569,91.62 8.433,32.999 21.318,55.915 21.318,55.915 0,0 31.26,12.337 86.618,3.124 z" style="fill:#00994b;fill-opacity:1;fill-rule:nonzero;stroke:none" id="path288"/></g><g id="g290" transform="translate(2307.5273,701.4912)"><path d="m 0,0 c -0.785,-13.236 -2.003,-25.563 -3.902,-29.948 -4.767,-11 -10.142,-12.789 -10.142,-12.789 l -41.586,-10.194 -18.061,5.31 c 0,0 60.293,9.137 53.612,61.012 z" style="fill:#facaa5;fill-opacity:1;fill-rule:nonzero;stroke:none" id="path292"/></g><g id="g294" transform="translate(2194.0977,649.8555)"><path d="m 0,0 c 0,0 -22.836,-71.077 -24.302,-95.276 -1.467,-24.2 43.651,-343.774 45.466,-354.924 1.71,-10.511 14.762,-17.211 14.762,-17.211 0,0 6.004,-3.541 14.57,-1.122 11.887,3.356 15.644,7.375 15.644,7.375 0,0 17.774,227.918 6.774,309.335 C 61.916,-70.406 61.786,0 61.786,0 Z" style="fill:#012244;fill-opacity:1;fill-rule:nonzero;stroke:none" id="path296"/></g><g id="g298" transform="translate(2290.8447,651.9746)"><path d="m 0,0 c 0,0 34.833,-46.736 38.08,-78.329 3.247,-31.594 5.095,-142.568 12.013,-173.367 6.918,-30.8 32.337,-90.071 32.337,-186.135 0,0 -2.643,-5.505 -10.801,-8.439 -2.608,-0.938 -6.105,-1.847 -9.497,-2.626 -6.729,-1.542 -13.631,1.747 -16.701,7.928 -17.185,34.6 -71.925,146.194 -74.731,169.358 -1.986,16.393 -19.27,124.888 -56.971,188.551 -9.052,15.285 5.554,76.067 5.554,76.067 z" style="fill:#002352;fill-opacity:1;fill-rule:nonzero;stroke:none" id="path300"/></g><g id="g302" transform="translate(2190.4492,660.8281)"><path d="m 0,0 c 0,0 9.168,-7.252 27.379,-7.618 21.752,-0.439 75.653,5.546 75.653,5.546 0,0 2.395,-6.692 2.298,-13.758 0,0 -65.832,-16.605 -103.975,-2.424 0,0 -4.919,9.256 -1.355,18.254" style="fill:#1c3965;fill-opacity:1;fill-rule:nonzero;stroke:none" id="path304"/></g><g id="g306" transform="translate(2212.6094,653.6426)"><path d="m 0,0 c -3.66,0 -6.637,-3.563 -6.637,-7.944 0,-4.38 2.977,-7.945 6.637,-7.945 3.658,0 6.635,3.565 6.635,7.945 C 6.635,-3.563 3.658,0 0,0 m 0,-19.178 c -5.474,0 -9.926,5.039 -9.926,11.234 0,6.195 4.452,11.234 9.926,11.234 5.473,0 9.926,-5.039 9.926,-11.234 0,-6.195 -4.453,-11.234 -9.926,-11.234" style="fill:#ffffff;fill-opacity:1;fill-rule:nonzero;stroke:none" id="path308"/></g><g id="g310" transform="translate(2357.3555,641.8799)"><path d="m 0,0 -53.457,-46.549 c -3.863,-3.363 -9.721,-2.959 -13.084,0.904 l -68.211,78.334 c -3.363,3.863 -2.958,9.721 0.904,13.084 l 53.457,46.549 c 3.864,3.364 9.721,2.959 13.084,-0.904 L 0.904,13.084 C 4.268,9.221 3.863,3.363 0,0" style="fill:#214890;fill-opacity:1;fill-rule:nonzero;stroke:none" id="path312"/></g><g id="g314" transform="translate(2278.2695,647.7559)"><path d="m 0,0 c -0.76,-0.202 -28.396,-3.45 -28.4,-9.16 -0.005,-6.603 8.099,-15.45 15.735,-15.032 3.095,0.169 17.352,13.28 17.352,13.28 z" style="fill:#ffae73;fill-opacity:1;fill-rule:nonzero;stroke:none" id="path316"/></g><g id="g318" transform="translate(2264.0781,812.4365)"><path d="m 0,0 c -3.145,7.627 -4.979,19.241 -4.928,33.617 l -2.088,-0.411 -35.105,-6.952 c 0,0 0.799,-11.048 0.822,-21.455 0,-0.087 0,-0.173 10e-4,-0.259 0.043,-9.039 -6.107,-18.109 8.393,-21.694 C -28.426,-18.263 6.604,-16.015 0,0" style="fill:#ffae73;fill-opacity:1;fill-rule:nonzero;stroke:none" id="path320"/></g><g id="g322" transform="translate(2221.957,838.6904)"><path d="m 0,0 c 0,0 0.799,-11.048 0.822,-21.455 19.645,0.554 30.029,18.474 34.283,28.407 z" style="fill:#f68f4e;fill-opacity:1;fill-rule:nonzero;stroke:none" id="path324"/></g><g id="g326" transform="translate(2215.3965,828.8359)"><path d="M 0,0 C 0,0 46.479,-0.767 46.51,28.185 46.542,57.137 52.563,76.536 22.889,78.25 -6.785,79.964 -12.563,68.922 -14.924,59.262 -17.285,49.601 -12.09,0.945 0,0" style="fill:#ffae73;fill-opacity:1;fill-rule:nonzero;stroke:none" id="path328"/></g><g id="g330" transform="translate(2217.1162,907.7949)"><path d="m 0,0 c 0,0 12.726,-33.966 32.256,-38.988 19.53,-5.023 28.001,0.211 28.001,0.211 0,0 -14.981,11.9 -18.089,32.673 C 42.168,-6.104 9.6,16.166 0,0" style="fill:#063663;fill-opacity:1;fill-rule:nonzero;stroke:none" id="path332"/></g><g id="g334" transform="translate(2220.2705,905.0371)"><path d="m 0,0 c 0,0 -9.437,-3.527 -13.32,-10.409 -3.798,-6.731 -7.034,-15.645 -6.284,-26.579 0,0 -9.586,23.086 1.188,36.146 C -6.991,13.006 0,0 0,0" style="fill:#063663;fill-opacity:1;fill-rule:nonzero;stroke:none" id="path336"/></g><g id="g338" transform="translate(2278.2695,647.7559)"><path d="m 0,0 c 0,0 -6.623,2.127 -11.05,1.508 -4.426,-0.62 -7.701,0.088 -7.701,-1.152 0,-1.239 5.714,-1.817 6.929,-2.414 C -10.607,-2.653 0,0 0,0" style="fill:#ffae73;fill-opacity:1;fill-rule:nonzero;stroke:none" id="path340"/></g><g id="g342" transform="translate(2286.5313,809.4131)"><path d="m 0,0 c 0,0 32.993,-2.313 45.641,-33.058 12.647,-30.744 36.642,-82.363 36.642,-91.046 0,-8.684 -13.404,-35.454 -85.39,-50.844 0,0 -7.445,7.832 -6.995,14.025 0,0 44.937,38.598 44.816,43.109 -0.229,8.532 -7.366,19.797 -46.819,59.262 C -22.831,-47.823 0,0 0,0" style="fill:#00994b;fill-opacity:1;fill-rule:nonzero;stroke:none" id="path344"/></g><g id="g346" transform="translate(541.3276,145.8174)"><path d="M 0,0 H 91.959 C 96.888,4.181 88.55,13.674 79.837,14.312 76.054,14.598 71.269,13.806 65.802,12.65 64.537,29.458 57.31,105.018 30.074,101.981 -0.55,98.582 30.074,68.706 38.731,51.019 45.144,37.917 51.909,19.129 55,10.264 52.514,9.725 49.94,9.196 47.311,8.712 43.251,21.175 28.148,63.097 8.943,60.654 -13.607,57.794 -4.543,40.986 11.44,31.01 23.166,23.673 37.565,13.244 44.407,8.206 38.61,7.261 32.56,6.622 26.422,6.766 10.67,7.14 2.981,2.497 0,0" style="fill:#9cd49a;fill-opacity:1;fill-rule:nonzero;stroke:none" id="path348"/></g><g id="g350" transform="translate(2531.6172,146.0303)"><path d="m 0,0 h -101.743 c -5.452,4.625 3.773,15.128 13.412,15.833 4.186,0.317 9.48,-0.56 15.529,-1.837 1.4,18.596 9.396,102.192 39.529,98.833 33.88,-3.76 0,-36.814 -9.579,-56.384 -7.095,-14.494 -14.58,-35.281 -18,-45.091 2.751,-0.595 5.599,-1.179 8.508,-1.715 4.49,13.789 21.2,60.169 42.449,57.467 C 15.054,63.942 5.025,45.346 -12.657,34.308 -25.631,26.19 -41.562,14.653 -49.131,9.079 -42.718,8.032 -36.024,7.327 -29.233,7.485 -11.806,7.898 -3.299,2.763 0,0" style="fill:#9cd49a;fill-opacity:1;fill-rule:nonzero;stroke:none" id="path352"/></g><g id="g354" transform="translate(2677.0752,138.5742)"><path d="m 0,0 h -2289.995 c -1.598,0 -2.905,1.307 -2.905,2.904 v 1.784 c 0,1.598 1.307,2.905 2.905,2.905 H 0 c 1.598,0 2.905,-1.307 2.905,-2.905 V 2.904 C 2.905,1.307 1.598,0 0,0" style="fill:#1c3965;fill-opacity:1;fill-rule:nonzero;stroke:none" id="path356"/></g></g></g><text transform="matrix(1,0,0,-1,1408.8535,1124.0947)" style="font-variant:normal;font-weight:bold;font-stretch:normal;font-size:71px;font-family:Helvetica;-inkscape-font-specification:Helvetica-Bold;writing-mode:lr-tb;fill:#000000;fill-opacity:1;fill-rule:nonzero;stroke:none" id="text360"><tspan x="0 51.262001 78.880997 102.524 122.262 161.73801 181.476" y="0" sodipodi:role="line" id="tspan358">Article</tspan></text></g></svg>