<svg xmlns="http://www.w3.org/2000/svg" width="4000" height="2666.7"><defs><clipPath clipPathUnits="userSpaceOnUse" id="a"><path d="M0 2000h3000V0H0z"/></clipPath><clipPath clipPathUnits="userSpaceOnUse" id="b"><path d="M995 903h278V636H995z"/></clipPath><clipPath clipPathUnits="userSpaceOnUse" id="c"><path d="M0 2000h3000V0H0z"/></clipPath><clipPath clipPathUnits="userSpaceOnUse" id="d"><path d="M1393 530h147V236h-147z"/></clipPath></defs><g clip-path="url(#a)" transform="matrix(1.33333 0 0 -1.33333 0 2667)"><path d="M2648 223H412s-276 184-90 530c170 315 293 119 242 684-21 226 127 340 332 340 202 0 414-86 609-46a1950 1950 0 00159 26h4c172 20 316 11 436-18 442-108 547-489 431-683-162-269 479-296 113-833" fill="#e9f3fb"/><path d="M2238 674s-131-40-122-63c9-24 142 54 142 54s111-82 130-128c0 0-152 8-138-13 15-21 172-36 172-36s81-103 23-156-107-42-120-27-67 123-80 113 3-95 37-129c0 0-134-13-159 49s2 99-15 137c-16 38-40 59-40 36 0-24 39-82 29-124-10-43-13-74-52-26-40 49-84 151-52 192l4 5c-3-2-4-5-4-5-12 7-47 8-74 7a729 729 0 01-29-1c-58-6-136-60-136-60l-9 10c70 70 162 60 162 60 70 0 117 26 117 26s4 135 110 128c0 0 69-13 104-49" fill="#cee3fb"/><path d="M1717 1161l110-246 328 146 138 62-110 246-258-115z" fill="#c9e8ff"/><path d="M1862 971l372 166c10 4 14 16 10 26l-64 143a20 20 0 01-26 10l-372-166a19 19 0 01-10-26l65-144c4-9 15-14 25-9m313 362l85-191-419-188-85 191z" fill="#bad9fe"/><path d="M2031 1092a56 56 0 11-46 103 56 56 0 0146-103" fill="#bad9fe"/><path d="M1688 1202l220-156 207 294 88 123-220 156-164-231z" fill="#d9ebff"/><path d="M1910 1112l235 333c6 9 4 21-5 27l-128 91a20 20 0 01-28-5l-235-332a19 19 0 015-27l129-91c9-7 21-4 27 4m84 471l171-121-265-374-171 120z" fill="#bad9fe"/><path d="M1993 1303a56 56 0 11-92 65 56 56 0 0192-65" fill="#bad9fe"/><path d="M2238 1055s40 6 60-19c19-26 11-50 43-53 33-3 39-15 32-33s34-19 42-43c9-25 5-67-57-55-62 11-85 48-114 38-28-10-69 19-55 37 15 18-8 16-6 56 1 41 28 73 55 72" fill="#063663"/><path d="M1998 830s-11 11-20 14c-10 2-23 5-25 1-2-3 16-9 18-14 3-4-1-3-8-3-7 1-4-1-3-2l15-6h4l19-2s3 7 0 12" fill="#ffae73"/><path d="M1991 827c1-6 4-9 4-9s56-21 96-15l5 1 23 6c34 9 68 22 68 22l1 7c5 19 14 70-1 78 0 0-9-4-19-12-23-18-61-53-82-59-20-5-71-10-94-11 0 0-2-4-1-8" fill="#00974b"/><path d="M2150 832c-13-9-21-17-31-22 34 9 68 22 68 22l1 7-3 7s-16 2-35-14" fill="#007452"/><path d="M2399 292s15-13 12-23-16-16-18-28-9-18-16-18h-31s-5 8 7 11c12 2 16 16 15 29s1 30 1 30l25 5zm-126-7s6-57-1-60h-83s0 9 13 11c14 3 37 10 41 28 4 17 30 21 30 21" fill="#355c8b"/><path d="M2202 769l52-41 50 35 4 2s8 4 10 23l4 44 4 45-32 47c-67 14-107-7-107-7l-9-61c-5-35 23-87 23-87" fill="#00974b"/><path d="M2205 757s-24-75-25-100c-2-26 46-362 48-374 1-11 15-18 15-18s7-4 16-1c12 3 16 8 16 8s19 240 7 325c-11 86-12 160-12 160z" fill="#042d4f"/><path d="M2307 759s37-49 40-82c4-33 6-150 13-183 7-32 34-95 34-196 0 0-3-5-11-9l-10-2c-8-2-15 2-18 8-18 37-76 154-79 178-2 18-20 132-60 199-9 16 6 80 6 80z" fill="#063663"/><path d="M2257 913c7 2 11 7 10 14 0 11-2 21-1 36h-2l-37-4-2-22c-1-15 0-33 32-24" fill="#ffae73"/><path d="M2227 959l-2-22c20-2 33 16 39 25z" fill="#f68f4e"/><path d="M2218 950s49-6 52 24c4 30 12 50-18 55-31 5-39-6-42-15-4-10-4-62 8-64" fill="#ffae73"/><path d="M2230 1032s9-37 29-44c19-8 29-3 29-3s-14 14-15 36c0 0-31 27-43 11" fill="#063663"/><path d="M2233 1029s-11-3-16-9a49 49 0 01-9-27s-8 25 5 37c14 13 20-1 20-1" fill="#063663"/><path d="M2395 703s-3-14-7-16c-3-2-12-14-10-19 4-7 11-17 15-16s1 11 8 18c3 4 12 11 11 18l-2 16z" fill="#ffae73"/><path d="M2393 694l-16-9c-5-2-3-4 0-4s5 0 10 3 8 10 5 10" fill="#ffae73"/><path d="M2294 924s29-7 48-25c30-28 63-56 70-84 6-23 7-56 0-118 0 0-4-2-12-1-7 0-10 2-10 2s-14 82-26 104c-6 12-88 55-88 55z" fill="#00974b"/><path d="M2304 763l4 2s8 4 10 23l4 44s-18 18-24 7 7-32 3-44c-5-12-13-28 3-32" fill="#007452"/><path d="M2202 769s9-8 28-8c23-1 80 5 80 5s3-7 2-14c0 0-69-17-109-3 0 0-5 10-1 20" fill="#1c3965"/><path d="M2225 761c-4 0-7-4-7-8 0-5 3-9 7-9s7 4 7 9c0 4-3 8-7 8m0-20c-6 0-11 5-11 12 0 6 5 11 11 11s10-5 10-11c0-7-4-12-10-12" fill="#fff"/><g clip-path="url(#b)" opacity=".3"><path d="M1193 882s23-64 10-67c-12-4-20 73-20 73s-65 20-89 14c0 0 48-58 35-59-12 0-65 59-65 59s-64 2-68-36c-5-39 14-55 24-56s69 8 69 0c-1-8-39-26-62-22 0 0 34-58 66-50s39 30 59 34c19 5 35 2 26-5s-44-9-58-25-26-27 5-28c31-2 85 10 92 35l1 3-1-3c6-3 17-17 24-28l6-8 2-4c15-25 17-72 17-72l6-1c7 49-24 83-24 83a126 126 0 00-24 54s53 41 19 82c0 0-26 24-50 27" fill="#a9c4ff"/></g><path d="M1139 671s67-60 55-72c-12-11-70 72-70 72s-89-18-112-40c0 0 92-38 78-46-15-8-113 26-113 26s-76-38-56-86c19-48 52-54 63-49 12 5 75 54 80 45 4-10-29-56-58-67 0 0 76-45 108-15s26 59 47 77c20 18 40 25 34 11-7-14-46-38-52-66s-13-48 24-30 92 66 84 100l-1 4 1-4c9 1 30-9 46-17a484 484 0 0017-8c33-20 64-74 64-74l9 4c-23 61-81 81-81 81-41 19-62 47-62 47s35 82-29 107c0 0-45 11-76 0" fill="#cee3fb"/><path d="M756 1175c-1-5-11-10-13-11l-7 11 1 2c2 5 6 12 12 13 8 3 23 4 24 1 1-4-16-11-17-16" fill="#ffae73"/><path d="M791 226H689c-7 4 2 53 2 53s28 10 33-11c4-22 35-28 51-31 11-2 15-8 16-11m147 0H836c-7 4 2 53 2 53s28 10 33-11c4-22 35-28 51-31 11-2 15-8 16-11" fill="#355c8b"/><path d="M911 717l-10-125-27-323s-13-11-42-5c0 0-24 79-31 170l-1 4-17 287z" fill="#063663"/><path d="M912 737l-11-145-100-158-1 4-17 287z" fill="#042d4f"/><path d="M890 751L727 269s-27-14-38 5c0 0 2 203 31 254 17 28 28 108 26 135-4 53 12 102 12 102z" fill="#063663"/><path d="M851 1002a45 45 0 00-32-4 65 65 0 00-21 9l-8 6 1 2c3 6 13 26 8 58l8-1a1468 1468 0 0045-12l2-19v-8c2-13-3-31-3-31" fill="#ffae73"/><path d="M854 1041c-22-5-54 26-54 26l7 5 45-12 2-19" fill="#fb9250"/><path d="M883 1178s-9 13-17 14c-8 0-25-2-24-5 4-10 18-6 22-12 3-6 14-8 14-8zm-22-117s-9-3-20-4c-17-2-38-1-45 19-12 33-26 53 7 67 19 7 30 8 38 5a27 27 0 0014-12c6-10 19-69 6-75" fill="#ffae73"/><path d="M858 1157c9-13-2-31-17-28h-14c-9-3-10-17-10-22-1-4-1-8-13-6h-4c-4-2 0-13 3-18l1-4c0-3 0-8-4-12-1 0-12-5-40 37a39 39 0 00-1 36c6 14 36 30 60 33 27 3 37-15 39-16" fill="#1b4f9b"/><path d="M920 957c-80-75-66 68-66 68s31 14 40 14c10 0 17 27 48 71l-65 56s3 16 7 15l26-8c29-11 71-31 80-50 0 0 1-100-70-166" fill="#fff"/><path d="M852 1169" fill="#8a1d1c"/><path d="M912 733s-48-16-99-17c-10 0-24 2-36 4l-21 4c-10 2-22 9-20 20 4 36 2 128 4 186 0 0 0 12-7 19a22 22 0 01-4 4c-11 7-61 55-83 130l-4 15c6 28 75 71 92 78h2c5-5 7-13 8-14l-52-67c39-37 51-62 61-60 9 2 39-5 42-5h2s33-18 57-5h1c6-1 48-8 58-19 3-3 5-26 5-51 1-35-1-74-1-74 3-38 23-142-5-148" fill="#fff"/><path d="M795 1030s36-38 62-30c0 0 3 5-8 6-12 2-25 2-54 24" fill="#c1d7f2"/><path d="M777 720l-21 4c-10 2-22 9-20 20 4 36 2 128 4 186 0 0 0 12-7 19 11-9 42-39 49-71 8-34 3-123-5-158" fill="#afcbf3"/><path d="M737 1177s0 10 2 12 3-4 3-5c1-2-5-7-5-7m143 4l-3 9c-1 2-2 2-2 1v-6l5-4" fill="#ffae73"/><path d="M1064 1619a18 18 0 01-4 6l-4 4-1-1c-18 9-55 0-92-25-45-29-74-70-66-91l-1-1 5-5 1-1 4-3c18-9 55 0 93 24 46 30 75 72 65 93" fill="#ff9f00"/><path d="M958 1609c46 30 91 37 101 16 10-22-19-63-65-93s-92-37-101-16c-10 21 19 63 65 93" fill="#ffb500"/><path d="M1027 1626c-17 0-41-9-65-25a178 178 0 01-46-42c-10-14-14-26-10-34 2-4 5-6 10-8a33 33 0 019-1c16 0 41 9 64 25 19 12 36 27 46 42 10 14 14 26 11 34-2 4-5 6-10 8a33 33 0 01-9 1m-102-113l-10 1a18 18 0 00-12 9c-4 9 0 23 11 38s27 30 46 43c30 19 60 29 77 24 6-2 10-5 12-10 4-9 0-22-11-37a181 181 0 00-47-43c-24-16-49-25-66-25" fill="#ff9f00"/><path d="M957 1559a18 18 0 017 5l3 3 2 5 5 8a50 50 0 0012 13 45 45 0 0016 8l6-1 4-2a9 9 0 001-5l11 4v-5l-11-5-3-7a36 36 0 00-6-6 49 49 0 00-16-11l1 10a31 31 0 019 6l4 6-1 3-2 1h-2a23 23 0 01-7-3 24 24 0 01-6-6l-3-5-4-8a51 51 0 00-12-13 45 45 0 00-17-8 13 13 0 00-6 1 7 7 0 00-3 2 10 10 0 00-2 5l-10-4 1 6 10 4a34 34 0 007 14 58 58 0 0018 12l-1-10-6-3-4-4a11 11 0 01-3-7v-2l2-2h3l3 1m56-142a13 13 0 004 5l2 2h1c13 6 40-1 67-18 33-22 54-51 48-67l1-1-4-3-1-1-3-2c-13-7-40 0-67 18-34 22-55 52-48 67" fill="#ff9f00"/><path d="M1091 1410c-34 21-67 27-74 11-7-15 14-46 48-67 33-22 66-27 73-12 7 16-14 46-47 68" fill="#ffb500"/><path d="M1034 1421c-4-1-6-3-7-5-3-6 0-15 8-25a129 129 0 0133-31c17-11 35-18 47-18l6 1c4 1 6 3 7 6 3 5 0 14-7 25a129 129 0 01-34 30 97 97 0 01-46 18 24 24 0 01-7-1m32-63c-14 9-26 20-34 31s-10 21-7 28c1 3 4 5 8 6 13 4 34-3 56-17 14-9 26-20 34-31s11-21 8-27a13 13 0 00-9-7l-7-1c-13 0-31 6-49 18" fill="#ff9f00"/><path d="M1094 1373a4 4 0 011 0l2 1v2l-1 2-1 3-3 2-5 3v7a42 42 0 0013-9 24 24 0 005-10l7-3 1-4-8 3-1-4-2-2a9 9 0 00-5 0 33 33 0 00-20 15 99 99 0 00-6 9l-2 3a12 12 0 01-4 3l-3 1h-2l-1-1v-2l2-4 7-4 1-8a45 45 0 00-12 8 26 26 0 00-4 5l-2 5-8 3-1 4 8-3 1 3 3 2 4 1a33 33 0 0017-10l4-5 3-6a33 33 0 014-6 13 13 0 012-2 18 18 0 016-2" fill="#ff9f00"/><path d="M2049 388l-803-138-172 994 802 139z" fill="#f7fcff"/><path d="M1883 798l-88-16 50-232 68 12zm56-313c-1 6-3 12-6 16a40 40 0 01-28 19 55 55 0 01-20 0l-18-7a41 41 0 01-20-26 44 44 0 010-18 41 41 0 0134-34 54 54 0 0119 0c7 1 13 3 19 6a41 41 0 0120 44" fill="#ff7a35"/><path d="M1706 1086l-155-27a6 6 0 10-2 13l155 27a6 6 0 102-13m140 24l-96-16a6 6 0 00-2 12l96 17a6 6 0 102-13m-356-61l-295-51a6 6 0 10-2 12l295 51a6 6 0 002-12m-49-53l-239-41a6 6 0 10-2 12l239 42a6 6 0 002-13m278 49l-239-42a6 6 0 00-2 13l239 41a6 6 0 102-13m6-85l-155-27a6 6 0 10-2 13l155 26a6 6 0 102-12m140 24l-96-16a6 6 0 10-2 12l96 17a6 6 0 102-13m-356-61l-295-51a6 6 0 10-2 12l295 51a6 6 0 102-12m-49-53l-239-41a6 6 0 00-2 12l239 42a6 6 0 102-13m412 72l-373-65a6 6 0 10-2 12l373 65a6 6 0 002-12m-131-72l-156-27a6 6 0 10-2 12l155 27a6 6 0 003-13m139 25l-95-17a6 6 0 10-2 13l95 16a6 6 0 002-12m-355-62l-295-51a6 6 0 10-3 12l295 51a6 6 0 003-12m-50-52l-238-41a6 6 0 10-2 12l238 41a6 6 0 002-12m278 48l-238-41a6 6 0 00-2 12l238 41a6 6 0 102-12" fill="#a9c4ff"/><path d="M1074 1244l431 74-54-237-306-67z" fill="#f7fcff"/></g><text transform="rotate(-10 8005 -8253) scale(1.33333)" style="-inkscape-font-specification:Helvetica-Bold" font-weight="700" font-size="143.1" font-family="Helvetica" fill="#063663"><tspan x="0 103.31498 190.74635 278.32083 381.6358 469.2103 556.64166 644.21613" y="0">Промокод</tspan></text><g clip-path="url(#c)" transform="matrix(1.33333 0 0 -1.33333 0 2667)"><path d="M1486 1102l-307-53-1 4 308 54z" fill="#00974b"/><path d="M1761 250v-17l-1-4a8 8 0 00-5-3h-320c-4 0-8 3-8 6v18c0 4 4 6 8 6h318a9 9 0 003 0 8 8 0 004-3l1-4" fill="#ffb500"/><path d="M1605 226h-171a7 7 0 00-7 6v18a7 7 0 000 1 7 7 0 007 5h150c2-9 8-21 21-30m117 0h-3v30h3zm-12 0h-3v30h3zm-15 0h-3v30h3zm-22 0h-4v30h4zm-24 0h-4v30h4zm-37 0h-3v30h3z" fill="#ff9f00"/><path d="M1578 226h-3v30h3zm-30 0h-4v30h4zm186 0h-4v30h4zm8 0h-4v30h4zm7 0h-3v30h3zm6 30v-30a9 9 0 00-2 0h-2v30h4m5-3v-24l-4-2v28a8 8 0 004-2" fill="#ff9f00"/><path d="M1727 279v-16a6 6 0 00-2-5 8 8 0 00-4-2h-321c-3 0-6 2-7 6v18c0 3 4 6 7 6h321a8 8 0 002-1h1l1-1v-1h1l1-4" fill="#ffb500"/><path d="M1571 256h-171a7 7 0 00-7 6v18a7 7 0 000 1 7 7 0 007 5h150v-1a52 52 0 0121-29m117 0h-3v30h3zm-12 0h-4v30h4zm-15 0h-3v30h3zm-22 0h-4v30h4zm-24 0h-4v30h4zm-37 0h-3v30h3z" fill="#ff9f00"/><path d="M1544 256h-4v30h4zm-30 0h-4v30h4zm186 0h-4v30h4zm8 0h-4v30h4zm7 0h-3v30h3zm6 30v-30a9 9 0 00-2 0h-2v30h4m5-3v-24l-4-3v29a8 8 0 004-2" fill="#ff9f00"/><path d="M1744 308v-16l-2-4-3-3a9 9 0 00-3 0h-319l-4 1a7 7 0 00-4 5v18c1 3 4 6 8 6h319a9 9 0 003-1 8 8 0 003-2l2-4" fill="#ffb500"/><path d="M1587 285h-171l-3 1a7 7 0 00-4 5v18a4 4 0 000 1 7 7 0 007 5h150a52 52 0 0121-30m118 0h-4v30h4zm-12 0h-4v30h3zm-15 0h-4v30h4zm-23 0h-3v30h3zm-24 0h-3v30h3zm-36 0h-4v30h4z" fill="#ff9f00"/><path d="M1561 285h-4v30h4zm-31 0h-4v30h4zm186 0h-3v30h3zm8 0h-4v30h4zm8 0h-4v30h4zm5 30v-30a9 9 0 00-1 0h-3v30h4m5-3v-24l-3-3v29a8 8 0 003-2" fill="#ff9f00"/><path d="M1751 338v-17l-1-3-1-1a7 7 0 00-3-2 8 8 0 00-3 0h-318c-4 0-7 2-8 5v18c0 4 3 6 7 7h319a8 8 0 002 0l1-1a8 8 0 004-2l1-4" fill="#ffb500"/><path d="M1595 315h-171a7 7 0 00-7 5v18a7 7 0 007 7h150c2-9 8-21 21-30m117 0h-3v30h3zm-12 0h-4v30h4zm-15 0h-3v30h3zm-22 0h-4v30h4zm-24 0h-4v30h4zm-37 0h-3v30h3z" fill="#ff9f00"/><path d="M1568 315h-3v30h3zm-30 0h-4v30h4zm186 0h-4v30h4zm8 0h-4v30h4zm7 0h-3v30h3zm6 29v-29a9 9 0 00-2 0h-2v30h2l2-1m5-2v-24l-4-3v29a8 8 0 004-2" fill="#ff9f00"/><path d="M1728 368v-17l-2-4a8 8 0 00-5-2h-1v-1h-319c-4 0-7 3-8 7v17c1 3 3 5 6 6h322a8 8 0 005-3l2-3" fill="#ffb500"/><path d="M1571 345h-171a7 7 0 00-7 6v17a7 7 0 006 6h151c3-9 8-21 21-29m118 0h-4v29h4zm-12 0h-4v29h4zm-15 0h-4v29h4zm-23 0h-3v29h3zm-23 0h-4v29h4zm-37 0h-4v29h4z" fill="#ff9f00"/><path d="M1545 345h-4v29h4zm-31 0h-3v29h3zm187 0h-4v29h4zm7 0h-3v29h3zm8 0h-4v29h4zm5 29v-29a9 9 0 00-1-1h-2v30h3m5-3v-24l-3-2v29a8 8 0 003-3" fill="#ff9f00"/><path d="M1727 397v-16l-1-4-1-1a8 8 0 00-4-2h-322c-3 1-6 3-6 6v18c0 3 4 6 7 6h321a8 8 0 002-1 8 8 0 003-2l1-4" fill="#ffb500"/><path d="M1571 374h-172a7 7 0 00-6 6v18a7 7 0 000 1 7 7 0 007 5h150v-1a52 52 0 0120-29h1m117 0h-3v30h3zm-12 0h-4v30h4zm-15 0h-3v30h3zm-22 0h-4v30h4zm-24 0h-4v30h4zm-37 0h-3v30h3z" fill="#ff9f00"/><path d="M1544 374h-4v30h4zm-30 0h-4v30h4zm186 0h-4v30h4zm8 0h-4v30h4zm7 0h-3v30h3zm6 30v-30a9 9 0 00-2 0h-2v30h4m5-3v-24l-4-2v28a8 8 0 004-2" fill="#ff9f00"/><path d="M1744 426v-16l-2-4a8 8 0 00-5-3h-320l-4 1a7 7 0 00-4 4v19c1 4 4 6 8 6h319a9 9 0 003-1 8 8 0 003-2l2-4" fill="#ffb500"/><path d="M1587 403h-171l-3 1a7 7 0 00-4 5v18a5 5 0 000 1 7 7 0 007 5h150a52 52 0 0120-29l1-1m118 0h-4v30h4zm-12 0h-4v30h3zm-15 0h-4v30h4zm-23 0h-3v30h3zm-24 0h-3v30h3zm-36 0h-4v30h4z" fill="#ff9f00"/><path d="M1561 403h-4v30h4zm-31 0h-4v30h4zm186 0h-3v30h3zm8 0h-4v30h4zm8 0h-4v30h4zm5 30v-30a9 9 0 00-1 0h-3v30h4m5-3v-24l-3-2v29a8 8 0 003-3" fill="#ff9f00"/><path d="M1770 456v-17l-2-3a7 7 0 00-2-2h-1a7 7 0 00-2-1h-320c-4 0-7 2-8 5v19c1 3 3 5 7 6h320a10 10 0 003-1 8 8 0 003-2l2-4" fill="#ffb500"/><path d="M1613 433h-171a7 7 0 00-7 6v18a7 7 0 007 6h150c2-9 8-21 21-30m118 0h-4v30h4zm-12 0h-4v30h4zm-15 0h-4v30h4zm-23 0h-3v30h3zm-24 0h-3v30h3zm-36 0h-4v30h4z" fill="#ff9f00"/><path d="M1587 433h-4v30h4zm-31 0h-3v30h3zm187 0h-4v30h3zm7 0h-3v30h3zm8 0h-4v30h4zm5 30v-30a9 9 0 00-1 0h-2v30h3m5-3v-24l-3-3v29a8 8 0 003-2" fill="#ff9f00"/><path d="M1728 486v-17l-2-4a8 8 0 00-5-2h-320a8 8 0 00-6 3l-2 3v17c1 3 3 5 6 6h322a8 8 0 002 0 8 8 0 003-2v-1l2-3" fill="#ffb500"/><path d="M1571 463h-171a7 7 0 00-5 3l-2 3v17c1 3 3 6 6 6h151a52 52 0 0121-29m118 0h-4v29h4zm-12 0h-4v29h4zm-15 0h-4v29h4zm-23 0h-3v29h3zm-23 0h-4v29h4zm-37 0h-4v29h4z" fill="#ff9f00"/><path d="M1545 463h-4v29h4zm-31 0h-3v29h3zm187 0h-4v29h4zm7 0h-3v29h3zm8 0h-4v29h4zm5 29v-29a9 9 0 00-1 0h-2v29h3m5-2v-24c0-2-2-2-3-3v29a8 8 0 003-2" fill="#ff9f00"/><path d="M1751 515v-17l-1-4a8 8 0 00-5-2 9 9 0 00-2 0h-322c-2 1-4 3-4 5v18c0 3 3 6 7 6h319a9 9 0 003 0 8 8 0 004-3l1-3" fill="#ffb500"/><path d="M1595 492h-171a7 7 0 00-7 6v17a7 7 0 007 6h150a52 52 0 0121-29m117 0h-3v29h3zm-12 0h-4v29h4zm-15 0h-3v29h3zm-22 0h-4v29h4zm-24 0h-4v29h4zm-37 0h-3v29h3z" fill="#ff9f00"/><path d="M1568 492h-3v29h3zm-30 0h-4v29h4zm186 0h-4v29h4zm8 0h-4v29h4zm7 0h-3v29h3zm6 29v-29a9 9 0 00-2 0h-2v29h4m5-2v-24l-4-3v29a8 8 0 004-2" fill="#ff9f00"/><path d="M1761 545v-17l-1-4a8 8 0 00-5-2h-1v-1a8 8 0 00-1 0h-318c-5 0-8 3-8 6v18c0 3 3 6 8 6h318a9 9 0 003 0 8 8 0 004-3l1-3" fill="#ffb500"/><path d="M1605 521h-171a7 7 0 00-7 7v17a7 7 0 007 6h150c2-9 8-21 20-30m118 0h-3v30h3zm-12 0h-3v30h3zm-15 0h-3v30h3zm-22 0h-4v30h4zm-24 0h-4v30h4zm-37 0h-3v30h3z" fill="#ff9f00"/><path d="M1578 521h-3v30h3zm-30 0h-4v30h4zm186 0h-4v30h4zm8 0h-4v30h4zm7 0h-3v30h3zm6 30v-29a9 9 0 00-2-1h-2v30h4m5-3v-24l-4-2v29a8 8 0 004-3" fill="#ff9f00"/><path d="M1660 721s-17-24-32-24c-15-1-39 11-39 11s-14 31-4 43c0 1 9 5 19-3a30 30 0 005-5c3-3 6-4 9-5 11-4 24 4 29-3a51 51 0 0113-14m-218-170s59 143 166 146c0 0 98-11 103-146z" fill="#ffecda"/><path d="M1578 693s43-10 56-4c0 0 2 18-16 15-12-2-20 4-25 6-6 4-16-10-15-17" fill="#ec6100"/><path d="M1616 719c-3-2-12 29-12 29a30 30 0 005-5c3-3 6-4 9-5 0-1 0-17-2-19m39 6c-1-1-20-12-23-12s14 22 14 22c3-5 6-8 9-10" fill="#ecbf9c"/><path d="M1500 591c-2 1 41 63 53 63 12 1 39-13 58-15s38 4 42-8c3-11 13-51 7-58-6-6-137-2-160 18" fill="#ffdcbb"/><g clip-path="url(#d)" opacity=".5"><path d="M1540 374c0-10-2-20-5-29l-1-5a146 146 0 00-31-55 154 154 0 00-50-37l-6-3a83 83 0 00-20-9v14a7 7 0 000 1 7 7 0 007 5h-34a7 7 0 00-7 6v17a4 4 0 000 1v1a7 7 0 007 5h13a7 7 0 00-4 5v18a4 4 0 000 1 7 7 0 007 5h8a7 7 0 00-7 5v18a7 7 0 006 7h-23a7 7 0 00-7 6v17a7 7 0 006 6 7 7 0 00-6 6v18a7 7 0 000 1 7 7 0 007 5h13a7 7 0 00-4 5v18a5 5 0 000 1 7 7 0 007 5h26a7 7 0 00-7 6v18a7 7 0 006 6h-41a7 7 0 00-5 3l4 26 6 38 21-4 1-1a160 160 0 0063-33 149 149 0 0049-88v-1a142 142 0 001-29" fill="#f17b00"/></g><path d="M1211 314a157 157 0 10274 151 157 157 0 00-274-151" fill="#f17b00"/><path d="M1418 249a156 156 0 00-13-7 157 157 0 1013 7" fill="#ffb500"/><path d="M1337 518c-23 0-45-5-66-17a136 136 0 01-65-82 136 136 0 0193-169 137 137 0 1138 268m0-277a141 141 0 00-123 73 140 140 0 00-12 107 141 141 0 00258 28 141 141 0 00-123-208" fill="#ff9f00"/><path d="M1406 368l-1 2a41 41 0 01-9 14c-5 4-10 7-15 8-6 2-12 4-19 4a283 283 0 01-36 1l-10 2a16 16 0 00-6 4 24 24 0 00-5 14 16 16 0 005 13l8 5a20 20 0 0017 0c6-3 10-8 13-16l32 13a60 60 0 01-10 17 46 46 0 01-32 15c-6 1-12 0-19-2l-9 23-18-8 9-22a66 66 0 01-16-11 50 50 0 01-10-14 40 40 0 01-1-34 43 43 0 0111-16c4-4 9-6 15-8l19-4a218 218 0 0135 0l9-2 7-4a24 24 0 006-15l-2-7a20 20 0 00-5-7 37 37 0 00-18-7 21 21 0 00-18 7 34 34 0 00-7 11l-32-13a55 55 0 0112-20c5-4 11-8 17-10s12-3 19-3l19 4 8-21 18 7-8 21a71 71 0 0116 11 48 48 0 0111 14 39 39 0 010 34" fill="#ff9f00"/><path d="M2721 220H325a3 3 0 00-3 2v1c0 2 2 3 3 3h2396c1 0 2-1 2-3v-1l-2-2" fill="#2c3554"/><path d="M1979 820s-8-1-13 3c-6 3-12 5-10 7 2 1 3 1 6-1 3-1 13-1 16 2s1-11 1-11" fill="#ffae73"/></g></svg>