<svg xmlns="http://www.w3.org/2000/svg" version="1.1" id="_x2018_лой_x5F_1" x="0" y="0" viewBox="0 0 3200 1398.2" xml:space="preserve"><defs/><style>.st2{fill:#c3dafc}.st3{fill:#d4e4f8}.st4{fill:#9dc3f3}.st5{fill:#e3f0ff}.st6{fill:#fff}.st8{fill:#2a4e96}.st9{fill:#618dc1}.st10{fill:#2b478b}.st11{fill:#dd732c}.st12{fill:#ffb27d}.st13{fill:#b6c0d8}.st14{fill:#dde7fe}.st15{fill:#209453}.st16{fill:#909caf}.st17{fill:#207253}.st18{fill:#abb6c9}.st19{fill:#2e3552}.st20{fill:#717377}.st23{fill:#b7d3f3}.st24{fill:#f99746}.st25{fill:#c15e1b}.st27{fill:#ed975d}.st28{fill:#2c3a64}.st29{fill:#f8fcff}.st32{fill:#233862}.st33{fill:#192e4f}.st35{fill:#d2e0ff}.st37{fill:#aec3ff}.st38{fill:#699dee}.st39{fill:#e9f3fe}.st40{fill:#146033}.st41{fill:#f1a34f}.st44{fill:#f9ddbf}.st45{fill:#163560}.st49{fill:#7f9ef4}.st50{fill:#5d86e2}.st53{fill:#143660}.st54{fill:#ffb07d}.st55{fill:#184d8d}</style><path d="M2990 1298l-1 4a662 662 0 01-31 75v1l-2672 3c1-11-244-356 12-692s556-155 617-392a361 361 0 01122-190C1179-4 1403 0 1562 67c212 87 601-65 932 46l17 6 34 14a358 358 0 0173 41c230 174 25 537 144 593a459 459 0 01237 259c24 75 27 165-9 272z" fill="#ebf3fa"/><g opacity=".4"><path transform="rotate(-180 1555 352)" class="st2" d="M1451 267h207v170h-207z"/><path transform="rotate(-180 1658 352)" class="st3" d="M1555 267h206v170h-206z"/><path class="st4" d="M1451 394h33l-3-9 3-7h-33z"/><path class="st5" d="M1555 320h32l-3-9 3-7h-32z"/><path class="st4" d="M1555 304h-33l3 9-3 7h33z"/><path class="st5" d="M1761 396h-33l3 9-3 7h33z"/><path class="st6" d="M1688 279h60v23h-60z"/><g><path transform="rotate(-180 1190 352)" class="st2" d="M1086 267h207v170h-207z"/><path transform="rotate(-180 1293 352)" class="st3" d="M1190 267h206v170h-206z"/><path class="st4" d="M1086 394h33l-3-9 3-7h-33z"/><path class="st5" d="M1190 320h32l-3-9 3-7h-32z"/><path class="st4" d="M1190 304h-33l3 9-3 7h33z"/><path class="st5" d="M1396 396h-33l3 9-3 7h33z"/><path class="st6" d="M1323 279h60v23h-60z"/></g><g><path class="st2" d="M953 437h79v948h-79zM1824 437h66v948h-66z"/><path class="st2" d="M1032 437h858v25h-858zM1032 887h858v24h-858zM1032 1264h858v24h-858z"/><path transform="rotate(-180 1572 799)" fill="#a9c8ed" d="M1466 711h213v176h-213z"/><path transform="rotate(-180 1679 799)" class="st3" d="M1572 711h214v176h-214z"/><path class="st4" d="M1466 842h33l-3-9 3-7h-33z"/><path class="st5" d="M1572 765h34l-3-9 3-7h-34z"/><path class="st4" d="M1572 749h-34l3 9-3 7h34z"/><path class="st5" d="M1786 844h-34l3 9-3 7h34z"/><path class="st6" d="M1711 723h61v23h-61z"/><g><path transform="rotate(-180 1298 799)" class="st2" d="M1191 711h214v176h-214z"/><path transform="rotate(-180 1405 799)" class="st3" d="M1298 711h214v176h-214z"/><path class="st4" d="M1191 842h34l-3-9 3-7h-34z"/><path class="st5" d="M1298 765h34l-3-9 3-7h-34z"/><path class="st4" d="M1298 749h-34l3 9-3 7h34z"/><path class="st5" d="M1512 844h-34l3 9-3 7h34zM1512 746h-34l3 10-3 7h34z"/><path class="st6" d="M1320 829h100v39h-100z"/></g><g><path transform="rotate(-180 1558 1187)" class="st2" d="M1466 1111h184v152h-184z"/><path transform="rotate(-180 1650 1187)" class="st3" d="M1558 1111h185v152h-185z"/><path class="st4" d="M1466 1224h29l-3-8 3-6h-29z"/><path class="st5" d="M1558 1158h29l-2-8 2-6h-29z"/><path class="st4" d="M1558 1144h-29l2 8-2 6h29z"/><path class="st5" d="M1742 1226h-29l3 8-3 6h29z"/><path class="st6" d="M1677 1121h53v21h-53z"/></g><g><path transform="rotate(-180 1222 1175)" class="st2" d="M1115 1087h213v176h-213z"/><path transform="rotate(-180 1328 1175)" class="st3" d="M1222 1087h213v176h-213z"/><path class="st8" d="M1115 1218h34l-3-9 3-7h-34z"/><path class="st9" d="M1222 1141h33l-2-9 2-7h-33z"/><path class="st8" d="M1222 1125h-34l3 10-3 6h34z"/><path class="st9" d="M1435 1220h-34l3 10-3 7h34z"/><path class="st6" d="M1360 1099h61v24h-61z"/></g><g><path transform="rotate(-180 1257 642)" class="st2" d="M1175 575h163v135h-163z"/><path transform="rotate(-180 1338 642)" class="st3" d="M1257 575h163v135h-163z"/><path class="st4" d="M1175 676h26l-2-8 2-5h-26z"/><path class="st5" d="M1257 617h25l-2-8 2-5h-25z"/><path class="st4" d="M1257 604h-26l2 8-2 5h26z"/><path class="st5" d="M1420 677h-26l2 7-2 6h26z"/><path class="st6" d="M1362 584h47v19h-47z"/></g><g><path transform="rotate(-180 1548 642)" class="st2" d="M1467 575h163v135h-163z"/><path transform="rotate(-180 1630 642)" class="st3" d="M1548 575h164v135h-164z"/><path class="st4" d="M1467 676h26l-3-8 3-5h-26z"/><path class="st5" d="M1548 617h26l-2-8 2-5h-26z"/><path class="st4" d="M1548 604h-25l2 8-2 5h25z"/><path class="st5" d="M1712 677h-26l2 7-2 6h26z"/><path class="st6" d="M1654 584h47v19h-47z"/></g></g></g><path class="st10" d="M2775 1122l-4-1c10-37-9-75-44-85l-87-26c-18-5-28-25-23-43 18-62-14-125-72-142l1-5c60 18 94 84 75 148-4 16 4 34 20 38l88 26c36 11 57 51 46 90z"/><path class="st10" d="M2766 1152l-4-1c11-37-9-75-44-85l-87-26c-18-5-28-25-22-43 18-62-15-125-73-142l1-5c60 18 94 84 76 148-5 16 4 34 19 38l88 26c37 11 57 51 46 90z"/><path class="st11" d="M2312 822h-29l2-8-2-6h29z"/><path class="st12" d="M2220 756h-29l2-8-2-6h29z"/><path class="st11" d="M2220 742h29l-2 8 2 6h-29z"/><path class="st12" d="M2036 824h29l-2 8 2 6h-29z"/><path transform="rotate(-180 2075 730)" class="st6" d="M2048 719h53v21h-53z"/><path class="st10" d="M2319 297c-27 0-54-5-70-13-24-15-55-9-55-9l-1-3c1-1 32-7 58 8 25 15 88 16 117 6 28-9 65-19 81-19v3c-15 0-52 11-80 20-12 4-31 7-50 7zM2155 569h12v79h-12zM2179 569h12v79h-12z"/><path class="st10" d="M2319 288c-27 0-54-4-70-13-24-14-55-8-55-8l-1-4c1 0 32-6 58 9 25 14 88 16 117 6 28-10 65-20 81-20v4c-15 0-52 10-80 20-12 4-31 6-50 6zM2573 748h-5v-4h5c23 0 42-19 42-42V267c0-24-19-42-42-42h-37v-4h37c25 0 46 20 46 46v435c0 26-21 46-46 46z"/><path class="st10" d="M2568 711v-4c16 0 29-13 29-29V273c0-15-13-28-28-28h-30v-4h30c17 0 32 15 32 32v405c0 18-15 33-33 33z"/><path class="st13" d="M2223 587h-104c-15 0-27-12-27-27V327c0-15 12-27 27-27h104c15 0 27 12 27 27v233c0 15-12 27-27 27z"/><circle class="st14" cx="2135.6" cy="340.9" r="13.7"/><path class="st14" d="M2122 537a14 14 0 1127 0 14 14 0 01-27 0zM2193 341a14 14 0 1128 0 14 14 0 01-28 0zM2193 537a14 14 0 1128 0 14 14 0 01-28 0z"/><path class="st15" d="M2230 661l-2 9h-108l-2-9c0-17 25-32 56-32s56 15 56 32z"/><path class="st10" d="M2323 698v147c0 12-5 23-15 30l-45 30c-3 3-7 2-10-1-2-4-1-8 2-10l45-31c6-4 9-11 9-18V698c0-15-13-28-28-28h-213c-16 0-29 13-29 28v146c0 8 4 15 10 19l50 31c3 2 4 6 2 10-2 3-6 4-9 2l-50-31c-11-7-17-18-17-31V698c0-23 19-42 43-42h213c23 0 42 19 42 42zM2167 212h293v9h-293zM2167 237h293v9h-293z"/><path class="st15" d="M2209 300h-87v-61a45 45 0 0190 0v58c0 2-1 3-3 3z"/><path class="st13" d="M2520 194h-45c-21 0-38 17-38 38v795c0 21 17 38 38 38h45c21 0 38-17 38-38V232c0-21-17-38-38-38z"/><circle class="st10" cx="2497.4" cy="236" r="7"/><path class="st16" d="M2549 898h-108c-10 0-18-9-18-19V335c0-10 8-19 18-19h108c10 0 19 9 19 19v544c0 10-9 19-19 19zM2576 1109h-135c-10 0-18-8-18-18v-62c0-10 8-18 18-18h117c10 0 18 8 18 18v80z"/><g><circle transform="rotate(-89 2167 237)" class="st15" cx="2167" cy="236.7" r="26.7"/><path class="st10" d="M2167 264a28 28 0 110-55 28 28 0 010 55zm0-53a26 26 0 100 52 26 26 0 000-52z"/><circle transform="rotate(-77 2167 237)" class="st17" cx="2167" cy="236.7" r="16.3"/></g><g><path transform="rotate(156 2833 1038)" class="st2" d="M2776 991h115v94h-115z"/><path transform="rotate(156 2885 1014)" class="st3" d="M2828 967h115v94h-115z"/><path class="st9" d="M2826 1021l16-7-3-4v-4l-17 7z"/><path class="st8" d="M2822 1013l-17 8 4 4v4l17-8z"/><path class="st9" d="M2948 1013l-17 7 4 4v4l16-8z"/><path transform="rotate(-24 2902 969)" class="st6" d="M2885 963h33v12h-33z"/><path class="st10" d="M2990 1298l-1 4a662 662 0 01-31 75h-140l-8-75v-4l-1-3-20-186v-1l11-5 52-23 52-24 53-23 39-18a358 358 0 013 11c24 75 27 165-9 272z"/><path class="st13" d="M2990 1298l-1 4h-165v-4l-1-3-18-182 9-4 185-83c24 75 27 165-9 272z"/><path class="st13" d="M2824 1302H1411c-53 0-97-43-97-96 0-54 44-97 97-97h1413c53 0 96 43 96 97 0 53-43 96-96 96z"/><path class="st13" d="M2920 1206a96 96 0 01-96 96h-240c-5 0-9-4-9-9v-175c0-5 4-9 9-9h240c53 0 96 43 96 97z"/><path class="st18" d="M2990 1298l-1 4a662 662 0 01-31 75h-153l-1404 1v-80h1589z"/><path class="st19" d="M1825 1195l-11-5-2-2a45 45 0 00-1-11l1-3 10-7v-4l-6-10h-3l-10 5-3-1-12-9c-1 0-2-2-1-3l1-6c1-2 0-3-1-4l-11-3-1-1-2 2-4 8-1 2a44 44 0 00-15 2l-3-1-6-8-3-1-8 5-2 1-1 4 4 9v3l-6 7-1 1-2 1-12-3-3 2-3 11c-1 1 0 2 1 3l11 5 2 3a47 47 0 001 11l-1 2-10 8-1 3 6 10h4l8-4 3 1 11 10 1 2-2 10c-1 2 0 3 1 4l11 3c1 1 3 0 3-1l5-10 2-1a47 47 0 0013-1l3 1 6 8 3 1 10-6v-1l1-3-4-7a3 3 0 011-3c5-4 9-9 11-14a3 3 0 013-1l9 2c2 0 3-1 3-2h1l3-11c1-1 0-2-1-3zm-35 4a25 25 0 01-9 10l-9 4c-17 4-33-10-30-29l2-5c1-4 5-8 8-10l1-1c21-12 45 7 37 31z"/><path class="st20" d="M1898 1242l-7-4-1-1a33 33 0 00-2-8l1-2 7-6 1-2-5-7-2-1-7 4h-3l-8-7-1-2 1-5-1-2-8-3-2 1-3 6v1a35 35 0 00-11 2l-2-1-4-6h-3l-5 3-2 1-1 3 3 6v2l-4 6h-1l-2 1-8-2-2 1-3 8 1 2 9 4 1 2a33 33 0 000 8l-1 2-6 5-1 2 4 7 3 1 6-3h2l8 7 1 2-2 7 1 3 8 3 2-1v-1l3-7 2-1a33 33 0 009 0h2l5 6 2 1 7-5h1v-2l-3-5a2 2 0 011-2l8-10c0-1 1-2 2-1l7 1 2-1 3-8-2-2zm-25 2a18 18 0 01-6 8l-7 3c-12 3-23-8-21-21l1-4 6-7 1-1c15-9 32 6 26 22z"/><g><path class="st20" d="M2242 1195l-11-5-1-2a45 45 0 00-2-11l1-3 10-7 1-4-7-10h-3l-10 5-3-1-12-9-1-3 1-6c1-2 0-3-1-4l-11-3-1-1-2 2-4 8-1 2a44 44 0 00-15 2l-3-1-6-8-3-1-8 5-2 1-1 4 5 9-1 3-6 7v1h-1l-2 1-11-3h-1l-3 2-3 11c-1 1 0 2 1 3l11 5 2 3a46 46 0 001 11l-1 2-10 8-1 3 6 10h4l8-4 3 1 11 10 1 2-2 10c-1 2 0 3 1 4l11 3c1 1 3 0 3-1l5-10 2-1h1a47 47 0 0012-1l3 1 6 8 3 1 10-6 1-1v-3l-4-7a3 3 0 011-3c5-4 9-9 11-14a3 3 0 013-1l9 2c2 0 3-1 3-2h1l3-11c1-1 0-2-1-3zm-35 4a25 25 0 01-9 10l-9 4c-17 4-33-10-30-29l2-5a24 24 0 019-11c21-12 45 7 37 31z"/></g><g><path class="st19" d="M2316 1242l-8-4-1-1a38 38 0 00-1-8v-2l7-6 1-2-5-7-2-1-7 4h-3l-8-7-1-2 1-5c1-1 0-2-1-2l-8-3-2 1-3 6v1a35 35 0 00-11 2l-2-1-4-6h-3l-5 3-2 1-1 3 4 6-1 2-4 6h-1l-2 1-8-2-2 1-3 8 1 2 9 4 1 2a34 34 0 000 8l-1 2-6 5-1 2 5 7 2 1 6-3h2l8 7 1 2-2 7 1 3 8 3 2-1v-1l3-7 2-1a33 33 0 009 0h2l5 6 2 1 7-5h1v-2l-3-5v-2h1l8-10c0-1 1-2 2-1l7 1 2-1 3-8-1-2zm-26 2a18 18 0 01-6 8l-6 3c-13 3-24-8-22-21l1-4 6-7 1-1c15-9 32 6 26 22z"/></g><g><path class="st19" d="M2008 1185l-12-2-2-2a47 47 0 00-4-10v-3l8-10c1-1 0-2-1-3l-8-8h-3l-9 8h-3c-4-3-9-5-14-6l-2-2v-7c0-2-1-3-2-3l-11-1h-1l-2 2-2 9v2a46 46 0 00-14 6h-3l-8-6h-4l-6 6-1 2v4l6 7v3l-4 9v1l-2 2h-12l-2 2-1 12c-1 1 0 2 2 2l12 3 2 2a46 46 0 004 10l-1 3-7 9v4l9 7 3 1 7-6 3-1 13 7 2 2v10c0 2 1 3 3 3l11 1 3-2v-1l2-10 2-2a45 45 0 0012-4h2l8 7 4-1 8-8v-1-2l-5-6a3 3 0 010-4c3-5 6-10 7-16l2-2h10c1 0 2-1 2-3l1-11-2-3zm-33 12a25 25 0 01-6 13l-7 6c-16 8-35-2-37-20v-6c1-4 3-9 6-12l1-1c17-17 45-4 43 20z"/></g><path class="st18" d="M2990 1298l-1 4a662 662 0 01-31 75h-153v-79h185z"/><g><path class="st10" d="M2824 1306H1411a101 101 0 010-201h1413a101 101 0 010 201zm-1413-193a92 92 0 00-92 93c0 50 41 92 92 92h1413a92 92 0 0092-92c0-51-41-93-92-93H1411z"/></g></g><g><path d="M630 710h-94c-4 0-8-3-8-8v-90c0-4 4-8 8-8h94c4 0 7 4 7 8v90c0 5-3 8-7 8z" fill="#c0d8fb"/><path d="M626 706h-86c-4 0-7-4-7-8v-82c0-4 3-7 7-7h86c3 0 7 3 7 7v83c0 3-4 7-7 7z" fill="#dfebfd"/><circle class="st23" cx="582.8" cy="618.5" r="2.3"/><path class="st23" d="M599 622a2 2 0 114 2 2 2 0 01-4-2zM614 634a2 2 0 113 4 2 2 0 01-3-4zM622 653a2 2 0 110 5 2 2 0 010-5zM618 676v3h-3v-3h3zM604 690v3h-3v-3h3zM580 697a2 2 0 115 0 2 2 0 01-5 0z"/><g><path class="st23" d="M567 622a2 2 0 10-4 2 2 2 0 004-2zM551 634a2 2 0 10-2 4 2 2 0 002-4z"/><circle class="st23" cx="543.3" cy="655.6" r="2.3"/><path class="st23" d="M547 676v3h3v-3h-3zM561 690v3h4v-3h-4z"/></g><g><circle class="st23" cx="584.4" cy="655.6" r="2.3"/><path class="st23" d="M584 627h1v29h-1z"/><path transform="rotate(-38 592 650)" class="st23" d="M582 649h19v2h-19z"/></g></g><path class="st24" d="M1662 813l-1-2c-4-7-15-6-25-6h-66v155h270V820h-152c-12 0-22 1-26-7z"/><g><path class="st25" d="M1541 924h23l-2-6 2-5h-23z"/><path class="st12" d="M1611 874h22l-2-7 2-4h-22z"/><path class="st25" d="M1611 863h-22l2 6-2 5h22z"/><path class="st12" d="M1751 925h-22l2 6-2 5h22z"/><path d="M1685 948l11-6c1 1 0 3-1 4 5-2 9-2 20 0l5 4c2 2 2 4-1 5l-12 6c-8 5-17 6-23 2l-7-1-1-13 9-1z" fill="#ffc299"/><path class="st12" d="M1531 824c-20 13-42-4-42-4s8-21 3-49l37 14a20 20 0 001 1l1 14v24z"/><path class="st27" d="M1531 800c-17-1-29-11-34-16-1-2 31 1 32 1l1 1 1 14z"/><path class="st12" d="M1536 783s-35 15-45-7c-9-22-20-35 2-46s30-5 35 2 17 46 8 51z"/><path class="st8" d="M1494 782c-1 1-8 5-29-23-4-4-7-14-3-24s22-21 38-27c7-3 14-3 20-1 6 1 10 8 8 15-3 10-10 17-19 17-7-1-6 12-6 15s0 6-8 5c-7-1-3 8-1 12l2 6-2 5z"/><path class="st28" d="M1439 1378h-23c-5 0-10-5-12-14-1-9-11-14-13-21s9-17 9-17l2-3 2-2 18 4a208 208 0 001 23c-1 9 2 20 11 21 9 2 5 9 5 9zM1599 1378h-61l-1-1c-4-2-3-17-3-22l1-2s21-17 24-4v2c4 12 21 17 30 19 8 1 9 5 10 8z"/><path class="st15" d="M1587 1026l-7 90c-6 66-12 147-12 163l-6 69s-10 11-30 6c0 0-18-61-24-126a4590 4590 0 01-12-207l91 5z"/><path class="st29" d="M1578 1021c-9 0-100-3-100-8a781 781 0 00-10-100v-47c2-26 9-43 21-53 0 0 11 0 21 2 11 2 15 1 23-1l14 12c8 7 15 15 17 27l14 168z"/><path d="M1483 899s10 30 41 45c32 15 13-28 13-28l-54-17z" fill="#99b1ff"/><path class="st15" d="M1564 853l-24 5-35 93c-4 13-16 21-30 21v2l2 44 110 10s0-55-2-73c-3-26-21-102-21-102z"/><path class="st29" d="M1683 955c1-7-3-8-3-8l-79-19c-6-2-58-59-58-59s-19-24-36-20c-15 4-21 15-23 26-3 13-12 17-1 24 24 16 88 58 99 62 26 8 97 4 97 4s3-4 4-10z"/><path class="st17" d="M1514 832c-6-6-25-19-25-19l2-3 2-2c3 0 22 14 28 20l29 28-10 2-26-26z"/><g><path class="st15" d="M1538 730s-14 8-20 9l-25 6-33 13s-11-25 3-44l1-1c4-5 9-9 17-13 39-17 56 28 57 30z"/><path class="st17" d="M1519 738l-7 2c-6-5-29-25-49-25v-1l1-1c26 1 49 20 55 25z"/><path class="st15" d="M1493 745s-3 6-3 11c-1 5-22 12-24 10l-6-8 33-13z"/><path class="st17" d="M1493 745s42-6 59-19c1-1 0-4-1-4l-16 1s-13 15-42 22z"/></g><path class="st17" d="M1575 1024s2 25-10 72a1137 1137 0 01-57 129c-5-66-12-204-12-204l79 3z"/><path class="st15" d="M1575 1024s-62 154-100 223-51 89-51 89-22-9-24-15c0 0 15-134 41-166 14-19 31-74 32-93l3-65 99 27z"/></g><g opacity=".5"><path class="st2" d="M2494 113l17 6h-45l-108-1h-127l-108-1h-127l-108-1h-127l-108-1h-127l-108-1h-127l-108-1h-153l7-6h19l118 1h117l118 1h117l118 1h117l118 1h117l118 1h117l118 1h145zM2610 169l8 5-1641-7 5-5h160l109 1h126l109 1h126l109 1h126l109 1h126l109 1h126l109 1h126l58 1z"/><path class="st2" d="M1025 162l-3 4-7-4-22-14 4-4 28 18z"/><path transform="rotate(-57 1098 137)" class="st2" d="M1096 86h5v102h-5z"/><path transform="rotate(-57 1216 137)" class="st2" d="M1213 86h5v102h-5z"/><path transform="rotate(-57 1333 138)" class="st2" d="M1331 87h5v102h-5z"/><path transform="rotate(-57 1451 138)" class="st2" d="M1448 87h5v102h-5z"/><path transform="rotate(-57 1568 139)" class="st2" d="M1566 88h5v102h-5z"/><path transform="rotate(-57 1686 139)" class="st2" d="M1683 88h5v102h-5z"/><path transform="rotate(-57 1803 140)" class="st2" d="M1801 89h5v102h-5z"/><path transform="rotate(-57 1921 140)" class="st2" d="M1918 89h5v103h-5z"/><path transform="rotate(-57 2038 141)" class="st2" d="M2036 90h5v102h-5z"/><path transform="rotate(-57 2156 141)" class="st2" d="M2153 90h5v103h-5z"/><path transform="rotate(-57 2273 142)" class="st2" d="M2271 91h5v102h-5z"/><path transform="rotate(-57 2391 142)" class="st2" d="M2388 91h5v103h-5z"/><path transform="rotate(-57 2508 143)" class="st2" d="M2506 92h5v102h-5z"/></g><g id="P297LW_1_"><path class="st12" d="M2402 849l-19 104c-10 58-22 119-24 119-4 2-4-7-7-14-2-6-9-54-7-84 1-8 3-98 15-109 13-11 42-16 42-16z"/><path class="st12" d="M2349 1044s3 8-1 17c-3 8-3 10 2 15s13 11 17 9 2-39 2-39l-20-2z"/><path class="st8" d="M2362 1378c5-4 2-28 2-28s-25-21-29-5c-3 15-24 22-36 24-8 1-10 6-11 9h74zM2474 1378c5-4 2-28 2-28s-25-21-29-5c-3 15-24 22-35 24-8 1-11 6-12 9h74z"/><path class="st15" d="M2439 1091c-9 38-21 81-25 106a172 172 0 00-2 13c-2 46-38 151-45 154-10 3-26-5-34-7-3-1-6-5-5-8 18-83 29-201 31-271l3-61s89-24 89 6c0 12-5 38-12 68z"/><path class="st17" d="M2439 1091c-9 38-21 81-25 106l-4 29-15-176 22 2 22 39z"/><path class="st15" d="M2404 1034l31 325s23 8 44 2c0 0 12-178 11-222-1-43 10-116-2-124-13-8-84 19-84 19z"/><path class="st29" d="M2487 946l2 76c0 3-8 9-36 13l-35 3c-34 0-48-15-48-15-2 0 3-16 4-126h-2c-12-5-24-15-24-15s14-39 27-58c3-5 12-9 24-11l9-2a195 195 0 0161 2c13 2 25 7 33 13 13 9 22 54 22 54s-12 13-38 19c-1 27-1 30 1 47z"/><path class="st15" d="M2362 1017l11-132c0-7 7-13 14-12l72 2c6 1 11 5 11 11 1 18 5 51 17 60l6 96-80 72s-9-53-22-68l-29-29z"/><path class="st15" d="M2469 813l-8 67-9-1 8-68 9 2zM2408 811l-11 60-1 5h-1l-8-2 12-61 9-2z"/><path class="st12" d="M2524 952s-6 16-75 39c0 0-1-19 3-21 13-8 44-31 45-35 1-2-6-23-15-43 17-2 27-3 39-10 5 32 11 55 3 70zM2441 971s-6-5-10-5c-5-1-12-4-11-1l9 7 12-1z"/><path class="st32" d="M2430 1000l-23 3c-2 0-5-1-5-4l-16-51c-1-3 1-6 4-7l23-3c3 0 5 2 6 4l15 51c1 3-1 7-4 7z"/><path class="st33" d="M2422 1001l-23 3c-2 0-5-2-5-4l-16-51c-1-3 1-7 4-7l23-3c3 0 5 2 6 4l15 51c1 3-1 7-4 7z"/><path class="st33" d="M2406 949l-2-1-15-45 1-1 1 1 16 45-1 1z"/><path class="st12" d="M2452 970l-7 2-7-3c-3-2-9 0-11 2-5 3-23 3-23 7 0 3 8 13 17 16s28-3 28-3l3-21zM2452 810c1 10-8 15-22 13s-14-13-14-13v-22l1-11 33 4v6l2 23z"/><path class="st27" d="M2450 787s-8 11-34 13v-12l34-1z"/><path class="st12" d="M2410 794s41 8 46-18 13-42-13-49c-26-6-33 3-37 11-3 8-7 53 4 56z"/><path class="st32" d="M2454 782s14 3 16-23c0-10 3-46-26-44s-42 18-44 21c-20 22 28 5 34 10 6 6 0 14 8 17 7 3 13 3 11 10-1 6 1 9 1 9z"/><path class="st15" d="M2396 736s15 6 20 6l26 2 35 6s7-26-10-42l-2-2c-4-4-11-7-19-9-41-10-50 38-50 39z"/><path class="st17" d="M2416 741l7 1c5-7 24-30 44-34l-2-2c-25 7-45 29-49 35z"/><path class="st15" d="M2442 744l6 10c1 5 23 7 25 5l4-9-35-6z"/><path class="st17" d="M2442 744s-42 0-61-10c-1 0-1-3 1-3l15-2s15 13 45 15z"/></g><path fill="#9398a0" d="M290 1061h446v325H290z"/><g><path class="st13" d="M793 694h-61v684h103v-338l-42-173z"/><path class="st35" d="M793 694h337v173H793zM835 1040h338v338H835z"/><path fill="#c1d4f7" d="M1173 1040H835l-42-173h337z"/><path class="st37" d="M841 901h-9l-3-12h8zM861 901h-9l-3-12h8zM881 901h-9l-3-12h9zM901 901h-9l-3-12h9zM921 901h-9l-3-12h9zM941 901h-9l-3-12h9zM847 925h-9l-3-13h9zM867 925h-9l-3-13h9zM887 925h-9l-3-13h9zM907 925h-9l-3-13h9zM927 925h-9l-3-13h9zM947 925h-8l-4-13h9zM854 949h-9l-4-13h9zM874 949h-9l-4-13h9zM894 949h-9l-3-13h8zM914 949h-9l-3-13h8zM934 949h-9l-3-13h8zM954 949h-9l-3-13h9z"/><g><path class="st37" d="M860 972h-9l-3-12h8zM880 972h-9l-3-12h9zM900 972h-9l-3-12h9zM920 972h-9l-3-12h9zM940 972h-9l-3-12h9zM960 972h-9l-3-12h9z"/></g><g><path class="st37" d="M980 901h-8l-4-12h9zM1000 901h-8l-4-12h9zM1021 901h-9l-4-12h9zM1041 901h-9l-4-12h9zM1061 901h-9l-4-12h9zM1081 901h-9l-3-12h8z"/><g><path class="st37" d="M987 925h-9l-4-13h9zM1007 925h-9l-3-13h8zM1027 925h-9l-3-13h8zM1047 925h-9l-3-13h9zM1067 925h-9l-3-13h9zM1087 925h-9l-3-13h9z"/></g><g><path class="st37" d="M993 949h-9l-3-13h9zM1013 949h-9l-3-13h9zM1033 949h-8l-4-13h9zM1053 949h-8l-4-13h9zM1073 949h-8l-4-13h9zM1094 949h-9l-4-13h9z"/><g><path class="st37" d="M1000 972h-9l-4-12h9zM1020 972h-9l-4-12h9zM1040 972h-9l-4-12h9zM1060 972h-9l-3-12h8zM1080 972h-9l-3-12h8zM1100 972h-9l-3-12h8z"/></g></g></g><path class="st10" d="M819 749h125v101H819z"/><path class="st38" d="M935 749h9v101h-9z"/><g><path class="st37" d="M1161 1343H859v-124h302v124zm-300-2h298v-120H861v120z"/></g><path class="st6" d="M1021 723c0 3-2 6-5 6s-5-3-5-6c0-4 2-7 5-7s5 3 5 7z"/><path class="st15" d="M1043 723c0 3-2 6-5 6-2 0-4-3-4-6 0-4 2-7 4-7 3 0 5 3 5 7z"/><path class="st38" d="M1066 723c0 3-3 6-5 6-3 0-5-3-5-6 0-4 2-7 5-7 2 0 5 3 5 7z"/><path class="st6" d="M1088 723c0 3-2 6-5 6s-5-3-5-6c0-4 3-7 5-7s5 3 5 7z"/><path class="st15" d="M1110 723c0 3-2 6-4 6-3 0-5-3-5-6 0-4 2-7 5-7 2 0 4 3 4 7z"/><g><path class="st37" d="M1111 831h-99v-83h99v83zm-97-2h95v-79h-95v79z"/></g><path class="st39" d="M853 760h15v3h-15z"/><g><path class="st39" d="M823 760h25v3h-25zM823 767h37v3h-37zM865 767h24v3h-24zM872 760h26v3h-26z"/></g><g><path class="st39" d="M823 780h25v3h-25zM823 788h37v3h-37zM865 788h24v3h-24zM853 780h15v3h-15zM872 780h26v3h-26z"/></g><g><path class="st39" d="M823 803h25v3h-25zM823 810h37v3h-37zM865 810h24v3h-24zM853 803h15v3h-15zM872 803h26v3h-26z"/></g><g><path class="st39" d="M823 825h25v2h-25zM823 832h37v3h-37zM865 832h24v3h-24zM853 825h15v2h-15zM872 825h26v2h-26z"/></g></g><path class="st35" d="M278 1061h557v20H278z"/><g><path class="st40" d="M406 925l-11 127s-1 8 5 8h47s-7-2-7-5l12-131-46 1z"/><path class="st15" d="M450 1058h-47c-4 0-5-4-5-6l1-2v-3l1-9v-7l1-10 1-8 7-90 47-1-9 91-1 12-1 4-1 10v4a254 254 0 00-1 10c1 5 6 5 7 5z"/><path class="st15" d="M294 856l26 105 3 14 12 49h226l-45-168z"/><path class="st40" d="M294 856l-4 1 41 170 4-3z"/><path class="st17" d="M331 1027h224l6-3H335z"/><path transform="rotate(-180 433 1059)" class="st41" d="M409 1058h49v2h-49z"/><path class="st41" d="M550 993l-37-135H293v-2h223l37 136z"/><path class="st17" d="M445 1027v2l-45 9v-11z"/><path d="M450 1058h-47c-4 0-5-4-5-6l46-9a254 254 0 00-1 10c1 5 6 5 7 5z" opacity=".4" fill="#d86713"/><path class="st17" d="M434 990l-99 34-12-49z"/><path class="st37" d="M294 856h222l36 135H326z"/><path fill="#8aa8ed" d="M542 985H333l-23-94-2-7-2-6-3-15h205l4 15 2 6 2 7z"/><g><path class="st44" d="M488 870h-9l-1-1h10zM486 872h-7v-1h7zM494 872h-7v-1h7zM499 872h-4v-1h4zM496 870h-6v-1h5zM503 869l-5 1-1-1h6z"/></g><g><path class="st44" d="M513 976l-9 1-1-1h10zM511 979h-7v-1h7zM519 979h-7v-1h7zM524 979h-4v-1h4zM521 976h-6 5zM528 976h-6l6-1z"/></g><g><path class="st44" d="M342 876h-22l-1-2h22zM337 881h-16v-2h15zM355 881h-16v-2h15zM368 881h-10v-2h10zM359 876h-13l-1-2h14zM378 876h-14v-2h13zM342 892h-18l-1-2h19zM356 892h-10l-1-2h10zM376 892h-15l-1-2h16zM347 897h-22l-1-2h22zM342 902h-16v-2h15zM360 902h-16v-2h15zM373 902h-10v-2h10zM364 897h-13l-1-2h14zM383 897h-14v-2h13z"/><g><path class="st45" d="M348 915h-19v-2h18zM361 915h-10v-2h10zM382 915h-16v-2h15z"/><g><path class="st45" d="M352 920h-22v-2h22zM347 925h-16v-2h16zM365 925h-15l-1-2h16zM378 925h-9l-1-2h10zM370 920h-14v-2h13zM388 920h-13l-1-2h14z"/></g></g><g><path class="st44" d="M353 937h-19v-2h18zM367 937h-11v-2h10zM387 937h-16v-1h16z"/><g><path class="st44" d="M357 942h-22v-2h22zM352 947h-15l-1-2h16zM371 947h-16l-1-2h16zM384 947h-10l-1-2h10zM375 942h-14v-2h14zM393 942h-13v-2h13z"/></g></g><g><path class="st45" d="M358 960h-18l-1-2h19zM372 960h-10l-1-2h10zM392 960h-15l-1-2h16z"/><g><path class="st45" d="M363 965h-22l-1-2h22zM358 970h-16v-2h15zM376 970h-16v-2h15zM389 970h-10v-2h10zM380 965h-13l-1-2h14zM399 965h-14v-2h13z"/></g></g><g><path class="st15" d="M438 877h-22v-1h22zM433 882h-16v-1h16zM451 882h-16v-1h16zM464 883l-9-1-1-1h10zM456 878l-14-1v-1h13zM474 878h-13l-1-2h14z"/></g><g><path class="st15" d="M438 894h-18v-2h18zM452 894h-10l-1-2h11zM473 894h-16l-1-2h16z"/><g><path class="st15" d="M443 899l-22-1v-1h22zM438 904l-16-1v-1h16zM456 904h-16v-2h16zM469 904h-10v-2h10zM461 899h-14v-2h13zM479 899h-13l-1-2h14z"/></g></g><g><path class="st44" d="M444 917h-19v-2h18zM458 917h-11v-2h10zM478 917h-16v-2h16z"/><g><path class="st44" d="M448 922h-21l-1-2h22zM443 927h-15l-1-2h16zM462 927h-16l-1-2h16zM475 927h-10l-1-2h10zM466 922h-13l-1-2h14zM485 922h-14v-2h13z"/></g></g><g><path class="st44" d="M449 939h-18l-1-2h19zM463 939h-11v-2h10zM483 939h-15l-1-2h16z"/><g><path class="st44" d="M454 944h-22l-1-2h22zM449 949h-16l-1-2h16zM467 949h-16v-2h15zM480 949h-10v-2h9zM471 944h-13l-1-2h14zM490 944h-14v-2h13z"/></g></g><g><path class="st44" d="M454 962l-18-1-1-1h19zM468 962h-10l-1-2h11zM489 962h-16l-1-2h16z"/><g><path class="st44" d="M459 966h-22v-2l22 1zM454 971h-16v-2l16 1zM472 971h-16v-1h16zM485 971h-10v-1h10zM477 966h-14v-1h13zM495 966h-13l-1-1h14z"/></g></g></g><g><path d="M556 1347s-2 32-8 32h-69s0-9 11-11 30-10 37-25 29 4 29 4z" fill="#0e2c4f"/><path class="st45" d="M665 1090c1 2 40 44 37 76-1 9-9 17-19 17h-47s-48 8-49 19c-1 10-11 66-31 146 0 0-14 5-23 2-12-5-13-10-13-10s11-179 21-192c9-12 104-50 134-53 31-4-10-5-10-5z"/><path class="st12" d="M391 1046s-28-7-35 0c-7 6-9 15-9 15h44v-15z"/><path class="st45" d="M489 1347s-2 32-8 32h-69s0-9 11-11c12-2 30-10 37-25s29 4 29 4z"/><path class="st10" d="M701 1090c1 1 9 24 15 50 5 22-12 43-35 43H571s-48 8-49 19c-1 10-11 66-31 146 0 0-14 4-26-1-6-2-10-8-10-8s11-178 21-191c9-12 104-50 135-53 30-4 90-5 90-5z"/><path class="st12" d="M640 930l-17 17h-29a1577 1577 0 010-23v-5-9l8-5 16-11 9-6 1 9c2 21 12 33 12 33z"/><path class="st45" d="M598 927s32-14 35-13 9 13 9 13l-56 12s5-9 12-12z"/><path class="st8" d="M733 1021c-6-37-31-64-42-74-7-11-49-20-49-20l-56 12s-31 4-48 33c-11 18-42 59-63 60-20 1-84 14-84 14v15l97 3h4c8-2 44-9 62-18 3 46 7 117 23 128 17 12 137 13 150-5 6-9-2-64-12-117 13-6 21-15 18-31z"/><path d="M623 903l-2 1s-14 10-27 15v-9l8-5 21-2z" fill="#eaa16e"/><path class="st12" d="M584 910s45 6 48-22c2-28 10-46-18-51-29-4-35 6-39 15-3 9-3 56 9 58z"/><path class="st45" d="M577 849s8 30 14 28c6-3 12-5 13 5 0 9-6 21 14 19 19-2 38-57 31-66-21-25-101-15-72 14z"/></g><g><path d="M545 1189h221c8 0 15-7 15-16v-9H545v25z" fill="#77a4e5"/><path class="st15" d="M519 1189h167c6 0 11-5 11-12v-2c0-6-5-11-11-11H519c-7 0-12 5-12 11v2c0 7 5 12 12 12z"/><path class="st10" d="M658 1370h14l4-181h-22z"/><path class="st10" d="M596 1370h138v-13l-70-6-68 6z"/><circle transform="rotate(-41 736 1368)" class="st10" cx="736.3" cy="1367.8" r="11.4"/><path class="st10" d="M609 1368a11 11 0 10-23 0 11 11 0 0023 0zM601 1200h128c7 0 12-5 12-11H589c0 6 5 11 12 11z"/><path class="st15" d="M759 1189c6 0 11-5 11-11v-167c0-31-20-57-46-57H621c-25 0-46 26-46 57v178h184z"/><path class="st17" d="M761 1189c11 0 20-9 20-20v-158c0-31-20-57-46-57H632c-25 0-46 26-46 57v178h175z"/></g></g><g><path transform="rotate(-180 2796 1317)" class="st49" d="M2723 1257h146v121h-146z"/><path transform="rotate(-180 2869 1317)" class="st37" d="M2796 1257h146v121h-146z"/><path class="st50" d="M2723 1347h23l-2-6 2-5h-23z"/><path class="st49" d="M2796 1295h23l-2-7 2-5h-23z"/><path class="st50" d="M2796 1283h-23l2 7-2 5h23z"/><path class="st49" d="M2942 1348h-23l2 7-2 4h23z"/><path class="st6" d="M2890 1266h42v16h-42z"/></g><g><path transform="rotate(-180 2599 1317)" class="st49" d="M2526 1257h146v121h-146z"/><path transform="rotate(-180 2672 1317)" class="st3" d="M2599 1257h146v121h-146z"/><path class="st8" d="M2526 1347h23l-2-6 2-5h-23z"/><path class="st9" d="M2599 1294h23l-2-6 2-5h-23z"/><path class="st8" d="M2599 1283h-23l2 7-2 4h23z"/><path class="st9" d="M2745 1348h-23l2 7-2 5h23z"/><path class="st6" d="M2693 1265h42v17h-42z"/></g><g><path transform="rotate(-180 2670 1201)" fill="#ed823a" d="M2601 1144h137v113h-137z"/><path transform="rotate(-180 2738 1201)" fill="#ff9e55" d="M2670 1144h137v113h-137z"/><path class="st11" d="M2601 1229h22l-2-6 2-5h-22z"/><path class="st12" d="M2670 1179h21l-1-6 1-4h-21z"/><path class="st11" d="M2670 1169h-22l2 6-2 4h22z"/><path class="st12" d="M2807 1230h-22l2 6-2 4h22z"/><path class="st6" d="M2758 1152h40v15h-40z"/></g><g><path class="st37" d="M954 781h6v6h-6zM970 781h6v6h-6zM986 781h6v6h-6z"/><g><path class="st37" d="M954 794h6v6h-6zM970 794h6v6h-6zM986 794h6v6h-6z"/></g><g><path class="st37" d="M954 809h6v6h-6zM970 809h6v6h-6zM986 809h6v6h-6z"/></g></g><path class="st19" d="M3027 1388H139c-2 0-4-1-4-4v-3c0-2 2-3 4-3h2888c2 0 4 1 4 3v3c0 3-2 4-4 4z"/><path class="st24" d="M2131 704l-1-3c-4-6-15-6-26-6h-65v155h270V710h-153c-11 0-21 1-25-6zM1951 957l-2-3c-4-6-15-5-25-5h-65v154h270V963h-153c-11 0-21 1-25-6z"/><g><path class="st53" d="M1154 727c-13-6-23-2-23-2-39-5-50 41-50 56 1 16 2 33-15 53-50 59 55 61 55 61 1-47 57-30 55-25 72 17 7-128-22-143z"/><path class="st54" d="M1004 913s-7-10-13-10c-5-1-15-3-15-1 1 2 8 2 8 3 1 1-9 3-12 3-3 1-10 0-9 2 0 1 12 7 20 6 9-1 19 3 19 3l2-6z"/><path class="st15" d="M1103 917l-11 15c-8 11-20 22-36 25-8 1-15-1-22-4-19-8-33-28-33-28-4-9 2-15 2-15s38 8 42 7c4-2 26-52 30-61 9-18 23-23 23-23l5 84z"/><path class="st17" d="M1092 932c-8 11-20 22-36 25-8 1-15-1-22-4 1 0 20 3 28-11 7-14 16-36 27-29 5 4 5 11 3 19z"/><path class="st55" d="M1247 1334s12 10 9 18c-2 8-13 13-14 22s-7 14-12 14h-25s-4-6 5-8c10-2 13-13 12-23l1-24 20-5 4 6zM1147 1338s4 46-1 48h-66s0-8 11-9c10-2 29-8 32-22s24-17 24-17z"/><path class="st15" d="M1198 886v30c-1 12-12 26-13 30-4 9-9 11-9 11l-35 8-12 3-38-11s-18-49-11-77c7-27 18-47 18-47s26-10 72-2l28 55z"/><path d="M1188 921l-3 25c-4 9-9 11-9 11l-35 8-15-4s51-8 45-51l17 11z" fill="#f2caa9"/><path d="M1093 964s-19 60-20 80c-2 20 36 287 38 297 1 8 12 14 12 14s5 3 12 1c10-3 13-6 13-6s15-191 6-259-9-127-9-127h-52z" fill="#082242"/><path d="M1174 962s29 39 32 66c2 26 4 119 10 145s27 75 27 155c0 0-2 5-9 8l-8 2c-6 1-12-2-14-7-15-29-60-122-63-142-1-13-16-104-47-157-8-13 4-64 4-64l68-6z" fill="#05234f"/><path d="M1090 955s8 6 23 6c18 1 63-4 63-4s2 5 2 11c0 0-55 14-87 2 0 0-4-7-1-15z" fill="#223962"/><path class="st6" d="M1108 977c-4 0-8-4-8-9 0-6 4-10 8-10 5 0 9 4 9 10 0 5-4 9-9 9zm0-16c-3 0-5 3-5 7 0 3 2 6 5 6 4 0 6-3 6-6 0-4-2-7-6-7z"/><path d="M1229 971l-44 39c-3 3-8 2-11-1l-57-66c-3-3-3-8 1-10l44-39c3-3 8-3 11 0l57 66c3 3 3 8-1 11z" fill="#29498a"/><path class="st54" d="M1163 966s-23 3-23 8 6 12 13 12c2 0 14-11 14-11l-4-9zM1151 828c-2-6-4-16-4-28h-1l-30 6 1 18c0 8-5 16 7 19 4 0 33-1 27-15z"/><path d="M1116 806l1 18c16 0 25-15 29-24l-30 6z" fill="#e8925b"/><path class="st54" d="M1111 815s39 0 39-24 5-41-20-42-30 8-32 16 3 49 13 50z"/><path class="st53" d="M1112 748s11 29 27 33c17 4 24 0 24 0s-13-10-16-27c0 0-27-19-35-6z"/><path class="st53" d="M1115 751s-8 3-11 8c-3 6-6 14-6 23 0 0-8-20 1-31 10-11 16 0 16 0z"/><path class="st54" d="M1163 966s-5-2-9-1l-6 1 5 2 10-2z"/><path class="st15" d="M1170 831s28 2 38 27c11 26 31 69 31 77s-11 29-71 42c0 0-7-7-6-12 0 0 37-32 37-36 0-7-6-16-39-49-9-9 10-49 10-49z"/></g></svg>