<?xml version="1.0" encoding="utf-8"?><!--Generator: Adobe Illustrator 22.1.0, SVG Export Plug-In . SVG Version: 6.00 Build 0)--><svg version="1.1" id="Слой_1" xmlns="http://www.w3.org/2000/svg" xmlns:xlink="http://www.w3.org/1999/xlink" x="0px" y="0px" viewBox="0 0 30 30" style="enable-background:new 0 0 30 30" xml:space="preserve"><style type="text/css">.st0{fill:#FFFFFF;fill-opacity:0.6;}
	.st1{fill:#111E44;}</style><circle class="st0" cx="15" cy="15" r="15"/><path class="st1" d="M17.6,15c0,1.5-1.2,2.6-2.6,2.6s-2.6-1.2-2.6-2.6s1.2-2.6,2.6-2.6S17.6,13.5,17.6,15z"/><path class="st1" d="M19.5,7h-8.9C8.6,7,7,8.6,7,10.5v8.9c0,1.9,1.6,3.5,3.5,3.5h8.9c1.9,0,3.5-1.6,3.5-3.5v-8.9
	C23,8.6,21.4,7,19.5,7z M15,19.4c-2.4,0-4.4-2-4.4-4.4s2-4.4,4.4-4.4s4.4,2,4.4,4.4S17.4,19.4,15,19.4z M20,10.8
	c-0.5,0-0.9-0.4-0.9-0.9c0-0.5,0.4-0.9,0.9-0.9c0.5,0,0.9,0.4,0.9,0.9C20.9,10.4,20.5,10.8,20,10.8z"/></svg>