<?xml version="1.0" encoding="utf-8"?><!--Generator: Adobe Illustrator 22.1.0, SVG Export Plug-In . SVG Version: 6.00 Build 0)--><svg version="1.1" id="Слой_1" xmlns="http://www.w3.org/2000/svg" xmlns:xlink="http://www.w3.org/1999/xlink" x="0px" y="0px" viewBox="0 0 30 30" style="enable-background:new 0 0 30 30" xml:space="preserve"><style type="text/css">.st0{fill:#FFFFFF;fill-opacity:0.6;}
	.st1{fill:#111E44;}</style><circle class="st0" cx="15" cy="15" r="15"/><path class="st1" d="M25.1,19.4c0-0.1,0-0.1-0.1-0.1c-0.4-0.6-1-1.4-2-2.3l0,0l0,0l0,0h0c-0.5-0.4-0.7-0.7-0.9-0.9
	c-0.2-0.3-0.3-0.6-0.1-0.9c0.1-0.2,0.4-0.7,0.9-1.4c0.3-0.4,0.5-0.7,0.7-0.9c1.2-1.6,1.7-2.7,1.6-3.1l-0.1-0.1
	c0-0.1-0.2-0.1-0.3-0.2c-0.2-0.1-0.4-0.1-0.7,0l-3,0c0,0-0.1,0-0.2,0c-0.1,0-0.1,0-0.1,0l-0.1,0l0,0c0,0-0.1,0.1-0.1,0.1
	c0,0.1-0.1,0.1-0.1,0.2c-0.3,0.9-0.7,1.6-1.1,2.4c-0.3,0.4-0.5,0.8-0.7,1.1c-0.2,0.3-0.4,0.6-0.5,0.7c-0.1,0.2-0.3,0.3-0.4,0.4
	c-0.1,0.1-0.2,0.1-0.3,0.1c-0.1,0-0.1,0-0.2,0c-0.1-0.1-0.2-0.1-0.2-0.3c-0.1-0.1-0.1-0.2-0.1-0.4c0-0.2,0-0.3,0-0.4
	c0-0.1,0-0.3,0-0.5c0-0.2,0-0.4,0-0.4c0-0.3,0-0.6,0-0.9c0-0.3,0-0.6,0-0.7c0-0.2,0-0.4,0-0.6c0-0.2,0-0.4,0-0.5
	c0-0.1-0.1-0.2-0.1-0.3c0-0.1-0.1-0.2-0.2-0.3c-0.1-0.1-0.2-0.1-0.4-0.1C15.8,9.1,15.3,9,14.7,9c-1.3,0-2.1,0.1-2.5,0.3
	c-0.1,0.1-0.3,0.2-0.4,0.3c-0.1,0.2-0.1,0.2-0.1,0.3c0.4,0.1,0.7,0.2,0.9,0.5l0.1,0.1c0,0.1,0.1,0.3,0.1,0.5c0,0.2,0.1,0.5,0.1,0.8
	c0,0.5,0,1,0,1.3c0,0.4-0.1,0.7-0.1,0.9c0,0.2-0.1,0.4-0.1,0.5c-0.1,0.1-0.1,0.2-0.1,0.2s0,0-0.1,0.1c-0.1,0-0.2,0.1-0.3,0.1
	c-0.1,0-0.2,0-0.4-0.1c-0.1-0.1-0.3-0.2-0.4-0.4c-0.2-0.2-0.3-0.4-0.5-0.7c-0.2-0.3-0.4-0.7-0.6-1.1L10.2,12
	c-0.1-0.2-0.2-0.5-0.4-0.9c-0.2-0.4-0.3-0.7-0.5-1.1C9.2,9.9,9.1,9.8,9,9.7L9,9.7c0,0-0.1-0.1-0.2-0.1c-0.1,0-0.2-0.1-0.2-0.1
	l-2.9,0c-0.3,0-0.5,0.1-0.6,0.2l0,0.1c0,0,0,0.1,0,0.2c0,0.1,0,0.2,0.1,0.3c0.4,1,0.9,1.9,1.4,2.9c0.5,0.9,0.9,1.7,1.3,2.2
	c0.4,0.6,0.7,1.1,1.1,1.6c0.4,0.5,0.6,0.8,0.8,1c0.1,0.1,0.2,0.2,0.3,0.3l0.3,0.3c0.2,0.2,0.4,0.4,0.7,0.6c0.3,0.2,0.7,0.5,1.1,0.7
	c0.4,0.2,0.9,0.4,1.4,0.6c0.5,0.1,1,0.2,1.5,0.2h1.2c0.2,0,0.4-0.1,0.6-0.2l0-0.1c0,0,0.1-0.1,0.1-0.2c0-0.1,0-0.2,0-0.3
	c0-0.3,0-0.6,0.1-0.8c0.1-0.2,0.1-0.4,0.2-0.5c0.1-0.1,0.1-0.2,0.2-0.3c0.1-0.1,0.1-0.1,0.2-0.2c0,0,0.1,0,0.1,0
	c0.2-0.1,0.4,0,0.6,0.2c0.2,0.2,0.4,0.4,0.6,0.6c0.2,0.2,0.4,0.5,0.7,0.8c0.3,0.3,0.5,0.5,0.7,0.7l0.2,0.1c0.1,0.1,0.3,0.2,0.5,0.2
	c0.2,0.1,0.4,0.1,0.6,0.1l2.7,0c0.3,0,0.5,0,0.6-0.1c0.1-0.1,0.2-0.2,0.3-0.3c0-0.1,0-0.2,0-0.4C25.2,19.6,25.2,19.5,25.1,19.4z"/></svg>