<?xml version="1.0" encoding="utf-8"?><!--Generator: Adobe Illustrator 22.1.0, SVG Export Plug-In . SVG Version: 6.00 Build 0)--><svg version="1.1" id="Слой_1" xmlns="http://www.w3.org/2000/svg" xmlns:xlink="http://www.w3.org/1999/xlink" x="0px" y="0px" viewBox="0 0 30 30" style="enable-background:new 0 0 30 30" xml:space="preserve"><style type="text/css">.st0{fill:#FFFFFF;fill-opacity:0.6;}</style><path class="st0" d="M15,0C6.7,0,0,6.7,0,15s6.7,15,15,15s15-6.7,15-15S23.3,0,15,0z M15.3,23.7C15.3,23.7,15.3,23.7,15.3,23.7
	L15.3,23.7c-1.5,0-3-0.4-4.3-1.1l-4.8,1.2l1.3-4.7c-0.8-1.4-1.2-2.9-1.2-4.5c0-4.9,4-9,9-9c2.4,0,4.7,0.9,6.4,2.6
	c1.7,1.7,2.6,4,2.6,6.3C24.3,19.7,20.3,23.7,15.3,23.7z"/><path class="st0" d="M15.3,7.3c-4.1,0-7.5,3.3-7.5,7.5c0,1.4,0.4,2.8,1.1,4L9.2,19l-0.8,2.8l2.8-0.7l0.3,0.2c1.1,0.7,2.5,1,3.8,1h0
	c4.1,0,7.5-3.3,7.5-7.5c0-2-0.8-3.9-2.2-5.3C19.2,8.1,17.3,7.3,15.3,7.3z M19.7,18c-0.2,0.5-1.1,1-1.5,1.1c-0.4,0.1-0.9,0.1-1.4-0.1
	c-0.3-0.1-0.7-0.2-1.3-0.5c-2.3-1-3.7-3.2-3.8-3.4c-0.1-0.1-0.9-1.2-0.9-2.3c0-1.1,0.6-1.6,0.8-1.9c0.2-0.2,0.4-0.3,0.6-0.3
	c0.1,0,0.3,0,0.4,0c0.1,0,0.3-0.1,0.5,0.4c0.2,0.4,0.6,1.6,0.7,1.7c0.1,0.1,0.1,0.2,0,0.4c-0.1,0.1-0.3,0.5-0.6,0.8
	c-0.1,0.1-0.2,0.2-0.1,0.5c0.1,0.2,0.6,1,1.2,1.6c0.9,0.8,1.6,1,1.8,1.1c0.2,0.1,0.4,0.1,0.5-0.1c0.1-0.1,0.6-0.7,0.7-0.9
	c0.1-0.2,0.3-0.2,0.5-0.1c0.2,0.1,1.3,0.6,1.5,0.7c0.2,0.1,0.4,0.2,0.4,0.3C19.9,17,19.9,17.4,19.7,18z"/></svg>