<?xml version="1.0" encoding="utf-8"?><!--Generator: Adobe Illustrator 22.1.0, SVG Export Plug-In . SVG Version: 6.00 Build 0)--><svg version="1.1" id="Слой_1" xmlns="http://www.w3.org/2000/svg" xmlns:xlink="http://www.w3.org/1999/xlink" x="0px" y="0px" viewBox="0 0 30 30" style="enable-background:new 0 0 30 30" xml:space="preserve"><style type="text/css">.st0{fill:#FFFFFF;fill-opacity:0.6;}</style><path class="st0" d="M13.1,17.8L18,15l-4.9-2.8V17.8z"/><path class="st0" d="M15,0C6.7,0,0,6.7,0,15s6.7,15,15,15s15-6.7,15-15S23.3,0,15,0z M24.4,15c0,0,0,3-0.4,4.5
	c-0.2,0.8-0.8,1.4-1.7,1.7c-1.5,0.4-7.3,0.4-7.3,0.4s-5.9,0-7.3-0.4c-0.8-0.2-1.4-0.8-1.7-1.7C5.6,18.1,5.6,15,5.6,15s0-3,0.4-4.5
	C6.2,9.7,6.9,9,7.7,8.8C9.1,8.4,15,8.4,15,8.4s5.9,0,7.3,0.4c0.8,0.2,1.4,0.8,1.7,1.7C24.4,12,24.4,15,24.4,15z"/></svg>