<?xml version="1.0" encoding="utf-8"?>
<!-- Generator: Adobe Illustrator 25.2.1, SVG Export Plug-In . SVG Version: 6.00 Build 0)  -->
<svg version="1.1" id="Слой_1" xmlns="http://www.w3.org/2000/svg" xmlns:xlink="http://www.w3.org/1999/xlink" x="0px" y="0px"
	 viewBox="0 0 3139.5 3052.1" style="enable-background:new 0 0 3139.5 3052.1;" xml:space="preserve">
<style type="text/css">
	.st0{fill:#5A6FB2;}
	.st1{fill:#C44B43;}
	.st2{fill:#406367;}
	.st3{fill:#ACADAE;}
	.st4{fill:#406366;}
	.st5{fill:#ACADAF;}
	.st6{fill:#C14B48;}
	.st7{fill:#B1B4B6;}
	.st8{fill:#426467;}
	.st9{fill:#436467;}
	.st10{fill:#416367;}
	.st11{fill:#426468;}
	.st12{fill:#416466;}
	.st13{fill:#416467;}
	.st14{fill:#416366;}
	.st15{fill:#436468;}
	.st16{fill:#426568;}
	.st17{fill:#426466;}
	.st18{fill:#456568;}
	.st19{fill:#436668;}
	.st20{fill:#416368;}
	.st21{fill:#416468;}
	.st22{fill:#456669;}
	.st23{fill:#466668;}
	.st24{fill:#AFAEB0;}
	.st25{fill:#537272;}
	.st26{fill:#4D6C6C;}
	.st27{fill:#525B5D;}
	.st28{fill:#515B5D;}
	.st29{fill:#EDCACA;}
	.st30{fill:#BBBDD6;}
	.st31{fill:#919FC8;}
	.st32{fill:#868ABB;}
	.st33{fill:#8991C3;}
	.st34{fill:#9D9FC3;}
	.st35{fill:#A8ACCD;}
	.st36{fill:#ABA5D2;}
	.st37{fill:#8C92C2;}
	.st38{fill:#5464AA;}
	.st39{fill:#395C5E;}
	.st40{fill:#FFFFFF;}
	.st41{fill:#365D5D;}
	.st42{fill:#375D5F;}
	.st43{fill:#C1C3C5;}
	.st44{fill:#CED4D5;}
	.st45{fill:#D0D8DA;}
	.st46{fill:#FEFFFF;}
	.st47{fill:#395C60;}
	.st48{fill:#D3D8DA;}
	.st49{fill:#E6EBEB;}
	.st50{fill:#D9E0E0;}
	.st51{fill:#DBE0E0;}
	.st52{fill:#FDFDFE;}
	.st53{fill:#FAFBFC;}
	.st54{fill:#FBFBFC;}
	.st55{fill:#F9FBFB;}
	.st56{fill:#F9FAFA;}
	.st57{fill:#F7F9F9;}
	.st58{fill:#FAFBFB;}
	.st59{fill:#FEFEFE;}
	.st60{fill:#FCFCFD;}
	.st61{fill:#FCFDFD;}
	.st62{fill:#F2F5F6;}
	.st63{fill:#F4F7F7;}
	.st64{fill:#ACC9C9;}
	.st65{fill:#FAFAFB;}
	.st66{fill:#929193;}
	.st67{fill:#909092;}
	.st68{fill:#929295;}
	.st69{fill:#D0C8C9;}
	.st70{fill:#9E9E9F;}
	.st71{fill:#FBFAFB;}
	.st72{fill:#FAFAFA;}
	.st73{fill:#858284;}
</style>
<g>
	<path class="st0" d="M1672,1933.2c3-6.1,8.3-10.3,12.8-15.1c21.6-23.4,39.8-49.5,58.8-75c1.7-0.6,1.3-2.7,2.5-3.7l0,0
		c0.7-0.7,1.4-1.4,1.8-2.3c11.2-17.4,22.9-34.5,33.5-52.2c1.5-2.5,2.4-5.4,4.5-7.5c1.4-0.9,1.1-2.8,2.1-3.9l0,0
		c0.8-0.6,1.4-1.3,1.9-2.2c14.2-23.5,27-47.7,40.4-71.7c1.1-2.2,2.8-4.1,3.4-6.5c2.7-5.2,5.3-10.5,8-15.7c3.1-2.8,4.2-6.7,6.1-10.2
		c9.2-22.8,21.2-44.3,31.3-66.7c13.6-30.2,27.3-60.4,39.9-91.1c10-24.6,20.5-48.9,29.8-73.8c12.2-32.6,24.6-65.1,36.2-97.9
		c19.6-55.4,37.5-111.3,54.1-167.6c4.1-14,7.9-28.2,11.9-42.2c1.6-5.4,3.7-10.6,7-15.3c22.6-31.2,43.4-63.7,64.4-96
		c1.1-1.7,2.4-3.2,3.6-4.8c2.4-3.1,3.8-6.8,5.7-10.3c4.8-7.9,9.6-15.7,14.4-23.6c0.5-0.8,1.3-1.4,1.7-2.3l0,0c1.5-0.9,1-2.9,2.2-3.9
		c10.6-18,21.2-36,31.8-54c1.7-1.9,3.1-3.9,3.8-6.4c6.2-11.3,12.5-22.5,18.4-34c13.5-26.2,27.6-52.1,39.8-78.9
		c11.4-25,22.9-50,32.3-75.8c0.8-2.2,1.3-4.5,1.9-6.7c5.5-0.1,5.7,0.4,3.9,7.9c-1.9,20.5-3.7,41.1-5.7,61.6
		c-2,20.5-3.7,41.1-5.8,61.6c-1.6,15.9-2.7,31.8-4.3,47.7c-2.6,26.5-4.9,53-7.2,79.5c-2.5,27.5-4.8,55-7.4,82.5
		c-2.9,29.8-6.1,59.6-9,89.4c-1.6,16.2-3,32.5-4.6,48.7c-2.2,23.2-4.4,46.4-6.7,69.5c-1.8,17.9-3.4,35.8-5.5,53.6
		c-3.2,27.1-5.1,54.3-8.9,81.3c-2.2,16.1-3.1,32.4-4.9,48.6c-2.9,25.1-6.6,50.1-9,75.2c-2.2,22.9-5.7,45.6-8.2,68.4
		c-2.7,23.8-6.2,47.5-9.5,71.2c-3.7,27.3-7.1,54.7-11.5,82c-2.6,16.4-5.7,32.7-8.4,49.1c-2.6,16-6,32-9.1,47.9
		c-4.9,25.4-10,50.9-16.8,75.9c-1.6,6-1.5,12.6-5.3,18l0-0.1c-0.1,1.8-0.9,3.3-2.8,3.4c-3.3,0.2-6.7,0.2-10,0.2
		c-146.5,0-292.9,0-439.4,0c-3.3,0-6.7-0.1-10-0.2c-1.6-0.1-3.7,0.1-3.4-2.3C1668.7,1934.6,1670.3,1933.7,1672,1933.2
		c2.3,1.9,5,1.2,7.6,1.2c144.2,0,288.4,0,432.5,0c2.5,0,5-0.6,6-0.1c-144.6,0-290.5,0-436.5,0
		C1678.4,1934.2,1675,1935.4,1672,1933.2z"/>
	<path class="st1" d="M2281.9,1528.7c-1-16,1.3-31.8,2.1-47.7c1.5-29.2,2.6-58.5,4.7-87.7c3.2-44.8,5.4-89.6,8-134.4
		c2.1-36.2,4-72.4,6.4-108.6c2.9-43.8,5-87.6,7.7-131.4c2.3-36.5,4.1-73.1,6.4-109.5c3.3-51.8,6-103.6,9.3-155.4
		c2.4-38.1,4.5-76.3,6.8-114.5c1.6-26.6,4.3-53.1,4.4-79.7c0-13.9,3.3-26.9,8.1-39.8c8.5-23.1,14.5-46.9,20.5-70.7
		c1-3.8,1.7-7.8,3.8-11.2c6.3-22.6,11.1-45.5,15.4-68.5c3.2-17.5,7.2-34.9,10.6-52.4c5.1-26.6,9.5-53.4,13.1-80.2
		c2.3-17.3,6.4-34.4,8.1-51.9c2.3-23.6,6.2-47.1,6.8-71l-0.2,0.1c5-4.5,5.3-0.8,5.3,3.1c0,10.7,0.6,21.4-0.2,32
		c-0.6,8-0.7,15.9-0.7,23.9c0,136.9,0,273.8,0,410.7c0,212.2-1.8,424.3,0.5,636.5c2.3,212.5,0.3,425,1.5,637.5
		c0.1,20.9-4.2,41.7-2.9,62.7c1.1,17.7,0.6,17.8-18,17.8c-39.3,0-78.7,0-118,0c-7.7,0-15.2-1.3-22.9-1.6c-6.6-0.3-8.3-3.5-8.3-9.5
		c0-19.6,1.3-39.2,2.4-58.8c1.3-21.8,3.1-43.6,3.9-65.5c0.8-22.1,1.4-44.4,4.2-66.4c1-8.2-0.3-16.5,2.2-24.8
		c4.2,6.8,4.9,14.4,5.2,21.3c0.8-4.3-0.8-9-1.8-13.8c-6.5-31.4-0.5-62.6,1.5-93.9c1.1-17.6,0.8-35.2,2.5-52.8
		C2281.7,1557.8,2279.9,1543.2,2281.9,1528.7z"/>
	<path class="st2" d="M2104.1,2555.3c-9.4,10.6-18.9,20.3-27.3,30.9c-17.4,21.9-36.6,42.3-54.7,63.6c-10.8,12.7-21.2,25.7-32.6,37.8
		c-6.7,7-4.9,14.1-2.6,21.3c2.1,6.7,7.3,11,14.6,12.1c4.9,0.7,9.9,1.3,14.9,1.6c4.8,0.3,4.9,3.4,5.1,6.9c0.2,4.2-1.5,6.3-5.8,6.1
		c-1,0-2,0-3,0c-31.3,0-62.6,0-94,0c-7.3,0-8-0.8-8.1-6.7c-0.1-4,1.3-6.2,5.6-6.4c4.3-0.2,8.6-0.7,12.9-1.3
		c9.7-1.3,14.6-5.9,17.2-15.5c1.1-3.9,1.2-7.9,1.2-11.9c0-54.6,0-109.2,0-163.9c0-4.3-0.2-8.6-1-12.9c-1.9-9.9-7.1-15.2-17-16.9
		c-4.6-0.8-9.3-1-13.9-1.4c-3.8-0.4-5-2.6-4.8-6.2c0.1-3.5,1.2-5.7,5.2-5.7c33.3,0,66.6,0,100,0c4.6,0,5.5,2.5,5.6,6.3
		c0.1,4-2.3,5.2-5.6,5.5c-6,0.5-12,0.9-17.7,2.8c-7.3,2.3-12.2,6.6-12.5,14.8c-0.2,4-0.9,8-0.9,11.9c-0.1,44,0,87.9,0,131.9
		c0,2.2-0.9,4.7,1.1,6.5c2.2,0.9,3.2-0.7,4.1-1.9c13.7-17.7,29-33.9,43.4-50.9c22.4-26.4,44.9-52.7,67.4-79
		c10-11.8,4.4-30-10.7-33.9c-4.8-1.2-9.9-1.5-14.8-2c-4.2-0.4-5.6-2.5-5.6-6.6c0-4.6,2.4-5.5,6.3-5.5c32.7,0.1,65.3,0.1,98,0
		c4,0,6.2,1,6.1,5.6c-0.1,4.1-1.3,6.2-5.6,6.3c-6.3,0.2-12.6,1-18.7,3c-7.4,2.5-11.7,7.4-11.8,15.4c-0.1,6.3-0.4,12.7-0.4,19
		c0,52,0,103.9,0,155.9c0,3,0,6,0.2,9c0.9,12.7,7,19,19.9,20.5c3.6,0.4,7.3,1.1,10.9,1.2c5.5,0,5.3,3.7,5.4,7.5
		c0.2,4.5-2.2,5.7-6.2,5.6c-24.7-0.1-49.3,0-74,0c-7.7,0-15.3,0-23,0c-3.9,0-7.4-0.1-7.3-5.6c0.1-4.4,0.2-7.9,6.2-7.6
		c3.6,0.2,7.3-0.8,10.9-1.3c9.9-1.4,15.5-6.4,18.1-16c0.8-2.9,1.1-5.9,1.1-8.9c0-45,0-89.9,0-134.9
		C2105.9,2559.7,2106.3,2558,2104.1,2555.3z"/>
	<path class="st2" d="M930.2,2554.9c-10.9,12.7-21.7,24.8-32.2,37.3c-17.3,20.7-35.3,40.7-53,61.1c-10,11.6-19.8,23.3-29.7,34.9
		c-9.5,11.1-3,29.7,11.6,32.6c4.9,1,9.9,1.6,14.9,1.7c5.1,0.1,5.9,2.7,6,7c0.1,5-2.4,6.3-6.7,6.2c-7.7-0.1-15.3,0-23,0
		c-24.3,0-48.7,0.1-73,0c-7.2,0-8.1-1.1-8.2-6.8c0-4,1.2-6.2,5.7-6.3c4.3-0.1,8.6-0.8,12.9-1.4c9.1-1.3,14.4-5.9,16.6-14.9
		c1.2-4.8,1.8-9.8,1.8-14.8c0-52.6,0-105.3,0-157.9c0-6-0.5-11.9-1.7-17.8c-1.9-8.8-7.1-14.1-16-15.5c-4.6-0.7-9.3-1.1-13.9-1.4
		c-4.4-0.3-5.4-3-5.3-6.8c0.1-3.8,1.9-5.3,5.6-5.2c12,0.1,24,0.1,36,0.1c20.7,0,41.3,0.1,62-0.1c7.8-0.1,7.2,2.7,7,7.6
		c-0.2,3.7-3,4-5.6,4.3c-6,0.7-11.9,1.3-17.7,2.9c-7.6,2.2-12,6.8-12.8,14.7c-0.5,5.6-1.3,11.3-1.3,16.9c-0.1,42.6-0.1,85.3,0,127.9
		c0,2.2-0.9,4.6,1,6.5c2.6,0.4,3.7-1.5,4.8-3c18.2-23,38.4-44.3,57-66.9c17.3-21.1,35.2-41.7,53.2-62.2
		c10.6-12.1,5.4-30.4-10.3-34.6c-4.5-1.2-9.2-1.6-13.8-1.9c-4.6-0.3-6.3-2.3-6.2-6.9c0-4.9,2.8-5.2,6.4-5.2c32.3,0,64.6,0,97,0
		c3.7,0,6.4,0.4,6.6,5.2c0.2,4.9-2.1,6.4-6.5,6.7c-6,0.4-11.9,0.9-17.7,2.9c-7,2.4-11.2,6.9-11.7,14.5c-0.4,5.6-1.1,11.3-1.1,16.9
		c-0.1,51-0.1,101.9,0,152.9c0,6.3,0.4,12.7,1.3,18.9c1.4,9.7,7.5,15.2,17.3,16.4c4,0.5,7.9,0.8,11.9,1.3c6,0.7,6.3,1.5,6.3,7.5
		c0,5.3-3.1,5.7-7.2,5.7c-32-0.1-64-0.1-96,0c-4.2,0-6.9-0.7-6.8-6c0.1-4.8,1.2-7.6,6.7-7.4c3,0.1,5.9-0.7,8.9-1.1
		c12.3-1.6,18.5-7.5,20.3-19.6c0.3-2.3,0.4-4.6,0.4-7c0-44.6,0-89.3,0-133.9C932,2559.2,932.5,2557.5,930.2,2554.9z"/>
	<path class="st2" d="M591.4,2612.3c-17.7,0-35.3,0-53,0c-4.3,0-8,0-7.8,6c0.6,27.6-1.3,55.3,1.1,82.8c1.2,13.8,6.5,18.6,20,20.1
		c3,0.3,5.9,0.8,8.9,1.2c6.3,0.9,7.2,2.2,6.9,8.1c-0.2,3.3-1.6,4.9-4.8,5c-1.7,0-3.3,0-5,0c-30.3,0-60.6,0-91,0c-1.7,0-3.3,0-5,0
		c-3.9,0-5.1-2.4-5-5.9c0.1-3.3-0.5-6.9,4.6-7.1c4.3-0.2,8.6-0.9,12.9-1.3c10.9-1.3,16.3-5.8,18.6-16.4c0.8-3.9,1.1-7.9,1.1-11.9
		c0.1-54.6,0-109.2,0-163.8c0-1,0-2,0-3c-0.8-19.2-6.7-25.4-25.8-27.1c-1.7-0.1-3.3-0.3-5-0.3c-4.7,0.1-6.4-2.1-6.4-6.7
		c0-4.8,2.7-5.3,6.4-5.3c10,0.1,20,0,30,0c22.3,0,44.6,0,67,0c3,0,6.1-0.5,7.2,3.5c1.3,4.8-0.4,7.7-5.7,8.2c-6,0.6-11.9,1.2-17.7,3
		c-7.5,2.3-11.6,6.9-12.3,15c-2.1,24.6-0.5,49.2-1,73.9c-0.1,4.2,1.8,6.1,6,6.1c4-0.1,8,0,12,0c30,0,60,0,90,0c2.7,0,5.3-0.2,8-0.1
		c4.1,0,6-1.8,5.9-6.1c-0.2-8.7,0-17.3-0.1-26c-0.1-13.6,0.1-27.3-0.5-40.9c-0.7-15.8-6.8-21.8-22.6-23.9c-3-0.4-6-0.6-8.9-0.9
		c-3.1-0.3-4.6-2-4.6-5.3c-0.1-4.4,0.8-6.8,6-6.6c10.3,0.4,20.7,0.1,31,0.1c22,0,44,0.2,66-0.1c8.1-0.1,7.2,2.3,7.3,7.3
		c0.1,3-1.8,4-4.3,4.4c-5,0.6-10,0.9-14.9,1.9c-12.3,2.6-16.5,7.3-16.7,19.8c-0.4,20-0.4,40-0.4,59.9c-0.1,36.3-0.1,72.6,0,108.9
		c0,5,0,10,0.6,15c1.3,10.2,7.4,16.1,17.5,17.3c4,0.5,7.9,0.9,11.9,1.3c6,0.6,6.2,1.2,6.4,7.4c0.1,5.3-2.7,5.8-6.9,5.8
		c-32-0.1-64,0-96-0.1c-7.1,0-8-1.4-7.5-8.2c0.2-3.2,1.5-4.7,4.8-4.9c4-0.2,7.9-0.8,11.9-1.4c12.2-1.6,18.4-7.9,19.4-20.2
		c0.4-5,0.5-10,0.5-15c0.1-21.6,0.1-43.3,0-64.9c0-8.6-0.1-8.7-9-8.7C626,2612.3,608.7,2612.3,591.4,2612.3z"/>
	<path class="st2" d="M574.3,2105.2c0.9,9.2,0.9,9.2-7.9,9.8c-0.7,0-1.3,0-2,0.1c-20.5,3.3-25,6-25.1,27.1
		c-0.1,43.3-0.1,86.6,0,129.9c0,2.1-0.8,4.6,2,7c3.5-3.9,7-7.6,10.4-11.5c29.9-34.8,59.8-69.7,89.7-104.6c3.7-4.3,6.9-8.9,10.6-13.2
		c10.2-11.8,5-28.9-10.1-32.7c-3.9-1-7.8-1.5-11.8-2c-8.1-0.9-8.1-0.8-7.3-9.9c6.8-2.1,13.8-0.9,20.7-0.9c25.2-0.2,50.4-0.1,75.5,0
		c3.2,0,6.6-0.9,9.7,1c1,9.1,1,9.1-7.2,9.8c-23.3,2.1-27.4,6.4-27.4,29.7c0,53.6,0,107.2,0,160.9c0,2.3,0,4.7,0.2,7
		c1.1,12.1,7.4,18.6,19.6,20.1c3.6,0.4,7.3,0.6,11,0.5c4.4-0.1,4.7,2.5,4.6,5.9c-0.1,3.3-0.5,6.1-4.8,5.9c-1.7-0.1-3.3,0-5,0
		c-29.3,0-58.6,0-88,0c-2,0-4,0.1-6-0.1c-3.7-0.3-3.7-3.2-3.7-5.9c0-2.8,0.1-5.7,3.8-5.7c5.7,0,11.3-0.7,16.8-2.2
		c7.5-2,12.2-6.8,13.6-14.3c0.9-4.9,1.7-9.9,1.7-14.9c0.1-41.3,0.1-82.6,0-123.9c0-2.2,0.7-4.6-1.4-6.6c-3.5-0.1-4.9,3-6.7,5.1
		c-34.9,40.2-69.8,80.4-104.5,120.7c-12,13.9-5.4,31.7,12.8,35c3.9,0.7,7.9,0.9,11.9,0.9c4.3,0,4.8,2.6,4.8,5.9c0,3.3-0.4,6.1-4.7,6
		c-0.7,0-1.3,0-2,0c-31.7,0-63.3-0.1-95,0.1c-4.2,0-5.9-1.4-5.9-5.7c0-4,0.7-6.4,5.4-6.2c5,0.3,9.9-0.7,14.8-1.6
		c7.5-1.4,11.5-6.1,13.7-12.9c1.3-4.2,1.5-8.5,1.5-12.8c0-53.6,0-107.2,0-160.9c0-0.3,0-0.7,0-1c-0.2-21.5-5.5-27.2-26.7-28.8
		c-8.8-0.7-8.8-0.7-8.2-9.9c7.5-2.1,15.2-0.9,22.7-0.9c24.6-0.2,49.2-0.1,73.8,0C567.8,2104.3,571.2,2103.4,574.3,2105.2z"/>
	<path class="st2" d="M303.6,2293.7c-12,2.7-23.7,4.6-35.7,5.6c-27.6,2.3-58.7-12.5-73.6-45c-8.8-19.3-11.4-39.9-6.2-60.5
		c8.5-33.8,35.7-57,73.1-58.5c12.1-0.5,23.9,0.9,35.3,5.3c2,0.8,4.1,2.3,6.5,1.2c0.8-15.2-4.3-22.1-18.3-24.6
		c-3.6-0.6-7.2-1.3-10.9-1.4c-5.2-0.2-5.7-3.4-5.5-7.5c0.2-3.9,2.2-4.9,5.8-4.9c32,0.1,64,0.1,95.9,0c4,0,6.3,0.9,6.4,5.5
		c0.1,4.4-1,6.9-6,6.9c-4.3,0.1-8.6,0.8-12.9,1.4c-11,1.7-17.1,8.5-17.1,18.6c0,5.7,1.2,6.8,6.4,4.8c11.7-4.5,23.8-6.1,36.2-6
		c17.9,0.2,34.4,5.4,48,17c20.2,17.2,29.9,39.5,28.2,66.2c-1.7,26.8-11.3,49.8-33.4,66.4c-16.2,12.1-34.6,16.5-54.7,14.2
		c-7.9-0.9-15.8-2.2-23.6-4.1c-6.8-1.7-7.2-1.3-7.3,6c-0.1,5.7,0.2,11.3,1.5,16.9c2.2,9.2,7.7,14.4,17.1,15.7
		c3.3,0.5,6.6,0.7,10,0.7c4.5,0,7.9,0.6,7.6,6.4c-0.3,5.3-0.8,5.9-7.7,5.9c-28.3,0-56.6,0-84.9,0c-3,0-6-0.1-9,0.1
		c-4.6,0.4-6.7-1.2-6.7-6.1c0-4.8,1.9-6.6,6.6-6.4c3.6,0.1,7.3-0.1,11-0.6c10.4-1.3,16.2-6.8,18-17c0.6-3.3,0.5-6.6,0.5-10
		C304.4,2302,304.9,2298,303.6,2293.7z"/>
	<path class="st2" d="M2728.8,2105.3c0.8,8.9,0.8,8.9-7.4,9.7c-22.8,2.2-27.2,6.2-27.4,28.9c-0.5,43.6-0.3,87.3-0.3,130.9
		c0,1.2-0.1,2.7,1.6,3.6c3,0.2,4.1-2.8,5.6-4.6c31.1-36.1,62-72.2,93-108.4c4.5-5.3,8.7-10.9,13.2-16.2c9.6-11.4,4.4-28.4-10.1-32.1
		c-4.2-1.1-8.5-1.6-12.8-2.1c-7.2-0.8-7.8-1.5-7.7-7.3c0.1-5.9,4.3-4.9,7.7-4.9c26.3,0,52.7,0,79,0c5.3,0,10.7,0.1,16,0
		c3.8-0.1,5.4,1.5,5.3,5.3c-0.1,3.6-0.1,6.8-5.1,6.7c-5.7-0.2-11.3,1-16.8,2.4c-7.3,2-12.3,6-13.3,14.3c-0.4,3.6-0.9,7.2-0.9,10.9
		c0,53.6,0,107.3,0,160.9c0,1.3,0,2.7,0,4c0.7,18,6.9,24.5,24.8,25.6c1.7,0.1,3.4,0.3,5,0.2c5-0.5,6.3,2,6.3,6.5
		c0,4.6-2.5,5.5-6.4,5.5c-32-0.1-64-0.1-96,0c-4.2,0-6-1.5-6-5.8c0-4,0.9-6.4,5.5-6.1c4.7,0.2,9.2-0.7,13.8-1.5
		c9.2-1.7,13.8-7.5,15.7-16c0.8-3.5,0.9-7.3,0.9-10.9c0.1-43,0-85.9,0-128.9c0-1.6-0.2-3.2-0.3-4.8c-3.4-0.9-4.1,2-5.5,3.5
		c-12.6,14.2-25.4,28.2-37.5,42.8c-22.8,27.4-46.6,53.9-69.8,80.9c-10.4,12.1-4.5,29.5,11.1,33.4c4.6,1.1,9.2,1.8,13.8,1.6
		c4.6-0.2,5.6,2.1,5.6,6.1c0,4.4-1.9,5.8-6,5.8c-24.7-0.1-49.3,0-74,0c-6.7,0-13.3,0.1-20,0c-6.9-0.1-7.3-0.7-7.6-6.1
		c-0.3-5.5,2.9-5.8,7-5.7c4,0.1,7.9-0.5,11.9-1.2c9.6-1.7,14.6-7.5,15.7-16.8c0.7-5.3,1.3-10.6,1.3-15.9c0.1-50.3,0-100.6,0.1-150.9
		c0-5.3-0.4-10.6-1.4-15.9c-1.7-8.8-6.7-14.3-15.6-15.9c-3.6-0.6-7.2-1.2-10.9-1.5c-8.1-0.7-8.1-0.6-7.4-9.8
		c6.1-2.1,12.5-0.9,18.7-0.9c25.9-0.2,51.7-0.1,77.6,0C2722.3,2104.3,2725.7,2103.3,2728.8,2105.3z"/>
	<path class="st2" d="M1001.8,2105.2c0.6,9.1,0.6,9.1-7.3,9.7c-23.1,1.9-27.8,6.7-27.9,29.6c-0.2,53,0,105.9,0,158.9c0,1,0,2,0.1,3
		c1.2,19.9,6.9,25.6,27,26.8c3,0.2,7-1.7,8.5,2.9c1.9,5.6-0.4,8.9-6.3,8.9c-31.3,0.1-62.6,0.1-94,0c-6,0-6.8-1.3-6.7-7.1
		c0.1-3.4,1.4-4.9,4.8-4.7c4.7,0.2,9.3-0.6,13.9-1.6c10.1-2.4,15.6-8.4,16.1-18.8c0.5-10,0.3-20,0.3-30c0-16.7,0.1-33.3-0.1-50
		c-0.1-7.9-0.2-8.1-7.7-8.1c-34.3-0.1-68.6-0.1-103,0c-7.2,0-7.4,0.2-7.4,8.2c-0.1,25-0.2,50,0,74.9c0.1,16.4,7,23.6,23.4,25.1
		c2,0.2,4,0.2,6,0.3c6.1,0.4,6.8,1.3,6.6,7c-0.1,3.2-1.3,5-4.7,4.9c-3-0.1-6,0-9,0c-29,0-58,0-87,0c-7.1,0-7.2-0.5-7.4-6.1
		c-0.2-4.4,1.7-5.9,5.9-5.7c5,0.2,9.9-0.6,14.9-1.6c7.3-1.5,11.7-5.9,13.5-13c1.1-4.5,1.9-9.1,1.9-13.8c-0.1-53.6,0-107.2,0-160.9
		c0-1.7,0-3.3-0.1-5c-1.3-15.5-6.6-21.2-22-23.4c-2-0.3-4-0.3-6-0.4c-8-0.6-8-0.6-7.3-9.9c7.1-2,14.4-0.8,21.7-0.9
		c25.2-0.2,50.4-0.1,75.6,0c3.2,0,6.6-0.9,9.7,0.9c0.5,9.1,0.5,9.3-7.4,9.7c-4,0.2-7.9,1.1-11.8,2c-11.9,2.9-15.7,7-16.1,19.2
		c-0.4,10.6-0.1,21.3-0.2,31.9c0,11.6,0.2,23.3-0.1,34.9c-0.1,4.8,1.8,6.3,6.4,6.3c35.3-0.1,70.6-0.1,105.8,0c4.2,0,5.9-1.3,5.9-5.7
		c-0.2-22.3,0.1-44.6-0.4-66.9c-0.3-11.8-6.2-17.8-18-20.1c-2.9-0.6-5.9-1.1-8.9-1.4c-8-0.9-8-0.8-7.1-9.8
		c6.8-2.1,13.8-0.9,20.6-0.9c25.2-0.2,50.3-0.1,75.5,0C995.3,2104.3,998.7,2103.4,1001.8,2105.2z"/>
	<path class="st2" d="M1536.9,2105.2c0.8,9,0.8,9-7.4,9.7c-23.5,2-27.7,5.8-27.8,29.4c-0.3,53.3-0.1,106.6-0.1,159.8
		c0,0.7,0.1,1.3,0.1,2c1,20.3,6.4,25.8,26.5,26.9c1.7,0.1,3.3,0.2,5,0.2c4.6-0.1,4.2,3.2,4.3,6.2c0.1,2.9-0.3,5.4-4,5.5
		c-1.3,0-2.7,0.1-4,0.1c-30.7,0-61.3,0-92,0c-7,0-7.5-0.7-7.7-6c-0.2-4.3,1.5-6.1,5.8-5.9c4,0.2,7.9-0.6,11.9-1.3
		c9.7-1.8,15.4-7.3,16.8-17.1c0.6-4.6,1.4-9.3,1.4-13.9c0.1-22.3,0.1-44.6,0-66.9c0-9.2-0.1-9.2-9.6-9.3c-33.6,0-67.3,0-100.9,0
		c-8.5,0-8.6,0.1-8.7,8.1c-0.1,24.3-0.1,48.6,0.1,72.9c0,3.6,0.7,7.3,1.4,10.9c1.6,7.8,6,13.1,14.1,15c4.6,1,9.2,1.9,13.8,1.6
		c4.7-0.3,6.5,1.4,6.5,6.2c0,5.4-3,5.7-7.1,5.7c-31.7-0.1-63.3-0.1-95,0c-3.9,0-6.2-0.8-6.1-5.5c0-4.6,1.3-6.8,6.2-6.5
		c4.6,0.3,9.2-0.6,13.9-1.4c9.3-1.6,13.7-7.6,15.4-16.1c0.7-3.2,0.5-6.6,0.5-10c0-53.9,0-107.9,0-161.8c0-2.3,0-4.7-0.1-7
		c-0.7-12.1-5.9-18.1-17.7-20.4c-3.9-0.7-7.9-1.3-11.9-1.4c-4.7-0.1-6.3-2-6.3-6.7c0-4.7,2.3-5.5,6.2-5.5c32,0.1,64,0.1,96,0
		c4,0,6.2,1,6,5.6c-0.2,3.9-0.7,6.6-5.4,6.4c-5.7-0.3-11.2,1.2-16.7,2.7c-7.5,1.9-12,6.4-12.8,14.6c-0.7,6.3-1,12.6-1,18.9
		c0,16.6,0,33.3-0.1,50c0,7.9,0,8.1,7.3,8.1c35,0.1,70,0.1,104.9,0c7,0,7.1-0.2,7.1-7.4c0.1-18.6,0-37.3,0-55.9c0-0.7,0-1.3,0-2
		c-1.3-20.9-6.8-26.6-27.9-28.7c-8.1-0.8-8.1-0.8-7.4-9.8c6.1-2.1,12.5-0.9,18.7-0.9c25.9-0.2,51.9-0.1,77.8,0
		C1530.4,2104.3,1533.8,2103.4,1536.9,2105.2z"/>
	<path class="st3" d="M1547.8,1589c33.4-25.8,69.8-47.2,102.7-73.5c24.6-19.7,49.8-38.7,73.9-59.1c29.3-24.9,58.4-50.2,86.1-76.9
		c30.5-29.5,61.7-58.6,88.8-91.5c3-3.6,6.4-6.8,9.6-10.2c2.9-3,5.5-5.5,10.3-2.4c4.4,2.8,5.6,5.4,4,10.6
		c-5,16.6-11.2,32.7-17.5,48.7c-11.4,29-24.3,57.5-38.1,85.4c-14.1,28.6-29.6,56.4-44.9,84.4c-20.4,37.4-42.8,73.6-65.8,109.3
		c-19.2,29.8-38.5,59.6-59.6,88.2c-17.5,23.8-34.6,47.7-53,70.8c-23.7,30-48.4,59.1-74.1,87.3c-19.3,21.2-39.3,41.5-60.6,60.7
		c-4.9,4.5-9.8,9-15.4,12.5c-6.7,2.8-13.6,0.5-20.4,1c-6-0.5-12-0.3-18-0.3c-190.5,0-381-0.1-571.5,0.1c-13.3,0-26.6-2.8-39.8-1.8
		c-20.8,1.6-41.7-1.5-62.5,1.4c-7.5,1-15.2,0.5-22.8-1.2c-8.6-1.9-17.2,0.3-25.7,1.4c-5.6,0.3-11.2,0.2-16.7,0.1
		c-4.2-0.1-8.4-0.1-12.7,0c-4.2,0.2-8.4,0.1-12.7,0c-16.5-0.1-33,0.1-49.4-0.1c-2.3-0.1-4.6-0.2-6.8-1.3c-1.6-0.9-2.1-2.4-2-4.1
		c0.4-2.5,2.4-3.1,4.4-3.8c1-0.3,2-0.5,3-0.5c1.5-0.2,3.1-0.3,4.5,0.3c0.9,0.5,1.9,1,2.8,1.4c14.8,0.6,29.6,1.6,44.3-0.8
		c13.1-0.1,26.4,1.4,39.3-2.3c10.2-2.6,20.4,0.5,30.6,0.4c230.8-1.6,461.6-0.6,692.4-0.9c7.3,0,14.5-0.1,21.9,1.3
		c10.1,1.9,17.2-5.5,23.2-11.4c6.3-6.2,12.9-12.4,18.2-19.6c7.5-12.4,18.7-21.6,28.5-31.8c58-60,107.8-126.5,155.5-194.7
		c17.8-25.3,35-51.1,51.3-77.3c27.4-44,53.7-88.8,77.8-134.7c18.6-35.3,36.6-70.9,51.8-107.9c1.4-3.4,3-6.7,5.3-9.5
		c5.2-6.7,6.9-14.8,10.3-24.9c-8.3,8.4-16,13.9-20.5,22.5c-1.3,2.7-3.3,5-5.4,7.1c-31.1,31.4-62.9,62-95.7,91.7
		c-37,33.5-75.9,64.5-115.4,94.9c-21.2,16.4-42.6,32.9-65.8,46.7c-2.9,1.1-5.6,2.6-8.1,4.3c-3,1.8-5.3,4.4-7.9,6.6
		c-0.7,0.6-1.4,1.1-2.2,1.5c-2.4,1.2-4.9,2.1-7.6,2.3c-4.5,0.5-9.7-1.1-12.8,4c-0.8,0.6-1.6,1.1-2.6,1.3
		C1550.5,1594.8,1547.1,1594.2,1547.8,1589z"/>
	<path class="st2" d="M1147.5,2599.8c1.9,3.3,5.2,2.7,8,3.3c13.8,3.1,26.7,8.1,37.6,17.4c23,19.7,28.4,56,11.9,81.6
		c-14.1,22-35.5,32.4-60.5,33.1c-39.9,1.2-79.9,0.2-119.9,0.4c-8.6,0-8.3-2.1-8.2-8.6c0.1-2.7,1.4-4.2,4.3-4.5
		c5-0.4,9.9-0.9,14.9-1.6c8.8-1.2,14.4-6.5,16.3-15.2c1.1-4.9,1.4-9.8,1.4-14.9c-0.1-52.6,0-105.2,0-157.8c0-5.7-0.3-11.3-1.3-16.9
		c-1.9-9.8-6.5-14.5-16.4-16.3c-4.6-0.8-9.3-0.9-13.9-1.3c-4.2-0.4-5.4-2.8-5.3-6.8c0.1-4,1.9-5.3,5.5-5.2c1.3,0,2.7,0,4,0
		c38,0,75.9-0.3,113.9,0.2c19.7,0.2,37.5,6.1,50.5,22c18.6,22.8,12.7,60.1-11.4,76.6c-8.1,5.5-16.5,9.8-26,12
		C1150.9,2597.9,1149,2598.4,1147.5,2599.8z"/>
	<path class="st2" d="M2206.2,2213.6c6.7,1.8,13.4,3.3,20,5.4c18.3,5.9,32.2,17.2,40.5,34.6c14.2,30,0.9,68.2-28.7,83
		c-11.1,5.5-22.9,8.5-35.6,8.5c-38.3-0.2-76.6,0-114.9-0.2c-2.9,0-7,1.8-8.2-3.2c-1.5-6,0.1-8.2,6.7-8.6c4.3-0.2,8.6-0.8,12.9-1.5
		c8.4-1.4,12.7-6.6,14.8-14.3c1.4-5.2,1.5-10.5,1.5-15.9c0-52.3,0-104.5,0-156.8c0-0.7,0-1.3,0-2c-0.7-20.4-6.5-26.2-27.1-27.7
		c-2.9-0.2-6.3,1.1-8.3-1.9c-1.6-2.3-0.8-5.2-0.2-7.8c0.7-3.1,3.6-2.3,5.8-2.3c38.3,0,76.6-0.4,114.9,0.2
		c16.3,0.3,31.1,5.7,43.9,16.5c21,17.8,22.4,65.9-10.4,82C2224.8,2206.2,2215.7,2210.1,2206.2,2213.6z"/>
	<path class="st2" d="M2060.4,2223.2c1.2,34.9-10.3,64.4-32.8,89.3c-20,22.1-45.7,34-75.1,37.8c-31,4-60.5-0.5-87.4-17.2
		c-37.7-23.5-55.8-58.7-58.6-102.1c-1.8-27.3,4.5-53,18.5-76.5c16.3-27.3,40.6-44.7,71.2-52.4c41-10.3,80-5.7,115.3,19.1
		c25.2,17.7,39.2,42.8,46.4,72.2C2060.3,2203.6,2060.4,2213.9,2060.4,2223.2z"/>
	<path class="st2" d="M1340.1,2735.6c-31.3,0-62.6,0-94,0c-7.1,0-8-1.3-7.5-8.2c0.2-3.2,1.4-4.8,4.8-4.9c4.6-0.2,9.3-0.8,13.9-1.4
		c10.5-1.4,16-6.8,17.4-17.4c0.7-5.6,1.2-11.3,1.3-16.9c0.1-51,0.1-101.9,0-152.9c0-6-0.7-12-1.5-17.9c-1.3-8.8-6.7-14.2-15.6-15.8
		c-4.9-0.9-9.9-1.2-14.9-1.6c-4.4-0.3-5.4-2.9-5.3-6.8c0.1-3.9,1.8-5.4,5.5-5.2c2,0.1,4,0,6,0c52.3,0,104.6,0,157,0
		c2.3,0,4.7,0.1,7,0c4-0.2,6,1.1,6.5,5.5c1.5,15.2,3.4,30.4,4.8,45.7c0.3,3.3,3.3,8.4-3.3,9.6c-5.3,1-7.5-1.6-8.9-6.7
		c-1.9-7-5.4-13.5-8.8-20c-7-13.4-18-20.5-32.7-21.2c-17.6-0.8-35.3-0.5-53-0.7c-0.3,0-0.7,0-1,0c-3.2,0-4.9,1.5-5,4.8c0,1,0,2,0,3
		c0,27.3-0.1,54.6,0,81.9c0,8.2,0.2,8.3,8.5,8.4c5.7,0.1,11.4,0.3,17-0.1c13.9-0.9,25.9-5.2,30.3-26.1c0.9-4.2,0.8-8.8,7.4-8.3
		c4.1,0.3,6.3,1.4,6,5.8c-0.2,2.3,0,4.7,0,7c0,21,0,42,0,63c0,3.5,0.9,7.6-4.7,8.1c-5.5,0.4-7.2-0.8-8.6-7.1c-1-4.2-1.6-8.5-3-12.6
		c-2.9-8.6-8.7-13.8-17.9-15.3c-10-1.6-20-0.7-29.9-1c-3.3-0.1-4.8,1.6-4.8,4.9c0,2.7-0.1,5.3-0.1,8c0,21.3,0,42.6,0,64
		c0,2,0,4,0.1,6c1.1,16.6,9.5,26.1,26,27.7c17.6,1.7,35.3,1.4,52.6-3c14.5-3.7,24.4-13.2,31.6-25.7c5.2-9,8.7-18.7,10.6-28.9
		c0.7-3.8,2.3-5,5.9-5.1c4-0.1,6.1,0.8,5.8,5.6c-1.6,20.9-2.7,41.8-4.3,62.8c-0.7,9.1-1,9.2-9.9,9.2
		C1400.7,2735.6,1370.4,2735.6,1340.1,2735.6z"/>
	<path class="st2" d="M2529.2,2735.6c-29,0-58,0-87,0c-2.7,0-5.3-0.1-8,0c-4.1,0.1-6.2-1.3-6.1-5.8c0.1-4,0.3-7.3,5.6-7.4
		c4.3-0.1,8.6-0.8,12.9-1.3c10-1.2,15.7-6.4,17.4-16.3c0.8-4.9,1.2-9.9,1.2-14.9c0.1-51.6,0.1-103.3,0-154.9c0-5.6-0.3-11.3-1-16.9
		c-1.3-11-7-16.7-17.8-18.3c-4.3-0.6-8.6-0.9-12.9-1.2c-4.4-0.3-5.4-2.8-5.4-6.7c0.1-3.9,1.8-5.4,5.5-5.3c1.7,0.1,3.3,0,5,0
		c53,0,106,0,159,0c1.7,0,3.3,0.2,5,0c4.9-0.5,7.2,1.3,7.6,6.5c1.5,16.2,3.5,32.4,5.3,48.6c0.3,2.4,0.5,5.2-2.7,5.5
		c-3.1,0.3-6.9,1.7-8.8-2.4c-0.7-1.5-1.2-3.1-1.6-4.7c-2.2-8.8-6.8-16.6-11.4-24.3c-4.9-8.1-12.6-12.7-21.6-15.1
		c-3.8-1-7.9-1.6-11.8-1.7c-16.3-0.2-32.7-0.1-49-0.3c-4.6-0.1-6.7,1.5-6.6,6.3c0.1,28.6,0.1,57.3,0,85.9c0,4.3,1.9,6,6,5.9
		c7.3-0.1,14.7,0.3,22-0.3c16.1-1.4,24.9-10.1,28.4-27.2c0.5-2.5,0-5.4,3.3-6.6c5.4-1.9,9,0.4,9,6.3c0.1,23.6,0.1,47.3,0.1,70.9
		c0,3.1,0,6.2-4.5,6.2c-3.7-0.1-7.5,0.3-8-5.1c-0.5-5.6-2.1-11.1-4.1-16.4c-2.5-6.7-7.1-10.8-14.2-12.7c-10.9-2.8-21.9-1.3-32.8-1.7
		c-3.2-0.1-5,1.5-5.1,4.7c0,2-0.1,4-0.1,6c0,21.7-0.1,43.3,0,65c0.1,25,9.3,34.7,34.1,35.3c13,0.3,25.9,0.1,38.8-2.2
		c18.7-3.4,31-14.2,39.4-30.6c4.1-8,7.5-16.5,8.8-25.4c0.8-5.3,3.7-5.5,7.6-5.4c4.7,0.1,4.1,3.5,3.9,6.4
		c-1.4,22.3-2.9,44.5-4.3,66.8c-0.2,3.5-1.9,4.6-5.1,4.5c-2.3-0.1-4.7,0-7,0C2588.5,2735.6,2558.8,2735.6,2529.2,2735.6z"/>
	<path class="st4" d="M1518.7,2486.7c20,0.3,42.4-0.9,64.6,1.8c9.6,1.2,19.1,2.5,28.1,6.3c17.7,7.7,28.9,20.5,32.8,39.7
		c4.2,20.2,1.5,39.2-9.8,56.4c-9.3,14.1-23.5,21.2-40,23.9c-10.2,1.6-20.5,2.4-30.8,2.2c-9.7-0.2-19.3,0.1-29-0.1
		c-4.4-0.1-6.8,0.9-6.7,6c0.2,25.6-0.1,51.3,0.4,76.9c0.3,13.8,6.6,19.8,20.1,21.4c3,0.4,5.9,0.8,8.9,1.2c6.6,0.9,7.1,1.6,7,7.8
		c-0.1,3.8-1.7,5.5-5.4,5.3c-1-0.1-2,0-3,0c-31.3,0-62.6,0-93.9,0c-7.4,0-8.9-1.9-7.9-8.8c0.4-2.8,1.7-4,4.5-4.2
		c4.6-0.4,9.3-1,13.9-1.6c10.4-1.3,16.1-6.8,17.6-17.2c0.6-4.3,0.6-8.6,0.6-13c0-52.9,0.1-105.9,0-158.8c0-4.7-0.1-9.3-0.6-14
		c-1.2-10.3-6.9-16.3-17-18.1c-4.2-0.7-8.6-1-12.9-1.1c-4.7-0.2-6.3-2.4-6.2-7c0.1-4.8,2.9-5.2,6.6-5.2
		C1479.1,2486.8,1497.8,2486.7,1518.7,2486.7z"/>
	<path class="st2" d="M2402.2,2113.3c-5.3,3.2-11.6,1.7-17.3,3.4c-11.9,3.6-15.3,6.4-16.2,18.3c-1.8,22.9-0.4,45.9-0.8,68.9
		c-0.1,4.8,2.7,5.3,6.4,5.3c12.7-0.2,25.3-0.2,38-0.3c15.3,0,29.8,3.6,43,11.2c42.3,24.3,43.2,82.9,12.1,108.2
		c-12.5,10.2-26.9,16.4-43,16.5c-40,0.4-80,0.2-119.9,0.1c-3,0-7,1.4-8.1-3.4c-1.3-5.4,0.5-7.8,6.2-8.4c4.6-0.5,9.3-0.9,13.9-1.7
		c7.8-1.3,12.3-6.3,14.1-13.7c1.5-6.2,1.8-12.5,1.8-18.8c0-50.3,0.1-100.6,0-150.8c0-5-0.5-10-1.2-14.9c-1.6-10-5.9-14.3-15.8-16.6
		c-3.6-0.9-7.2-1.2-10.9-1.5c-8.1-0.6-8.1-0.7-7.4-9.8c8.2-2.2,16.5-0.8,24.8-0.9c24.3-0.2,48.6,0.1,72.9-0.2
		C2401.8,2104,2404.9,2105.9,2402.2,2113.3z"/>
	<path class="st2" d="M1889.3,2663.2c14.2,9.9,14.1,9.8,5.7,23.4c-11.4,18.4-27.7,31.1-46.5,41.3c-29.3,15.9-60.6,19.3-91.9,10.2
		c-40.7-11.8-70.1-37.4-82.7-79.3c-11.3-37.5-9.6-74.4,7.9-109.7c18.7-37.6,48.7-61.3,90.7-67.2c29-4.1,57.1,0.6,83.2,14.6
		c3.5,1.9,6.9,4,10.4,6c2.9,1.7,5.1,1.2,6.5-1.8c1.2-2.4,2.1-4.9,3.2-7.3c2.5-5.6,4.8-6.9,9.7-5.9c4.9,1,3.8,4.7,3.9,7.9
		c0.9,22.6,1.8,45.2,2.6,67.8c0.1,2.7,0.1,5.3,0.1,8c0,2.3,0,5.1-3.1,5.3c-3.2,0.2-7,1.4-8.8-2.6c-1.1-2.4-1.6-5.1-2.4-7.6
		c-5.2-16.3-12.6-31.4-23.5-44.8c-10.5-13-23.7-21.7-39.8-24.9c-27-5.4-52.8-3.4-73.2,17.9c-11.9,12.4-20.3,27.1-25.1,43.8
		c-10.8,37.7-10.4,75.2,4.7,111.5c21.8,52.7,75,63.1,116.1,44.5c21.6-9.7,38.3-25.1,49.1-46.4
		C1887.2,2666.4,1888.1,2665.1,1889.3,2663.2z"/>
	<path class="st2" d="M1219.2,2345c-14.3,0-28.6-0.1-43,0.1c-4.7,0.1-6.6-1.5-6.4-6.3c0.2-3.7,1.2-5.6,5.2-5.5
		c3.3,0.1,6.7,0.2,10-0.2c11.5-1.1,15.3-6.4,12.1-17.6c-3.8-13.1-9.5-25.6-15-38c-7.6-17.2-2.2-14.2-22.2-14.4
		c-23.6-0.2-47.3,0.1-70.9-0.2c-5.5-0.1-8.4,1.5-10.3,6.8c-5.1,14-11,27.8-16.4,41.7c-5.2,13.5,0,21,14.7,21.7c2.3,0.1,4.7,0.2,7,0
		c5-0.5,6.4,1.8,6.2,6.4c-0.2,3.6-1,5.5-5.1,5.5c-24.6-0.1-49.3-0.1-73.9,0c-4.3,0-4.9-2.3-4.8-5.7c0-3.1-0.1-6.1,4.4-6.1
		c3,0,6-0.1,9-0.5c11.9-1.7,20-8.4,24.5-19.4c8.7-21.2,17.5-42.4,26.1-63.6c19.4-47.4,38.7-94.8,58.1-142.2c1.6-3.9,2.4-8.3,8.4-8.3
		c7,0,8.3,0.3,11.3,7.2c9.1,21.1,18.1,42.2,27.2,63.2c17.9,41.5,35.8,83.1,53.6,124.6c2.1,4.9,3.9,9.9,6,14.8
		c5.8,13.2,13.9,23.6,29.9,24.2c4.3,0.2,4.5,3,4.5,6.2c0,3.5-1.1,5.7-5.1,5.7C1249.2,2345,1234.2,2345,1219.2,2345z"/>
	<path class="st2" d="M1780.5,2165.9c0,6.3-0.1,12.7,0,19c0,2.8,0.3,5.7-3.5,5.9c-3.5,0.2-7.6,1.2-8.9-4
		c-2.7-10.7-6.8-20.9-11.5-30.8c-23.3-49.6-81.6-55.9-113.3-34.1c-16.2,11.2-26.5,26.9-32.6,45.4c-12,36.6-12.7,73.3,1.1,109.6
		c7.9,20.8,20,38.6,40.9,48.3c25.8,11.9,51.6,11,77.1-1.4c19.2-9.3,33.3-24,43.8-42.4c1.4-2.5,1.4-9,7.1-4.9
		c9,6.4,10.1,6.8,6.7,13.6c-10.3,20.3-25.5,35.9-45.6,46.1c-43,21.7-85.9,21.4-127.7-3.3c-24.8-14.7-39.4-37.6-47.3-64.5
		c-12.2-41.4-7.5-81.6,15.9-118c23.6-36.7,58.8-53.8,102.5-53.1c23.5,0.3,45.4,6.7,65.5,18.6c7.1,4.2,8.9,6.6,13.4-4.8
		c0.6-1.5,1.3-3.1,1.9-4.6c1.7-4.2,5.5-3.2,8.6-3c3.1,0.2,2.9,3.1,3,5.4c0.8,19,1.6,37.9,2.4,56.9
		C1780.2,2165.9,1780.3,2165.9,1780.5,2165.9z"/>
	<path class="st2" d="M334.6,2641.9c2-0.9,2.6-2.9,3.4-4.6c17.5-36.2,35.1-72.5,52.5-108.8c1.6-3.3,3.1-6.7,4.1-10.2
		c3.4-11.5-0.1-17.2-11.9-19.1c-3.9-0.6-8-0.7-11.9-0.9c-3.8-0.2-6.3-1.5-6.1-6c0.2-4.3,2.3-5.7,6.4-5.6c24.3,0.1,48.7,0.1,73,0
		c3.4,0,5.8,0.7,5.8,4.9c0,3.8-0.5,6.5-4.9,7.1c-3,0.4-5.9,1.1-8.8,2c-11,3.4-19.2,10-24.5,20.5c-15.7,31.2-31.4,62.4-47.6,93.4
		c-16.8,32.1-31.8,65.1-49.4,96.9c-5.4,9.8-13.5,16.6-22.3,22.4c-15,9.9-37.9,3.5-45.8-11.9c-4.5-8.8-2.8-19,4.3-25.7
		c5.9-5.6,15.3-5.7,23.9-0.1c3.4,2.2,6.7,4.2,10.8,5c8.7,1.8,15.9,0.2,20.4-8.2c0.8-1.5,1.7-2.9,2.8-4.2c5.9-7.5,6.5-13.7,0.5-22.8
		c-16.3-24.7-32.9-49.3-48.8-74.3c-15.9-25-31.9-50-49.1-74.1c-6.5-9-13.2-17.7-25.4-19.2c-4.8-0.6-4.1-4.4-4.1-7.7
		c0-4.6,3.4-4.1,6.4-4.1c21.7,0,43.3,0,65,0c7,0,14,0,21,0c7.9,0.1,8.6,0.7,8.8,6c0.3,6.4-4.1,5.6-8.1,5.7
		c-4.3,0.2-8.7,0.1-12.8,1.6c-6.8,2.4-9,5.8-8,12.9c0.7,4.6,1.7,9.1,4.3,13.2c23.8,36.9,47.5,73.9,71.2,110.9
		C331.2,2638.9,332.1,2641.2,334.6,2641.9z"/>
	<path class="st2" d="M2303.7,2486.7c34.3,0,68.6,0,102.9,0c9.7,0,9.6,0.1,10.7,9.8c1.5,14.2,3.2,28.4,4.5,42.7
		c0.3,2.8,2.2,7.1-3.3,7.6c-4.2,0.4-7.5,0-9-5.4c-2.2-7.6-5.7-14.8-9.6-21.9c-6.1-10.9-15.2-17.6-27.4-19.5
		c-15.2-2.4-30.6-0.8-45.9-1.1c-3.3-0.1-4.8,1.7-4.9,4.9c0,2.3-0.1,4.7-0.1,7c0,60.9,0,121.9,0,182.8c0,4.7,0.2,9.3,1.8,13.8
		c2.8,8,8,12.8,16.6,13.6c4,0.4,7.9,0.9,11.9,1.4c5.8,0.8,6.3,1.7,6.2,7.6c0,4.6-2.4,5.5-6.3,5.5c-32.3-0.1-64.6-0.1-96.9,0
		c-4.5,0-6.7-1.4-6.6-6.3c0.1-4.4,1-6.9,6.1-6.8c4,0,7.9-0.8,11.9-1.3c10.6-1.5,16.2-6.4,18-17c1-5.5,1.3-11.3,1.3-16.9
		c0.1-59.3,0.1-118.5,0.1-177.8c0-1.7-0.2-3.3,0-5c0.3-4.5-2.1-5.7-6.1-5.6c-13,0.2-26,0-39,0.5c-15.6,0.5-27.2,7.4-34.2,21.8
		c-3.3,6.9-6.4,13.9-9.1,21c-1.6,4.2-7.4,6.4-11.1,4.3c-2.8-1.5-1.7-4.1-1.5-6.3c1.3-12.6,2.4-25.2,4.3-37.7
		c0.8-5.1-1.5-11.7,3.2-15c3.9-2.7,9.7-0.8,14.7-0.8C2239.1,2486.7,2271.4,2486.7,2303.7,2486.7z"/>
	<path class="st2" d="M2774.2,2600.9c0,29.6,0,59.3-0.1,88.9c0,5.7,0.5,11.3,2,16.8c2.3,8.1,7.8,13,16.2,14.3
		c4.6,0.7,9.2,1.4,13.9,1.6c4.9,0.3,4.9,3.5,4.9,7c0,3.4-1,5.9-5,5.9c-1.7,0-3.3,0.1-5,0.1c-30.3,0-60.7,0-91,0
		c-7.8,0-9-1.5-8.2-8.5c0.4-3.3,1.8-4.5,5.1-4.6c4-0.1,7.9-0.9,11.9-1.4c11-1.4,15.9-5.8,18.3-16.6c0.6-2.9,0.9-5.9,0.9-8.9
		c0.1-63,0.1-125.9,0.1-188.9c0-7.6-0.1-7.8-7.8-7.8c-13,0.1-26-0.6-39,0.6c-14.3,1.3-25.2,7.4-31.6,20.9c-3.3,6.9-6.9,13.7-9,21
		c-1,3.6-2.8,5.7-6.9,5.7c-5.3,0-6.5-0.6-6.1-6.2c0.8-11.3,2.1-22.5,3.3-33.8c0.3-3,0.9-5.9,1.1-8.9c0.9-13,1.1-11.5,12-11.5
		c68.7-0.1,137.3-0.1,206-0.1c9.2,0,9.1,0,10,9.1c1.5,14.6,3.1,29.1,4.6,43.7c0.3,2.8,2.4,6.1-2.1,7.4c-4.7,1.4-8.4-0.4-10.1-5.2
		c-2.8-7.8-5.8-15.6-10-22.8c-6.2-10.8-15.4-17.3-27.7-19c-14.9-2-30-0.6-44.9-1c-6.3-0.2-5.7,4-5.7,8.1c0,26,0,52,0,77.9
		C2774.2,2590.3,2774.2,2595.6,2774.2,2600.9z"/>
	<path class="st5" d="M730.1,1925.3c-8.6,2.4-17.2,5.4-26.3,2.8c-3.9-1.1-7.8-0.6-11.7-0.8c-6.5-1.1-15.2,3.6-18.1-7.6
		c6.2-2.6,13.5-2.1,20.1-4.5c11.5-4.5,23.9-4.9,35.9-7.2c9.7-1.9,19.5-4,29.4-5.3c22.6-3.1,44.6-9.3,67-13.7
		c11.9-2.3,23.9-4.9,35.6-8.5c7.8-2.4,16.1-3.6,24.1-5.9c19.1-5.4,38.1-10.7,57.3-15.8c31.8-8.5,63.3-17.9,94.5-28
		c28.9-9.4,58-18.4,86.3-29.4c37.4-14.5,74.7-29.6,111.7-45c28.5-11.9,56.1-25.5,83.8-39.2c26.2-13,52.4-26,78.3-39.5
		c20-10.5,39.3-22.1,58.7-33.6c18.2-10.9,36.7-21.4,54.9-32.4c9.4-5.6,18.4-11.8,27.5-17.9c2.8-1.9,5.5-3.7,8.8-4.6
		c1.5,3.8,4.6,4.7,8.2,4.4c0,0,0.1,0,0.1,0s0,0.1,0,0.1c0,0-0.1-0.1-0.1-0.1c-0.2-3.9,1.1-6.2,5.5-6c2.9,0.2,5.8,0.1,8.7,0.1
		c1,1.3,1.1,2.7,0.6,4.3c-13.2,10.7-27.5,19.7-42,28.5c-49.7,30.2-99,61-151.2,87c-11,5.5-22.2,10.6-33.3,15.7
		c-13.4,6-26.3,13.1-39.5,19.6c-12,6.4-24.9,10.9-36.8,17.2c-0.8,0.5-1.6,0.9-2.5,1.3c-5.4,1.5-10.1,4.5-15.3,6.4
		c-6.3,2-12.4,4.1-17.8,8c-17.5,8.3-35.6,14.9-53.6,21.8c-5.1,0.7-9.2,3.4-13.4,6.2c-44.4,18.3-89.9,33.2-135.6,47.6
		c-43.8,13.7-87.6,27.5-132.2,38.3c-31.3,7.6-62.6,15.4-94.3,21.8c-3.3,0.7-6.6,0.8-9.9,0.8c-6.3,0.4-13.7,1.1-18.8,0.2
		c-8.8-1.6-13,5.7-20.1,5.5c-3.3-0.1-6.8,0.8-9.9-0.3C736.6,1914.5,732.6,1918.3,730.1,1925.3z"/>
	<path class="st2" d="M2536.5,2225.2c0-26,0-51.9,0-77.9c0-4.3,0.1-8.7-0.5-13c-1.6-10.9-7.4-16.2-18.4-17.5
		c-3.3-0.4-6.6-1.1-9.9-1.1c-4.5,0-6.6-1.6-6.6-6.5c0-5.1,2.5-6,6.9-6c26,0.1,51.9,0.1,77.9,0c5.7,0,11.3,0.1,17-0.1
		c3.6-0.1,5.7,1.2,5.6,5.1c0,3.5,0,6.7-4.8,7.1c-4.6,0.4-9.3,0.9-13.8,1.8c-10.4,2-15,6.8-16.5,17.2c-0.6,4.3-0.7,8.6-0.7,12.9
		c0,51.3,0,102.5,0,153.8c0,5,0.1,10,1.1,14.9c2.2,10.3,7.8,15.5,18.3,16.9c3,0.4,6,0.4,9,0.6c7.1,0.6,7.6,1.3,7.6,7.2
		c0,6.6-4.7,5.1-8.5,5.2c-15.3,0.1-30.6,0-46,0c-15.3,0-30.6-0.1-46,0.1c-4.2,0.1-7.3-0.2-7.3-5.5c0-5.3,0.9-6.5,6.9-7
		c3.3-0.3,6.7-0.3,10-0.7c10.9-1.3,16.8-7,18.3-17.9c0.5-3.3,0.4-6.6,0.4-10C2536.5,2278.4,2536.5,2251.8,2536.5,2225.2
		C2536.5,2225.2,2536.5,2225.2,2536.5,2225.2z"/>
	<path class="st6" d="M2281.9,1528.7c0.1,14.3,1.4,28.8-0.1,42.9c-1.8,16.6-0.2,33.3-2,49.7c-2.2,20.1-2.5,40.4-4.4,60.4
		c-1.2,13.3,2.2,25.5,2.8,38.2c0.1,3.3,2.4,6.3,1.8,9.7c-0.9,5.5-1.9,11-2.9,16.6c-4.4-1-3.6-4.6-2.9-6.4c3.3-9,0.6-17.5-1.1-27.5
		c-1.7,4.2-1.1,7.4-1,10.4c0.1,17.3-3.1,34.4-3.2,51.5c-0.1,11.3-1.8,22.9,0.6,34.2c0.8,3.6,1.4,7.5-0.5,10.7
		c-3.1,5.2-3,10.8-2.9,16.5c0.4,16.6-2.2,33-3.6,49.5c-1.4,15.8-0.3,31.9-0.3,47.5c23.2,6.3,46.4,4.5,69.5,4.6c23,0.1,46-0.1,69,0.1
		c8.6,0.1,17.2-0.2,25.7-3c-2.8-3-2.2-6.7-2.2-10.3c0-10,0-20,0-30c0-6.6-0.7-13.3,3.1-19.4c1.6-2.6,0.9-5.9,0.9-8.8
		c0-208.2,1.4-416.4-0.6-624.6c-0.9-98.2-0.6-196.4-1.2-294.6c-0.6-98.3-0.1-196.5-0.2-294.8c0-10,2.5-19.7,2.2-29.7
		c-4.7-151.1-0.9-302.3-2.1-453.4c-0.1-15.6,3.4-31.1,2-46.7c-0.2-2.3,0.2-4.7-0.3-7c-0.5-2.5-2.6-1-4.1-1
		c0.5-12.6,2.9-25.1,2.4-37.8c5.4-0.4,1.4,4.8,3.7,6.2c-0.1,26.3-0.3,52.6-0.3,78.9c0,152.6-0.1,305.2,0,457.8
		c0.1,202.2-0.9,404.5,0.8,606.7c1.7,206.2,0,412.4,1.3,618.6c0.2,28.6,0.4,57.3,0.5,85.9c0,8.2-0.1,8.4-8.3,8.4c-53,0-106,0-159,0
		c-7.9,0-7.8-0.2-7.4-7.8c2.5-43.5,4.8-87,7.4-130.6c2-33.5,3.9-67.1,5.8-100.6c2.5-42.8,5.3-85.7,7.8-128.5
		C2279.3,1557.1,2279.1,1542.7,2281.9,1528.7z"/>
	<path class="st2" d="M2757.6,2071.6c-19.1-1-38.1-2.2-54.8-12.8c-12.6-8-17.4-21.1-12.6-34.5c2.9-8,11.6-15.1,23-13.2
		c8.9,1.5,15.3,9.3,15.4,19.2c0,3.6-0.6,7.3-0.9,10.9c-0.6,7,0.6,9.8,7.3,12.3c15.6,5.7,31.3,5.6,46.9-0.3c6.1-2.3,7.3-5.1,6.9-11.7
		c-0.2-3-0.7-5.9-0.9-8.9c-0.7-10.8,5.7-19.8,15.1-21.5c10.3-1.8,20.9,5,23.7,15.2c3.3,12.4-1,23.9-11.8,31.3
		c-11.6,8-24.9,10.8-38.5,12.6C2770.1,2071.1,2763.8,2071.2,2757.6,2071.6z"/>
	<path class="st7" d="M1476.1,1933.3c3.3-1.8,6.7-2.7,10.4-0.9c2.5,1.2,5.2,0.8,7.8,0.9c-2.6,3-6.1,3.9-9.8,3.9c-2,0-4,0-6,0
		c-247.2,0-494.5,0-741.7,0c-32,0-64,0-96,0c-8,0-8.6-0.9-8.6-8.3c0-6.1,3.6-6.2,8-5.7c0.7,0.4,0.9,0.9,0.7,1.3
		c-0.2,0.4-0.5,0.7-0.7,0.7c-0.7,0-1.3,0-2,0c-1,1.2-2.9,0.7-3.9,2c0,1.3,0,2.7,0,4c2.4,1.9,5.2,0.7,7.8,1
		c14.9,1.9,29.8,0.7,44.7,0.9c2.1,0,3.9-0.5,5.5-1.9c4,0,8,0,12,0c4,2.8,8,2.8,12,0c5.3,0,10.7,0,16,0c18.9-0.4,37.7,1.2,56.6,0.7
		c22.6-0.5,45.2-1.4,67.8-0.3c4.3,0.2,8.6,0.6,12.9,0.6c198.3,0,396.6,0,594.9,0.1C1468.2,1932.4,1472.2,1931.4,1476.1,1933.3z"/>
	<path class="st8" d="M2429.5,2881.2c0,10.3,0.1,20.6,0,30.9c-0.1,3.9,0.7,6.6,5.3,6.5c4-0.1,5.1,2.2,5,5.7c-0.1,6,0,12,0,18
		c0,3.8-2,5.2-5.7,5.2c-3.9,0-5.3-2-5.3-5.5c0-0.7-0.1-1.3,0-2c0.5-13.8-0.5-12.3-12.5-12.4c-11.3-0.1-22.6,0-33.9,0
		c-11,0-11,0-11.1,10.6c0,1.3-0.1,2.7,0,4c0,4.6-2.9,5.2-6.7,5.3c-4.4,0.1-4.6-2.7-4.6-5.9c0-4.3,0.1-8.6,0-13
		c-0.2-5-0.8-9.8,6.3-11.1c3.2-0.6,4.3-4.8,5.7-7.8c4.9-10.4,6.4-21.5,6.9-32.9c0.3-8.6,1.2-17.2,1.4-25.9c0.1-4.3,1.7-5.9,5.9-5.9
		c12.6,0.1,25.3,0.2,37.9,0c4.6-0.1,5.6,2.3,5.6,6.2C2429.5,2861.2,2429.5,2871.2,2429.5,2881.2z"/>
	<path class="st9" d="M2288,2884.4c0.2,19.6-9.3,31.4-26.9,35.1c-4.6,1-8.2,1.7-7.6,7.8c0.3,3-2.3,3.7-4.8,3.6c-2.3,0-5.7,0-5.5-2.9
		c0.5-7.9-5-7.7-10.1-8.9c-13.7-3.2-23.1-13.6-24.6-26.8c-1.9-16.1,4.1-28.4,16.7-35.5c3.6-2,7.6-2.4,11.4-3.3
		c3.5-0.8,6.5-1.6,6.1-6.1c-0.4-4.2,1.7-6.1,5.9-5.9c4,0.1,5.3,2.4,5,5.8c-0.5,6.1,4.3,5.8,8,6.5c12.9,2.6,21.5,9.9,25.2,22.6
		C2287.8,2879.7,2287.8,2883,2288,2884.4z"/>
	<path class="st10" d="M2789.7,2868.3c-7.3,11.5-13.8,21.8-20.3,32.1c-4.6,7.3-9.6,14.4-13.9,21.9c-2.3,4.1-5.2,5.4-9.6,5.5
		c-3.9,0-5.4-1.3-5.3-5.2c0.1-5.3,0-10.6,0-16c0-18.3,0-36.6,0-54.9c0-2.9-0.8-6.1,3.9-6.6c5.5-0.6,7.3,0.5,7.4,6.1
		c0.2,14.6,0,29.3,0.1,43.9c0,2.8-0.6,5.8,1.6,10.5c6.5-10.4,12.3-19.5,18-28.6c5.8-9.3,11.8-18.5,17.5-27.8
		c1.7-2.8,3.9-4.1,7.3-4.2c3.9,0,6.6,0.7,6.1,5.4c-0.1,1,0,2,0,3c0,22.6,0,45.2,0,67.9c0,3.3,0.6,6.9-4.7,6.8
		c-4.7-0.1-6.2-2.3-6.2-6.9c0.2-15,0-29.9-0.1-44.9C2791.5,2874,2792,2871.7,2789.7,2868.3z"/>
	<path class="st10" d="M793.4,2869.8c-4-0.1-4.3,2.7-5.4,4.5c-9.9,15.7-19.8,31.5-29.7,47.3c-0.7,1.1-1.5,2.2-2.3,3.3
		c-3,4-7.3,3.1-11,2.2c-3.2-0.8-2.3-4.4-2.3-6.9c0-22.6,0-45.2,0-67.9c0-3.8-0.3-7.3,5.4-7.3c4.8,0,6.5,1.5,6.4,6.3
		c-0.2,15-0.1,29.9,0,44.9c0,2.5-1,5.3,1.5,8.2c7.1-8.6,12.2-18.1,17.9-27.2c5.8-9.3,11.8-18.5,17.4-27.9c2.3-3.8,5.5-4.2,9.3-4.1
		c3,0.1,4.1,1.6,4.2,4.3c0,1,0.1,2,0.1,3c0,23-0.2,45.9,0.1,68.9c0.1,6-1,6.6-7,6.3c-4.6-0.2-4.1-3.5-4.1-6.4c0-14,0-27.9,0-41.9
		C793.8,2876,793.5,2872.9,793.4,2869.8z"/>
	<path class="st11" d="M2872.5,2869.3c-3.9,0.3-4.5,3.8-6,6.1c-9.8,15.4-19.4,30.9-29.1,46.4c-0.9,1.4-1.8,2.8-2.9,4
		c-2.7,2.8-6.2,2-9.4,1.3c-3-0.6-2.6-3.4-2.6-5.7c0-23.3,0-46.6,0-69.8c0-3-0.2-6,4.2-6.5c5.4-0.6,7.2,0.6,7.2,6.2
		c0.1,14,0.1,27.9,0.1,41.9c0,3.3,0,6.6,0,9.8c3.2,1.3,3.6-1.3,4.5-2.8c10.3-16.3,20.5-32.6,30.8-48.9c2.1-3.4,3.9-6.8,9.1-6.4
		c4.2,0.3,5.9,1.7,5.8,5.9c-0.2,12,0,23.9,0,35.9c0,11.6,0,23.3,0,34.9c0,3.3-0.4,5.8-4.7,5.9c-4.4,0.1-5.8-1.9-5.8-6
		c0.1-15,0.1-29.9,0-44.9C2873.6,2874.3,2874.8,2871.5,2872.5,2869.3z"/>
	<path class="st8" d="M1810.3,2904.1c5.6-8.8,11.4-17.5,16.9-26.3c5.9-9.3,11.6-18.6,17.4-27.9c0.4-0.6,0.8-1.1,1.1-1.6
		c2.6-4.5,7-3.6,10.7-2.7c3.3,0.8,2.3,4.4,2.3,6.8c0.1,23,0.1,45.9,0.1,68.9c0,3.7-0.4,6.4-5.2,6.4c-5.3,0.1-5.9-2.8-5.9-7
		c0.1-14,0.1-28,0.1-41.9c0-3.2-0.3-6.3-0.4-9.5c-4.3,0-4.7,3.2-6.1,5.2c-9.9,15.7-19.8,31.5-29.7,47.3c-0.9,1.4-1.6,3.1-2.8,4.1
		c-3.1,2.5-6.9,2.3-10.4,1.2c-2.8-0.9-1.8-4-1.8-6.2c-0.1-23-0.1-45.9,0-68.9c0-3.3-0.5-6.9,4.6-7.1c5.1-0.2,6.7,0.7,6.7,5.9
		c0.1,14.3,0,28.6,0,42.9c0,3.2,0.3,6.3,0.4,9.5C1809.1,2903.6,1809.7,2903.8,1810.3,2904.1z"/>
	<path class="st12" d="M1764.7,2867.1c-6.6,10.4-12.3,19.7-18.1,28.9c-5.7,9-11.5,17.9-17.2,26.9c-1.5,2.3-2.9,4.2-6,4.7
		c-6,0.8-7.9-0.4-7.9-6.5c-0.1-22.9,0-45.9,0-68.8c0-3.8-0.5-7.3,5.3-7.3c5.4,0,5.8,3,5.8,7.1c-0.1,15.3-0.1,30.6-0.1,45.9
		c0,1.9-0.9,4,2,5.9c6.3-7.9,11.3-16.7,16.7-25.2c6.1-9.5,12-19.1,17.9-28.8c1.9-3.1,4.1-4.8,7.9-4.9c4.3,0,6.8,0.7,6.7,5.9
		c-0.2,23.6-0.2,47.2-0.1,70.8c0,4.2-1.3,6-5.7,5.9c-4.4-0.1-5.7-2.1-5.7-6.1c0.1-14,0.1-27.9,0-41.9
		C1766.2,2876,1767,2872.4,1764.7,2867.1z"/>
	<path class="st13" d="M354.6,2904.3c5.5-8.6,11.1-17.2,16.5-25.9c6-9.6,12-19.1,17.8-28.8c1.9-3.2,4.2-4.6,8-4.6
		c4.3,0,5.9,1.5,5.9,5.8c-0.1,23.6-0.1,47.2,0,70.8c0,4.1-1.2,6.1-5.7,6c-4.8-0.1-5.2-2.9-5.2-6.6c0.1-14,0-27.9,0-41.9
		c0-3.2,0-6.4,0-10.2c-4.3,0.7-5.1,3.4-6.4,5.5c-9.7,15.5-19.3,31-29,46.5c-1.1,1.7-2,3.6-3.4,4.9c-3.1,2.7-7,2.2-10.4,1.2
		c-2.7-0.8-1.8-4-1.8-6.2c-0.1-22.9-0.1-45.9-0.1-68.8c0-3.4-0.3-6.7,4.8-6.9c5.3-0.2,6.4,0.3,6.5,5.9c0.1,14.3,0.1,28.6,0.1,42.9
		c0,3.2,0,6.4,0,9.7C353,2903.8,353.8,2904.1,354.6,2904.3z"/>
	<path class="st13" d="M2116.8,2903.7c6.8-7.9,11.6-17.3,17.2-26.1c5.9-9.2,11.6-18.6,17.4-27.9c1-1.7,2-3.4,4-4.3
		c6-2.5,10.2,0.2,10.2,6.9c0.1,22.9,0,45.9,0.1,68.8c0,3.8-0.5,6.4-5.3,6.4c-4.8,0.1-6.4-1.8-6.3-6.5c0.2-15,0.1-29.9,0-44.9
		c0-2.2-0.2-4.4-0.3-6.7c-3.7-0.1-4.3,2.5-5.4,4.3c-10.1,16-20.1,32.1-30.1,48.2c-0.9,1.4-1.7,3-2.9,4c-2.8,2.3-6.3,1.8-9.5,1.1
		c-3.1-0.7-2.1-3.7-2.1-5.8c-0.1-23.3-0.1-46.6,0-69.8c0-5.9,1.1-6.5,6.1-6.3c4.3,0.2,4.7,2.7,4.6,6c0,10,0,20,0,29.9
		c0,6,0.1,12,0.1,18C2114.6,2900.6,2114.3,2902.4,2116.8,2903.7z"/>
	<path class="st13" d="M1293.9,2884.3c7.2,5.6,12.1,10.7,12.1,19c0,12.3-6.6,21.4-18.7,23.5c-10.9,1.9-21.9,0.6-32.9,0.8
		c-2.9,0.1-4.2-1.6-4.1-4.4c0-1.7,0-3.3,0-5c0-21.3,0-42.6,0-63.9c0-9.1,0.1-9.1,9.5-9.2c7.7,0,15.3-0.4,23,0.2
		c14.5,1.1,23.2,11.6,20.8,24.7C1302.4,2875.6,1299.3,2880.3,1293.9,2884.3z"/>
	<path class="st10" d="M715.5,2884.9c9.6,5.4,12.3,13.4,11.2,23.1c-1.3,10.6-8.3,18-19.8,19c-9.9,0.9-20,0.3-30,0.5
		c-3.9,0.1-5.2-1.8-5.2-5.5c0.1-23.6,0.1-47.3,0-70.9c0-5,2.3-6.2,6.7-6.1c7.3,0.2,14.7,0,22,0.1c9.5,0.1,18.2,2.6,22.7,11.6
		C727.8,2865.7,725.1,2874.6,715.5,2884.9z"/>
	<path class="st8" d="M2656.6,2886.3c0-11.6,0.1-23.3-0.1-34.9c-0.1-4.7,1.7-6.5,6.5-6.4c5,0.1,5,3.2,5,6.7
		c0,19.3-0.1,38.6-0.1,57.9c0,8.9,0.1,9,8.7,9c7.7,0.1,15.3,0.1,23,0c7.6-0.1,7.9-0.2,8-7.9c0.2-18,0.1-35.9,0.1-53.9
		c0-1.3-0.1-2.7,0-4c0.1-7.1,0.7-7.7,5.9-7.9c5.9-0.2,5.1,3.8,5.1,7.4c0,18,0,35.9,0,53.9c0,2.7,0,5.3,0.1,8
		c0.1,1.7,0.6,3.9,2.4,3.8c7.5-0.1,6.2,5.1,6,9.7c-0.2,5-0.7,10-0.9,14.9c-0.2,3.6-2.6,4.2-5.5,4.1c-2.9-0.1-4.3-1.4-4.3-4.3
		c0-0.3,0-0.7,0-1c-0.3-4.3,1.7-9.7-1.2-12.6c-3.7-3.6-9.5-1.4-14.4-1.4c-12.6-0.2-25.3-0.2-37.9,0c-4.7,0.1-6.5-1.6-6.4-6.4
		C2656.8,2909.6,2656.6,2898,2656.6,2886.3C2656.6,2886.3,2656.6,2886.3,2656.6,2886.3z"/>
	<path class="st14" d="M1549.9,2886.8c0.7,8.8-0.6,17-4.4,24.5c-5.5,11-14.4,17-27,17.2c-13.2,0.2-23.6-4.8-29.2-16.9
		c-7.7-16.6-7.3-33.8-0.2-50.3c4.8-11.2,14.3-17,26.9-17.2c12.8-0.2,22.6,4.6,28.8,16C1549.4,2868.5,1550.6,2877.7,1549.9,2886.8z"
		/>
	<path class="st15" d="M1018.2,2886.5c0,11.3,0,22.7,0,34c0,3.8,0.2,7.3-5.4,7.2c-5.1-0.1-6-2.8-6-7c0.1-17.3,0-34.6,0-52
		c0-2.7-0.2-5.3,0-8c0.3-4.6-1.5-6.8-6.3-6.5c-5.7,0.3-11.3,0.3-17,0.1c-4.4-0.1-5.6,2-5.7,6c-0.5,13-1.3,25.9-2.2,38.9
		c-0.5,6.7-1.7,13.2-5.1,19.1c-3.5,6.1-8.8,8.8-15.6,9.1c-2.4,0.1-4.9,0.1-5.1-3.2c-0.2-2.4-0.3-4.9,2.7-5.6
		c9.4-2.2,10.9-9.8,12.1-17.6c2.1-13.2,1.3-26.6,2.1-39.9c1-16.1,0.8-16.1,16.4-16.1c9.3,0,18.7-0.1,28,0c6.9,0.1,7,0.2,7.1,7.4
		C1018.3,2863.9,1018.2,2875.2,1018.2,2886.5z"/>
	<path class="st14" d="M187.3,2886c0-11.3,0.2-22.6-0.1-33.9c-0.2-5,0.7-7.2,6.4-7.1c16.3,0.3,32.6,0.3,48.9,0
		c5.1-0.1,7.1,1.5,7,6.8c-0.2,23.3-0.2,46.6-0.1,69.9c0,3.9-0.6,6.4-5.4,6.1c-4-0.3-6-1.4-6-5.8c0.2-18,0-35.9,0-53.9c0-2,0-4,0-6
		c-0.2-7.5-0.2-7.6-8-7.7c-8.3-0.1-16.6,0.1-25-0.1c-5.2-0.2-7,1.9-6.9,7.1c0.2,18,0.1,35.9,0.1,53.9c0,2.3-0.1,4.7,0,7
		c0.2,4.4-2.1,5.6-6.2,5.6c-4.1-0.1-4.9-2.2-4.9-5.7C187.3,2910,187.2,2898,187.3,2886C187.2,2886,187.3,2886,187.3,2886z"/>
	<path class="st16" d="M451.3,2885.9c0-11.3,0.2-22.6-0.1-33.9c-0.1-5.1,1.6-7.1,6.9-7c16.3,0.2,32.6,0.2,48.9,0
		c4.9-0.1,6.4,1.8,6.4,6.4c-0.1,23.3-0.1,46.5-0.1,69.8c0,3.7-0.8,6.4-5.5,6.4c-5.4,0-5.7-3.1-5.6-7.2c0.1-18.9,0.1-37.9,0-56.8
		c0-9.3-0.1-9.4-9.3-9.4c-6.7,0-13.3,0-20,0c-10.5,0-10.5,0-10.5,10.1c0,17.3,0,34.6,0,51.9c0,2.3-0.1,4.7,0,7
		c0.1,3.5-2,4.5-5.1,4.5c-3.3,0-5.9-0.6-5.9-4.8C451.4,2910.5,451.4,2898.2,451.3,2885.9C451.3,2885.9,451.3,2885.9,451.3,2885.9z"
		/>
	<path class="st8" d="M2013.1,2846.4c-4.6,6-8.7,11.4-12.8,16.9c-4.4,5.8-8.4,12-13.2,17.5c-3.6,4.1-2.3,6.9,0.4,10.2
		c8.3,10.4,16.6,20.8,24.9,31.2c1,1.2,2.4,2.3,2.3,4.8c-5.9,1.5-11.1,1.9-15.6-3.9c-6.4-8.5-13.3-16.6-20-24.9
		c-1.3-1.6-2.5-3.1-3.8-4.6c-2.3-2.6-5.4-2.6-8.3-1.8c-3.5,0.9-2.8,4.1-2.8,6.6c-0.1,8,0,16,0,24c0,2.9-0.3,5.3-4.1,5.3
		c-3.5,0-6.9,0.1-7.1-4.7c-0.1-1.3-0.1-2.7-0.1-4c0-22-0.1-43.9,0-65.9c0-2.8-1-6.2,2.8-7.7c4.8-1.8,8.4,0.5,8.5,5.8
		c0.1,7.6-0.1,15.3,0,23c0.1,2.8-1.5,6.5,2.5,7.7c4.1,1.2,6.5-1.4,8.9-4.7c6.4-8.9,13.6-17.3,19.9-26.2
		C2000,2844.9,2005.2,2843.9,2013.1,2846.4z"/>
	<path class="st17" d="M2087,2886.1c0,7.7-0.1,15.3-3,22.6c-4.4,11.2-12.4,18.2-24.3,19.6c-12.2,1.5-23.2-1.3-30.7-12.2
		c-4.2-6.2-7.2-12.8-7.1-20.4c0.1-9.6-1.1-19.2,2-28.7c5.1-15.6,17-23.9,33.2-22.8c15.4,1.1,26.9,11.9,29,28
		C2086.8,2876.7,2086.8,2881.4,2087,2886.1z"/>
	<path class="st11" d="M268.5,2886.5c0-11.6,0.1-23.3-0.1-34.9c-0.1-4.6,1.4-6.6,6.3-6.5c9.6,0.2,19.4-0.7,28.9,0.3
		c21.2,2.1,27.9,19.8,21.4,37.2c-3.3,8.8-11.7,12.3-21,12.9c-5.6,0.3-11.3,0-17,0.2c-6.8,0.2-7,0.5-7.1,7.6
		c-0.1,6.3-0.2,12.6,0,18.9c0.2,4.8-2.7,5.2-6.3,5.4c-4.1,0.3-5.2-1.6-5.2-5.3C268.6,2910.4,268.5,2898.4,268.5,2886.5z"/>
	<path class="st8" d="M1414.8,2886.8c0-11.6,0.1-23.2-0.1-34.9c-0.1-5,1.6-7.2,6.9-7c9,0.3,17.9-0.2,26.9,0.2
		c18.5,0.8,29.5,16.4,24.2,34c-2.5,8.4-8.6,13.1-16.8,15.3c-4.6,1.2-9.2,0.9-13.9,1c-19.2,0.3-15.7-1.8-16.2,16.7c0,2,0.2,4,0,6
		c-0.4,3.8,2.2,9.4-5.2,9.4c-5.3,0-5.8-0.8-5.9-9.9c0-0.3,0-0.7,0-1C1414.8,2906.7,1414.8,2896.8,1414.8,2886.8z"/>
	<path class="st18" d="M890.9,2885.2c0-11,0.1-22-0.1-33c-0.1-4.7,0.9-7.4,6.5-7.3c13,0.3,26,0.1,39,0.1c3.1,0,6.2,0.1,6.2,4.4
		c0,4.1-2.6,4.7-6,4.7c-9.3-0.1-18.7,0.2-28,0c-4.6-0.1-6.4,1.4-6.7,6.2c-1.2,20.5-1.3,20.5,19.4,20.5c4,0,8,0.1,12,0.2
		c3.1,0.1,3.9,2.1,4,4.6c0,2.7-1.2,4.5-4.1,4.5c-7.7,0-15.3,0-23,0.1c-7.7,0.1-8.2,0.3-8.1,7.7c0.2,24.7-3.6,19.9,19.3,20.5
		c5.7,0.1,11.3,0,17,0.1c3,0,5.1,1.1,5.1,4.6c0,3.8-2.5,4.3-5.3,4.3c-14,0-28,0-42,0.1c-4.7,0-5.3-2.7-5.3-6.5
		C890.9,2909.2,890.9,2897.2,890.9,2885.2z"/>
	<path class="st14" d="M532.1,2886c0-11.7,0.1-23.3-0.1-35c-0.1-4.2,1.2-6.1,5.6-6c9.7,0.2,19.4-0.6,29,0.2
		c21.6,1.8,28.8,19.1,22.6,36.5c-3.2,9-11.2,12.8-20.5,13.6c-4.6,0.4-9.3,0.2-14,0.2c-11.2,0-11.2,0-11.2,10.7c0,5.3-0.1,10.7,0,16
		c0.1,4.7-2.7,5.2-6.5,5.3c-4.2,0.1-5-2-5-5.5C532.2,2910,532.1,2898,532.1,2886C532.1,2886,532.1,2886,532.1,2886z"/>
	<path class="st19" d="M2452.7,2886.2c0-11-0.1-22,0-32.9c0.1-7.9,0.2-8,7.6-8.1c12.3-0.1,24.6-0.1,36.9,0c2.9,0,6.4-0.7,6.5,4
		c0.1,4.6-2.6,5.3-6.5,5.2c-9-0.2-18,0.1-27-0.1c-4.6-0.1-6.3,1.7-6.5,6.4c-1,20.4-1.2,20.4,19.4,20.4c3,0,6,0.1,9,0
		c3.5,0,6.9,0,6.7,5c-0.2,4.3-3.2,4.4-6.3,4.4c-6.7,0-13.3-0.1-20,0c-8.6,0.1-8.6,0.1-8.7,9.1c-0.1,4-0.1,8,0,12
		c0.2,6.9,0.3,7,7.5,7.1c8,0.1,16,0,24,0.1c2,0,4,0,6,0.3c2.5,0.4,2.9,2.3,3,4.4c0,2.3-1.1,3.9-3.4,4c-3.3,0.2-6.6,0.1-10,0.2
		c-10,0-20,0.1-30,0c-8.1-0.1-8.1-0.2-8.2-8.5c-0.1-5.7,0-11.3,0-17C2452.7,2896.8,2452.7,2891.5,2452.7,2886.2z"/>
	<path class="st17" d="M660.4,2926.3c-10.5,1.6-10.5,1.6-13.6-6.3c-5.3-13.5-5.3-13.5-20.4-13.6c-0.7,0-1.3,0-2,0
		c-15.9-0.1-15.9-0.1-21.6,14.6c-0.6,1.5-0.8,3.4-1.8,4.6c-2.6,2.9-6.2,2.6-9.2,1.3c-2.9-1.3-1.1-4-0.3-6
		c8.8-23.3,17.6-46.6,26.3-70c1.1-2.8,1.8-5.5,5.7-5.9c4.8-0.5,7.2,1.5,8.7,5.9c4.5,12.8,9.4,25.6,14.2,38.3
		C650.9,2901.4,655.5,2913.4,660.4,2926.3z"/>
	<path class="st8" d="M2645,2926.2c-9.9,2.1-9.9,2.1-13-5.7c-5.5-14-5.6-13.1-20-14.3c-13.3-1.1-22.3,1.3-25,16.2
		c-1.1,6-2.5,5.9-11.7,3.8c-0.1-4.5,2.5-8.2,3.9-12.2c7.7-20.9,15.6-41.7,23.5-62.6c1.3-3.5,2.4-6.5,7.4-6.5c5,0,6,3,7.3,6.5
		c8.7,23.3,17.5,46.7,26.3,70C2644.4,2923,2644.6,2924.6,2645,2926.2z"/>
	<path class="st20" d="M2517.5,2885.6c0-11.3,0.1-22.7-0.1-34c-0.1-4.5,1.2-6.8,6.2-6.6c9.7,0.3,19.4-0.4,29,0.3
		c19.2,1.2,30,21.3,20.9,38.3c-4.2,7.8-11.3,11.1-19.7,11.8c-5.3,0.4-10.7,0.1-16,0.2c-9.4,0.2-9.6,0.4-9.7,9.5c-0.1,5,0,10,0.1,15
		c0.1,3.8,0.5,7.4-5.1,7.7c-5.7,0.3-5.5-3.3-5.5-7.1c0-11.7,0-23.3,0-35C2517.6,2885.6,2517.6,2885.6,2517.5,2885.6z"/>
	<path class="st8" d="M1321.6,2886.5c0-11.6,0.1-23.3-0.1-34.9c-0.1-4.6,1.5-6.6,6.3-6.6c13,0.2,26,0.1,38.9,0
		c3.3,0,5.9,0.4,5.7,4.7c-0.1,4.4-3,4.4-6.1,4.4c-9,0-18,0.2-27,0c-4.9-0.1-7,1.1-7.3,6.6c-0.8,20.1-1,20.1,18.9,20.1
		c4,0,8,0.1,12,0c3.2-0.1,5.1,1.1,4.9,4.6c-0.1,3.3-1.7,4.8-5,4.8c-7.3,0-14.6,0-22,0c-8.4,0.1-8.5,0.1-8.7,8.2
		c-0.1,3.3-0.1,6.7-0.1,10c0,10,0.1,10.1,9.7,10.1c7,0,14,0,21,0c2,0,4,0,6,0.1c2.9,0,4.1,1.6,4.3,4.4c0.2,2.9-1.2,4.4-4,4.4
		c-14.3,0-28.6,0-42.9,0c-4.2,0-4.7-2.8-4.7-6.1C1321.6,2909.8,1321.6,2898.2,1321.6,2886.5z"/>
	<path class="st21" d="M2301.3,2885.6c0-11,0-22,0-32.9c0-7.3,0.1-7.5,6.9-7.6c13-0.1,26-0.1,38.9,0c4.7,0.1,6.3,2.2,5.3,5.9
		c-0.8,3-3,3.1-5.4,3.1c-8.7,0-17.3,0-26,0.1c-8.9,0.1-8.9,0.1-9.1,8.6c-0.3,18-0.3,18,17.6,18.1c4.3,0,8.7,0,13,0
		c3.3-0.1,5,1.4,5,4.7c-0.1,3.3-2,4.7-5.2,4.7c-8,0-16,0.2-24,0c-4.6-0.1-6.7,1.6-6.5,6.4c0.3,5,0.2,10,0,15c-0.3,5.1,1.7,7.2,6.9,7
		c8-0.3,16-0.1,24-0.1c2,0,4,0,6,0c3.3,0,4.8,1.6,4.7,4.9c-0.1,3.1-2,4-4.6,4c-5,0-10,0-15,0c-7.7,0-15.3,0-23,0
		c-9.6,0-9.6-0.1-9.7-10C2301.2,2906.9,2301.3,2896.3,2301.3,2885.6z"/>
	<path class="st9" d="M1168.6,2870.2c-9.3,1.3-9.9,1.5-12.1-5.3c-5-15.4-25.8-14.1-32.7-4.9c-1.6,2.2-3.3,4.3-4,6.8
		c-3.5,12.4-3.7,25.1-0.6,37.4c3.2,12.5,13.5,17.6,25.4,14.7c6.5-1.6,10.2-5.8,12.1-12c0.9-2.9,1.4-5.7,5.5-5.9
		c5.8-0.4,7.2,1.1,5.6,6.8c-3,11-9.8,17.9-21.2,19.9c-12.4,2.1-23.9,0.8-32.4-10c-2.7-3.4-5.1-7.2-5.9-11.4
		c-2.9-14.5-3.9-29.1,1.4-43.2c5.3-14.2,17.7-20.4,34.8-18.7c12.6,1.3,21.2,9.6,24,22.9C1168.8,2868.3,1168.6,2869.3,1168.6,2870.2z
		"/>
	<path class="st11" d="M1037.2,2885.7c0-11.6,0.1-23.3,0-34.9c0-3.5,0.5-5.7,4.8-5.7c4,0,6.3,0.9,6.1,5.5c-0.2,6-0.1,12,0,18
		c0.2,10.6,0.2,10.6,10.4,10.6c5,0,10-0.3,15,0.3c16,2.1,24.8,14.7,21.1,29.9c-2.4,10-10.5,17.1-21.5,17.7c-10,0.6-20,0.2-29.9,0.4
		c-4.4,0.1-5.8-2-5.8-6C1037.3,2909.6,1037.2,2897.7,1037.2,2885.7C1037.2,2885.7,1037.2,2885.7,1037.2,2885.7z"/>
	<path class="st9" d="M1625.7,2902.4c-4,18.9-13.3,26.4-31.4,26.1c-16-0.2-27.3-10.1-30.2-26.4c-1.8-10.3-2.1-20.5-0.1-30.7
		c4.6-22.8,21.9-31.5,43.5-25.7c11.4,3.1,16.6,12.5,18.1,23.9c-9.3,2.3-9.6,2.4-12.5-5.2c-3.1-8-9.1-11.3-17-11.3
		c-8.3,0-15.4,3.6-18.4,11.4c-5.5,14.4-5.8,29.3,0.1,43.7c3.2,8,9.8,11.5,18.3,11.3c8.4-0.2,14.5-3.7,17.5-12.1
		C1616,2900.5,1616.3,2900.6,1625.7,2902.4z"/>
	<path class="st8" d="M1637.7,2886.6c-0.3-9.4,0.7-18.5,5.1-27.1c10.5-20.8,44.6-19.4,53-3c1.2,2.4,2.6,4.7,3.1,7.3
		c0.5,2.4,2.8,5.1-0.7,6.9c-3.5,1.8-8.2,0-9.7-3.5c-4.6-10.8-10-14.9-18.9-14.3c-9.7,0.7-16.8,6.9-19.3,17.4
		c-2.6,10.8-2.7,21.8-0.1,32.6c3.1,12.4,11.7,18.1,23.5,16.4c7.4-1.1,12-5.1,14.4-12.1c0.7-2.1,0.4-5,3.2-5.7
		c2.5-0.7,5.4-1.3,7.7,0.6c2.3,1.9,0.6,4.3,0,6.4c-3.1,11.1-10.4,17.6-21.7,19.4c-12.1,1.9-23.2,0.2-31.6-10.1
		C1638.2,2908.6,1637.4,2897.8,1637.7,2886.6z"/>
	<path class="st14" d="M1875.7,2883.4c0.1-4.2-0.4-11.5,2.3-18.6c8.2-22.2,30-23.5,44.4-18c7.2,2.8,11.7,8.6,13.9,16.1
		c0.8,2.6,3.5,5.7-0.1,7.9c-3.5,2.1-8.7-0.2-10.1-4.3c-2.2-6.4-5.7-11.1-12.7-12.7c-11.1-2.4-21,2.6-24.5,13.4
		c-4,12.3-3.9,25.1-0.5,37.4c3.3,11.9,13.4,17.3,24.6,14.6c6.8-1.7,11.1-5.9,12.8-12.6c0.8-3.3,1.8-5.4,5.7-5.6
		c5.9-0.3,7.2,1.1,5.6,6.8c-3.4,12.4-12.9,19.8-26.3,20.7c-15.1,1-26-5.2-31.8-17.6C1875.4,2903,1875.6,2894.8,1875.7,2883.4z"/>
	<path class="st22" d="M1200.8,2890.2c0-10-0.1-19.9,0-29.9c0.1-4.1-1.4-6.1-5.7-6c-4.6,0.2-9.3-0.2-14-0.1c-3.6,0-5.8-1.2-5.7-5.1
		c0.1-3.7,2.8-4,5.6-4c14.6,0,29.3,0,43.9,0c3,0,6,0,9,0c2.7,0,4.5,0.8,4.5,3.9c0,3-0.6,5.3-4.3,5.2c-4,0-8,0-12,0
		c-9.9,0.1-9.9,0.2-10,9.7c0,17.3,0,34.6,0,51.8c0,1.7-0.1,3.3,0,5c0.2,3.9,0.2,7.4-5.4,7.3c-4.9-0.1-6.2-2.5-6.1-7
		C1200.9,2910.8,1200.8,2900.5,1200.8,2890.2z"/>
	<path class="st23" d="M842.3,2890.2c0-10-0.1-19.9,0.1-29.9c0.1-4.2-1.4-6.2-5.7-6.1c-5,0.1-10-0.1-15,0c-3.6,0-5.6-1.3-5.5-5.2
		c0-4,2.8-3.9,5.5-3.9c17.6,0,35.2,0,52.8-0.1c3.4,0,5,1.4,4.9,4.7c-0.1,3.2-1.6,4.8-5,4.6c-4.6-0.2-9.3,0.2-14-0.1
		c-5.1-0.3-7,1.6-7,6.9c0.3,14.6,0.1,29.2,0.1,43.8c0,5.6-0.1,11.3,0,16.9c0,3.5-0.8,5.7-4.9,5.8c-4,0-6.3-1-6.2-5.6
		C842.5,2911.5,842.4,2900.8,842.3,2890.2C842.3,2890.2,842.3,2890.2,842.3,2890.2z"/>
	<path class="st6" d="M2423.9,113.9c1.7,16.9-0.1,33.9-2.5,50.5c-1.8,12.2-3.9,24-2.9,36.3c0.1,0.9,0.2,2.1-0.2,2.8
		c-6.2,12.4-7.1,25.8-8.2,39.2c-0.6,6.5-2,13-3,19.5c-1.1,7.2-3.6,14.1-2.9,21.5c0.2,2.7-0.5,5.2-1.7,7.7c-1,2.1-2,4.3-2.2,6.5
		c-1,21.5-7.4,41.9-12,62.7c-2.6,11.6-2.9,23.5-6.1,35c-3.2,11.7-5.4,23.7-8.2,35.5c-0.6,2.6-1.5,5.1-4,6.6
		c0.6-12.7,4.6-24.8,7.4-37c5.2-22.3,9.3-44.9,13.7-67.3c7.6-38.8,14-77.9,19.7-117c3.5-24.3,7.3-48.6,9.5-73.2
		C2421.1,133.5,2422.6,123.7,2423.9,113.9z"/>
	<path class="st24" d="M640.1,1925.3c0-0.7,0-1.3,0-2c10.9-3.5,22.4-4.2,33.6-5.8c6.7-0.9,13.4-3.2,20.4-2.3
		c-5.4,3.8-11.7,4-17.9,4.4c0.1,2.3,2.8,1.7,3.2,3.3c1.2,3.9,2.9,4.7,6.4,2c3-2.3,5.6-2,6.3,2.4c-1.3,1.8-3.3,2-5.3,2
		c-12.5,0-25,0-37.4,0c-2,0-3.9-0.2-5.3-2c9.8-3.6,19.9-3.4,29.2-1.8c-9.1-3-19.2,0.6-29.2-0.2
		C642.7,1925.3,641.4,1925.3,640.1,1925.3z"/>
	<path class="st25" d="M2135.9,2840.4c-8.2,0.1-14.8-3.7-17.1-9.5c-0.8-1.9-1.5-3.9,0.6-5.3c1.7-1.2,3.8-1.1,5.7-0.2
		c0.6,0.3,1,0.8,1.5,1.3c8.3,8.1,8.3,8.2,16.3,0.2c2.2-2.2,4.7-3,7.1-1.5c3.1,1.9,1.5,4.8,0.2,7
		C2146.7,2838.1,2141.1,2839.9,2135.9,2840.4z"/>
	<path class="st26" d="M1828.3,2840.4c-7.1,0-14-4.1-16.1-9.6c-0.7-1.9-1.3-4,0.8-5.3c1.8-1.1,4-1,5.6,0.2c1.2,0.9,1.8,2.7,2.9,3.9
		c4.3,4.8,9,4.7,13.4-0.2c0.6-0.7,0.9-1.8,1.5-2.6c1.7-2.3,4.1-2.4,6.2-1.3c2.7,1.3,1.9,3.9,1.1,6.1
		C1841.6,2836.6,1835.1,2840.4,1828.3,2840.4z"/>
	<path class="st27" d="M2402.2,2113.3c-1.1-7.9-1.1-8-8.8-8.1c-32.1,0-64.3,0-96.4,0c0.7-2.7,2.9-2.3,4.8-2.3
		c31.9,0,63.8-0.1,95.7,0C2404.7,2103,2405,2104,2402.2,2113.3z"/>
	<path class="st28" d="M728.7,2105.3c-35.3,0-70.6,0-105.9,0c1-3.2,3.7-2.3,5.8-2.3c31.5-0.1,63-0.1,94.5,0
		C725.1,2103,727.9,2101.8,728.7,2105.3z"/>
	<path class="st28" d="M2728.8,2105.3c-35.3,0-70.7,0-106,0c0.9-3.3,3.7-2.3,5.8-2.3c31.5-0.1,63.1-0.1,94.6,0
		C2725.2,2103,2728,2101.9,2728.8,2105.3z"/>
	<path class="st28" d="M1536.9,2105.2c-35.4,0-70.8,0-106.2,0c0.9-3.3,3.7-2.3,5.7-2.3c31.6-0.1,63.2-0.1,94.8,0
		C1533.2,2103,1536,2101.9,1536.9,2105.2z"/>
	<path class="st28" d="M847.6,2105.2c-35.6,0-71.3,0-106.9,0c0.4-2.2,2.1-2.2,3.7-2.2c33.2,0,66.4,0,99.5,0
		C845.6,2103,847.3,2103,847.6,2105.2z"/>
	<path class="st28" d="M1001.8,2105.2c-35.3,0-70.5,0-105.8,0c0.7-2.6,2.9-2.3,4.8-2.3c32.1,0,64.2,0,96.2,0
		C998.9,2103,1001.1,2102.5,1001.8,2105.2z"/>
	<path class="st28" d="M574.3,2105.2c-35.4,0-70.8,0-106.2,0c1-3.1,3.7-2.3,5.8-2.3c31.5-0.1,63.1-0.1,94.6,0
		C570.6,2102.9,573.3,2102,574.3,2105.2z"/>
	<path class="st29" d="M2429.8,82.4c-2-1.6-0.9-5.1-3.7-6.2c0-14.1,0-28.2,0-43.3c3.7,4.4,3.8,4.4,4,24.8
		C2430.2,66,2430.9,74.2,2429.8,82.4z"/>
	<path class="st30" d="M2282,723.8c-1.2-2.7,1.6-7.4-3.9-7.9c0.9-3.7,1.3-7.6,5.3-12C2284,711.7,2285.7,717.8,2282,723.8z"/>
	<path class="st31" d="M2131.8,1001.5c-0.2,4.4-1.7,8-5.7,10.3C2127.1,1007.8,2128,1003.8,2131.8,1001.5z"/>
	<path class="st32" d="M1847.8,1667c-0.1,4.6-1.6,8.3-6.1,10.2C1842.8,1673.3,1844.5,1669.7,1847.8,1667z"/>
	<path class="st33" d="M2185.7,911.3c0.5,3.2-0.8,5.3-3.8,6.4C2181.9,914.8,2183.6,912.9,2185.7,911.3z"/>
	<path class="st34" d="M1833.7,1693c0.5,3-0.7,5.2-3.4,6.5C1830.2,1696.7,1831.3,1694.5,1833.7,1693z"/>
	<path class="st35" d="M1788,1773.3c0.2,1.8-0.3,3.2-2.1,3.9C1785.8,1775.5,1786.3,1774.1,1788,1773.3z"/>
	<path class="st36" d="M2150,971.7c0.1,1.8-0.3,3.2-2.2,3.9C2147.8,973.9,2148.3,972.4,2150,971.7z"/>
	<path class="st37" d="M1746.1,1839.4c0.1,1.9-0.3,3.4-2.5,3.7C1743.9,1841.5,1744.4,1840.1,1746.1,1839.4z"/>
	<path class="st36" d="M2147.9,975.6c0,1.2-0.6,1.9-1.7,2.3C2146.3,976.7,2146.8,975.9,2147.9,975.6z"/>
	<path class="st35" d="M1789.9,1771.2c-0.1,1.1-0.8,1.9-1.9,2.2C1788.1,1772.1,1788.8,1771.5,1789.9,1771.2z"/>
	<path class="st37" d="M1747.9,1837c-0.1,1.2-0.7,1.9-1.8,2.3C1746.1,1838.1,1746.8,1837.4,1747.9,1837z"/>
	<path class="st38" d="M1672,1933.2c68.9,0,137.9,0.1,206.8,0.1c78.3,0,156.5,0,234.8,0c3.3,0,6.6,0,9.9,0c0.1,0.7,0.1,1.3,0.2,2
		c-3.2,0-6.3,0-9.5,0c-141.2,0-282.4,0-423.6,0c-4.6,0-9.3-0.7-13.9,0.7C1674.1,1936.7,1672.9,1935,1672,1933.2
		C1671.9,1933.2,1672,1933.2,1672,1933.2z"/>
	<path class="st38" d="M2134.2,1935.3c-0.6,0.2-1.2,0.5-1.7,0.7c-1.1,0.4-2.6,1.5-3-0.2c-0.3-1.2,1.3-2.1,2.6-1.9
		C2132.8,1934,2133.5,1934.9,2134.2,1935.3C2134.2,1935.4,2134.2,1935.3,2134.2,1935.3z"/>
	<path class="st6" d="M2423,186.6c-1.2-3.1-1.4-5.9,0.2-9C2424.4,180.8,2424.6,183.5,2423,186.6z"/>
	<path class="st39" d="M806.3,2666.3c0-44.2,0-88.4,0-132.6c0.3,0,0.7,0,1,0c0,44.3,0,88.7,0,133
		C807,2666.5,806.7,2666.4,806.3,2666.3z"/>
	<path class="st40" d="M340.2,2217.6c0-16.9-0.1-33.9,0-50.8c0-9.4,1.3-11.6,10.3-14.6c34.3-11.3,71.2,7.8,74.2,44.9
		c1.4,16.8,2,33.3-3.2,49.3c-11.1,34.3-30.5,40.1-59,37.9c-20.9-1.6-22.3-4-22.3-24.9C340.2,2245.5,340.2,2231.5,340.2,2217.6z"/>
	<path class="st40" d="M304.6,2219.1c0,17.7-0.3,35.3,0.2,53c0.1,5.8-2.3,8.7-7.3,10.1c-13.4,3.8-27.1,4.2-40.5,1.2
		c-13.5-3.1-22.6-12.4-28.8-24.5c-5.1-9.9-8.2-20.3-8.5-31.5c-0.5-13.7,0-27.3,3.3-40.6c4.3-17.4,16.5-28,32.3-34
		c13.4-5.1,27.5-4.5,41.1,0.4c6.6,2.4,8.1,4.7,8.2,11.9C304.6,2183.2,304.6,2201.2,304.6,2219.1z"/>
	<ellipse class="st41" cx="2815" cy="2243.3" rx="0.5" ry="104"/>
	<path class="st42" d="M1312.4,2312.5c0-56.2,0-112.4,0-168.6c0.3,0,0.6,0,1,0c0,56.3,0,112.7,0,169
		C1313,2312.7,1312.7,2312.6,1312.4,2312.5z"/>
	<path class="st40" d="M1178.1,1795.4c14.3-5.9,28.6-11.7,43-17.6c3.7-1.5,7.4-2.9,11.1-4.4c5.6-2.7,11.6-4.3,17.3-6.9
		c5.8-1.8,11.2-4.5,16.6-7.2l0,0c13-6.6,27.1-10.8,39.7-18.5c12.9-6.2,25.9-12.3,38.4-19.4c20.9-10.8,41.9-21.4,62.7-32.5
		c19.9-10.6,40.3-20.6,59.2-32.9c30.9-20.1,63.5-37.4,93.5-58.9c3.2-2.3,7-3.9,10.4-5.9c2.1-2.9,5.7-3.6,8.1-5.9l0,0
		c3-1.6,5.2-4.2,7.7-6.4c3.3-1,5.5-3.8,8.3-5.6c18.9-12.3,36.7-26.2,55-39.3c8.3-6,16.6-12,24.6-18.4c18.4-14.7,36.8-29.3,55.1-44.1
		c11.8-9.6,23.8-19.1,34.9-29.5c8.5-7.9,17-15.7,25.6-23.4c29-25.9,56.4-53.6,83.8-81.2c1.2-1.2,2-2.6,3-4
		c4.4-6.3,10.3-11.1,15.6-16.4c1.1-1.1,2.5-2.5,4.2-1.3c1.7,1.1,1.3,3,0.9,4.5c-1.8,5.9-4.3,11.6-6.8,17.2
		c-4.2,6.8-6.9,14.3-10.1,21.6c-9.8,22.9-20.4,45.3-32,67.4c-7.7,14.7-15.3,29.4-22.7,44.2c-4.6,9.2-10.3,17.9-15.2,26.9
		c-13,23.6-26.8,46.6-40.8,69.6c-15.5,25.5-32.1,50.3-48.4,75.3c-21,32.4-44.2,63.1-66.7,94.3c-13.6,18.8-28.4,36.7-43.2,54.7
		c-20.7,25.1-42.2,49.5-64.7,73.1c-8.2,8.5-17.3,16.2-24.1,26c-10.8,10.2-20.1,22-32.7,30.3c-3.6,2.3-7.2,3.6-11.3,3
		c-12.6-1.6-25.3-0.8-37.9-0.8c-212.8-0.1-425.7,0-638.5-0.1c-14.6,0-29.2,2.4-43.8,0.5c-1-0.1-2,0.3-3,0.2
		c-2.5-0.5-6.1-0.3-6.2-3.6c-0.1-3.2,3.5-3.3,6-3.8c12.6-2.4,25.2-4.9,37.8-7c9.8,0.7,19-2.9,28.4-4.9c37.5-8,74.8-17.2,111.9-27.1
		c18.8-5.1,37.2-11.6,56-16.9c22.6-6.4,45.1-13.4,67.4-20.8c20.5-6.8,40.9-13.8,61.2-20.9c16.3-5.7,32.5-11.7,48.7-17.6
		C1169.8,1798.9,1174.5,1798.3,1178.1,1795.4z"/>
	<path class="st24" d="M792.3,1909.4c-10.6,5.5-22.5,4.9-33.7,7.7c-3.1,0.8-6.7-0.1-8.8,3.5c9.2,2.4,18.4,1,27.6,1
		c232.4-0.1,464.8-0.1,697.2,0.1c9.8,0,17.2-2.9,23.7-9.8c6.1-6.5,12.8-12.6,19.3-18.7c1.2-1.1,2.9-1.6,4.3-2.4
		c-1.3,5.1-5.2,8.4-8.9,11.7c-3.6,3.3-9,4.9-8.4,11.2c-5-0.6-3.7,8.9-10.3,6.2c-1.9-0.8-3.6,1.4-4.9,2.9c-3.9,4.9-9.1,5.4-14.4,3.7
		c-4-1.3-7.9-1.3-11.8-1.3c-222.1,0-444.2,0-666.3,0c-4,0-7.9,0.1-11.8,1.2c-5.8,1.6-11.9,1.1-17.8,0.2c-1.6-0.3-3.5-1.6-4.8-1.1
		c-10.9,3.8-21.7-2.1-32.5-0.3c-0.2-11.9,0.8-13,10.5-10.7c4.3,1,8.6,0.5,12.9,0.7c4.7,0.3,8.7,0.1,9.1-6.2c0.1-1.7,1.5-3,3.3-3.4
		c1.2-0.3,3-0.7,2.7,1.4c-0.2,1.7-2.4,3.9,1.4,4c2.2,0.1,6.1,1.1,6.3-1c0.9-6.4,3.3-3.9,6.3-1.9
		C785.5,1910.1,789.1,1909,792.3,1909.4z"/>
	<path class="st5" d="M1476.1,1933.3c-244.2,0-488.4,0-732.6-0.1c-3.8,0-8.1,1.5-11.4-1.9c5.7,0.7,10.9-2.7,16.7-2.1
		c4.9,0.5,9.8,0.5,14.8,1.3c8.1,1.4,16.5,1.5,24.8-0.3c7.2-1.6,14.5-1.7,21.7,0.1c3.7,0.9,7.3,1.4,10.9,0.7c13.5-2.7,27-2.6,40.5,0
		c3.5,0.7,7.3,0.2,11,0.2c197.1,0,394.2,0,591.4,0.1C1467.8,1931.4,1472.4,1929.7,1476.1,1933.3z"/>
	<path class="st5" d="M692.1,1931.3c-0.4,3.5-2.8,4-5.7,3.9c-15.4-0.5-31,1.5-46.3-2c-0.7-0.4-0.9-0.9-0.7-1.3
		c0.2-0.4,0.4-0.7,0.7-0.7C657.4,1931.3,674.7,1931.3,692.1,1931.3z"/>
	<path class="st43" d="M1890,1337.5c-0.2-7.3,6.2-13,5.6-21.1c-8.1,4.7-12.2,12.8-19.5,17.2c-0.1-3,1.8-4.8,3.7-6.7
		c5.4-5.4,10.7-10.8,16.1-16.1c1.3-1.3,2.5-3.3,5.6-1.7C1898.2,1318.7,1897.2,1329.3,1890,1337.5z"/>
	<path class="st5" d="M644.1,1925.3c1.4-1.8,3.3-2,5.4-2c8.8,0,17.7,0,27.4,0c-5.3,7.2-11.1,0.2-16,2.2c-5.4,2.2-11.1,1.7-16.7,1.8
		C644.1,1926.6,644.1,1925.9,644.1,1925.3z"/>
	<path class="st5" d="M716.1,1931.3c-5.5,5.3-6.5,5.3-12,0C708.1,1931.3,712.1,1931.3,716.1,1931.3z"/>
	<path class="st44" d="M1586.1,1579.6c-1.9,3.1-4,5.8-8.1,5.8c1.9-3.4,4.5-6.1,8-7.9c0.7,0.4,0.9,0.9,0.7,1.3
		C1586.6,1579.3,1586.3,1579.6,1586.1,1579.6z"/>
	<path class="st45" d="M1586.1,1579.6c0-0.7,0-1.4,0-2c2.7-1.4,4.5-4.4,8-4.1C1592.4,1576.8,1590,1579.1,1586.1,1579.6z"/>
	<path class="st44" d="M1578,1585.4c-1.5,3.7-4.9,4.6-8.1,5.9c0.1-1.3,0.2-2.5,0.3-3.8C1572.8,1586.8,1575.4,1586.1,1578,1585.4z"/>
	<path class="st24" d="M640.1,1931.3c0,0.7,0,1.3,0,2c-2.2-0.1-4.6,0.4-6-2C636.1,1931.3,638.1,1931.3,640.1,1931.3z"/>
	<path class="st24" d="M634.1,1927.3c0.8-1.6,2.3-2,3.9-2C637.2,1926.9,635.7,1927.2,634.1,1927.3z"/>
	<path class="st40" d="M1090.1,2653.9c0-12.6-0.1-25.3,0-37.9c0.1-8.4,0.3-8.5,8.3-7.9c7,0.5,14,0.5,20.9,1.1c6,0.5,12,1.1,17.8,2.4
		c18.7,4.3,30.8,15.7,33.9,34.8c2.6,15.9,2,31.9-3.7,47.2c-7,18.8-19.3,27.2-39.5,27.6c-7,0.2-14-0.4-20.7-2.3
		c-8.3-2.3-13.9-7.3-15.7-16.2c-0.9-4.3-1.2-8.5-1.2-12.9C1090.1,2677.9,1090.1,2665.9,1090.1,2653.9z"/>
	<path class="st40" d="M1090,2547.7c0-14-0.1-27.9,0-41.9c0.1-6.9,0.2-7.1,7.4-7c9,0.1,17.9-0.4,26.9,0.5
		c21.4,2.2,29.5,8.6,34.3,29.5c2.9,12.7,2.9,25.7-0.6,38.4c-3.7,13.3-13.4,21.4-25.9,25.3c-11.7,3.7-24.3,3.5-36.5,4.1
		c-4.5,0.2-5.7-2-5.6-6C1090,2576.3,1090,2562,1090,2547.7C1090,2547.7,1090,2547.7,1090,2547.7z"/>
	<path class="st40" d="M2151.3,2268.3c0-13.6,0.1-27.3-0.1-40.9c-0.1-4.6,1.4-6.4,6.3-6.4c12.7-0.1,25.3,0.5,37.8,2.6
		c16.1,2.7,33.5,18.3,35.1,38.5c1,12.7,0.7,25.2-2.4,37.7c-5.2,20.9-18.4,31.9-39.8,32.2c-5.3,0.1-10.7-0.2-15.9-1.1
		c-14-2.2-20.4-9.4-20.8-23.6C2151.1,2294.3,2151.4,2281.3,2151.3,2268.3C2151.3,2268.3,2151.3,2268.3,2151.3,2268.3z"/>
	<path class="st40" d="M2169.7,2115c7,0.1,13.9,0.2,20.8,1.3c17.3,2.9,24.6,12.6,27.7,29.4c1.8,9.8,2,19.7,0.4,29.7
		c-2.5,15.7-13.7,28.4-29.5,31c-10.1,1.7-20.4,2.9-30.7,2.9c-4.7,0-7.3-0.8-7.3-6.4c0.2-27.2,0.2-54.5,0-81.7c0-4.9,1.8-6.5,6.5-6.2
		C2161.7,2115.2,2165.7,2115,2169.7,2115z"/>
	<path class="st40" d="M1848,2222.5c0.9-25.9,3.8-51,16.3-73.8c14.1-25.9,36-38.9,65.7-39.7c20.4-0.5,39,3.8,55,17
		c13.6,11.2,21.6,26.1,26.4,42.6c11.2,38.4,11.2,76.9-1.5,114.9c-6.3,18.7-17.1,34.4-34.5,45c-33.9,20.5-82.9,11.2-105.8-20.6
		c-9.7-13.4-14.6-28.9-17.8-45.1C1849,2249.3,1848.6,2235.7,1848,2222.5z"/>
	<path class="st40" d="M1527.9,2551.3c0-15-0.1-29.9,0-44.9c0-8.3,0.1-8.5,7.9-8.8c12.9-0.5,25.9-1.5,38.7,2
		c12.3,3.4,21.6,10.1,26.1,22.4c7.9,21.6,8.4,42.8-3.8,63.2c-7.4,12.4-18.7,18.7-32.7,19.8c-9.9,0.8-20,0.3-29.9,0.6
		c-4.7,0.2-6.4-1.8-6.4-6.5C1528,2583.3,1527.9,2567.3,1527.9,2551.3z"/>
	<path class="st40" d="M2367.8,2267.7c0-13-0.1-26,0-39c0.1-7.2,0.4-7.5,7.2-7.6c13.7-0.3,27.4,0.5,40.7,3.7
		c15.8,3.9,26.2,14,30.2,29.9c4.3,16.9,2.9,33.9-2.7,50.2c-5.6,16.2-16.9,25.9-34.8,26.8c-6.7,0.4-13.4,0.2-19.9-0.8
		c-12.3-2-19-8.8-20.2-21.2c-0.7-8.3-0.4-16.6-0.5-25C2367.8,2279.1,2367.8,2273.4,2367.8,2267.7z"/>
	<path class="st46" d="M1087.8,2247.4c12.1-34.6,26.8-67.1,40.2-102.9c14,35.4,27.1,68.5,40.6,102.9
		C1141,2247.4,1115,2247.4,1087.8,2247.4z"/>
	<path class="st47" d="M2741.2,2499.5c1.1,9.7,1.1,189.1,0.3,198.8C2739.7,2691.9,2739.2,2513.4,2741.2,2499.5z"/>
	<path class="st48" d="M1344.1,1721.4c-9.2,8.9-21.5,12.1-32.5,17.8c-1.7,0.9-3.6,1.5-5.5,2.2c-0.8,0.8-1.6,0.7-2.3-0.2
		c1.4-2.5,3.7-3.7,6.2-4.7c9-3.4,17.6-7.4,25.6-12.8C1338.1,1722,1340.9,1721,1344.1,1721.4z"/>
	<path class="st49" d="M1303.8,1741.2c0.8,0.1,1.5,0.2,2.3,0.2c-12.4,8.1-25.9,13.7-40.1,17.9c3-5.1,9-5.1,13.5-7.4
		C1287.3,1747.8,1295.7,1744.7,1303.8,1741.2z"/>
	<path class="st50" d="M1250.1,1767.4c-5.7,2.7-11.4,5.8-18,6c5-4.9,11.4-6.5,18-7.9c0.7,0.4,0.9,0.9,0.7,1.3
		C1250.5,1767.2,1250.3,1767.4,1250.1,1767.4z"/>
	<path class="st49" d="M1250.1,1767.4c0-0.6,0-1.3,0-1.9c5.1-2.5,9.7-6.4,15.9-6.2C1262.3,1765,1255.5,1765,1250.1,1767.4z"/>
	<path class="st51" d="M1178.1,1795.4c-2.1,6-7.4,5.3-12.1,5.8C1168.8,1796.9,1173,1795.2,1178.1,1795.4z"/>
	<path class="st3" d="M1559.3,1590.1c0.6,0.4,1,0.6,1.4,0.9c-0.6,0.7-1.1,1.4-1.8,2c-0.8,0.8-1.2,0.5-0.7-0.5
		C1558.5,1591.7,1558.9,1590.9,1559.3,1590.1z"/>
	<path class="st3" d="M1556.1,1593.4c0.7,0,1.3,0,2,0C1557.4,1594.8,1556.7,1594.8,1556.1,1593.4z"/>
	<path class="st52" d="M2418.3,2886.8c0,8.3-0.1,16.6,0,24.9c0.1,4.3-1,6.9-6.1,6.8c-9-0.2-17.9,0-26.9-0.1c-2.6,0-5.1-0.7-3.4-4.1
		c8-16,8.2-33.3,8.8-50.5c0.3-9.4,0.3-9.6,9.5-9.5c21.6,0.2,17.7-2.7,18.1,17.6C2418.4,2876.9,2418.3,2881.8,2418.3,2886.8
		C2418.3,2886.8,2418.3,2886.8,2418.3,2886.8z"/>
	<path class="st53" d="M2242.6,2887.4c0,6,0.2,11.9,0,17.9c-0.2,5.3-1.5,6.2-6.8,5.2c-9.3-1.8-16.2-9.5-16.8-20.8
		c-0.9-16.3,5.7-24.2,16.5-26.9c5.5-1.4,7-0.2,7.1,5.7C2242.8,2874.8,2242.7,2881.1,2242.6,2887.4
		C2242.6,2887.4,2242.6,2887.4,2242.6,2887.4z"/>
	<path class="st54" d="M2253.9,2886.8c0-6.7,0.1-13.3,0-20c0-4.4,2.5-4.9,5.9-4.2c3.3,0.7,6.4,1.8,9.1,3.9
		c11.8,8.8,11,33.5-1.4,41.3c-2.2,1.4-4.8,2.2-7.4,2.8c-3.8,0.9-6.5,0-6.3-4.8C2254,2899.4,2253.8,2893.1,2253.9,2886.8
		C2253.8,2886.8,2253.9,2886.8,2253.9,2886.8z"/>
	<path class="st55" d="M1261.5,2903.8c0.1-15.6-2.1-14.5,15.3-14.3c2.3,0,4.6,0.2,6.8,0.8c7.8,2,10.8,6.2,10.7,14.3
		c-0.2,6.8-4.1,12.1-11,13.2c-5.8,0.9-11.8,0.5-17.8,0.5c-2.8,0-4-2-4-4.6C1261.5,2910.4,1261.5,2907.1,1261.5,2903.8z"/>
	<path class="st56" d="M1261.5,2867.6c0.1-13.8-2.3-13.3,13.4-13.3c2,0,4,0.1,6,0.4c7.2,0.9,10.6,4.1,11.4,10.3
		c0.8,6.3-3.2,12.7-9.4,14.7c-5.1,1.7-10.5,1.3-15.8,1.3c-4.3,0-5.8-2.3-5.6-6.3C1261.6,2872.3,1261.5,2869.9,1261.5,2867.6z"/>
	<path class="st57" d="M682.7,2903.8c0.2-16.7-1.2-14.1,14.4-14.3c3,0,6,0,8.9,0.9c6.9,2.3,10.3,7.1,10,14.2
		c-0.3,6.7-4.7,12-11.4,13.3c-2.3,0.5-4.6,0.5-7,0.5C680.2,2918.4,683,2920.2,682.7,2903.8z"/>
	<path class="st58" d="M682.8,2867.1c0.1-14.7-1.3-12.6,12.8-12.8c2,0,4,0.1,6,0.3c7.7,0.8,12.1,5,12.3,11.8
		c0.2,5.9-4.8,12-11.1,13.6c-4.6,1.2-9.3,0.7-13.9,0.9c-4.2,0.2-6.3-1.5-6.1-5.8C682.9,2872.4,682.8,2869.8,682.8,2867.1z"/>
	<path class="st59" d="M1538.6,2886.4c-0.3,6.6,0.2,13.3-2.6,19.6c-3.3,7.7-8.7,12.4-17.3,12.9c-8.5,0.5-15.2-2.9-18.8-10.5
		c-6.9-15-6.7-30.4,0.3-45.2c3.5-7.4,12.2-10.6,20.4-9.2c8.6,1.5,15.6,8.7,17.1,18.5C1538.5,2877.1,1538.4,2881.8,1538.6,2886.4z"/>
	<path class="st59" d="M2076.3,2886.8c-0.1,5.9-0.5,12.3-2.7,18.2c-3,8.1-8.6,13.4-17.6,13.9c-9,0.6-15.8-3.1-19.4-11.3
		c-6.4-14.8-5.8-29.9,0.9-44.5c3.2-7,10.2-9.8,17.4-9.6c7.3,0.1,13.5,3.5,17,10.4C2075.5,2871.1,2076.1,2878.7,2076.3,2886.8z"/>
	<path class="st60" d="M280.1,2870.4c0-18,0-18,20.6-15.9c12.1,1.3,17.9,10.5,14.2,22.1c-1.3,4.2-4,6.7-7.8,8.4
		c-3.1,1.4-6.4,1.7-9.8,1.7C277,2886.4,280.5,2889.7,280.1,2870.4z"/>
	<path class="st61" d="M1426,2870.1c0.4-17.5-3.4-15.7,15.9-15.8c2.3,0,4.7,0.1,7,0.4c8.1,1.2,13.1,6.9,13.4,14.9
		c0.3,9.1-3.8,15.2-12.4,16.5c-6.5,1-13.3,0.5-19.9,0.5c-2.9,0-4-1.8-4-4.6C1426,2878.1,1426,2874.1,1426,2870.1z"/>
	<path class="st61" d="M556.9,2854.5c2.3,0,4.7-0.1,7,0c10,0.7,15.9,6.4,16.1,15.4c0.2,10.1-5.2,15.9-15.8,16.7c-5,0.4-10,0-15,0.2
		c-4.5,0.2-5.7-2-5.5-6.1c0.2-6,0-12,0-18c0.1-8.3,0.2-8.3,8.2-8.5c1.7,0,3.3,0,5,0C556.9,2854.4,556.9,2854.4,556.9,2854.5z"/>
	<path class="st62" d="M624.4,2860.7c6.6,12.7,8.7,24.2,13.8,35.5c-9.2,1.2-16.7,0.7-25.8,0.6
		C615.6,2884.6,619.7,2873.9,624.4,2860.7z"/>
	<path class="st63" d="M2614,2870.8c2.4,6.9,4.8,13.7,7.3,20.6c1.4,3.9,0.2,5.7-3.9,5.5c-6.2-0.3-12.5,0.8-20-1.1
		c3.7-10.5,7.3-20.7,10.9-30.9c1.2-1.3,2.5-1.3,3.7,0l0,0C2613.9,2866.5,2612.2,2869.3,2614,2870.8z"/>
	<path class="st64" d="M2612,2864.9c-1.2,0-2.5,0-3.7,0c-0.3-1.4,0-2.9,1.4-3.1C2611.8,2861.5,2612.1,2863.2,2612,2864.9z"/>
	<path class="st64" d="M2614,2870.8c-2.2-1.4-2.3-3.6-2.1-5.9C2614.1,2866.4,2614.3,2868.5,2614,2870.8z"/>
	<path class="st60" d="M2528.5,2870.4c0.2-18.3-2.8-15.9,16.5-16c2,0,4,0.1,6,0.3c8.5,1.1,14.1,7,14.3,15.1
		c0.2,8.6-4.3,15.2-12.8,16.3c-6.5,0.9-13.2,0.5-19.8,0.5c-2.8,0-4.2-1.6-4.2-4.4C2528.5,2878.3,2528.5,2874.4,2528.5,2870.4z"/>
	<path class="st65" d="M1048.3,2903.3c-0.1-17-1.5-14.4,14.9-14.6c2.3,0,4.7,0,7,0.2c7.6,0.7,12.4,5.1,13.5,12.2
		c1.1,7.3-2.8,14-10,16.3c-7.1,2.3-14.5,1.1-21.7,0.9c-2.3-0.1-3.5-1.8-3.6-4C1048.2,2910.6,1048.3,2907,1048.3,2903.3z"/>
	<path class="st66" d="M1305.7,1850.1c-5.9,0.8-10.8,1.7-15.7,2.2c-11.8,1.2-22.2-5.3-24.1-16c-2.1-11.6,0.5-23.5,14.2-28.2
		c18.6-6.3,33.8,1.6,37.3,20.8c2.3,12.3,1.5,24.5-5.1,35.8c-7.8,13.3-20.1,17.7-34.5,18.1c-2.9,0.1-6.7-0.4-6.8-4.2
		c-0.1-4,3.1-5.4,6.9-5.3c14,0.5,23.3-6,27.8-19.3C1306,1853.2,1305.7,1852.1,1305.7,1850.1z"/>
	<path class="st66" d="M1390,1843.4c-10.2-19.8-0.3-36.4,21.6-36.7c18.5-0.3,25.2,9.9,27.4,27.4c0.9,7.1-0.1,14.5-2,21.6
		c-5.5,19.6-22.9,30.5-44.7,25.5c-2-4.9,1.1-7.2,4.9-7.1c10.5,0.2,18.5-4.3,25.2-11.8c1.7-1.2,2.4-2.9,3.2-4.7
		c1.2-2.6,3.8-5,1.3-7.9c-2.2-2.5-4.7,0-7.1,0c-4.8,0.1-9,4.4-14.1,1.9l-0.8,0.2l-0.8-0.2C1400,1847.7,1392.7,1849.5,1390,1843.4z"
		/>
	<path class="st67" d="M1348.7,1819.7c-4.9,3.2-9,6-13.2,8.5c-2.2,1.3-4.6,1.5-6.1-1c-1.3-2.1-1.8-4.7,0.5-6.3
		c7.1-4.8,14.1-9.9,21.7-13.7c6.7-3.3,8.9-1.4,9,6.1c0.1,15.3,0,30.6-0.1,45.9c0,2.3,0.1,4.7,0,7c-0.2,4.9,1.8,7.6,7,7.3
		c1.7-0.1,3.3-0.1,5,0.1c2.9,0.3,5.4,1.3,5.2,4.7c-0.2,3.1-2.9,3.3-5.2,3.3c-9,0.1-18,0-26.9,0c-2.7,0-5.3-0.1-8-0.2
		c-2.1-0.1-4.2-0.7-4.3-3.1c-0.1-2.6,1.4-4.4,4.2-4.6c2-0.2,4-0.3,6-0.2c4.5,0.2,6.8-1.4,6.7-6.3c-0.2-14.6-0.1-29.2-0.2-43.9
		C1350,1822.4,1349.4,1821.5,1348.7,1819.7z"/>
	<path class="st68" d="M1236.5,1839.6c0,8.6-0.2,17.3,0,25.9c0.2,6.8,0.8,7.3,7.3,7.9c3.7,0.3,9.5-1.3,9.5,4.3c0,5.9-6,3.7-9.5,3.8
		c-10,0.3-19.9,0.1-29.9,0c-2.3,0-5.1-0.1-5.3-3.1c-0.2-3.2,2-4.5,5-5c4-0.7,9.5,2.3,11.7-2.6c1.5-3.3,0.6-7.8,0.7-11.8
		c0-10.6,0-21.3,0-31.9c0-2.2,0.7-5-1.9-6.2c-2.2-1-3.4,1.4-5,2.4c-2.6,1.5-5.2,3-7.8,4.5c-2.2,1.3-4.4,2-6.1-0.6
		c-1.7-2.6-1.3-5.3,1.3-7c6.9-4.6,13.7-9.4,21-13.3c5.6-3,8.7-0.9,8.9,5.7C1236.7,1821.7,1236.5,1830.6,1236.5,1839.6
		C1236.5,1839.6,1236.5,1839.6,1236.5,1839.6z"/>
	<path class="st69" d="M1423.9,1863.3c-7.3,7.2-15.4,12.5-26.3,12.1c-3.7-0.2-5.2,2.5-5.4,5.9c-2-4.9-0.4-9.6,3.5-9
		c12.6,1.9,20.2-5.5,28.2-13C1425.2,1860.5,1425.3,1861.9,1423.9,1863.3z"/>
	<path class="st70" d="M1423.9,1863.3c0-1.4,0-2.7,0-4.1c0.2-2.8,3.1-5.1,1.4-8.4c-6.6-1.6-12.9,4.9-19.6,0.8c5.8-1.4,11.6-3,17.4-4
		c6-1.1,8.7,2.3,5.7,7.3C1427.2,1857.6,1426.9,1861.3,1423.9,1863.3z"/>
	<path class="st70" d="M1390,1843.4c3.2,1.7,5.9,4.3,9.9,4.3c2.1,0,3.4,1.8,4.2,3.8C1398.3,1850.6,1392,1850.7,1390,1843.4z"/>
	<path class="st71" d="M1292.6,1843.7c-9.4,0-14.6-2.6-16.1-8.4c-1.5-6-1.1-12,3.6-16.7c4.8-4.7,13.2-5.1,19.4-1.4
		c5.2,3.1,9.4,13.3,7.9,19c-0.9,3.2-2.9,5.1-5.9,6.1C1298.3,1843.5,1295.1,1843.8,1292.6,1843.7z"/>
	<path class="st72" d="M1400.5,1817.5c8.2-4.1,16-3.6,23.4,1.9c2.6,4.1,5,8,5.2,13.2c0.3,5.8-1.5,9.3-7.3,10.5l0.1-0.1
		c-5.9,2.4-11.9,2.9-17.9,0.3l-0.1,0C1393.4,1837.1,1392.3,1828.4,1400.5,1817.5z"/>
	<path class="st70" d="M1400.5,1817.5c-5.3,9.5-5.7,18.3,3.5,25.9c-4.8,0.5-7.3-2-8.9-6.2
		C1392.1,1829.5,1394.1,1822.2,1400.5,1817.5z"/>
	<path class="st70" d="M1421.9,1843.2c6.8-5.4,7.8-8.7,4.8-16.5c-0.9-2.4-2.6-4.5-2.7-7.2c7.9,4.8,6.4,12.5,5.7,19.6
		C1429.2,1843.1,1425.5,1843.5,1421.9,1843.2z"/>
	<path class="st70" d="M1404.1,1843.4c6-0.1,11.9-0.2,17.9-0.3C1416.1,1847.6,1410.1,1849.5,1404.1,1843.4z"/>
	<path class="st73" d="M1249.9,1878.9c-3.8,0-7.5,0-11.3,0c0-0.3-0.1-0.6-0.1-0.8c3.7,0,7.3,0,11,0
		C1249.6,1878.3,1249.8,1878.6,1249.9,1878.9z"/>
</g>
</svg>
