<svg xmlns="http://www.w3.org/2000/svg" viewBox="0 0 488.5 279.9" style="enable-background:new 0 0 488.54 279.87" xml:space="preserve"><style>.st0{fill:#161d35}</style><g id="Слой_2"><path class="st0" d="M440.8 38.6H265.1V27.1c1-.3 185.5-.4 187.4-.1l.1 1v207.4c0 1.5.4 2.6 1.6 3.5a12.1 12.1 0 0 0 7.3 3l.5.2v2.1h-30.5l-.1-1v-1.1l3-.6c2.2-.5 4.1-1.7 5.7-3.4.5-.5.8-1 .7-1.8V38.6zM100.3 60l-1 2.3L92.3 78l-.4.4-.8-1.8L85.2 62c-.3-.8-.6-1.7-.7-2.7-.2-1.1.3-1.8 1.4-2.2.3-.2.7-.2 1-.3l3-.4c.5-.1.9-.3.9-.9v-3.1l-15.8.3-16-.3c0 1.3 0 3.2.5 3.7.4.4 2.7 1 4.1 1.4 1.7.5 3 1.6 3.7 3.2l5.4 12.3 9 22.2c.3.6.6 1.2.2 2l-8.8 18-.6.8-.6-1.5-5.3-12.5-14.5-35-2.4-6.2c-.5-1.4-.4-2 .9-2.8l1.6-1c2.3-1.3 1.8-.7 2.3-3.3v-.1c.1-.9-.1-1.2-1-1.2h-2.3c-5.4.3-13.7.4-16 .3l-6.3-.3c-1.7 0-1.7 0-1.7.5s0 3.4.3 3.6c.2.3.8.4 1.2.6 1.4.5 2.4 1.4 3.1 2.7l2 4.1c2 4.5 4 9 5.8 13.6L56.3 117c2.4 5.6 4.9 11.2 6.8 17l.3.4h6.1c4.7-10.7 10.2-20.8 15.6-31.4 2.7 5.3 4.7 10.5 7 15.7l6.5 15.7h6l.5-1.3 4.9-12.7c7.3-19.6 15.8-38.6 22.8-58.3a7.8 7.8 0 0 1 4.1-4.6l1.1-.6c.6-.2 1.4-.8 1.5-1.4 0-1 .3-2.8 0-3-.3-.2-1.7 0-2.2 0-4 .2-8.8.2-13.6 0-2.3-.2-2.7-.5-2.4 3 0 .8.3 1.2 1 1.4l3.8 1.2c1 .4 1.2.8 1.1 1.8l-.2 1-2 5.8-17.3 45.6-.7 1.5-.5-1-11.4-27.1c-.2-.6-.2-1 0-1.6l10.1-20.5 1.4-2.3c.8-1.3 2-2.3 3.4-2.8l4.1-1.4 2.3-.8v-4c-4 .2-6.4.4-10.4.4l-12.2-.3c0 1.6-.1 3.4.4 3.8.5.4 1.7.3 3.8.8s2.8 1.4 2.3 2.8zM217.7 164.5v-4.8l5.4.3c6.6.7 13.3.8 20 .6 5-.2 10.1-.6 15.2-.7 5-.2 10 0 15 1.2 7.2 1.8 11.7 6.6 14.7 13.4 5.3 11.8-.7 30-17.6 33-5.6.9-11 .2-16.2-2.3-1.3-.7-1.7-1.5-1.7-3v-3.1h1.5c2.2.3 4.5.4 6.7-.1 5.5-1.4 8.8-5 9.8-10.6.8-4.1.7-8.2-.5-12.3-.3-1.3-1-2.6-1.6-3.8a11 11 0 0 0-6.7-5.5 23.1 23.1 0 0 0-12.1-.3c-1.6.5-1.7 1.4-1.7 3.1v63.8c0 2 .3 2 .7 2.3 1 .6 10.8 3.1 11.3 3.4.8.3 1 .5 1 1v3.8l-9.3-.8a134.5 134.5 0 0 0-31.6.8v-3.5c0-.7.1-1 1-1.3l4.2-1.4 4.5-1.8c.8-.3 1-.6 1-2.5V171.5c0-4.2-2.6-4.7-5.3-5.3l-5.7-1.2-2-.5zM75.5 182.5l-5.8-.4-1.3-3.5c-.8-1.8-1.5-3.6-2.5-5.3-3-5.5-9-8.3-15.3-7.5-1.7.3-3.4.7-5 1.5a10.7 10.7 0 0 0-6 8.6c-.2 2 .2 3.9 1.2 5.6 1.3 2.4 3.2 4.3 5.6 5.6 3 1.8 6.3 3 9.6 4 4 1.2 8 2.7 11.8 4.5 3.9 1.8 7.2 4.3 10 7.7a25 25 0 0 1 4.4 13c0 3.6 0 7.6-1.4 11.2s-3.7 6.3-6 8.5a32.1 32.1 0 0 1-14 6.9c-4.6 1-9.2 1-13.9.6-5.3-.5-10.4-2.3-15.5-3.9l-.5-.1c-1.8-.7-2-1.1-2.1-3l-.4-13.7v-2.7H34l.6 1.3c.9 2 1.7 4 2.7 5.8 3.7 7.4 9.9 10.8 18 10.7 2.8 0 5.4-.7 7.9-1.8 4-1.7 6.7-4.6 7.8-8.8.7-2.6.4-5.2-1-7.5a12.6 12.6 0 0 0-5.7-5.5L54.2 210c-4.2-1.7-8.4-3.2-12.5-5-2-1-4-2-5.6-3.4a22.8 22.8 0 0 1-8.3-14.7 22.8 22.8 0 0 1 17.8-26.2 40.8 40.8 0 0 1 16.4-.4c3.7.6 7.2 1.5 10.7 2.6.9.3 1.4.7 1.5 1.6.4 3 .9 6.1 1.2 9.2.2 2 .3 4.2.3 6.3 0 .8 0 1.5-.2 2.5z"/><path class="st0" d="m381.6 236.2-2.2 3.3-2.2 3.7c-.3.6-.8 1-1.6 1h-1.4v-62.4c0-2.3-.2-4.5-.3-6.8l-.1-1.1c-.1-.9-.6-1.4-1.4-1.6l-4.1-1.7-1.4-.5v-2.9l3.1-1.2c3.9-1.4 7.4-3.3 11-5.2 1-.6 2-.8 3.3-.8h3.1v37.7c.5-.3.9-.8 1.1-1 4-3.8 8.6-6.3 14-7 10.6-1.4 19.7 2.3 25 12.4 3.2 6.1 3.6 12.5 2 19-2.3 10-8.3 17-18 20.7A36 36 0 0 1 397 243a35 35 0 0 1-11.5-4.5l-3.8-2.2zm5.8-7.4c0 3.1 1.6 4.7 3.3 6.2 1.5 1.4 3.3 2.2 5.2 2.9 5 1.8 13.4-.5 16.6-7.2a30.3 30.3 0 0 0 2.3-18.4c-.7-3.4-1.8-6.6-4-9.4-3-4-7-5.7-12.4-5.7a16 16 0 0 0-11 4.8v26.8zM312.5 56.5c.9 0 2.4-.3 3.5-.4 3.9-.6 6.5-1.2 10.8-2l5-1.2c.7-.2 1.5-.2 2.6-.2V93.8l-.1 13.4.2 17.6c0 1.3.1 1.4 1.4 1.7l4.2.5 2.2.3.3 1c.2 1.2-.3 2-1.5 2.2l-7.6 1.2c-3.2.5-6.4 1.2-9.2 2.8-1 .5-1.9.7-3 .3-.1-2.2.2-4.4-.2-6.7l-2.4 1.4a28.3 28.3 0 0 1-22.8 3.1 21 21 0 0 1-13-10.7 29 29 0 0 1-2.5-20.2 21 21 0 0 1 2.3-5.6c2-3.8 5.8-7.5 8.6-9.5 2.7-2 4.6-3 8.2-3.9 3.6-.8 6.6-.7 9.7-.2 3.1.5 4 1 5.5 1.7 1.5.8 3 1.8 3.8 2.4l2.3 1.8V65.2c0-.3 0-1.1-.6-2.5a5 5 0 0 0-4-2.6c-1 0-2-.3-2.9-.4-.6-.1-.9-.5-.8-1.1v-2zm8.3 36.7c-3-3.3-5.4-5.6-10.7-6-4.7-.6-8.8.7-11.6 5l-1.8 3c-2.8 7-3 14-.5 21a16 16 0 0 0 17 10.5c2.5-.2 5.4-1.8 7.6-3V93.3zM296.4 192c.6-.2 1.1-.4 1.6-.4h19.6v28.5c0 3 0 6.3.3 9.3a7.7 7.7 0 0 0 7.3 7.2 14 14 0 0 0 9.5-2.5c1.9-1.3 3.7-2.7 4.9-4.7.5-.9.5-1.7.5-2.8V199.4c0-1.3-.4-2-2-2.3l-6-1.4c-.9-.2-.8-.7-.8-1.6v-2a18 18 0 0 1 3.1-.4H354v41.6c.3 1.6 1 2 2.5 2h5.5c.2 1.2.5 2.4 0 3.7l-1.8.2c-4.2.3-8.1 1.7-12.1 3-1.4.4-2.8.8-4.1 1.4-1.2.5-2.4.4-3.8.2V234l-.3-.1-1.2 1c-2 1.7-4 3.4-6.2 5a20.2 20.2 0 0 1-20.4 2.3 13 13 0 0 1-7.8-11l-.2-4.2V200.4c0-2.4-.1-2.8-2.6-3.3l-4.3-1c-1-.3-1.1-.6-1-1.6l.3-2.6zM164.4 80.5c2.8 0 7.8.6 11.5 2 7.7 3.2 12.7 9 15.2 17 1.2 4 1.2 8 .8 12a25.6 25.6 0 0 1-8.3 16.3c-3.4 3.2-7.4 5-12 6a33 33 0 0 1-18.1-1.2c-5-1.9-9.1-5-12.4-9.2a29.6 29.6 0 0 1-3-25.9c3.4-8.9 10-14 19-16.1 2.4-.6 4.6-.9 7.3-.9zm0 49.8c5.2 0 8.2-3 9.9-5.6 1.7-2.6 1.9-4 2.3-6.8s.5-6.4.5-10.1c0-2.2-.2-7.2-.6-10.5-.4-2.4-.5-3.2-1.2-5.3-1.5-4.4-5.6-7.1-11-7.1-6.4 0-9.9 4.2-10.9 6.7-1 2.7-1.1 3-1.6 5.2-.6 3-.4 8.4-.4 11.3 0 2.8 0 7.8.4 10.2s.8 4 2.2 6.2 5.2 5.8 10.4 5.8zM140 226.3l2.7 1.5c1 .6 1 .7.7 1.9-1 2.9-2.7 5.3-5 7.4a24.6 24.6 0 0 1-13.1 6.4c-6.6 1-13 .4-19.1-2.4-7.5-3.3-12-9-14.1-17a28.6 28.6 0 0 1 13-30 40.5 40.5 0 0 1 29-3.7c2.9.7 5.2 2.3 7.1 4.7 1.9 2.2 2 4.8 1.1 7.4-1.4 3.9-5.3 4.5-8.3 3.5a7.6 7.6 0 0 1-4-3.3c-.7-1-1.2-2.1-1.7-3.2-.6-1-1-2.2-1.7-3.2a6 6 0 0 0-4.7-2.6c-3.3-.3-6.1.6-8.7 2.5a16.8 16.8 0 0 0-6.7 10.6 28 28 0 0 0 1.2 16c2 5.3 5.8 9.4 11.3 11.4 5.5 2 10.8 1.5 15.6-2.2.8-.6 1.4-1.3 2-2l3.3-3.7zM274.8 134.5l-4-.1c-1.1 0-8-.4-11.9-.4l-8.6.2-7.3.3V132l.1-1c.4-.3.6-.4 1.4-.5.8 0 4-.3 5.4-.6 1-.2 2.2-.9 2.4-2 .2-.8.2-1.6.2-2.5v-53c0-2.1 0-4.7-.3-6.7 0-1-1-1.8-2-2l-2.9-.6-3-.3a5.7 5.7 0 0 1-.1-3.3l6.3-1.4c3.9-1.1 7.6-2.6 11-4.8 1.1-.8 2.6-.6 3.9-.6v69.8c0 .9 0 4 .2 4.8.2 1.1 1.1 2.2 2.3 2.4a131.6 131.6 0 0 0 6 .8c.6 0 .9.3.9.9v3zM231.9 134.5l-5.8-.2a509.9 509.9 0 0 0-27.2.2v-2.2c0-.4 0-.7.4-.8.5-.3 1.4-.5 1.9-.7 1.6-.6 3.1-1 4.7-1.7.9-.3 1.5-1 1.5-2.6v-24.1l-.1-4.6c-.1-1.1-1.2-2-2.3-2.4l-2.9-.9c-1.5-.4-1.8-.8-2-2.4V91l1-.2c5.3-1.1 9.5-3.9 12.7-8.2 1-1.3 1.9-2 3.7-2h2.8v11.8l.7-1 .8-1.4c1.2-2.2 3-3.9 4.8-5.4 4.5-3.5 11.7-1 12.7 4.6.6 3.2-1.5 7.6-5 8.3-1.5.3-3 .2-4.3-.5-.9-.4-1.7-1-2.5-1.5l-1.3-.9c-1.5-.8-2.5-.6-3.5.7-1.2 1.4-2 3.1-2.3 5-.2 1.2-.1 2.3-.1 3.6v22.3c0 2.5 1.8 3.2 3.9 3.7l4.8.7 2.2.3c.8.2.6.8.6 2.5v1.2zM172.7 238.9c1 .4 4.6 1 7.4 1.6.4.1.7.4.7.8v3a120 120 0 0 0-6.4-.2l-9.8-.2-14.3.3h-1.8v-2.9c0-.3.3-.7.6-.7l3.2-.7 2.5-.6c.6-.1 1.3-.3 1.9-.6.6-.3 1.6-.8 1.6-1.8v-1.7l-.1-16.8v-15c-.1-1.3-.7-2-1.8-2.6-1.5-.8-3.1-1-4.7-1.2l-2.5-.3v-3.5l3.2-.4c5.5-.8 10.3-3 14.3-7 .6-.6 1.2-.8 2.1-.8H171.6v1.5l.1 38.5v9.8c0 .2 0 1 1 1.5zM157.2 169.2c0-5.3 4.2-8.8 9.3-7.9 1 .2 2 .5 2.8.9a8 8 0 0 1 .8 13.7 8 8 0 0 1-12.7-5.5l-.2-1.3zM423.6 66.9H361a.6.6 0 0 1-.6-.6V55.9c0-.4.3-.6.6-.6h62.5c.3 0 .5.2.5.6v10.4c0 .3-.2.6-.6.6z"/><path d="M423.6 99.6H361a.6.6 0 0 1-.6-.6V88.6c0-.3.3-.6.6-.6h62.5c.3 0 .5.3.5.6V99c0 .3-.2.6-.6.6z" style="fill:#666c88"/><path d="M423.6 134.5H361a.6.6 0 0 1-.6-.6v-10.4c0-.4.3-.6.6-.6h62.5c.3 0 .5.3.5.6v10.4c0 .3-.2.6-.6.6z" style="fill:#a4a5b1"/></g></svg>
