<svg width="30" height="15" viewBox="0 0 30 15" fill="none" xmlns="http://www.w3.org/2000/svg">
<mask id="mask0" mask-type="alpha" maskUnits="userSpaceOnUse" x="0" y="0" width="30" height="15">
<path d="M16.4383 0.5811V0.974688H22.2637H28.089V7.553V14.1313L28.0523 14.1759C27.9333 14.3176 27.7173 14.4269 27.5275 14.4418L27.4593 14.447V14.524V14.6019H28.4782H29.4972V14.524V14.447L29.4333 14.4418C29.2427 14.4278 29.0529 14.3359 28.9234 14.1969L28.8674 14.1365V7.16203V0.1875H22.6529H16.4383V0.5811Z" fill="white"/>
<path d="M20.7331 1.92456C20.1698 2.05401 19.9406 2.09773 19.701 2.1196C19.6503 2.12485 19.6021 2.13097 19.5933 2.13447C19.5803 2.13884 19.5785 2.15284 19.5785 2.23418V2.32865L19.6118 2.34177C19.6599 2.36013 19.7211 2.37238 19.8182 2.38288C20.0351 2.40561 20.0954 2.51582 20.1304 2.9514C20.1401 3.07385 20.1348 4.07796 20.1243 4.13306L20.1199 4.1558L20.0359 4.09982C19.8759 3.99486 19.6818 3.91352 19.5103 3.88204C19.3931 3.86016 19.0966 3.8558 18.9444 3.87416C18.7931 3.89165 18.6339 3.92315 18.542 3.95288C18.319 4.02547 18.1056 4.16892 17.8948 4.38671C17.6429 4.64735 17.4959 4.922 17.4339 5.24912C17.4172 5.33746 17.4146 5.38119 17.4146 5.5535C17.4146 5.83427 17.4444 6.02144 17.5248 6.25757C17.6052 6.49113 17.6971 6.64245 17.8642 6.80948C18.1108 7.05875 18.3487 7.19083 18.6426 7.24245C18.9207 7.29054 19.2811 7.2766 19.5208 7.20663C19.666 7.16463 19.7884 7.1086 20.0097 6.9818C20.0858 6.93804 20.1506 6.90575 20.154 6.9083C20.1575 6.91183 20.1611 7.0133 20.1628 7.13224L20.1654 7.35001L20.2047 7.35619C20.2651 7.36492 20.2984 7.35619 20.4173 7.29927C20.5451 7.23892 20.5984 7.21969 20.7445 7.18475C20.8748 7.15325 21.0103 7.1296 21.1984 7.10604C21.3785 7.08327 21.5474 7.04913 21.5561 7.0343C21.5754 7.00369 21.5841 6.93283 21.5736 6.88907C21.5605 6.83745 21.5675 6.8401 21.3979 6.82616C21.2229 6.81125 21.1337 6.79642 21.0733 6.77277L21.0497 6.76316L21.0436 6.5873C21.0366 6.38789 21.0322 4.10332 21.0392 3.82605C21.0409 3.72722 21.0401 3.45607 21.0374 3.22254C21.034 2.98901 21.0287 2.6129 21.0261 2.38724C21.0235 2.16071 21.0165 1.95779 21.0121 1.93505C20.9972 1.87033 20.9727 1.86945 20.7331 1.92456ZM19.5348 4.19341C19.868 4.27825 20.0771 4.54589 20.1199 4.94124C20.1365 5.1048 20.1479 5.60423 20.1453 6.10891L20.1427 6.61095L20.0771 6.64854C19.9809 6.70369 19.8409 6.76316 19.7456 6.78936C19.6721 6.80948 19.645 6.81213 19.5304 6.81301C19.3834 6.81301 19.3074 6.80163 19.1849 6.76316C18.8534 6.65727 18.6024 6.4028 18.4861 6.05205C18.4283 5.87975 18.3978 5.65933 18.3978 5.4258C18.3978 5.06457 18.5044 4.70858 18.6855 4.46805C18.8071 4.30712 18.9505 4.2214 19.1709 4.17942C19.261 4.16192 19.4404 4.16892 19.5348 4.19341Z" fill="white"/>
<path d="M16.1891 1.95927C15.9267 2.12896 15.4561 2.29514 15.0984 2.34413C15.0616 2.3485 15.0573 2.352 15.052 2.37649C15.0485 2.39135 15.0485 2.43946 15.052 2.48407C15.059 2.58116 15.0459 2.57241 15.2165 2.58466C15.3573 2.59428 15.3975 2.60302 15.4814 2.64151C15.5418 2.6695 15.5435 2.67037 15.554 2.71235C15.5733 2.78758 15.5811 2.84793 15.59 2.98263C15.603 3.20217 15.6197 6.33865 15.6083 6.53806C15.5969 6.7515 15.5759 6.83983 15.5261 6.89497C15.5007 6.92206 15.4159 6.94659 15.2576 6.97103C15.1185 6.99291 15.0774 7.00341 15.0135 7.0358C14.9802 7.05327 14.9777 7.0568 14.9811 7.083C14.9838 7.0988 14.9882 7.14159 14.9916 7.18006L14.9969 7.24924L15.2077 7.24394C15.324 7.2413 15.4727 7.23433 15.5375 7.22825C15.6162 7.2203 15.7999 7.21686 16.0841 7.21775C16.4637 7.21775 16.6133 7.22207 16.9964 7.24307L17.0944 7.24835V7.15738C17.0944 7.07603 17.0856 7.00694 17.0742 6.99644C17.0716 6.9938 16.9745 6.98066 16.8582 6.96672C16.7419 6.95269 16.6325 6.93698 16.6151 6.9308C16.5608 6.91333 16.5284 6.88359 16.5074 6.82933L16.4873 6.77859L16.4812 5.09492C16.4751 3.35873 16.4689 2.45258 16.4593 2.11409L16.4532 1.91992H16.3518H16.2494L16.1891 1.95927Z" fill="white"/>
<path d="M4.48164 2.06336C4.05476 2.09135 3.58067 2.09922 3.32267 2.08172C3.21247 2.07472 3.05153 2.06598 2.96673 2.06249L2.81188 2.05636L2.80747 2.0861C2.80491 2.10271 2.8005 2.15781 2.79706 2.20942L2.79176 2.30213L2.8215 2.30826C2.90982 2.3275 3.10226 2.38698 3.15741 2.41322C3.28067 2.47007 3.31129 2.5173 3.49676 2.93364C3.61482 3.20041 3.63061 3.23889 4.00667 4.13629C4.22973 4.66983 4.32335 4.90336 4.3207 4.9191C4.31541 4.9471 3.94632 5.7028 3.80117 5.98444C3.72591 6.12876 3.6892 6.19261 3.68391 6.18388C3.67341 6.16461 2.68067 3.84678 2.58361 3.61587C2.44976 3.29487 2.35094 3.05084 2.27135 2.8418C2.23023 2.73597 2.18735 2.62489 2.17597 2.59427C2.16467 2.56366 2.15497 2.52868 2.15497 2.51643C2.15497 2.48057 2.232 2.41235 2.33435 2.35724C2.47429 2.28202 2.46556 2.29251 2.48303 2.18144C2.50658 2.03361 2.553 2.04586 2.04476 2.06948C1.65997 2.08697 1.60138 2.08784 1.33111 2.07823C1.16841 2.0721 0.971555 2.06336 0.893732 2.05811C0.787053 2.05111 0.741526 2.05199 0.714438 2.05986L0.676849 2.07036L0.682054 2.12808C0.684701 2.15957 0.689907 2.21729 0.692554 2.25491L0.698643 2.32401L0.782643 2.36074C0.829055 2.38086 0.878906 2.40535 0.893732 2.41584C0.929643 2.44208 0.993438 2.54442 1.07479 2.70622C1.16311 2.88203 1.11591 2.7727 1.85329 4.49927C2.2057 5.32408 2.54073 6.10164 2.59667 6.22676C2.79088 6.6562 2.95182 7.04188 3.03406 7.27632L3.07164 7.38123H3.279H3.48538L3.57026 7.19761C3.61658 7.09614 3.72767 6.86788 3.81776 6.69026C3.97958 6.36838 4.50264 5.36781 4.51658 5.35294C4.52011 5.34944 4.55338 5.40629 4.59008 5.47976C4.65397 5.61008 5.12629 6.69643 5.19705 6.87485C5.21638 6.92293 5.25829 7.02352 5.29155 7.09791C5.32394 7.17132 5.36064 7.26582 5.37379 7.30694L5.39744 7.38123L5.60382 7.38388L5.80941 7.38564L5.83561 7.31832C6.06476 6.72529 6.41814 5.82613 6.58694 5.40891C6.72423 5.06867 6.76103 4.97946 6.94994 4.52989C7.18694 3.96573 7.3785 3.48554 7.59979 2.89866C7.69605 2.64325 7.73011 2.56628 7.76858 2.51556C7.79576 2.47969 7.91029 2.40359 7.99861 2.36161C8.0835 2.32138 8.0992 2.29339 8.09753 2.18493C8.09576 2.07648 8.09311 2.07123 8.04238 2.06423C8.01794 2.06073 7.91029 2.06249 7.80361 2.06773C7.64532 2.0756 7.54994 2.07472 7.3042 2.06336C6.95347 2.04761 6.93856 2.04936 6.92108 2.10096C6.9097 2.13333 6.90882 2.22692 6.91844 2.28902C6.92541 2.33188 6.94464 2.34149 7.1362 2.39923C7.21756 2.42371 7.28753 2.44733 7.29106 2.45083C7.29547 2.4552 7.30067 2.47794 7.3042 2.50244C7.30853 2.54179 7.30155 2.5689 7.24553 2.73771C7.21058 2.84355 7.01726 3.34822 6.81697 3.86077C6.61667 4.37332 6.34464 5.07479 6.21256 5.41941C6.08135 5.7649 5.97114 6.04741 5.96858 6.04741C5.96594 6.04741 5.95014 6.01243 5.93267 5.97044C5.8575 5.78939 5.43935 4.80802 5.30647 4.50102L5.16123 4.16691L5.18576 4.1118C5.23297 4.00596 5.74985 2.97037 5.82864 2.82431C5.9572 2.58815 6.01491 2.5173 6.12423 2.46832C6.1837 2.44121 6.45308 2.35025 6.5362 2.32925C6.56858 2.32138 6.58429 2.31176 6.58958 2.29951C6.59832 2.27414 6.60794 2.10009 6.60008 2.08872C6.59567 2.08172 6.47497 2.07735 6.20038 2.07385C5.98429 2.07123 5.64847 2.06423 5.45426 2.05811C5.26094 2.05286 5.09911 2.05024 5.09656 2.05373C5.08606 2.06423 5.07723 2.17531 5.08253 2.23916L5.08773 2.30126L5.19361 2.33013C5.36417 2.37648 5.43767 2.40622 5.48311 2.44558L5.52335 2.48144L5.51814 2.52605C5.51108 2.57853 5.43935 2.76308 5.3572 2.94239C5.25044 3.17417 4.97585 3.73832 4.97055 3.73832C4.96182 3.73832 4.8577 3.48992 4.71079 3.12169C4.64347 2.95288 4.57438 2.78407 4.55594 2.74558C4.48597 2.5934 4.46497 2.46745 4.49911 2.41059C4.52444 2.36948 4.5735 2.35112 4.70029 2.3345C4.85426 2.31438 4.88311 2.30651 4.89361 2.27939C4.89794 2.26715 4.90058 2.2103 4.8997 2.1517L4.89706 2.04586L4.84023 2.04499C4.80873 2.04411 4.64779 2.05198 4.48164 2.06336Z" fill="white"/>
<path d="M22.7624 2.46195V2.85555H24.8748H26.9871V2.46195V2.06836H24.8748H22.7624V2.46195Z" fill="white"/>
<path d="M13.224 3.65826L13.1453 3.66351L13.0901 3.73348C12.9327 3.93378 12.8645 4.00025 12.6992 4.11309C12.5462 4.21804 12.3852 4.28627 12.212 4.32038L12.1359 4.33525L12.1394 4.37111C12.1421 4.39035 12.1455 4.42971 12.1481 4.45683C12.1551 4.51893 12.1841 4.55391 12.2409 4.56878C12.3327 4.5924 12.4569 4.6335 12.4954 4.65273C12.5767 4.69384 12.5872 4.73496 12.6091 5.07171C12.6249 5.31573 12.6249 6.6268 12.6091 6.72483C12.5968 6.80619 12.5934 6.81051 12.491 6.86125C12.3974 6.90845 12.3493 6.92688 12.2365 6.95741C12.1114 6.99156 12.0677 7.01609 12.0598 7.05721C12.0537 7.09038 12.0581 7.20678 12.0659 7.21375C12.0686 7.21728 12.2163 7.21285 12.394 7.20588C12.9913 7.18135 13.0429 7.18136 13.4523 7.2006C13.6648 7.2111 13.9255 7.21895 14.0321 7.21895H14.2255L14.236 7.19451C14.2526 7.15428 14.25 7.04319 14.2316 7.01433C14.201 6.96792 14.1669 6.95919 13.8922 6.92601C13.6596 6.89883 13.5756 6.84809 13.524 6.70647C13.5056 6.65653 13.5048 6.63907 13.4987 6.14316C13.4951 5.86152 13.4873 5.49767 13.482 5.3341C13.4706 5.01136 13.4724 4.98161 13.5135 4.85741C13.5756 4.67374 13.6814 4.54166 13.7681 4.54254C13.8039 4.54342 13.8625 4.57228 13.9413 4.63001C14.0418 4.70261 14.1161 4.74108 14.1948 4.7612C14.3576 4.80318 14.4957 4.76558 14.6016 4.65012C14.7459 4.49181 14.7836 4.25828 14.6917 4.08422C14.6541 4.01337 14.5395 3.90491 14.4608 3.86643C14.3068 3.79121 14.1311 3.78946 13.9832 3.86206C13.9098 3.89792 13.7269 4.05798 13.6675 4.13757C13.6438 4.16994 13.5879 4.25566 13.5432 4.32825C13.4987 4.39998 13.4584 4.46295 13.454 4.4682C13.4488 4.47344 13.4462 4.34224 13.4479 4.10522C13.4488 3.90055 13.4471 3.71512 13.4435 3.6915L13.4366 3.65039L13.3692 3.65214C13.3324 3.65302 13.2678 3.65564 13.224 3.65826Z" fill="white"/>
<path d="M9.53718 3.81811C9.31677 3.83735 9.13483 3.88021 8.96259 3.95367C8.53569 4.13561 8.20851 4.4601 8.04757 4.86244C7.94522 5.11697 7.91469 5.30065 7.92166 5.60591C7.92863 5.90066 7.96534 6.09221 8.05551 6.30827C8.12981 6.4858 8.21381 6.6065 8.3774 6.77009C8.69487 7.08668 9.04915 7.25988 9.4935 7.31583C9.61941 7.3325 9.8565 7.33683 9.98241 7.32544C10.6594 7.26509 11.1309 6.96253 11.4248 6.39747C11.5542 6.14906 11.605 5.91028 11.6059 5.53593C11.6059 5.28665 11.5954 5.21405 11.5307 5.01026C11.4388 4.72425 11.3155 4.52133 11.1038 4.30791C10.8291 4.03152 10.5335 3.88808 10.1145 3.82947C10.0025 3.81373 9.66318 3.80673 9.53718 3.81811ZM9.97015 4.105C10.2352 4.17497 10.4294 4.36564 10.5326 4.65777C10.6 4.84932 10.6227 5.02251 10.6279 5.40298C10.6376 6.04586 10.5956 6.34938 10.4591 6.62927C10.3743 6.80327 10.2676 6.91612 10.1189 6.98874C10.0008 7.04556 9.94306 7.05694 9.7778 7.05694C9.61686 7.05694 9.53021 7.04036 9.41824 6.98786C9.25641 6.91347 9.14797 6.81289 9.08153 6.67647C8.97221 6.45341 8.94071 6.29777 8.90568 5.80969C8.88821 5.55604 8.91353 4.99451 8.95209 4.80472C9.03336 4.39451 9.26603 4.1426 9.61156 4.08837C9.69812 4.07525 9.88968 4.08401 9.97015 4.105Z" fill="white"/>
<path d="M22.7624 4.65289V5.04212H24.8748H26.9871V4.65289V4.26367H24.8748H22.7624V4.65289Z" fill="white"/>
<path d="M22.76 6.83844V7.22766H24.8724H26.9847V6.83844V6.44922H24.8724H22.76V6.83844Z" fill="white"/>
<path d="M2.35175 9.00146C1.92672 9.03473 1.62319 9.12834 1.35028 9.3094C1.25322 9.37408 1.05028 9.57614 0.971575 9.68723C0.736255 10.0213 0.644401 10.4692 0.730166 10.8662C0.782666 11.1076 0.913869 11.3849 1.06431 11.572C1.28816 11.8502 1.58119 12.0128 2.39119 12.3068C2.94919 12.5097 3.2072 12.6304 3.34282 12.7519C3.45735 12.856 3.5641 13.0266 3.59472 13.1551C3.61572 13.2417 3.61396 13.3965 3.59119 13.484C3.54399 13.6624 3.42153 13.84 3.26667 13.9545C3.04979 14.1155 2.66666 14.2091 2.3649 14.175C2.18472 14.154 2.04655 14.1128 1.88993 14.0324C1.7754 13.9729 1.68707 13.9065 1.59081 13.8059C1.45087 13.6581 1.37913 13.5365 1.22349 13.1814C1.18149 13.0852 1.1439 13.0029 1.14037 12.9986C1.13596 12.9951 1.04852 12.9942 0.943604 12.9977L0.754607 13.0038L0.759902 13.2112C0.762549 13.3248 0.771283 13.5863 0.778254 13.7936C0.793166 14.2082 0.794049 14.2125 0.84999 14.2502C0.866578 14.2607 0.901613 14.2782 0.928701 14.2878C1.02232 14.3228 1.57334 14.482 1.66078 14.4986C2.05263 14.5755 2.40602 14.5869 2.77599 14.5362C3.11102 14.4899 3.40493 14.3595 3.74252 14.1094C4.02328 13.9013 4.16234 13.6921 4.25419 13.3388C4.35566 12.947 4.33996 12.4852 4.21484 12.1887C4.14222 12.0164 3.95596 11.7714 3.79855 11.6411C3.57019 11.4531 3.17313 11.2624 2.69296 11.1128C2.09816 10.9266 1.8279 10.7813 1.65646 10.554C1.47796 10.3187 1.45873 10.0257 1.60485 9.77731C1.64244 9.71431 1.76667 9.58752 1.83576 9.54287C2.09552 9.3732 2.5119 9.35131 2.8014 9.49037C3.03055 9.60146 3.1801 9.75279 3.30522 10.0021C3.35066 10.093 3.45037 10.3371 3.4801 10.4306C3.48884 10.4569 3.49679 10.4797 3.49758 10.4813C3.50288 10.4875 3.84134 10.5094 3.86234 10.505C3.88246 10.4998 3.88687 10.4936 3.89296 10.4587C3.92093 10.2942 3.86146 9.59802 3.79413 9.30146L3.7801 9.24111L3.64369 9.19655C3.2641 9.07408 2.88972 9.00587 2.56608 9.00058C2.47246 8.9997 2.37628 8.9997 2.35175 9.00146Z" fill="white"/>
<path d="M24.2099 9.01949C24.2046 9.02381 24.0673 9.09555 23.9037 9.17866C23.6711 9.2976 23.5608 9.34746 23.3965 9.41046L23.1866 9.49093V9.58887V9.68681L23.3308 9.74107C23.5722 9.83293 23.6098 9.8504 23.623 9.8766C23.6589 9.94402 23.6589 9.9711 23.658 11.911C23.6571 13.6289 23.6509 14.2892 23.6317 14.5105L23.6256 14.5832H23.7314H23.8373L23.9116 14.4625C24.0691 14.207 24.1373 14.0968 24.1487 14.0811C24.1601 14.0654 24.1697 14.0697 24.3341 14.166C24.6131 14.3277 24.7968 14.4117 24.9971 14.4685C25.1791 14.5193 25.2377 14.5263 25.4825 14.5255C25.8211 14.5246 25.9908 14.5009 26.1727 14.4292C26.4439 14.3216 26.6625 14.1747 26.8742 13.9561C27.2179 13.6018 27.4209 13.0254 27.3894 12.4953C27.3762 12.2749 27.3422 12.1218 27.2713 11.9548C27.1611 11.6968 27.0509 11.5306 26.8847 11.3723C26.7316 11.228 26.548 11.1116 26.3712 11.0504C26.1701 10.9795 25.8368 10.9455 25.6094 10.9708C25.4029 10.9945 25.2788 11.0338 25.0408 11.1501C24.8651 11.2359 24.7574 11.3128 24.6009 11.4641L24.5466 11.5166L24.5519 11.2945C24.5554 11.172 24.5528 10.7679 24.5475 10.3979C24.5423 10.027 24.537 9.56787 24.537 9.37631V9.02822L24.5152 9.02037C24.4871 9.00899 24.2204 9.00899 24.2099 9.01949ZM25.4791 11.4912C25.7511 11.535 25.9943 11.6942 26.143 11.9242C26.2549 12.0965 26.3441 12.3475 26.3791 12.5811C26.4063 12.7727 26.3861 13.1443 26.3354 13.3543C26.2995 13.5047 26.2208 13.6954 26.1499 13.8021C26.1054 13.8694 25.9811 13.998 25.9226 14.0373C25.7424 14.1572 25.5123 14.2237 25.3173 14.2132C25.109 14.2018 24.9035 14.1039 24.7531 13.9447C24.6516 13.8362 24.6105 13.7426 24.5913 13.573C24.5667 13.3586 24.551 12.6248 24.5606 12.1131L24.5667 11.758L24.6087 11.7265C24.6945 11.6635 24.9324 11.5569 25.075 11.5166C25.2149 11.4773 25.3444 11.4694 25.4791 11.4912Z" fill="white"/>
<path d="M9.68603 9.04383C9.54256 9.07444 9.41056 9.17591 9.351 9.30271C9.31253 9.38406 9.30115 9.43735 9.30115 9.54412C9.30115 9.70938 9.34844 9.82135 9.47091 9.94471C9.56797 10.0426 9.65982 10.0925 9.76827 10.1082C9.92488 10.131 10.0963 10.0689 10.2214 9.94382C10.2799 9.88524 10.3386 9.77591 10.3648 9.677C10.3867 9.59397 10.3849 9.45138 10.3613 9.38671C10.3123 9.25197 10.189 9.12694 10.0517 9.07268C9.94668 9.03156 9.798 9.0193 9.68603 9.04383Z" fill="white"/>
<path d="M13.2984 9.23944V9.39597L13.3491 9.41C13.3762 9.41785 13.462 9.43621 13.5389 9.45112C13.8206 9.5053 13.846 9.51059 13.8941 9.52894C13.9973 9.5683 14.0769 9.67674 14.0944 9.80097C14.118 9.96977 14.18 11.8896 14.1905 12.7616C14.2037 13.8541 14.2037 13.8024 14.1871 13.8751C14.1731 13.9336 14.1688 13.9406 14.1355 13.9616C14.0646 14.0063 13.9046 14.0718 13.6859 14.1453L13.4654 14.2197L13.4593 14.2511C13.4524 14.2861 13.4611 14.4943 13.4698 14.5083C13.4768 14.5188 13.5573 14.5135 13.7926 14.4847C14.3331 14.4182 14.9148 14.4112 15.5638 14.4628C15.8752 14.4873 16.0134 14.4925 16.0869 14.482C16.1227 14.4768 16.1525 14.4715 16.1542 14.4699C16.156 14.4681 16.1612 14.4279 16.1674 14.3798C16.1743 14.3159 16.1743 14.2721 16.1683 14.2188C16.163 14.1786 16.1569 14.1436 16.1551 14.1418C16.1533 14.1401 15.9793 14.1174 15.7685 14.0911C15.5568 14.0649 15.3723 14.0412 15.3574 14.0386L15.3303 14.0342L15.3207 13.9048C15.3137 13.8217 15.3102 13.4604 15.3102 12.8797C15.3102 12.3864 15.3066 11.9421 15.3023 11.8914C15.2988 11.8406 15.297 11.7479 15.2997 11.6859C15.3014 11.6229 15.297 11.1436 15.2883 10.6205L15.2735 9.668L15.2988 9.61903C15.3207 9.57438 15.3294 9.56653 15.3801 9.54121C15.4588 9.50274 15.5525 9.48518 15.7168 9.47997C15.9784 9.47124 16.2399 9.52718 16.4088 9.62688C16.5583 9.71521 16.7113 9.93562 16.7735 10.1508C16.8181 10.3048 16.8268 10.3844 16.8268 10.6144C16.8268 10.8409 16.8163 10.9231 16.77 11.0649C16.6659 11.3788 16.4088 11.5826 16.0554 11.6298C15.9801 11.6403 15.7063 11.636 15.6303 11.6229L15.5961 11.6176L15.6023 11.7523C15.6119 11.9578 15.6084 11.9491 15.6862 11.9937C16.0597 12.2045 16.6038 12.2474 17.0428 12.1013C17.1478 12.0663 17.2843 12.0024 17.3718 11.9465C17.5922 11.8074 17.8065 11.5695 17.9202 11.3377C18.0793 11.0115 18.1283 10.561 18.0382 10.2514C17.9691 10.0152 17.8249 9.74935 17.6691 9.57271C17.4854 9.3628 17.2379 9.23327 16.8715 9.15368C16.6344 9.10303 16.1953 9.07938 15.8831 9.10127C15.4921 9.12924 15.2463 9.13797 14.7591 9.14238C14.2387 9.14671 14.2229 9.14583 13.8232 9.11962C13.5993 9.10471 13.3903 9.09077 13.3579 9.08724L13.2984 9.08203V9.23944Z" fill="white"/>
<path d="M9.90452 10.8554C9.74535 10.9988 9.61847 11.0854 9.46802 11.1518C9.36311 11.1974 9.21091 11.2454 9.09541 11.2691C9.01758 11.2857 8.81374 11.3128 8.77439 11.3128C8.76045 11.3128 8.75868 11.3242 8.75868 11.43V11.5472L8.82257 11.5533C9.02288 11.5717 9.14526 11.5979 9.22573 11.6382C9.33682 11.6941 9.34732 11.7108 9.35782 11.8376C9.36567 11.9391 9.3692 13.4837 9.36135 13.7399C9.35349 14.0164 9.34732 14.0513 9.29747 14.0985C9.27735 14.1179 9.24152 14.1405 9.21788 14.1484C9.19344 14.1572 9.07008 14.1773 8.9432 14.1948C8.81639 14.2114 8.71059 14.2263 8.70971 14.2281C8.70883 14.2289 8.70971 14.2901 8.71236 14.3636L8.71756 14.4966H8.74906C8.76654 14.4957 8.84349 14.4895 8.92052 14.4825C9.11905 14.4642 9.66223 14.4581 10.0751 14.4703C10.2675 14.4756 10.522 14.4825 10.6401 14.4852L10.8553 14.4904L10.8605 14.4038C10.871 14.2534 10.8745 14.2648 10.8168 14.249C10.7888 14.2411 10.7285 14.2289 10.6829 14.221C10.5439 14.1983 10.3751 14.1633 10.3191 14.1458L10.2658 14.1292L10.2596 14.0627C10.2508 13.956 10.2535 13.6123 10.2683 12.8084C10.2815 12.0922 10.2806 11.2629 10.2658 10.9122L10.2605 10.7793H10.1241L9.98755 10.7801L9.90452 10.8554Z" fill="white"/>
<path d="M6.87826 10.9517C6.17061 11.0033 5.60652 11.3147 5.24617 11.8525C5.05893 12.1315 4.93478 12.5339 4.93478 12.8611C4.93558 13.1812 5.05373 13.5853 5.22075 13.8363C5.46481 14.2019 5.93625 14.4722 6.48905 14.5631C6.62114 14.585 6.95087 14.585 7.10131 14.564C7.51505 14.5036 7.8334 14.3498 8.09837 14.0812C8.22958 13.9474 8.32584 13.7979 8.38179 13.6378L8.40808 13.5617L8.37129 13.5302C8.35117 13.5127 8.29346 13.4785 8.24361 13.4541L8.15352 13.4103L8.1334 13.4304C8.1229 13.4418 8.05205 13.5214 7.97687 13.6072C7.86402 13.7349 7.82643 13.7707 7.76343 13.8127C7.54558 13.9596 7.43281 13.9929 7.1494 13.9929C7.02261 13.9937 6.97187 13.9902 6.9132 13.9772C6.69111 13.9291 6.51261 13.8258 6.32723 13.6404C6.09543 13.4077 5.97561 13.1602 5.91878 12.7998C5.89514 12.6467 5.89778 12.317 5.92311 12.1753C5.97296 11.9033 6.07964 11.6987 6.26246 11.5219C6.35961 11.4283 6.4339 11.3759 6.53802 11.326C6.66746 11.2657 6.74617 11.2481 6.8914 11.2481C6.99543 11.2481 7.02173 11.2517 7.0654 11.2674C7.20976 11.3207 7.30161 11.4266 7.3812 11.6321C7.41878 11.7293 7.47826 11.8368 7.52811 11.8989C7.58414 11.9672 7.68384 12.0371 7.76687 12.066C7.84655 12.0931 7.99346 12.0957 8.06776 12.0704C8.20779 12.0231 8.30043 11.9129 8.33458 11.7537C8.37393 11.5683 8.32849 11.4292 8.17796 11.2709C7.99081 11.0741 7.75117 10.9858 7.32437 10.9543C7.21496 10.9464 6.97099 10.9447 6.87826 10.9517Z" fill="white"/>
<path d="M18.5464 11.1248L18.5157 11.1362L18.5052 11.214C18.4903 11.333 18.4912 11.3698 18.5104 11.3872C18.535 11.4091 18.6163 11.4328 18.7912 11.4677C18.8752 11.4852 18.9548 11.5044 18.9679 11.5115C18.9863 11.5211 18.9959 11.5368 19.0099 11.5832C19.0379 11.6724 19.0431 12.0458 19.023 12.5251C19.0038 12.9721 19.0082 13.5616 19.0317 13.726C19.0624 13.9394 19.1105 14.0724 19.1997 14.1896C19.3449 14.3794 19.5758 14.5132 19.8453 14.564C19.9765 14.5884 20.2135 14.5866 20.3456 14.5604C20.642 14.501 20.901 14.3532 21.2482 14.0453C21.3121 13.9884 21.3742 13.9351 21.3856 13.9263L21.4065 13.9097V14.0059C21.4065 14.0584 21.4092 14.2079 21.4127 14.3382L21.4179 14.5745L21.4975 14.5805L21.5771 14.5858L21.7372 14.5289C22.031 14.4231 22.4658 14.2998 22.618 14.2797C22.6521 14.2753 22.7212 14.2683 22.7728 14.2657L22.8664 14.2595L22.8725 14.2123C22.8752 14.1869 22.8743 14.1292 22.8708 14.0847L22.8629 14.0033H22.6346C22.3766 14.0033 22.3871 14.0059 22.3486 13.9333C22.3276 13.894 22.3276 13.8887 22.3363 13.5048C22.3442 13.2073 22.3512 11.2228 22.3459 11.165L22.3407 11.117L21.6436 11.1178C21.2605 11.1178 20.9229 11.1214 20.8939 11.1248L20.8406 11.1319L20.8345 11.1773C20.8214 11.2866 20.8336 11.3872 20.8633 11.4109C20.8765 11.4214 20.9062 11.4275 20.9666 11.4319C21.2395 11.4493 21.3357 11.4659 21.4153 11.5062L21.4485 11.5228L21.4547 11.9015C21.4599 12.2024 21.4572 12.4088 21.4424 12.9039C21.4214 13.607 21.431 13.5345 21.3445 13.6578C21.2824 13.7461 21.2185 13.8082 21.1136 13.8826C20.9307 14.0112 20.8231 14.061 20.6815 14.082C20.3464 14.1327 20.1015 14.0348 19.9904 13.8048C19.9624 13.7461 19.9528 13.7138 19.9423 13.6342C19.9126 13.419 19.9082 13.2231 19.9135 12.1613L19.9178 11.123L19.8784 11.1178C19.8566 11.1152 19.5548 11.1126 19.2076 11.1134C18.7239 11.1134 18.5699 11.1161 18.5464 11.1248Z" fill="white"/>
</mask>
<g mask="url(#mask0)">
<path d="M30.8824 -1.76367H-3.52939V18.5304H30.8824V-1.76367Z" fill="white"/>
</g>
</svg>
