<svg width="50" height="76" viewBox="0 0 50 76" fill="none" xmlns="http://www.w3.org/2000/svg">
<g filter="url(#filter0_d)">
<path fill-rule="evenodd" clip-rule="evenodd" d="M5.0315 0C3.37795 0 2 1.37795 2 3.85827V70L21.2913 55.9449L40.8583 70V3.58268C40.8583 0.937008 42.6955 0.0918635 43.6142 0H21.2913H5.0315Z" fill="#031435"/>
</g>
<mask id="mask0" mask-type="alpha" maskUnits="userSpaceOnUse" x="7" y="24" width="30" height="15">
<path d="M23.4383 24.5811V24.9747H29.2637H35.089V31.553V38.1313L35.0523 38.1759C34.9333 38.3176 34.7173 38.4269 34.5275 38.4418L34.4593 38.447V38.524V38.6019H35.4782H36.4972V38.524V38.447L36.4333 38.4418C36.2427 38.4278 36.0529 38.3359 35.9234 38.1969L35.8674 38.1365V31.162V24.1875H29.6529H23.4383V24.5811Z" fill="white"/>
<path d="M27.7331 25.9246C27.1698 26.054 26.9406 26.0977 26.701 26.1196C26.6503 26.1248 26.6021 26.131 26.5933 26.1345C26.5803 26.1388 26.5785 26.1528 26.5785 26.2342V26.3286L26.6118 26.3418C26.6599 26.3601 26.7211 26.3724 26.8182 26.3829C27.0351 26.4056 27.0954 26.5158 27.1304 26.9514C27.1401 27.0739 27.1348 28.078 27.1243 28.1331L27.1199 28.1558L27.0359 28.0998C26.8759 27.9949 26.6818 27.9135 26.5103 27.882C26.3931 27.8602 26.0966 27.8558 25.9444 27.8742C25.7931 27.8917 25.6339 27.9231 25.542 27.9529C25.319 28.0255 25.1056 28.1689 24.8948 28.3867C24.6429 28.6474 24.4959 28.922 24.4339 29.2491C24.4172 29.3375 24.4146 29.3812 24.4146 29.5535C24.4146 29.8343 24.4444 30.0214 24.5248 30.2576C24.6052 30.4911 24.6971 30.6425 24.8642 30.8095C25.1108 31.0587 25.3487 31.1908 25.6426 31.2425C25.9207 31.2905 26.2811 31.2766 26.5208 31.2066C26.666 31.1646 26.7884 31.1086 27.0097 30.9818C27.0858 30.938 27.1506 30.9057 27.154 30.9083C27.1575 30.9118 27.1611 31.0133 27.1628 31.1322L27.1654 31.35L27.2047 31.3562C27.2651 31.3649 27.2984 31.3562 27.4173 31.2993C27.5451 31.2389 27.5984 31.2197 27.7445 31.1847C27.8748 31.1532 28.0103 31.1296 28.1984 31.106C28.3785 31.0833 28.5474 31.0491 28.5561 31.0343C28.5754 31.0037 28.5841 30.9328 28.5736 30.8891C28.5605 30.8375 28.5675 30.8401 28.3979 30.8262C28.2229 30.8112 28.1337 30.7964 28.0733 30.7728L28.0497 30.7632L28.0436 30.5873C28.0366 30.3879 28.0322 28.1033 28.0392 27.8261C28.0409 27.7272 28.0401 27.4561 28.0374 27.2225C28.034 26.989 28.0287 26.6129 28.0261 26.3872C28.0235 26.1607 28.0165 25.9578 28.0121 25.935C27.9972 25.8703 27.9727 25.8695 27.7331 25.9246ZM26.5348 28.1934C26.868 28.2782 27.0771 28.5459 27.1199 28.9412C27.1365 29.1048 27.1479 29.6042 27.1453 30.1089L27.1427 30.611L27.0771 30.6485C26.9809 30.7037 26.8409 30.7632 26.7456 30.7894C26.6721 30.8095 26.645 30.8121 26.5304 30.813C26.3834 30.813 26.3074 30.8016 26.1849 30.7632C25.8534 30.6573 25.6024 30.4028 25.4861 30.0521C25.4283 29.8797 25.3978 29.6593 25.3978 29.4258C25.3978 29.0646 25.5044 28.7086 25.6855 28.4681C25.8071 28.3071 25.9505 28.2214 26.1709 28.1794C26.261 28.1619 26.4404 28.1689 26.5348 28.1934Z" fill="white"/>
<path d="M23.1891 25.9593C22.9267 26.129 22.4561 26.2951 22.0984 26.3441C22.0616 26.3485 22.0573 26.352 22.052 26.3765C22.0485 26.3914 22.0485 26.4395 22.052 26.4841C22.059 26.5812 22.0459 26.5724 22.2165 26.5847C22.3573 26.5943 22.3975 26.603 22.4814 26.6415C22.5418 26.6695 22.5435 26.6704 22.554 26.7124C22.5733 26.7876 22.5811 26.8479 22.59 26.9826C22.603 27.2022 22.6197 30.3386 22.6083 30.5381C22.5969 30.7515 22.5759 30.8398 22.5261 30.895C22.5007 30.9221 22.4159 30.9466 22.2576 30.971C22.1185 30.9929 22.0774 31.0034 22.0135 31.0358C21.9802 31.0533 21.9777 31.0568 21.9811 31.083C21.9838 31.0988 21.9882 31.1416 21.9916 31.1801L21.9969 31.2492L22.2077 31.2439C22.324 31.2413 22.4727 31.2343 22.5375 31.2282C22.6162 31.2203 22.7999 31.2169 23.0841 31.2177C23.4637 31.2177 23.6133 31.2221 23.9964 31.2431L24.0944 31.2484V31.1574C24.0944 31.076 24.0856 31.0069 24.0742 30.9964C24.0716 30.9938 23.9745 30.9807 23.8582 30.9667C23.7419 30.9527 23.6325 30.937 23.6151 30.9308C23.5608 30.9133 23.5284 30.8836 23.5074 30.8293L23.4873 30.7786L23.4812 29.0949C23.4751 27.3587 23.4689 26.4526 23.4593 26.1141L23.4532 25.9199H23.3518H23.2494L23.1891 25.9593Z" fill="white"/>
<path d="M11.4816 26.0634C11.0548 26.0913 10.5807 26.0992 10.3227 26.0817C10.2125 26.0747 10.0515 26.066 9.96673 26.0625L9.81188 26.0564L9.80747 26.0861C9.80491 26.1027 9.8005 26.1578 9.79706 26.2094L9.79176 26.3021L9.8215 26.3083C9.90982 26.3275 10.1023 26.387 10.1574 26.4132C10.2807 26.4701 10.3113 26.5173 10.4968 26.9336C10.6148 27.2004 10.6306 27.2389 11.0067 28.1363C11.2297 28.6698 11.3233 28.9034 11.3207 28.9191C11.3154 28.9471 10.9463 29.7028 10.8012 29.9844C10.7259 30.1288 10.6892 30.1926 10.6839 30.1839C10.6734 30.1646 9.68067 27.8468 9.58361 27.6159C9.44976 27.2949 9.35094 27.0508 9.27135 26.8418C9.23023 26.736 9.18735 26.6249 9.17597 26.5943C9.16467 26.5637 9.15497 26.5287 9.15497 26.5164C9.15497 26.4806 9.232 26.4123 9.33435 26.3572C9.47429 26.282 9.46556 26.2925 9.48303 26.1814C9.50658 26.0336 9.553 26.0459 9.04476 26.0695C8.65997 26.087 8.60138 26.0878 8.33111 26.0782C8.16841 26.0721 7.97156 26.0634 7.89373 26.0581C7.78705 26.0511 7.74153 26.052 7.71444 26.0599L7.67685 26.0704L7.68205 26.1281C7.6847 26.1596 7.68991 26.2173 7.69255 26.2549L7.69864 26.324L7.78264 26.3607C7.82906 26.3809 7.87891 26.4053 7.89373 26.4158C7.92964 26.4421 7.99344 26.5444 8.07479 26.7062C8.16311 26.882 8.11591 26.7727 8.85329 28.4993C9.2057 29.3241 9.54073 30.1016 9.59667 30.2268C9.79088 30.6562 9.95182 31.0419 10.0341 31.2763L10.0716 31.3812H10.279H10.4854L10.5703 31.1976C10.6166 31.0961 10.7277 30.8679 10.8178 30.6903C10.9796 30.3684 11.5026 29.3678 11.5166 29.3529C11.5201 29.3494 11.5534 29.4063 11.5901 29.4798C11.654 29.6101 12.1263 30.6964 12.1971 30.8748C12.2164 30.9229 12.2583 31.0235 12.2916 31.0979C12.3239 31.1713 12.3606 31.2658 12.3738 31.3069L12.3974 31.3812L12.6038 31.3839L12.8094 31.3856L12.8356 31.3183C13.0648 30.7253 13.4181 29.8261 13.5869 29.4089C13.7242 29.0687 13.761 28.9795 13.9499 28.5299C14.1869 27.9657 14.3785 27.4855 14.5998 26.8987C14.6961 26.6432 14.7301 26.5663 14.7686 26.5156C14.7958 26.4797 14.9103 26.4036 14.9986 26.3616C15.0835 26.3214 15.0992 26.2934 15.0975 26.1849C15.0958 26.0765 15.0931 26.0712 15.0424 26.0642C15.0179 26.0607 14.9103 26.0625 14.8036 26.0677C14.6453 26.0756 14.5499 26.0747 14.3042 26.0634C13.9535 26.0476 13.9386 26.0494 13.9211 26.101C13.9097 26.1333 13.9088 26.2269 13.9184 26.289C13.9254 26.3319 13.9446 26.3415 14.1362 26.3992C14.2176 26.4237 14.2875 26.4473 14.2911 26.4508C14.2955 26.4552 14.3007 26.4779 14.3042 26.5024C14.3085 26.5418 14.3016 26.5689 14.2455 26.7377C14.2106 26.8436 14.0173 27.3482 13.817 27.8608C13.6167 28.3733 13.3446 29.0748 13.2126 29.4194C13.0813 29.7649 12.9711 30.0474 12.9686 30.0474C12.9659 30.0474 12.9501 30.0124 12.9327 29.9704C12.8575 29.7894 12.4393 28.808 12.3065 28.501L12.1612 28.1669L12.1858 28.1118C12.233 28.006 12.7498 26.9704 12.8286 26.8243C12.9572 26.5881 13.0149 26.5173 13.1242 26.4683C13.1837 26.4412 13.4531 26.3502 13.5362 26.3292C13.5686 26.3214 13.5843 26.3118 13.5896 26.2995C13.5983 26.2741 13.6079 26.1001 13.6001 26.0887C13.5957 26.0817 13.475 26.0774 13.2004 26.0738C12.9843 26.0712 12.6485 26.0642 12.4543 26.0581C12.2609 26.0529 12.0991 26.0502 12.0966 26.0537C12.0861 26.0642 12.0772 26.1753 12.0825 26.2392L12.0877 26.3013L12.1936 26.3301C12.3642 26.3765 12.4377 26.4062 12.4831 26.4456L12.5233 26.4814L12.5181 26.526C12.5111 26.5785 12.4393 26.7631 12.3572 26.9424C12.2504 27.1742 11.9758 27.7383 11.9706 27.7383C11.9618 27.7383 11.8577 27.4899 11.7108 27.1217C11.6435 26.9529 11.5744 26.7841 11.5559 26.7456C11.486 26.5934 11.465 26.4674 11.4991 26.4106C11.5244 26.3695 11.5735 26.3511 11.7003 26.3345C11.8543 26.3144 11.8831 26.3065 11.8936 26.2794C11.8979 26.2671 11.9006 26.2103 11.8997 26.1517L11.8971 26.0459L11.8402 26.045C11.8087 26.0441 11.6478 26.052 11.4816 26.0634Z" fill="white"/>
<path d="M29.7624 26.462V26.8556H31.8748H33.9871V26.462V26.0684H31.8748H29.7624V26.462Z" fill="white"/>
<path d="M20.224 27.6583L20.1453 27.6635L20.0901 27.7335C19.9327 27.9338 19.8645 28.0003 19.6992 28.1131C19.5462 28.218 19.3852 28.2863 19.212 28.3204L19.1359 28.3352L19.1394 28.3711C19.1421 28.3903 19.1455 28.4297 19.1481 28.4568C19.1551 28.5189 19.1841 28.5539 19.2409 28.5688C19.3327 28.5924 19.4569 28.6335 19.4954 28.6527C19.5767 28.6938 19.5872 28.735 19.6091 29.0717C19.6249 29.3157 19.6249 30.6268 19.6091 30.7248C19.5968 30.8062 19.5934 30.8105 19.491 30.8612C19.3974 30.9085 19.3493 30.9269 19.2365 30.9574C19.1114 30.9916 19.0677 31.0161 19.0598 31.0572C19.0537 31.0904 19.0581 31.2068 19.0659 31.2137C19.0686 31.2173 19.2163 31.2129 19.394 31.2059C19.9913 31.1814 20.0429 31.1814 20.4523 31.2006C20.6648 31.2111 20.9255 31.219 21.0321 31.219H21.2255L21.236 31.1945C21.2526 31.1543 21.25 31.0432 21.2316 31.0143C21.201 30.9679 21.1669 30.9592 20.8922 30.926C20.6596 30.8988 20.5756 30.8481 20.524 30.7065C20.5056 30.6565 20.5048 30.6391 20.4987 30.1432C20.4951 29.8615 20.4873 29.4977 20.482 29.3341C20.4706 29.0114 20.4724 28.9816 20.5135 28.8574C20.5756 28.6737 20.6814 28.5417 20.7681 28.5425C20.8039 28.5434 20.8625 28.5723 20.9413 28.63C21.0418 28.7026 21.1161 28.7411 21.1948 28.7612C21.3576 28.8032 21.4957 28.7656 21.6016 28.6501C21.7459 28.4918 21.7836 28.2583 21.6917 28.0842C21.6541 28.0134 21.5395 27.9049 21.4608 27.8664C21.3068 27.7912 21.1311 27.7895 20.9832 27.8621C20.9098 27.8979 20.7269 28.058 20.6675 28.1376C20.6438 28.1699 20.5879 28.2557 20.5432 28.3282C20.4987 28.4 20.4584 28.4629 20.454 28.4682C20.4488 28.4734 20.4462 28.3422 20.4479 28.1052C20.4488 27.9005 20.4471 27.7151 20.4435 27.6915L20.4366 27.6504L20.3692 27.6521C20.3324 27.653 20.2678 27.6556 20.224 27.6583Z" fill="white"/>
<path d="M16.5372 27.8181C16.3168 27.8374 16.1348 27.8802 15.9626 27.9537C15.5357 28.1356 15.2085 28.4601 15.0476 28.8624C14.9452 29.117 14.9147 29.3006 14.9217 29.6059C14.9286 29.9007 14.9653 30.0922 15.0555 30.3083C15.1298 30.4858 15.2138 30.6065 15.3774 30.7701C15.6949 31.0867 16.0491 31.2599 16.4935 31.3158C16.6194 31.3325 16.8565 31.3368 16.9824 31.3254C17.6594 31.2651 18.1309 30.9625 18.4248 30.3975C18.5542 30.1491 18.605 29.9103 18.6059 29.5359C18.6059 29.2867 18.5954 29.2141 18.5307 29.0103C18.4388 28.7242 18.3155 28.5213 18.1038 28.3079C17.8291 28.0315 17.5335 27.8881 17.1145 27.8295C17.0025 27.8137 16.6632 27.8067 16.5372 27.8181ZM16.9701 28.105C17.2352 28.175 17.4294 28.3656 17.5326 28.6578C17.6 28.8493 17.6227 29.0225 17.6279 29.403C17.6376 30.0459 17.5956 30.3494 17.4591 30.6293C17.3743 30.8033 17.2676 30.9161 17.1189 30.9887C17.0008 31.0456 16.9431 31.0569 16.7778 31.0569C16.6169 31.0569 16.5302 31.0404 16.4182 30.9879C16.2564 30.9135 16.148 30.8129 16.0815 30.6765C15.9722 30.4534 15.9407 30.2978 15.9057 29.8097C15.8882 29.556 15.9135 28.9945 15.9521 28.8047C16.0334 28.3945 16.266 28.1426 16.6116 28.0884C16.6981 28.0753 16.8897 28.084 16.9701 28.105Z" fill="white"/>
<path d="M29.7624 28.6529V29.0421H31.8748H33.9871V28.6529V28.2637H31.8748H29.7624V28.6529Z" fill="white"/>
<path d="M29.76 30.8384V31.2277H31.8724H33.9847V30.8384V30.4492H31.8724H29.76V30.8384Z" fill="white"/>
<path d="M9.35175 33.0015C8.92672 33.0347 8.62319 33.1283 8.35028 33.3094C8.25322 33.3741 8.05028 33.5761 7.97157 33.6872C7.73625 34.0213 7.6444 34.4692 7.73017 34.8662C7.78267 35.1076 7.91387 35.3849 8.06431 35.572C8.28816 35.8502 8.58119 36.0128 9.39119 36.3068C9.94919 36.5097 10.2072 36.6304 10.3428 36.7519C10.4573 36.856 10.5641 37.0266 10.5947 37.1551C10.6157 37.2417 10.614 37.3965 10.5912 37.484C10.544 37.6624 10.4215 37.84 10.2667 37.9545C10.0498 38.1155 9.66666 38.2091 9.3649 38.175C9.18472 38.154 9.04655 38.1128 8.88993 38.0324C8.7754 37.9729 8.68707 37.9065 8.59081 37.8059C8.45087 37.6581 8.37913 37.5365 8.22349 37.1814C8.18149 37.0852 8.1439 37.0029 8.14037 36.9986C8.13596 36.9951 8.04852 36.9942 7.9436 36.9977L7.75461 37.0038L7.7599 37.2112C7.76255 37.3248 7.77128 37.5863 7.77825 37.7936C7.79317 38.2082 7.79405 38.2125 7.84999 38.2502C7.86658 38.2607 7.90161 38.2782 7.9287 38.2878C8.02232 38.3228 8.57334 38.482 8.66078 38.4986C9.05263 38.5755 9.40602 38.5869 9.77599 38.5362C10.111 38.4899 10.4049 38.3595 10.7425 38.1094C11.0233 37.9013 11.1623 37.6921 11.2542 37.3388C11.3557 36.947 11.34 36.4852 11.2148 36.1887C11.1422 36.0164 10.956 35.7714 10.7985 35.6411C10.5702 35.4531 10.1731 35.2624 9.69296 35.1128C9.09816 34.9266 8.8279 34.7813 8.65646 34.554C8.47796 34.3187 8.45873 34.0257 8.60485 33.7773C8.64244 33.7143 8.76667 33.5875 8.83576 33.5429C9.09552 33.3732 9.5119 33.3513 9.8014 33.4904C10.0305 33.6015 10.1801 33.7528 10.3052 34.0021C10.3507 34.093 10.4504 34.3371 10.4801 34.4306C10.4888 34.4569 10.4968 34.4797 10.4976 34.4813C10.5029 34.4875 10.8413 34.5094 10.8623 34.505C10.8825 34.4998 10.8869 34.4936 10.893 34.4587C10.9209 34.2942 10.8615 33.598 10.7941 33.3015L10.7801 33.2411L10.6437 33.1965C10.2641 33.0741 9.88972 33.0059 9.56608 33.0006C9.47246 32.9997 9.37628 32.9997 9.35175 33.0015Z" fill="white"/>
<path d="M31.2099 33.0195C31.2046 33.0238 31.0673 33.0955 30.9037 33.1787C30.6711 33.2976 30.5608 33.3475 30.3965 33.4105L30.1866 33.4909V33.5889V33.6868L30.3308 33.7411C30.5722 33.8329 30.6098 33.8504 30.623 33.8766C30.6589 33.944 30.6589 33.9711 30.658 35.911C30.6571 37.6289 30.6509 38.2892 30.6317 38.5105L30.6256 38.5832H30.7314H30.8373L30.9116 38.4625C31.0691 38.207 31.1373 38.0968 31.1487 38.0811C31.1601 38.0654 31.1697 38.0697 31.3341 38.166C31.6131 38.3277 31.7968 38.4117 31.9971 38.4685C32.1791 38.5193 32.2377 38.5263 32.4825 38.5255C32.8211 38.5246 32.9908 38.5009 33.1727 38.4292C33.4439 38.3216 33.6625 38.1747 33.8742 37.9561C34.2179 37.6018 34.4209 37.0254 34.3894 36.4953C34.3762 36.2749 34.3422 36.1218 34.2713 35.9548C34.1611 35.6968 34.0509 35.5306 33.8847 35.3723C33.7316 35.228 33.548 35.1116 33.3712 35.0504C33.1701 34.9795 32.8368 34.9455 32.6094 34.9708C32.4029 34.9945 32.2788 35.0338 32.0408 35.1501C31.8651 35.2359 31.7574 35.3128 31.6009 35.4641L31.5466 35.5166L31.5519 35.2945C31.5554 35.172 31.5528 34.7679 31.5475 34.3979C31.5423 34.027 31.537 33.5679 31.537 33.3763V33.0282L31.5152 33.0204C31.4871 33.009 31.2204 33.009 31.2099 33.0195ZM32.4791 35.4912C32.7511 35.535 32.9943 35.6942 33.143 35.9242C33.2549 36.0965 33.3441 36.3475 33.3791 36.5811C33.4063 36.7727 33.3861 37.1443 33.3354 37.3543C33.2995 37.5047 33.2208 37.6954 33.1499 37.8021C33.1054 37.8694 32.9811 37.998 32.9226 38.0373C32.7424 38.1572 32.5123 38.2237 32.3173 38.2132C32.109 38.2018 31.9035 38.1039 31.7531 37.9447C31.6516 37.8362 31.6105 37.7426 31.5913 37.573C31.5667 37.3586 31.551 36.6248 31.5606 36.1131L31.5667 35.758L31.6087 35.7265C31.6945 35.6635 31.9324 35.5569 32.075 35.5166C32.2149 35.4773 32.3444 35.4694 32.4791 35.4912Z" fill="white"/>
<path d="M16.686 33.0438C16.5426 33.0744 16.4106 33.1759 16.351 33.3027C16.3125 33.3841 16.3011 33.4374 16.3011 33.5441C16.3011 33.7094 16.3484 33.8214 16.4709 33.9447C16.568 34.0426 16.6598 34.0925 16.7683 34.1082C16.9249 34.131 17.0963 34.0689 17.2214 33.9438C17.2799 33.8852 17.3386 33.7759 17.3648 33.677C17.3867 33.594 17.3849 33.4514 17.3613 33.3867C17.3123 33.252 17.189 33.1269 17.0517 33.0727C16.9467 33.0316 16.798 33.0193 16.686 33.0438Z" fill="white"/>
<path d="M20.2984 33.2394V33.396L20.3491 33.41C20.3762 33.4179 20.462 33.4362 20.5389 33.4511C20.8206 33.5053 20.846 33.5106 20.8941 33.5289C20.9973 33.5683 21.0769 33.6767 21.0944 33.801C21.118 33.9698 21.18 35.8896 21.1905 36.7616C21.2037 37.8541 21.2037 37.8024 21.1871 37.8751C21.1731 37.9336 21.1688 37.9406 21.1355 37.9616C21.0646 38.0063 20.9046 38.0718 20.6859 38.1453L20.4654 38.2197L20.4593 38.2511C20.4524 38.2861 20.4611 38.4943 20.4698 38.5083C20.4768 38.5188 20.5573 38.5135 20.7926 38.4847C21.3331 38.4182 21.9148 38.4112 22.5638 38.4628C22.8752 38.4873 23.0134 38.4925 23.0869 38.482C23.1227 38.4768 23.1525 38.4715 23.1542 38.4699C23.156 38.4681 23.1612 38.4279 23.1674 38.3798C23.1743 38.3159 23.1743 38.2721 23.1683 38.2188C23.163 38.1786 23.1569 38.1436 23.1551 38.1418C23.1533 38.1401 22.9793 38.1174 22.7685 38.0911C22.5568 38.0649 22.3723 38.0412 22.3574 38.0386L22.3303 38.0342L22.3207 37.9048C22.3137 37.8217 22.3102 37.4604 22.3102 36.8797C22.3102 36.3864 22.3066 35.9421 22.3023 35.8914C22.2988 35.8406 22.297 35.7479 22.2997 35.6859C22.3014 35.6229 22.297 35.1436 22.2883 34.6205L22.2735 33.668L22.2988 33.619C22.3207 33.5744 22.3294 33.5665 22.3801 33.5412C22.4588 33.5027 22.5525 33.4852 22.7168 33.48C22.9784 33.4712 23.2399 33.5272 23.4088 33.6269C23.5583 33.7152 23.7113 33.9356 23.7735 34.1508C23.8181 34.3048 23.8268 34.3844 23.8268 34.6144C23.8268 34.8409 23.8163 34.9231 23.77 35.0649C23.6659 35.3788 23.4088 35.5826 23.0554 35.6298C22.9801 35.6403 22.7063 35.636 22.6303 35.6229L22.5961 35.6176L22.6023 35.7523C22.6119 35.9578 22.6084 35.9491 22.6862 35.9937C23.0597 36.2045 23.6038 36.2474 24.0428 36.1013C24.1478 36.0663 24.2843 36.0024 24.3718 35.9465C24.5922 35.8074 24.8065 35.5695 24.9202 35.3377C25.0793 35.0115 25.1283 34.561 25.0382 34.2514C24.9691 34.0152 24.8249 33.7494 24.6691 33.5727C24.4854 33.3628 24.2379 33.2333 23.8715 33.1537C23.6344 33.103 23.1953 33.0794 22.8831 33.1013C22.4921 33.1292 22.2463 33.138 21.7591 33.1424C21.2387 33.1467 21.2229 33.1458 20.8232 33.1196C20.5993 33.1047 20.3903 33.0908 20.3579 33.0872L20.2984 33.082V33.2394Z" fill="white"/>
<path d="M16.9045 34.8554C16.7453 34.9988 16.6185 35.0854 16.468 35.1518C16.3631 35.1974 16.2109 35.2454 16.0954 35.2691C16.0176 35.2857 15.8137 35.3128 15.7744 35.3128C15.7604 35.3128 15.7587 35.3242 15.7587 35.43V35.5472L15.8226 35.5533C16.0229 35.5717 16.1453 35.5979 16.2257 35.6382C16.3368 35.6941 16.3473 35.7108 16.3578 35.8376C16.3657 35.9391 16.3692 37.4837 16.3613 37.7399C16.3535 38.0164 16.3473 38.0513 16.2975 38.0985C16.2773 38.1179 16.2415 38.1405 16.2179 38.1484C16.1934 38.1572 16.0701 38.1773 15.9432 38.1948C15.8164 38.2114 15.7106 38.2263 15.7097 38.2281C15.7088 38.2289 15.7097 38.2901 15.7124 38.3636L15.7176 38.4966H15.7491C15.7665 38.4957 15.8435 38.4895 15.9205 38.4825C16.1191 38.4642 16.6622 38.4581 17.0751 38.4703C17.2675 38.4756 17.522 38.4825 17.6401 38.4852L17.8553 38.4904L17.8605 38.4038C17.871 38.2534 17.8745 38.2648 17.8168 38.249C17.7888 38.2411 17.7285 38.2289 17.6829 38.221C17.5439 38.1983 17.3751 38.1633 17.3191 38.1458L17.2658 38.1292L17.2596 38.0627C17.2508 37.956 17.2535 37.6123 17.2683 36.8084C17.2815 36.0922 17.2806 35.2629 17.2658 34.9122L17.2605 34.7793H17.1241L16.9876 34.7801L16.9045 34.8554Z" fill="white"/>
<path d="M13.8783 34.9517C13.1706 35.0033 12.6065 35.3147 12.2462 35.8525C12.0589 36.1315 11.9348 36.5339 11.9348 36.8611C11.9356 37.1812 12.0537 37.5853 12.2208 37.8363C12.4648 38.2019 12.9363 38.4722 13.489 38.5631C13.6211 38.585 13.9509 38.585 14.1013 38.564C14.515 38.5036 14.8334 38.3498 15.0984 38.0812C15.2296 37.9474 15.3258 37.7979 15.3818 37.6378L15.4081 37.5617L15.3713 37.5302C15.3512 37.5127 15.2935 37.4785 15.2436 37.4541L15.1535 37.4103L15.1334 37.4304C15.1229 37.4418 15.0521 37.5214 14.9769 37.6072C14.864 37.7349 14.8264 37.7707 14.7634 37.8127C14.5456 37.9596 14.4328 37.9929 14.1494 37.9929C14.0226 37.9937 13.9719 37.9902 13.9132 37.9772C13.6911 37.9291 13.5126 37.8258 13.3272 37.6404C13.0954 37.4077 12.9756 37.1602 12.9188 36.7998C12.8951 36.6467 12.8978 36.317 12.9231 36.1753C12.973 35.9033 13.0796 35.6987 13.2625 35.5219C13.3596 35.4283 13.4339 35.3759 13.538 35.326C13.6675 35.2657 13.7462 35.2481 13.8914 35.2481C13.9954 35.2481 14.0217 35.2517 14.0654 35.2674C14.2098 35.3207 14.3016 35.4266 14.3812 35.6321C14.4188 35.7293 14.4783 35.8368 14.5281 35.8989C14.5841 35.9672 14.6838 36.0371 14.7669 36.066C14.8466 36.0931 14.9935 36.0957 15.0678 36.0704C15.2078 36.0231 15.3004 35.9129 15.3346 35.7537C15.3739 35.5683 15.3285 35.4292 15.178 35.2709C14.9908 35.0741 14.7512 34.9858 14.3244 34.9543C14.215 34.9464 13.971 34.9447 13.8783 34.9517Z" fill="white"/>
<path d="M25.5464 35.1248L25.5157 35.1362L25.5052 35.214C25.4903 35.333 25.4912 35.3698 25.5104 35.3872C25.535 35.4091 25.6163 35.4328 25.7912 35.4677C25.8752 35.4852 25.9548 35.5044 25.9679 35.5115C25.9863 35.5211 25.9959 35.5368 26.0099 35.5832C26.0379 35.6724 26.0431 36.0458 26.023 36.5251C26.0038 36.9721 26.0082 37.5616 26.0317 37.726C26.0624 37.9394 26.1105 38.0724 26.1997 38.1896C26.3449 38.3794 26.5758 38.5132 26.8453 38.564C26.9765 38.5884 27.2135 38.5866 27.3456 38.5604C27.642 38.501 27.901 38.3532 28.2482 38.0453C28.3121 37.9884 28.3742 37.9351 28.3856 37.9263L28.4065 37.9097V38.0059C28.4065 38.0584 28.4092 38.2079 28.4127 38.3382L28.4179 38.5745L28.4975 38.5805L28.5771 38.5858L28.7372 38.5289C29.031 38.4231 29.4658 38.2998 29.618 38.2797C29.6521 38.2753 29.7212 38.2683 29.7728 38.2657L29.8664 38.2595L29.8725 38.2123C29.8752 38.1869 29.8743 38.1292 29.8708 38.0847L29.8629 38.0033H29.6346C29.3766 38.0033 29.3871 38.0059 29.3486 37.9333C29.3276 37.894 29.3276 37.8887 29.3363 37.5048C29.3442 37.2073 29.3512 35.2228 29.3459 35.165L29.3407 35.117L28.6436 35.1178C28.2605 35.1178 27.9229 35.1214 27.8939 35.1248L27.8406 35.1319L27.8345 35.1773C27.8214 35.2866 27.8336 35.3872 27.8633 35.4109C27.8765 35.4214 27.9062 35.4275 27.9666 35.4319C28.2395 35.4493 28.3357 35.4659 28.4153 35.5062L28.4485 35.5228L28.4547 35.9015C28.4599 36.2024 28.4572 36.4088 28.4424 36.9039C28.4214 37.607 28.431 37.5345 28.3445 37.6578C28.2824 37.7461 28.2185 37.8082 28.1136 37.8826C27.9307 38.0112 27.8231 38.061 27.6815 38.082C27.3464 38.1327 27.1015 38.0348 26.9904 37.8048C26.9624 37.7461 26.9528 37.7138 26.9423 37.6342C26.9126 37.419 26.9082 37.2231 26.9135 36.1613L26.9178 35.123L26.8784 35.1178C26.8566 35.1152 26.5548 35.1126 26.2076 35.1134C25.7239 35.1134 25.5699 35.1161 25.5464 35.1248Z" fill="white"/>
</mask>
<g mask="url(#mask0)">
<path d="M37.8824 22.2363H3.47061V42.5304H37.8824V22.2363Z" fill="white"/>
</g>
<defs>
<filter id="filter0_d" x="0" y="-2" width="49.6142" height="78" filterUnits="userSpaceOnUse" color-interpolation-filters="sRGB">
<feFlood flood-opacity="0" result="BackgroundImageFix"/>
<feColorMatrix in="SourceAlpha" type="matrix" values="0 0 0 0 0 0 0 0 0 0 0 0 0 0 0 0 0 0 127 0"/>
<feOffset dx="2" dy="2"/>
<feGaussianBlur stdDeviation="2"/>
<feColorMatrix type="matrix" values="0 0 0 0 0 0 0 0 0 0 0 0 0 0 0 0 0 0 0.25 0"/>
<feBlend mode="normal" in2="BackgroundImageFix" result="effect1_dropShadow"/>
<feBlend mode="normal" in="SourceGraphic" in2="effect1_dropShadow" result="shape"/>
</filter>
</defs>
</svg>
