<svg version="1.1" id="Слой_1" xmlns="http://www.w3.org/2000/svg" x="0" y="0" viewBox="0 0 30 30" xml:space="preserve"><style>.st0{fill:#fff}</style><path class="st0" d="M10.3 5.3h9.4c.5 0 .9-.4.9-.9s-.4-.9-.9-.9h-9.4c-.5 0-.9.4-.9.9s.4.9.9.9zM19.7 10.5h-9.4c-.5 0-.9.4-.9.9s.4.9.9.9h9.4c.5 0 .9-.4.9-.9s-.4-.9-.9-.9zM22 7H8c-.5 0-.9.4-.9.9s.4.9.9.9h14c.5 0 .9-.4.9-.9S22.5 7 22 7z"/><path class="st0" d="M29.1 0H.9C.4 0 0 .4 0 .9v17.7c0 .5.4.9.9.9h8.6v.3c0 .8.2 1.5.4 2.1L7.5 27c-.3.7.3 1.4 1 1.2l1.9-.5.8 1.8c.3.7 1.3.7 1.6 0l2-4.2h.6l2 4.2c.3.7 1.3.7 1.6 0l.8-1.8 1.9.5c.7.2 1.4-.5 1-1.2l-2.4-5.1c.3-.7.4-1.4.4-2.1v-.3h8.6c.5 0 .9-.4.9-.9V.9c-.2-.5-.6-.9-1.1-.9zM1.8 1.8h2.9L1.8 4.6V1.8zm0 15.9v-2.9l2.9 2.9H1.8zM12 27l-.3-.7c-.2-.4-.6-.6-1-.5l-.8.2 1.1-2.4c.6.6 1.2 1 2 1.3L12 27zm3-3.4a3.8 3.8 0 1 1 0-7.6 3.8 3.8 0 0 1 0 7.6zm4.4 2.2c-.4-.1-.9.1-1 .5l-.4.7-1-2.1c.7-.3 1.4-.7 2-1.3l1.1 2.4-.7-.2zm8.8-8.1h-2.9l2.9-2.9v2.9zm0-5.3-5.3 5.3h-2.7c-.8-2.1-2.8-3.5-5.2-3.5s-4.4 1.5-5.2 3.5H7.1l-5.3-5.3V7.1l5.3-5.3h15.8l5.3 5.3v5.3zm0-7.8-2.9-2.9h2.9v2.9z"/></svg>