<svg version="1.1" id="Слой_1" xmlns="http://www.w3.org/2000/svg" x="0" y="0" viewBox="0 0 30 30" xml:space="preserve"><style>.st0{fill:#fff}</style><path class="st0" d="M18.5 12.9h8.2c.5 0 .9-.4.9-.9v-1.8a5 5 0 0 0-2.5-4.3c.6-.6 1-1.5 1-2.4 0-1.9-1.6-3.5-3.5-3.5S19 1.6 19 3.5c0 1 .4 1.8 1 2.4a5 5 0 0 0-2.5 4.3V12c.1.5.5.9 1 .9zm2.3-9.4c0-1 .8-1.8 1.8-1.8s1.8.8 1.8 1.8-.8 1.8-1.8 1.8-1.8-.8-1.8-1.8zm-1.5 6.8c0-1.8 1.4-3.2 3.2-3.2 1.8 0 3.2 1.4 3.2 3.2v.9h-6.4v-.9zM20.8 14.8c-.5 0-.9.4-.9.9v10c0 .5.4.9.9.9h3.5c.5 0 .9-.4.9-.9v-10c0-.5-.4-.9-.9-.9h-3.5zm2.6 9.9h-1.8v-8.2h1.8v8.2zM11.7 18.6v7c0 .5.4.9.9.9h3.5c.5 0 .9-.4.9-.9v-7c0-.5-.4-.9-.9-.9h-3.5c-.5 0-.9.4-.9.9zm1.8.9h1.8v5.3h-1.8v-5.3zM7.9 20.6H4.4c-.5 0-.9.4-.9.9v4.1c0 .5.4.9.9.9h3.5c.5 0 .9-.4.9-.9v-4.1c0-.5-.4-.9-.9-.9zM7 24.7H5.3v-2.3H7v2.3z"/><path class="st0" d="M29.1 28.2H1.8V.9c0-.5-.4-.9-.9-.9S0 .4 0 .9v28.2c0 .5.4.9.9.9h28.2c.5 0 .9-.4.9-.9s-.4-.9-.9-.9z"/><path class="st0" d="m4.4 15.5.6-.3L7.3 13l1.4 1.4c.3.3.9.3 1.2 0l4.1-4.1v1.4c0 .5.4.9.9.9s.9-.4.9-.9V8.2c0-.5-.4-.9-.9-.9h-3.5c-.5 0-.9.4-.9.9s.4.9.9.9h1.4l-3.4 3.4L8 11.1a1 1 0 0 0-1.2 0l-3 2.9a1 1 0 0 0 0 1.2c.1.2.4.3.6.3z"/></svg>