<svg version="1.1" id="Слой_1" xmlns="http://www.w3.org/2000/svg" x="0" y="0" viewBox="0 0 30 30" xml:space="preserve"><style>.st0{fill:#fff}</style><path class="st0" d="M20.5 9.5a10.3 10.3 0 1 0-11 11 10.3 10.3 0 1 0 11-11zm-18.7.8a8.5 8.5 0 0 1 17-.7c-2.1.2-4 1.1-5.6 2.3l-2-6.1c-.1-.4-.5-.6-.8-.6-.4 0-.7.2-.8.6l-2.8 8.4c-.2.6.2 1.2.8 1.2.4 0 .7-.2.8-.6l.4-1.3h2.8a9.5 9.5 0 0 0-2 5.2 8.4 8.4 0 0 1-7.8-8.4zm9.5 1.5h-2l1-2.9 1 2.9zm8.4 16.4a8.5 8.5 0 1 1 0-17 8.5 8.5 0 0 1 0 17z"/><path class="st0" d="M18.3 15.5H16c-.5 0-.9.4-.9.9s.4.9.9.9h1.4c-.1 1.5-.6 3.9-2 5-.4.3-.4.9-.1 1.2.3.4.9.4 1.2.1 2.6-2.1 2.7-7 2.7-7.2 0-.5-.4-.9-.9-.9zM23.4 17.9h-1v-2.4c0-.5-.4-.9-.9-.9s-.9.4-.9.9v8.4c0 .5.4.9.9.9s.9-.4.9-.9v-4.3h1c.5 0 .9-.4.9-.9s-.4-.8-.9-.8zM22.5 3.7c2.1 0 3.8 1.7 3.8 3.8 0 .5.4.9.9.9s.9-.4.9-.9c0-3.1-2.5-5.6-5.6-5.6-.5 0-.9.4-.9.9s.4.9.9.9zM7.5 26.3a3.8 3.8 0 0 1-3.8-3.8c0-.5-.4-.9-.9-.9s-.9.4-.9.9c0 3.1 2.5 5.6 5.6 5.6.5 0 .9-.4.9-.9s-.4-.9-.9-.9z"/></svg>