<svg version="1.1" id="Слой_1" xmlns="http://www.w3.org/2000/svg" x="0" y="0" viewBox="0 0 30 30" xml:space="preserve"><style>.st0{fill:#fff}</style><path class="st0" d="M29.5 10.9 28 9.5c-.7-.7-1.8-.7-2.5 0l-3.1 3.1v-10c0-1.5-1.2-2.6-2.6-2.6H2.6A2.6 2.6 0 0 0 0 2.6v24.7C0 28.8 1.2 30 2.6 30h17.2c1.5 0 2.6-1.2 2.6-2.6v-7l7-7c.8-.7.8-1.8.1-2.5zM19 21.3l-2.6 1.2 1.2-2.6 6.6-6.6 1.5 1.5-6.7 6.5zm1.7 6.1c0 .5-.4.9-.9.9H2.6a.9.9 0 0 1-.9-.9V2.6c0-.5.4-.9.9-.9h17.2c.5 0 .9.4.9.9v11.7c-4.9 4.9-4.6 4.5-4.6 4.7l-2.3 5c-.2.3-.1.7.2 1 .3.3.7.3 1 .2l5-2.3.8-.7v5.2zm6.1-13.8-1.5-1.5 1.4-1.4 1.5 1.5-1.4 1.4z"/><path class="st0" d="M4.7 7.4h13.1c.5 0 .9-.4.9-.9s-.4-.9-.9-.9H4.7c-.5 0-.9.4-.9.9s.4.9.9.9zM4.7 12.1H15c.5 0 .9-.4.9-.9s-.4-.9-.9-.9H4.7c-.5 0-.9.4-.9.9s.4.9.9.9zM12.2 15.1H4.7c-.5 0-.9.4-.9.9s.4.9.9.9h7.5c.5 0 .9-.4.9-.9s-.4-.9-.9-.9z"/></svg>