<svg version="1.1" id="_x3C_Layer_x3E_" xmlns="http://www.w3.org/2000/svg" x="0" y="0" viewBox="0 0 2760 1840" xml:space="preserve"><style>.st2{fill:#8c9df4}.st3{fill:#505aba}.st4{fill:#fff}.st5{fill:#aec3ff}.st6{fill:#f99746}.st7{fill:#bdd1f9}.st8{fill:#35488b}.st9{fill:#2c3a64}.st10{fill:#dde7fe}.st11{fill:#6c7aff}.st12{fill:#8fadef}.st15{fill:#2a3967}.st16{fill:#344670}.st18{fill:#eaeaea}.st19{fill:#233862}.st20{fill:#ffb27d}.st22{fill:#0d458e}.st24{fill:#d1d3d7}.st25{fill:#e2e7f4}.st27{fill:#2a4e96}.st31{fill:#1f4d84}</style><path fill="#e6f2fb" d="M0 0h2760v1840H0z"/><g opacity=".4"><path class="st2" d="M462.23 934.62h86.33c7.6 0 13.76-6.16 13.76-13.76V557.5c0-7.6-6.16-13.76-13.76-13.76h-86.33c-7.6 0-13.76 6.16-13.76 13.76v363.36c0 7.6 6.16 13.76 13.76 13.76z"/><path class="st3" d="M532.08 850.32c0-14.74-11.95-26.68-26.68-26.68-14.74 0-26.68 11.95-26.68 26.68 0 14.74 11.95 26.68 26.68 26.68s26.68-11.95 26.68-26.68z"/><path class="st4" d="M505.39 879.98c-16.27 0-29.51-13.24-29.51-29.51 0-16.27 13.24-29.51 29.51-29.51 16.27 0 29.51 13.24 29.51 29.51 0 16.27-13.24 29.51-29.51 29.51zm0-53.37c-13.16 0-23.86 10.7-23.86 23.86s10.7 23.86 23.86 23.86 23.86-10.7 23.86-23.86-10.7-23.86-23.86-23.86z"/><path class="st5" d="M477.12 781.34h56.51a5.08 5.08 0 005.08-5.08V566.72a5.08 5.08 0 00-5.08-5.08h-56.51a5.08 5.08 0 00-5.08 5.08v209.54a5.08 5.08 0 005.08 5.08z"/><path class="st6" d="M483.9 578.4h41.6c2.23 0 4.05-1.81 4.05-4.05v-.72c0-2.24-1.81-4.05-4.05-4.05h-41.6c-2.23 0-4.05 1.81-4.05 4.05v.72a4.059 4.059 0 004.05 4.05z"/><path class="st3" d="M513.9 710v45.29a2.2 2.2 0 004.4 0V710a2.2 2.2 0 00-2.2-2.2c-1.22-.01-2.2.98-2.2 2.2zM513.9 647.69v45.29a2.2 2.2 0 004.4 0v-45.29a2.2 2.2 0 00-4.4 0zM488.63 710v45.29a2.2 2.2 0 004.4 0V710a2.2 2.2 0 00-2.2-2.2c-1.21-.01-2.2.98-2.2 2.2zM488.63 647.69v45.29a2.2 2.2 0 004.4 0v-45.29a2.2 2.2 0 00-2.2-2.2c-1.21 0-2.2.99-2.2 2.2zM501.78 697.22v58.07a2.2 2.2 0 004.4 0v-58.07a2.2 2.2 0 00-2.2-2.2c-1.22-.01-2.2.98-2.2 2.2zM501.78 618.89v58.07a2.2 2.2 0 004.4 0v-58.07a2.2 2.2 0 00-2.2-2.2c-1.22 0-2.2.98-2.2 2.2z"/><path class="st2" d="M604.21 934.62h86.34c7.6 0 13.76-6.16 13.76-13.76V557.5c0-7.6-6.16-13.76-13.76-13.76h-86.34c-7.6 0-13.76 6.16-13.76 13.76v363.36c0 7.6 6.16 13.76 13.76 13.76z"/><path class="st3" d="M674.06 850.32c0-14.74-11.95-26.68-26.68-26.68-14.74 0-26.68 11.95-26.68 26.68 0 14.74 11.95 26.68 26.68 26.68s26.68-11.95 26.68-26.68z"/><path class="st4" d="M647.38 879.98c-16.27 0-29.51-13.24-29.51-29.51 0-16.27 13.24-29.51 29.51-29.51 16.27 0 29.51 13.24 29.51 29.51-.01 16.27-13.24 29.51-29.51 29.51zm0-53.37c-13.16 0-23.86 10.7-23.86 23.86s10.7 23.86 23.86 23.86c13.15 0 23.86-10.7 23.86-23.86-.01-13.16-10.71-23.86-23.86-23.86z"/><path class="st5" d="M619.1 781.34h56.51a5.08 5.08 0 005.08-5.08V566.72a5.08 5.08 0 00-5.08-5.08H619.1a5.08 5.08 0 00-5.08 5.08v209.54a5.08 5.08 0 005.08 5.08z"/><path class="st6" d="M625.88 578.4h41.6c2.24 0 4.05-1.81 4.05-4.05v-.72c0-2.24-1.81-4.05-4.05-4.05h-41.6c-2.24 0-4.05 1.81-4.05 4.05v.72a4.059 4.059 0 004.05 4.05z"/><path class="st3" d="M655.88 710v45.29a2.2 2.2 0 004.4 0V710a2.2 2.2 0 00-2.2-2.2c-1.22-.01-2.2.98-2.2 2.2zM655.88 647.69v45.29a2.2 2.2 0 004.4 0v-45.29a2.2 2.2 0 00-4.4 0zM630.61 710v45.29a2.2 2.2 0 004.4 0V710a2.2 2.2 0 00-2.2-2.2c-1.21-.01-2.2.98-2.2 2.2zM630.61 647.69v45.29a2.2 2.2 0 004.4 0v-45.29a2.2 2.2 0 00-2.2-2.2c-1.21 0-2.2.99-2.2 2.2zM643.76 697.22v58.07a2.2 2.2 0 004.4 0v-58.07a2.2 2.2 0 00-2.2-2.2c-1.21-.01-2.2.98-2.2 2.2zM643.76 618.89v58.07a2.2 2.2 0 004.4 0v-58.07a2.2 2.2 0 00-4.4 0z"/><g><path class="st2" d="M748.9 934.62h86.34c7.6 0 13.76-6.16 13.76-13.76V557.5c0-7.6-6.16-13.76-13.76-13.76H748.9c-7.6 0-13.76 6.16-13.76 13.76v363.36c0 7.6 6.16 13.76 13.76 13.76z"/><path class="st3" d="M818.75 850.32c0-14.74-11.95-26.68-26.68-26.68-14.74 0-26.68 11.95-26.68 26.68 0 14.74 11.95 26.68 26.68 26.68s26.68-11.95 26.68-26.68z"/><path class="st4" d="M792.07 879.98c-16.27 0-29.51-13.24-29.51-29.51 0-16.27 13.24-29.51 29.51-29.51 16.27 0 29.51 13.24 29.51 29.51 0 16.27-13.24 29.51-29.51 29.51zm0-53.37c-13.16 0-23.86 10.7-23.86 23.86s10.7 23.86 23.86 23.86 23.86-10.7 23.86-23.86c-.01-13.16-10.71-23.86-23.86-23.86z"/><path class="st5" d="M763.8 781.34h56.51a5.08 5.08 0 005.08-5.08V566.72a5.08 5.08 0 00-5.08-5.08H763.8a5.08 5.08 0 00-5.08 5.08v209.54c0 2.81 2.27 5.08 5.08 5.08z"/><path class="st6" d="M770.58 578.4h41.6c2.23 0 4.05-1.81 4.05-4.05v-.72c0-2.24-1.81-4.05-4.05-4.05h-41.6c-2.24 0-4.05 1.81-4.05 4.05v.72c0 2.24 1.81 4.05 4.05 4.05z"/><path class="st3" d="M800.57 710v45.29a2.2 2.2 0 004.4 0V710a2.2 2.2 0 00-2.2-2.2c-1.21-.01-2.2.98-2.2 2.2zM800.57 647.69v45.29a2.2 2.2 0 004.4 0v-45.29a2.2 2.2 0 00-2.2-2.2c-1.21 0-2.2.99-2.2 2.2zM775.3 710v45.29a2.2 2.2 0 004.4 0V710a2.2 2.2 0 00-2.2-2.2c-1.21-.01-2.2.98-2.2 2.2zM775.3 647.69v45.29a2.2 2.2 0 004.4 0v-45.29a2.2 2.2 0 00-2.2-2.2c-1.21 0-2.2.99-2.2 2.2zM788.45 697.22v58.07a2.2 2.2 0 004.4 0v-58.07a2.2 2.2 0 00-2.2-2.2c-1.21-.01-2.2.98-2.2 2.2zM788.45 618.89v58.07a2.2 2.2 0 004.4 0v-58.07a2.2 2.2 0 00-4.4 0z"/></g><g><path class="st2" d="M897.91 934.62h86.34c7.6 0 13.75-6.16 13.75-13.76V557.5c0-7.6-6.16-13.76-13.75-13.76h-86.34c-7.6 0-13.76 6.16-13.76 13.76v363.36c0 7.6 6.16 13.76 13.76 13.76z"/><path class="st5" d="M912.8 781.34h56.51a5.08 5.08 0 005.08-5.08V566.72a5.08 5.08 0 00-5.08-5.08H912.8a5.08 5.08 0 00-5.08 5.08v209.54a5.08 5.08 0 005.08 5.08z"/><path class="st6" d="M919.58 578.4h41.6c2.24 0 4.05-1.81 4.05-4.05v-.72c0-2.24-1.81-4.05-4.05-4.05h-41.6c-2.24 0-4.05 1.81-4.05 4.05v.72a4.059 4.059 0 004.05 4.05z"/></g><g><path class="st2" d="M1041.71 934.62h86.33c7.6 0 13.76-6.16 13.76-13.76V557.5c0-7.6-6.16-13.76-13.76-13.76h-86.33c-7.6 0-13.76 6.16-13.76 13.76v363.36c0 7.6 6.16 13.76 13.76 13.76z"/><path class="st5" d="M1056.61 781.34h56.51a5.08 5.08 0 005.08-5.08V566.72c0-2.81-2.27-5.08-5.08-5.08h-56.51a5.08 5.08 0 00-5.08 5.08v209.54c-.01 2.81 2.27 5.08 5.08 5.08z"/><path class="st6" d="M1063.38 578.4h41.6c2.23 0 4.05-1.81 4.05-4.05v-.72c0-2.24-1.81-4.05-4.05-4.05h-41.6c-2.24 0-4.05 1.81-4.05 4.05v.72a4.059 4.059 0 004.05 4.05z"/></g><g><path class="st2" d="M462.23 1376.72h86.33c7.6 0 13.76-6.16 13.76-13.76V999.61c0-7.6-6.16-13.75-13.76-13.75h-86.33c-7.6 0-13.76 6.16-13.76 13.75v363.36c0 7.6 6.16 13.75 13.76 13.75z"/><circle class="st3" cx="505.39" cy="1292.42" r="26.68"/><path class="st4" d="M505.39 1322.08c-16.27 0-29.51-13.24-29.51-29.51 0-16.27 13.24-29.51 29.51-29.51 16.27 0 29.51 13.24 29.51 29.51 0 16.28-13.24 29.51-29.51 29.51zm0-53.36c-13.16 0-23.86 10.7-23.86 23.86s10.7 23.86 23.86 23.86 23.86-10.7 23.86-23.86-10.7-23.86-23.86-23.86z"/><path class="st5" d="M477.12 1223.45h56.51a5.08 5.08 0 005.08-5.08v-209.54a5.08 5.08 0 00-5.08-5.08h-56.51a5.08 5.08 0 00-5.08 5.08v209.54c0 2.8 2.28 5.08 5.08 5.08z"/><path class="st6" d="M483.9 1020.5h41.6c2.23 0 4.05-1.81 4.05-4.05v-.72c0-2.24-1.81-4.05-4.05-4.05h-41.6c-2.23 0-4.05 1.81-4.05 4.05v.72a4.059 4.059 0 004.05 4.05z"/><path class="st3" d="M513.9 1152.11v45.29a2.2 2.2 0 004.4 0v-45.29a2.2 2.2 0 00-2.2-2.2c-1.22-.01-2.2.98-2.2 2.2zM513.9 1089.8v45.29a2.2 2.2 0 004.4 0v-45.29a2.2 2.2 0 00-2.2-2.2c-1.22 0-2.2.98-2.2 2.2zM488.63 1152.11v45.29a2.2 2.2 0 004.4 0v-45.29a2.2 2.2 0 00-2.2-2.2c-1.21-.01-2.2.98-2.2 2.2zM488.63 1089.8v45.29a2.2 2.2 0 004.4 0v-45.29a2.2 2.2 0 00-4.4 0zM501.78 1139.33v58.07a2.2 2.2 0 004.4 0v-58.07a2.2 2.2 0 00-2.2-2.2c-1.22-.01-2.2.98-2.2 2.2zM501.78 1061v58.07a2.2 2.2 0 004.4 0V1061a2.2 2.2 0 00-2.2-2.2c-1.22-.01-2.2.98-2.2 2.2z"/></g><g><path class="st2" d="M604.21 1376.72h86.34c7.6 0 13.76-6.16 13.76-13.76V999.61c0-7.6-6.16-13.75-13.76-13.75h-86.34c-7.6 0-13.76 6.16-13.76 13.75v363.36c0 7.6 6.16 13.75 13.76 13.75z"/><path class="st3" d="M674.06 1292.42c0-14.74-11.95-26.68-26.68-26.68-14.74 0-26.68 11.95-26.68 26.68 0 14.74 11.95 26.68 26.68 26.68 14.73.01 26.68-11.94 26.68-26.68z"/><path class="st4" d="M647.38 1322.08c-16.27 0-29.51-13.24-29.51-29.51 0-16.27 13.24-29.51 29.51-29.51 16.27 0 29.51 13.24 29.51 29.51-.01 16.28-13.24 29.51-29.51 29.51zm0-53.36c-13.16 0-23.86 10.7-23.86 23.86s10.7 23.86 23.86 23.86c13.15 0 23.86-10.7 23.86-23.86-.01-13.16-10.71-23.86-23.86-23.86z"/><path class="st5" d="M619.1 1223.45h56.51a5.08 5.08 0 005.08-5.08v-209.54a5.08 5.08 0 00-5.08-5.08H619.1a5.08 5.08 0 00-5.08 5.08v209.54c0 2.8 2.28 5.08 5.08 5.08z"/><path class="st6" d="M625.88 1020.5h41.6c2.24 0 4.05-1.81 4.05-4.05v-.72c0-2.24-1.81-4.05-4.05-4.05h-41.6c-2.24 0-4.05 1.81-4.05 4.05v.72a4.059 4.059 0 004.05 4.05z"/><path class="st3" d="M655.88 1152.11v45.29a2.2 2.2 0 004.4 0v-45.29a2.2 2.2 0 00-2.2-2.2c-1.22-.01-2.2.98-2.2 2.2zM655.88 1089.8v45.29a2.2 2.2 0 004.4 0v-45.29a2.2 2.2 0 00-2.2-2.2c-1.22 0-2.2.98-2.2 2.2zM630.61 1152.11v45.29a2.2 2.2 0 004.4 0v-45.29a2.2 2.2 0 00-2.2-2.2c-1.21-.01-2.2.98-2.2 2.2zM630.61 1089.8v45.29a2.2 2.2 0 004.4 0v-45.29a2.2 2.2 0 00-4.4 0zM643.76 1139.33v58.07a2.2 2.2 0 004.4 0v-58.07a2.2 2.2 0 00-2.2-2.2c-1.21-.01-2.2.98-2.2 2.2zM643.76 1061v58.07a2.2 2.2 0 004.4 0V1061a2.2 2.2 0 00-2.2-2.2c-1.21-.01-2.2.98-2.2 2.2z"/></g><g><path class="st2" d="M748.9 1376.72h86.34c7.6 0 13.76-6.16 13.76-13.76V999.61c0-7.6-6.16-13.75-13.76-13.75H748.9c-7.6 0-13.76 6.16-13.76 13.75v363.36c0 7.6 6.16 13.75 13.76 13.75z"/></g><g><path class="st2" d="M897.91 1376.72h86.34c7.6 0 13.75-6.16 13.75-13.76V999.61c0-7.6-6.16-13.75-13.75-13.75h-86.34c-7.6 0-13.76 6.16-13.76 13.75v363.36c0 7.6 6.16 13.75 13.76 13.75z"/></g><g><path class="st2" d="M1041.71 1376.72h86.33c7.6 0 13.76-6.16 13.76-13.76V999.61c0-7.6-6.16-13.75-13.76-13.75h-86.33c-7.6 0-13.76 6.16-13.76 13.75v363.36c0 7.6 6.16 13.75 13.76 13.75z"/></g><g><path class="st7" d="M418.01 1605.7c-7.56 0-13.69-6.13-13.69-13.69V503.3c0-7.56 6.13-13.69 13.69-13.69s13.69 6.13 13.69 13.69v1088.71c0 7.56-6.13 13.69-13.69 13.69z"/></g><g><path transform="rotate(-180 799.747 940.164)" class="st7" d="M404.33 934.67h790.84v10.99H404.33z"/></g><g><path transform="rotate(-180 824.3 1382.046)" class="st7" d="M404.33 1376.55h839.94v10.99H404.33z"/></g></g><path transform="rotate(-180 2389.71 1300.353)" class="st8" d="M2357.38 1196.04h64.67v208.62h-64.67z"/><path transform="rotate(-180 2279.4 1300.353)" class="st9" d="M2201.43 1196.04h155.95v208.62h-155.95z"/><path class="st10" d="M2400.5 1222.1c0-5.96-4.83-10.79-10.79-10.79-5.96 0-10.79 4.83-10.79 10.79 0 5.96 4.83 10.79 10.79 10.79 5.96 0 10.79-4.83 10.79-10.79z"/><path class="st11" d="M2397.34 1222.1c0-4.22-3.42-7.63-7.63-7.63s-7.63 3.42-7.63 7.63 3.42 7.63 7.63 7.63 7.63-3.42 7.63-7.63z"/><path transform="rotate(-180 2389.472 1275.575)" class="st12" d="M2374.26 1248.1h30.42v54.95h-30.42z"/><path transform="rotate(-180 2269.07 1300.353)" class="st8" d="M2236.74 1196.04h64.67v208.62h-64.67z"/><path transform="rotate(-180 2158.762 1300.353)" class="st9" d="M2080.79 1196.04h155.95v208.62h-155.95z"/><path class="st10" d="M2279.86 1222.1c0-5.96-4.83-10.79-10.79-10.79-5.96 0-10.79 4.83-10.79 10.79 0 5.96 4.83 10.79 10.79 10.79 5.96 0 10.79-4.83 10.79-10.79z"/><path class="st11" d="M2276.7 1222.1c0-4.22-3.42-7.63-7.63-7.63s-7.63 3.42-7.63 7.63 3.42 7.63 7.63 7.63c4.22 0 7.63-3.42 7.63-7.63z"/><path transform="rotate(-180 2268.834 1275.575)" class="st12" d="M2253.62 1248.1h30.42v54.95h-30.42z"/><path transform="rotate(-180 2158.763 1300.353)" class="st8" d="M2126.43 1196.04h64.67v208.62h-64.67z"/><path transform="rotate(-180 2048.455 1300.353)" class="st9" d="M1970.48 1196.04h155.95v208.62h-155.95z"/><path class="st10" d="M2169.56 1222.1c0-5.96-4.83-10.79-10.79-10.79-5.96 0-10.79 4.83-10.79 10.79 0 5.96 4.83 10.79 10.79 10.79 5.95 0 10.79-4.83 10.79-10.79z"/><path class="st11" d="M2166.4 1222.1c0-4.22-3.42-7.63-7.63-7.63s-7.63 3.42-7.63 7.63 3.42 7.63 7.63 7.63 7.63-3.42 7.63-7.63z"/><path transform="rotate(-180 2158.525 1275.575)" class="st12" d="M2143.32 1248.1h30.42v54.95h-30.42z"/><path transform="rotate(-180 2143.448 1466.873)" fill="#f77d48" d="M1960.76 1331.9h365.37v269.95h-365.37z"/><path transform="rotate(-180 2301.404 1466.873)" fill="#ff8c64" d="M2156.56 1331.9h289.69v269.95h-289.69z"/><path class="st9" d="M2280.4 1375.97h75.04c4.65 0 8.45-3.8 8.45-8.45v-1.09c0-4.65-3.8-8.45-8.45-8.45h-75.04c-4.65 0-8.45 3.8-8.45 8.45v1.09c0 4.65 3.8 8.45 8.45 8.45z"/><path class="st15" d="M1410.41 979.09l-49.41 587.5s-5.18 35.61 21.31 35.68c43.55.1 216.79 0 216.79 0s-32.78-7.41-32.38-24.09c.47-19.66 57.75-604.64 57.75-604.64l-214.06 5.55z"/><path class="st16" d="M1615.4 1591.58c-8.57.03-176.28.31-218.69-.24-18.48-.23-21.73-16.44-21.88-26.92-.08-5.03.56-8.75.56-8.75l1.29-15.27 3.28-38.92 2.89-34.38 3.72-44.18 3.13-37.29 35.11-417.46 214.06-5.55s-24.12 244.81-41.19 423.01c-1.91 19.85-3.72 38.89-5.39 56.66-.54 5.67-1.06 11.22-1.57 16.62-1.58 16.86-3.03 32.34-4.29 46.01-.66 7.21-1.28 13.9-1.83 20.03-2.18 24.03-3.45 39.38-3.47 42.3-.01 1.7.14 3.28.42 4.76 3.49 18.73 30.64 19.57 33.85 19.57z"/><path class="st16" d="M890.56 659.14l120.35 483.44 16.48 66.21 56.05 225.17h1041.42l-206.61-774.82z"/><path class="st15" d="M890.56 659.14l-16.68 5.56 187.39 786.08 22.18-16.82z"/><path class="st15" d="M1061.27 1450.78h1035l28.58-16.82h-1041.4z"/><path transform="rotate(-180 1536.778 1596.908)" fill="#1e3459" d="M1424.73 1591.58h224.09v10.65h-224.09z"/><path class="st15" d="M1591.86 1450.77l-1.16 8.14-210.75 42.58 2.9-34.38 1.37-16.34zM1615.4 1591.58c-8.57.03-176.28.31-218.69-.24-18.48-.23-21.73-16.44-21.88-26.92l209.75-39.46c-2.18 24.03-3.45 39.38-3.47 42.3-.01 1.7.14 3.28.42 4.76 3.51 18.72 30.66 19.56 33.87 19.56z"/><path class="st16" d="M890.56 659.14h1027.69l166.74 622.71H1045.58z"/><path class="st4" d="M1881.49 692.5H933.12l10.9 43.41 5.82 23.16 7.13 28.4 8.36 33.29 18.69 74.41 1.83 7.33 35.34 140.77 5.42 21.61 13.3 53 34.39 136.98h962.23l-141.7-562.36h-13.34z"/><path class="st18" d="M1357.93 1224.6h-248.85c-7.97 0-14.92-5.42-16.86-13.15l-47.65-189.55c-2.76-10.98 5.54-21.62 16.86-21.62h248.85c7.97 0 14.92 5.42 16.86 13.15l47.65 189.55c2.76 10.98-5.54 21.62-16.86 21.62zM1669.06 1224.6h-248.85c-7.97 0-14.92-5.42-16.86-13.15l-47.65-189.55c-2.76-10.98 5.54-21.62 16.86-21.62h248.85c7.97 0 14.92 5.42 16.86 13.15l47.65 189.55c2.76 10.98-5.54 21.62-16.86 21.62zM1291.44 958.68h-248.85c-7.97 0-14.92-5.42-16.86-13.15l-47.65-189.55c-2.76-10.98 5.54-21.62 16.86-21.62h248.85c7.97 0 14.92 5.42 16.86 13.15l47.65 189.55c2.76 10.97-5.54 21.62-16.86 21.62zM1602.57 958.68h-248.85c-7.97 0-14.92-5.42-16.86-13.15l-47.65-189.55c-2.76-10.98 5.54-21.62 16.86-21.62h248.85c7.97 0 14.92 5.42 16.86 13.15l47.65 189.55c2.76 10.97-5.54 21.62-16.86 21.62zM1984.01 1224.6h-248.85c-7.97 0-14.92-5.42-16.86-13.15l-47.65-189.55c-2.76-10.98 5.54-21.62 16.86-21.62h248.85c7.97 0 14.92 5.42 16.86 13.15l47.65 189.55c2.76 10.98-5.54 21.62-16.86 21.62zM1917.52 958.68h-248.85c-7.97 0-14.92-5.42-16.86-13.15l-47.65-189.55c-2.76-10.98 5.54-21.62 16.86-21.62h248.85c7.97 0 14.92 5.42 16.86 13.15l47.65 189.55c2.76 10.97-5.54 21.62-16.86 21.62z"/><g><path class="st19" d="M2595.16 1609.04H264.01c-1.52 0-2.76-1.24-2.76-2.76v-1.21c0-1.52 1.24-2.76 2.76-2.76h2331.15c1.52 0 2.76 1.24 2.76 2.76v1.21c0 1.52-1.24 2.76-2.76 2.76z"/></g><g><path class="st20" d="M1157.79 784.32c-1.53 1.75-1.73 3.71-.97 5.81 0 .01.01.02.01.03 1.4 3.87 6.03 8.2 11.4 12.52.69.56 1.3 1.06 1.83 1.53.14.12.28.24.41.37l.32.29c5.01 4.62 3.12 5.68 12.13 15.06 10.27 10.69 17.34 10.88 19.35 9.91 1.7-.83-1.75-6.5-5.58-12.87-.19-.31-.37-.62-.56-.93-.51-.85-1.02-1.71-1.52-2.56-4.49-7.67-3.33-11.26-2.26-22.67.87-9.27 14.44-51.79 14.44-51.79l-19.68-3.4s-5.94 33.86-12.47 39.07c-3.49 2.78-7.4 2.81-10.76 4.87-.24.14-.47.29-.7.44-1.91 1.26-3.85 2.57-5.39 4.32z"/><path class="st19" d="M1157.79 784.32c-1.53 1.75-1.73 3.71-.97 5.81 0 .01.01.02.01.03 1.71 3.87 6.22 8.17 11.42 12.48.68.56 1.28 1.08 1.81 1.57.14.12.28.24.41.37l.32.29c5.01 4.62 3.12 5.68 12.13 15.06 10.27 10.69 17.34 10.88 19.35 9.91 1.7-.83-1.75-6.5-5.58-12.87-2-.73-11.28-4.51-18.3-13.5-5.96-7.61-10-17.3-14.05-23.25-.45-.08-.71-.13-1.16-.22-1.91 1.26-3.85 2.57-5.39 4.32z"/><path class="st20" d="M1316.48 772.09c1.21 6.08 9.87 5.07 19.55 2.7 9.67-2.36 7.38.45 21.14-1.07 13.77-1.52 17.94-6.65 18.36-8.7.38-1.82-6.43-2.46-13.72-3.3-.92-.1-1.84-.22-2.76-.33-8.24-1.04-14.27-6.36-21.75-10.72-7.09-4.14-17.66-20.99-17.66-20.99l-18.88 1.49s9.9 15.05 13.73 21.6c2.25 3.85 2.13 8.94 1.85 12.87-.15 2.12-.29 4.31.14 6.45z"/><path class="st19" d="M1336.03 774.79c9.67-2.36 7.38.45 21.14-1.07 13.77-1.52 17.94-6.65 18.36-8.7.38-1.82-6.43-2.46-13.72-3.3l-.07.14s-8.26 5.85-19.72 6.12c-9.34.22-19.24-2.45-25.69-2.35-.15 2.14-.29 4.32.14 6.46 1.23 6.07 9.88 5.06 19.56 2.7z"/><path d="M1244.16 651.32l-17.67 47.49-23.07 62.01s-6.25.6-12.24-1.12c-5.51-1.6-11.84-5.77-11.84-5.77s6.42-66.59 18.37-104.81c3.06-9.81 6.49-17.75 10.28-22.21 18.52-21.86 36.17 24.41 36.17 24.41z" fill="#0b3563"/><path class="st22" d="M1226.24 575.88c-10.05-3.24-36.26-.06-64.7 5.07a19.274 19.274 0 01-19.91-9l-71.56-5.61s-23.63 52.36-10.72 85.73c1.9 4.9 6.07 7.97 12.5 8.07 0 0 43.24.07 57.07.08 35.59.01 75.33-24.44 80.47-25.47 8.41-1.68 11.77 15.15 20.18 32.82s79.05 78.26 79.05 78.26 10.86.11 15.35-1.57c4.82-1.81 6.59-4.16 6.59-4.16s-78.24-155.79-104.32-164.22z"/><path class="st19" d="M1134.1 361.81c-5.31-3.17-10.49-3.65-13.67-3.56-2.21.06-4.42-.08-6.6-.4-27.31-4.01-43.77 35.65-44.74 47.64-1.78 22.01-13.42 25.36-29.81 39.14-32.87 27.62-23.25 59.74-5.28 71.68 10.78 7.16 29.78.01 29.78.01.27.19 51.98-28.88 77.47-42.9 38.2-5.43 8.19-102.47-7.15-111.61z"/><path class="st20" d="M1119.88 461.45c.11.07-12.54 4.39-21 .64-7.96-3.52-13.98-16.61-13.86-16.62 3.62-.17 7.6-3.33 10.66-24.1l1.54.55 25.92 9.33s-1.88 8.32-3.1 16.23c-1.02 6.66-1.57 13.03-.16 13.97z"/><path d="M1123.14 431.26s-1.04 4.49-2.55 12.87c-14.89-2.68-21.27-14.15-23.37-22.2l25.92 9.33z" fill="#ed975d"/><path class="st20" d="M1127 439.52s-35.46-4.77-32.15-26.81c3.31-22.04.97-37.49 23.75-35.38 22.78 2.12 25.9 11.18 26.59 18.81.68 7.62-8.88 44.05-18.19 43.38z"/><path class="st19" d="M1143.9 384.06s-22.71 19.56-38.15 21.13c-15.44 1.57-21.29-3.39-21.29-3.39s9.1-7.55 14.58-19.75c1.62-3.59 5.03-6.06 8.95-6.4 11.04-.94 31.94-1.37 35.91 8.41z"/><path class="st19" d="M1129.71 382.3s7.59 7.35 9.98 12.79c2.31 5.26 2.99 17.83 1.15 22.82 0 0 11.84-23 5.15-34.18-7.1-11.86-16.28-1.43-16.28-1.43z"/><path class="st22" d="M1226.49 698.82l-23.07 62.01s-6.25.6-12.24-1.12c-5.51-1.6-11.84-5.77-11.84-5.77s6.42-66.59 18.37-104.81l28.78 49.69z"/><path class="st24" d="M1120.05 447.5s30.84 5.24 34.46 18.52c3.62 13.28 15.51 93.9 15.51 93.9s-8.7 8.49-15.94 1.24-22.77-75.43-22.77-75.43l-11.26-38.23z"/><path class="st4" d="M1149.73 513.7c-1.1 71.78-.31 56.78-8.17 63.59-1.89 1.64-7.21 2.61-14.21 3.07-22.01 1.45-60.7-2.19-62.17-6.25-5.07-14.08-1.49-18.45-5.71-40-.44-2.29-.99-4.77-1.63-7.47-3.53-14.8-6.96-19.84 5.58-43.61 11.37-21.53 23.18-39.01 24.24-38.38 29.97 17.81 32.39 2.85 32.39 2.85s30.21 31.19 29.68 66.2z"/><path class="st24" d="M1127.34 580.37c-22.01 1.45-60.7-2.19-62.17-6.25-5.07-14.08-1.49-18.45-5.71-40l10.63-29.89s-1.77 33.29 8.05 42.05c9.8 8.76 40.19 16.92 44.96 24.23 2.29 3.51 3.8 7.03 4.24 9.86z"/><path class="st20" d="M1102.13 566.36s21.72-4.83 25.22-2.9c3.5 1.93 12.06 8.95 13.13 11.39 1.07 2.44-7.8-1.86-10.68-2.63-1.87-.5-6.79 1.21-9.23 2.02-10.25 3.41-16.53 1.65-16.53 1.65l-1.91-9.53z"/><path class="st4" d="M1087.63 444.64s-29.16 1.79-39.26 15.86c-14.21 19.81-42.43 104.26-26.28 115.53 18.19 12.69 82.79 3.35 82.79 3.35s2.15-10.05-.84-14.91c-2.99-4.86-51.59-12.73-53.84-14.97-2.24-2.24 28.06-43.74 28.06-50.47.02-6.74 9.37-54.39 9.37-54.39z"/><path class="st20" d="M1128.4 569.5s4.55 5.87 6.04 6.57c1.49.7 2.46.53 2.46.53l-3.06-5.52-5.44-1.58zM1127.35 563.46l13.23 6.43s-.56.92-2.19.85c-1.63-.07-5.74-1.58-5.74-1.58l-5.3-5.7z"/><g><path class="st19" d="M1240.31 578.6l-138.18-.05v3.05l136.95.05z"/></g><g><path class="st19" d="M1134.44 581.61l104.64.04 31.5-78.27-104.48-.04z"/></g><g><path class="st4" d="M1212.68 542.5c.79-2.75-.8-4.98-3.55-4.98s-5.62 2.23-6.41 4.98c-.79 2.75.8 4.98 3.55 4.98s5.62-2.23 6.41-4.98z"/></g></g><path class="st4" d="M1574.39 881.56h-220.98c-1.22 0-2.29-.84-2.57-2.03l-4.89-20.35c-.4-1.66.86-3.26 2.57-3.26h220.98c1.22 0 2.29.84 2.57 2.03l4.89 20.35c.4 1.66-.86 3.26-2.57 3.26zM1497.06 913.3H1361.3c-1.22 0-2.28-.83-2.57-2.01l-4.04-16.32c-.41-1.67.85-3.28 2.57-3.28h135.76c1.22 0 2.28.83 2.57 2.01l4.04 16.32c.41 1.67-.85 3.28-2.57 3.28zM1888.34 881.56h-220.98c-1.22 0-2.29-.84-2.57-2.03l-4.89-20.35c-.4-1.66.86-3.26 2.57-3.26h220.98c1.22 0 2.29.84 2.57 2.03l4.89 20.35c.4 1.66-.86 3.26-2.57 3.26zM1811.01 913.3h-135.76c-1.22 0-2.28-.83-2.57-2.01l-4.04-16.32c-.41-1.67.85-3.28 2.57-3.28h135.76c1.22 0 2.28.83 2.57 2.01l4.04 16.32c.41 1.67-.85 3.28-2.57 3.28zM1959.8 1156.77h-220.98c-1.22 0-2.29-.84-2.57-2.03l-4.89-20.35c-.4-1.66.86-3.26 2.57-3.26h220.98c1.22 0 2.29.84 2.57 2.03l4.89 20.35c.4 1.66-.86 3.26-2.57 3.26zM1882.47 1188.5h-135.76c-1.22 0-2.28-.83-2.57-2.01l-4.04-16.32c-.41-1.67.85-3.28 2.57-3.28h135.76c1.22 0 2.28.83 2.57 2.01l4.04 16.32c.41 1.67-.85 3.28-2.57 3.28zM1643.02 1156.98h-220.98c-1.22 0-2.29-.84-2.57-2.03l-4.89-20.35c-.4-1.66.86-3.26 2.57-3.26h220.98c1.22 0 2.29.84 2.57 2.03l4.89 20.35c.4 1.66-.86 3.26-2.57 3.26zM1565.69 1188.71h-135.76c-1.22 0-2.28-.83-2.57-2.01l-4.04-16.32c-.41-1.67.85-3.28 2.57-3.28h135.76c1.22 0 2.28.83 2.57 2.01l4.04 16.32c.41 1.67-.85 3.28-2.57 3.28zM1334.81 1156.98h-220.98c-1.22 0-2.29-.84-2.57-2.03l-4.89-20.35c-.4-1.66.86-3.26 2.57-3.26h220.98c1.22 0 2.29.84 2.57 2.03l4.89 20.35c.41 1.66-.85 3.26-2.57 3.26zM1257.49 1188.71h-135.76c-1.22 0-2.28-.83-2.57-2.01l-4.04-16.32c-.41-1.67.85-3.28 2.57-3.28h135.76c1.22 0 2.28.83 2.57 2.01l4.04 16.32c.41 1.67-.85 3.28-2.57 3.28z"/><g><path class="st20" d="M1693.6 974.84s-2.85-6.4-4.69-9.43c-1.84-3.03-9.72-11.91-11.06-9.9-1.34 2.01-6.7 15.54-3.85 19.33 2.85 3.79-.19 10.38 13.98 14.37l5.62-14.37z"/><path class="st25" d="M1851.02 934.43s-72.51 60.53-100.79 54.93c-22.11-4.38-57.06-15.47-57.06-15.47s-9.23 8.78-6.62 19.29c0 0 44.53 41.9 76.26 42.17 49.59.42 72.98-24.58 72.98-24.58l15.23-76.34z"/><path d="M1978.19 1572.89s-2.11 33.96-8.68 34.45c-.87.06-33.32.06-33.32.06l-41.42-.24s.27-9.98 12.38-12.09c12.11-2.11 32.37-10.62 39.71-26.62 7.72-16.83 31.33 4.44 31.33 4.44z" fill="#113c68"/><path class="st27" d="M1980.58 1575.25s-12.59 4.21-22.42 4.21c-10.97 0-20.93-2.99-20.93-2.99s-2.37-22.93-15.42-73.44c-6.84-26.47-16.61-60.52-30.5-102.82-38.42-116.91-50.1-185.3-51.17-191.77-.06-.34-.08-.51-.08-.51l.12-.06 118.12-51.86s-14.6 161.12 4.03 222.97c2.61 8.64 4.84 18.72 6.76 29.63 11.76 67.18 11.49 166.64 11.49 166.64z"/><path class="st19" d="M1921.81 1503.04c-6.84-26.47-16.61-60.52-30.5-102.82-38.42-116.91-50.1-185.3-51.17-191.77.01-.19.02-.38.04-.57l118.12-51.86s-14.6 161.12 4.03 222.97c2.61 8.64-40.52 124.05-40.52 124.05z"/><path d="M1885.94 1572.89s-2.11 33.96-8.68 34.45c-.87.06-33.32.06-33.32.06l-41.42-.24s.27-9.98 12.38-12.09c12.11-2.11 32.37-10.62 39.71-26.62 7.71-16.83 31.33 4.44 31.33 4.44z" fill="#15447c"/><path class="st27" d="M1818.97 1159.82s-1.54 104.41 16.53 232.61c18.06 128.2 11.94 182.61 11.94 182.61s12.41 4.02 17.42 4.43c12.76 1.04 25.85-2.99 25.85-2.99s25.86-128.24 18.44-192.41c-7.41-64.17 35.41-220.18 35.41-220.18l-125.59-4.07z"/><path class="st20" d="M1902.72 915.48l-23.06 15.12-21-5.94c-3.84-5.48-4.85-16.03-4.91-25.18-.06-9.08.82-16.77.82-16.77l31.11-13.73 11.61-5.12c-.03.18-.9 9.53-1.03 10.9-2.16 24.25 6.46 40.72 6.46 40.72z"/><path class="st4" d="M1818.44 1188.84c28.7 27.71 137.31 23.05 144.01-7.48 6.68-30.53-7.3-259.89-56.32-274.29-10.17-2.99-64.56 14.59-64.56 14.59s-8.53 22.32-14.13 50.75c-1.08 5.53-4.26 64.14-6.63 118.98-1.11 25.64-2.04 50.47-2.52 68.64-.45 17.02-.47 28.21.15 28.81z"/><path d="M1893.94 875.2c-6.31 10.67-28.45 20.01-40.19 24.29-.06-9.08.82-16.77.82-16.77l31.11-13.73c6.88-.09 11.07 1.44 8.26 6.21z" fill="#fca56b"/><path class="st20" d="M1842.84 880.82s50.12 15.63 59.38-15.73c9.26-31.36 21.96-50.47-9.65-61.78-31.61-11.31-41.39-1.18-47.02 8.53s-15.51 64.11-2.71 68.98z"/><path d="M1847.51 808.83s3.2 36.5 10.74 34.91c7.55-1.59 15.86-4.97 14.75 6.03-1.11 11 7.34 29.86 18.22 29.82 23.34-.1 48.71-59.99 42.31-71.35-18.42-32.78-112.66-39.39-86.02.59z" fill="#163560"/><path class="st25" d="M1854.89 907.86c.65-.27 37.31-16.72 41.6-15.3 4.29 1.42 9.63 14.51 9.63 14.51l-64.56 14.6c0-.01 5.08-10.34 13.33-13.81z"/><path class="st31" d="M1626.62 1085.49L1832.15 1279c4.03 3.79 9.11 5 11.29 2.69l6.94-7.37c2.18-2.32.67-7.31-3.36-11.11l-205.54-193.52c-4.03-3.79-9.11-5-11.29-2.69l-6.94 7.37c-2.18 2.32-.66 7.32 3.37 11.12z"/><path d="M1741.96 1194.08l90.19 84.92c4.03 3.79 9.11 5 11.29 2.69l6.94-7.37c2.18-2.32.67-7.31-3.36-11.11l-90.19-84.92-14.87 15.79z" fill="#739af0"/><path class="st31" d="M1637.07 855.02c-60.96-64.8-162.91-67.9-227.7-6.93-.86.8-1.7 1.61-2.53 2.44-62.35 61.21-64.59 161.32-4.43 225.27 60.96 64.79 162.92 67.91 227.73 6.95 21.22-19.96 35.83-44.32 43.72-70.32 16.25-53.43 4.22-113.83-36.79-157.41zm-15.65 218.46c-37.71 35.49-89.09 47.4-135.98 36.3-27.3-6.47-53.08-20.73-73.75-42.7-56.15-59.69-53.3-153.59 6.39-209.74 21.97-20.67 48.58-33.34 76.24-38.13 47.47-8.22 98.02 6.81 133.5 44.52 56.15 59.7 53.29 153.6-6.4 209.75z"/><path d="M1411.68 1067.08c20.67 21.97 46.46 36.24 73.76 42.71 46.89 11.09 98.27-.82 135.98-36.31 59.68-56.15 62.55-150.06 6.39-209.75-35.48-37.71-86.03-52.74-133.5-44.52-27.66 4.78-54.27 17.46-76.24 38.12-59.68 56.16-62.54 150.07-6.39 209.75z" fill="#b3cff9" opacity=".5"/><g><path class="st25" d="M1818.28 1160.03c113.25-80.7 103.84-188.39 103.84-188.39-41.39 23.35-82.47 74.97-101.31 119.75-1.12 25.64-2.05 50.46-2.53 68.64z"/></g><g><path class="st20" d="M1706.5 1123.28c-7.99-1.84-13.35-7.88-14.46-8.94 0 0-3.41.23.56 7.5.33.61 1.07 2.17 1.62 3.27.23.45-.09.98-.59 1.01-4.61.35-9.24-1.47-18.12.38-1.23.26-1.58 3.19-1.53 4.44.08 2.12-.07 4.49 2.39 7.73 1.43 1.89 5.42 3.92 14.31 7.5 3.39 1.36 13.07.33 22.14-2.78l7.25-3.36-2.25-13.48-1.82.38c-2.9.62-6.48-2.92-9.5-3.65z"/><path class="st4" d="M1886.97 921.66s101.76 19.38-29.94 166.74c-21.06 23.57-134.86 54.25-134.86 54.25s-11.54-9.82-5.72-17.77c0 0 78.35-56.9 95.59-65.94 7.76-4.07 30.1-90.81 42.74-111.7s32.19-25.58 32.19-25.58z"/></g><g><path class="st20" d="M1690.84 976.63s-3.33-6.36-3.98-9.72c-.65-3.36-4.84-13.14-6.57-14.87-.69-.69-2.97.2-3.24 3.17-.12 1.29.52 3.64 1.63 6.44 1.82 4.55 1.52 10.73 2.15 12.79 1.59 5.13 10.01 2.19 10.01 2.19z"/></g></g><path class="st4" d="M1262.12 881.56h-220.98c-1.22 0-2.29-.84-2.57-2.03l-4.89-20.35c-.4-1.66.86-3.26 2.57-3.26h220.98c1.22 0 2.29.84 2.57 2.03l4.89 20.35c.4 1.66-.86 3.26-2.57 3.26zM1184.79 913.3h-135.76c-1.22 0-2.28-.83-2.57-2.01l-4.04-16.32c-.41-1.67.85-3.28 2.57-3.28h135.76c1.22 0 2.28.83 2.57 2.01l4.04 16.32c.41 1.67-.85 3.28-2.57 3.28z"/></svg>