<svg version="1.1" id="_x2014_лой_x5F_2" xmlns="http://www.w3.org/2000/svg" x="0" y="0" viewBox="0 0 2797.4 1623.3" style="enable-background:new 0 0 2797.4 1623.3" xml:space="preserve"><style>.st1{fill:#031435}.st2{fill:#3b4e6b}.st4{opacity:.9;fill:#c7cdd3;enable-background:new}.st5{fill:#fff}.st6{fill:#219653}.st8{fill:#ffb27d}.st9{fill:#233862}.st17{fill:#2f3241}.st19{fill:#d4dce3}.st21{fill:#eaeef2}.st22{fill:#333e4f}.st23{fill:#4c617f}.st24{fill:#a5d854}.st25{fill:#d9e0e4}.st26{fill:#d7e3ed}.st27{fill:#bad4f0}.st28{fill:#1b1d25}.st30{fill:#2d3243}.st32{fill:#2c3f53}.st33{fill:#2e5071}.st34{fill:#3e6383}.st35{fill:#7fda00}.st36{fill:#1b1d27}.st37{opacity:3.000000e-02;fill:#e6ecf0;enable-background:new}.st39{fill:#f8f8f8}.st40{fill:#e1e4e6}.st41{fill:#f05642}.st42{fill:#afb6bc}.st43{fill:#c9d0d7}.st44{fill:#d6d6d6}.st45{fill:#cacfd6}.st46{fill:#fefefe}.st47{fill:#f05744}</style><path d="M293.8 1580.5s-318-341.4-53.8-711C474.4 541.6 747.7 564 948.2 697.1c85.4 56.7 331.6 7 541.2-326.7 285.8-455.1 1276.4-179.1 1095.8 521-87.4 338.8 266 351.1 85.9 689.8l-2377.3-.7z" style="fill:#e9f3fb"/><path class="st1" d="M1922.8 1577.3h-567.5a32.5 32.5 0 0 1-32.4-32.4V410a32.5 32.5 0 0 1 32.4-32.4h567.5a32.5 32.5 0 0 1 32.4 32.4v1134.9a32.5 32.5 0 0 1-32.4 32.4z"/><path class="st2" d="M1988.6 410v1134.9a32.4 32.4 0 0 1-32.4 32.3h-567.5a32.4 32.4 0 0 1-32.3-32.3V410a32.4 32.4 0 0 1 32.3-32.4h567.5a32.5 32.5 0 0 1 32.4 32.4z"/><path class="st1" d="M1765.1 423.1h-164.4a6.4 6.4 0 0 1-6.4-6.4c0-3.5 2.9-6.4 6.4-6.4h164.4c3.5 0 6.4 2.9 6.4 6.4 0 3.5-2.9 6.4-6.4 6.4zM1571.6 423.1a6.4 6.4 0 0 1-6.4-6.4c0-3.5 2.9-6.4 6.4-6.4 3.5 0 6.4 2.9 6.4 6.4 0 3.5-2.9 6.4-6.4 6.4zM1721.5 1511a41 41 0 0 1-41.3 41.2 41.2 41.2 0 1 1 41.3-41.2z"/><path style="fill:#efefef" d="M1394.2 451.5h560.6v997.9h-560.6z"/><path class="st1" d="M1709.6 1540a41.3 41.3 0 1 1-51.4-63.8c4 17.5 16 46.9 51.4 63.8z"/><path class="st4" d="M1946.8 570.9H1425c-4.4 0-8.1 4.7-8.1 10.4v333.6c0 5.7 3.6 10.4 8.1 10.4h521.8c4.4 0 8.1-4.7 8.1-10.4V581.3c0-5.7-3.7-10.4-8.1-10.4zM1752.1 976.1h-406.8c-3.5 0-6.3 4.7-6.3 10.4v333.6c0 5.7 2.8 10.4 6.3 10.4h406.8c3.5 0 6.3-4.7 6.3-10.4V986.5c0-5.7-2.8-10.4-6.3-10.4z"/><path class="st5" d="M2145.1 551.3v333.6c0 5.7-4.7 10.4-10.5 10.4h-675.5c-5.7 0-10.4-4.7-10.4-10.4V551.3c0-5.8 4.7-10.5 10.4-10.5h675.5c5.8 0 10.5 4.7 10.5 10.5z"/><path class="st1" d="M2145.1 551.2v333.6c0 5.7-5.5 10.4-12.1 10.4h-336.1V540.8H2133c6.7 0 12.1 4.7 12.1 10.4z"/><path class="st5" d="M1961.9 670.3H1843a7.6 7.6 0 1 1 0-15.2h118.9a7.6 7.6 0 1 1 0 15.2zM1932.5 693h-90.4c-3.7 0-6.7-3-6.7-6.7v-1.8c0-3.7 3-6.7 6.7-6.7h90.4c3.7 0 6.7 3 6.7 6.7v1.8c0 3.7-3 6.7-6.7 6.7zM1844.6 585.4c2.8-3.8 6.6-5.6 11.2-5.6s8.3 1.9 11.1 5.6c2.8 3.7 4.2 8.3 4.2 13.9 0 5.5-1.4 10.1-4.2 13.9a13.4 13.4 0 0 1-11.1 5.6c-4.6 0-8.3-1.9-11.2-5.6a22.3 22.3 0 0 1-4.2-13.9 21.5 21.5 0 0 1 4.2-13.9zm19.3 2.6a9.7 9.7 0 0 0-16.4 0c-2.1 3-3.2 6.8-3.2 11.2 0 4.5 1.1 8.3 3.2 11.3s4.9 4.5 8.3 4.5 6.1-1.5 8.2-4.5 3.2-6.8 3.2-11.3c0-4.4-1.1-8.2-3.3-11.2zM1901.7 584.5a20 20 0 0 1 3.8 12.9c.2 11.7-6.1 21.4-16.3 21.3-3.1 0-5.7-.8-7.9-2.3v-3.8c2.4 1.6 4.9 2.4 7.6 2.4 8.9 0 12.6-8.1 12.8-16.1-2 3.4-5.9 5.6-11 5.6a12 12 0 0 1-8.6-3.3 11.8 11.8 0 0 1-3.5-8.6 12 12 0 0 1 3.7-9.1c2.5-2.4 5.5-3.6 9.1-3.6 4.3-.1 7.8 1.5 10.3 4.6zm-16.7 1.6a8.7 8.7 0 0 0-2.6 6.4 8 8 0 0 0 2.6 6.2 9.3 9.3 0 0 0 6.6 2.3 10 10 0 0 0 6.1-2.1c1.9-1.4 3.1-3.1 3.8-5.2-.6-6.4-4.2-10.2-10-10.2-2.5 0-4.7.9-6.5 2.6zM1913.5 593.6c1.1-1.1 2.9-1.1 4 0s1.1 2.9 0 4-2.9 1.1-4 0a2.8 2.8 0 0 1 0-4zm0 20c1.1-1.1 2.9-1.1 4 0s1.1 2.9 0 4-2.9 1.1-4 0a2.8 2.8 0 0 1 0-4zM1932.1 618v-33.3l-8.4 4.8v-3.8l8.9-5.3h3.5V618h-4zM1949.7 585.4c2.8-3.8 6.6-5.6 11.2-5.6s8.3 1.9 11.1 5.6c2.8 3.7 4.2 8.3 4.2 13.9 0 5.5-1.4 10.1-4.2 13.9-2.8 3.7-6.6 5.6-11.1 5.6s-8.3-1.9-11.2-5.6a22.3 22.3 0 0 1-4.2-13.9 22 22 0 0 1 4.2-13.9zm19.4 2.6a9.7 9.7 0 0 0-16.4 0c-2.1 3-3.2 6.8-3.2 11.2 0 4.5 1.1 8.3 3.2 11.3s4.9 4.5 8.3 4.5 6.1-1.5 8.2-4.5 3.2-6.8 3.2-11.3a20 20 0 0 0-3.3-11.2zM1999.4 618v-37.6h15.8c7.5 0 12 4.2 12 10.4 0 6.4-4.5 10.6-12 10.6h-11.8V618h-4zm3.9-20.1h11.5c5.3 0 8.4-2.5 8.4-6.9 0-4.5-3.1-6.9-8.4-6.9h-11.5v13.8zM2035.1 618v-37.6h3.9l13.6 18.2 13.6-18.2h3.9V618h-3.9v-31.6l-12.3 16.4h-2.4l-12.4-16.4V618h-4z"/><path class="st6" d="M1653.8 838.6h-118.9a7.6 7.6 0 1 1 0-15.2h118.9a7.6 7.6 0 1 1 0 15.2zM1624.4 861.3H1534c-3.7 0-6.7-3-6.7-6.7v-1.8c0-3.7 3-6.7 6.7-6.7h90.4c3.7 0 6.7 3 6.7 6.7v1.8c0 3.7-3 6.7-6.7 6.7z"/><g><path class="st1" d="M1811.6 960.9v333.6c0 5.7-4.7 10.4-10.4 10.4h-675.5c-5.8 0-10.5-4.7-10.5-10.4V960.9c0-5.7 4.7-10.4 10.5-10.4h675.5c5.7 0 10.4 4.7 10.4 10.4z"/><path class="st5" d="M1811.6 960.9v333.6c0 5.7-4.7 10.4-10.4 10.4h-300.5V950.4h300.5c5.7.1 10.4 4.8 10.4 10.5z"/><path class="st6" d="M1653.8 1200c-6 0-11.5-3.2-14.5-8.3l-44.4-75.9c-4.7-8-2-18.4 6-23.1s18.4-2 23.1 6l28.5 48.7 53.6-110.4a16.8 16.8 0 1 1 30.3 14.7l-67.4 138.7a17 17 0 0 1-15.2 9.6z"/><path class="st6" d="M1653.8 1239a104.7 104.7 0 0 1 0-209.2 104.7 104.7 0 0 1 0 209.2zm0-196.9a92.4 92.4 0 0 0 0 184.6 92.4 92.4 0 0 0 0-184.6z"/><path class="st1" d="M1313 1305h-187.4c-5.8 0-10.5-4.7-10.5-10.4v-258.2L1313 1305z"/><g><path class="st5" d="M1205.8 1008.4a37.5 37.5 0 1 0 0 75 37.5 37.5 0 0 0 0-75zm26.4 39.2h-26.4c-.9 0-1.7-.5-1.7-1.7l.1-27.9c0-.7.7-1.2 1.4-1.2s1.4.5 1.4 1.2v26.7h24.8c1.2.1 1.2.9 1.2 1.6-.1.6-.1 1.3-.8 1.3zM1398.5 1031.9h-118.9a7.6 7.6 0 1 1 0-15.2h118.9a7.6 7.6 0 1 1 0 15.2zM1369.1 1054.6h-90.4c-3.7 0-6.7-3-6.7-6.7v-1.8c0-3.7 3-6.7 6.7-6.7h90.4c3.7 0 6.7 3 6.7 6.7v1.8c0 3.7-3 6.7-6.7 6.7z"/><g><path class="st5" d="M1389.5 1177.9h-118.9a7.6 7.6 0 1 1 0-15.2h118.9c4.2 0 7.6 3.4 7.6 7.6a7.7 7.7 0 0 1-7.6 7.6zM1360.1 1200.7h-90.4c-3.7 0-6.7-3-6.7-6.7v-1.8c0-3.7 3-6.7 6.7-6.7h90.4c3.7 0 6.7 3 6.7 6.7v1.8c0 3.7-3 6.7-6.7 6.7z"/></g></g></g><path d="M2794.3 1583.5H68a3.1 3.1 0 0 1-3.1-3.1v-1.1c0-1.7 1.4-3.1 3.1-3.1h2726.3c1.7 0 3.1 1.4 3.1 3.1v1.1c0 1.7-1.4 3.1-3.1 3.1z" style="fill:#2e3552"/><g><path class="st8" d="M2078.6 693s-11.1-35.7-17.4-39.6c-6.3-3.8-32.5-16.8-34.1-13.3s14.2 20.5 17.7 26.1c3.5 5.7 5.2 11.3 2.8 8.8-2.4-2.4-15.7-10.6-17.1-8.8-1.4 1.8 6.6 8.8 10.5 14.4 3.8 5.6 8 15 21.7 17.1 13.6 2.2 15.9-4.7 15.9-4.7zM2482.4 993.9s-3.3 32.3-7 38.4-19.2 25.6-25.8 29.4 4-25.7 2.7-31.5c-1.3-5.7-5.4 10.5-8.4 10.9-2.9.4-2.2-14.2-2.3-19.6-.1-5.3 14.2-18.4 19.2-29.8 5.2-11.2 21.6 2.2 21.6 2.2z"/><path class="st5" d="M2381.2 662.7s-26.8 131.7-174.6 174.8c-46.1 13.4-150.9-138.4-150.9-138.4s3.7-14 26.8-10.8c0 0 102 67.5 114.8 74.9 11.4 6.5 86.3-83.7 120.5-98.2 34.2-14.6 63.4-2.3 63.4-2.3z"/><path class="st9" d="M2557.5 1490.9s18.3 16.7 14.7 28.6-20.1 19.8-22.3 34.3-11.2 22.4-19.2 22.4h-38.4s-5.9-10.2 8.4-13.3c14.3-3.1 19.7-20.1 18.8-36-.9-15.8 1.3-37 1.3-37l30.4-7 6.3 8zM2332.7 1534.1s3.3 38.1-4.8 42l-103-.2s0-11.9 16.5-14.5 45.6-12.3 50.5-33.9c5.1-21.6 40.8 6.6 40.8 6.6z"/><path d="m2245.8 996.5 11.8 146.9a15863 15863 0 0 1 20.1 268.1c1.8 44 8.9 114.4 8.9 114.4s17 16.7 51 9.7c0 0 30.3-100.5 38.9-206.9l.4-5.3c8-108.3 20.6-336.2 20.6-336.2l-151.7 9.3z" style="fill:#1e304c"/><path class="st1" d="m2245.8 996.5 11.8 146.9 119 185.3.4-5.3c8-108.3 20.6-336.2 20.6-336.2l-151.8 9.3z"/><path d="M2270.6 1004.4s97.9 241.6 162.2 355.1c64.4 113.5 84.5 145.2 84.5 145.2s36.9-14.5 40.2-24.4c0 0-24.6-219.2-67.7-272.6-24.4-30.2-53-120.8-54.3-152.5-1.3-31.7-8.7-94.4-8.7-94.4l-156.2 43.6z" style="fill:#063663"/><path class="st8" d="M2399.4 632.1s-66.2 32-104.4 20.1c0 0 9.4-11.9 25.8-20.7-1.3-7.7-2.3-14.3-2.9-20-1.6-13-1.6-20.4-1.6-20.4l25.5-20.1 24.2-19.2c-1.9 54.1 33.4 80.3 33.4 80.3z"/><path class="st5" d="M2434.3 973.2c.1 4.1-8.5 8.7-12.3 10.4a271.5 271.5 0 0 1-84.7 24c-35.4 3.6-77.2-4.3-91.6-4-1.5 0-2.8-.6-4-1.6-1-.7-1.8-43.4-1-97l.1-6.5v-.7c.3-21 1-42.9 2.1-64.9 2.1-48.3 5.9-94.9 12.3-120.6a130.8 130.8 0 0 1 41.4-65.1l13.2-11.6a63.4 63.4 0 0 0 41.1-4.9c15.3-7.4 31.7-15.3 34.4-13.3 20 14.6 33.5 47.4 40.7 89.4l.1.6c4 24 6.1 50.8 5.9 78.9 0 10.4-.3 21.1-.9 31.7-2.9 47.8-1 90.4 1 119.9l1.1 15.9 1.1 19.4z"/><path d="M2432 937.8c-109.8-126.7-41.7-218.9-41.7-218.9l35.7-11.6c4 24 6.1 50.8 5.9 78.9 0 10.4-.3 21.1-.9 31.7-2.9 47.9-.9 90.4 1 119.9z" style="fill:#d1d1d1"/><path d="M2366.5 572.5s-16.7 30.5-48.6 39c-1.6-13-1.6-20.4-1.6-20.4l25.5-20.1 24.7 1.5z" style="fill:#ed985f"/><path class="st8" d="M2304.6 590.3s63.2 10.3 69.1-28.5c5.9-38.8 18.1-63.7-22-71.9s-50.2 5.4-55.4 17.9c-5.2 12.5-8 78.8 8.3 82.5z"/><path d="M2396.7 485.3c.6-.7 1.9-1.2 4.8-1.3 0 0-2.4-1.5-5.5-1.5-.6-4.1-2.8-11.3-9.8-13.1 0 0 3.8 2 4.3 6.4-8.2-8.4-25.6-14.5-74.1-10.7-63.8 5-42.8 45.9-34.5 50.8 8.3 4.9 29.1-8.5 44.4-7.3 15.4 1.2 18.3 23.5 23.5 26.5 5.2 3.1 3.2-2.3 10.2-5.5 7.1-3.2 7.7 8.5 5.7 16.1s7.7 17.7 7.7 17.7l9.8-10.6c9.8-10.6 19.1-55.3 14.6-64.8l-1.1-2.7z" style="fill:#2c3a64"/><path class="st5" d="M2385.2 617.1s40 18.9 59.1 48c29.7 45.1 64.2 209.6 64.8 224.9s-25.2 122.8-25.2 122.8-26.2-1.7-32.9-14.9c0 0 5.2-110.5 1.9-117.6s-109-148.2-97.2-178.3c12.1-30.2 29.5-84.9 29.5-84.9z"/></g><path class="st5" d="M2053.7 864.4H1896a25 25 0 0 1-24.9-24.9v-7a25 25 0 0 1 24.9-24.9h157.7a25 25 0 0 1 24.9 24.9v7a25 25 0 0 1-24.9 24.9z"/><g><path class="st6" d="M1974.5 848.4c-1.1 0-2.1-.6-2.7-1.6l-8.3-14.2a3.1 3.1 0 0 1 1.1-4.3c1.5-.9 3.4-.4 4.3 1.1l5.3 9.1 10-20.6a3.2 3.2 0 0 1 4.2-1.5c1.6.8 2.2 2.6 1.5 4.2l-12.6 25.9c-.5 1-1.5 1.7-2.7 1.8l-.1.1z"/><path class="st6" d="M1974.5 855.7a19.5 19.5 0 1 1 0-39 19.5 19.5 0 0 1 0 39zm0-36.7a17.2 17.2 0 1 0 0 34.4 17.2 17.2 0 0 0 0-34.4z"/></g><text transform="matrix(1.3665 0 0 1 1174 1224.5)" class="st5" style="font-size:112.7395px;font-family:'ArialNarrow'">$</text><g><path class="st17" d="M696 1510.5a41.5 41.5 0 0 1 0-83c22.8 0 41.3.3 41.5 23v18.5a41.5 41.5 0 0 1-41.5 41.5zm0-72.2c-16.9 0-30.7 13.8-30.7 30.7s12 28.9 28.9 28.9 30.7-13.8 30.7-30.7v-18.6c-.2-16.7-12.1-10.3-28.9-10.3zM592.1 1510.5a41.5 41.5 0 0 1-41.5-41.5v-18.3c.1-22.8 18.7-23.2 41.5-23.2a41.5 41.5 0 0 1 0 83zm0-72.2c-16.8 0-28.8-6.2-28.9 10.5v18.4c0 16.9 13.8 30.7 30.7 30.7s28.9-12 28.9-28.9-13.7-30.7-30.7-30.7z"/><path class="st17" d="M704.1 1527.9c0 27.2-24.2 49.5-53.9 49.5h-12.4c-29.6 0-53.9-22.3-53.9-49.5V1469H704v58.9h.1z"/><path d="M593 1527.9V1469h-9v58.9c0 27.2 24.2 49.5 53.9 49.5h9c-29.6 0-53.9-22.3-53.9-49.5z" style="fill:#383d4e"/><path class="st19" d="M695.1 1469v58.9c0 27.2-24.2 49.5-53.9 49.5h9c29.6 0 53.9-22.3 53.9-49.5V1469h-9z"/><path class="st19" d="M584 1467.2h111.1v12.6H584z"/><path class="st17" d="M374.4 1387.1c-50.7 0-97.7-18.8-139.1-56l24.2-26.9c58.2 52.4 127.2 60.8 205 25.2 60.6-27.8 104.1-72.9 104.6-73.3l26.1 24.9c-1.9 2-48.1 50-114.7 80.8a253.6 253.6 0 0 1-106.1 25.3zM479.6 1246.4c-16.6 0-35.4-1-54.9-4.1-85.7-13.3-143.8-58.2-167.9-129.8L291 1101c47.9 142 244.5 105 246.4 104.6l7 35.4c-1.5.3-28 5.4-64.8 5.4zM808.6 1246.4c-36.8 0-63.3-5.1-64.9-5.4l7-35.4-3.5 17.7 3.5-17.7c.5.1 51.8 9.9 108.1 1 72-11.4 118.6-46.9 138.3-105.5l34.2 11.5c-24.2 71.7-82.3 116.6-167.9 129.8-19.4 3-38.2 4-54.8 4zM918.8 1387.1c-33.9 0-69.5-8.4-106-25.3a414 414 0 0 1-114.7-80.8l26.1-24.9c.4.5 43.9 45.5 104.6 73.3 77.8 35.7 146.8 27.2 205-25.2l24.2 26.9c-41.5 37.3-88.6 56-139.2 56z"/><g style="opacity:3.000000e-02"><path class="st21" d="m586.7 1289.2-24.7-26.3 7-6.9 26.1 24.9-8.4 8.3zM369.8 1387c-7.7-.2-15.4-.8-22.9-1.8l5-35.8c6.1.9 12.4 1.4 18.7 1.5l-.8 36.1zm22.8-.8-3.1-36c6.2-.5 12.6-1.4 18.9-2.6l6.7 35.5c-7.6 1.4-15.1 2.5-22.5 3.1zm-68.3-5.6c-7.4-1.9-14.7-4.4-21.9-7.2l13.3-33.6c5.8 2.3 11.8 4.3 17.8 5.8l-9.2 35zm112.6-2.7-9.8-34.8a219 219 0 0 0 18.4-6l12.6 33.9c-7.1 2.6-14.2 5-21.2 6.9zm-155.2-14.1c-6.6-3.5-13.1-7.4-19.5-11.7l20.2-29.9c5.3 3.6 10.8 6.9 16.3 9.8l-17 31.8zm196.8-1.3-14.9-32.9c5.8-2.7 11.8-5.6 17.7-8.7l17 31.9c-6.6 3.5-13.2 6.8-19.8 9.7zm38.8-20.6-18.8-30.8a338 338 0 0 0 16.7-10.8l20.4 29.8a405 405 0 0 1-18.3 11.8zm36-24.6-21.9-28.8A316 316 0 0 0 547 1276l23.3 27.6c-5.5 4.7-11.2 9.3-17 13.7zM244.1 1338.6c-3-2.4-5.9-5-8.8-7.6l24.2-26.9c2.5 2.3 5.1 4.5 7.6 6.5l-23 28zM532.7 1242.7l-4.9-35.8c6.1-.8 9.6-1.5 9.7-1.5l7 35.4c-.5.1-4.6.9-11.8 1.9zM485 1246.2l-.5-36.1c7.2-.1 14.5-.4 21.7-.9l2.6 36c-7.8.6-15.9.9-23.8 1zm-23.9-.4c-8.1-.4-16.2-1-24-1.9l4.2-35.9c7 .8 14.2 1.4 21.5 1.7l-1.7 36.1zm-47.9-5.6a283 283 0 0 1-23.7-5.7l10-34.7c6.6 1.9 13.6 3.6 20.7 4.9l-7 35.5zm-47.1-13.6a221 221 0 0 1-22.5-10.5l17.2-31.8c5.9 3.2 12.2 6.1 18.8 8.8l-13.5 33.5zm-43.8-23.9c-6.9-5-13.4-10.5-19.4-16.3l25.1-26c4.8 4.6 10 9 15.5 13l-21.2 29.3zm-36.4-35.2c-5.1-6.6-9.8-13.7-14-21.1l31.4-17.8c3.3 5.9 7.1 11.6 11.2 16.9l-28.6 22zM260.9 1123.5c-1.5-3.6-2.8-7.4-4.1-11.1l34.2-11.5 3.4 9.2-33.5 13.4z"/><g><path class="st21" d="M755.5 1242.7c-7.1-1-11.3-1.8-11.7-1.9l7-35.4s3.6.7 9.7 1.5l-5 35.8zM803.2 1246.2c-7.9-.1-15.9-.5-23.9-1l2.6-36c7.2.5 14.5.8 21.7.9l-.4 36.1zm23.9-.4-1.7-36.1c7.3-.3 14.6-.9 21.5-1.7l4.2 35.9c-7.8.9-15.9 1.5-24 1.9zm47.9-5.6-6.9-35.5c7.1-1.4 14.1-3 20.7-4.9l10 34.7c-7.7 2.2-15.6 4.1-23.8 5.7zm47.1-13.6-13.4-33.5c6.5-2.6 12.9-5.6 18.8-8.8l17.2 31.8c-7.2 3.8-14.8 7.3-22.6 10.5zm43.8-23.9-21.2-29.3c5.5-4 10.7-8.4 15.5-13l25.1 26c-6 5.8-12.5 11.3-19.4 16.3zm36.4-35.2-28.6-22.1c4.1-5.3 7.8-10.9 11.2-16.9l31.4 17.8c-4.2 7.4-8.9 14.5-14 21.2zM1027.3 1123.5l-33.5-13.5 3.4-9.2 34.2 11.6-4.1 11.1z"/></g><g><path class="st21" d="M706.5 1289.2c-5.3-5-8.3-8.1-8.5-8.3l26.1-24.9 7 6.9-24.6 26.3zM923.4 1387l-.8-36.1c6.3-.1 12.6-.6 18.7-1.5l5 35.8c-7.5 1-15.2 1.6-22.9 1.8zm-22.8-.8a219 219 0 0 1-22.4-3.1l6.7-35.5c6.3 1.2 12.7 2.1 18.9 2.6l-3.2 36zm68.2-5.6-9.2-34.9c6-1.6 12-3.5 17.8-5.8l13.3 33.6c-7.2 2.8-14.5 5.2-21.9 7.1zm-112.5-2.7c-7-2-14.1-4.3-21.2-6.9l12.6-33.9c6.2 2.3 12.4 4.3 18.4 6l-9.8 34.8zm155.2-14.1-17-31.9c5.5-2.9 10.9-6.2 16.3-9.8l20.2 29.9c-6.4 4.4-13 8.3-19.5 11.8zm-196.9-1.3a403 403 0 0 1-19.8-9.8l17-31.9a289 289 0 0 0 17.7 8.7l-14.9 33zm-38.8-20.6c-6.1-3.7-12.3-7.7-18.3-11.9l20.4-29.8c5.5 3.8 11.2 7.4 16.7 10.8l-18.8 30.9zm-36-24.6c-5.8-4.4-11.5-9-17-13.6l23.3-27.6a371 371 0 0 0 15.6 12.5l-21.9 28.7zM1049.1 1338.6l-22.9-27.9 7.6-6.5 24.2 26.9-8.9 7.5z"/></g></g><path class="st22" d="M601.7 1059.3h84.7v56.9h-84.7zM637.7 839.6v-38.5c-7.4-2.6 20.2-2.6 12.8 0v38.5c15 0 37.9 24.2 37.9 50.4h-88.6c0-26.2 19.1-50.4 37.9-50.4z"/><path class="st2" d="M802.9 976.9c0 55.7-45.6 101.3-101.3 101.3h-115a101.6 101.6 0 0 1-101.3-101.3v-29c0-55.7 45.6-101.3 101.3-101.3h115c55.7 0 101.3 45.6 101.3 101.3v29z"/><path class="st23" d="M503.4 976.9v-29c0-55.7 45.6-101.3 101.3-101.3h-18.1a101.6 101.6 0 0 0-101.3 101.3v29c0 55.7 45.6 101.3 101.3 101.3h18.1a101.6 101.6 0 0 1-101.3-101.3z"/><path class="st22" d="M701.6 846.6h-18.1c55.7 0 101.3 45.6 101.3 101.3v29c0 55.7-45.6 101.3-101.3 101.3h18.1c55.7 0 101.3-45.6 101.3-101.3v-29c0-55.7-45.6-101.3-101.3-101.3z"/><path class="st2" d="M701.6 1105.3h-115a101.6 101.6 0 0 0-101.3 101.3v163c0 55.7 45.6 101.3 101.3 101.3h115c55.7 0 101.3-45.6 101.3-101.3v-163c0-55.8-45.6-101.3-101.3-101.3z"/><path class="st19" d="M586.6 1328.1a65.3 65.3 0 0 1-65.2-65.2v-56.4a65.3 65.3 0 0 1 65.2-65.2h115a65.3 65.3 0 0 1 65.2 65.2v56.4a65.3 65.3 0 0 1-65.2 65.2h-115z"/><path class="st17" d="M586.6 1319.1c-31 0-56.2-25.2-56.2-56.1v-56.4a56.2 56.2 0 0 1 56.1-56.1h115c31 0 56.2 25.2 56.2 56.1v56.4a56.2 56.2 0 0 1-56.1 56.1h-115z"/><path class="st23" d="M503.4 1369.5v-163c0-55.7 45.6-101.3 101.3-101.3h-18.1a101.6 101.6 0 0 0-101.3 101.3v163c0 55.7 45.6 101.3 101.3 101.3h18.1a101.6 101.6 0 0 1-101.3-101.3z"/><path class="st22" d="M701.6 1105.3h-18.1c55.7 0 101.3 45.6 101.3 101.3v163c0 48.7-34.6 91.8-80.7 101.3a101.6 101.6 0 0 0 98.8-101.3v-163c0-55.8-45.6-101.3-101.3-101.3z"/><path class="st17" d="M586.6 1024.5a62.2 62.2 0 1 1 0-124.3h115a62.3 62.3 0 0 1 0 124.3h-115z"/><path class="st2" d="M786.7 916.2c20.4 2.8 35.2 12.9 35.2 43.4 0 28.8-13.5 39.5-32.4 42.9l-2.8-86.3z"/><path class="st23" d="M492 1001c-15.3-4.6-25.7-15.9-25.7-41.4 0-28.7 13.3-39.4 32.1-42.9L492 1001z"/><path class="st24" d="M683.2 962.4a16.6 16.6 0 1 1 33.2 0 16.6 16.6 0 0 1-33.2 0zM571.7 962.4a16.6 16.6 0 1 1 33.2 0 16.6 16.6 0 1 1-33.2 0z"/><path class="st22" d="M663.2 783.1a19.1 19.1 0 1 0-38.2 0 19.1 19.1 0 0 0 38.2 0z"/><path class="st5" d="M64.6 1154.4h163.3a38.5 38.5 0 0 1 38.4 38.4v24.7c0 29.7 19 39.1 19 39.1s-22.2 1.5-33.5-9.2a38 38 0 0 1-23.9 8.4H64.6a38.5 38.5 0 0 1-38.4-38.3v-24.7a38.5 38.5 0 0 1 38.4-38.4z"/><path class="st25" d="M64.2 1197.1c-3.3 0-6-2.4-6-5.4s2.7-5.4 6-5.4h164c3.3 0 6 2.4 6 5.4s-2.7 5.4-6 5.4h-164zM64.2 1223.9c-3.3 0-6-2.4-6-5.4s2.7-5.4 6-5.4h55.6c3.3 0 6 2.4 6 5.4s-2.7 5.4-6 5.4H64.2zM143.6 1223.9c-3.3 0-6-2.4-6-5.4s2.7-5.4 6-5.4H156c3.3 0 6 2.4 6 5.4s-2.7 5.4-6 5.4h-12.4z"/><path class="st19" d="M64.2 1197.1c-3.3 0-6-2.4-6-5.4s2.7-5.4 6-5.4h164c3.3 0 6 2.4 6 5.4s-2.7 5.4-6 5.4h-164zM64.2 1223.9c-3.3 0-6-2.4-6-5.4s2.7-5.4 6-5.4h55.6c3.3 0 6 2.4 6 5.4s-2.7 5.4-6 5.4H64.2zM143.6 1223.9c-3.3 0-6-2.4-6-5.4s2.7-5.4 6-5.4H156c3.3 0 6 2.4 6 5.4s-2.7 5.4-6 5.4h-12.4z"/><circle class="st6" cx="146.2" cy="1133.9" r="45.2"/><path class="st5" d="m138.5 1124.9-.2 1.2-.6.9-.9.6c-.4.2-.7.2-1.1.2-.8 0-1.5-.3-2.1-.8-.6-.6-.8-1.2-.8-2.1 0-1.9.3-3.6 1.1-5.3a13 13 0 0 1 2.9-4.3 14.2 14.2 0 0 1 9.5-4 14.2 14.2 0 0 1 9.5 4 14.2 14.2 0 0 1 4 9.5 13 13 0 0 1-4 9.6l-4.4 4.1a6.7 6.7 0 0 0-2.2 4.9c0 .8-.3 1.5-.8 2.1s-1.2.8-2.1.8c-.8 0-1.5-.3-2.1-.8s-.8-1.2-.8-2.1c0-3.4 1.3-6.4 4-9.1l4.4-4.1a7.5 7.5 0 0 0 2.2-5.5c0-1-.2-2-.6-3a8 8 0 0 0-1.7-2.4 9.2 9.2 0 0 0-2.5-1.7c-.9-.4-1.9-.6-3-.6s-2.1.2-3 .6-1.7 1-2.4 1.6c-.7.7-1.3 1.5-1.6 2.4a8.2 8.2 0 0 0-.7 3.3zm11.8 31.2c0 1.1-.4 2-1.1 2.8-.8.8-1.7 1.2-2.8 1.2s-2-.4-2.8-1.1a3.8 3.8 0 0 1-1.2-2.8c0-1.1.4-2 1.2-2.8s1.7-1.2 2.8-1.2 2 .4 2.8 1.2c.7.7 1.1 1.6 1.1 2.7zM1164.8 912.8h-163.3a38.5 38.5 0 0 0-38.4 38.4v24.7c0 29.7-19 39.1-19 39.1s22.2 1.5 33.5-9.2a38.6 38.6 0 0 0 23.9 8.4h163.3a38.5 38.5 0 0 0 38.4-38.4v-24.7a38.5 38.5 0 0 0-38.4-38.3z"/><path class="st25" d="M1001.2 955.5c-3.3 0-6-2.4-6-5.4s2.7-5.4 6-5.4h164c3.3 0 6 2.4 6 5.4s-2.7 5.4-6 5.4h-164zM1001.2 982.3c-3.3 0-6-2.4-6-5.4s2.7-5.4 6-5.4h127.1c3.3 0 6 2.4 6 5.4s-2.7 5.4-6 5.4h-127.1z"/><path class="st19" d="M1001.2 955.5c-3.3 0-6-2.4-6-5.4s2.7-5.4 6-5.4h164c3.3 0 6 2.4 6 5.4s-2.7 5.4-6 5.4h-164zM1001.2 982.3c-3.3 0-6-2.4-6-5.4s2.7-5.4 6-5.4h127.1c3.3 0 6 2.4 6 5.4s-2.7 5.4-6 5.4h-127.1z"/><circle transform="rotate(-45 1083.2 892.4)" class="st6" cx="1083.2" cy="892.4" r="45.2"/><path class="st5" d="m1075.5 883.3-.2 1.2-.6.9-.9.6c-.4.2-.7.2-1.1.2-.8 0-1.5-.3-2.1-.8-.6-.6-.8-1.2-.8-2.1 0-1.9.3-3.6 1.1-5.3a13 13 0 0 1 2.9-4.3 14.2 14.2 0 0 1 9.5-4 14.2 14.2 0 0 1 9.5 4 14.2 14.2 0 0 1 4 9.5 13 13 0 0 1-4 9.6l-4.4 4.1a6.7 6.7 0 0 0-2.2 4.9c0 .8-.3 1.5-.8 2.1s-1.2.8-2.1.8c-.8 0-1.5-.3-2.1-.8s-.8-1.2-.8-2.1c0-3.4 1.3-6.4 4-9.1l4.4-4.1a7.5 7.5 0 0 0 2.2-5.5c0-1-.2-2-.6-3a8 8 0 0 0-1.7-2.4 9.2 9.2 0 0 0-2.5-1.7c-.9-.4-1.9-.6-3-.6s-2.1.2-3 .6-1.7 1-2.4 1.6c-.7.7-1.3 1.5-1.6 2.4a8.2 8.2 0 0 0-.7 3.3zm11.9 31.3c0 1.1-.4 2-1.1 2.8-.8.8-1.7 1.2-2.8 1.2-1.1 0-2-.4-2.8-1.1a3.8 3.8 0 0 1-1.2-2.8c0-1.1.4-2 1.2-2.8.8-.8 1.7-1.2 2.8-1.2 1.1 0 2 .4 2.8 1.2.7.6 1.1 1.6 1.1 2.7z"/><g><path class="st25" d="m226.6 981.6 11 23.3c9.9-3.6 21 0 25 8.4 4.3 9-.8 20.7-11.1 25.6l-17.7 8.4c-10.3 4.9-22.6 1.4-26.9-7.6-2.3-5-1.9-10.7.8-15.7h-27.1a42 42 0 0 0 3.1 26.7c10.4 21.9 37.8 30.8 61.1 19.9l17.7-8.4c23.2-11 33.7-37.9 23.4-59.8a45.6 45.6 0 0 0-59.3-20.8z"/><path class="st26" d="m240.1 1096.1 10.9 23.1a9.9 9.9 0 0 0 13.2 4.7l27.1-12.8a9.9 9.9 0 0 0 4.7-13.2l-10.9-23.1a32.8 32.8 0 1 0-61.2 5.6 33.8 33.8 0 0 0 16.2 15.7z"/><path class="st19" d="m240.1 1096.1 10.9 23.1a9.9 9.9 0 0 0 13.2 4.7l27.1-12.8a9.9 9.9 0 0 0 4.7-13.2l-10.9-23.1a32.8 32.8 0 1 0-61.2 5.6 33.8 33.8 0 0 0 16.2 15.7z"/><path class="st17" d="M230.2 1077.4a26 26 0 1 0 47-22.2 26 26 0 0 0-47 22.2z"/><path class="st21" d="M253.6 1053.1c.6-.3 1.6-.2 2.2.2l9.2 6.4c.6.4 1 1.3 1 2l-.9 11.2c-.1.7-.6 1.5-1.3 1.8l-10.2 4.8c-.6.3-1.6.2-2.2-.2l-9.2-6.4c-.6-.4-1-1.3-1-2l.9-11.2c.1-.7.6-1.5 1.3-1.8l10.2-4.8z"/></g><g><path class="st25" d="m168.4 1220 18.2 18.2c8.1-6.8 19.7-7.1 26.4-.5 7.1 7 6.2 19.8-1.8 27.9l-13.8 13.9c-8 8.1-20.8 8.9-27.9 1.9-6.4-6.4-6.3-17.4-.3-25.4h-28.3a43.6 43.6 0 0 0 10.5 43.6c17.2 17.1 46.1 16.2 64.2-2l13.8-13.9c18.1-18.2 18.9-47.1 1.7-64.2-16.7-16.8-44.5-16.3-62.7.5z"/><path class="st26" d="m219.9 1323.1 18.1 18a10 10 0 0 0 14.1 0l21.2-21.3a10 10 0 0 0 0-14.1l-18.1-18a32.7 32.7 0 1 0-35.3 35.4z"/><path class="st19" d="m219.9 1323.1 18.1 18a10 10 0 0 0 14.1 0l21.2-21.3a10 10 0 0 0 0-14.1l-18.1-18a32.7 32.7 0 1 0-35.3 35.4z"/><path class="st17" d="M204.2 1308.9a26 26 0 1 0 36.6-36.7 26 26 0 0 0-36.6 36.7z"/><path class="st21" d="M218 1278.1c.5-.5 1.5-.8 2.2-.6l10.9 2.9c.7.2 1.4.9 1.6 1.6l2.9 10.8c.2.7-.1 1.7-.6 2.2l-7.9 8c-.5.5-1.5.8-2.2.6l-10.9-2.9c-.7-.2-1.4-.9-1.6-1.6l-2.9-10.8c-.2-.7.1-1.7.6-2.2l7.9-8z"/></g><g><path class="st27" d="M139.1 1266.6h25.8c.4-3.8 1.9-7.6 4.4-10.8H141a45.4 45.4 0 0 0-1.9 10.8z"/></g><g><path class="st27" d="M205.6 1034.8c-.4-3.6.3-7.4 2.1-10.8h-27.1c-.7 3.6-1 7.2-.8 10.8h25.8z"/></g><g><path class="st25" d="M1070.5 1014.2c1.3 3.5 1.6 7.2.5 10.7-2.9 9.5-14.5 14.8-25.4 11.5l-18.7-5.7c-10.9-3.3-17.7-14.1-14.8-23.7 2.7-9 13.3-14.2 23.7-12l7.4-24.6a45.5 45.5 0 0 0-55.8 29.1c-7 23.2 7.4 48.3 31.9 55.7l18.7 5.7a45.7 45.7 0 0 0 57.5-28.7c1.8-6 2.2-12.2 1.3-18.2l-26.3.2z"/><path class="st26" d="m998.8 1071.2-7.4 24.4a10 10 0 0 0 6.6 12.4l28.7 8.7a10 10 0 0 0 12.4-6.6l7.4-24.4a32.7 32.7 0 1 0-47.7-14.5z"/><path class="st19" d="m998.8 1071.2-7.4 24.4a10 10 0 0 0 6.6 12.4l28.7 8.7a10 10 0 0 0 12.4-6.6l7.4-24.4a32.7 32.7 0 1 0-47.7-14.5z"/><path class="st17" d="M1004 1050.7a26 26 0 0 0 17.3 32.4 26 26 0 1 0-17.3-32.4z"/><path class="st21" d="M1037.6 1048.4c.7.2 1.4.9 1.5 1.6l2.6 10.9c.2.7-.1 1.7-.6 2.1l-8.2 7.7c-.5.5-1.5.7-2.2.5l-10.8-3.3c-.7-.2-1.4-.9-1.5-1.6l-2.6-10.9c-.2-.7.1-1.7.6-2.1l8.2-7.7c.5-.5 1.5-.7 2.2-.5l10.8 3.3z"/></g><g><path class="st27" d="m1071 1025 26.1.1c.4-3.6.3-7.3-.2-10.8h-26.4c1.4 3.4 1.6 7.1.5 10.7z"/></g><g><path class="st25" d="M1130.9 1259.9c5.9 8.5 5.4 20-1.6 26-7.5 6.5-20.2 4.8-27.7-3.8l-12.8-14.8c-7.5-8.6-7.4-21.4.1-27.9 7.1-6.2 18.9-4.9 26.5 2.5l19.4-16.9a45.5 45.5 0 0 0-62.7-5.1c-18.3 15.9-19.5 44.8-2.7 64.2l12.8 14.8c16.8 19.4 45.6 22.3 63.9 6.4a44 44 0 0 0 12.8-45.4h-28z"/><path class="st26" d="m1043.5 1286.6-19.3 16.7a10 10 0 0 0-1 14l19.7 22.7a10 10 0 0 0 14 1l19.3-16.7a32.7 32.7 0 1 0-32.7-37.7z"/><path class="st19" d="m1043.5 1286.6-19.3 16.7a10 10 0 0 0-1 14l19.7 22.7a10 10 0 0 0 14 1l19.3-16.7a32.7 32.7 0 1 0-32.7-37.7z"/><path class="st17" d="M1058.8 1272a26 26 0 1 0 34 39.2 26 26 0 0 0-34-39.2z"/><path class="st21" d="M1088.6 1288c.5.5.7 1.5.4 2.2l-3.7 10.6c-.2.7-1 1.3-1.7 1.5l-11 2.1c-.7.1-1.7-.2-2.1-.7l-7.4-8.5c-.5-.5-.7-1.5-.4-2.2l3.7-10.6c.2-.7 1-1.3 1.7-1.5l11-2.1c.7-.1 1.6.2 2.1.7l7.4 8.5z"/></g><g><path class="st27" d="M1134.9 1270.8h25.7c-.1-3.6-.7-7.3-1.7-10.8h-28a22 22 0 0 1 4 10.8z"/></g><path class="st19" d="M485.3 1364.1h317.6v5.4H485.3zM701.6 1150.4h-115a56.2 56.2 0 0 0-56.1 56.1v9a56.2 56.2 0 0 1 56.1-56.1h115c31 0 56.2 25.2 56.2 56.1v-9a56.4 56.4 0 0 0-56.2-56.1z"/><g><path class="st28" d="M613.1 1537.2c-3.5 0-6.4-2.6-6.4-5.7 0-3.2 2.9-5.8 6.4-5.8h62c3.5 0 6.4 2.6 6.4 5.8 0 3.2-2.9 5.7-6.4 5.7h-62z"/></g><g><path class="st28" d="M613.1 1505.1c-3.5 0-6.4-2.6-6.4-5.7 0-3.2 2.9-5.8 6.4-5.8h62c3.5 0 6.4 2.6 6.4 5.8 0 3.2-2.9 5.7-6.4 5.7h-62z"/></g><path d="m565.2 1314.8 159.5-159.4a56 56 0 0 0-23.1-5h-115a56.2 56.2 0 0 0-56.1 56.1v56.4a56.2 56.2 0 0 0 34.7 51.9z" style="opacity:3.000000e-02;fill:#eaeef2;enable-background:new"/><g><circle class="st19" cx="644.1" cy="1418" r="14.3"/><path class="st19" d="M691.8 1432.3a14.3 14.3 0 1 1 0-28.6 14.3 14.3 0 0 1 0 28.6zM596.3 1432.3a14.3 14.3 0 1 1 0-28.6 14.3 14.3 0 0 1 0 28.6z"/></g></g><path class="st1" d="M1115.1 1200.7h24.8v45.6h-24.8z"/><g><path class="st30" d="M694.9 1509.7a41.5 41.5 0 0 1 0-83c22.7 0 41.2.3 41.5 23v18.5a41.5 41.5 0 0 1-41.5 41.5zm0-72.2a30.8 30.8 0 0 0-30.7 30.7c0 16.9 12 28.9 28.9 28.9s30.7-13.8 30.7-30.7v-18.5c-.2-16.7-12.1-10.4-28.9-10.4zM591.2 1509.7a41.5 41.5 0 0 1-41.5-41.5v-18.3c.1-22.8 18.7-23.2 41.5-23.2a41.5 41.5 0 0 1 0 83zm0-72.2c-16.8 0-28.7-6.2-28.9 10.5v18.3c0 16.9 13.8 30.7 30.7 30.7s28.9-12 28.9-28.9a30.7 30.7 0 0 0-30.7-30.6z"/><path class="st30" d="M703.1 1527c0 27.2-24.2 49.4-53.8 49.4h-12.4c-29.6 0-53.8-22.3-53.8-49.4v-58.8h120v58.8z"/><path d="M592.1 1527v-58.8h-9v58.8c0 27.2 24.2 49.4 53.8 49.4h9c-29.6 0-53.8-22.2-53.8-49.4z" style="fill:#363d52"/><path class="st32" d="M694 1468.2v58.8c0 27.2-24.2 49.4-53.8 49.4h9c29.6 0 53.8-22.3 53.8-49.4v-58.8h-9z"/><path class="st32" d="M583.1 1466.4H694v12.6H583.1zM600.8 1059.2h84.6v56.8h-84.6zM636.7 839.8v-38.4c-7.4-2.6 20.2-2.6 12.8 0v38.4c14.9 0 37.9 24.2 37.9 50.3h-88.5c-.1-26.1 19-50.3 37.8-50.3z"/><path class="st33" d="M801.7 976.8c0 55.6-45.5 101.1-101.2 101.1H585.7a101.4 101.4 0 0 1-101.1-101.1v-28.9c0-55.6 45.5-101.1 101.1-101.1h114.8c55.6 0 101.2 45.5 101.2 101.1v28.9z"/><path class="st34" d="M502.6 976.8v-28.9c0-55.6 45.5-101.1 101.1-101.1h-18a101.4 101.4 0 0 0-101.1 101.1v28.9c0 55.6 45.5 101.1 101.1 101.1h18a101.3 101.3 0 0 1-101.1-101.1z"/><path class="st32" d="M700.5 846.8h-18c55.6 0 101.2 45.5 101.2 101.1v28.9c0 55.6-45.5 101.1-101.2 101.1h18c55.6 0 101.2-45.5 101.2-101.1v-28.9c0-55.6-45.6-101.1-101.2-101.1z"/><path class="st33" d="M700.5 1105H585.7a101.4 101.4 0 0 0-101.1 101.1v162.8c0 55.6 45.5 101.1 101.2 101.1h114.8c55.6 0 101.1-45.5 101.1-101.1V1206.1c0-55.6-45.6-101.1-101.2-101.1z"/><path class="st32" d="M585.7 1327.5a65.2 65.2 0 0 1-65.1-65.1v-56.3a65.2 65.2 0 0 1 65.1-65.1h114.8a65.2 65.2 0 0 1 65.1 65.1v56.3a65.2 65.2 0 0 1-65.1 65.1H585.7z"/><path class="st30" d="M585.7 1318.5a56.1 56.1 0 0 1-56.1-56v-56.3a56 56 0 0 1 56-56h114.8a56.1 56.1 0 0 1 56.1 56v56.3a56 56 0 0 1-56 56H585.7z"/><path class="st34" d="M502.6 1368.9V1206.1c0-55.6 45.5-101.1 101.1-101.1h-18a101.4 101.4 0 0 0-101.1 101.1v162.8c0 55.6 45.5 101.1 101.2 101.1h18a101.4 101.4 0 0 1-101.2-101.1z"/><path class="st32" d="M700.5 1105h-18c55.6 0 101.2 45.5 101.2 101.1v162.8c0 48.7-34.6 91.6-80.6 101.1a101.4 101.4 0 0 0 98.6-101.1V1206.1c0-55.6-45.6-101.1-101.2-101.1z"/><path class="st30" d="M585.7 1024.4a62.2 62.2 0 0 1 0-124.2h114.8a62.2 62.2 0 0 1 0 124.2H585.7z"/><path class="st33" d="M785.4 916.3c20.4 2.8 35.2 12.9 35.2 43.3 0 28.8-13.5 39.5-32.4 42.9l-2.8-86.2z"/><path class="st34" d="M491.2 1001c-15.3-4.6-25.6-15.9-25.6-41.3 0-28.6 13.3-39.4 32.1-42.8l-6.5 84.1z"/><path class="st35" d="M682.1 962.4a16.6 16.6 0 1 1 33.2 0 16.6 16.6 0 0 1-33.2 0zM570.8 962.4a16.6 16.6 0 1 1 33.2 0 16.6 16.6 0 1 1-33.2 0z"/><path class="st32" d="M662.2 783.4a19.1 19.1 0 1 0-38.2 0 19.1 19.1 0 0 0 38.2 0z"/><path class="st33" d="M688.6 861.2c0-15.5-23.3-28-45.5-28-22.1 0-45.4 12.5-45.4 28s23.3 28 45.4 28c22.1 0 45.5-12.5 45.5-28z"/><path class="st32" d="M484.5 1363.5h317.1v5.4H484.5zM700.5 1150.1H585.7a56 56 0 0 0-56 56v9a56 56 0 0 1 56-56h114.8a56.1 56.1 0 0 1 56.1 56v-9c0-30.8-25.2-56-56.1-56z"/><path class="st36" d="M612.1 1536.3c-3.5 0-6.3-2.6-6.3-5.7 0-3.2 2.8-5.7 6.3-5.7H674c3.5 0 6.4 2.6 6.4 5.7 0 3.2-2.8 5.7-6.4 5.7h-61.9zM612.1 1504.2c-3.5 0-6.3-2.6-6.3-5.7 0-3.2 2.8-5.7 6.3-5.7H674c3.5 0 6.4 2.6 6.4 5.7 0 3.2-2.8 5.7-6.4 5.7h-61.9z"/><path class="st37" d="m564.4 1314.3 159.2-159.2c-7-3.2-14.8-5-23.1-5H585.7a56 56 0 0 0-56 56v56.3a56 56 0 0 0 34.7 51.9zM585.7 1024.4a62.2 62.2 0 0 1 0-124.2h114.8l-114.8 124.2z"/><g><circle class="st30" cx="643.1" cy="1417.4" r="14.3"/><path class="st30" d="M690.7 1431.6a14.3 14.3 0 1 1 0-28.6 14.3 14.3 0 0 1 0 28.6zM595.4 1431.6c-7.9 0-14.2-6.4-14.2-14.3a14.3 14.3 0 1 1 14.2 14.3z"/></g></g><g><path class="st24" d="M632.5 1271.6a6.8 6.8 0 0 1-6.9-6.9v-25.2h-29v25.2a6.8 6.8 0 0 1-6.9 6.9 6.8 6.8 0 0 1-6.9-6.9v-64.1a6.8 6.8 0 0 1 6.9-6.9 6.8 6.8 0 0 1 6.9 6.9v25.2h29v-25.2a6.8 6.8 0 0 1 6.9-6.9 6.8 6.8 0 0 1 6.9 6.9v64.1a7 7 0 0 1-2 4.9 7 7 0 0 1-4.9 2zM664.3 1271.6a6.8 6.8 0 0 1-6.9-6.9v-64.1a6.8 6.8 0 0 1 6.9-6.9 6.8 6.8 0 0 1 6.9 6.9v64.1a7 7 0 0 1-2 4.9 7 7 0 0 1-4.9 2zM696.4 1271.6c-1.2 0-2.3-.2-3.3-.7-1-.4-1.9-1-2.7-1.8s-1.4-1.7-1.9-2.7-.7-2.2-.7-3.4c0-1.2.2-2.3.7-3.3a8 8 0 0 1 1.8-2.7 8 8 0 0 1 2.7-1.8c1-.5 2.2-.7 3.3-.7 1.2 0 2.3.2 3.3.7s1.9 1.1 2.7 1.8a8 8 0 0 1 1.8 2.7c.4 1 .7 2.2.7 3.3a8 8 0 0 1-.7 3.4c-.5 1-1.1 1.9-1.9 2.7a8 8 0 0 1-2.7 1.8c-.9.4-2 .7-3.1.7zm0-25.9c-1 0-1.9-.2-2.7-.6s-1.5-.8-2.1-1.4-1.1-1.3-1.4-2.1c-.4-.8-.5-1.7-.5-2.6v-38.4a6.6 6.6 0 0 1 6.8-6.8c1.9 0 3.6.7 4.9 2a6.5 6.5 0 0 1 1.9 4.8v38.4c0 .9-.2 1.8-.6 2.7-.4.8-.8 1.5-1.4 2.1-.6.6-1.3 1.1-2.2 1.4-.9.3-1.8.5-2.7.5z"/></g><path d="M746.7 126.9c3.7-4.6 8.3-8.1 13.1-11.5 4-2.8 8.3-5.1 12.9-6.9 6.3-2.6 12.7-4.9 19.4-6.3l26.7-5.6 27-5.6 26.5-5.5 26.9-5.7 24.2-5 26.9-5.7 24.2-5 27.2-5.7 26.5-5.6 27-5.6 19.8-4.1c10.6-2.2 21.1-4.7 31.7-6.5 14-2.4 27.7-.7 41 4.6 2.8 1.1 5.6 1.9 8.2 3.5 5.3 2.8 10.7 5.5 15 9.8l.5.5c.9.9 1.9 1.7 3 2.4 1.7 1.7 3.3 3.5 5.2 5a81.4 81.4 0 0 1 13 17.8c1.9 3.5 3 7.3 5.2 10.7 1.7 2.6 1.6 6.5 2.3 9.8l11 52.7 12 57.6 11.5 54.1 10.5 50.6c3 14.2 6.1 28.3 9 42.5l10.4 50.6c1 4.8 1.9 9.6 3.1 14.4.5 2.1.2 4 0 5.9-.4 4.2-.4 8.5-.8 12.7-.4 4-1.4 7.8-2.5 11.6-1 3.3-1.9 6.7-3.6 9.8-2.4 4.9-4.8 9.8-8 14.2-2.7 3.7-5.1 7.5-8.5 10.6-.3 1.1-1.5 1.4-2 2.4-2.3 2.9-5.4 4.9-8.3 7.3-4.5 3.8-9.8 6.3-15 8.8l-.7.2c-5.6 4.6-12.7 4.7-19.3 6.2-14.6 3.2-29.2 6-43.7 9.2-11.4 2.5-22.8 4.7-34.2 7.1-1.5.3-2.2 0-2.5-1.6l-10.1-48.2-10.8-52.4-8.6-40.4c-2.3-11-4.7-21.9-6.9-32.9-.4-2 .4-2.8 2.6-3.3 13.3-2.6 26.5-5.5 39.7-8.3l33.5-7.1c3-.7 3.4-1 2.9-4.1-1.2-6.8-2.7-13.6-4.1-20.3l-9.4-45.3c-.6-2.9-1.2-5.8-2-8.7-.5-2.1-1.8-2-3.2-1.7l-16.5 3.4-38.8 8.2-17.2 3.5c-4.5.9-4.8.8-5.7-3.7-1.7-7.8-3.5-15.6-4.8-23.5-1-5.8-1.6-11.7.5-17.5 2-5.9 6.1-8.8 12.1-9.9 14.6-2.9 29.2-6.1 43.8-9.1l14.1-3c3.3-.7 4.2-1.8 3.6-5.1l-4.5-22-8.1-39.2-2.4-11.1c-.8-3.2-1.6-3.6-5-3.1-11.2 1.9-22.2 4.5-33.4 6.8-6.5 1.3-13 2.9-19.5 4.1-2.4.8-4.9 1.1-7.3 1.9-5.1 1.6-10.4 2.3-15.1 5l-2.9 1-9.5 5.5c-1.5.9-2.9 2-4.2 3.2-1.3.5-2.2 1.7-3.5 2.3-3.7 3.8-7.7 7.4-11.1 11.5a109 109 0 0 0-20.3 38 122.7 122.7 0 0 0-4.1 41.3c0 1.2.3 2.4.4 3.6.5 7.3 1.9 14.4 3.8 21.4 1.1 4.1 1.9 8.2 2.6 12.3v.7c.6 4.9.6 5-4.3 6-16.2 3.3-32.3 6.9-48.5 10-.7.1-1.4.3-2 .8-1.8.7-2.3 2.1-1.9 3.9l9 42.6 6 29c.8 4 2.2 5.1 6.3 4.2l19.5-4.1 30.7-6.5c2.3-.5 4.1.9 4.7 3.8l3.9 18.9 8.5 42.6c3.1 15.3 6.4 30.5 9.6 45.8l12.7 61.2c1.2 5.6 1.2 5.7-3.9 6.7l-31.8 6.5-64.2 13.6-65 13.6c-3.6.8-6.9-.6-10.4-.6a74.3 74.3 0 0 1-33.9-8.8 79.6 79.6 0 0 1-29.5-24.3 80.8 80.8 0 0 1-10.2-17.5c-4.5-10.6-5.5-22.1-8.1-33.1-2.7-11.7-4.9-23.5-7.4-35.3l-8.2-38.8-8.3-39.6-9.8-47.1-13.1-62.9c-4.9-23.5-9.5-47-14.7-70.4a73.3 73.3 0 0 1-.9-30.2 82.3 82.3 0 0 1 14.2-33.8c.9-1.7 2.5-2.7 3.4-4.4 1.7-2.4 3.1-4.7 5.2-6.3z" style="fill:#0058a4"/><path class="st39" d="M204.2 835c1.4-1 2.3-.2 3.3.8l22.7 22.8c1.4 1.4 2 3 2 5l-.1 152.8c0 6.2-4 10.1-9.4 12.7-1.1.5-2.6.4-3.2 1.9H73.9c-1-2-3.3-1.9-4.9-3-5.2-3.6-7.7-8.2-7-14.5 1.6 0 1.4 1.3 1.5 2.2.7 5.5 3.9 8.9 8.7 11.2l1.1.5c1.5.7 3 .5 4.5.5h137.9a13 13 0 0 0 7.4-1.8c3.1-2.4 5.2-5.5 6.4-9.2.5-1.5.3-3 .3-4.5V867.2c0-1.8.5-3.8-.7-5.4-.6-.5-1-1.1-1.5-1.7-6.9-7.4-14.2-14.3-21.2-21.5-1-.9-2.6-1.7-2.2-3.6z"/><path class="st40" d="M71.9 1027.6a14 14 0 0 1-9.1-11.5c-.1-.9.2-1.9-.7-2.6v-15.7c.1-2.7-.9-3.4-3.4-3.3-5.2.2-10.4 0-15.7.1-2.4 0-4.4-.6-5.4-2.9.6-.4 1.2-.4 1.9-.3 3.7 1.4 7.6.6 11.4.8h7.3c2.7-.1 4.9.6 5.6 3.6.3 1.4 1.4 1.8 2.6 1.9l2.4.1h122.5c6.8 0 9.6-3.5 8.5-10.3.7-22.6.1-45.2.3-67.8 0-1.3 0-2.6-.3-3.8-.7-3.4-2.5-5-6-5.3l-4.9-.1H45.8c-2.1 0-4.5.6-6.3-1.2 4-1.3 8.1-.3 12.1-.6 3.3-.3 7.6 1.5 9.7-.8 2-2.1.6-6.2.6-9.5v-76.9c0-4.9 1-9.4 5.1-12.8 2.6-2.2 5.5-3.6 8.8-3.6h95.5c.9 0 1.9-.2 2.6.6.6 5.9.2 11.8.3 17.7.1 6.8 0 13.7 0 20.5 0 9.4 3 13.2 12.1 15.6 1.6.5 2.7 1.8 3.8 2.9l36.1 36.1c1.3 1.3 2.8 2.5 3.1 4.5.3 18.2.1 36.4.1 54.6v53.2c0 11.3-5.8 17.2-17.3 17.2H97.8c-8.4-.2-17.2.1-25.9-.4z"/><path class="st41" d="m39 992-1.4-.2c-2.8-3.1-3-6.8-3-10.7v-63.6c0-4 1.3-6.7 5-8.3l151.8-.1c7.7 0 9.7 2 9.7 9.7v60.9c0 2.7-.3 5.3-.4 8-.2 3.3-2.4 4.6-5.3 5.1-1.7.3-3.5.2-5.2.2H72.7c-9.3 0-18.6-.3-27.9-.1-2 .1-3.9-.1-5.8-.9z"/><path class="st42" d="M187.4 860.3c-8.6-.4-14-6-14-14.5v-36.6c0-1.2-.5-2.6.7-3.6l27.2 27 2.8 2.5c6.2 7.1 13.3 13.4 19.8 20.2l4.1 4.3c-.4 1.9-2 1.8-3.3 1.8-11.3.2-22.5.1-33.8.1-1.2-.2-2.4-.6-3.5-1.2z"/><path class="st43" d="m187.4 860.3 36.7-.1c1.3 0 2.8.5 4-.7.5.3.7.8.7 1.4 1.5.8 1.7 2.1 1.6 3.6v35.3c-.3.9-.3 2-1.7 1.8l-14.5-14.2-26.8-27.1z"/><path class="st44" d="m228.7 901.6 1.4-1.4c.6 1 .3 2 .3 3.1v112.2c0 1 .3 2.1-.3 3.1-1.3 3-2.7 5.9-5.6 7.7a16.2 16.2 0 0 1-8.9 2.5h-138c-2 0-3.9-.1-5.7-1.1-.6-1.6.5-1.6 1.4-1.3 2.3.9 4.6.5 6.9.5h132.9c7.6 0 13.3-3.9 15.2-10.3.4-1.3.4-2.5.4-3.8V901.6z"/><path class="st40" d="M230.1 1018.4V900.1c-.4-7.2.1-14.5-.4-21.7-.3-4.1.3-8.4.1-12.7-.1-1.8-.5-3.3-1-4.9 1.1-.5 1.8-.1 2 1.1l.1 3.1v149c-.1 1.6.5 3.2-.8 4.4zM71.9 1027.6c3.4.9 6.9.7 10.4.7h127.9c4.9 0 9.8.1 14.3-2.1-1.7 2.2-4.3 2.8-6.8 2.8H76c-1.5 0-3-.1-4.1-1.4z"/><path class="st45" d="M39 992c9.8.8 19.5.2 29.3.1H192c3.8 0 6.9-.9 8.7-4.5 2 6.3-1.4 11.2-7.9 11.2H67c-2.6 0-4.9.2-4.5-3.7.2-1.9-1.6-2-3-1.9H43.4c-1.5.1-3.1.1-4.4-1.2z"/><path class="st46" d="M102.1 952.3V938c0-3.6 1.3-4.9 4.8-4.9h12.2c10.8.2 18.3 8.1 18.3 19.2 0 10.9-7.3 18.8-18 19.2-4.2.2-8.4.1-12.6 0-3.6-.1-4.8-1.3-4.9-4.8.2-4.9.2-9.7.2-14.4zM64.9 951.8v-14.3c0-3.7 1.4-5 5.1-5.1h11.5c8.3.3 13.6 5.9 13.5 14.2 0 8-5.4 13.3-13.7 13.6H81c-2.7 0-5.8-.8-7.9.4-2.5 1.4-.6 4.9-1 7.4-.3 2.1-1.4 3.3-3.4 3.3-2.2 0-3.7-1.4-3.8-3.8v-15.7zM145.3 952c0-4.8.1-9.6 0-14.3-.1-3.1 1.3-4.6 4.3-4.6h18.9c2.3 0 4 1 4 3.5 0 2.3-1.6 3.6-3.9 3.6H155c-1.8 0-2.4.5-2.4 2.4-.2 6.6-.3 6.6 6.3 6.6h7c2.7 0 4.8 1.1 4.7 4-.1 2.6-2.3 3.2-4.6 3.2h-10.8c-2-.1-2.7.6-2.6 2.6v7c0 2.5.1 5.2-3.3 5.5-2.6.3-3.8-1.5-3.9-5.4l-.1-14.1z"/><path class="st41" d="M109.6 952.1V942c0-1.7.6-2.3 2.2-2.2l7.7.1c6.5.4 10.6 5 10.6 11.8.1 7.2-4.1 12.3-10.5 12.8-10 .8-10 .8-10-9.3v-3.1z"/><path class="st47" d="M72.1 946.4c0-7 0-7 7.2-7 2.5 0 4.9.1 6.7 2.1a7 7 0 0 1 1.7 7.1c-.9 2.7-3 4.3-6 4.7l-2.8.1c-6.8 0-6.8 0-6.8-7z"/><g><path class="st46" d="M1540.2 802h-49.7l-.1-205.7c0-1.9.5-2.1 2.2-2.1h203.5c1.7 0 2.2.2 2.2 2.1v203.8c0 1.6-.4 2-2 1.9h-23.6c-.2-1.8 1.3-2 2.4-2.5 5.6-2.7 8.3-7 8.2-13.4V652.4a11 11 0 0 0-3.5-8.7c-5.9-5.6-11.6-11.5-17.4-17.3-.9-.9-1.6-2.1-3-2.2-1.9-.1-3-1.5-4.2-2.7l-21.6-21.6c-1.1-1.1-2.1-2.5-3.8-2.7-22.3-.2-44.6 0-66.8-.1h-19.4c-7.5.1-12.1 4.2-13.1 11.6-.2 1.7-.2 3.4-.2 5.1V687c-.2 3.6-.8 4.2-4.4 4.2h-12.7c-1.3 0-2.6 0-3.7.6-2.9 1.3-4 3.6-4 6.6v60.4c0 2.6 1.3 4.6 2.6 6.7.9 1.9 2.6 2.3 4.5 2.3 4.6 0 9.1-.1 13.7 0 3.3.1 3.9.6 4 3.9.2 4.4.1 8.9.1 13.3-1.1 7 2.1 11.5 8.1 14.6.8.7 2 1 1.7 2.4z"/><path class="st39" d="M1658.7 623.6c1.3-.9 2.1-.2 3 .7l20.7 20.7a6 6 0 0 1 1.8 4.6l-.1 139.1c0 5.6-3.6 9.2-8.5 11.6-1 .5-2.4.4-2.9 1.7h-132.5c-.9-1.8-3-1.7-4.5-2.7-4.7-3.2-7-7.5-6.4-13.2 1.5 0 1.3 1.2 1.4 2 .6 5 3.6 8.1 7.9 10.2l1 .4c1.3.6 2.7.4 4.1.4h125.5a12 12 0 0 0 6.7-1.6c2.9-2.2 4.7-5 5.8-8.4.4-1.4.2-2.7.2-4.1V652.9c0-1.7.4-3.4-.6-4.9l-1.4-1.5c-6.2-6.7-12.9-13-19.3-19.6-.8-.9-2.3-1.6-1.9-3.3z"/><path class="st40" d="M1538.3 798.8a12.7 12.7 0 0 1-8.3-10.4c-.1-.8.2-1.7-.6-2.3 0-4.8-.1-9.5 0-14.3.1-2.4-.8-3.1-3.1-3-4.7.2-9.5 0-14.2.1-2.1 0-4-.5-5-2.6.5-.4 1.1-.4 1.8-.2 3.4 1.3 6.9.5 10.4.7h6.7c2.5-.1 4.4.5 5.1 3.3.3 1.3 1.2 1.6 2.4 1.7l2.2.1h111.5c6.2 0 8.7-3.1 7.7-9.4.6-20.6.1-41.2.3-61.8 0-1.2 0-2.3-.3-3.5-.7-3.1-2.3-4.5-5.5-4.8l-4.5-.1h-130.2c-2 0-4.1.5-5.7-1.1 3.6-1.2 7.3-.3 11-.6 3-.3 6.9 1.3 8.9-.7 1.8-1.9.5-5.7.5-8.6v-70c0-4.5.9-8.6 4.6-11.7 2.4-2 5-3.3 8.1-3.3h86.9c.8 0 1.7-.2 2.4.6.6 5.4.2 10.8.3 16.1v18.7c0 8.5 2.7 12 11 14.2 1.5.4 2.5 1.6 3.5 2.7l32.9 32.9c1.2 1.2 2.6 2.3 2.9 4.1.2 16.6.1 33.1.1 49.7v48.4c0 10.3-5.3 15.6-15.7 15.6h-104.1c-8.1-.2-16.1 0-24-.5z"/><path class="st41" d="m1509 691 138.1-.1c7 0 8.9 1.8 8.9 8.8v55.4c0 2.4-.3 4.9-.4 7.3-.2 3-2.2 4.2-4.8 4.7-1.6.3-3.2.2-4.8.2h-107c-8.5 0-16.9-.3-25.4-.1-1.8 0-3.6-.1-5.3-.9l-1.3-.2c-2.6-2.8-2.7-6.2-2.7-9.7v-57.9c.1-3.6 1.3-6.1 4.7-7.5z"/><path class="st42" d="M1643.4 646.6c-7.8-.3-12.7-5.4-12.7-13.2v-33.3c0-1.1-.4-2.4.6-3.3l24.8 24.5 2.6 2.3c5.7 6.4 12.1 12.2 18 18.4l3.7 3.9c-.3 1.8-1.8 1.6-3 1.6h-30.7c-1.2 0-2.3-.4-3.3-.9z"/><path class="st43" d="m1643.4 646.6 33.4-.1c1.2 0 2.6.5 3.6-.7.5.3.6.7.6 1.2 1.3.7 1.5 1.9 1.5 3.2v32.1c-.3.8-.3 1.8-1.6 1.7l-13.2-12.9-24.3-24.5z"/><path class="st44" d="m1681 684.1 1.3-1.3c.6.9.3 1.9.3 2.8v102.1c0 .9.2 1.9-.3 2.8a14.9 14.9 0 0 1-5.1 7 14.3 14.3 0 0 1-8.1 2.2h-125.6c-1.8 0-3.6-.1-5.2-1-.6-1.5.4-1.5 1.3-1.2 2.1.8 4.2.5 6.3.5h120.9c6.9 0 12.1-3.5 13.9-9.4.4-1.2.4-2.3.4-3.4l-.1-101.1z"/><path class="st40" d="M1682.3 790.5V682.8c-.3-6.6.1-13.2-.4-19.8-.3-3.8.3-7.6.1-11.5-.1-1.6-.4-3-.9-4.4 1-.4 1.7-.1 1.8 1l.1 2.9v135.6c-.1 1.3.4 2.8-.7 3.9zM1538.3 798.8c3.1.8 6.3.6 9.5.6h116.4c4.5 0 8.9.1 13-1.9-1.6 2-3.9 2.5-6.2 2.5h-128.9c-1.5.1-2.8 0-3.8-1.2z"/><path class="st45" d="M1508.4 766.4c8.9.7 17.8.1 26.7.1h112.6c3.5 0 6.3-.8 7.9-4.1 1.8 5.8-1.3 10.2-7.2 10.2H1534c-2.4 0-4.5.2-4.1-3.4.2-1.7-1.4-1.8-2.8-1.8h-14.6c-1.5.2-3 .2-4.1-1z"/><path class="st46" d="M1565.8 730.3v-13c0-3.2 1.2-4.4 4.4-4.5h11.1c9.8.2 16.7 7.4 16.7 17.4 0 9.9-6.7 17.1-16.3 17.5h-11.4c-3.3-.1-4.4-1.1-4.4-4.4l-.1-13zM1531.9 729.9v-13c0-3.3 1.3-4.5 4.7-4.6h10.5c7.6.3 12.4 5.4 12.3 12.9 0 7.3-4.9 12.1-12.5 12.3h-.3c-2.4 0-5.3-.7-7.2.3-2.3 1.3-.6 4.4-.9 6.7-.3 1.9-1.3 3-3.1 3-2 0-3.4-1.3-3.4-3.4l-.1-14.2zM1605.1 730v-13.1c-.1-2.8 1.2-4.2 3.9-4.2h17.2c2.1 0 3.6.9 3.6 3.1 0 2.1-1.5 3.2-3.6 3.3h-12.4c-1.6 0-2.2.5-2.2 2.2-.2 6-.3 6 5.7 6h6.4c2.5 0 4.3 1 4.3 3.6-.1 2.4-2.1 2.9-4.2 2.9h-9.9c-1.8-.1-2.4.6-2.3 2.4.1 2.1 0 4.2 0 6.4 0 2.3.1 4.7-3 5-2.4.2-3.5-1.4-3.5-4.9V730z"/><path class="st41" d="M1572.6 730.1v-9.2c0-1.5.5-2.1 2-2l7 .1c5.9.3 9.6 4.5 9.7 10.8.1 6.6-3.8 11.2-9.6 11.7-9.1.7-9.1.7-9.1-8.5v-2.9z"/><path class="st47" d="M1538.5 725c0-6.4 0-6.4 6.6-6.4 2.3 0 4.5.1 6.1 1.9a6.3 6.3 0 0 1 1.5 6.5c-.8 2.5-2.8 4-5.4 4.2h-2.5c-6.3.1-6.3.1-6.3-6.2z"/></g></svg>