<svg version="1.1" id="_x2014_лой_x5F_1" xmlns="http://www.w3.org/2000/svg" x="0" y="0" viewBox="0 0 3000 2000" xml:space="preserve"><style>.st2{fill:#182842}.st3{fill:#344670}.st6{fill:#afcdfb}.st7{fill:#e9f3fe}.st8{fill:#cae0ff}.st10{fill:#1c468a}.st11{fill:#78acea}.st12{fill:#06944b}.st13{fill:#699dee}.st14{fill:#fff}.st15{fill:#a8d29f}.st16{fill:#f1a34f}.st18{fill:#fafdff}.st21{fill:#ed7d2b}.st23{fill:#007451}.st24{fill:#163560}.st25{fill:#ffb27d}.st27{opacity:.5}</style><path d="M265.79 1687.38c-.78.22-1.79.44-3.04.66 1.01-.24 2.02-.46 3.04-.66z" fill="#95c38b"/><path fill="#e4f0f9" d="M0 0h3000v2000H0z"/><path class="st2" d="M1265.02 1121.44l-48.1 571.89s-5.04 34.67 20.75 34.73c42.4.1 211.03 0 211.03 0s-31.91-7.22-31.52-23.45c.46-19.14 56.22-588.58 56.22-588.58l-208.38 5.41z"/><path class="st3" d="M1462.38 1717.68c-8.34.02-169.4.53-210.69 0-17.99-.22-21.15-16-21.3-26.21-.07-4.89.55-8.51.55-8.51l1.25-14.86 3.19-37.89 2.82-33.47 3.62-43.01 3.05-36.3 34.18-406.37 208.37-5.41s-23.48 238.31-40.1 411.78c-1.85 19.33-3.62 37.86-5.25 55.16-.53 5.52-1.04 10.92-1.53 16.18-1.54 16.41-2.95 31.48-4.17 44.79-.65 7.01-1.24 13.53-1.78 19.5-2.12 23.39-3.36 38.33-3.38 41.17-.01 1.66.13 3.2.41 4.63 3.4 18.23 27.63 18.82 30.76 18.82z"/><path class="st3" d="M758.97 810.24l117.16 470.59 16.04 64.45 54.57 219.19h1013.75l-201.12-754.23z"/><path class="st2" d="M758.97 810.23l-16.23 5.42 182.41 765.2 21.59-16.38z"/><path class="st2" d="M925.15 1580.85h1007.52l27.82-16.38H946.74z"/><path transform="rotate(-180 1388.033 1723.095)" class="st2" d="M1278.96 1717.91h218.14v10.37h-218.14z"/><path class="st3" d="M1911.38 1425.49l-164.49-605.28H761.46l-2.49-9.97 1000.4-.01 163.94 613.92z"/><path class="st2" d="M1441.65 1580.84l-1.13 7.93-205.15 41.44 2.82-33.47 1.34-15.9zM1462.38 1717.68c-8.34.02-169.4.53-210.69 0-17.99-.22-21.15-16-21.3-26.21l204.18-38.42c-2.12 23.39-3.36 38.33-3.38 41.17-.01 1.66.13 3.2.41 4.63 3.42 18.24 27.65 18.83 30.78 18.83z"/><path fill="#2a3967" d="M1392.07 1411.79l-445.33 152.68-54.57-219.19z"/><path class="st3" d="M758.97 810.23h1000.4l162.31 606.17H909.88z"/><path fill="#e4edf9" d="M1874.5 1390.14H937.83L831.75 967.56l-8.13-32.4-6.94-27.64-16.27-64.82h923.18l17.86 64.82 7.62 27.64 8.93 32.4z"/><path class="st6" d="M1741.45 907.52H816.68l-16.27-64.82h923.18z"/><path class="st7" d="M838.6 871.99c-1.12-4.47 1.61-8.1 6.08-8.1s9.01 3.63 10.12 8.1c1.12 4.47-1.61 8.1-6.08 8.1s-9-3.62-10.12-8.1zM865.52 871.99c-1.12-4.47 1.61-8.1 6.08-8.1s9.01 3.63 10.12 8.1-1.61 8.1-6.08 8.1c-4.47.01-9-3.62-10.12-8.1zM894.51 871.99c-1.12-4.47 1.61-8.1 6.08-8.1s9.01 3.63 10.12 8.1c1.12 4.47-1.61 8.1-6.08 8.1-4.47.01-9-3.62-10.12-8.1z"/><path class="st8" d="M1668.16 1352.65H974.34L868.76 938.29h684.03z"/><path fill="#d2e3fc" d="M1757.89 1034.71h-157.25l-28.75-96.42h159.16z"/><path class="st10" d="M1333.65 978.65h-89.98l-3.7-13.88h89.97z"/><path class="st11" d="M1493.17 978.65h-147.19l-3.71-13.88h147.2zM1348.77 1016.02H1189.2l-3.7-13.87h159.57z"/><path class="st12" d="M1445.83 1016.02h-82.71l-3.7-13.87h82.71z"/><path class="st13" d="M1360.8 1080.37h-89.98l-3.7-13.87h89.98z"/><path class="st11" d="M1520.32 1080.37h-147.19l-3.7-13.87h147.19z"/><path class="st14" d="M1375.92 1117.75h-159.56l-3.71-13.87h159.57zM1472.98 1117.75h-82.7l-3.71-13.87h82.71z"/><path class="st10" d="M1279.3 1175.6H974.9l-3.7-13.87h304.4z"/><path class="st13" d="M1388.74 1175.6h-89.98l-3.7-13.87h89.97z"/><path class="st11" d="M1548.26 1175.6h-147.19l-3.71-13.87h147.2z"/><path class="st14" d="M1074.85 1212.98h-89.98l-3.7-13.87h89.97z"/><path class="st12" d="M1403.86 1212.98h-159.57l-3.7-13.87h159.57z"/><path class="st11" d="M1234.37 1212.98h-147.19l-3.71-13.87h147.2zM1500.92 1212.98h-82.71l-3.7-13.87h82.71z"/><path class="st10" d="M1313.86 1278.79h-304.4l-3.71-13.88h304.41z"/><path class="st13" d="M1423.29 1278.79h-89.97l-3.7-13.88h89.97z"/><path class="st14" d="M1109.41 1316.16h-89.98l-3.7-13.87h89.97z"/><path class="st12" d="M1438.42 1316.16h-159.57l-3.7-13.87h159.56z"/><path class="st11" d="M1268.93 1316.16h-147.19l-3.71-13.87h147.2zM1535.48 1316.16h-82.71l-3.7-13.87h82.71z"/><g><path class="st11" d="M1679.6 1064.53l-69.2.22-1.53-6.29 69.2-.21zM1716.1 1064.42l-26.02.08-1.53-6.28 26.02-.08zM1768.85 1064.26l-46 .14-1.53-6.29 45.99-.14zM1652.21 1080.52l-37.94.12-1.53-6.29 37.94-.11zM1707.53 1080.35l-48.99.15-1.53-6.28 48.99-.15zM1772.72 1080.15l-56.15.17-1.53-6.28 56.15-.18z"/></g><g><path class="st11" d="M1687.88 1098.49l-69.2.21-1.54-6.28 69.21-.22zM1724.38 1098.37l-26.03.08-1.53-6.28 26.02-.08zM1777.12 1098.21l-45.99.14-1.53-6.28 45.99-.14zM1660.49 1114.47l-37.94.12-1.53-6.28 37.94-.12zM1715.81 1114.3l-49 .16-1.53-6.29 49-.15zM1781 1114.1l-56.16.18-1.53-6.29 56.15-.17z"/></g><g><path class="st14" d="M1633.61 951.68l-41.67.13-.93-3.79 41.68-.13zM1655.59 951.61l-15.67.05-.92-3.79 15.67-.05zM1687.35 951.51l-27.69.09-.93-3.79 27.7-.08zM1617.12 961.3l-22.85.08-.92-3.79 22.84-.07zM1650.43 961.2l-29.51.09-.92-3.78 29.51-.09zM1689.68 961.08l-33.81.11-.92-3.79 33.81-.1z"/></g><g><path class="st14" d="M1638.59 972.12l-41.67.13-.92-3.78 41.67-.13zM1660.57 972.06l-15.67.04-.92-3.78 15.67-.05zM1692.33 971.96l-27.69.08-.92-3.78 27.69-.09zM1622.1 981.75l-22.85.07-.92-3.78 22.85-.07zM1655.41 981.65l-29.5.09-.92-3.78 29.5-.1zM1694.67 981.53l-33.82.1-.92-3.78 33.81-.11z"/></g><g><path class="st11" d="M1702.02 1156.5l-69.2.22-1.53-6.29 69.2-.21zM1738.52 1156.39l-26.02.08-1.54-6.29 26.03-.08zM1791.26 1156.23l-45.99.14-1.53-6.29 45.99-.14zM1674.63 1172.49l-37.94.12-1.53-6.29 37.94-.11zM1729.95 1172.32l-48.99.15-1.54-6.28 49-.16zM1795.14 1172.12l-56.15.17-1.54-6.28 56.15-.18z"/></g><g><path class="st11" d="M1715.88 1213.36l-69.2.22-1.53-6.29 69.2-.21zM1752.38 1213.25l-26.02.08-1.54-6.28 26.03-.08zM1805.12 1213.09l-45.99.14-1.53-6.29 45.99-.14zM1688.49 1229.35l-37.94.12-1.53-6.29 37.94-.11zM1743.81 1229.18l-49 .15-1.53-6.28 49-.15zM1809 1228.98l-56.16.17-1.53-6.28 56.15-.18z"/></g><g><path class="st11" d="M1728.37 1264.59l-69.21.21-1.53-6.28 69.21-.21zM1764.87 1264.48l-26.03.08-1.53-6.29 26.02-.08zM1817.61 1264.32l-45.99.14-1.53-6.29 45.99-.14zM1700.98 1280.58l-37.94.12-1.53-6.29 37.94-.11zM1756.3 1280.41l-49 .15-1.53-6.28 49-.16zM1821.48 1280.21l-56.15.17-1.53-6.28 56.15-.18z"/></g><g><path class="st15" d="M1760.97 1340.79c-11.12 0-22.81-9.05-26.06-20.17-3.25-11.12 3.16-20.17 14.28-20.17s22.81 9.05 26.06 20.17c3.25 11.12-3.16 20.17-14.28 20.17zm-10.7-36.66c-9.09 0-14.33 7.4-11.67 16.49 2.65 9.09 12.21 16.49 21.3 16.49s14.33-7.39 11.67-16.49c-2.65-9.09-12.21-16.49-21.3-16.49z"/><path class="st15" d="M1757.67 1330.88c-.77-.06-1.57-.39-2.26-.94l-11.32-9.06c-1.53-1.22-2.05-3.17-1.17-4.34.88-1.17 2.84-1.13 4.37.1l8 6.4 4.1-9.48c.59-1.37 2.42-1.68 4.09-.69 1.66 1 2.53 2.91 1.94 4.29l-5.39 12.46c-.32.74-1.02 1.2-1.91 1.26-.15.01-.3.01-.45 0z"/><g><path class="st16" d="M1816.65 1340.79c-11.12 0-22.81-9.05-26.06-20.17-3.25-11.12 3.16-20.17 14.28-20.17s22.81 9.05 26.06 20.17c3.25 11.12-3.16 20.17-14.28 20.17zm-10.7-36.66c-9.09 0-14.33 7.4-11.67 16.49 2.65 9.09 12.21 16.49 21.3 16.49s14.33-7.39 11.67-16.49c-2.66-9.09-12.21-16.49-21.3-16.49z"/><path class="st16" d="M1811.72 1323.92c-1.57 0-3.23-1.28-3.69-2.85l-2.5-8.57c-.46-1.57.45-2.85 2.02-2.85s3.23 1.28 3.69 2.85l2.5 8.57c.46 1.56-.45 2.85-2.02 2.85zM1814 1330.64h-.62c-1.4 0-2.88-1.14-3.29-2.54-.41-1.4.4-2.54 1.8-2.54h.62c1.4 0 2.88 1.14 3.29 2.54.41 1.4-.4 2.54-1.8 2.54z"/></g></g><g><path class="st15" d="M1698.93 1025.42c-6.1 0-12.51-4.96-14.29-11.06-1.78-6.1 1.73-11.06 7.83-11.06s12.51 4.96 14.29 11.06c1.78 6.1-1.73 11.06-7.83 11.06zm-5.87-20.1c-4.98 0-7.86 4.05-6.4 9.04 1.46 4.98 6.69 9.04 11.68 9.04 4.98 0 7.85-4.05 6.4-9.04-1.45-4.98-6.69-9.04-11.68-9.04z"/><path class="st15" d="M1697.12 1019.99c-.42-.03-.86-.21-1.24-.51l-6.2-4.97c-.84-.67-1.13-1.74-.64-2.38.48-.64 1.56-.62 2.39.05l4.38 3.51 2.25-5.2c.33-.75 1.33-.92 2.24-.38.91.55 1.39 1.6 1.06 2.35l-2.96 6.83c-.17.4-.56.66-1.05.69-.07.01-.15.01-.23.01zM1667.29 1025.42c-6.1 0-12.51-4.96-14.29-11.06-1.78-6.1 1.73-11.06 7.83-11.06s12.51 4.96 14.29 11.06c1.78 6.1-1.73 11.06-7.83 11.06zm-5.87-20.1c-4.98 0-7.86 4.05-6.4 9.04 1.46 4.98 6.69 9.04 11.68 9.04 4.98 0 7.86-4.05 6.4-9.04-1.46-4.98-6.69-9.04-11.68-9.04z"/><path class="st15" d="M1665.48 1019.99c-.42-.03-.86-.21-1.24-.51l-6.2-4.97c-.84-.67-1.13-1.74-.64-2.38.48-.64 1.55-.62 2.39.05l4.38 3.51 2.25-5.2c.33-.75 1.33-.92 2.24-.38.91.55 1.39 1.6 1.06 2.35l-2.96 6.83c-.17.4-.56.66-1.05.69-.07.01-.15.01-.23.01z"/><g><path class="st15" d="M1634.51 1025.42c-6.1 0-12.51-4.96-14.29-11.06-1.78-6.1 1.73-11.06 7.83-11.06s12.51 4.96 14.29 11.06c1.78 6.1-1.73 11.06-7.83 11.06zm-5.86-20.1c-4.98 0-7.86 4.05-6.4 9.04 1.46 4.98 6.69 9.04 11.68 9.04 4.98 0 7.86-4.05 6.4-9.04-1.46-4.98-6.7-9.04-11.68-9.04z"/><path class="st15" d="M1632.71 1019.99c-.42-.03-.86-.21-1.24-.51l-6.2-4.97c-.84-.67-1.13-1.74-.64-2.38.48-.64 1.56-.62 2.39.05l4.38 3.51 2.25-5.2c.33-.75 1.33-.92 2.24-.38.91.55 1.39 1.6 1.06 2.35l-2.96 6.83c-.17.4-.56.66-1.05.69-.07.01-.15.01-.23.01z"/></g><g><path class="st16" d="M1729.46 1025.42c-6.1 0-12.51-4.96-14.29-11.06-1.78-6.1 1.73-11.06 7.83-11.06s12.51 4.96 14.29 11.06c1.78 6.1-1.74 11.06-7.83 11.06zm-5.87-20.1c-4.98 0-7.86 4.05-6.4 9.04 1.46 4.98 6.69 9.04 11.68 9.04 4.98 0 7.85-4.05 6.4-9.04-1.46-4.98-6.7-9.04-11.68-9.04z"/><path class="st16" d="M1726.76 1016.17c-.86 0-1.77-.7-2.02-1.56l-1.37-4.7c-.25-.86.25-1.56 1.11-1.56.86 0 1.77.7 2.02 1.56l1.37 4.7c.24.86-.25 1.56-1.11 1.56zM1728 1019.86h-.34c-.77 0-1.58-.63-1.8-1.4-.22-.77.22-1.4.99-1.4h.34c.77 0 1.58.63 1.8 1.4.22.77-.22 1.4-.99 1.4z"/></g></g><path d="M2778.83 1731.38H237.76c-1.59 0-2.89-1.3-2.89-2.89v-.98c0-1.59 1.3-2.89 2.89-2.89h2541.08c1.59 0 2.89 1.3 2.89 2.89v.98a2.913 2.913 0 01-2.9 2.89z" fill="#2e3552"/><g><path class="st18" d="M2029.7 880.45h-643.04l-49.28-161.38h643.04z"/><path d="M1955.94 773.64l5.89 19.3c2.59 8.49-2.23 15.44-10.73 15.44h-532.74c-8.49 0-17.56-6.95-20.16-15.44l-5.89-19.3c-2.59-8.49 2.23-15.44 10.73-15.44h532.74c8.5-.01 17.57 6.94 20.16 15.44z" fill="#b7d5f9"/><path class="st13" d="M1849.26 777.67h-8.17l-.77-2.51h11.43l.66 2.16-3.03 14.1h-3.21l3.09-13.75zM1856.23 783.29c-1.42-4.64.27-8.41 4.54-8.41 4.25 0 8.19 3.72 9.63 8.41 1.42 4.65-.27 8.41-4.54 8.41s-8.19-3.72-9.63-8.41zm11.22 0c-.98-3.2-3.43-5.83-5.94-5.83-2.51 0-3.33 2.55-2.33 5.83.98 3.21 3.4 5.83 5.94 5.83 2.53 0 3.32-2.58 2.33-5.83zM1871.58 779.13c-.69-2.25.29-4.16 2.58-4.16 2.28 0 4.38 1.88 5.08 4.16.69 2.25-.29 4.16-2.58 4.16-2.28 0-4.39-1.88-5.08-4.16zm12.32-3.97h2.3l-6.93 16.26h-2.3l6.93-16.26zm-6.73 3.97c-.4-1.3-1.47-2.37-2.51-2.37-1.09 0-1.42 1.07-1.02 2.37.4 1.32 1.47 2.37 2.51 2.37 1.1 0 1.42-1.07 1.02-2.37zm6.77 8.31c-.69-2.25.29-4.16 2.59-4.16 2.28 0 4.38 1.88 5.08 4.16.69 2.25-.29 4.16-2.58 4.16s-4.4-1.88-5.09-4.16zm5.59 0c-.4-1.3-1.47-2.37-2.51-2.37-1.09 0-1.42 1.07-1.02 2.37.4 1.32 1.46 2.37 2.51 2.37 1.1 0 1.42-1.07 1.02-2.37z"/><g><path d="M1763.28 758.19l15.33 50.19h-360.23c-7.08 0-14.55-4.83-18.34-11.34-.77-1.31-1.39-2.69-1.82-4.11l-5.89-19.3c-2.59-8.49 2.23-15.44 10.73-15.44h360.22z" fill="#f99746"/><path class="st21" d="M1466.8 758.19l-15.19 50.19h-33.25c-7.08 0-14.55-4.83-18.34-11.34l11.75-38.85h55.03zM1561.08 758.19l-15.19 50.19h-55.01l15.19-50.19zM1655.36 758.19l-15.18 50.19h-55.03l15.19-50.19zM1749.65 758.19l-15.19 50.19h-55.02l15.18-50.19z"/></g><g><path class="st6" d="M1516.07 838.11h-96.21l-2.03-6.64h96.22zM1495.44 856.67h-69.91l-2.03-6.64h69.91zM1541.54 856.67h-41.79l-2.03-6.64h41.79zM1612.6 856.67h-63.84l-2.02-6.64h63.83zM1552.44 838.11h-29.13l-2.03-6.64h29.14zM1668.34 838.11h-105.93l-2.03-6.64h105.94z"/></g></g><g><path class="st18" d="M1161.74 1124.02H709.38l-70.32-230.26h452.37z"/><path fill="#4a75cb" d="M1097.9 1008.89H702.91l-29.88-97.86h394.98z"/><path class="st8" d="M767.86 930.92h-66.91l-1.59-5.22h66.9zM839.42 930.92h-55.64l-1.6-5.22h55.65zM968.94 930.92H853.92l-1.59-5.22h115.01zM773.57 949.63h-66.91l-1.59-5.22h66.91zM845.14 949.63h-55.65l-1.59-5.22h55.64zM910.85 949.63h-55.64l-1.6-5.22h55.65zM1042.72 951.8H927.71l-1.59-5.22h115.01z"/><g><path class="st8" d="M780.81 973.34H713.9l-1.59-5.22h66.91zM852.38 973.34h-55.65l-1.59-5.22h55.64zM981.89 973.34H866.88l-1.6-5.22h115.01zM786.52 992.05h-66.9l-1.6-5.22h66.91zM858.09 992.05h-55.65l-1.59-5.22h55.65zM923.81 992.05h-55.65l-1.59-5.22h55.64zM1055.68 994.22H940.66l-1.59-5.22h115.01z"/></g><g><path class="st15" d="M967.77 1089.96c-15.33 0-31.61-12.47-36.3-27.8-4.68-15.33 3.98-27.8 19.31-27.8 15.33 0 31.61 12.47 36.3 27.8 4.68 15.33-3.98 27.8-19.31 27.8zm-15.43-50.53c-12.53 0-19.61 10.19-15.79 22.73 3.83 12.53 17.14 22.73 29.67 22.73 12.53 0 19.61-10.19 15.79-22.73-3.83-12.54-17.14-22.73-29.67-22.73z"/><path class="st15" d="M963.03 1076.3c-1.06-.08-2.18-.53-3.14-1.29l-15.77-12.49c-2.13-1.69-2.89-4.37-1.69-5.98 1.19-1.62 3.89-1.56 6.02.13l11.14 8.83 5.48-13.06c.79-1.89 3.31-2.31 5.62-.94s3.54 4.02 2.75 5.91l-7.2 17.17c-.43 1.02-1.38 1.65-2.61 1.74-.19-.01-.39-.01-.6-.02zM888.21 1089.96c-15.33 0-31.61-12.47-36.3-27.8-4.68-15.33 3.98-27.8 19.31-27.8 15.33 0 31.61 12.47 36.3 27.8 4.68 15.33-3.98 27.8-19.31 27.8zm-15.43-50.53c-12.53 0-19.61 10.19-15.79 22.73 3.83 12.53 17.14 22.73 29.67 22.73 12.53 0 19.61-10.19 15.79-22.73-3.83-12.54-17.14-22.73-29.67-22.73z"/><path class="st15" d="M883.48 1076.3c-1.06-.08-2.18-.53-3.14-1.29l-15.77-12.49c-2.13-1.69-2.89-4.37-1.69-5.98 1.19-1.62 3.89-1.56 6.02.13l11.14 8.83 5.48-13.06c.79-1.89 3.31-2.31 5.62-.94s3.54 4.02 2.75 5.91l-7.2 17.17c-.43 1.02-1.38 1.65-2.61 1.74-.2-.01-.4-.01-.6-.02z"/><g><path class="st15" d="M805.8 1089.96c-15.33 0-31.61-12.47-36.29-27.8s3.98-27.8 19.31-27.8c15.33 0 31.61 12.47 36.29 27.8 4.69 15.33-3.98 27.8-19.31 27.8zm-15.43-50.53c-12.53 0-19.61 10.19-15.79 22.73 3.83 12.53 17.13 22.73 29.67 22.73 12.53 0 19.61-10.19 15.79-22.73-3.83-12.54-17.14-22.73-29.67-22.73z"/><path class="st15" d="M801.07 1076.3c-1.06-.08-2.18-.53-3.14-1.29l-15.77-12.49c-2.13-1.69-2.89-4.37-1.69-5.98 1.19-1.62 3.89-1.56 6.02.13l11.14 8.83 5.48-13.06c.79-1.89 3.31-2.31 5.62-.94s3.54 4.02 2.75 5.91l-7.2 17.17c-.43 1.02-1.38 1.65-2.61 1.74-.2-.01-.4-.01-.6-.02z"/></g><g><path class="st12" d="M1044.52 1089.96c-15.33 0-31.61-12.47-36.29-27.8s3.98-27.8 19.31-27.8c15.33 0 31.61 12.47 36.29 27.8 4.69 15.33-3.98 27.8-19.31 27.8zm-15.43-50.53c-12.53 0-19.61 10.19-15.79 22.73 3.83 12.53 17.13 22.73 29.67 22.73s19.61-10.19 15.79-22.73c-3.83-12.54-17.14-22.73-29.67-22.73z"/><path class="st12" d="M1037.42 1066.7c-2.16 0-4.47-1.77-5.13-3.93l-3.61-11.81c-.66-2.16.57-3.93 2.73-3.93s4.47 1.77 5.13 3.93l3.61 11.81c.66 2.16-.57 3.93-2.73 3.93zM1040.68 1075.97h-.85c-1.93 0-3.99-1.58-4.58-3.51-.59-1.93.51-3.51 2.44-3.51h.85c1.93 0 3.99 1.58 4.58 3.51.58 1.94-.52 3.51-2.44 3.51z"/></g></g></g><g><path class="st23" d="M2125.53 1078.17s57.22 59.32 59.92 81.65c2.7 22.33-27.41 57.18-27.41 57.18l-32.51-138.83z"/><path class="st24" d="M2099.68 1692.96s-2.02 31.47-8.11 31.9c-.81.06-30.88-.01-30.88-.01l-38.39-.31s.27-9.25 11.5-11.18c11.23-1.93 30.02-9.78 36.85-24.59 7.19-15.57 29.03 4.19 29.03 4.19zM2185.18 1693.15s-2.02 31.47-8.11 31.9c-.81.06-30.88-.01-30.88-.01l-38.39-.31s.27-9.25 11.5-11.18c11.23-1.93 30.02-9.78 36.85-24.59 7.19-15.58 29.03 4.19 29.03 4.19z"/><path class="st24" d="M2057.9 1354.65s9.9 64.23 47.11 178.3c37.21 114.07 42.2 163.44 42.2 163.44l40.18-1.04s.61-124.57-16.52-181.93c-17.14-57.36-3.28-206.65-3.28-206.65l-109.69 47.88z"/><path class="st10" d="M2038.45 1310.01s-1.63 96.76 14.85 215.6c16.48 118.84 10.7 169.26 10.7 169.26l40.09 1.42s24.22-118.8 17.48-178.28c-6.74-59.48 33.26-203.98 33.26-203.98l-116.38-4.02z"/><path class="st25" d="M2116.56 1083.74l-21.39 13.96-30.86-5.82c.43-2.49 2.49-12.82 4.37-22.17.11-.55.23-1.1.33-1.64 1.61-7.96 3-14.79 3-14.79l28.86-12.66 10.76-4.72c-.03.17-.85 8.83-.97 10.1-2.07 22.46 5.9 37.74 5.9 37.74z"/><path class="st23" d="M2072.24 1076.58c.6-.25 37.2-10.97 41.18-9.65 3.97 1.32 6.31 9.01 6.31 9.01l-59.86 13.4c-.01.01 4.72-9.56 12.37-12.76z"/><path class="st12" d="M2170.22 1322.24c-6.26 28.27-109.46 31.4-136.01 5.67-3.02-2.93-3.14-16.55-1.96-34.91 2.31-35.87 9.6-89.81 9.93-117.37.17-13.31 2.02-26.92 4.49-39.28 5.24-26.34 13.19-47 13.19-47s50.44-16.19 59.86-13.39c45.41 13.44 56.76 218.01 50.5 246.28z"/><path class="st23" d="M2032.25 1293c2.31-35.87 9.6-89.81 9.93-117.37.17-13.31 2.02-26.92 4.49-39.28l30.33-5.29s29.38 121.15-44.75 161.94z"/><path class="st25" d="M2048.78 1243.04s2.06 4.94-2.29 8.25-7.17 8.68-6.19 12.6c.98 3.93 10.49 10.36 13.79 9.33 3.3-1.03 10.03-6.18 9.31-8.26-.72-2.07 4.56-18.17-3.47-24.39-8.03-6.2-11.15 2.47-11.15 2.47z"/><path class="st12" d="M2083.03 1082.14s-29.58 5.47-53.22 40.14-39.2 60.45-34.88 72.98c4.31 12.52 43.78 56.01 50.6 56.03 6.82.01 17.84-4.92 18.48-16.08 0 0-27.76-41.81-22.26-48.05 2.35-2.67 36.23-30.05 41.03-17.64 7.94 20.53.25-87.38.25-87.38z"/><path d="M2108.49 1046.39c-6.35 10.71-29.97 19.94-39.82 23.33.11-.55.23-1.1.33-1.64 1.61-7.96 3-14.79 3-14.79l28.86-12.66c6.38-.09 10.26 1.35 7.63 5.76z" fill="#fca56b"/><path class="st25" d="M2061.13 1051.5s46.42 14.59 55.06-14.46 20.45-46.73-8.82-57.27c-29.27-10.54-38.35-1.18-43.6 7.81-5.23 9-14.49 59.37-2.64 63.92z"/><path class="st24" d="M2065.61 984.79s2.89 33.83 9.89 32.38c7-1.45 13.34-2.53 12.3 7.67-1.05 10.19-10.77 21.95 10.78 23.8 21.55 1.85 52.66-53.68 46.77-64.22-17.03-30.42-104.36-36.74-79.74.37z"/></g><g><g class="st27"><path class="st6" d="M1100.76 734.45v-8.24h8.49v8.24h-8.49zM1100.76 717.79v-8.24h8.49v8.24h-8.49zM1100.76 701.12v-8.24h8.49v8.24h-8.49zM1100.76 684.45v-8.24h8.49v8.24h-8.49zM1100.76 667.78v-8.24h8.49v8.24h-8.49zM1100.76 651.11v-8.24h8.49v8.24h-8.49zM1100.76 634.45v-8.24h8.49v8.24h-8.49zM1100.76 617.78v-8.24h8.49v8.24h-8.49zM1100.76 601.11v-8.24h8.49v8.24h-8.49zM1100.76 584.44v-8.24h8.49v8.24h-8.49zM1100.76 567.77v-8.24h8.49v8.24h-8.49zM1100.76 551.1v-8.24h8.49v8.24h-8.49zM1100.76 534.44v-8.24h8.49v8.24h-8.49zM1100.76 517.77v-8.24h8.49v8.24h-8.49zM1100.76 501.1v-8.24h8.49v8.24h-8.49zM1100.76 484.43v-8.24h8.49v8.24h-8.49zM1100.76 467.76v-8.24h8.49v8.24h-8.49zM1100.76 451.1v-8.24h8.49v8.24h-8.49z"/></g><g class="st27"><path class="st6" d="M1074.81 634.45v-8.24h8.49v8.24h-8.49zM1074.81 617.78v-8.24h8.49v8.24h-8.49zM1074.81 601.11v-8.24h8.49v8.24h-8.49zM1074.81 584.44v-8.24h8.49v8.24h-8.49zM1074.81 567.77v-8.24h8.49v8.24h-8.49zM1074.81 551.1v-8.24h8.49v8.24h-8.49zM1074.81 534.44v-8.24h8.49v8.24h-8.49zM1074.81 517.77v-8.24h8.49v8.24h-8.49zM1074.81 501.1v-8.24h8.49v8.24h-8.49zM1074.81 484.43v-8.24h8.49v8.24h-8.49zM1074.81 467.76v-8.24h8.49v8.24h-8.49zM1074.81 451.1v-8.24h8.49v8.24h-8.49z"/></g><g class="st27"><path class="st6" d="M1048.37 734.45v-8.24h8.49v8.24h-8.49zM1048.37 717.79v-8.24h8.49v8.24h-8.49zM1048.37 701.12v-8.24h8.49v8.24h-8.49zM1048.37 684.45v-8.24h8.49v8.24h-8.49zM1048.37 667.78v-8.24h8.49v8.24h-8.49zM1048.37 651.11v-8.24h8.49v8.24h-8.49zM1048.37 634.45v-8.24h8.49v8.24h-8.49zM1048.37 617.78v-8.24h8.49v8.24h-8.49zM1048.37 601.11v-8.24h8.49v8.24h-8.49zM1048.37 584.44v-8.24h8.49v8.24h-8.49zM1048.37 567.77v-8.24h8.49v8.24h-8.49zM1048.37 551.1v-8.24h8.49v8.24h-8.49zM1048.37 534.44v-8.24h8.49v8.24h-8.49zM1048.37 517.77v-8.24h8.49v8.24h-8.49zM1048.37 501.1v-8.24h8.49v8.24h-8.49zM1048.37 484.43v-8.24h8.49v8.24h-8.49zM1048.37 467.76v-8.24h8.49v8.24h-8.49zM1048.37 451.1v-8.24h8.49v8.24h-8.49z"/></g><g class="st27"><path class="st6" d="M1026.1 767.79v-8.24h8.49v8.24h-8.49zM1026.1 751.12v-8.24h8.49v8.24h-8.49zM1026.1 734.45v-8.24h8.49v8.24h-8.49zM1026.1 717.79v-8.24h8.49v8.24h-8.49zM1026.1 701.12v-8.24h8.49v8.24h-8.49zM1026.1 684.45v-8.24h8.49v8.24h-8.49zM1026.1 667.78v-8.24h8.49v8.24h-8.49zM1026.1 651.11v-8.24h8.49v8.24h-8.49zM1026.1 634.45v-8.24h8.49v8.24h-8.49zM1026.1 617.78v-8.24h8.49v8.24h-8.49zM1026.1 601.11v-8.24h8.49v8.24h-8.49zM1026.1 584.44v-8.24h8.49v8.24h-8.49zM1026.1 567.77v-8.24h8.49v8.24h-8.49zM1026.1 551.1v-8.24h8.49v8.24h-8.49zM1026.1 534.44v-8.24h8.49v8.24h-8.49zM1026.1 517.77v-8.24h8.49v8.24h-8.49zM1026.1 501.1v-8.24h8.49v8.24h-8.49zM1026.1 484.43v-8.24h8.49v8.24h-8.49zM1026.1 467.76v-8.24h8.49v8.24h-8.49zM1026.1 451.1v-8.24h8.49v8.24h-8.49z"/></g><g class="st27"><path class="st6" d="M996.72 617.78v-8.24h8.49v8.24h-8.49zM996.72 601.11v-8.24h8.49v8.24h-8.49zM996.72 584.44v-8.24h8.49v8.24h-8.49zM996.72 567.77v-8.24h8.49v8.24h-8.49zM996.72 551.1v-8.24h8.49v8.24h-8.49zM996.72 534.44v-8.24h8.49v8.24h-8.49zM996.72 517.77v-8.24h8.49v8.24h-8.49zM996.72 501.1v-8.24h8.49v8.24h-8.49zM996.72 484.43v-8.24h8.49v8.24h-8.49zM996.72 467.76v-8.24h8.49v8.24h-8.49zM996.72 451.1v-8.24h8.49v8.24h-8.49z"/></g></g><g><g class="st27"><path class="st6" d="M2277.96 1043.16v8.24h-8.49v-8.24h8.49zM2277.96 1059.83v8.24h-8.49v-8.24h8.49zM2277.96 1076.5v8.24h-8.49v-8.24h8.49zM2277.96 1093.16v8.24h-8.49v-8.24h8.49zM2277.96 1109.83v8.24h-8.49v-8.24h8.49zM2277.96 1126.5v8.24h-8.49v-8.24h8.49zM2277.96 1143.17v8.24h-8.49v-8.24h8.49zM2277.96 1159.84v8.24h-8.49v-8.24h8.49zM2277.96 1176.51v8.24h-8.49v-8.24h8.49zM2277.96 1193.17v8.24h-8.49v-8.24h8.49zM2277.96 1209.84v8.24h-8.49v-8.24h8.49zM2277.96 1226.51v8.24h-8.49v-8.24h8.49zM2277.96 1243.18v8.24h-8.49v-8.24h8.49zM2277.96 1259.85v8.24h-8.49v-8.24h8.49zM2277.96 1276.51v8.24h-8.49v-8.24h8.49zM2277.96 1293.18v8.24h-8.49v-8.24h8.49zM2277.96 1309.85v8.24h-8.49v-8.24h8.49zM2277.96 1326.52v8.24h-8.49v-8.24h8.49z"/></g><g class="st27"><path class="st6" d="M2303.92 1143.17v8.24h-8.49v-8.24h8.49zM2303.92 1159.84v8.24h-8.49v-8.24h8.49zM2303.92 1176.51v8.24h-8.49v-8.24h8.49zM2303.92 1193.17v8.24h-8.49v-8.24h8.49zM2303.92 1209.84v8.24h-8.49v-8.24h8.49zM2303.92 1226.51v8.24h-8.49v-8.24h8.49zM2303.92 1243.18v8.24h-8.49v-8.24h8.49zM2303.92 1259.85v8.24h-8.49v-8.24h8.49zM2303.92 1276.51v8.24h-8.49v-8.24h8.49zM2303.92 1293.18v8.24h-8.49v-8.24h8.49zM2303.92 1309.85v8.24h-8.49v-8.24h8.49zM2303.92 1326.52v8.24h-8.49v-8.24h8.49z"/></g><g class="st27"><path class="st6" d="M2330.36 1043.16v8.24h-8.49v-8.24h8.49zM2330.36 1059.83v8.24h-8.49v-8.24h8.49zM2330.36 1076.5v8.24h-8.49v-8.24h8.49zM2330.36 1093.16v8.24h-8.49v-8.24h8.49zM2330.36 1109.83v8.24h-8.49v-8.24h8.49zM2330.36 1126.5v8.24h-8.49v-8.24h8.49zM2330.36 1143.17v8.24h-8.49v-8.24h8.49zM2330.36 1159.84v8.24h-8.49v-8.24h8.49zM2330.36 1176.51v8.24h-8.49v-8.24h8.49zM2330.36 1193.17v8.24h-8.49v-8.24h8.49zM2330.36 1209.84v8.24h-8.49v-8.24h8.49zM2330.36 1226.51v8.24h-8.49v-8.24h8.49zM2330.36 1243.18v8.24h-8.49v-8.24h8.49zM2330.36 1259.85v8.24h-8.49v-8.24h8.49zM2330.36 1276.51v8.24h-8.49v-8.24h8.49zM2330.36 1293.18v8.24h-8.49v-8.24h8.49zM2330.36 1309.85v8.24h-8.49v-8.24h8.49zM2330.36 1326.52v8.24h-8.49v-8.24h8.49z"/></g><g class="st27"><path class="st6" d="M2352.62 1009.82v8.24h-8.49v-8.24h8.49zM2352.62 1026.49v8.24h-8.49v-8.24h8.49zM2352.62 1043.16v8.24h-8.49v-8.24h8.49zM2352.62 1059.83v8.24h-8.49v-8.24h8.49zM2352.62 1076.5v8.24h-8.49v-8.24h8.49zM2352.62 1093.16v8.24h-8.49v-8.24h8.49zM2352.62 1109.83v8.24h-8.49v-8.24h8.49zM2352.62 1126.5v8.24h-8.49v-8.24h8.49zM2352.62 1143.17v8.24h-8.49v-8.24h8.49zM2352.62 1159.84v8.24h-8.49v-8.24h8.49zM2352.62 1176.51v8.24h-8.49v-8.24h8.49zM2352.62 1193.17v8.24h-8.49v-8.24h8.49zM2352.62 1209.84v8.24h-8.49v-8.24h8.49zM2352.62 1226.51v8.24h-8.49v-8.24h8.49zM2352.62 1243.18v8.24h-8.49v-8.24h8.49zM2352.62 1259.85v8.24h-8.49v-8.24h8.49zM2352.62 1276.51v8.24h-8.49v-8.24h8.49zM2352.62 1293.18v8.24h-8.49v-8.24h8.49zM2352.62 1309.85v8.24h-8.49v-8.24h8.49zM2352.62 1326.52v8.24h-8.49v-8.24h8.49z"/></g><g class="st27"><path class="st6" d="M2382 1159.84v8.24h-8.49v-8.24h8.49zM2382 1176.51v8.24h-8.49v-8.24h8.49zM2382 1193.17v8.24h-8.49v-8.24h8.49zM2382 1209.84v8.24h-8.49v-8.24h8.49zM2382 1226.51v8.24h-8.49v-8.24h8.49zM2382 1243.18v8.24h-8.49v-8.24h8.49zM2382 1259.85v8.24h-8.49v-8.24h8.49zM2382 1276.51v8.24h-8.49v-8.24h8.49zM2382 1293.18v8.24h-8.49v-8.24h8.49zM2382 1309.85v8.24h-8.49v-8.24h8.49zM2382 1326.52v8.24h-8.49v-8.24h8.49z"/></g></g></svg>