<?xml version="1.0" encoding="utf-8"?>
<!-- Generator: Adobe Illustrator 25.2.1, SVG Export Plug-In . SVG Version: 6.00 Build 0)  -->
<svg version="1.1" id="_x2018_лой_x5F_1" xmlns="http://www.w3.org/2000/svg" xmlns:xlink="http://www.w3.org/1999/xlink"
	 x="0px" y="0px" viewBox="0 0 3000 2000" style="enable-background:new 0 0 3000 2000;" xml:space="preserve">
<style type="text/css">
	.st0{fill:#E7F1F9;}
	.st1{fill:#AFCDFB;}
	.st2{fill:#FFFFFF;}
	.st3{fill:#699DEE;}
	.st4{fill:#DDE7FE;}
	.st5{opacity:0.5;fill:#CDE0FB;enable-background:new    ;}
	.st6{opacity:0.5;fill:#7C9AF2;enable-background:new    ;}
	.st7{opacity:0.3;}
	.st8{fill:#BDD1F9;}
	.st9{fill:#233862;}
	.st10{fill:#2B478B;}
	.st11{fill:#F99746;}
	.st12{fill:#FCECDB;}
	.st13{fill:#548EE2;}
	.st14{fill:#F4D2B8;}
	.st15{fill:#A4C4F4;}
	.st16{fill:#ED985F;}
	.st17{fill:#FFB27D;}
	.st18{fill:#1B2840;}
	.st19{fill:#243B65;}
	.st20{fill:#163560;}
	.st21{fill:#1C468A;}
	.st22{fill:#EFDECE;}
	.st23{fill:#ED975D;}
	.st24{fill:#F2CCAA;}
	.st25{fill:#429253;}
	.st26{fill:#33703E;}
	.st27{fill:#C65447;}
	.st28{fill:#2C3A64;}
	.st29{fill:#317253;}
	.st30{fill:#2E3552;}
</style>
<g>
	<rect y="0" class="st0" width="3000" height="2000"/>
	<g>
		<g>
			<path class="st1" d="M1041.4,1610.3l-4.9-2.7c-5.2-2.9-7.1-9.4-4.3-14.6l22.5-41c2.9-5.2,9.4-7.1,14.6-4.3l7,3.8
				c1,0.6,1.4,1.8,0.8,2.9c-0.6,1-1.8,1.4-2.9,0.8l-7-3.8c-3.2-1.7-7.2-0.6-8.9,2.6l-22.5,41c-1.7,3.2-0.6,7.2,2.6,8.9l4.9,2.7
				c3.2,1.7,7.2,0.6,8.9-2.6l14.9-27.2c0.6-1,1.8-1.4,2.9-0.8c1,0.6,1.4,1.8,0.8,2.9L1056,1606
				C1053.2,1611.3,1046.6,1613.2,1041.4,1610.3z"/>
		</g>
		<g>
			<path class="st1" d="M1020.5,1653.4l-8.8-4.8c-8.1-4.4-10.9-15.2-6.1-23.9l33.8-61.7c0.6-1,1.8-1.4,2.9-0.8s1.4,1.8,0.8,2.9
				l-33.8,61.7c-3.7,6.7-1.7,14.8,4.4,18.2l8.8,4.8c6.1,3.3,14,0.6,17.7-6.1l38.5-70.2c3.7-6.7,1.7-14.8-4.4-18.2
				c-1-0.6-1.4-1.8-0.8-2.9s1.8-1.4,2.9-0.8c8.1,4.5,10.9,15.2,6.1,23.9l-38.4,70.2C1039.2,1654.4,1028.7,1657.8,1020.5,1653.4z"/>
		</g>
	</g>
	<g>
		<path class="st2" d="M1864.6,1382.2H789.1c-26.4,0-47.9-21.4-47.9-47.9V431.7c0-26.4,21.4-47.9,47.9-47.9h1075.5
			c26.4,0,47.9,21.4,47.9,47.9v902.7C1912.5,1360.8,1891,1382.2,1864.6,1382.2z"/>
		<path class="st3" d="M1912.5,494.6H741.2v-75c0-19.7,16-35.7,35.7-35.7h1099.8c19.7,0,35.7,16,35.7,35.7V494.6z"/>
		<g>
			<path class="st4" d="M788.6,438.5c0-7.3,5.9-13.2,13.2-13.2s13.2,5.9,13.2,13.2s-5.9,13.2-13.2,13.2
				C794.5,451.8,788.6,445.9,788.6,438.5z"/>
			<path class="st4" d="M844.2,438.5c0-7.3,5.9-13.2,13.2-13.2c7.3,0,13.2,5.9,13.2,13.2s-5.9,13.2-13.2,13.2
				C850.1,451.8,844.2,445.9,844.2,438.5z"/>
			<path class="st4" d="M899.8,438.5c0-7.3,5.9-13.2,13.2-13.2s13.2,5.9,13.2,13.2s-5.9,13.2-13.2,13.2
				C905.7,451.8,899.8,445.9,899.8,438.5z"/>
		</g>
		<rect x="834.1" y="582.5" class="st5" width="332" height="332"/>
		<path class="st6" d="M1520.4,607.3h-264.1c-6.9,0-12.6-5.6-12.6-12.5l0,0c0-6.9,5.6-12.5,12.6-12.5h264.1
			c6.9,0,12.6,5.6,12.6,12.5l0,0C1533,601.7,1527.4,607.3,1520.4,607.3z"/>
		<path class="st6" d="M1836.2,590.4h-264.1c-6.9,0-12.6-5.6-12.6-12.5l0,0c0-6.9,5.6-12.5,12.6-12.5h264.1
			c6.9,0,12.6,5.6,12.6,12.5l0,0C1848.8,584.8,1843.1,590.4,1836.2,590.4z"/>
		<g class="st7">
			<path class="st8" d="M1572.7,703.8h-320.8c-4.5,0-8.1-3.6-8.1-8.1l0,0c0-4.5,3.6-8.1,8.1-8.1h320.8c4.5,0,8.1,3.6,8.1,8.1l0,0
				C1580.8,700.2,1577.2,703.8,1572.7,703.8z"/>
			<path class="st8" d="M1694.6,703.8H1610c-4.5,0-8.1-3.6-8.1-8.1l0,0c0-4.5,3.6-8.1,8.1-8.1h84.7c4.5,0,8.1,3.6,8.1,8.1l0,0
				C1702.8,700.2,1699.1,703.8,1694.6,703.8z"/>
			<path class="st8" d="M1373,754.3h-121c-4.5,0-8.1-3.6-8.1-8.1l0,0c0-4.5,3.6-8.1,8.1-8.1h121c4.5,0,8.1,3.6,8.1,8.1l0,0
				C1381.1,750.7,1377.4,754.3,1373,754.3z"/>
			<path class="st8" d="M1569,754.3h-165.8c-4.5,0-8.1-3.6-8.1-8.1l0,0c0-4.5,3.6-8.1,8.1-8.1H1569c4.5,0,8.1,3.6,8.1,8.1l0,0
				C1577.1,750.7,1573.5,754.3,1569,754.3z"/>
			<path class="st8" d="M1694.6,754.3H1610c-4.5,0-8.1-3.6-8.1-8.1l0,0c0-4.5,3.6-8.1,8.1-8.1h84.7c4.5,0,8.1,3.6,8.1,8.1l0,0
				C1702.8,750.7,1699.1,754.3,1694.6,754.3z"/>
			<path class="st8" d="M1416.1,797.9h-164.2c-4.5,0-8.1-3.6-8.1-8.1l0,0c0-4.5,3.6-8.1,8.1-8.1h164.2c4.5,0,8.1,3.6,8.1,8.1l0,0
				C1424.3,794.3,1420.6,797.9,1416.1,797.9z"/>
			<path class="st8" d="M1729.8,797.9h-268.6c-4.5,0-8.1-3.6-8.1-8.1l0,0c0-4.5,3.6-8.1,8.1-8.1h268.6c4.5,0,8.1,3.6,8.1,8.1l0,0
				C1737.9,794.3,1734.2,797.9,1729.8,797.9z"/>
		</g>
		<g class="st7">
			<path class="st8" d="M1572.7,864.1h-320.8c-4.5,0-8.1-3.6-8.1-8.1l0,0c0-4.5,3.6-8.1,8.1-8.1h320.8c4.5,0,8.1,3.6,8.1,8.1l0,0
				C1580.8,860.4,1577.2,864.1,1572.7,864.1z"/>
			<path class="st8" d="M1694.6,864.1H1610c-4.5,0-8.1-3.6-8.1-8.1l0,0c0-4.5,3.6-8.1,8.1-8.1h84.7c4.5,0,8.1,3.6,8.1,8.1l0,0
				C1702.8,860.4,1699.1,864.1,1694.6,864.1z"/>
			<path class="st8" d="M1373,914.5h-121c-4.5,0-8.1-3.6-8.1-8.1l0,0c0-4.5,3.6-8.1,8.1-8.1h121c4.5,0,8.1,3.6,8.1,8.1l0,0
				C1381.1,910.9,1377.4,914.5,1373,914.5z"/>
			<path class="st8" d="M1569,914.5h-165.8c-4.5,0-8.1-3.6-8.1-8.1l0,0c0-4.5,3.6-8.1,8.1-8.1H1569c4.5,0,8.1,3.6,8.1,8.1l0,0
				C1577.1,910.9,1573.5,914.5,1569,914.5z"/>
		</g>
		<g>
			<path class="st8" d="M982.9,632h34.3l92.6,212h-39.1l-21.3-50.8h-99.6L928.2,844h-37.9L982.9,632z M1035.8,760.4l-36.4-84.2
				l-36.1,84.2H1035.8z"/>
		</g>
		<g>
			<path class="st8" d="M1142.2,1001.7H855.8c-12,0-13.5-3.5-13.5-7.7l0,0c0-4.3,1.5-7.7,13.5-7.7h286.4c12,0,15,3.5,15,7.7l0,0
				C1157.2,998.2,1154.2,1001.7,1142.2,1001.7z"/>
		</g>
		<g>
			<path class="st8" d="M1063.4,1033.7H852.2c-8.8,0-10-3.5-10-7.7l0,0c0-4.3,1.1-7.7,10-7.7h211.3c8.8,0,11.1,3.5,11.1,7.7l0,0
				C1074.5,1030.3,1072.3,1033.7,1063.4,1033.7z"/>
		</g>
	</g>
	<g>
		<path class="st9" d="M1924.3,474.2c0,0,4.8,57.6-8.3,56.7c-13.1-0.9-39-26.2-91.3-22.1c-52.3,4.1-116.2,15.6-154.8-52.8
			s49.4-88.1,49.4-88.1L1924.3,474.2L1924.3,474.2z"/>
		<polygon class="st10" points="1813.2,470 2076.5,491.7 2082,480 1829.6,293.6 1574.5,263.8 1569.6,274.3 		"/>
		<g>
			<path class="st11" d="M1992.4,668.3c-1.6-5.4-7.2-8.6-12.6-7s-8.6,7.2-7,12.6c1.6,5.4,7.2,8.6,12.6,7
				C1990.8,679.4,1994,673.8,1992.4,668.3L1992.4,668.3z"/>
			<path class="st11" d="M1983.6,671.2c10.6-0.8,13,95.3,13,95.3s-6.9,3.2-10.3,2.5c-3.4-0.8-5.1-13.7-5.1-13.7l-0.3,13.6
				c0,0-11.6,0.4-15.6-2.4C1965.4,766.4,1966.9,672.5,1983.6,671.2L1983.6,671.2z"/>
		</g>
		<polygon class="st11" points="1987.1,673.3 1985.2,463.4 1983.8,462.4 1846.3,360.6 1841.3,367.3 1977.5,468 1980.6,673 		"/>
	</g>
	<g>
		<g>
			<g>
				<path class="st12" d="M2164.5,1663.9h-578.5v-219.8h580.4c46.9,0,84.9,38,84.9,84.9v48C2251.4,1625,2212.5,1663.9,2164.5,1663.9
					z"/>
				<path class="st3" d="M2747.6,1534.5v33.1c0,17.7-4.4,34.2-12.2,48.4c-15.6,28.6-44.6,47.8-77.8,47.8H1568.2
					c-7.2,0-13.1-6.2-13.1-14v-4.9c0-7.7,5.8-14,13.1-14h664.1c3.6-4.6,6.7-9.7,9.3-15c6.2-12.5,9.7-26.8,9.7-42v-42
					c0-7.7-0.9-15.2-2.7-22.4c-3-12.1-8.3-23.2-15.4-32.6h-665.1c-7.2,0-13.1-6.2-13.1-14v-4.9c0-7.7,5.8-14,13.1-14h1094.9
					c38.6,0,71.1,27.7,81.2,65.5C2746.5,1517.5,2747.6,1525.9,2747.6,1534.5z"/>
				<path class="st13" d="M2744.4,1509.6h-495.7c-3-12.1-8.3-23.2-15.4-32.6h-665.1c-7.2,0-13.1-6.2-13.1-14v-4.9
					c0-7.7,5.8-14,13.1-14h1094.9C2701.7,1444.1,2734.3,1471.8,2744.4,1509.6z"/>
			</g>
			<polygon class="st14" points="1586.1,1554 1666.7,1557.7 1586.1,1559.9 			"/>
			<polygon class="st14" points="1586.1,1588.5 1778,1592.2 1586.1,1594.4 			"/>
		</g>
		<g>
			<g>
				<g>
					<path class="st9" d="M1501.5,1834.4h567.9v-171h-572.9c-42.6,0-77,34.5-77,77v11.9C1419.5,1797.6,1456.2,1834.4,1501.5,1834.4z
						"/>
					<path class="st12" d="M2042,1834.4h647.2v-171h-649c-43.3,0-78.3,35.1-78.3,78.3v12.5C1961.9,1798.5,1997.8,1834.4,2042,1834.4
						z"/>
					<path class="st9" d="M1919.2,1834.4h791.9c6.6,0,11.9-5.3,11.9-11.9v-1.8c0-6.6-5.3-11.9-11.9-11.9h-791.9
						c-6.6,0-11.9,5.3-11.9,11.9v1.8C1907.3,1829.1,1912.6,1834.4,1919.2,1834.4z"/>
					<path class="st9" d="M1919.2,1689h791.9c6.6,0,11.9-5.3,11.9-11.9v-1.8c0-6.6-5.3-11.9-11.9-11.9h-791.9
						c-6.6,0-11.9,5.3-11.9,11.9v1.8C1907.3,1683.7,1912.6,1689,1919.2,1689z"/>
				</g>
				<polygon class="st14" points="2689.2,1748.9 2601.1,1751.8 2689.2,1753.5 				"/>
				<polygon class="st14" points="2689.2,1709.6 2479.5,1712.4 2689.2,1714.2 				"/>
			</g>
			<g>
				<path class="st10" d="M2481.6,1711.8c0,0,9,7.3,12,19.4c0.5,2.1,0.9,4.4,0.9,6.8c0.5,16,0,52.3,0,52.3l26.5-18.2l26.5,18.2
					v-49.2c0-9.3-2.3-18.4-6.5-24.3c-2-2.9-4.5-5-7.3-5H2481.6z"/>
				<path class="st9" d="M2481.6,1711.8c0,0,9,7.3,12,19.4l53.2,0.7c0,0-2.1-17.3-13.1-20.1H2481.6z"/>
			</g>
		</g>
		<g>
			<g>
				<g>
					<path class="st12" d="M1999,1444.6h-558.9v-251.2h561c49.6,0,89.8,40.2,89.8,89.8v69.5
						C2090.8,1403.4,2049.7,1444.6,1999,1444.6z"/>
					<path class="st1" d="M2091.2,1290.8v54.1c-0.1,23.1-10.8,43.1-26.6,53.8c-7.7,5.2-16.7,8.3-26.2,8.3H1423
						c-7.2,0-13.1,7-13.1,15.6v6.4c0,8.6,5.8,15.6,13.1,15.6h1063.2c30.5,0,57.5-18.1,73.8-45.8c10.3-17.5,16.3-38.7,16.3-61.7
						v-42.7c0-15.7-3-30.6-8.4-43.9c-13.7-33.8-42.6-57.1-76.1-57.1H1423c-7.2,0-13.1,7-13.1,15.6v6.4c0,8.6,5.8,15.6,13.1,15.6
						h617.3c14.8,0,28.1,7.5,37.4,19.5C2086,1261.1,2091.1,1275.2,2091.2,1290.8z"/>
					<path class="st15" d="M1409.9,1422.6v6.4c0,8.6,5.8,15.6,13.1,15.6h1063.2c30.5,0,57.5-18.1,73.8-45.8h-495.3
						c-7.7,5.2-16.7,8.3-26.2,8.3H1423C1415.7,1407,1409.9,1414,1409.9,1422.6z"/>
				</g>
				<polygon class="st14" points="1440.1,1319 1519,1323.2 1440.1,1325.7 				"/>
				<polygon class="st14" points="1440.1,1261.2 1627.8,1265.4 1440.1,1267.9 				"/>
			</g>
			<g>
				<path class="st10" d="M1625.9,1264.5c0,0-12.4,8-16.5,21.1c-0.7,2.3-1.2,4.7-1.3,7.3c-0.7,17.4,0,56.8,0,56.8l-36.6-19.7
					l-36.5,19.7v-53.3c0-10.1,3.1-19.9,8.9-26.3c2.8-3.1,6.2-5.5,10.1-5.5L1625.9,1264.5L1625.9,1264.5z"/>
				<path class="st9" d="M1625.9,1264.5c0,0-12.4,8-16.5,21.1l-73.3,0.8c0,0,2.9-18.8,18-21.8L1625.9,1264.5L1625.9,1264.5z"/>
			</g>
		</g>
	</g>
	<g id="girl_2_15_">
		<path class="st16" d="M691.6,1422.3c0,0,114.6,49.9,135.4,49c20.8-0.9,148.9-39,148.9-39l-3.3,22c0,0-98.9,56.9-133.5,60.1
			c-34,3.2-150.4-30.6-161.7-37.7C666.3,1469.7,658.9,1429.5,691.6,1422.3z"/>
		<path class="st9" d="M674.4,1238.7c0,0-42.3-8-63.3,7.3c-38.1,27.8-40.2,123.8-54.5,138.2c-14.3,14.3-48.7,8.2-51.8,82.2
			s13.7,80.2-6.3,113.2c-20,33,8.5,66.1,8.5,66.1s-11.7-18.2-6.7-31.4c0,0,4.8,29.1,23.3,35.9c18.5,6.8,21.2,11.8,24.1,21.8
			c0,0,157.4-80.7,157.6-137.9s31-113.9,15.8-138.7c0,0,6.7,10.6,7.6,22.4c0,0,9.1-17.4-6.7-33.6c-15.7-16.2,18.5-49.7,13.4-88.5
			C732,1269.1,713.3,1239.9,674.4,1238.7z"/>
		<path class="st17" d="M705.5,1476.8c-10.1,7-22.7,12.7-38.5,16.4c-59.4,13.7-82.1-36.5-90.7-70.9c8.1-4.6,15.7-5.7,20.1-6.2
			c4.3-0.5,8.8-0.8,12.5-1c6.7-5.1,16.6-26,18.8-58.4l2.8,0.8l46.8,12.8c0,0-2.1,14.9-3.2,28.9c-0.8,11-0.9,21.5,1.1,24.1
			c3.7,0.8,5.8,1.3,5.8,1.3s0,0,0,0C681.8,1425.6,695.4,1448,705.5,1476.8z"/>
		<path class="st16" d="M677.4,1370.2c0,0-2.2,14.9-3.2,28.9c-26.5-2.7-38.8-27.9-43.6-41.7L677.4,1370.2z"/>
		<path class="st17" d="M685.3,1384.2c0,0-62.9-3.5-60.2-42.6c2.8-39.2-3.5-66,36.8-65.4c40.3,0.6,47,16.1,49.3,29.3
			C713.5,1318.8,701.7,1384.1,685.3,1384.2z"/>
		<path class="st9" d="M710.9,1283.6c-8.9-12.5-16.4-10.4-20.8-7.2c-33-21.3-57.1,5-57.1,5c-6.2,27.8-27.6,42.4-27.6,42.4
			s11,7.9,37.8,3c8.2-1.5,15.8-6.7,22.5-13.2c-12,17.2-27.4,29-27.4,29c32.6-12.3,48.4-55.3,50-59.8c3.6,3.7,10.6,11.8,12.4,19.2
			c2.4,10.2,12.8,26.1,18.9,25.9C719.5,1327.9,724.2,1302.3,710.9,1283.6z"/>
		<path class="st2" d="M558.4,1604.8c-5.7-29.1-24.2-145.1-5.7-182.4c6.7-13.4,32.8-14.6,61.4-13.4c8.9,5.8,42.9,27.5,56.8,24.8
			c0.2,0,0.4-0.1,0.8-0.2c6.6-1.6,9-6.3,3.6-10.2c0,0,14.2-1.4,31.8,1.9c10,1.9,36.8,15.8,36.8,15.8s-13.5,24.4-33.5,32.8
			c3.4,30.3-1.7,43.7-33.1,113.7c-26.6,59.2,3.6,112.5,3.6,112.5s-156.5,125.8-157.3,61.7C523,1713.5,565.7,1641.9,558.4,1604.8z"/>
		<path class="st18" d="M688.7,1836.8c8.5-1,16.2-5.6,20.9-12.7c0.8-1.1,1.6-2.3,2.4-3.6c17.8-27,24.7-109.5,64.8-197.5
			c9.8-21.4,44.8-25.3,54.3-49.5c0,0,23.5-78.5-45-80.8c-68.5-2.3-183.5,218.3-185.3,241.4C599.2,1756.6,555.6,1851.8,688.7,1836.8z
			"/>
		<path class="st9" d="M961,1835h-97.5c0,0-3.7-15.6,2.8-26.1c5.7-9.4,3.5-14.7-0.7-22.4c4.4,1.8,10.1,3.4,16.4,3.1
			c4.9-0.3,10-2.5,14.5-5.1c4.2,4.8,22.2,25.2,27.8,29.2C930.6,1818.2,959,1816.5,961,1835z"/>
		<path class="st18" d="M833.4,1515.4c5.9,44,28.8,182.9,69.2,250.7c13,21.8-32.8,34.1-33.1,34c-6.2-1.6-16.4-11.4-21.1-15.7
			c-32.8-29.6-99.5-113.4-99.5-180.5c0-32.8-0.6-95.3,23.2-111.2C786.8,1482.9,831.1,1497.9,833.4,1515.4z"/>
		<path class="st19" d="M630.6,1835c0,0,3.6-5,9.9-14.6c7.5-11.4,15.8-33.7,25.9-62.3c10.6-30.1,23.1-67.1,38.8-105.6
			c4.8-11.9,10-23.9,15.4-35.9c9.8-21.4,36.6-18.4,46.2-42.7c0,0,37.3-83.9-31.2-86.2c-68.5-2.3-198.7,224.5-206.1,246.5
			C521.2,1758.2,481.2,1858,630.6,1835z"/>
		<path class="st10" d="M889.4,1835h-97.5c0,0-3.6-15.6,2.8-26.1c5.7-9.4,3.5-14.7-0.7-22.4c4.4,1.8,10.1,3.4,16.4,3.1
			c4.9-0.3,10-2.5,14.5-5.1c4.2,4.8,22.2,25.2,27.8,29.2C859,1818.2,887.4,1816.5,889.4,1835z"/>
		<path class="st18" d="M666.3,1758.1c10.6-30.1,23.1-67.1,38.8-105.6c-4.1-29.2-12.9-54.7-27.8-65
			C677.4,1587.5,641.3,1699.1,666.3,1758.1z"/>
		<path class="st19" d="M776.5,1512.2c5.9,44,14.1,186,54.6,253.8c13,21.8-32.8,34.1-33.1,34c-6.2-1.6-16.4-11.4-21.1-15.7
			c-32.8-29.6-99.5-113.4-99.5-180.5c0-32.8,38.4-92.7,62.2-108.6C754.3,1485.5,774.2,1494.8,776.5,1512.2z"/>
		<path class="st2" d="M697.1,1361.7c0,0-6-2.3-22.7-1c0,0,0.9,6.5,13.2,7.2C694.6,1368.2,697.1,1361.7,697.1,1361.7z"/>
		<g>
			<g>
				<polygon class="st20" points="988.1,1386.2 967.9,1349.7 924.2,1471.7 950,1499.4 				"/>
				<polygon class="st21" points="882.6,1407.6 841.9,1523.7 950,1499.4 988.1,1386.2 				"/>
				<polygon class="st22" points="844.1,1517.8 842.2,1514.5 880.7,1404.6 882.6,1407.6 				"/>
				<polygon class="st12" points="880.7,1404.6 983.1,1384.7 988.1,1386.2 882.6,1407.6 				"/>
			</g>
			<polygon class="st22" points="988.1,1386.2 966.3,1351.5 952.3,1390.7 983.1,1384.7 			"/>
		</g>
		<path class="st17" d="M913.8,1424.4c-3.5-0.7-11.1-3.5-18.7-5.6c2.3-1.8,4.8-3.9,5.5-6.2c1.4-4.3,2.3-5.7-2.3-4.3
			c-4.5,1.4-20.4,8.7-20.4,8.7s0,0,0,0c-9,2.6-17.3,15.4-17.3,15.4s-111.7,39.3-125.1,39.9c-20.8,1-159.2-49.9-159.2-49.9
			c-32.7,7.2-25.3,47.3-14.1,54.4s110.8,43.3,169.8,44c29.9,0.3,138.6-69.5,138.6-69.5s12.7-5.8,22.7-4c10,1.8,33.1,0,38.1-8.2
			C936.5,1430.9,919.7,1425.5,913.8,1424.4z"/>
		<path class="st2" d="M647.6,1447.5c0,0-12.4,39.2-54.9,48.1c0,0-70.2-21.6-35.2-69.4C557.5,1426.1,592.1,1400.4,647.6,1447.5z"/>
		<path class="st17" d="M986.3,1427.3L986.3,1427.3c0-1.1-0.1-2.2-0.4-3.2c0,0-10-15.8-13.3-16.5c-10-2-10,11.2-7.9,19.7
			c1.5,5.9,5.2,11.6,8.3,14.6l0,0l-0.4,12.4C989.5,1445.1,986.3,1427.3,986.3,1427.3z"/>
	</g>
	<g>
		<path class="st9" d="M2071,1400.5c18.4,32.5,41.6,45.1,41.6,45.1l97.3,0.7C2210,1446.3,2057,1375.7,2071,1400.5z"/>
		<g>
			<path class="st17" d="M2144,1651.3c2.5,2.9,2.8,6.2,1.5,9.6c0,0,0,0,0,0.1c-2.4,6.4-10.1,13.5-19,20.6c-1.1,0.9-2.2,1.7-3.1,2.5
				c-0.2,0.2-0.5,0.4-0.7,0.6c-0.2,0.2-0.4,0.3-0.5,0.5c-8.4,7.6-5.2,9.4-20.3,24.8c-17.1,17.6-28.8,17.8-32.2,16.2
				c-2.8-1.4,3-10.7,9.4-21.2c0.3-0.5,0.6-1,0.9-1.5c0.9-1.4,1.7-2.8,2.6-4.2c7.5-12.6,5.7-18.6,4-37.5
				c-1.3-15.4-23.3-85.9-23.3-85.9l32.6-5.4c0,0,9.4,56.1,20.2,64.8c5.8,4.6,12.2,4.8,17.8,8.2c0.4,0.2,0.8,0.5,1.1,0.7
				C2138.2,1646.2,2141.5,1648.4,2144,1651.3z"/>
			<path class="st9" d="M2144,1651.3c2.5,2.9,2.8,6.2,1.5,9.6c0,0,0,0,0,0.1c-2.9,6.4-10.4,13.4-19.1,20.5c-1.1,0.9-2.1,1.8-3,2.6
				c-0.2,0.2-0.5,0.4-0.7,0.6c-0.2,0.2-0.4,0.3-0.5,0.5c-8.4,7.6-5.2,9.4-20.3,24.8c-17.1,17.6-28.8,17.8-32.2,16.2
				c-2.8-1.4,3-10.7,9.4-21.2c3.3-1.2,18.7-7.3,30.5-22.1c10.3-13,17.3-29.7,24.3-39.4c0.4,0.2,0.8,0.5,1.1,0.7
				C2138.2,1646.2,2141.5,1648.4,2144,1651.3z"/>
			<path class="st17" d="M1881.3,1629.1c-2.1,10.1-16.4,8.3-32.4,4.2s-12.2,0.7-35-2s-29.6-11.2-30.3-14.6c-0.6-3,10.7-4,22.8-5.3
				c1.5-0.2,3.1-0.3,4.6-0.5c13.7-1.6,23.7-10.3,36.2-17.5c11.8-6.8,29.5-34.6,29.5-34.6l31.2,2.7c0,0-16.6,24.8-23,35.6
				c-3.8,6.3-3.6,14.8-3.2,21.3C1881.9,1622,1882.1,1625.6,1881.3,1629.1z"/>
			<path class="st9" d="M1848.9,1633.3c-16-4-12.2,0.7-35-2s-29.6-11.2-30.3-14.6c-0.6-3,10.7-4,22.8-5.3l0.1,0.2
				c0,0,13.6,9.8,32.6,10.4c15.5,0.5,31.9-3.8,42.6-3.6c0.2,3.5,0.4,7.2-0.3,10.7C1879.2,1639.2,1864.9,1637.4,1848.9,1633.3z"/>
			<path class="st9" d="M2002.6,1430l28.7,78.9l37.4,103c0,0,10.4,1.1,20.3-1.7c9.1-2.6,19.7-9.4,19.7-9.4s-9.8-110.3-29.1-173.8
				c-4.9-16.3-10.5-29.5-16.8-36.9C2032.4,1353.6,2002.6,1430,2002.6,1430z"/>
			<path class="st10" d="M2033.2,1305.3c19.2-6,73.8,2.3,128.6,13.4l11.6-18.9l118.6-8.4c0,0,38.5,87,16.7,142.1
				c-3.2,8.1-11,11.5-21.7,11.6c0,0,0,0,0,0c0,0-70.7,1.2-93.6,1.1c-58.9-0.4-124.4-41.4-132.9-43.2c-13.9-2.9-19.7,24.9-33.8,54.1
				c-14.1,29.2-131.9,128.6-131.9,128.6s-18,0.1-25.4-2.8c-8-3.1-10.9-7-10.9-7S1989.9,1318.9,2033.2,1305.3z"/>
			<path class="st9" d="M2175.2,1136.7c42,23.5,127.3,72.3,127.8,72c0,0,31.4,12.1,49.3,0.3c29.9-19.6,46.2-72.6-7.9-118.8
				c-27-23-46.2-28.7-48.9-65.2c-1.4-19.8-28-85.2-73-79.5c-3.8,0.5-7.5,0.8-11.3,0.7c-5.2-0.2-13.9,0.5-22.8,5.7
				C2162.9,966.9,2112,1127.2,2175.2,1136.7z"/>
			<path class="st17" d="M2210.7,1117.1c-0.2,0.1,20.7,7.4,34.8,1.3c13.2-5.7,23.4-27.3,23.2-27.3c-6-0.3-12.5-5.6-17.4-40l-2.6,0.9
				l-43,15.1c0,0,3,13.8,4.9,26.9C2212.2,1105,2213.1,1115.6,2210.7,1117.1z"/>
			<path class="st23" d="M2205.7,1067.1c0,0,1.8,9.7,4.4,23.5c24.7-4.3,35.1-25.3,38.6-38.6L2205.7,1067.1z"/>
			<path class="st17" d="M2199.2,1080.7c0,0,58.8-7.5,53.6-44c-5.2-36.5-1.1-62.1-38.9-58.9s-43,18.2-44.3,30.8
				C2168.4,1021.3,2183.8,1081.7,2199.2,1080.7z"/>
			<path class="st9" d="M2171.9,988.7c0,0,37.4,32.7,62.9,35.5c25.6,2.8,35.3-5.3,35.3-5.3s-15-12.6-23.9-32.9
				c-2.6-6-8.2-10.1-14.8-10.7C2213.2,973.5,2178.6,972.5,2171.9,988.7z"/>
			<path class="st9" d="M2195.4,985.9c0,0-12.7,12.1-16.7,21.1c-3.9,8.7-5.2,29.5-2.2,37.8c0,0-19.3-38.2-8.1-56.7
				C2180.3,968.5,2195.4,985.9,2195.4,985.9z"/>
			<path class="st2" d="M2160.6,1203.3c0.9,118.9-0.2,94,12.8,105.4c3.1,2.7,11.9,4.4,23.5,5.3c36.4,2.7,100.6-2.9,103-9.6
				c8.6-23.2,2.7-30.5,9.9-66.2c0.8-3.8,1.7-7.9,2.8-12.4c6-24.5,11.8-32.8-8.7-72.3c-18.6-35.8-37.9-64.9-39.7-63.8
				c-49.9,29.1-53.7,4.3-53.7,4.3S2160.2,1145.3,2160.6,1203.3z"/>
			<path class="st10" d="M2031.2,1508.9l37.4,103c0,0,10.4,1.1,20.3-1.7c9.1-2.6,19.7-9.4,19.7-9.4s-9.8-110.3-29.1-173.8
				L2031.2,1508.9z"/>
			<path class="st2" d="M2210.6,1094c0,0-51.1,8.3-57.3,30.2c-6.1,21.9-42.4,151-42.4,151s25.9,4.8,38-7.1s42.5-111,42.5-111
				L2210.6,1094z"/>
			<path class="st24" d="M2196.9,1313.9c36.4,2.7,100.6-2.9,103-9.6c8.6-23.2,2.7-30.5,9.9-66.2l-17.2-49.6c0,0,2.5,55.2-13.8,69.5
				c-16.3,14.4-66.8,27.5-74.8,39.6C2200.2,1303.4,2197.6,1309.3,2196.9,1313.9z"/>
			<path class="st17" d="M2238.8,1291.1c0,0-35.9-8.3-41.7-5.1c-5.8,3.2-20.1,14.7-21.9,18.7c-1.8,4,12.9-3,17.7-4.2
				c3.1-0.8,11.2,2.1,15.2,3.4c16.9,5.8,27.4,2.9,27.4,2.9L2238.8,1291.1z"/>
			<path class="st2" d="M2264.3,1089.7c0,0,48.3,3.3,64.8,26.8c23.3,33,69,173.2,42.1,191.6c-30.3,20.8-137.1,4.5-137.1,4.5
				s-3.4-16.7,1.6-24.7s85.6-20.4,89.3-24.1c3.7-3.7-45.9-72.8-45.9-83.9C2279.2,1168.7,2264.3,1089.7,2264.3,1089.7z"/>
			<path class="st17" d="M2195.3,1295.9c0,0-7.6,9.7-10.1,10.8s-4.1,0.8-4.1,0.8l5.1-9.1L2195.3,1295.9z"/>
			<path class="st17" d="M2197.1,1285.9l-22,10.5c0,0,0.9,1.5,3.6,1.4c2.7-0.1,9.5-2.5,9.5-2.5L2197.1,1285.9z"/>
		</g>
		<g>
			<g>
				<polygon class="st25" points="2189.9,1322.4 2016.6,1321.2 1965.4,1191.2 2138.4,1192.4 				"/>
				<polygon class="st26" points="2014.6,1316.2 2243.4,1317.8 2243.4,1322.8 2016.6,1321.2 				"/>
			</g>
			<path class="st2" d="M2060.8,1256.7c-1.3-4.6,1.4-8.2,5.9-8.2c4.6,0,9.3,3.8,10.6,8.3c1.3,4.6-1.4,8.2-5.9,8.2
				S2062.1,1261.3,2060.8,1256.7z"/>
		</g>
	</g>
	<g>
		<rect x="1136.8" y="1731.5" class="st27" width="526.5" height="104.7"/>
		<path class="st12" d="M1136.8,1836.2l-77.4-33.1l-45-19.2l46.1-19.7l76.3-32.6c0,0,10.2,25.5,10.3,49.4
			C1147.4,1818.5,1136.8,1836.2,1136.8,1836.2z"/>
		<path class="st12" d="M1724.5,1766.3l0,33.1c0,20.3-16.5,36.8-36.9,36.8h-24.3l0-104.7h26.5
			C1708.9,1731.6,1724.5,1747.1,1724.5,1766.3z"/>
		<path class="st10" d="M1060.4,1764.1c1.9,10.6,3.6,26.8-1.1,38.9l-45-19.2L1060.4,1764.1z"/>
	</g>
	<g>
		<path class="st11" d="M1250,1186.5c0,0,9.4,40.9,36.9,40.9c23.6,0,55.9-53.3,55.9-53.3L1250,1186.5z"/>
		<path class="st10" d="M1565.6,1790.9l-17.7,12.1c0,0-84.9-90.5-105.4-177.3c-3.7-15.5-5.1-30.8-3.6-45.3c0,0-1.2-3.9-3.4-10.9
			c-0.1-0.3-0.2-0.6-0.3-0.9c-0.9-3.1-2.1-6.6-3.3-10.7c-4.1-13.1-9.8-31.1-16.2-51.5c-14.8-47-48.8-153.1-63.3-197.2l104.3-37.7
			c0,0,11.8,27,28.9,100.4c2.6,9.6,5.2,20.2,7.7,31.7c2.8,13.1,5.4,27.4,7.5,42.8c3.7,26.2,6.1,55.6,6.2,87.9
			c0.1,13.1-0.3,26.8-1,40.8c-0.6,10.3,1,24,3.8,39.7C1522.9,1686.3,1565.6,1790.9,1565.6,1790.9z"/>
		<path class="st9" d="M1621.1,1834.5h-84.3c0,0-3.2-13.4,2.4-22.6c4.9-8.1,3-12.7-0.6-19.4c3.8,1.6,8.8,3,14.2,2.7
			c4.2-0.2,8.6-2.2,12.5-4.4c3.6,4.1,19.2,21.8,24,25.2C1594.9,1820,1619.4,1818.6,1621.1,1834.5z"/>
		<path class="st9" d="M1500.7,1446.5l-65.5,122.1c-0.9-3.1-2.1-6.6-3.3-10.7c-4.1-13.1-9.8-31.1-16.2-51.5
			c-14.8-47-48.8-153.1-63.3-197.2l104.3-37.7c0,0,11.8,27,28.9,100.4c2.6,9.6,5.2,20.2,7.7,31.7
			C1495.9,1416.8,1498.5,1431.1,1500.7,1446.5z"/>
		<path class="st9" d="M1350.6,1808.2c0,0-5.8,14.3-0.3,26.4h45.9c0,0,0.9-10.9-15.7-23.5
			C1367.8,1801.5,1350.6,1808.2,1350.6,1808.2z"/>
		<path class="st28" d="M1400.5,876c0-2.3,1.2-26.9,38.6-29.1c0,0-18.3,2.6-21.3,10.8c0,0,12.3-10.3,22.6-7.3
			c10.3,3,16.7,20.7,16.9,26.6c0.2,5.9-5,25-11.4,26.7c-2.4,0.7-5.3,0.6-7.8,0.2c1.8,2.7,3.6,5.6,5.2,8.8c15.7,30.3,2.2,66-10.6,63
			c-8.2-1.9-13.1,12.2-13.1,12.2l-78.5-67.5C1341,920.5,1368.5,859.9,1400.5,876z"/>
		<path class="st17" d="M1351.2,1081.1c8.7,6,19.6,11,33.3,14.2c51.3,11.9,71-31.5,78.4-61.3c-7-4-13.6-4.9-17.4-5.3
			c-3.7-0.4-7.6-0.7-10.8-0.9c-5.8-4.4-14.4-22.5-16.2-50.5l-2.4,0.7l-40.5,11.1c0,0,1.8,12.9,2.8,25c0.7,9.5,0.8,18.6-1,20.8
			c-3.2,0.7-5.1,1.1-5.1,1.1s0,0,0,0C1371.7,1036.8,1359.9,1056.1,1351.2,1081.1z"/>
		<path class="st16" d="M1375.5,988.9c0,0,1.9,12.8,2.8,25c22.9-2.3,33.6-24.1,37.7-36.1L1375.5,988.9z"/>
		<path class="st17" d="M1375.1,1008.2c0,0,52.8-13.6,43.8-46.3c-8.9-32.7-8.2-56.5-42.2-49.3c-34.1,7.3-37.2,21.5-36.8,33.2
			S1361.1,1010.8,1375.1,1008.2z"/>
		<path class="st28" d="M1336.3,927.2c5.4-12.1,12.2-11.6,16.4-9.6c24.4-23.7,49.3-5.4,49.3-5.4c10,22.5,30.6,31.3,30.6,31.3
			s-7.9,8.5-31.6,8.9c-7.2,0.1-14.6-3-21.3-7.4c13.1,12.5,28.2,20,28.2,20c-29.7-5-50.4-38.7-52.5-42.3c-2.4,3.8-7,11.8-7.3,18.4
			c-0.3,9,3.2,26.5-2,27.3C1346.2,968.4,1328.2,945.3,1336.3,927.2z"/>
		<path class="st17" d="M1359.9,1033.1c0,0,88.6-21.5,127.2,10.3l-19.3,268.6l-173.4-41.9c0,0,4.9-17,38.1-62.2
			C1365.8,1162.7,1351.3,1096.4,1359.9,1033.1z"/>
		<path class="st10" d="M1411.5,1282.1c0,0-0.1,0.9-0.3,2.7c-0.1,0.8-0.2,1.7-0.3,2.7c-0.8,7-2.2,20.3-4,37.7
			c-4.8,45.6-12.2,118.7-17.3,176.5c-4,45.2-6.5,80.9-5.1,86.6c4.1,17.3,0,223.7,0,223.7c-14.7,7.1-37.1,0-37.1,0
			s-39.2-186-33.8-211.9c5.5-25.9-3.7-47.9-3.7-47.9c-30.5-141.9-27.1-220.6-21.1-258.2c1.8-10.9,3.8-18.4,5.2-23
			c1.2-3.9,2.1-5.7,2.1-5.7C1363.5,1247.2,1411.5,1282.1,1411.5,1282.1z"/>
		<path class="st25" d="M1499,1120c-4.3,32.3-21.4,71.9-27.5,93.2c0,0,10.2,73.9,0.5,94.2c-1.1,2.3-2.5,3.9-4.2,4.7
			c-36.2,15.8-176.9,0.5-182.9-45c-2.2-16.5,53.6-74.5,56.9-81.6c1.3-2.9,2.8-12.4-3.8-31.9c-9.3,28.6-60.4,20.4-60.4,20.4
			c6-10.3,21-81.4,37.7-113.4c12.6-24.1,46.1-27.6,46.1-27.6s14,22.1,47.7,19s39.9-23.8,39.9-23.8s29.9,4,39.2,11.4
			C1489.8,1040.8,1504.6,1077.7,1499,1120z"/>
		<path class="st29" d="M1471.5,1213.2c0,0,10.2,73.9,0.5,94.2c-26.3-13.2-47.1-49-42.3-88.8c3.5-29.4,8.8-36.2,24.6-53
			c11.6-12.4,38.3-13.1,36.2-7.2C1484.2,1175.9,1474.7,1201.9,1471.5,1213.2z"/>
		<g>
			<polygon class="st21" points="1361.6,1125.8 1421.9,1222.6 1319.2,1222.6 1261.7,1127.8 			"/>
			<polygon class="st22" points="1418.8,1217.7 1419.8,1214.3 1362.7,1122.7 1361.6,1125.8 			"/>
			<polygon class="st12" points="1362.7,1122.7 1266,1125.5 1261.7,1127.8 1361.6,1125.8 			"/>
			<polygon class="st20" points="1261.7,1127.8 1207.4,1098.5 1270.7,1197.8 1319.2,1222.6 			"/>
		</g>
		<path class="st17" d="M1548.9,1195.7c-5.8,2.7-20.7,20.2-26.1,22c-23.9,8-125.9-13.3-125.9-13.3l3.2-17.8c0,0,100,2.7,111-0.3
			c2.1-0.6,12.9-17.5,17-19.9L1548.9,1195.7z"/>
		<path class="st17" d="M1400.2,1186.6c0,0-12.1-9.8-20.2-7.6c-8.2,2.2-20.2,12.5-24.6,15s-16.6,11.2-10.4,16.4
			c6.1,5.3,25.2,0.8,32.8-3.3s19.3-2.7,19.3-2.7L1400.2,1186.6z"/>
		<path class="st17" d="M1382.3,1178.7c0,0-14.7-1.8-18.7-1.7c-4,0.1-2.9,1-0.7,4.1c2.2,3.1,9.8,4.3,10.2,5.4
			S1382.3,1178.7,1382.3,1178.7z"/>
		<path class="st25" d="M1449,1028c0,0,43.5,5.2,55.4,23.8c15.1,23.6,50.9,117.5,49.7,141.1c0,0-26.1,44.4-115.7,37.3
			c0,0-9.3-32.9,9.5-43.8c0,0,46-8.2,51.3-12.8l-37.5-68.2L1449,1028z"/>
		<path class="st17" d="M1275.6,1163.2c-1.3-5.5-13.3-2.1-17.3,1.1c-1,0.8-2,2.1-3.1,3.6c-0.1-0.9-0.2-1.8-0.3-2.5
			c-0.2-2.6-3.2-7.2-4-3.7c-0.7,3.4-2,17.9-2,17.9c-0.2,11.7,7.4,16.5,12.2,12.7S1277,1168.7,1275.6,1163.2z"/>
	</g>
	<path class="st30" d="M2871.5,1843.9H133c-1.9,0-3.5-1.6-3.5-3.5v-2.3c0-1.9,1.6-3.5,3.5-3.5h2738.4c1.9,0,3.5,1.6,3.5,3.5v2.3
		C2875,1842.3,2873.4,1843.9,2871.5,1843.9z"/>
</g>
</svg>
