<svg version="1.1" id="_x2018_лой_x5F_1" xmlns="http://www.w3.org/2000/svg" x="0" y="0" viewBox="0 0 3200 2000" xml:space="preserve"><style>.st1{fill:#afcdfb}.st2{fill:#fff}.st3{fill:#699dee}.st4{fill:#dde7fe}.st6{opacity:.5;fill:#7c9af2}.st7{opacity:.3}.st8{fill:#bdd1f9}.st9{fill:#233862}.st10{fill:#2b478b}.st11{fill:#f99746}.st12{fill:#fcecdb}.st14{fill:#f4d2b8}.st16{fill:#ed985f}.st17{fill:#ffb27d}.st18{fill:#1b2840}.st19{fill:#243b65}.st20{fill:#163560}.st21{fill:#1c468a}.st22{fill:#efdece}.st25{fill:#429253}.st28{fill:#2c3a64}</style><path fill="#e7f1f9" d="M0 0h3200v2000H0z"/><path class="st1" d="M1168.47 1610.32l-4.89-2.68c-5.22-2.86-7.14-9.43-4.28-14.64l22.46-41.01c2.86-5.22 9.43-7.14 14.64-4.28l7 3.83c1.02.56 1.4 1.84.84 2.87a2.117 2.117 0 01-2.87.84l-7-3.83a6.566 6.566 0 00-8.91 2.61l-22.46 41.01c-1.74 3.17-.57 7.17 2.61 8.91l4.89 2.68c3.18 1.74 7.17.57 8.91-2.61l14.91-27.22c.56-1.02 1.84-1.4 2.87-.84 1.02.56 1.4 1.84.84 2.87l-14.91 27.22c-2.87 5.21-9.43 7.13-14.65 4.27z"/><path class="st1" d="M1147.63 1653.38l-8.76-4.8c-8.13-4.45-10.87-15.17-6.1-23.88l33.76-61.65c.56-1.02 1.84-1.4 2.87-.84s1.4 1.84.84 2.87l-33.76 61.66c-3.65 6.67-1.67 14.82 4.42 18.15l8.76 4.8c6.09 3.34 14.02.62 17.68-6.05l38.46-70.23c3.65-6.67 1.67-14.82-4.42-18.15-1.02-.56-1.4-1.84-.84-2.87s1.84-1.4 2.87-.84c8.13 4.46 10.87 15.17 6.1 23.88l-38.45 70.23c-4.79 8.71-15.29 12.18-23.43 7.72z"/><path class="st2" d="M1991.68 1382.24H916.19c-26.44 0-47.87-21.43-47.87-47.87V431.69c0-26.44 21.43-47.87 47.87-47.87h1075.49c26.44 0 47.87 21.43 47.87 47.87v902.68c.01 26.44-21.43 47.87-47.87 47.87z"/><path class="st3" d="M2039.56 494.61H868.32v-75.05c0-19.74 16-35.74 35.74-35.74h1099.76c19.74 0 35.74 16 35.74 35.74v75.05z"/><path class="st4" d="M915.68 438.55c0-7.32 5.93-13.25 13.25-13.25s13.25 5.93 13.25 13.25-5.93 13.25-13.25 13.25c-7.32-.01-13.25-5.94-13.25-13.25zM971.28 438.55c0-7.32 5.93-13.25 13.25-13.25 7.31 0 13.25 5.93 13.25 13.25s-5.93 13.25-13.25 13.25c-7.32-.01-13.25-5.94-13.25-13.25zM1026.87 438.55c0-7.32 5.93-13.25 13.25-13.25s13.25 5.93 13.25 13.25-5.93 13.25-13.25 13.25c-7.32-.01-13.25-5.94-13.25-13.25z"/><path opacity=".5" fill="#cde0fb" d="M961.14 582.52h332.01v332.01H961.14z"/><path class="st6" d="M1647.51 607.26h-264.08c-6.93 0-12.55-5.62-12.55-12.55 0-6.93 5.62-12.55 12.55-12.55h264.08c6.93 0 12.55 5.62 12.55 12.55-.01 6.94-5.62 12.55-12.55 12.55zM1963.3 590.43h-264.08c-6.93 0-12.55-5.62-12.55-12.55 0-6.93 5.62-12.55 12.55-12.55h264.08c6.93 0 12.55 5.62 12.55 12.55 0 6.94-5.62 12.55-12.55 12.55z"/><g class="st7"><path class="st8" d="M1699.78 703.85H1379a8.13 8.13 0 010-16.26h320.78a8.13 8.13 0 010 16.26zM1821.73 703.85h-84.68a8.13 8.13 0 010-16.26h84.68a8.13 8.13 0 010 16.26zM1500.04 754.29h-121.03a8.13 8.13 0 010-16.26h121.03a8.13 8.13 0 010 16.26zM1696.08 754.29h-165.85a8.13 8.13 0 010-16.26h165.85a8.13 8.13 0 010 16.26zM1821.73 754.29h-84.68a8.13 8.13 0 010-16.26h84.68a8.13 8.13 0 010 16.26zM1543.23 797.9H1379a8.13 8.13 0 010-16.26h164.23a8.13 8.13 0 018.13 8.13c.01 4.49-3.63 8.13-8.13 8.13zM1856.84 797.9h-268.6a8.13 8.13 0 010-16.26h268.6a8.13 8.13 0 010 16.26z"/></g><g class="st7"><path class="st8" d="M1699.78 864.09H1379a8.13 8.13 0 010-16.26h320.78a8.13 8.13 0 018.13 8.13c0 4.48-3.64 8.13-8.13 8.13zM1821.73 864.09h-84.68a8.13 8.13 0 010-16.26h84.68a8.13 8.13 0 018.13 8.13c0 4.48-3.64 8.13-8.13 8.13zM1500.04 914.52h-121.03a8.13 8.13 0 010-16.26h121.03a8.13 8.13 0 010 16.26zM1696.08 914.52h-165.85a8.13 8.13 0 010-16.26h165.85a8.13 8.13 0 010 16.26z"/></g><path class="st8" d="M1110 632.01h34.29l92.64 212.04h-39.1l-21.35-50.83h-99.55l-21.66 50.83h-37.9L1110 632.01zm52.93 128.42l-36.39-84.21-36.09 84.21h72.48z"/><g><path class="st8" d="M1269.28 1001.67H982.84c-11.99 0-13.54-3.46-13.54-7.73 0-4.27 1.55-7.73 13.54-7.73h286.44c11.99 0 15.01 3.46 15.01 7.73-.01 4.27-3.02 7.73-15.01 7.73z"/></g><g><path class="st8" d="M1190.53 1033.73H979.29c-8.84 0-9.98-3.46-9.98-7.73 0-4.27 1.14-7.73 9.98-7.73h211.25c8.84 0 11.07 3.46 11.07 7.73-.01 4.26-2.24 7.73-11.08 7.73z"/></g><g><path class="st9" d="M2051.38 474.24s4.83 57.57-8.29 56.7c-13.11-.87-39.01-26.21-91.27-22.09s-116.2 15.56-154.85-52.84c-38.65-68.4 49.43-88.08 49.43-88.08l204.98 106.31z"/><path class="st10" d="M1940.29 470.02l263.33 21.65 5.47-11.71-252.45-186.35-255.02-29.8-4.89 10.49 243.56 195.72z"/><path class="st11" d="M2119.5 668.33c-1.55-5.42-7.21-8.56-12.63-7.01-5.42 1.55-8.55 7.2-7 12.63 1.55 5.42 7.2 8.56 12.62 7.01 5.42-1.56 8.56-7.21 7.01-12.63z"/><path class="st11" d="M2110.72 671.16c10.56-.82 13.03 95.28 13.03 95.28s-6.89 3.24-10.27 2.48c-3.39-.76-5.11-13.74-5.11-13.74l-.33 13.61s-11.58.4-15.6-2.42c0 0 1.57-93.9 18.28-95.21z"/><path class="st11" d="M2114.16 673.33l-1.91-209.96-1.36-1.02-137.54-101.74-4.94 6.68 136.17 100.74 3.08 204.94z"/></g><g><path class="st12" d="M2291.62 1663.88h-578.48v-219.79h580.41c46.91 0 84.94 38.03 84.94 84.94v47.98c0 47.98-38.89 86.87-86.87 86.87z"/><path class="st3" d="M2874.73 1534.52v33.07c0 17.67-4.44 34.21-12.2 48.44-15.59 28.62-44.58 47.85-77.77 47.85H1695.32c-7.21 0-13.05-6.25-13.05-13.96v-4.95c0-7.7 5.84-13.96 13.05-13.96h664.12c3.55-4.63 6.68-9.65 9.32-14.99 6.22-12.54 9.73-26.84 9.73-42.02v-42.03c0-7.73-.93-15.23-2.69-22.37-2.97-12.1-8.3-23.18-15.4-32.64h-665.08c-7.21 0-13.05-6.25-13.05-13.97v-4.94c0-7.72 5.84-13.97 13.05-13.97h1094.93c38.58 0 71.13 27.69 81.23 65.51a96.426 96.426 0 013.25 24.93z"/><path d="M2871.47 1509.6H2375.8c-2.97-12.1-8.3-23.18-15.4-32.64h-665.08c-7.21 0-13.05-6.25-13.05-13.97v-4.94c0-7.72 5.84-13.97 13.05-13.97h1094.93c38.58.01 71.12 27.69 81.22 65.52z" fill="#548ee2"/><path class="st14" d="M1713.14 1553.98l80.66 3.7-80.66 2.22zM1713.14 1588.47l191.91 3.69-191.91 2.23z"/><g><path class="st9" d="M1628.61 1834.37h567.87v-170.96H1623.6c-42.55 0-77.04 34.49-77.04 77.04v11.88c.01 45.31 36.74 82.04 82.05 82.04z"/><path class="st12" d="M2169.12 1834.37h647.21v-170.96h-648.99c-43.26 0-78.33 35.07-78.33 78.33v12.53c.01 44.24 35.87 80.1 80.11 80.1z"/><path class="st9" d="M2046.26 1834.37h791.92c6.57 0 11.9-5.33 11.9-11.9v-1.78c0-6.57-5.33-11.9-11.9-11.9h-791.92c-6.57 0-11.9 5.33-11.9 11.9v1.78c0 6.58 5.33 11.9 11.9 11.9zM2046.26 1688.98h791.92c6.57 0 11.9-5.33 11.9-11.9v-1.78c0-6.57-5.33-11.9-11.9-11.9h-791.92c-6.57 0-11.9 5.33-11.9 11.9v1.78c0 6.58 5.33 11.9 11.9 11.9z"/><path class="st14" d="M2816.33 1748.9l-88.18 2.87 88.18 1.73zM2816.33 1709.55l-209.78 2.88 209.78 1.73z"/><g><path class="st10" d="M2608.71 1711.85s8.99 7.35 11.97 19.42c.53 2.11.86 4.37.93 6.75.5 16.04 0 52.35 0 52.35l26.54-18.15 26.47 18.15v-49.21c0-9.3-2.27-18.36-6.49-24.28-2.04-2.87-4.52-5.03-7.33-5.03h-52.09z"/><path class="st9" d="M2608.71 1711.85s8.99 7.35 11.97 19.42l53.19.72s-2.09-17.29-13.06-20.14h-52.1z"/></g></g><g><path class="st12" d="M2126.09 1444.55h-558.92v-251.17h560.96c49.6 0 89.81 40.21 89.81 89.81v69.53c-.01 50.71-41.13 91.83-91.85 91.83z"/><path class="st1" d="M2218.25 1290.83v54.06c-.14 23.09-10.84 43.12-26.56 53.83-7.74 5.25-16.69 8.26-26.19 8.26h-615.45c-7.21 0-13.06 6.98-13.06 15.6v6.38c0 8.61 5.85 15.6 13.06 15.6h1063.2c30.51 0 57.47-18.11 73.75-45.83 10.27-17.47 16.3-38.74 16.3-61.71v-42.65c0-15.74-3.01-30.64-8.4-43.91-13.67-33.77-42.63-57.06-76.15-57.06h-1068.7c-7.21 0-13.06 6.97-13.06 15.58v6.38c0 8.61 5.85 15.6 13.06 15.6h617.33c14.75 0 28.11 7.5 37.44 19.5 8.25 10.62 13.35 24.78 13.43 40.37z"/><path d="M1536.98 1422.58v6.38c0 8.61 5.85 15.6 13.06 15.6h1063.2c30.51 0 57.47-18.11 73.75-45.83h-495.3c-7.74 5.25-16.69 8.26-26.19 8.26h-615.45c-7.22-.01-13.07 6.97-13.07 15.59z" fill="#a4c4f4"/><path class="st14" d="M1567.17 1318.96l78.9 4.22-78.9 2.55zM1567.17 1261.16l187.7 4.22-187.7 2.54z"/><g><path class="st10" d="M1752.94 1264.54s-12.39 7.96-16.49 21.06c-.72 2.29-1.19 4.74-1.29 7.32-.68 17.39 0 56.76 0 56.76l-36.57-19.68-36.48 19.68v-53.35c0-10.09 3.13-19.9 8.94-26.33 2.82-3.11 6.24-5.46 10.1-5.46h71.79z"/><path class="st9" d="M1752.94 1264.54s-12.39 7.96-16.49 21.06l-73.29.78s2.88-18.75 18-21.84h71.78z"/></g></g></g><g id="girl_2_15_"><path class="st16" d="M818.68 1422.33s114.57 49.92 135.36 49.01c20.8-.91 148.94-39.03 148.94-39.03l-3.26 22.04s-98.89 56.88-133.47 60.1c-34.04 3.18-150.43-30.55-161.67-37.67-11.23-7.11-18.56-47.24 14.1-54.45z"/><path class="st9" d="M801.47 1238.71s-42.27-8.03-63.31 7.34c-38.13 27.85-40.18 123.85-54.47 138.15-14.29 14.3-48.74 8.2-51.81 82.2-3.07 74 13.71 80.18-6.27 113.21-19.99 33.03 8.46 66.09 8.46 66.09s-11.65-18.23-6.66-31.4c0 0 4.85 29.05 23.3 35.86 18.45 6.81 21.18 11.8 24.13 21.79 0 0 157.43-80.67 157.6-137.88s30.98-113.89 15.85-138.69c0 0 6.74 10.61 7.56 22.41 0 0 9.08-17.39-6.66-33.58-15.73-16.19 18.46-49.7 13.39-88.5-3.47-26.65-22.16-55.84-61.11-57z"/><path class="st17" d="M832.6 1476.85c-10.06 6.98-22.68 12.74-38.52 16.39-59.37 13.72-82.12-36.46-90.67-70.91 8.1-4.63 15.71-5.65 20.11-6.18 4.29-.51 8.8-.84 12.54-1.03 6.67-5.11 16.6-26 18.8-58.45l2.79.75 46.79 12.81s-2.14 14.87-3.19 28.93c-.81 11-.94 21.51 1.14 24.09 3.65.79 5.84 1.31 5.84 1.31s0 .02.02.04c.65 1.03 14.22 23.36 24.35 52.25z"/><path class="st16" d="M804.46 1370.24s-2.15 14.86-3.19 28.93c-26.51-2.65-38.81-27.89-43.6-41.74l46.79 12.81z"/><path class="st17" d="M812.37 1384.2s-62.92-3.47-60.16-42.62c2.77-39.15-3.49-65.97 36.8-65.4 40.29.56 47.03 16.05 49.29 29.34 2.26 13.29-9.49 78.57-25.93 78.68z"/><path class="st9" d="M837.99 1283.62c-8.87-12.47-16.4-10.41-20.76-7.17-33-21.35-57.13 4.98-57.13 4.98-6.22 27.79-27.63 42.43-27.63 42.43s10.95 7.9 37.84 3c8.22-1.5 15.83-6.71 22.45-13.23-11.97 17.15-27.44 29.01-27.44 29.01 32.59-12.32 48.4-55.28 50-59.83 3.59 3.72 10.62 11.75 12.39 19.25 2.42 10.19 12.85 26.13 18.88 25.86 0 0 4.71-25.6-8.6-44.3z"/><path class="st2" d="M685.5 1604.78c-5.68-29.05-24.21-145.1-5.68-182.44 6.65-13.42 32.76-14.63 61.41-13.45 8.91 5.75 42.88 27.5 56.83 24.79.15-.03.42-.09.78-.18 6.57-1.64 9.05-6.26 3.57-10.24-.01-.01 14.19-1.37 31.81 1.95 9.95 1.87 36.79 15.76 36.79 15.76s-13.52 24.42-33.45 32.85c3.39 30.32-1.65 43.69-33.1 113.72-26.58 59.19 3.59 112.48 3.59 112.48s-156.46 125.79-157.33 61.74c-.66-48.22 42.04-119.86 34.78-156.98z"/><path class="st18" d="M815.8 1836.8c8.51-.96 16.17-5.62 20.93-12.74.75-1.13 1.56-2.34 2.42-3.64 17.81-26.96 24.74-109.52 64.8-197.48 9.76-21.41 44.78-25.26 54.33-49.47 0 0 23.51-78.46-44.99-80.78-68.5-2.31-183.45 218.31-185.26 241.45-1.77 22.41-45.3 117.67 87.77 102.66z"/><path class="st9" d="M1088.04 1834.99h-97.49s-3.65-15.55 2.76-26.13c5.67-9.36 3.49-14.7-.7-22.44 4.42 1.81 10.13 3.45 16.42 3.09 4.86-.28 9.99-2.48 14.5-5.1 4.2 4.78 22.16 25.15 27.78 29.18 6.36 4.58 34.77 2.95 36.73 21.4z"/><path class="st18" d="M960.5 1515.37c5.87 44.01 28.8 182.92 69.24 250.69 13.04 21.85-32.85 34.1-33.1 34.03-6.15-1.61-16.41-11.42-21.13-15.68-32.83-29.59-99.48-113.37-99.48-180.54 0-32.75-.58-95.3 23.24-111.2 14.66-9.79 58.9 5.21 61.23 22.7z"/><path class="st19" d="M757.66 1834.99s3.61-5.03 9.91-14.58c7.5-11.36 15.79-33.7 25.86-62.35 10.58-30.07 23.12-67.07 38.8-105.57 4.84-11.88 9.98-23.91 15.44-35.92 9.76-21.41 36.6-18.45 46.15-42.66 0 0 37.26-83.92-31.23-86.23-68.5-2.31-198.66 224.49-206.14 246.46-8.19 24.04-48.14 123.89 101.21 100.85z"/><path class="st10" d="M1016.48 1834.99h-97.49s-3.64-15.55 2.76-26.13c5.67-9.36 3.49-14.7-.7-22.44 4.42 1.81 10.13 3.45 16.42 3.09 4.86-.28 9.99-2.48 14.5-5.1 4.2 4.78 22.16 25.15 27.78 29.18 6.35 4.58 34.76 2.95 36.73 21.4z"/><path class="st18" d="M793.43 1758.06c10.58-30.07 23.12-67.07 38.8-105.57-4.09-29.17-12.93-54.68-27.78-64.97 0 .01-36.02 111.62-11.02 170.54z"/><path class="st19" d="M903.59 1512.25c5.87 44.01 14.14 186.04 54.58 253.81 13.04 21.85-32.85 34.1-33.1 34.03-6.15-1.61-16.41-11.42-21.13-15.68-32.83-29.59-99.48-113.37-99.48-180.54 0-32.75 38.44-92.68 62.25-108.58 14.67-9.79 34.55-.53 36.88 16.96z"/><path class="st2" d="M824.15 1361.68s-5.95-2.35-22.69-1c0 0 .89 6.53 13.23 7.18 7 .37 9.46-6.18 9.46-6.18z"/><path class="st20" d="M1115.21 1386.19l-20.21-36.47-43.72 122.02 25.79 27.69z"/><path class="st21" d="M1009.68 1407.55l-40.65 116.12 108.04-24.24 38.14-113.24z"/><path class="st22" d="M971.19 1517.81l-1.9-3.31 38.46-109.89 1.93 2.94z"/><path class="st12" d="M1007.75 1404.61l102.43-19.93 5.03 1.51-105.53 21.36z"/><path class="st22" d="M1115.21 1386.19l-21.85-34.69-13.94 39.17 30.76-5.99z"/><path class="st17" d="M1040.87 1424.37c-3.51-.68-11.05-3.52-18.68-5.62 2.28-1.77 4.81-3.94 5.52-6.17 1.36-4.3 2.27-5.68-2.27-4.32-4.54 1.36-20.42 8.65-20.42 8.65s.03.02.04.02c-9.02 2.64-17.34 15.39-17.34 15.39s-111.7 39.27-125.14 39.94c-20.79 1.04-159.17-49.92-159.17-49.92-32.66 7.21-25.33 47.33-14.09 54.45s110.81 43.34 169.82 44.02c29.89.35 138.61-69.53 138.61-69.53s12.71-5.81 22.69-3.99 33.13 0 38.12-8.17c5-8.17-11.79-13.62-17.69-14.75z"/><path class="st2" d="M774.71 1447.46s-12.38 39.18-54.88 48.09c0 0-70.19-21.62-35.24-69.44 0 .01 34.55-25.67 90.12 21.35z"/><path class="st17" d="M1113.4 1427.32c.02-1.08-.09-2.15-.38-3.18 0 0-10.01-15.84-13.29-16.48-9.99-1.97-9.99 11.18-7.87 19.66 1.48 5.91 5.23 11.58 8.27 14.64l-.4 12.39c16.87-9.27 13.67-27.03 13.67-27.03z"/></g><g><path class="st9" d="M2198.12 1400.48c18.36 32.48 41.65 45.14 41.65 45.14l97.26.69c.01-.01-152.92-70.61-138.91-45.83z"/><path class="st17" d="M2271.06 1651.32c2.51 2.92 2.81 6.17 1.54 9.63 0 .01-.01.04-.03.05-2.37 6.39-10.08 13.5-19.03 20.58-1.14.91-2.16 1.74-3.05 2.51-.23.2-.47.4-.68.61-.18.16-.35.32-.53.47-8.36 7.59-5.24 9.37-20.27 24.79-17.13 17.57-28.84 17.81-32.16 16.17-2.81-1.39 2.98-10.74 9.4-21.24l.93-1.53c.85-1.4 1.7-2.81 2.55-4.22 7.52-12.64 5.66-18.61 4.03-37.52-1.32-15.36-23.28-85.94-23.28-85.94l32.63-5.38s9.42 56.14 20.17 64.85c5.75 4.64 12.22 4.75 17.76 8.2.39.24.78.49 1.15.74 3.14 2.12 6.35 4.3 8.87 7.23z"/><path class="st9" d="M2271.06 1651.32c2.51 2.92 2.81 6.17 1.54 9.63 0 .01-.01.04-.03.05-2.89 6.38-10.41 13.45-19.06 20.52-1.13.93-2.13 1.78-3.02 2.57-.23.2-.47.4-.68.61-.18.16-.35.32-.53.47-8.36 7.59-5.24 9.37-20.27 24.79-17.13 17.57-28.84 17.81-32.16 16.17-2.81-1.39 2.98-10.74 9.4-21.24 3.32-1.19 18.74-7.33 30.47-22.12 10.33-13 17.28-29.74 24.32-39.41.39.24.78.49 1.15.74 3.14 2.11 6.35 4.29 8.87 7.22z"/><path class="st17" d="M2008.41 1629.11c-2.08 10.05-16.41 8.27-32.4 4.24-15.99-4.03-12.22.65-35-2.03-22.78-2.68-29.63-11.23-30.3-14.63-.6-3.01 10.67-3.99 22.77-5.3 1.52-.16 3.05-.34 4.58-.51 13.66-1.62 23.71-10.35 36.15-17.49 11.79-6.77 29.5-34.55 29.5-34.55l31.25 2.7s-16.58 24.81-23.01 35.6c-3.78 6.35-3.64 14.78-3.22 21.29.22 3.53.42 7.14-.32 10.68z"/><path class="st9" d="M1976.01 1633.35c-15.99-4.03-12.22.65-35-2.03-22.78-2.68-29.63-11.23-30.3-14.63-.6-3.01 10.67-3.99 22.77-5.3l.11.23s13.61 9.79 32.58 10.38c15.47.49 31.88-3.83 42.56-3.58.22 3.54.42 7.16-.32 10.69-2.08 10.05-16.41 8.27-32.4 4.24zM2129.66 1430.02l28.68 78.86 37.44 102.97s10.35 1.07 20.29-1.71c9.15-2.57 19.68-9.41 19.68-9.41s-9.82-110.35-29.14-173.79c-4.95-16.28-10.54-29.47-16.75-36.91-30.41-36.42-60.2 39.99-60.2 39.99z"/><path class="st10" d="M2160.26 1305.31c19.19-6.04 73.76 2.27 128.55 13.4l11.62-18.87 118.57-8.42s38.49 87 16.7 142.11c-3.2 8.1-11.02 11.47-21.68 11.57 0 .01-.01.01-.01.02 0 0-70.73 1.23-93.63 1.07-58.94-.42-124.44-41.39-132.94-43.16-13.91-2.88-19.68 24.94-33.82 54.09-14.14 29.16-131.87 128.63-131.87 128.63s-17.99.05-25.4-2.79c-7.97-3.05-10.86-6.96-10.86-6.96s131.48-257.06 174.77-270.69z"/><path class="st9" d="M2302.27 1136.65c42.04 23.53 127.31 72.31 127.76 72 0 0 31.38 12.08 49.32.35 29.89-19.55 46.22-72.62-7.87-118.77-26.98-23.02-46.22-28.71-48.89-65.17-1.45-19.78-28.02-85.23-72.97-79.51-3.76.48-7.54.81-11.32.66-5.24-.21-13.91.5-22.83 5.72-25.52 14.95-76.4 175.28-13.2 184.72z"/><path class="st17" d="M2337.78 1117.12c-.19.12 20.71 7.42 34.76 1.31 13.22-5.73 23.36-27.34 23.16-27.35-5.99-.32-12.54-5.61-17.36-40.03l-2.56.9-43.03 15.14s3.01 13.79 4.93 26.92c1.62 11.01 2.46 21.57.1 23.11z"/><path d="M2332.76 1067.08s1.83 9.67 4.38 23.48c24.68-4.26 35.08-25.32 38.65-38.62l-43.03 15.14z" fill="#ed975d"/><path class="st17" d="M2326.27 1080.71s58.78-7.47 53.56-44c-5.21-36.53-1.14-62.1-38.89-58.88-37.75 3.22-43.04 18.2-44.26 30.82-1.22 12.62 14.16 73.06 29.59 72.06z"/><path class="st9" d="M2298.97 988.66s37.36 32.66 62.91 35.45c25.55 2.79 35.29-5.35 35.29-5.35s-14.98-12.62-23.91-32.88c-2.63-5.97-8.25-10.1-14.75-10.7-18.25-1.7-52.85-2.67-59.54 13.48z"/><path class="st9" d="M2322.49 985.92s-12.66 12.07-16.69 21.06c-3.88 8.68-5.18 29.48-2.19 37.77 0 0-19.33-38.24-8.1-56.67 11.9-19.54 26.98-2.16 26.98-2.16z"/><path class="st2" d="M2287.73 1203.27c.94 118.88-.18 94.03 12.75 105.41 3.11 2.74 11.91 4.42 23.5 5.27 36.43 2.68 100.55-2.88 103.03-9.6 8.57-23.25 2.69-30.53 9.95-66.16.76-3.79 1.69-7.89 2.79-12.36 6.02-24.47 11.77-32.76-8.7-72.29-18.57-35.8-37.91-64.88-39.67-63.85-49.85 29.12-53.68 4.32-53.68 4.32s-50.44 51.28-49.97 109.26z"/><path class="st10" d="M2158.33 1508.88l37.44 102.97s10.35 1.07 20.29-1.71c9.15-2.57 19.68-9.41 19.68-9.41s-9.82-110.35-29.14-173.79l-48.27 81.94z"/><path class="st2" d="M2337.69 1094s-51.14 8.3-57.3 30.25c-6.15 21.95-42.36 151-42.36 151s25.94 4.85 38.02-7.06 42.53-111 42.53-111l19.11-63.19z"/><path d="M2323.97 1313.94c36.43 2.68 100.55-2.88 103.03-9.6 8.57-23.25 2.69-30.53 9.95-66.16l-17.23-49.63s2.52 55.15-13.84 69.53c-16.34 14.38-66.76 27.52-74.75 39.58-3.85 5.79-6.4 11.61-7.16 16.28z" fill="#f2ccaa"/><path class="st17" d="M2365.9 1291.05s-35.9-8.26-41.73-5.11c-5.82 3.15-20.09 14.67-21.89 18.7-1.8 4.03 12.94-2.98 17.73-4.23 3.1-.81 11.23 2.08 15.25 3.45 16.93 5.78 27.35 2.94 27.35 2.94l3.29-15.75z"/><path class="st2" d="M2391.4 1089.66s48.26 3.32 64.81 26.75c23.3 32.98 68.99 173.17 42.1 191.64-30.27 20.79-137.15 4.53-137.15 4.53s-3.44-16.67 1.57-24.68c5.01-8.01 85.6-20.45 89.34-24.14 3.74-3.69-45.93-72.77-45.85-83.92.09-11.15-14.82-90.18-14.82-90.18z"/><path class="st17" d="M2322.36 1295.94s-7.6 9.67-10.08 10.81c-2.48 1.14-4.07.84-4.07.84l5.14-9.1 9.01-2.55zM2324.17 1285.94l-21.98 10.48s.92 1.53 3.62 1.43c2.7-.1 9.52-2.54 9.52-2.54l8.84-9.37z"/><g><path class="st25" d="M2316.96 1322.43l-173.28-1.22-51.21-129.99 173.01 1.22z"/><path fill="#33703e" d="M2141.68 1316.15l228.83 1.61-.04 5.05-226.79-1.6z"/><path class="st2" d="M2187.88 1256.71c-1.27-4.57 1.39-8.24 5.94-8.21 4.56.03 9.28 3.76 10.56 8.33 1.27 4.57-1.39 8.24-5.94 8.21s-9.29-3.77-10.56-8.33z"/></g></g><g><path transform="rotate(-89.989 1527.105 1783.863)" fill="#c65447" d="M1474.77 1520.61h104.67v526.5h-104.67z"/><path class="st12" d="M1263.84 1836.15l-77.38-33.1-45.01-19.25 46.07-19.69 76.35-32.63s10.19 25.49 10.34 49.45c.24 37.61-10.37 55.22-10.37 55.22zM1851.56 1766.31l-.01 33.09c0 20.35-16.51 36.85-36.86 36.85h-24.35l.02-104.67h26.49c19.18.01 34.72 15.56 34.71 34.73z"/><path class="st10" d="M1187.52 1764.11c1.92 10.58 3.58 26.78-1.06 38.94l-45.01-19.25 46.07-19.69z"/></g><g><path class="st11" d="M1377.04 1186.52s9.43 40.92 36.92 40.92c23.56 0 55.89-53.26 55.89-53.26l-92.81 12.34z"/><path class="st10" d="M1692.65 1790.91l-17.66 12.14s-84.94-90.54-105.45-177.32c-3.66-15.5-5.14-30.78-3.57-45.28 0 0-1.24-3.93-3.41-10.88-.1-.3-.19-.62-.29-.93-.95-3.05-2.09-6.64-3.35-10.7-4.12-13.11-9.78-31.06-16.22-51.49-14.85-47.02-48.8-153.06-63.31-197.16l104.28-37.73s11.84 27.01 28.86 100.42c2.62 9.58 5.25 20.18 7.7 31.72a616.09 616.09 0 017.54 42.82c3.66 26.17 6.1 55.61 6.25 87.9.06 13.14-.26 26.76-1.04 40.81-.57 10.31.96 24.04 3.83 39.66 13.14 71.44 55.84 176.02 55.84 176.02z"/><path class="st9" d="M1748.21 1834.54h-84.31s-3.15-13.45 2.38-22.6c4.9-8.1 3.02-12.71-.61-19.41 3.82 1.56 8.76 2.99 14.2 2.67 4.2-.24 8.64-2.15 12.54-4.41 3.63 4.14 19.17 21.75 24.02 25.23 5.52 3.98 30.08 2.57 31.78 18.52zM1627.77 1446.54l-65.5 122.11c-.95-3.05-2.09-6.64-3.35-10.7-4.12-13.11-9.78-31.06-16.22-51.49-14.85-47.02-48.8-153.06-63.31-197.16l104.28-37.73s11.84 27.01 28.86 100.42c2.62 9.58 5.25 20.18 7.7 31.72 2.79 13.08 5.38 27.38 7.54 42.83zM1477.69 1808.15s-5.84 14.32-.34 26.39h45.86s.95-10.89-15.69-23.51c-12.6-9.56-29.83-2.88-29.83-2.88z"/><path class="st28" d="M1527.6 875.99c.03-2.28 1.2-26.9 38.6-29.08 0 0-18.35 2.64-21.34 10.81 0 0 12.29-10.3 22.58-7.33 10.28 2.97 16.71 20.71 16.91 26.59.2 5.88-5.01 24.98-11.45 26.74-2.44.67-5.27.57-7.84.2 1.79 2.65 3.55 5.58 5.24 8.85 15.67 30.3 2.15 65.99-10.57 62.98-8.16-1.93-13.12 12.21-13.12 12.21l-78.48-67.49c-.01 0 27.49-60.57 59.47-44.48z"/><path class="st17" d="M1478.27 1081.05c8.7 6.04 19.61 11.01 33.31 14.17 51.34 11.86 71.02-31.53 78.41-61.32-7-4.01-13.59-4.89-17.39-5.34-3.71-.44-7.61-.73-10.85-.89-5.77-4.42-14.36-22.49-16.25-50.55l-2.42.65-40.46 11.07s1.85 12.86 2.76 25.02c.7 9.51.81 18.61-.99 20.83-3.16.68-5.05 1.13-5.05 1.13s0 .01-.02.04c-.56.91-12.29 20.21-21.05 45.19z"/><path class="st16" d="M1502.61 988.86s1.86 12.85 2.76 25.02c22.92-2.29 33.56-24.12 37.7-36.09l-40.46 11.07z"/><path class="st17" d="M1502.14 1008.17s52.78-13.56 43.83-46.3c-8.95-32.74-8.17-56.54-42.25-49.26-34.08 7.27-37.18 21.55-36.85 33.2s21.31 65.04 35.27 62.36z"/><path class="st28" d="M1463.43 927.18c5.42-12.08 12.15-11.6 16.4-9.58 24.38-23.68 49.3-5.41 49.3-5.41 9.96 22.52 30.59 31.32 30.59 31.32s-7.95 8.55-31.59 8.93c-7.22.12-14.56-3.02-21.27-7.43 13.05 12.52 28.17 19.97 28.17 19.97-29.72-4.95-50.38-38.72-52.5-42.31-2.42 3.76-7.02 11.75-7.26 18.42-.33 9.05 3.2 26.53-1.96 27.32 0 0-18-23.12-9.88-41.23z"/><path class="st17" d="M1486.96 1033.11s88.64-21.52 127.18 10.27l-19.26 268.63-173.36-41.88s4.88-17 38.12-62.2c33.24-45.2 18.78-111.5 27.32-174.82z"/><path class="st10" d="M1538.63 1282.11s-.1.91-.28 2.65c-.08.75-.18 1.65-.29 2.7-.75 6.96-2.16 20.32-3.98 37.69-4.76 45.56-12.22 118.73-17.31 176.49-3.98 45.16-6.51 80.9-5.14 86.64 4.1 17.27 0 223.71 0 223.71-14.73 7.07-37.07 0-37.07 0s-39.25-186.04-33.75-211.89c5.49-25.86-3.67-47.93-3.67-47.93-30.47-141.91-27.14-220.57-21.08-258.22 1.76-10.95 3.75-18.43 5.21-22.99 1.23-3.88 2.09-5.65 2.09-5.65 67.2-18.09 115.27 16.8 115.27 16.8z"/><path class="st25" d="M1626.09 1120c-4.28 32.32-21.4 71.86-27.51 93.15 0 0 10.22 73.9.46 94.2-1.11 2.32-2.48 3.93-4.16 4.66-36.15 15.75-176.92.46-182.86-44.96-2.16-16.5 53.62-74.54 56.87-81.58 1.35-2.91 2.79-12.36-3.75-31.92-9.27 28.58-60.43 20.36-60.43 20.36 6-10.28 20.97-81.36 37.67-113.45 12.56-24.12 46.09-27.62 46.09-27.62s13.96 22.14 47.71 19c33.75-3.14 39.93-23.8 39.93-23.8s29.94 3.98 39.16 11.42c1.59 1.29 16.43 38.2 10.82 80.54z"/><path d="M1598.58 1213.15s10.22 73.9.46 94.2c-26.34-13.22-47.09-48.98-42.3-88.81 3.54-29.45 8.81-36.16 24.56-53.01 11.58-12.38 38.34-13.08 36.24-7.19-6.24 17.53-15.73 43.57-18.96 54.81z" fill="#317253"/><path class="st21" d="M1488.64 1125.76l60.36 96.83h-102.7l-57.51-94.74z"/><path class="st22" d="M1545.86 1217.73l1.04-3.38-57.11-91.64-1.15 3.05z"/><path class="st12" d="M1489.79 1122.71l-96.75 2.75-4.25 2.39 99.85-2.09z"/><path class="st20" d="M1388.79 1127.85l-54.28-29.38 63.27 99.36 48.52 24.76z"/><path class="st17" d="M1676.01 1195.71c-5.81 2.66-20.74 20.23-26.06 22.02-23.95 8.01-125.87-13.31-125.87-13.31l3.16-17.85s100.04 2.66 111.03-.29c2.07-.56 12.88-17.47 17.04-19.89l20.7 29.32z"/><path class="st17" d="M1527.24 1186.56s-12.06-9.82-20.21-7.6c-8.15 2.22-20.15 12.53-24.6 14.97-4.45 2.44-16.55 11.17-10.42 16.45 6.13 5.28 25.23.75 32.79-3.3 7.56-4.05 19.29-2.67 19.29-2.67l3.15-17.85z"/><path class="st17" d="M1509.34 1178.65s-14.66-1.75-18.67-1.67c-4 .08-2.92.96-.71 4.07 2.21 3.11 9.84 4.29 10.19 5.38s9.19-7.78 9.19-7.78z"/><path class="st25" d="M1576.1 1028.04s43.48 5.16 55.45 23.8c15.14 23.57 50.86 117.46 49.71 141.12 0 0-26.12 44.45-115.67 37.33 0 0-9.32-32.91 9.52-43.78 0 0 46-8.18 51.3-12.85l-37.5-68.16-12.81-77.46z"/><path class="st17" d="M1402.7 1163.25c-1.35-5.48-13.29-2.06-17.32 1.1-.98.77-2.03 2.07-3.06 3.6-.13-.92-.23-1.79-.29-2.48-.23-2.57-3.22-7.18-3.97-3.73-.74 3.45-1.97 17.95-1.97 17.95-.15 11.68 7.36 16.5 12.18 12.7s15.77-23.66 14.43-29.14z"/></g><path d="M2998.54 1843.87H260.11c-1.94 0-3.53-1.59-3.53-3.53v-2.31c0-1.94 1.59-3.53 3.53-3.53h2738.42c1.94 0 3.53 1.59 3.53 3.53v2.31a3.52 3.52 0 01-3.52 3.53z" fill="#2e3552"/></svg>