<?xml version="1.0" encoding="utf-8"?><!--Generator: Adobe Illustrator 22.1.0, SVG Export Plug-In . SVG Version: 6.00 Build 0)--><svg version="1.1" id="Слой_1" xmlns="http://www.w3.org/2000/svg" xmlns:xlink="http://www.w3.org/1999/xlink" x="0px" y="0px" viewBox="0 0 30 30" style="enable-background:new 0 0 30 30" xml:space="preserve"><style type="text/css">.st0{fill:#FFFFFF;fill-opacity:0.6;}</style><path class="st0" d="M15,0.1c-8.3,0-15,6.7-15,15c0,7.4,5.4,13.6,12.5,14.8V18.2H8.9V14h3.6v-3.1c0-3.6,2.2-5.5,5.4-5.5
	c1.5,0,2.8,0.1,3.2,0.2v3.7l-2.2,0c-1.7,0-2.1,0.8-2.1,2V14H21l-0.5,4.2h-3.6v11.7C24.2,29,30,22.7,30,15.1C30,6.8,23.3,0.1,15,0.1z
	"/></svg>